<svg xmlns="http://www.w3.org/2000/svg" viewBox="0 0 800 420" role="img" aria-label="Ilustracion propia de pista de tenis para esta pregunta">
  <defs>
    <linearGradient id="bg" x1="0" x2="1" y1="0" y2="1">
      <stop stop-color="#e8fbf5"/>
      <stop offset="1" stop-color="#f6bc42" stop-opacity="0.22"/>
    </linearGradient>
  </defs>
  <rect width="800" height="420" fill="url(#bg)"/>
  <circle cx="192" cy="332" r="143" fill="#12b7a6" opacity="0.13"/>
  <circle cx="483" cy="203" r="133" fill="#f6bc42" opacity="0.16"/>
  <circle cx="512" cy="43" r="2" fill="#315be8" opacity="0.69"/><circle cx="103" cy="132" r="2" fill="#315be8" opacity="0.68"/><circle cx="614" cy="207" r="2" fill="#315be8" opacity="0.71"/><circle cx="205" cy="296" r="2" fill="#315be8" opacity="0.7"/><circle cx="308" cy="58" r="2" fill="#315be8" opacity="0.65"/><circle cx="615" cy="147" r="2" fill="#315be8" opacity="0.64"/><circle cx="410" cy="221" r="2" fill="#315be8" opacity="0.67"/><circle cx="717" cy="310" r="2" fill="#315be8" opacity="0.66"/><circle cx="104" cy="72" r="2" fill="#315be8" opacity="0.6100000000000001"/>
  <rect x="96" y="52" width="608" height="316" rx="28" fill="#f6bc42"/><path d="M400 52v316M96 210h608M170 110h460M170 310h460M170 110v200M630 110v200" stroke="#fff" stroke-width="7" opacity=".88"/><circle cx="502" cy="160" r="18" fill="#315be8"/><ellipse cx="226" cy="242" rx="36" ry="50" fill="none" stroke="#fffaf4" stroke-width="9" transform="rotate(-18 226 242)"/>
</svg>
