<svg xmlns="http://www.w3.org/2000/svg" viewBox="0 0 800 420" role="img" aria-label="Ilustracion propia de oceano y olas para esta pregunta">
  <defs>
    <linearGradient id="bg" x1="0" x2="1" y1="0" y2="1">
      <stop stop-color="#dff8ff"/>
      <stop offset="1" stop-color="#dff8ff" stop-opacity="0.22"/>
    </linearGradient>
  </defs>
  <rect width="800" height="420" fill="url(#bg)"/>
  <circle cx="132" cy="105" r="126" fill="#12b7a6" opacity="0.13"/>
  <circle cx="325" cy="210" r="121" fill="#315be8" opacity="0.16"/>
  <circle cx="558" cy="360" r="5" fill="#fffaf4" opacity="0.55"/><circle cx="149" cy="107" r="5" fill="#fffaf4" opacity="0.54"/><circle cx="456" cy="197" r="5" fill="#fffaf4" opacity="0.53"/><circle cx="47" cy="286" r="5" fill="#fffaf4" opacity="0.52"/><circle cx="46" cy="346" r="5" fill="#fffaf4" opacity="0.5900000000000001"/><circle cx="353" cy="93" r="5" fill="#fffaf4" opacity="0.5800000000000001"/><circle cx="660" cy="182" r="5" fill="#fffaf4" opacity="0.5700000000000001"/><circle cx="251" cy="271" r="5" fill="#fffaf4" opacity="0.56"/><circle cx="150" cy="48" r="5" fill="#fffaf4" opacity="0.47000000000000003"/>
  <path d="M0 240c88-42 144 42 232 0s144 42 232 0 144 42 232 0 144 42 232 0v180H0z" fill="#fff" opacity=".34"/><path d="M0 296c88-42 144 42 232 0s144 42 232 0 144 42 232 0 144 42 232 0" fill="none" stroke="#fff" stroke-width="18" opacity=".62"/><path d="M142 174c82-44 170-44 252 0" fill="none" stroke="#fff" stroke-width="10" opacity=".45" stroke-linecap="round"/>
</svg>
