<svg xmlns="http://www.w3.org/2000/svg" viewBox="0 0 800 420" role="img" aria-label="Ilustracion propia de cancha de baloncesto para esta pregunta">
  <defs>
    <linearGradient id="bg" x1="0" x2="1" y1="0" y2="1">
      <stop stop-color="#fff1df"/>
      <stop offset="1" stop-color="#f6bc42" stop-opacity="0.22"/>
    </linearGradient>
  </defs>
  <rect width="800" height="420" fill="url(#bg)"/>
  <circle cx="145" cy="106" r="68" fill="#f6bc42" opacity="0.13"/>
  <circle cx="402" cy="246" r="64" fill="#d95a35" opacity="0.16"/>
  <circle cx="89" cy="221" r="5" fill="#15191d" opacity="0.65"/><circle cx="498" cy="132" r="5" fill="#15191d" opacity="0.66"/><circle cx="703" cy="57" r="5" fill="#15191d" opacity="0.63"/><circle cx="396" cy="310" r="5" fill="#15191d" opacity="0.64"/><circle cx="293" cy="206" r="5" fill="#15191d" opacity="0.69"/><circle cx="702" cy="117" r="5" fill="#15191d" opacity="0.7"/><circle cx="191" cy="43" r="5" fill="#15191d" opacity="0.67"/><circle cx="600" cy="296" r="5" fill="#15191d" opacity="0.68"/><circle cx="397" cy="250" r="5" fill="#15191d" opacity="0.5700000000000001"/>
  <rect x="76" y="58" width="648" height="304" rx="30" fill="#d95a35"/><path d="M100 210h600M400 58v304" stroke="#fffaf4" stroke-width="8" opacity=".8"/><circle cx="400" cy="210" r="80" fill="none" stroke="#fffaf4" stroke-width="8" opacity=".8"/><circle cx="516" cy="246" r="42" fill="#15191d"/><path d="M474 246h84M516 204v84" stroke="#f6bc42" stroke-width="5" fill="none"/>
</svg>
