<svg xmlns="http://www.w3.org/2000/svg" viewBox="0 0 800 420" role="img" aria-label="Ilustracion propia de escenario musical para esta pregunta">
  <defs>
    <linearGradient id="bg" x1="0" x2="1" y1="0" y2="1">
      <stop stop-color="#201525"/>
      <stop offset="1" stop-color="#12b7a6" stop-opacity="0.22"/>
    </linearGradient>
  </defs>
  <rect width="800" height="420" fill="url(#bg)"/>
  <circle cx="156" cy="183" r="135" fill="#fffaf4" opacity="0.13"/>
  <circle cx="478" cy="112" r="142" fill="#ff4f6d" opacity="0.16"/>
  <circle cx="596" cy="367" r="4" fill="#12b7a6" opacity="0.35000000000000003"/><circle cx="187" cy="115" r="4" fill="#12b7a6" opacity="0.34"/><circle cx="698" cy="189" r="4" fill="#12b7a6" opacity="0.37"/><circle cx="289" cy="278" r="4" fill="#12b7a6" opacity="0.36000000000000004"/><circle cx="392" cy="40" r="4" fill="#12b7a6" opacity="0.31000000000000005"/><circle cx="699" cy="129" r="4" fill="#12b7a6" opacity="0.30000000000000004"/><circle cx="494" cy="204" r="4" fill="#12b7a6" opacity="0.33"/><circle cx="85" cy="293" r="4" fill="#12b7a6" opacity="0.32"/><circle cx="288" cy="338" r="4" fill="#12b7a6" opacity="0.43000000000000005"/>
  <rect width="800" height="420" fill="#fffaf4"/><path d="M110 0l170 290M690 0L510 290" stroke="#12b7a6" stroke-width="34" opacity=".5"/><rect x="150" y="292" width="500" height="54" rx="20" fill="#ff4f6d" opacity=".9"/><path d="M280 292c26-80 214-80 240 0" fill="none" stroke="#fffaf4" stroke-width="16"/><path d="M396 98v126c0 28-24 50-58 50s-58-22-58-50 24-50 58-50c12 0 23 3 32 8V98z" fill="#ff4f6d"/>
</svg>
