<svg xmlns="http://www.w3.org/2000/svg" viewBox="0 0 800 420" role="img" aria-label="Ilustracion propia de escenario musical para esta pregunta">
  <defs>
    <linearGradient id="bg" x1="0" x2="1" y1="0" y2="1">
      <stop stop-color="#201525"/>
      <stop offset="1" stop-color="#ff4f6d" stop-opacity="0.22"/>
    </linearGradient>
  </defs>
  <rect width="800" height="420" fill="url(#bg)"/>
  <circle cx="659" cy="161" r="85" fill="#fffaf4" opacity="0.13"/>
  <circle cx="391" cy="217" r="76" fill="#ff4f6d" opacity="0.16"/>
  <circle cx="239" cy="308" r="2" fill="#12b7a6" opacity="0.4"/><circle cx="648" cy="218" r="2" fill="#12b7a6" opacity="0.41000000000000003"/><circle cx="341" cy="129" r="2" fill="#12b7a6" opacity="0.42000000000000004"/><circle cx="750" cy="40" r="2" fill="#12b7a6" opacity="0.43000000000000005"/><circle cx="751" cy="322" r="2" fill="#12b7a6" opacity="0.36000000000000004"/><circle cx="444" cy="233" r="2" fill="#12b7a6" opacity="0.37"/><circle cx="137" cy="144" r="2" fill="#12b7a6" opacity="0.38"/><circle cx="546" cy="55" r="2" fill="#12b7a6" opacity="0.39"/><circle cx="647" cy="278" r="2" fill="#12b7a6" opacity="0.48000000000000004"/>
  <rect width="800" height="420" fill="#fffaf4"/><path d="M182 0l170 290M618 0L510 290" stroke="#12b7a6" stroke-width="34" opacity=".5"/><rect x="150" y="292" width="500" height="54" rx="20" fill="#ff4f6d" opacity=".9"/><path d="M280 292c26-80 214-80 240 0" fill="none" stroke="#fffaf4" stroke-width="16"/><path d="M438 98v126c0 28-24 50-58 50s-58-22-58-50 24-50 58-50c12 0 23 3 32 8V98z" fill="#ff4f6d"/>
</svg>
