<svg xmlns="http://www.w3.org/2000/svg" viewBox="0 0 800 420" role="img" aria-label="Ilustracion propia de escenario musical para esta pregunta">
  <defs>
    <linearGradient id="bg" x1="0" x2="1" y1="0" y2="1">
      <stop stop-color="#201525"/>
      <stop offset="1" stop-color="#ff4f6d" stop-opacity="0.22"/>
    </linearGradient>
  </defs>
  <rect width="800" height="420" fill="url(#bg)"/>
  <circle cx="621" cy="225" r="135" fill="#fffaf4" opacity="0.13"/>
  <circle cx="686" cy="332" r="122" fill="#ff4f6d" opacity="0.16"/>
  <circle cx="482" cy="68" r="4" fill="#12b7a6" opacity="0.5700000000000001"/><circle cx="73" cy="157" r="4" fill="#12b7a6" opacity="0.56"/><circle cx="380" cy="247" r="5" fill="#12b7a6" opacity="0.55"/><circle cx="687" cy="336" r="5" fill="#12b7a6" opacity="0.54"/><circle cx="686" cy="54" r="4" fill="#12b7a6" opacity="0.6100000000000001"/><circle cx="277" cy="143" r="4" fill="#12b7a6" opacity="0.6000000000000001"/><circle cx="584" cy="232" r="4" fill="#12b7a6" opacity="0.5900000000000001"/><circle cx="175" cy="321" r="4" fill="#12b7a6" opacity="0.5800000000000001"/><circle cx="174" cy="39" r="4" fill="#12b7a6" opacity="0.65"/>
  <rect width="800" height="420" fill="#fffaf4"/><path d="M110 0l170 290M690 0L510 290" stroke="#12b7a6" stroke-width="34" opacity=".5"/><rect x="150" y="292" width="500" height="54" rx="20" fill="#ff4f6d" opacity=".9"/><path d="M280 292c26-80 214-80 240 0" fill="none" stroke="#fffaf4" stroke-width="16"/><path d="M396 98v126c0 28-24 50-58 50s-58-22-58-50 24-50 58-50c12 0 23 3 32 8V98z" fill="#ff4f6d"/>
</svg>
