<svg xmlns="http://www.w3.org/2000/svg" viewBox="0 0 800 420" role="img" aria-label="Ilustracion propia de escenario musical para esta pregunta">
  <defs>
    <linearGradient id="bg" x1="0" x2="1" y1="0" y2="1">
      <stop stop-color="#201525"/>
      <stop offset="1" stop-color="#fffaf4" stop-opacity="0.22"/>
    </linearGradient>
  </defs>
  <rect width="800" height="420" fill="url(#bg)"/>
  <circle cx="521" cy="123" r="116" fill="#fffaf4" opacity="0.13"/>
  <circle cx="374" cy="141" r="90" fill="#ff4f6d" opacity="0.16"/>
  <circle cx="442" cy="153" r="3" fill="#12b7a6" opacity="0.72"/><circle cx="749" cy="242" r="4" fill="#12b7a6" opacity="0.71"/><circle cx="340" cy="331" r="4" fill="#12b7a6" opacity="0.7"/><circle cx="647" cy="78" r="4" fill="#12b7a6" opacity="0.69"/><circle cx="646" cy="138" r="3" fill="#12b7a6" opacity="0.31000000000000005"/><circle cx="237" cy="227" r="3" fill="#12b7a6" opacity="0.30000000000000004"/><circle cx="544" cy="317" r="3" fill="#12b7a6" opacity="0.29000000000000004"/><circle cx="135" cy="64" r="3" fill="#12b7a6" opacity="0.28"/><circle cx="750" cy="182" r="4" fill="#12b7a6" opacity="0.64"/>
  <rect width="800" height="420" fill="#fffaf4"/><path d="M110 0l170 290M690 0L510 290" stroke="#12b7a6" stroke-width="34" opacity=".5"/><rect x="150" y="292" width="500" height="54" rx="20" fill="#ff4f6d" opacity=".9"/><path d="M280 292c26-80 214-80 240 0" fill="none" stroke="#fffaf4" stroke-width="16"/><path d="M396 98v126c0 28-24 50-58 50s-58-22-58-50 24-50 58-50c12 0 23 3 32 8V98z" fill="#ff4f6d"/>
</svg>
