<svg xmlns="http://www.w3.org/2000/svg" viewBox="0 0 800 420" role="img" aria-label="Ilustracion propia de espacio y planetas para esta pregunta">
  <defs>
    <linearGradient id="bg" x1="0" x2="1" y1="0" y2="1">
      <stop stop-color="#12171a"/>
      <stop offset="1" stop-color="#315be8" stop-opacity="0.22"/>
    </linearGradient>
  </defs>
  <rect width="800" height="420" fill="url(#bg)"/>
  <circle cx="399" cy="282" r="91" fill="#e46b4f" opacity="0.13"/>
  <circle cx="433" cy="339" r="137" fill="#f6bc42" opacity="0.16"/>
  <circle cx="187" cy="283" r="5" fill="#315be8" opacity="0.6200000000000001"/><circle cx="596" cy="194" r="5" fill="#315be8" opacity="0.63"/><circle cx="289" cy="105" r="5" fill="#315be8" opacity="0.64"/><circle cx="698" cy="357" r="5" fill="#315be8" opacity="0.65"/><circle cx="391" cy="268" r="5" fill="#315be8" opacity="0.66"/><circle cx="84" cy="179" r="5" fill="#315be8" opacity="0.67"/><circle cx="493" cy="90" r="5" fill="#315be8" opacity="0.68"/><circle cx="186" cy="343" r="5" fill="#315be8" opacity="0.69"/><circle cx="495" cy="312" r="2" fill="#315be8" opacity="0.54"/>
  <rect width="800" height="420" fill="#e46b4f"/><circle cx="388" cy="218" r="91" fill="#f6bc42"/><path d="M230 212c36 14 66-22 112-2" stroke="#8f3327" stroke-width="12" stroke-linecap="round" opacity=".36"/><circle cx="432" cy="214" r="60" fill="#315be8"/><circle cx="600" cy="276" r="32" fill="#fffaf4"/><path d="M176 324c140 46 308 54 476 0" stroke="#fff" stroke-width="5" fill="none" opacity=".38"/>
</svg>
