<svg xmlns="http://www.w3.org/2000/svg" viewBox="0 0 800 420" role="img" aria-label="Ilustracion propia de oceano y olas para esta pregunta">
  <defs>
    <linearGradient id="bg" x1="0" x2="1" y1="0" y2="1">
      <stop stop-color="#dff8ff"/>
      <stop offset="1" stop-color="#dff8ff" stop-opacity="0.22"/>
    </linearGradient>
  </defs>
  <rect width="800" height="420" fill="url(#bg)"/>
  <circle cx="389" cy="261" r="78" fill="#12b7a6" opacity="0.13"/>
  <circle cx="357" cy="86" r="75" fill="#315be8" opacity="0.16"/>
  <circle cx="185" cy="63" r="5" fill="#fffaf4" opacity="0.55"/><circle cx="594" cy="316" r="5" fill="#fffaf4" opacity="0.56"/><circle cx="83" cy="241" r="5" fill="#fffaf4" opacity="0.53"/><circle cx="492" cy="152" r="5" fill="#fffaf4" opacity="0.54"/><circle cx="697" cy="77" r="5" fill="#fffaf4" opacity="0.51"/><circle cx="390" cy="330" r="5" fill="#fffaf4" opacity="0.52"/><circle cx="595" cy="256" r="5" fill="#fffaf4" opacity="0.49"/><circle cx="288" cy="166" r="5" fill="#fffaf4" opacity="0.5"/><circle cx="593" cy="376" r="4" fill="#fffaf4" opacity="0.63"/>
  <path d="M0 240c88-42 144 42 232 0s144 42 232 0 144 42 232 0 144 42 232 0v180H0z" fill="#fff" opacity=".34"/><path d="M0 316c88-42 144 42 232 0s144 42 232 0 144 42 232 0 144 42 232 0" fill="none" stroke="#fff" stroke-width="18" opacity=".62"/><path d="M142 174c82-44 170-44 252 0" fill="none" stroke="#fff" stroke-width="10" opacity=".45" stroke-linecap="round"/>
</svg>
