<svg xmlns="http://www.w3.org/2000/svg" viewBox="0 0 800 420" role="img" aria-label="Ilustracion propia de escenario musical para esta pregunta">
  <defs>
    <linearGradient id="bg" x1="0" x2="1" y1="0" y2="1">
      <stop stop-color="#201525"/>
      <stop offset="1" stop-color="#ff4f6d" stop-opacity="0.22"/>
    </linearGradient>
  </defs>
  <rect width="800" height="420" fill="url(#bg)"/>
  <circle cx="611" cy="154" r="125" fill="#fffaf4" opacity="0.13"/>
  <circle cx="235" cy="252" r="91" fill="#ff4f6d" opacity="0.16"/>
  <circle cx="641" cy="164" r="3" fill="#12b7a6" opacity="0.6000000000000001"/><circle cx="334" cy="75" r="3" fill="#12b7a6" opacity="0.6100000000000001"/><circle cx="539" cy="343" r="3" fill="#12b7a6" opacity="0.5800000000000001"/><circle cx="232" cy="253" r="3" fill="#12b7a6" opacity="0.5900000000000001"/><circle cx="437" cy="179" r="3" fill="#12b7a6" opacity="0.56"/><circle cx="130" cy="90" r="3" fill="#12b7a6" opacity="0.5700000000000001"/><circle cx="335" cy="357" r="3" fill="#12b7a6" opacity="0.54"/><circle cx="744" cy="268" r="3" fill="#12b7a6" opacity="0.55"/><circle cx="333" cy="135" r="3" fill="#12b7a6" opacity="0.68"/>
  <rect width="800" height="420" fill="#fffaf4"/><path d="M110 0l170 290M690 0L510 290" stroke="#12b7a6" stroke-width="34" opacity=".5"/><rect x="150" y="292" width="500" height="54" rx="20" fill="#ff4f6d" opacity=".9"/><path d="M280 292c26-80 214-80 240 0" fill="none" stroke="#fffaf4" stroke-width="16"/><path d="M396 98v126c0 28-24 50-58 50s-58-22-58-50 24-50 58-50c12 0 23 3 32 8V98z" fill="#ff4f6d"/>
</svg>
