<svg xmlns="http://www.w3.org/2000/svg" viewBox="0 0 800 420" role="img" aria-label="Ilustracion propia de naturaleza para esta pregunta">
  <defs>
    <linearGradient id="bg" x1="0" x2="1" y1="0" y2="1">
      <stop stop-color="#ecfbef"/>
      <stop offset="1" stop-color="#f6bc42" stop-opacity="0.22"/>
    </linearGradient>
  </defs>
  <rect width="800" height="420" fill="url(#bg)"/>
  <circle cx="115" cy="332" r="131" fill="#12b7a6" opacity="0.13"/>
  <circle cx="323" cy="238" r="122" fill="#315be8" opacity="0.16"/>
  <circle cx="198" cy="362" r="5" fill="#f6bc42" opacity="0.5800000000000001"/><circle cx="505" cy="109" r="5" fill="#f6bc42" opacity="0.5700000000000001"/><circle cx="96" cy="198" r="5" fill="#f6bc42" opacity="0.56"/><circle cx="403" cy="287" r="5" fill="#f6bc42" opacity="0.55"/><circle cx="710" cy="376" r="5" fill="#f6bc42" opacity="0.54"/><circle cx="301" cy="123" r="5" fill="#f6bc42" opacity="0.53"/><circle cx="608" cy="212" r="5" fill="#f6bc42" opacity="0.52"/><circle cx="199" cy="302" r="5" fill="#f6bc42" opacity="0.51"/><circle cx="606" cy="332" r="5" fill="#f6bc42" opacity="0.66"/>
  <path d="M164 322c172-20 120-184 278-208 118-18 172 78 194 158-152 42-298 74-472 50z" fill="#315be8"/><path d="M214 300c138-68 244-104 390-118" stroke="#fff" stroke-width="14" stroke-linecap="round" opacity=".72"/><path d="M394 254c-28-52-20-104 24-156 72 30 102 82 84 150z" fill="#f6bc42" opacity=".88"/>
</svg>
