<svg xmlns="http://www.w3.org/2000/svg" viewBox="0 0 800 420" role="img" aria-label="Ilustracion propia de naturaleza para esta pregunta">
  <defs>
    <linearGradient id="bg" x1="0" x2="1" y1="0" y2="1">
      <stop stop-color="#ecfbef"/>
      <stop offset="1" stop-color="#ecfbef" stop-opacity="0.22"/>
    </linearGradient>
  </defs>
  <rect width="800" height="420" fill="url(#bg)"/>
  <circle cx="166" cy="149" r="130" fill="#12b7a6" opacity="0.13"/>
  <circle cx="404" cy="215" r="122" fill="#315be8" opacity="0.16"/>
  <circle cx="179" cy="135" r="3" fill="#f6bc42" opacity="0.5"/><circle cx="588" cy="46" r="3" fill="#f6bc42" opacity="0.51"/><circle cx="281" cy="299" r="3" fill="#f6bc42" opacity="0.52"/><circle cx="690" cy="210" r="3" fill="#f6bc42" opacity="0.53"/><circle cx="383" cy="121" r="3" fill="#f6bc42" opacity="0.54"/><circle cx="76" cy="373" r="3" fill="#f6bc42" opacity="0.55"/><circle cx="485" cy="284" r="3" fill="#f6bc42" opacity="0.56"/><circle cx="178" cy="195" r="3" fill="#f6bc42" opacity="0.5700000000000001"/><circle cx="487" cy="164" r="4" fill="#f6bc42" opacity="0.42000000000000004"/>
  <path d="M164 322c172-20 120-184 278-208 118-18 172 78 194 158-152 42-298 74-472 50z" fill="#315be8"/><path d="M214 300c138-68 244-104 390-118" stroke="#fff" stroke-width="14" stroke-linecap="round" opacity=".72"/><path d="M314 254c-28-52-20-104 24-156 72 30 102 82 84 150z" fill="#f6bc42" opacity=".88"/>
</svg>
