<svg xmlns="http://www.w3.org/2000/svg" viewBox="0 0 800 420" role="img" aria-label="Ilustracion propia de naturaleza para esta pregunta">
  <defs>
    <linearGradient id="bg" x1="0" x2="1" y1="0" y2="1">
      <stop stop-color="#ecfbef"/>
      <stop offset="1" stop-color="#f6bc42" stop-opacity="0.22"/>
    </linearGradient>
  </defs>
  <rect width="800" height="420" fill="url(#bg)"/>
  <circle cx="218" cy="338" r="119" fill="#12b7a6" opacity="0.13"/>
  <circle cx="336" cy="203" r="140" fill="#315be8" opacity="0.16"/>
  <circle cx="649" cy="337" r="3" fill="#f6bc42" opacity="0.43000000000000005"/><circle cx="342" cy="248" r="3" fill="#f6bc42" opacity="0.44000000000000006"/><circle cx="547" cy="173" r="3" fill="#f6bc42" opacity="0.41000000000000003"/><circle cx="240" cy="84" r="3" fill="#f6bc42" opacity="0.42000000000000004"/><circle cx="445" cy="351" r="3" fill="#f6bc42" opacity="0.39"/><circle cx="138" cy="262" r="3" fill="#f6bc42" opacity="0.4"/><circle cx="343" cy="188" r="3" fill="#f6bc42" opacity="0.37"/><circle cx="752" cy="99" r="3" fill="#f6bc42" opacity="0.38"/><circle cx="341" cy="308" r="3" fill="#f6bc42" opacity="0.51"/>
  <path d="M164 322c172-20 120-184 278-208 118-18 172 78 194 158-152 42-298 74-472 50z" fill="#315be8"/><path d="M214 300c138-68 244-104 390-118" stroke="#fff" stroke-width="14" stroke-linecap="round" opacity=".72"/><path d="M354 254c-28-52-20-104 24-156 72 30 102 82 84 150z" fill="#f6bc42" opacity=".88"/>
</svg>
