<svg xmlns="http://www.w3.org/2000/svg" viewBox="0 0 800 420" role="img" aria-label="Ilustracion propia de naturaleza para esta pregunta">
  <defs>
    <linearGradient id="bg" x1="0" x2="1" y1="0" y2="1">
      <stop stop-color="#ecfbef"/>
      <stop offset="1" stop-color="#ecfbef" stop-opacity="0.22"/>
    </linearGradient>
  </defs>
  <rect width="800" height="420" fill="url(#bg)"/>
  <circle cx="188" cy="259" r="94" fill="#12b7a6" opacity="0.13"/>
  <circle cx="182" cy="158" r="97" fill="#315be8" opacity="0.16"/>
  <circle cx="351" cy="173" r="2" fill="#f6bc42" opacity="0.49"/><circle cx="44" cy="84" r="2" fill="#f6bc42" opacity="0.5"/><circle cx="453" cy="337" r="2" fill="#f6bc42" opacity="0.51"/><circle cx="146" cy="247" r="2" fill="#f6bc42" opacity="0.52"/><circle cx="555" cy="158" r="2" fill="#f6bc42" opacity="0.53"/><circle cx="248" cy="69" r="2" fill="#f6bc42" opacity="0.54"/><circle cx="657" cy="322" r="2" fill="#f6bc42" opacity="0.55"/><circle cx="350" cy="233" r="2" fill="#f6bc42" opacity="0.56"/><circle cx="659" cy="202" r="2" fill="#f6bc42" opacity="0.41000000000000003"/>
  <path d="M164 322c172-20 120-184 278-208 118-18 172 78 194 158-152 42-298 74-472 50z" fill="#315be8"/><path d="M214 300c138-68 244-104 390-118" stroke="#fff" stroke-width="14" stroke-linecap="round" opacity=".72"/><path d="M354 254c-28-52-20-104 24-156 72 30 102 82 84 150z" fill="#f6bc42" opacity=".88"/>
</svg>
