<svg xmlns="http://www.w3.org/2000/svg" viewBox="0 0 800 420" role="img" aria-label="Ilustracion propia de naturaleza para esta pregunta">
  <defs>
    <linearGradient id="bg" x1="0" x2="1" y1="0" y2="1">
      <stop stop-color="#ecfbef"/>
      <stop offset="1" stop-color="#12b7a6" stop-opacity="0.22"/>
    </linearGradient>
  </defs>
  <rect width="800" height="420" fill="url(#bg)"/>
  <circle cx="145" cy="243" r="132" fill="#12b7a6" opacity="0.13"/>
  <circle cx="477" cy="120" r="82" fill="#315be8" opacity="0.16"/>
  <circle cx="711" cy="61" r="4" fill="#f6bc42" opacity="0.64"/><circle cx="404" cy="314" r="3" fill="#f6bc42" opacity="0.65"/><circle cx="97" cy="225" r="3" fill="#f6bc42" opacity="0.66"/><circle cx="506" cy="135" r="3" fill="#f6bc42" opacity="0.67"/><circle cx="507" cy="75" r="4" fill="#f6bc42" opacity="0.6000000000000001"/><circle cx="200" cy="328" r="4" fill="#f6bc42" opacity="0.6100000000000001"/><circle cx="609" cy="239" r="4" fill="#f6bc42" opacity="0.6200000000000001"/><circle cx="302" cy="150" r="4" fill="#f6bc42" opacity="0.63"/><circle cx="403" cy="374" r="3" fill="#f6bc42" opacity="0.72"/>
  <path d="M164 322c172-20 120-184 278-208 118-18 172 78 194 158-152 42-298 74-472 50z" fill="#315be8"/><path d="M214 300c138-68 244-104 390-118" stroke="#fff" stroke-width="14" stroke-linecap="round" opacity=".72"/><path d="M394 254c-28-52-20-104 24-156 72 30 102 82 84 150z" fill="#f6bc42" opacity=".88"/>
</svg>
