<svg xmlns="http://www.w3.org/2000/svg" viewBox="0 0 800 420" role="img" aria-label="Ilustracion propia de cine y rodaje para esta pregunta">
  <defs>
    <linearGradient id="bg" x1="0" x2="1" y1="0" y2="1">
      <stop stop-color="#15191d"/>
      <stop offset="1" stop-color="#f6bc42" stop-opacity="0.22"/>
    </linearGradient>
  </defs>
  <rect width="800" height="420" fill="url(#bg)"/>
  <circle cx="605" cy="182" r="93" fill="#fffaf4" opacity="0.13"/>
  <circle cx="384" cy="255" r="67" fill="#f6bc42" opacity="0.16"/>
  <circle cx="368" cy="129" r="2" fill="#ff4f6d" opacity="0.53"/><circle cx="675" cy="218" r="2" fill="#ff4f6d" opacity="0.52"/><circle cx="470" cy="293" r="2" fill="#ff4f6d" opacity="0.55"/><circle cx="61" cy="40" r="2" fill="#ff4f6d" opacity="0.54"/><circle cx="572" cy="115" r="2" fill="#ff4f6d" opacity="0.5700000000000001"/><circle cx="163" cy="204" r="2" fill="#ff4f6d" opacity="0.56"/><circle cx="674" cy="278" r="2" fill="#ff4f6d" opacity="0.5900000000000001"/><circle cx="265" cy="367" r="2" fill="#ff4f6d" opacity="0.5800000000000001"/><circle cx="676" cy="158" r="2" fill="#ff4f6d" opacity="0.45000000000000007"/>
  <rect width="800" height="420" fill="#fffaf4"/><circle cx="460" cy="194" r="120" fill="#ff4f6d" opacity=".42"/><rect x="190" y="182" width="420" height="198" rx="22" fill="#f6bc42"/><rect x="190" y="140" width="420" height="70" rx="18" fill="#fffaf4"/><path d="M228 140l58 70M330 140l58 70M432 140l58 70M534 140l58 70" stroke="#fffaf4" stroke-width="20"/><rect x="244" y="254" width="312" height="18" rx="9" fill="#fffaf4" opacity=".16"/>
</svg>
