<svg xmlns="http://www.w3.org/2000/svg" viewBox="0 0 800 420" role="img" aria-label="Ilustracion propia de espacio y planetas para esta pregunta">
  <defs>
    <linearGradient id="bg" x1="0" x2="1" y1="0" y2="1">
      <stop stop-color="#12171a"/>
      <stop offset="1" stop-color="#315be8" stop-opacity="0.22"/>
    </linearGradient>
  </defs>
  <rect width="800" height="420" fill="url(#bg)"/>
  <circle cx="316" cy="97" r="85" fill="#e46b4f" opacity="0.13"/>
  <circle cx="423" cy="173" r="136" fill="#f6bc42" opacity="0.16"/>
  <circle cx="338" cy="141" r="5" fill="#315be8" opacity="0.51"/><circle cx="645" cy="230" r="2" fill="#315be8" opacity="0.5"/><circle cx="236" cy="319" r="2" fill="#315be8" opacity="0.49"/><circle cx="543" cy="66" r="2" fill="#315be8" opacity="0.48000000000000004"/><circle cx="542" cy="126" r="5" fill="#315be8" opacity="0.55"/><circle cx="133" cy="215" r="5" fill="#315be8" opacity="0.54"/><circle cx="440" cy="304" r="5" fill="#315be8" opacity="0.53"/><circle cx="747" cy="52" r="5" fill="#315be8" opacity="0.52"/><circle cx="746" cy="111" r="5" fill="#315be8" opacity="0.5900000000000001"/>
  <rect width="800" height="420" fill="#e46b4f"/><circle cx="286" cy="218" r="70" fill="#f6bc42"/><path d="M230 212c36 14 66-22 112-2" stroke="#8f3327" stroke-width="12" stroke-linecap="round" opacity=".36"/><circle cx="510" cy="160" r="48" fill="#315be8"/><circle cx="540" cy="276" r="32" fill="#fffaf4"/><path d="M176 324c140 46 308 54 476 0" stroke="#fff" stroke-width="5" fill="none" opacity=".38"/>
</svg>
