<svg xmlns="http://www.w3.org/2000/svg" viewBox="0 0 800 420" role="img" aria-label="Ilustracion propia de naturaleza para esta pregunta">
  <defs>
    <linearGradient id="bg" x1="0" x2="1" y1="0" y2="1">
      <stop stop-color="#ecfbef"/>
      <stop offset="1" stop-color="#315be8" stop-opacity="0.22"/>
    </linearGradient>
  </defs>
  <rect width="800" height="420" fill="url(#bg)"/>
  <circle cx="407" cy="85" r="113" fill="#12b7a6" opacity="0.13"/>
  <circle cx="134" cy="279" r="100" fill="#315be8" opacity="0.16"/>
  <circle cx="560" cy="143" r="3" fill="#f6bc42" opacity="0.66"/><circle cx="151" cy="232" r="3" fill="#f6bc42" opacity="0.65"/><circle cx="662" cy="307" r="3" fill="#f6bc42" opacity="0.68"/><circle cx="253" cy="54" r="3" fill="#f6bc42" opacity="0.67"/><circle cx="356" cy="158" r="4" fill="#f6bc42" opacity="0.6200000000000001"/><circle cx="663" cy="247" r="4" fill="#f6bc42" opacity="0.6100000000000001"/><circle cx="458" cy="322" r="3" fill="#f6bc42" opacity="0.64"/><circle cx="49" cy="69" r="3" fill="#f6bc42" opacity="0.63"/><circle cx="252" cy="114" r="3" fill="#f6bc42" opacity="0.29000000000000004"/>
  <path d="M164 322c172-20 120-184 278-208 118-18 172 78 194 158-152 42-298 74-472 50z" fill="#315be8"/><path d="M214 300c138-68 244-104 390-118" stroke="#fff" stroke-width="14" stroke-linecap="round" opacity=".72"/><path d="M334 254c-28-52-20-104 24-156 72 30 102 82 84 150z" fill="#f6bc42" opacity=".88"/>
</svg>
