<svg xmlns="http://www.w3.org/2000/svg" viewBox="0 0 800 420" role="img" aria-label="Ilustracion propia de arte y museo para esta pregunta">
  <defs>
    <linearGradient id="bg" x1="0" x2="1" y1="0" y2="1">
      <stop stop-color="#fff2df"/>
      <stop offset="1" stop-color="#ff4f6d" stop-opacity="0.22"/>
    </linearGradient>
  </defs>
  <rect width="800" height="420" fill="url(#bg)"/>
  <circle cx="368" cy="154" r="103" fill="#6f4a2d" opacity="0.13"/>
  <circle cx="130" cy="323" r="88" fill="#12b7a6" opacity="0.16"/>
  <circle cx="171" cy="327" r="5" fill="#ff4f6d" opacity="0.29000000000000004"/><circle cx="580" cy="238" r="5" fill="#ff4f6d" opacity="0.30000000000000004"/><circle cx="273" cy="149" r="5" fill="#ff4f6d" opacity="0.31000000000000005"/><circle cx="682" cy="60" r="5" fill="#ff4f6d" opacity="0.32"/><circle cx="683" cy="342" r="5" fill="#ff4f6d" opacity="0.7"/><circle cx="376" cy="253" r="5" fill="#ff4f6d" opacity="0.71"/><circle cx="69" cy="164" r="5" fill="#ff4f6d" opacity="0.72"/><circle cx="478" cy="75" r="5" fill="#ff4f6d" opacity="0.28"/><circle cx="479" cy="357" r="5" fill="#ff4f6d" opacity="0.66"/>
  <rect x="270" y="54" width="304" height="312" rx="24" fill="#6f4a2d"/><rect x="300" y="84" width="244" height="252" rx="16" fill="#d9c092"/><circle cx="422" cy="178" r="54" fill="#f0c7a5"/><path d="M352 318c12-82 42-120 70-120s58 38 70 120z" fill="#ff4f6d"/><path d="M366 154c36-72 116-46 122 10-36-18-74-18-122-10z" fill="#4a2d22"/>
</svg>
