<svg xmlns="http://www.w3.org/2000/svg" viewBox="0 0 800 420" role="img" aria-label="Ilustracion propia de naturaleza para esta pregunta">
  <defs>
    <linearGradient id="bg" x1="0" x2="1" y1="0" y2="1">
      <stop stop-color="#ecfbef"/>
      <stop offset="1" stop-color="#12b7a6" stop-opacity="0.22"/>
    </linearGradient>
  </defs>
  <rect width="800" height="420" fill="url(#bg)"/>
  <circle cx="254" cy="290" r="70" fill="#12b7a6" opacity="0.13"/>
  <circle cx="265" cy="197" r="94" fill="#315be8" opacity="0.16"/>
  <circle cx="724" cy="278" r="3" fill="#f6bc42" opacity="0.52"/><circle cx="315" cy="367" r="3" fill="#f6bc42" opacity="0.51"/><circle cx="110" cy="100" r="3" fill="#f6bc42" opacity="0.54"/><circle cx="417" cy="189" r="3" fill="#f6bc42" opacity="0.53"/><circle cx="520" cy="293" r="3" fill="#f6bc42" opacity="0.48000000000000004"/><circle cx="111" cy="40" r="3" fill="#f6bc42" opacity="0.47000000000000003"/><circle cx="622" cy="114" r="3" fill="#f6bc42" opacity="0.5"/><circle cx="213" cy="203" r="3" fill="#f6bc42" opacity="0.49"/><circle cx="416" cy="249" r="3" fill="#f6bc42" opacity="0.6000000000000001"/>
  <path d="M164 322c172-20 120-184 278-208 118-18 172 78 194 158-152 42-298 74-472 50z" fill="#315be8"/><path d="M214 300c138-68 244-104 390-118" stroke="#fff" stroke-width="14" stroke-linecap="round" opacity=".72"/><path d="M374 254c-28-52-20-104 24-156 72 30 102 82 84 150z" fill="#f6bc42" opacity=".88"/>
</svg>
