<svg xmlns="http://www.w3.org/2000/svg" viewBox="0 0 800 420" role="img" aria-label="Ilustracion propia de cine y rodaje para esta pregunta">
  <defs>
    <linearGradient id="bg" x1="0" x2="1" y1="0" y2="1">
      <stop stop-color="#15191d"/>
      <stop offset="1" stop-color="#f6bc42" stop-opacity="0.22"/>
    </linearGradient>
  </defs>
  <rect width="800" height="420" fill="url(#bg)"/>
  <circle cx="295" cy="150" r="91" fill="#fffaf4" opacity="0.13"/>
  <circle cx="570" cy="144" r="107" fill="#f6bc42" opacity="0.16"/>
  <circle cx="381" cy="339" r="3" fill="#ff4f6d" opacity="0.6200000000000001"/><circle cx="74" cy="250" r="3" fill="#ff4f6d" opacity="0.63"/><circle cx="279" cy="176" r="3" fill="#ff4f6d" opacity="0.6000000000000001"/><circle cx="688" cy="86" r="3" fill="#ff4f6d" opacity="0.6100000000000001"/><circle cx="585" cy="325" r="3" fill="#ff4f6d" opacity="0.66"/><circle cx="278" cy="236" r="3" fill="#ff4f6d" opacity="0.67"/><circle cx="483" cy="161" r="3" fill="#ff4f6d" opacity="0.64"/><circle cx="176" cy="72" r="3" fill="#ff4f6d" opacity="0.65"/><circle cx="73" cy="310" r="3" fill="#ff4f6d" opacity="0.7"/>
  <rect width="800" height="420" fill="#fffaf4"/><circle cx="460" cy="194" r="120" fill="#ff4f6d" opacity=".42"/><rect x="190" y="182" width="420" height="198" rx="22" fill="#f6bc42"/><rect x="190" y="140" width="420" height="70" rx="18" fill="#fffaf4"/><path d="M228 140l58 70M330 140l58 70M432 140l58 70M534 140l58 70" stroke="#fffaf4" stroke-width="20"/><rect x="244" y="254" width="312" height="18" rx="9" fill="#fffaf4" opacity=".16"/>
</svg>
