<svg xmlns="http://www.w3.org/2000/svg" viewBox="0 0 800 420" role="img" aria-label="Ilustracion propia de naturaleza para esta pregunta">
  <defs>
    <linearGradient id="bg" x1="0" x2="1" y1="0" y2="1">
      <stop stop-color="#ecfbef"/>
      <stop offset="1" stop-color="#315be8" stop-opacity="0.22"/>
    </linearGradient>
  </defs>
  <rect width="800" height="420" fill="url(#bg)"/>
  <circle cx="385" cy="131" r="121" fill="#12b7a6" opacity="0.13"/>
  <circle cx="357" cy="249" r="131" fill="#315be8" opacity="0.16"/>
  <circle cx="440" cy="78" r="5" fill="#f6bc42" opacity="0.64"/><circle cx="747" cy="168" r="5" fill="#f6bc42" opacity="0.63"/><circle cx="542" cy="242" r="5" fill="#f6bc42" opacity="0.66"/><circle cx="133" cy="331" r="5" fill="#f6bc42" opacity="0.65"/><circle cx="644" cy="64" r="5" fill="#f6bc42" opacity="0.68"/><circle cx="235" cy="153" r="5" fill="#f6bc42" opacity="0.67"/><circle cx="746" cy="228" r="5" fill="#f6bc42" opacity="0.7"/><circle cx="337" cy="317" r="5" fill="#f6bc42" opacity="0.69"/><circle cx="264" cy="322" r="5" fill="#f6bc42" opacity="0.7"/>
  <path d="M164 322c172-20 120-184 278-208 118-18 172 78 194 158-152 42-298 74-472 50z" fill="#315be8"/><path d="M214 300c138-68 244-104 390-118" stroke="#fff" stroke-width="14" stroke-linecap="round" opacity=".72"/><path d="M394 254c-28-52-20-104 24-156 72 30 102 82 84 150z" fill="#f6bc42" opacity=".88"/>
</svg>
