<svg xmlns="http://www.w3.org/2000/svg" viewBox="0 0 800 420" role="img" aria-label="Ilustracion propia de cine y rodaje para esta pregunta">
  <defs>
    <linearGradient id="bg" x1="0" x2="1" y1="0" y2="1">
      <stop stop-color="#15191d"/>
      <stop offset="1" stop-color="#fffaf4" stop-opacity="0.22"/>
    </linearGradient>
  </defs>
  <rect width="800" height="420" fill="url(#bg)"/>
  <circle cx="454" cy="186" r="86" fill="#fffaf4" opacity="0.13"/>
  <circle cx="515" cy="327" r="86" fill="#f6bc42" opacity="0.16"/>
  <circle cx="68" cy="232" r="4" fill="#ff4f6d" opacity="0.63"/><circle cx="375" cy="321" r="4" fill="#ff4f6d" opacity="0.6200000000000001"/><circle cx="170" cy="53" r="4" fill="#ff4f6d" opacity="0.65"/><circle cx="477" cy="143" r="4" fill="#ff4f6d" opacity="0.64"/><circle cx="580" cy="246" r="4" fill="#ff4f6d" opacity="0.5900000000000001"/><circle cx="171" cy="335" r="4" fill="#ff4f6d" opacity="0.5800000000000001"/><circle cx="682" cy="68" r="4" fill="#ff4f6d" opacity="0.6100000000000001"/><circle cx="273" cy="157" r="4" fill="#ff4f6d" opacity="0.6000000000000001"/><circle cx="476" cy="203" r="4" fill="#ff4f6d" opacity="0.71"/>
  <rect width="800" height="420" fill="#fffaf4"/><circle cx="500" cy="168" r="120" fill="#ff4f6d" opacity=".42"/><rect x="190" y="182" width="420" height="198" rx="22" fill="#f6bc42"/><rect x="190" y="132" width="420" height="70" rx="18" fill="#fffaf4"/><path d="M228 132l58 70M330 132l58 70M432 132l58 70M534 132l58 70" stroke="#fffaf4" stroke-width="20"/><rect x="244" y="254" width="312" height="18" rx="9" fill="#fffaf4" opacity=".16"/>
</svg>
