<svg xmlns="http://www.w3.org/2000/svg" viewBox="0 0 800 420" role="img" aria-label="Ilustracion propia de oceano y olas para esta pregunta">
  <defs>
    <linearGradient id="bg" x1="0" x2="1" y1="0" y2="1">
      <stop stop-color="#dff8ff"/>
      <stop offset="1" stop-color="#315be8" stop-opacity="0.22"/>
    </linearGradient>
  </defs>
  <rect width="800" height="420" fill="url(#bg)"/>
  <circle cx="544" cy="248" r="111" fill="#12b7a6" opacity="0.13"/>
  <circle cx="152" cy="264" r="119" fill="#315be8" opacity="0.16"/>
  <circle cx="247" cy="94" r="5" fill="#fffaf4" opacity="0.47000000000000003"/><circle cx="656" cy="347" r="5" fill="#fffaf4" opacity="0.48000000000000004"/><circle cx="349" cy="258" r="5" fill="#fffaf4" opacity="0.49"/><circle cx="42" cy="169" r="5" fill="#fffaf4" opacity="0.5"/><circle cx="43" cy="109" r="5" fill="#fffaf4" opacity="0.43000000000000005"/><circle cx="452" cy="361" r="5" fill="#fffaf4" opacity="0.44000000000000006"/><circle cx="145" cy="272" r="5" fill="#fffaf4" opacity="0.45000000000000007"/><circle cx="554" cy="183" r="5" fill="#fffaf4" opacity="0.46"/><circle cx="655" cy="65" r="4" fill="#fffaf4" opacity="0.55"/>
  <path d="M0 240c88-42 144 42 232 0s144 42 232 0 144 42 232 0 144 42 232 0v180H0z" fill="#fff" opacity=".34"/><path d="M0 316c88-42 144 42 232 0s144 42 232 0 144 42 232 0 144 42 232 0" fill="none" stroke="#fff" stroke-width="18" opacity=".62"/><path d="M142 174c82-44 170-44 252 0" fill="none" stroke="#fff" stroke-width="10" opacity=".45" stroke-linecap="round"/>
</svg>
