<svg xmlns="http://www.w3.org/2000/svg" viewBox="0 0 800 420" role="img" aria-label="Ilustracion propia de naturaleza para esta pregunta">
  <defs>
    <linearGradient id="bg" x1="0" x2="1" y1="0" y2="1">
      <stop stop-color="#ecfbef"/>
      <stop offset="1" stop-color="#ecfbef" stop-opacity="0.22"/>
    </linearGradient>
  </defs>
  <rect width="800" height="420" fill="url(#bg)"/>
  <circle cx="567" cy="305" r="80" fill="#12b7a6" opacity="0.13"/>
  <circle cx="679" cy="199" r="86" fill="#315be8" opacity="0.16"/>
  <circle cx="456" cy="191" r="2" fill="#f6bc42" opacity="0.32"/><circle cx="47" cy="280" r="2" fill="#f6bc42" opacity="0.31000000000000005"/><circle cx="558" cy="355" r="2" fill="#f6bc42" opacity="0.34"/><circle cx="149" cy="102" r="2" fill="#f6bc42" opacity="0.33"/><circle cx="252" cy="206" r="3" fill="#f6bc42" opacity="0.28"/><circle cx="559" cy="295" r="3" fill="#f6bc42" opacity="0.72"/><circle cx="354" cy="369" r="2" fill="#f6bc42" opacity="0.30000000000000004"/><circle cx="661" cy="116" r="2" fill="#f6bc42" opacity="0.29000000000000004"/><circle cx="48" cy="220" r="3" fill="#f6bc42" opacity="0.69"/>
  <path d="M164 322c172-20 120-184 278-208 118-18 172 78 194 158-152 42-298 74-472 50z" fill="#315be8"/><path d="M214 300c138-68 244-104 390-118" stroke="#fff" stroke-width="14" stroke-linecap="round" opacity=".72"/><path d="M334 254c-28-52-20-104 24-156 72 30 102 82 84 150z" fill="#f6bc42" opacity=".88"/>
</svg>
