<svg xmlns="http://www.w3.org/2000/svg" viewBox="0 0 800 420" role="img" aria-label="Ilustracion propia de oceano y olas para esta pregunta">
  <defs>
    <linearGradient id="bg" x1="0" x2="1" y1="0" y2="1">
      <stop stop-color="#dff8ff"/>
      <stop offset="1" stop-color="#fffaf4" stop-opacity="0.22"/>
    </linearGradient>
  </defs>
  <rect width="800" height="420" fill="url(#bg)"/>
  <circle cx="554" cy="329" r="79" fill="#12b7a6" opacity="0.13"/>
  <circle cx="453" cy="345" r="75" fill="#315be8" opacity="0.16"/>
  <circle cx="71" cy="346" r="5" fill="#fffaf4" opacity="0.6200000000000001"/><circle cx="480" cy="256" r="5" fill="#fffaf4" opacity="0.63"/><circle cx="173" cy="167" r="5" fill="#fffaf4" opacity="0.64"/><circle cx="582" cy="78" r="5" fill="#fffaf4" opacity="0.65"/><circle cx="583" cy="360" r="5" fill="#fffaf4" opacity="0.5800000000000001"/><circle cx="276" cy="271" r="5" fill="#fffaf4" opacity="0.5900000000000001"/><circle cx="685" cy="182" r="5" fill="#fffaf4" opacity="0.6000000000000001"/><circle cx="378" cy="93" r="5" fill="#fffaf4" opacity="0.6100000000000001"/><circle cx="479" cy="316" r="5" fill="#fffaf4" opacity="0.7"/>
  <path d="M0 240c88-42 144 42 232 0s144 42 232 0 144 42 232 0 144 42 232 0v180H0z" fill="#fff" opacity=".34"/><path d="M0 316c88-42 144 42 232 0s144 42 232 0 144 42 232 0 144 42 232 0" fill="none" stroke="#fff" stroke-width="18" opacity=".62"/><path d="M142 174c82-44 170-44 252 0" fill="none" stroke="#fff" stroke-width="10" opacity=".45" stroke-linecap="round"/>
</svg>
