<svg xmlns="http://www.w3.org/2000/svg" viewBox="0 0 800 420" role="img" aria-label="Ilustracion propia de naturaleza para esta pregunta">
  <defs>
    <linearGradient id="bg" x1="0" x2="1" y1="0" y2="1">
      <stop stop-color="#ecfbef"/>
      <stop offset="1" stop-color="#f6bc42" stop-opacity="0.22"/>
    </linearGradient>
  </defs>
  <rect width="800" height="420" fill="url(#bg)"/>
  <circle cx="222" cy="277" r="135" fill="#12b7a6" opacity="0.13"/>
  <circle cx="261" cy="267" r="122" fill="#315be8" opacity="0.16"/>
  <circle cx="194" cy="239" r="2" fill="#f6bc42" opacity="0.64"/><circle cx="501" cy="328" r="2" fill="#f6bc42" opacity="0.63"/><circle cx="92" cy="75" r="2" fill="#f6bc42" opacity="0.6200000000000001"/><circle cx="399" cy="165" r="2" fill="#f6bc42" opacity="0.6100000000000001"/><circle cx="706" cy="254" r="2" fill="#f6bc42" opacity="0.6000000000000001"/><circle cx="297" cy="343" r="2" fill="#f6bc42" opacity="0.5900000000000001"/><circle cx="604" cy="90" r="2" fill="#f6bc42" opacity="0.5800000000000001"/><circle cx="195" cy="179" r="2" fill="#f6bc42" opacity="0.5700000000000001"/><circle cx="502" cy="268" r="2" fill="#f6bc42" opacity="0.56"/>
  <path d="M164 322c172-20 120-184 278-208 118-18 172 78 194 158-152 42-298 74-472 50z" fill="#315be8"/><path d="M214 300c138-68 244-104 390-118" stroke="#fff" stroke-width="14" stroke-linecap="round" opacity=".72"/><path d="M334 254c-28-52-20-104 24-156 72 30 102 82 84 150z" fill="#f6bc42" opacity=".88"/>
</svg>
