<svg xmlns="http://www.w3.org/2000/svg" viewBox="0 0 800 420" role="img" aria-label="Ilustracion propia de naturaleza para esta pregunta">
  <defs>
    <linearGradient id="bg" x1="0" x2="1" y1="0" y2="1">
      <stop stop-color="#ecfbef"/>
      <stop offset="1" stop-color="#12b7a6" stop-opacity="0.22"/>
    </linearGradient>
  </defs>
  <rect width="800" height="420" fill="url(#bg)"/>
  <circle cx="664" cy="296" r="140" fill="#12b7a6" opacity="0.13"/>
  <circle cx="467" cy="198" r="103" fill="#315be8" opacity="0.16"/>
  <circle cx="743" cy="252" r="2" fill="#f6bc42" opacity="0.64"/><circle cx="436" cy="163" r="2" fill="#f6bc42" opacity="0.65"/><circle cx="129" cy="74" r="2" fill="#f6bc42" opacity="0.66"/><circle cx="538" cy="327" r="2" fill="#f6bc42" opacity="0.67"/><circle cx="539" cy="267" r="2" fill="#f6bc42" opacity="0.6000000000000001"/><circle cx="232" cy="178" r="2" fill="#f6bc42" opacity="0.6100000000000001"/><circle cx="641" cy="88" r="2" fill="#f6bc42" opacity="0.6200000000000001"/><circle cx="334" cy="341" r="2" fill="#f6bc42" opacity="0.63"/><circle cx="435" cy="223" r="5" fill="#f6bc42" opacity="0.72"/>
  <path d="M164 322c172-20 120-184 278-208 118-18 172 78 194 158-152 42-298 74-472 50z" fill="#315be8"/><path d="M214 300c138-68 244-104 390-118" stroke="#fff" stroke-width="14" stroke-linecap="round" opacity=".72"/><path d="M374 254c-28-52-20-104 24-156 72 30 102 82 84 150z" fill="#f6bc42" opacity=".88"/>
</svg>
