<svg xmlns="http://www.w3.org/2000/svg" viewBox="0 0 800 420" role="img" aria-label="Ilustracion propia de oceano y olas para esta pregunta">
  <defs>
    <linearGradient id="bg" x1="0" x2="1" y1="0" y2="1">
      <stop stop-color="#dff8ff"/>
      <stop offset="1" stop-color="#dff8ff" stop-opacity="0.22"/>
    </linearGradient>
  </defs>
  <rect width="800" height="420" fill="url(#bg)"/>
  <circle cx="573" cy="335" r="128" fill="#12b7a6" opacity="0.13"/>
  <circle cx="455" cy="96" r="122" fill="#315be8" opacity="0.16"/>
  <circle cx="165" cy="53" r="2" fill="#fffaf4" opacity="0.7"/><circle cx="574" cy="306" r="2" fill="#fffaf4" opacity="0.71"/><circle cx="63" cy="231" r="2" fill="#fffaf4" opacity="0.68"/><circle cx="472" cy="142" r="2" fill="#fffaf4" opacity="0.69"/><circle cx="677" cy="67" r="2" fill="#fffaf4" opacity="0.66"/><circle cx="370" cy="320" r="2" fill="#fffaf4" opacity="0.67"/><circle cx="575" cy="246" r="2" fill="#fffaf4" opacity="0.64"/><circle cx="268" cy="157" r="2" fill="#fffaf4" opacity="0.65"/><circle cx="473" cy="82" r="2" fill="#fffaf4" opacity="0.6200000000000001"/>
  <path d="M0 240c88-42 144 42 232 0s144 42 232 0 144 42 232 0 144 42 232 0v180H0z" fill="#fff" opacity=".34"/><path d="M0 306c88-42 144 42 232 0s144 42 232 0 144 42 232 0 144 42 232 0" fill="none" stroke="#fff" stroke-width="18" opacity=".62"/><path d="M142 174c82-44 170-44 252 0" fill="none" stroke="#fff" stroke-width="10" opacity=".45" stroke-linecap="round"/>
</svg>
