<svg xmlns="http://www.w3.org/2000/svg" viewBox="0 0 800 420" role="img" aria-label="Ilustracion propia de escenario musical para esta pregunta">
  <defs>
    <linearGradient id="bg" x1="0" x2="1" y1="0" y2="1">
      <stop stop-color="#201525"/>
      <stop offset="1" stop-color="#ff4f6d" stop-opacity="0.22"/>
    </linearGradient>
  </defs>
  <rect width="800" height="420" fill="url(#bg)"/>
  <circle cx="149" cy="294" r="69" fill="#fffaf4" opacity="0.13"/>
  <circle cx="402" cy="126" r="124" fill="#ff4f6d" opacity="0.16"/>
  <circle cx="508" cy="188" r="4" fill="#12b7a6" opacity="0.41000000000000003"/><circle cx="99" cy="278" r="5" fill="#12b7a6" opacity="0.4"/><circle cx="610" cy="352" r="4" fill="#12b7a6" opacity="0.43000000000000005"/><circle cx="201" cy="99" r="4" fill="#12b7a6" opacity="0.42000000000000004"/><circle cx="712" cy="174" r="4" fill="#12b7a6" opacity="0.45000000000000007"/><circle cx="303" cy="263" r="4" fill="#12b7a6" opacity="0.44000000000000006"/><circle cx="98" cy="338" r="4" fill="#12b7a6" opacity="0.47000000000000003"/><circle cx="405" cy="85" r="4" fill="#12b7a6" opacity="0.46"/><circle cx="100" cy="218" r="5" fill="#12b7a6" opacity="0.33"/>
  <rect width="800" height="420" fill="#fffaf4"/><path d="M182 0l170 290M618 0L510 290" stroke="#12b7a6" stroke-width="34" opacity=".5"/><rect x="150" y="292" width="500" height="54" rx="20" fill="#ff4f6d" opacity=".9"/><path d="M280 292c26-80 214-80 240 0" fill="none" stroke="#fffaf4" stroke-width="16"/><path d="M438 98v126c0 28-24 50-58 50s-58-22-58-50 24-50 58-50c12 0 23 3 32 8V98z" fill="#ff4f6d"/>
</svg>
