<svg xmlns="http://www.w3.org/2000/svg" viewBox="0 0 800 420" role="img" aria-label="Ilustracion propia de espacio y planetas para esta pregunta">
  <defs>
    <linearGradient id="bg" x1="0" x2="1" y1="0" y2="1">
      <stop stop-color="#12171a"/>
      <stop offset="1" stop-color="#315be8" stop-opacity="0.22"/>
    </linearGradient>
  </defs>
  <rect width="800" height="420" fill="url(#bg)"/>
  <circle cx="430" cy="158" r="69" fill="#e46b4f" opacity="0.13"/>
  <circle cx="362" cy="181" r="124" fill="#f6bc42" opacity="0.16"/>
  <circle cx="162" cy="218" r="3" fill="#315be8" opacity="0.67"/><circle cx="469" cy="307" r="3" fill="#315be8" opacity="0.66"/><circle cx="60" cy="54" r="3" fill="#315be8" opacity="0.65"/><circle cx="367" cy="143" r="3" fill="#315be8" opacity="0.64"/><circle cx="366" cy="203" r="3" fill="#315be8" opacity="0.71"/><circle cx="673" cy="292" r="3" fill="#315be8" opacity="0.7"/><circle cx="264" cy="40" r="3" fill="#315be8" opacity="0.69"/><circle cx="571" cy="129" r="3" fill="#315be8" opacity="0.68"/><circle cx="470" cy="247" r="3" fill="#315be8" opacity="0.5900000000000001"/>
  <rect width="800" height="420" fill="#e46b4f"/><circle cx="422" cy="218" r="98" fill="#f6bc42"/><path d="M230 212c36 14 66-22 112-2" stroke="#8f3327" stroke-width="12" stroke-linecap="round" opacity=".36"/><circle cx="406" cy="232" r="64" fill="#315be8"/><circle cx="620" cy="276" r="32" fill="#fffaf4"/><path d="M176 324c140 46 308 54 476 0" stroke="#fff" stroke-width="5" fill="none" opacity=".38"/>
</svg>
