<svg xmlns="http://www.w3.org/2000/svg" viewBox="0 0 800 420" role="img" aria-label="Ilustracion propia de escenario musical para esta pregunta">
  <defs>
    <linearGradient id="bg" x1="0" x2="1" y1="0" y2="1">
      <stop stop-color="#201525"/>
      <stop offset="1" stop-color="#201525" stop-opacity="0.22"/>
    </linearGradient>
  </defs>
  <rect width="800" height="420" fill="url(#bg)"/>
  <circle cx="401" cy="286" r="130" fill="#fffaf4" opacity="0.13"/>
  <circle cx="659" cy="233" r="82" fill="#ff4f6d" opacity="0.16"/>
  <circle cx="307" cy="217" r="3" fill="#12b7a6" opacity="0.5800000000000001"/><circle cx="716" cy="128" r="3" fill="#12b7a6" opacity="0.5900000000000001"/><circle cx="409" cy="38" r="3" fill="#12b7a6" opacity="0.6000000000000001"/><circle cx="102" cy="291" r="3" fill="#12b7a6" opacity="0.6100000000000001"/><circle cx="511" cy="202" r="3" fill="#12b7a6" opacity="0.6200000000000001"/><circle cx="204" cy="113" r="3" fill="#12b7a6" opacity="0.63"/><circle cx="613" cy="366" r="3" fill="#12b7a6" opacity="0.64"/><circle cx="306" cy="277" r="3" fill="#12b7a6" opacity="0.65"/><circle cx="615" cy="246" r="3" fill="#12b7a6" opacity="0.5"/>
  <rect width="800" height="420" fill="#fffaf4"/><path d="M110 0l170 290M690 0L510 290" stroke="#12b7a6" stroke-width="34" opacity=".5"/><rect x="150" y="292" width="500" height="54" rx="20" fill="#ff4f6d" opacity=".9"/><path d="M280 292c26-80 214-80 240 0" fill="none" stroke="#fffaf4" stroke-width="16"/><path d="M396 98v126c0 28-24 50-58 50s-58-22-58-50 24-50 58-50c12 0 23 3 32 8V98z" fill="#ff4f6d"/>
</svg>
