<svg xmlns="http://www.w3.org/2000/svg" viewBox="0 0 800 420" role="img" aria-label="Ilustracion propia de escenario musical para esta pregunta">
  <defs>
    <linearGradient id="bg" x1="0" x2="1" y1="0" y2="1">
      <stop stop-color="#201525"/>
      <stop offset="1" stop-color="#fffaf4" stop-opacity="0.22"/>
    </linearGradient>
  </defs>
  <rect width="800" height="420" fill="url(#bg)"/>
  <circle cx="471" cy="128" r="124" fill="#fffaf4" opacity="0.13"/>
  <circle cx="442" cy="106" r="71" fill="#ff4f6d" opacity="0.16"/>
  <circle cx="294" cy="229" r="3" fill="#12b7a6" opacity="0.5800000000000001"/><circle cx="601" cy="319" r="3" fill="#12b7a6" opacity="0.5700000000000001"/><circle cx="192" cy="66" r="3" fill="#12b7a6" opacity="0.56"/><circle cx="499" cy="155" r="3" fill="#12b7a6" opacity="0.55"/><circle cx="90" cy="244" r="3" fill="#12b7a6" opacity="0.54"/><circle cx="397" cy="333" r="3" fill="#12b7a6" opacity="0.53"/><circle cx="704" cy="80" r="3" fill="#12b7a6" opacity="0.52"/><circle cx="295" cy="169" r="3" fill="#12b7a6" opacity="0.51"/><circle cx="602" cy="259" r="3" fill="#12b7a6" opacity="0.5"/>
  <rect width="800" height="420" fill="#fffaf4"/><path d="M110 0l170 290M690 0L510 290" stroke="#12b7a6" stroke-width="34" opacity=".5"/><rect x="150" y="292" width="500" height="54" rx="20" fill="#ff4f6d" opacity=".9"/><path d="M280 292c26-80 214-80 240 0" fill="none" stroke="#fffaf4" stroke-width="16"/><path d="M396 98v126c0 28-24 50-58 50s-58-22-58-50 24-50 58-50c12 0 23 3 32 8V98z" fill="#ff4f6d"/>
</svg>
