<svg xmlns="http://www.w3.org/2000/svg" viewBox="0 0 800 420" role="img" aria-label="Ilustracion propia de escenario musical para esta pregunta">
  <defs>
    <linearGradient id="bg" x1="0" x2="1" y1="0" y2="1">
      <stop stop-color="#201525"/>
      <stop offset="1" stop-color="#201525" stop-opacity="0.22"/>
    </linearGradient>
  </defs>
  <rect width="800" height="420" fill="url(#bg)"/>
  <circle cx="295" cy="95" r="90" fill="#fffaf4" opacity="0.13"/>
  <circle cx="645" cy="101" r="77" fill="#ff4f6d" opacity="0.16"/>
  <circle cx="613" cy="155" r="5" fill="#12b7a6" opacity="0.31000000000000005"/><circle cx="306" cy="66" r="5" fill="#12b7a6" opacity="0.32"/><circle cx="511" cy="333" r="5" fill="#12b7a6" opacity="0.29000000000000004"/><circle cx="204" cy="244" r="5" fill="#12b7a6" opacity="0.30000000000000004"/><circle cx="101" cy="140" r="5" fill="#12b7a6" opacity="0.35000000000000003"/><circle cx="510" cy="51" r="5" fill="#12b7a6" opacity="0.36000000000000004"/><circle cx="715" cy="319" r="5" fill="#12b7a6" opacity="0.33"/><circle cx="408" cy="230" r="5" fill="#12b7a6" opacity="0.34"/><circle cx="305" cy="126" r="5" fill="#12b7a6" opacity="0.39"/>
  <rect width="800" height="420" fill="#fffaf4"/><path d="M206 0l170 290M594 0L510 290" stroke="#12b7a6" stroke-width="34" opacity=".5"/><rect x="150" y="292" width="500" height="54" rx="20" fill="#ff4f6d" opacity=".9"/><path d="M280 292c26-80 214-80 240 0" fill="none" stroke="#fffaf4" stroke-width="16"/><path d="M452 98v126c0 28-24 50-58 50s-58-22-58-50 24-50 58-50c12 0 23 3 32 8V98z" fill="#ff4f6d"/>
</svg>
