<svg xmlns="http://www.w3.org/2000/svg" viewBox="0 0 800 420" role="img" aria-label="Ilustracion propia de espacio y planetas para esta pregunta">
  <defs>
    <linearGradient id="bg" x1="0" x2="1" y1="0" y2="1">
      <stop stop-color="#12171a"/>
      <stop offset="1" stop-color="#315be8" stop-opacity="0.22"/>
    </linearGradient>
  </defs>
  <rect width="800" height="420" fill="url(#bg)"/>
  <circle cx="214" cy="70" r="131" fill="#e46b4f" opacity="0.13"/>
  <circle cx="635" cy="134" r="92" fill="#f6bc42" opacity="0.16"/>
  <circle cx="582" cy="323" r="3" fill="#315be8" opacity="0.53"/><circle cx="173" cy="70" r="3" fill="#315be8" opacity="0.52"/><circle cx="480" cy="159" r="3" fill="#315be8" opacity="0.51"/><circle cx="71" cy="248" r="4" fill="#315be8" opacity="0.5"/><circle cx="378" cy="337" r="4" fill="#315be8" opacity="0.49"/><circle cx="685" cy="84" r="4" fill="#315be8" opacity="0.48000000000000004"/><circle cx="276" cy="173" r="4" fill="#315be8" opacity="0.47000000000000003"/><circle cx="583" cy="263" r="4" fill="#315be8" opacity="0.46"/><circle cx="174" cy="352" r="4" fill="#315be8" opacity="0.45000000000000007"/>
  <rect width="800" height="420" fill="#e46b4f"/><circle cx="388" cy="218" r="91" fill="#f6bc42"/><path d="M230 212c36 14 66-22 112-2" stroke="#8f3327" stroke-width="12" stroke-linecap="round" opacity=".36"/><circle cx="432" cy="214" r="60" fill="#315be8"/><circle cx="600" cy="276" r="32" fill="#fffaf4"/><path d="M176 324c140 46 308 54 476 0" stroke="#fff" stroke-width="5" fill="none" opacity=".38"/>
</svg>
