<svg xmlns="http://www.w3.org/2000/svg" viewBox="0 0 800 420" role="img" aria-label="Ilustracion propia de espacio y planetas para esta pregunta">
  <defs>
    <linearGradient id="bg" x1="0" x2="1" y1="0" y2="1">
      <stop stop-color="#12171a"/>
      <stop offset="1" stop-color="#12171a" stop-opacity="0.22"/>
    </linearGradient>
  </defs>
  <rect width="800" height="420" fill="url(#bg)"/>
  <circle cx="370" cy="310" r="100" fill="#e46b4f" opacity="0.13"/>
  <circle cx="280" cy="164" r="128" fill="#f6bc42" opacity="0.16"/>
  <circle cx="642" cy="377" r="3" fill="#315be8" opacity="0.37"/><circle cx="233" cy="124" r="3" fill="#315be8" opacity="0.36000000000000004"/><circle cx="540" cy="214" r="3" fill="#315be8" opacity="0.35000000000000003"/><circle cx="131" cy="303" r="3" fill="#315be8" opacity="0.34"/><circle cx="130" cy="363" r="3" fill="#315be8" opacity="0.41000000000000003"/><circle cx="437" cy="110" r="3" fill="#315be8" opacity="0.4"/><circle cx="744" cy="199" r="3" fill="#315be8" opacity="0.39"/><circle cx="335" cy="288" r="3" fill="#315be8" opacity="0.38"/><circle cx="234" cy="64" r="4" fill="#315be8" opacity="0.29000000000000004"/>
  <rect width="800" height="420" fill="#e46b4f"/><circle cx="422" cy="218" r="98" fill="#f6bc42"/><path d="M230 212c36 14 66-22 112-2" stroke="#8f3327" stroke-width="12" stroke-linecap="round" opacity=".36"/><circle cx="406" cy="232" r="64" fill="#315be8"/><circle cx="620" cy="276" r="32" fill="#fffaf4"/><path d="M176 324c140 46 308 54 476 0" stroke="#fff" stroke-width="5" fill="none" opacity=".38"/>
</svg>
