<svg xmlns="http://www.w3.org/2000/svg" viewBox="0 0 800 420" role="img" aria-label="Ilustracion propia de espacio y planetas para esta pregunta">
  <defs>
    <linearGradient id="bg" x1="0" x2="1" y1="0" y2="1">
      <stop stop-color="#12171a"/>
      <stop offset="1" stop-color="#f6bc42" stop-opacity="0.22"/>
    </linearGradient>
  </defs>
  <rect width="800" height="420" fill="url(#bg)"/>
  <circle cx="527" cy="234" r="75" fill="#e46b4f" opacity="0.13"/>
  <circle cx="224" cy="119" r="105" fill="#f6bc42" opacity="0.16"/>
  <circle cx="698" cy="228" r="3" fill="#315be8" opacity="0.55"/><circle cx="289" cy="317" r="3" fill="#315be8" opacity="0.54"/><circle cx="596" cy="64" r="3" fill="#315be8" opacity="0.53"/><circle cx="187" cy="153" r="3" fill="#315be8" opacity="0.52"/><circle cx="494" cy="242" r="3" fill="#315be8" opacity="0.51"/><circle cx="85" cy="332" r="3" fill="#315be8" opacity="0.5"/><circle cx="392" cy="79" r="3" fill="#315be8" opacity="0.49"/><circle cx="699" cy="168" r="3" fill="#315be8" opacity="0.48000000000000004"/><circle cx="290" cy="257" r="3" fill="#315be8" opacity="0.47000000000000003"/>
  <rect width="800" height="420" fill="#e46b4f"/><circle cx="320" cy="218" r="77" fill="#f6bc42"/><path d="M230 212c36 14 66-22 112-2" stroke="#8f3327" stroke-width="12" stroke-linecap="round" opacity=".36"/><circle cx="484" cy="178" r="52" fill="#315be8"/><circle cx="560" cy="276" r="32" fill="#fffaf4"/><path d="M176 324c140 46 308 54 476 0" stroke="#fff" stroke-width="5" fill="none" opacity=".38"/>
</svg>
