<svg xmlns="http://www.w3.org/2000/svg" viewBox="0 0 800 420" role="img" aria-label="Ilustracion propia de espacio y planetas para esta pregunta">
  <defs>
    <linearGradient id="bg" x1="0" x2="1" y1="0" y2="1">
      <stop stop-color="#12171a"/>
      <stop offset="1" stop-color="#12171a" stop-opacity="0.22"/>
    </linearGradient>
  </defs>
  <rect width="800" height="420" fill="url(#bg)"/>
  <circle cx="483" cy="236" r="136" fill="#e46b4f" opacity="0.13"/>
  <circle cx="369" cy="262" r="123" fill="#f6bc42" opacity="0.16"/>
  <circle cx="143" cy="248" r="3" fill="#315be8" opacity="0.30000000000000004"/><circle cx="552" cy="159" r="3" fill="#315be8" opacity="0.31000000000000005"/><circle cx="245" cy="69" r="3" fill="#315be8" opacity="0.32"/><circle cx="654" cy="322" r="3" fill="#315be8" opacity="0.33"/><circle cx="347" cy="233" r="3" fill="#315be8" opacity="0.34"/><circle cx="756" cy="144" r="3" fill="#315be8" opacity="0.35000000000000003"/><circle cx="449" cy="55" r="3" fill="#315be8" opacity="0.36000000000000004"/><circle cx="142" cy="308" r="3" fill="#315be8" opacity="0.37"/><circle cx="451" cy="277" r="3" fill="#315be8" opacity="0.67"/>
  <rect width="800" height="420" fill="#e46b4f"/><circle cx="354" cy="218" r="84" fill="#f6bc42"/><path d="M230 212c36 14 66-22 112-2" stroke="#8f3327" stroke-width="12" stroke-linecap="round" opacity=".36"/><circle cx="458" cy="196" r="56" fill="#315be8"/><circle cx="580" cy="276" r="32" fill="#fffaf4"/><path d="M176 324c140 46 308 54 476 0" stroke="#fff" stroke-width="5" fill="none" opacity=".38"/>
</svg>
