<svg xmlns="http://www.w3.org/2000/svg" viewBox="0 0 800 420" role="img" aria-label="Ilustracion propia de espacio y planetas para esta pregunta">
  <defs>
    <linearGradient id="bg" x1="0" x2="1" y1="0" y2="1">
      <stop stop-color="#12171a"/>
      <stop offset="1" stop-color="#f6bc42" stop-opacity="0.22"/>
    </linearGradient>
  </defs>
  <rect width="800" height="420" fill="url(#bg)"/>
  <circle cx="401" cy="166" r="67" fill="#e46b4f" opacity="0.13"/>
  <circle cx="434" cy="75" r="134" fill="#f6bc42" opacity="0.16"/>
  <circle cx="603" cy="307" r="5" fill="#315be8" opacity="0.32"/><circle cx="296" cy="218" r="5" fill="#315be8" opacity="0.33"/><circle cx="705" cy="129" r="5" fill="#315be8" opacity="0.34"/><circle cx="398" cy="40" r="5" fill="#315be8" opacity="0.35000000000000003"/><circle cx="399" cy="322" r="5" fill="#315be8" opacity="0.28"/><circle cx="92" cy="232" r="5" fill="#315be8" opacity="0.29000000000000004"/><circle cx="501" cy="143" r="5" fill="#315be8" opacity="0.30000000000000004"/><circle cx="194" cy="54" r="5" fill="#315be8" opacity="0.31000000000000005"/><circle cx="295" cy="278" r="5" fill="#315be8" opacity="0.4"/>
  <rect width="800" height="420" fill="#e46b4f"/><circle cx="286" cy="218" r="70" fill="#f6bc42"/><path d="M230 212c36 14 66-22 112-2" stroke="#8f3327" stroke-width="12" stroke-linecap="round" opacity=".36"/><circle cx="510" cy="160" r="48" fill="#315be8"/><circle cx="540" cy="276" r="32" fill="#fffaf4"/><path d="M176 324c140 46 308 54 476 0" stroke="#fff" stroke-width="5" fill="none" opacity=".38"/>
</svg>
