<svg xmlns="http://www.w3.org/2000/svg" viewBox="0 0 800 420" role="img" aria-label="Ilustracion propia de espacio y planetas para esta pregunta">
  <defs>
    <linearGradient id="bg" x1="0" x2="1" y1="0" y2="1">
      <stop stop-color="#12171a"/>
      <stop offset="1" stop-color="#f6bc42" stop-opacity="0.22"/>
    </linearGradient>
  </defs>
  <rect width="800" height="420" fill="url(#bg)"/>
  <circle cx="433" cy="212" r="107" fill="#e46b4f" opacity="0.13"/>
  <circle cx="138" cy="223" r="109" fill="#f6bc42" opacity="0.16"/>
  <circle cx="449" cy="92" r="2" fill="#315be8" opacity="0.48000000000000004"/><circle cx="142" cy="344" r="2" fill="#315be8" opacity="0.49"/><circle cx="347" cy="270" r="2" fill="#315be8" opacity="0.46"/><circle cx="756" cy="181" r="2" fill="#315be8" opacity="0.47000000000000003"/><circle cx="653" cy="77" r="2" fill="#315be8" opacity="0.52"/><circle cx="346" cy="330" r="2" fill="#315be8" opacity="0.53"/><circle cx="551" cy="255" r="2" fill="#315be8" opacity="0.5"/><circle cx="244" cy="166" r="2" fill="#315be8" opacity="0.51"/><circle cx="141" cy="62" r="2" fill="#315be8" opacity="0.56"/>
  <rect width="800" height="420" fill="#e46b4f"/><circle cx="354" cy="218" r="84" fill="#f6bc42"/><path d="M230 212c36 14 66-22 112-2" stroke="#8f3327" stroke-width="12" stroke-linecap="round" opacity=".36"/><circle cx="458" cy="196" r="56" fill="#315be8"/><circle cx="580" cy="276" r="32" fill="#fffaf4"/><path d="M176 324c140 46 308 54 476 0" stroke="#fff" stroke-width="5" fill="none" opacity=".38"/>
</svg>
