<svg xmlns="http://www.w3.org/2000/svg" viewBox="0 0 800 420" role="img" aria-label="Ilustracion propia de espacio y planetas para esta pregunta">
  <defs>
    <linearGradient id="bg" x1="0" x2="1" y1="0" y2="1">
      <stop stop-color="#12171a"/>
      <stop offset="1" stop-color="#12171a" stop-opacity="0.22"/>
    </linearGradient>
  </defs>
  <rect width="800" height="420" fill="url(#bg)"/>
  <circle cx="221" cy="256" r="110" fill="#e46b4f" opacity="0.13"/>
  <circle cx="186" cy="229" r="69" fill="#f6bc42" opacity="0.16"/>
  <circle cx="151" cy="226" r="3" fill="#315be8" opacity="0.31000000000000005"/><circle cx="560" cy="137" r="3" fill="#315be8" opacity="0.32"/><circle cx="253" cy="47" r="3" fill="#315be8" opacity="0.33"/><circle cx="662" cy="300" r="3" fill="#315be8" opacity="0.34"/><circle cx="355" cy="211" r="3" fill="#315be8" opacity="0.35000000000000003"/><circle cx="48" cy="122" r="3" fill="#315be8" opacity="0.36000000000000004"/><circle cx="457" cy="375" r="3" fill="#315be8" opacity="0.37"/><circle cx="150" cy="286" r="3" fill="#315be8" opacity="0.38"/><circle cx="459" cy="255" r="3" fill="#315be8" opacity="0.68"/>
  <rect width="800" height="420" fill="#e46b4f"/><circle cx="286" cy="218" r="70" fill="#f6bc42"/><path d="M230 212c36 14 66-22 112-2" stroke="#8f3327" stroke-width="12" stroke-linecap="round" opacity=".36"/><circle cx="510" cy="160" r="48" fill="#315be8"/><circle cx="540" cy="276" r="32" fill="#fffaf4"/><path d="M176 324c140 46 308 54 476 0" stroke="#fff" stroke-width="5" fill="none" opacity=".38"/>
</svg>
