<svg xmlns="http://www.w3.org/2000/svg" viewBox="0 0 800 420" role="img" aria-label="Ilustracion propia de espacio y planetas para esta pregunta">
  <defs>
    <linearGradient id="bg" x1="0" x2="1" y1="0" y2="1">
      <stop stop-color="#12171a"/>
      <stop offset="1" stop-color="#12171a" stop-opacity="0.22"/>
    </linearGradient>
  </defs>
  <rect width="800" height="420" fill="url(#bg)"/>
  <circle cx="366" cy="195" r="104" fill="#e46b4f" opacity="0.13"/>
  <circle cx="279" cy="78" r="109" fill="#f6bc42" opacity="0.16"/>
  <circle cx="615" cy="104" r="3" fill="#315be8" opacity="0.42000000000000004"/><circle cx="308" cy="357" r="3" fill="#315be8" opacity="0.43000000000000005"/><circle cx="717" cy="268" r="3" fill="#315be8" opacity="0.44000000000000006"/><circle cx="410" cy="179" r="3" fill="#315be8" opacity="0.45000000000000007"/><circle cx="103" cy="90" r="3" fill="#315be8" opacity="0.46"/><circle cx="512" cy="342" r="3" fill="#315be8" opacity="0.47000000000000003"/><circle cx="205" cy="253" r="3" fill="#315be8" opacity="0.48000000000000004"/><circle cx="614" cy="164" r="3" fill="#315be8" opacity="0.49"/><circle cx="207" cy="133" r="3" fill="#315be8" opacity="0.34"/>
  <rect width="800" height="420" fill="#e46b4f"/><circle cx="286" cy="218" r="70" fill="#f6bc42"/><path d="M230 212c36 14 66-22 112-2" stroke="#8f3327" stroke-width="12" stroke-linecap="round" opacity=".36"/><circle cx="510" cy="160" r="48" fill="#315be8"/><circle cx="540" cy="276" r="32" fill="#fffaf4"/><path d="M176 324c140 46 308 54 476 0" stroke="#fff" stroke-width="5" fill="none" opacity=".38"/>
</svg>
