<svg xmlns="http://www.w3.org/2000/svg" viewBox="0 0 800 420" role="img" aria-label="Ilustracion propia de espacio y planetas para esta pregunta">
  <defs>
    <linearGradient id="bg" x1="0" x2="1" y1="0" y2="1">
      <stop stop-color="#12171a"/>
      <stop offset="1" stop-color="#315be8" stop-opacity="0.22"/>
    </linearGradient>
  </defs>
  <rect width="800" height="420" fill="url(#bg)"/>
  <circle cx="299" cy="171" r="115" fill="#e46b4f" opacity="0.13"/>
  <circle cx="421" cy="254" r="70" fill="#f6bc42" opacity="0.16"/>
  <circle cx="222" cy="376" r="2" fill="#315be8" opacity="0.47000000000000003"/><circle cx="529" cy="123" r="2" fill="#315be8" opacity="0.46"/><circle cx="120" cy="212" r="2" fill="#315be8" opacity="0.45000000000000007"/><circle cx="427" cy="301" r="2" fill="#315be8" opacity="0.44000000000000006"/><circle cx="734" cy="48" r="2" fill="#315be8" opacity="0.43000000000000005"/><circle cx="325" cy="137" r="2" fill="#315be8" opacity="0.42000000000000004"/><circle cx="632" cy="227" r="2" fill="#315be8" opacity="0.41000000000000003"/><circle cx="223" cy="316" r="2" fill="#315be8" opacity="0.4"/><circle cx="530" cy="63" r="2" fill="#315be8" opacity="0.39"/>
  <rect width="800" height="420" fill="#e46b4f"/><circle cx="388" cy="218" r="91" fill="#f6bc42"/><path d="M230 212c36 14 66-22 112-2" stroke="#8f3327" stroke-width="12" stroke-linecap="round" opacity=".36"/><circle cx="432" cy="214" r="60" fill="#315be8"/><circle cx="600" cy="276" r="32" fill="#fffaf4"/><path d="M176 324c140 46 308 54 476 0" stroke="#fff" stroke-width="5" fill="none" opacity=".38"/>
</svg>
