<svg xmlns="http://www.w3.org/2000/svg" viewBox="0 0 800 420" role="img" aria-label="Ilustracion propia de espacio y planetas para esta pregunta">
  <defs>
    <linearGradient id="bg" x1="0" x2="1" y1="0" y2="1">
      <stop stop-color="#12171a"/>
      <stop offset="1" stop-color="#f6bc42" stop-opacity="0.22"/>
    </linearGradient>
  </defs>
  <rect width="800" height="420" fill="url(#bg)"/>
  <circle cx="692" cy="83" r="113" fill="#e46b4f" opacity="0.13"/>
  <circle cx="470" cy="171" r="120" fill="#f6bc42" opacity="0.16"/>
  <circle cx="135" cy="78" r="3" fill="#315be8" opacity="0.31000000000000005"/><circle cx="544" cy="331" r="3" fill="#315be8" opacity="0.32"/><circle cx="237" cy="242" r="3" fill="#315be8" opacity="0.33"/><circle cx="646" cy="153" r="3" fill="#315be8" opacity="0.34"/><circle cx="647" cy="93" r="3" fill="#315be8" opacity="0.72"/><circle cx="340" cy="346" r="3" fill="#315be8" opacity="0.28"/><circle cx="749" cy="256" r="3" fill="#315be8" opacity="0.29000000000000004"/><circle cx="442" cy="167" r="3" fill="#315be8" opacity="0.30000000000000004"/><circle cx="543" cy="49" r="3" fill="#315be8" opacity="0.39"/>
  <rect width="800" height="420" fill="#e46b4f"/><circle cx="320" cy="218" r="77" fill="#f6bc42"/><path d="M230 212c36 14 66-22 112-2" stroke="#8f3327" stroke-width="12" stroke-linecap="round" opacity=".36"/><circle cx="484" cy="178" r="52" fill="#315be8"/><circle cx="560" cy="276" r="32" fill="#fffaf4"/><path d="M176 324c140 46 308 54 476 0" stroke="#fff" stroke-width="5" fill="none" opacity=".38"/>
</svg>
