<svg xmlns="http://www.w3.org/2000/svg" viewBox="0 0 800 420" role="img" aria-label="Ilustracion propia de espacio y planetas para esta pregunta">
  <defs>
    <linearGradient id="bg" x1="0" x2="1" y1="0" y2="1">
      <stop stop-color="#12171a"/>
      <stop offset="1" stop-color="#e46b4f" stop-opacity="0.22"/>
    </linearGradient>
  </defs>
  <rect width="800" height="420" fill="url(#bg)"/>
  <circle cx="668" cy="257" r="128" fill="#e46b4f" opacity="0.13"/>
  <circle cx="317" cy="122" r="132" fill="#f6bc42" opacity="0.16"/>
  <circle cx="711" cy="80" r="3" fill="#315be8" opacity="0.48000000000000004"/><circle cx="404" cy="333" r="2" fill="#315be8" opacity="0.49"/><circle cx="97" cy="244" r="2" fill="#315be8" opacity="0.5"/><circle cx="506" cy="155" r="2" fill="#315be8" opacity="0.51"/><circle cx="507" cy="95" r="3" fill="#315be8" opacity="0.44000000000000006"/><circle cx="200" cy="348" r="3" fill="#315be8" opacity="0.45000000000000007"/><circle cx="609" cy="259" r="3" fill="#315be8" opacity="0.46"/><circle cx="302" cy="170" r="3" fill="#315be8" opacity="0.47000000000000003"/><circle cx="303" cy="110" r="3" fill="#315be8" opacity="0.4"/>
  <rect width="800" height="420" fill="#e46b4f"/><circle cx="354" cy="218" r="84" fill="#f6bc42"/><path d="M230 212c36 14 66-22 112-2" stroke="#8f3327" stroke-width="12" stroke-linecap="round" opacity=".36"/><circle cx="458" cy="196" r="56" fill="#315be8"/><circle cx="580" cy="276" r="32" fill="#fffaf4"/><path d="M176 324c140 46 308 54 476 0" stroke="#fff" stroke-width="5" fill="none" opacity=".38"/>
</svg>
