<svg xmlns="http://www.w3.org/2000/svg" viewBox="0 0 800 420" role="img" aria-label="Ilustracion propia de espacio y planetas para esta pregunta">
  <defs>
    <linearGradient id="bg" x1="0" x2="1" y1="0" y2="1">
      <stop stop-color="#12171a"/>
      <stop offset="1" stop-color="#f6bc42" stop-opacity="0.22"/>
    </linearGradient>
  </defs>
  <rect width="800" height="420" fill="url(#bg)"/>
  <circle cx="686" cy="185" r="73" fill="#e46b4f" opacity="0.13"/>
  <circle cx="244" cy="113" r="65" fill="#f6bc42" opacity="0.16"/>
  <circle cx="86" cy="47" r="4" fill="#315be8" opacity="0.66"/><circle cx="393" cy="136" r="4" fill="#315be8" opacity="0.65"/><circle cx="700" cy="225" r="4" fill="#315be8" opacity="0.64"/><circle cx="291" cy="315" r="4" fill="#315be8" opacity="0.63"/><circle cx="598" cy="62" r="4" fill="#315be8" opacity="0.6200000000000001"/><circle cx="189" cy="151" r="4" fill="#315be8" opacity="0.6100000000000001"/><circle cx="496" cy="240" r="4" fill="#315be8" opacity="0.6000000000000001"/><circle cx="87" cy="329" r="4" fill="#315be8" opacity="0.5900000000000001"/><circle cx="494" cy="360" r="4" fill="#315be8" opacity="0.29000000000000004"/>
  <rect width="800" height="420" fill="#e46b4f"/><circle cx="286" cy="218" r="70" fill="#f6bc42"/><path d="M230 212c36 14 66-22 112-2" stroke="#8f3327" stroke-width="12" stroke-linecap="round" opacity=".36"/><circle cx="510" cy="160" r="48" fill="#315be8"/><circle cx="540" cy="276" r="32" fill="#fffaf4"/><path d="M176 324c140 46 308 54 476 0" stroke="#fff" stroke-width="5" fill="none" opacity=".38"/>
</svg>
