<svg xmlns="http://www.w3.org/2000/svg" viewBox="0 0 800 420" role="img" aria-label="Ilustracion propia de espacio y planetas para esta pregunta">
  <defs>
    <linearGradient id="bg" x1="0" x2="1" y1="0" y2="1">
      <stop stop-color="#12171a"/>
      <stop offset="1" stop-color="#e46b4f" stop-opacity="0.22"/>
    </linearGradient>
  </defs>
  <rect width="800" height="420" fill="url(#bg)"/>
  <circle cx="436" cy="106" r="94" fill="#e46b4f" opacity="0.13"/>
  <circle cx="288" cy="67" r="137" fill="#f6bc42" opacity="0.16"/>
  <circle cx="607" cy="159" r="5" fill="#315be8" opacity="0.67"/><circle cx="300" cy="69" r="5" fill="#315be8" opacity="0.68"/><circle cx="709" cy="322" r="5" fill="#315be8" opacity="0.69"/><circle cx="402" cy="233" r="5" fill="#315be8" opacity="0.7"/><circle cx="403" cy="173" r="5" fill="#315be8" opacity="0.63"/><circle cx="96" cy="84" r="5" fill="#315be8" opacity="0.64"/><circle cx="505" cy="337" r="5" fill="#315be8" opacity="0.65"/><circle cx="198" cy="248" r="5" fill="#315be8" opacity="0.66"/><circle cx="199" cy="188" r="5" fill="#315be8" opacity="0.5900000000000001"/>
  <rect width="800" height="420" fill="#e46b4f"/><circle cx="286" cy="218" r="70" fill="#f6bc42"/><path d="M230 212c36 14 66-22 112-2" stroke="#8f3327" stroke-width="12" stroke-linecap="round" opacity=".36"/><circle cx="510" cy="160" r="48" fill="#315be8"/><circle cx="540" cy="276" r="32" fill="#fffaf4"/><path d="M176 324c140 46 308 54 476 0" stroke="#fff" stroke-width="5" fill="none" opacity=".38"/>
</svg>
