<svg xmlns="http://www.w3.org/2000/svg" viewBox="0 0 800 420" role="img" aria-label="Ilustracion propia de oceano y olas para esta pregunta">
  <defs>
    <linearGradient id="bg" x1="0" x2="1" y1="0" y2="1">
      <stop stop-color="#dff8ff"/>
      <stop offset="1" stop-color="#12b7a6" stop-opacity="0.22"/>
    </linearGradient>
  </defs>
  <rect width="800" height="420" fill="url(#bg)"/>
  <circle cx="451" cy="312" r="72" fill="#12b7a6" opacity="0.13"/>
  <circle cx="290" cy="164" r="75" fill="#315be8" opacity="0.16"/>
  <circle cx="434" cy="216" r="2" fill="#fffaf4" opacity="0.64"/><circle cx="257" cy="177" r="2" fill="#fffaf4" opacity="0.32"/><circle cx="564" cy="266" r="2" fill="#fffaf4" opacity="0.31000000000000005"/><circle cx="155" cy="356" r="2" fill="#fffaf4" opacity="0.30000000000000004"/><circle cx="462" cy="103" r="2" fill="#fffaf4" opacity="0.29000000000000004"/><circle cx="53" cy="192" r="2" fill="#fffaf4" opacity="0.28"/><circle cx="360" cy="281" r="2" fill="#fffaf4" opacity="0.72"/><circle cx="667" cy="370" r="2" fill="#fffaf4" opacity="0.71"/><circle cx="126" cy="187" r="2" fill="#fffaf4" opacity="0.72"/>
  <path d="M0 240c88-42 144 42 232 0s144 42 232 0 144 42 232 0 144 42 232 0v180H0z" fill="#fff" opacity=".34"/><path d="M0 286c88-42 144 42 232 0s144 42 232 0 144 42 232 0 144 42 232 0" fill="none" stroke="#fff" stroke-width="18" opacity=".62"/><path d="M142 174c82-44 170-44 252 0" fill="none" stroke="#fff" stroke-width="10" opacity=".45" stroke-linecap="round"/>
</svg>
