<svg xmlns="http://www.w3.org/2000/svg" viewBox="0 0 800 420" role="img" aria-label="Ilustracion propia de oceano y olas para esta pregunta">
  <defs>
    <linearGradient id="bg" x1="0" x2="1" y1="0" y2="1">
      <stop stop-color="#dff8ff"/>
      <stop offset="1" stop-color="#fffaf4" stop-opacity="0.22"/>
    </linearGradient>
  </defs>
  <rect width="800" height="420" fill="url(#bg)"/>
  <circle cx="331" cy="121" r="137" fill="#12b7a6" opacity="0.13"/>
  <circle cx="500" cy="105" r="93" fill="#315be8" opacity="0.16"/>
  <circle cx="96" cy="154" r="4" fill="#fffaf4" opacity="0.30000000000000004"/><circle cx="403" cy="244" r="4" fill="#fffaf4" opacity="0.29000000000000004"/><circle cx="198" cy="318" r="4" fill="#fffaf4" opacity="0.32"/><circle cx="505" cy="65" r="4" fill="#fffaf4" opacity="0.31000000000000005"/><circle cx="608" cy="169" r="4" fill="#fffaf4" opacity="0.71"/><circle cx="199" cy="258" r="4" fill="#fffaf4" opacity="0.7"/><circle cx="710" cy="333" r="4" fill="#fffaf4" opacity="0.28"/><circle cx="301" cy="80" r="4" fill="#fffaf4" opacity="0.72"/><circle cx="504" cy="125" r="4" fill="#fffaf4" opacity="0.38"/>
  <path d="M0 240c88-42 144 42 232 0s144 42 232 0 144 42 232 0 144 42 232 0v180H0z" fill="#fff" opacity=".34"/><path d="M0 286c88-42 144 42 232 0s144 42 232 0 144 42 232 0 144 42 232 0" fill="none" stroke="#fff" stroke-width="18" opacity=".62"/><path d="M142 174c82-44 170-44 252 0" fill="none" stroke="#fff" stroke-width="10" opacity=".45" stroke-linecap="round"/>
</svg>
