<svg xmlns="http://www.w3.org/2000/svg" viewBox="0 0 800 420" role="img" aria-label="Ilustracion propia de espacio y planetas para esta pregunta">
  <defs>
    <linearGradient id="bg" x1="0" x2="1" y1="0" y2="1">
      <stop stop-color="#12171a"/>
      <stop offset="1" stop-color="#315be8" stop-opacity="0.22"/>
    </linearGradient>
  </defs>
  <rect width="800" height="420" fill="url(#bg)"/>
  <circle cx="619" cy="78" r="81" fill="#e46b4f" opacity="0.13"/>
  <circle cx="386" cy="135" r="136" fill="#f6bc42" opacity="0.16"/>
  <circle cx="661" cy="50" r="2" fill="#315be8" opacity="0.30000000000000004"/><circle cx="354" cy="303" r="5" fill="#315be8" opacity="0.31000000000000005"/><circle cx="559" cy="229" r="2" fill="#315be8" opacity="0.28"/><circle cx="252" cy="139" r="2" fill="#315be8" opacity="0.29000000000000004"/><circle cx="457" cy="65" r="2" fill="#315be8" opacity="0.71"/><circle cx="150" cy="318" r="2" fill="#315be8" opacity="0.72"/><circle cx="355" cy="243" r="2" fill="#315be8" opacity="0.69"/><circle cx="48" cy="154" r="2" fill="#315be8" opacity="0.7"/><circle cx="353" cy="363" r="5" fill="#315be8" opacity="0.38"/>
  <rect width="800" height="420" fill="#e46b4f"/><circle cx="388" cy="218" r="91" fill="#f6bc42"/><path d="M230 212c36 14 66-22 112-2" stroke="#8f3327" stroke-width="12" stroke-linecap="round" opacity=".36"/><circle cx="432" cy="214" r="60" fill="#315be8"/><circle cx="600" cy="276" r="32" fill="#fffaf4"/><path d="M176 324c140 46 308 54 476 0" stroke="#fff" stroke-width="5" fill="none" opacity=".38"/>
</svg>
