<svg xmlns="http://www.w3.org/2000/svg" viewBox="0 0 800 420" role="img" aria-label="Ilustracion propia de espacio y planetas para esta pregunta">
  <defs>
    <linearGradient id="bg" x1="0" x2="1" y1="0" y2="1">
      <stop stop-color="#12171a"/>
      <stop offset="1" stop-color="#12171a" stop-opacity="0.22"/>
    </linearGradient>
  </defs>
  <rect width="800" height="420" fill="url(#bg)"/>
  <circle cx="287" cy="115" r="140" fill="#e46b4f" opacity="0.13"/>
  <circle cx="269" cy="247" r="123" fill="#f6bc42" opacity="0.16"/>
  <circle cx="355" cy="344" r="4" fill="#315be8" opacity="0.6000000000000001"/><circle cx="48" cy="255" r="4" fill="#315be8" opacity="0.6100000000000001"/><circle cx="457" cy="165" r="4" fill="#315be8" opacity="0.6200000000000001"/><circle cx="150" cy="76" r="4" fill="#315be8" opacity="0.63"/><circle cx="559" cy="329" r="3" fill="#315be8" opacity="0.64"/><circle cx="252" cy="240" r="3" fill="#315be8" opacity="0.65"/><circle cx="661" cy="151" r="3" fill="#315be8" opacity="0.66"/><circle cx="354" cy="62" r="3" fill="#315be8" opacity="0.67"/><circle cx="663" cy="373" r="4" fill="#315be8" opacity="0.52"/>
  <rect width="800" height="420" fill="#e46b4f"/><circle cx="320" cy="218" r="77" fill="#f6bc42"/><path d="M230 212c36 14 66-22 112-2" stroke="#8f3327" stroke-width="12" stroke-linecap="round" opacity=".36"/><circle cx="484" cy="178" r="52" fill="#315be8"/><circle cx="560" cy="276" r="32" fill="#fffaf4"/><path d="M176 324c140 46 308 54 476 0" stroke="#fff" stroke-width="5" fill="none" opacity=".38"/>
</svg>
