<svg xmlns="http://www.w3.org/2000/svg" viewBox="0 0 800 420" role="img" aria-label="Ilustracion propia de espacio y planetas para esta pregunta">
  <defs>
    <linearGradient id="bg" x1="0" x2="1" y1="0" y2="1">
      <stop stop-color="#12171a"/>
      <stop offset="1" stop-color="#315be8" stop-opacity="0.22"/>
    </linearGradient>
  </defs>
  <rect width="800" height="420" fill="url(#bg)"/>
  <circle cx="608" cy="322" r="101" fill="#e46b4f" opacity="0.13"/>
  <circle cx="160" cy="344" r="78" fill="#f6bc42" opacity="0.16"/>
  <circle cx="465" cy="220" r="5" fill="#315be8" opacity="0.56"/><circle cx="158" cy="131" r="4" fill="#315be8" opacity="0.5700000000000001"/><circle cx="363" cy="56" r="5" fill="#315be8" opacity="0.54"/><circle cx="56" cy="309" r="5" fill="#315be8" opacity="0.55"/><circle cx="261" cy="235" r="5" fill="#315be8" opacity="0.52"/><circle cx="670" cy="146" r="5" fill="#315be8" opacity="0.53"/><circle cx="159" cy="71" r="5" fill="#315be8" opacity="0.5"/><circle cx="568" cy="324" r="5" fill="#315be8" opacity="0.51"/><circle cx="57" cy="249" r="5" fill="#315be8" opacity="0.48000000000000004"/>
  <rect width="800" height="420" fill="#e46b4f"/><circle cx="354" cy="218" r="84" fill="#f6bc42"/><path d="M230 212c36 14 66-22 112-2" stroke="#8f3327" stroke-width="12" stroke-linecap="round" opacity=".36"/><circle cx="458" cy="196" r="56" fill="#315be8"/><circle cx="580" cy="276" r="32" fill="#fffaf4"/><path d="M176 324c140 46 308 54 476 0" stroke="#fff" stroke-width="5" fill="none" opacity=".38"/>
</svg>
