<svg xmlns="http://www.w3.org/2000/svg" viewBox="0 0 800 420" role="img" aria-label="Ilustracion propia de espacio y planetas para esta pregunta">
  <defs>
    <linearGradient id="bg" x1="0" x2="1" y1="0" y2="1">
      <stop stop-color="#12171a"/>
      <stop offset="1" stop-color="#f6bc42" stop-opacity="0.22"/>
    </linearGradient>
  </defs>
  <rect width="800" height="420" fill="url(#bg)"/>
  <circle cx="557" cy="105" r="65" fill="#e46b4f" opacity="0.13"/>
  <circle cx="678" cy="317" r="124" fill="#f6bc42" opacity="0.16"/>
  <circle cx="127" cy="320" r="3" fill="#315be8" opacity="0.51"/><circle cx="536" cy="231" r="3" fill="#315be8" opacity="0.52"/><circle cx="229" cy="142" r="3" fill="#315be8" opacity="0.53"/><circle cx="638" cy="53" r="3" fill="#315be8" opacity="0.54"/><circle cx="639" cy="335" r="3" fill="#315be8" opacity="0.47000000000000003"/><circle cx="332" cy="246" r="3" fill="#315be8" opacity="0.48000000000000004"/><circle cx="741" cy="157" r="3" fill="#315be8" opacity="0.49"/><circle cx="434" cy="68" r="3" fill="#315be8" opacity="0.5"/><circle cx="435" cy="350" r="4" fill="#315be8" opacity="0.43000000000000005"/>
  <rect width="800" height="420" fill="#e46b4f"/><circle cx="320" cy="218" r="77" fill="#f6bc42"/><path d="M230 212c36 14 66-22 112-2" stroke="#8f3327" stroke-width="12" stroke-linecap="round" opacity=".36"/><circle cx="484" cy="178" r="52" fill="#315be8"/><circle cx="560" cy="276" r="32" fill="#fffaf4"/><path d="M176 324c140 46 308 54 476 0" stroke="#fff" stroke-width="5" fill="none" opacity=".38"/>
</svg>
