<svg xmlns="http://www.w3.org/2000/svg" viewBox="0 0 800 420" role="img" aria-label="Ilustracion propia de naturaleza para esta pregunta">
  <defs>
    <linearGradient id="bg" x1="0" x2="1" y1="0" y2="1">
      <stop stop-color="#ecfbef"/>
      <stop offset="1" stop-color="#f6bc42" stop-opacity="0.22"/>
    </linearGradient>
  </defs>
  <rect width="800" height="420" fill="url(#bg)"/>
  <circle cx="542" cy="346" r="99" fill="#12b7a6" opacity="0.13"/>
  <circle cx="601" cy="312" r="98" fill="#315be8" opacity="0.16"/>
  <circle cx="431" cy="190" r="2" fill="#f6bc42" opacity="0.69"/><circle cx="124" cy="101" r="2" fill="#f6bc42" opacity="0.7"/><circle cx="533" cy="354" r="2" fill="#f6bc42" opacity="0.71"/><circle cx="226" cy="265" r="2" fill="#f6bc42" opacity="0.72"/><circle cx="227" cy="205" r="3" fill="#f6bc42" opacity="0.65"/><circle cx="636" cy="115" r="2" fill="#f6bc42" opacity="0.66"/><circle cx="329" cy="368" r="2" fill="#f6bc42" opacity="0.67"/><circle cx="738" cy="279" r="2" fill="#f6bc42" opacity="0.68"/><circle cx="739" cy="219" r="3" fill="#f6bc42" opacity="0.6100000000000001"/>
  <path d="M164 322c172-20 120-184 278-208 118-18 172 78 194 158-152 42-298 74-472 50z" fill="#315be8"/><path d="M214 300c138-68 244-104 390-118" stroke="#fff" stroke-width="14" stroke-linecap="round" opacity=".72"/><path d="M334 254c-28-52-20-104 24-156 72 30 102 82 84 150z" fill="#f6bc42" opacity=".88"/>
</svg>
