<svg xmlns="http://www.w3.org/2000/svg" viewBox="0 0 800 420" role="img" aria-label="Ilustracion propia de naturaleza para esta pregunta">
  <defs>
    <linearGradient id="bg" x1="0" x2="1" y1="0" y2="1">
      <stop stop-color="#ecfbef"/>
      <stop offset="1" stop-color="#ecfbef" stop-opacity="0.22"/>
    </linearGradient>
  </defs>
  <rect width="800" height="420" fill="url(#bg)"/>
  <circle cx="669" cy="113" r="108" fill="#12b7a6" opacity="0.13"/>
  <circle cx="167" cy="247" r="129" fill="#315be8" opacity="0.16"/>
  <circle cx="453" cy="198" r="3" fill="#f6bc42" opacity="0.51"/><circle cx="146" cy="109" r="3" fill="#f6bc42" opacity="0.52"/><circle cx="351" cy="377" r="3" fill="#f6bc42" opacity="0.49"/><circle cx="44" cy="287" r="3" fill="#f6bc42" opacity="0.5"/><circle cx="657" cy="184" r="3" fill="#f6bc42" opacity="0.55"/><circle cx="350" cy="95" r="3" fill="#f6bc42" opacity="0.56"/><circle cx="555" cy="362" r="3" fill="#f6bc42" opacity="0.53"/><circle cx="248" cy="273" r="3" fill="#f6bc42" opacity="0.54"/><circle cx="45" cy="227" r="3" fill="#f6bc42" opacity="0.43000000000000005"/>
  <path d="M164 322c172-20 120-184 278-208 118-18 172 78 194 158-152 42-298 74-472 50z" fill="#315be8"/><path d="M214 300c138-68 244-104 390-118" stroke="#fff" stroke-width="14" stroke-linecap="round" opacity=".72"/><path d="M374 254c-28-52-20-104 24-156 72 30 102 82 84 150z" fill="#f6bc42" opacity=".88"/>
</svg>
