<svg xmlns="http://www.w3.org/2000/svg" viewBox="0 0 800 420" role="img" aria-label="Ilustracion propia de oceano y olas para esta pregunta">
  <defs>
    <linearGradient id="bg" x1="0" x2="1" y1="0" y2="1">
      <stop stop-color="#dff8ff"/>
      <stop offset="1" stop-color="#dff8ff" stop-opacity="0.22"/>
    </linearGradient>
  </defs>
  <rect width="800" height="420" fill="url(#bg)"/>
  <circle cx="132" cy="169" r="108" fill="#12b7a6" opacity="0.13"/>
  <circle cx="325" cy="111" r="89" fill="#315be8" opacity="0.16"/>
  <circle cx="350" cy="167" r="5" fill="#fffaf4" opacity="0.37"/><circle cx="657" cy="256" r="5" fill="#fffaf4" opacity="0.36000000000000004"/><circle cx="248" cy="345" r="5" fill="#fffaf4" opacity="0.35000000000000003"/><circle cx="555" cy="92" r="5" fill="#fffaf4" opacity="0.34"/><circle cx="146" cy="181" r="5" fill="#fffaf4" opacity="0.33"/><circle cx="453" cy="270" r="5" fill="#fffaf4" opacity="0.32"/><circle cx="44" cy="359" r="5" fill="#fffaf4" opacity="0.31000000000000005"/><circle cx="351" cy="107" r="5" fill="#fffaf4" opacity="0.30000000000000004"/><circle cx="42" cy="137" r="5" fill="#fffaf4" opacity="0.45000000000000007"/>
  <path d="M0 240c88-42 144 42 232 0s144 42 232 0 144 42 232 0 144 42 232 0v180H0z" fill="#fff" opacity=".34"/><path d="M0 296c88-42 144 42 232 0s144 42 232 0 144 42 232 0 144 42 232 0" fill="none" stroke="#fff" stroke-width="18" opacity=".62"/><path d="M142 174c82-44 170-44 252 0" fill="none" stroke="#fff" stroke-width="10" opacity=".45" stroke-linecap="round"/>
</svg>
