<svg xmlns="http://www.w3.org/2000/svg" viewBox="0 0 800 420" role="img" aria-label="Ilustracion propia de naturaleza para esta pregunta">
  <defs>
    <linearGradient id="bg" x1="0" x2="1" y1="0" y2="1">
      <stop stop-color="#ecfbef"/>
      <stop offset="1" stop-color="#ecfbef" stop-opacity="0.22"/>
    </linearGradient>
  </defs>
  <rect width="800" height="420" fill="url(#bg)"/>
  <circle cx="178" cy="83" r="90" fill="#12b7a6" opacity="0.13"/>
  <circle cx="631" cy="243" r="97" fill="#315be8" opacity="0.16"/>
  <circle cx="150" cy="336" r="4" fill="#f6bc42" opacity="0.6200000000000001"/><circle cx="457" cy="83" r="4" fill="#f6bc42" opacity="0.6100000000000001"/><circle cx="48" cy="172" r="4" fill="#f6bc42" opacity="0.6000000000000001"/><circle cx="355" cy="261" r="4" fill="#f6bc42" opacity="0.5900000000000001"/><circle cx="354" cy="321" r="4" fill="#f6bc42" opacity="0.66"/><circle cx="661" cy="68" r="4" fill="#f6bc42" opacity="0.65"/><circle cx="252" cy="157" r="4" fill="#f6bc42" opacity="0.64"/><circle cx="559" cy="247" r="4" fill="#f6bc42" opacity="0.63"/><circle cx="458" cy="365" r="4" fill="#f6bc42" opacity="0.54"/>
  <path d="M164 322c172-20 120-184 278-208 118-18 172 78 194 158-152 42-298 74-472 50z" fill="#315be8"/><path d="M214 300c138-68 244-104 390-118" stroke="#fff" stroke-width="14" stroke-linecap="round" opacity=".72"/><path d="M354 254c-28-52-20-104 24-156 72 30 102 82 84 150z" fill="#f6bc42" opacity=".88"/>
</svg>
