<svg xmlns="http://www.w3.org/2000/svg" viewBox="0 0 800 420" role="img" aria-label="Ilustracion propia de cancha de baloncesto para esta pregunta">
  <defs>
    <linearGradient id="bg" x1="0" x2="1" y1="0" y2="1">
      <stop stop-color="#fff1df"/>
      <stop offset="1" stop-color="#15191d" stop-opacity="0.22"/>
    </linearGradient>
  </defs>
  <rect width="800" height="420" fill="url(#bg)"/>
  <circle cx="390" cy="321" r="89" fill="#f6bc42" opacity="0.13"/>
  <circle cx="582" cy="344" r="97" fill="#d95a35" opacity="0.16"/>
  <circle cx="371" cy="64" r="5" fill="#15191d" opacity="0.4"/><circle cx="64" cy="317" r="5" fill="#15191d" opacity="0.41000000000000003"/><circle cx="473" cy="228" r="5" fill="#15191d" opacity="0.42000000000000004"/><circle cx="166" cy="139" r="5" fill="#15191d" opacity="0.43000000000000005"/><circle cx="575" cy="50" r="5" fill="#15191d" opacity="0.44000000000000006"/><circle cx="268" cy="303" r="5" fill="#15191d" opacity="0.45000000000000007"/><circle cx="677" cy="213" r="5" fill="#15191d" opacity="0.46"/><circle cx="370" cy="124" r="5" fill="#15191d" opacity="0.47000000000000003"/><circle cx="63" cy="377" r="5" fill="#15191d" opacity="0.48000000000000004"/>
  <rect x="76" y="58" width="648" height="304" rx="30" fill="#d95a35"/><path d="M100 210h600M400 58v304" stroke="#fffaf4" stroke-width="8" opacity=".8"/><circle cx="400" cy="210" r="80" fill="none" stroke="#fffaf4" stroke-width="8" opacity=".8"/><circle cx="516" cy="246" r="42" fill="#15191d"/><path d="M474 246h84M516 204v84" stroke="#f6bc42" stroke-width="5" fill="none"/>
</svg>
