<svg xmlns="http://www.w3.org/2000/svg" viewBox="0 0 800 420" role="img" aria-label="Ilustracion propia de cancha de baloncesto para esta pregunta">
  <defs>
    <linearGradient id="bg" x1="0" x2="1" y1="0" y2="1">
      <stop stop-color="#fff1df"/>
      <stop offset="1" stop-color="#d95a35" stop-opacity="0.22"/>
    </linearGradient>
  </defs>
  <rect width="800" height="420" fill="url(#bg)"/>
  <circle cx="259" cy="172" r="93" fill="#f6bc42" opacity="0.13"/>
  <circle cx="266" cy="75" r="117" fill="#d95a35" opacity="0.16"/>
  <circle cx="575" cy="179" r="2" fill="#15191d" opacity="0.39"/><circle cx="268" cy="90" r="2" fill="#15191d" opacity="0.4"/><circle cx="677" cy="343" r="2" fill="#15191d" opacity="0.41000000000000003"/><circle cx="370" cy="254" r="2" fill="#15191d" opacity="0.42000000000000004"/><circle cx="63" cy="165" r="2" fill="#15191d" opacity="0.43000000000000005"/><circle cx="472" cy="75" r="2" fill="#15191d" opacity="0.44000000000000006"/><circle cx="165" cy="328" r="2" fill="#15191d" opacity="0.45000000000000007"/><circle cx="574" cy="239" r="2" fill="#15191d" opacity="0.46"/><circle cx="167" cy="208" r="3" fill="#15191d" opacity="0.31000000000000005"/>
  <rect x="76" y="58" width="648" height="304" rx="30" fill="#d95a35"/><path d="M100 210h600M400 58v304" stroke="#fffaf4" stroke-width="8" opacity=".8"/><circle cx="400" cy="210" r="73" fill="none" stroke="#fffaf4" stroke-width="8" opacity=".8"/><circle cx="432" cy="222" r="42" fill="#15191d"/><path d="M390 222h84M432 180v84" stroke="#f6bc42" stroke-width="5" fill="none"/>
</svg>
