<svg xmlns="http://www.w3.org/2000/svg" viewBox="0 0 800 420" role="img" aria-label="Ilustracion propia de cancha de baloncesto para esta pregunta">
  <defs>
    <linearGradient id="bg" x1="0" x2="1" y1="0" y2="1">
      <stop stop-color="#fff1df"/>
      <stop offset="1" stop-color="#f6bc42" stop-opacity="0.22"/>
    </linearGradient>
  </defs>
  <rect width="800" height="420" fill="url(#bg)"/>
  <circle cx="100" cy="193" r="136" fill="#f6bc42" opacity="0.13"/>
  <circle cx="246" cy="292" r="123" fill="#d95a35" opacity="0.16"/>
  <circle cx="734" cy="305" r="3" fill="#15191d" opacity="0.39"/><circle cx="325" cy="52" r="3" fill="#15191d" opacity="0.38"/><circle cx="632" cy="141" r="3" fill="#15191d" opacity="0.37"/><circle cx="223" cy="230" r="3" fill="#15191d" opacity="0.36000000000000004"/><circle cx="222" cy="290" r="3" fill="#15191d" opacity="0.43000000000000005"/><circle cx="529" cy="37" r="3" fill="#15191d" opacity="0.42000000000000004"/><circle cx="120" cy="126" r="3" fill="#15191d" opacity="0.41000000000000003"/><circle cx="427" cy="215" r="3" fill="#15191d" opacity="0.4"/><circle cx="426" cy="275" r="3" fill="#15191d" opacity="0.47000000000000003"/>
  <rect x="76" y="58" width="648" height="304" rx="30" fill="#d95a35"/><path d="M100 210h600M400 58v304" stroke="#fffaf4" stroke-width="8" opacity=".8"/><circle cx="400" cy="210" r="80" fill="none" stroke="#fffaf4" stroke-width="8" opacity=".8"/><circle cx="516" cy="246" r="42" fill="#15191d"/><path d="M474 246h84M516 204v84" stroke="#f6bc42" stroke-width="5" fill="none"/>
</svg>
