<svg xmlns="http://www.w3.org/2000/svg" viewBox="0 0 800 420" role="img" aria-label="Ilustracion propia de cancha de baloncesto para esta pregunta">
  <defs>
    <linearGradient id="bg" x1="0" x2="1" y1="0" y2="1">
      <stop stop-color="#fff1df"/>
      <stop offset="1" stop-color="#d95a35" stop-opacity="0.22"/>
    </linearGradient>
  </defs>
  <rect width="800" height="420" fill="url(#bg)"/>
  <circle cx="555" cy="280" r="65" fill="#f6bc42" opacity="0.13"/>
  <circle cx="153" cy="232" r="74" fill="#d95a35" opacity="0.16"/>
  <circle cx="560" cy="356" r="5" fill="#15191d" opacity="0.56"/><circle cx="151" cy="104" r="5" fill="#15191d" opacity="0.55"/><circle cx="662" cy="178" r="5" fill="#15191d" opacity="0.5800000000000001"/><circle cx="253" cy="267" r="5" fill="#15191d" opacity="0.5700000000000001"/><circle cx="356" cy="371" r="5" fill="#15191d" opacity="0.52"/><circle cx="663" cy="118" r="5" fill="#15191d" opacity="0.51"/><circle cx="458" cy="193" r="5" fill="#15191d" opacity="0.54"/><circle cx="49" cy="282" r="5" fill="#15191d" opacity="0.53"/><circle cx="252" cy="327" r="5" fill="#15191d" opacity="0.64"/>
  <rect x="76" y="58" width="648" height="304" rx="30" fill="#d95a35"/><path d="M100 210h600M400 58v304" stroke="#fffaf4" stroke-width="8" opacity=".8"/><circle cx="400" cy="210" r="80" fill="none" stroke="#fffaf4" stroke-width="8" opacity=".8"/><circle cx="516" cy="246" r="42" fill="#15191d"/><path d="M474 246h84M516 204v84" stroke="#f6bc42" stroke-width="5" fill="none"/>
</svg>
