<svg xmlns="http://www.w3.org/2000/svg" viewBox="0 0 800 420" role="img" aria-label="Ilustracion propia de cancha de baloncesto para esta pregunta">
  <defs>
    <linearGradient id="bg" x1="0" x2="1" y1="0" y2="1">
      <stop stop-color="#fff1df"/>
      <stop offset="1" stop-color="#f6bc42" stop-opacity="0.22"/>
    </linearGradient>
  </defs>
  <rect width="800" height="420" fill="url(#bg)"/>
  <circle cx="530" cy="109" r="136" fill="#f6bc42" opacity="0.13"/>
  <circle cx="525" cy="210" r="73" fill="#d95a35" opacity="0.16"/>
  <circle cx="203" cy="376" r="2" fill="#15191d" opacity="0.5700000000000001"/><circle cx="612" cy="287" r="2" fill="#15191d" opacity="0.5800000000000001"/><circle cx="305" cy="198" r="2" fill="#15191d" opacity="0.5900000000000001"/><circle cx="714" cy="109" r="2" fill="#15191d" opacity="0.6000000000000001"/><circle cx="715" cy="49" r="2" fill="#15191d" opacity="0.53"/><circle cx="408" cy="302" r="2" fill="#15191d" opacity="0.54"/><circle cx="101" cy="213" r="2" fill="#15191d" opacity="0.55"/><circle cx="510" cy="123" r="2" fill="#15191d" opacity="0.56"/><circle cx="511" cy="64" r="2" fill="#15191d" opacity="0.49"/>
  <rect x="76" y="58" width="648" height="304" rx="30" fill="#d95a35"/><path d="M100 210h600M400 58v304" stroke="#fffaf4" stroke-width="8" opacity=".8"/><circle cx="400" cy="210" r="80" fill="none" stroke="#fffaf4" stroke-width="8" opacity=".8"/><circle cx="516" cy="246" r="42" fill="#15191d"/><path d="M474 246h84M516 204v84" stroke="#f6bc42" stroke-width="5" fill="none"/>
</svg>
