<svg xmlns="http://www.w3.org/2000/svg" viewBox="0 0 800 420" role="img" aria-label="Ilustracion propia de cancha de baloncesto para esta pregunta">
  <defs>
    <linearGradient id="bg" x1="0" x2="1" y1="0" y2="1">
      <stop stop-color="#fff1df"/>
      <stop offset="1" stop-color="#15191d" stop-opacity="0.22"/>
    </linearGradient>
  </defs>
  <rect width="800" height="420" fill="url(#bg)"/>
  <circle cx="465" cy="265" r="79" fill="#f6bc42" opacity="0.13"/>
  <circle cx="367" cy="266" r="105" fill="#d95a35" opacity="0.16"/>
  <circle cx="376" cy="39" r="5" fill="#15191d" opacity="0.37"/><circle cx="683" cy="128" r="5" fill="#15191d" opacity="0.36000000000000004"/><circle cx="478" cy="202" r="5" fill="#15191d" opacity="0.39"/><circle cx="69" cy="292" r="5" fill="#15191d" opacity="0.38"/><circle cx="172" cy="53" r="5" fill="#15191d" opacity="0.33"/><circle cx="479" cy="142" r="5" fill="#15191d" opacity="0.32"/><circle cx="274" cy="217" r="5" fill="#15191d" opacity="0.35000000000000003"/><circle cx="581" cy="306" r="5" fill="#15191d" opacity="0.34"/><circle cx="68" cy="352" r="5" fill="#15191d" opacity="0.45000000000000007"/>
  <rect x="76" y="58" width="648" height="304" rx="30" fill="#d95a35"/><path d="M100 210h600M400 58v304" stroke="#fffaf4" stroke-width="8" opacity=".8"/><circle cx="400" cy="210" r="80" fill="none" stroke="#fffaf4" stroke-width="8" opacity=".8"/><circle cx="516" cy="246" r="42" fill="#15191d"/><path d="M474 246h84M516 204v84" stroke="#f6bc42" stroke-width="5" fill="none"/>
</svg>
