<svg xmlns="http://www.w3.org/2000/svg" viewBox="0 0 800 420" role="img" aria-label="Ilustracion propia de cancha de baloncesto para esta pregunta">
  <defs>
    <linearGradient id="bg" x1="0" x2="1" y1="0" y2="1">
      <stop stop-color="#fff1df"/>
      <stop offset="1" stop-color="#fff1df" stop-opacity="0.22"/>
    </linearGradient>
  </defs>
  <rect width="800" height="420" fill="url(#bg)"/>
  <circle cx="238" cy="253" r="136" fill="#f6bc42" opacity="0.13"/>
  <circle cx="413" cy="264" r="73" fill="#d95a35" opacity="0.16"/>
  <circle cx="754" cy="157" r="2" fill="#15191d" opacity="0.5"/><circle cx="345" cy="246" r="2" fill="#15191d" opacity="0.49"/><circle cx="652" cy="335" r="2" fill="#15191d" opacity="0.48000000000000004"/><circle cx="243" cy="82" r="2" fill="#15191d" opacity="0.47000000000000003"/><circle cx="242" cy="142" r="2" fill="#15191d" opacity="0.54"/><circle cx="549" cy="232" r="2" fill="#15191d" opacity="0.53"/><circle cx="140" cy="321" r="2" fill="#15191d" opacity="0.52"/><circle cx="447" cy="68" r="2" fill="#15191d" opacity="0.51"/><circle cx="446" cy="128" r="2" fill="#15191d" opacity="0.5800000000000001"/>
  <rect x="76" y="58" width="648" height="304" rx="30" fill="#d95a35"/><path d="M100 210h600M400 58v304" stroke="#fffaf4" stroke-width="8" opacity=".8"/><circle cx="400" cy="210" r="66" fill="none" stroke="#fffaf4" stroke-width="8" opacity=".8"/><circle cx="348" cy="198" r="42" fill="#15191d"/><path d="M306 198h84M348 156v84" stroke="#f6bc42" stroke-width="5" fill="none"/>
</svg>
