<svg xmlns="http://www.w3.org/2000/svg" viewBox="0 0 800 420" role="img" aria-label="Ilustracion propia de cancha de baloncesto para esta pregunta">
  <defs>
    <linearGradient id="bg" x1="0" x2="1" y1="0" y2="1">
      <stop stop-color="#fff1df"/>
      <stop offset="1" stop-color="#fff1df" stop-opacity="0.22"/>
    </linearGradient>
  </defs>
  <rect width="800" height="420" fill="url(#bg)"/>
  <circle cx="191" cy="217" r="80" fill="#f6bc42" opacity="0.13"/>
  <circle cx="332" cy="152" r="136" fill="#d95a35" opacity="0.16"/>
  <circle cx="83" cy="254" r="4" fill="#15191d" opacity="0.67"/><circle cx="492" cy="164" r="4" fill="#15191d" opacity="0.68"/><circle cx="185" cy="75" r="4" fill="#15191d" opacity="0.69"/><circle cx="594" cy="328" r="4" fill="#15191d" opacity="0.7"/><circle cx="595" cy="268" r="4" fill="#15191d" opacity="0.63"/><circle cx="288" cy="179" r="4" fill="#15191d" opacity="0.64"/><circle cx="697" cy="90" r="4" fill="#15191d" opacity="0.65"/><circle cx="390" cy="343" r="4" fill="#15191d" opacity="0.66"/><circle cx="491" cy="224" r="3" fill="#15191d" opacity="0.30000000000000004"/>
  <rect x="76" y="58" width="648" height="304" rx="30" fill="#d95a35"/><path d="M100 210h600M400 58v304" stroke="#fffaf4" stroke-width="8" opacity=".8"/><circle cx="400" cy="210" r="52" fill="none" stroke="#fffaf4" stroke-width="8" opacity=".8"/><circle cx="180" cy="150" r="42" fill="#15191d"/><path d="M138 150h84M180 108v84" stroke="#f6bc42" stroke-width="5" fill="none"/>
</svg>
