<svg xmlns="http://www.w3.org/2000/svg" viewBox="0 0 800 420" role="img" aria-label="Ilustracion propia de cancha de baloncesto para esta pregunta">
  <defs>
    <linearGradient id="bg" x1="0" x2="1" y1="0" y2="1">
      <stop stop-color="#fff1df"/>
      <stop offset="1" stop-color="#15191d" stop-opacity="0.22"/>
    </linearGradient>
  </defs>
  <rect width="800" height="420" fill="url(#bg)"/>
  <circle cx="255" cy="177" r="105" fill="#f6bc42" opacity="0.13"/>
  <circle cx="415" cy="112" r="119" fill="#d95a35" opacity="0.16"/>
  <circle cx="413" cy="365" r="4" fill="#15191d" opacity="0.53"/><circle cx="106" cy="276" r="4" fill="#15191d" opacity="0.54"/><circle cx="311" cy="201" r="4" fill="#15191d" opacity="0.51"/><circle cx="720" cy="112" r="4" fill="#15191d" opacity="0.52"/><circle cx="209" cy="37" r="4" fill="#15191d" opacity="0.49"/><circle cx="618" cy="290" r="4" fill="#15191d" opacity="0.5"/><circle cx="107" cy="216" r="4" fill="#15191d" opacity="0.47000000000000003"/><circle cx="516" cy="127" r="4" fill="#15191d" opacity="0.48000000000000004"/><circle cx="721" cy="52" r="5" fill="#15191d" opacity="0.45000000000000007"/>
  <rect x="76" y="58" width="648" height="304" rx="30" fill="#d95a35"/><path d="M100 210h600M400 58v304" stroke="#fffaf4" stroke-width="8" opacity=".8"/><circle cx="400" cy="210" r="80" fill="none" stroke="#fffaf4" stroke-width="8" opacity=".8"/><circle cx="516" cy="246" r="42" fill="#15191d"/><path d="M474 246h84M516 204v84" stroke="#f6bc42" stroke-width="5" fill="none"/>
</svg>
