<svg xmlns="http://www.w3.org/2000/svg" viewBox="0 0 800 420" role="img" aria-label="Ilustracion propia de cancha de baloncesto para esta pregunta">
  <defs>
    <linearGradient id="bg" x1="0" x2="1" y1="0" y2="1">
      <stop stop-color="#fff1df"/>
      <stop offset="1" stop-color="#fff1df" stop-opacity="0.22"/>
    </linearGradient>
  </defs>
  <rect width="800" height="420" fill="url(#bg)"/>
  <circle cx="101" cy="291" r="116" fill="#f6bc42" opacity="0.13"/>
  <circle cx="246" cy="126" r="140" fill="#d95a35" opacity="0.16"/>
  <circle cx="90" cy="298" r="2" fill="#15191d" opacity="0.46"/><circle cx="397" cy="45" r="2" fill="#15191d" opacity="0.45000000000000007"/><circle cx="704" cy="134" r="2" fill="#15191d" opacity="0.44000000000000006"/><circle cx="295" cy="224" r="2" fill="#15191d" opacity="0.43000000000000005"/><circle cx="602" cy="313" r="2" fill="#15191d" opacity="0.42000000000000004"/><circle cx="193" cy="60" r="2" fill="#15191d" opacity="0.41000000000000003"/><circle cx="500" cy="149" r="2" fill="#15191d" opacity="0.4"/><circle cx="91" cy="238" r="2" fill="#15191d" opacity="0.39"/><circle cx="498" cy="269" r="2" fill="#15191d" opacity="0.54"/>
  <rect x="76" y="58" width="648" height="304" rx="30" fill="#d95a35"/><path d="M100 210h600M400 58v304" stroke="#fffaf4" stroke-width="8" opacity=".8"/><circle cx="400" cy="210" r="52" fill="none" stroke="#fffaf4" stroke-width="8" opacity=".8"/><circle cx="180" cy="150" r="42" fill="#15191d"/><path d="M138 150h84M180 108v84" stroke="#f6bc42" stroke-width="5" fill="none"/>
</svg>
