<svg xmlns="http://www.w3.org/2000/svg" viewBox="0 0 800 420" role="img" aria-label="Ilustracion propia de cancha de baloncesto para esta pregunta">
  <defs>
    <linearGradient id="bg" x1="0" x2="1" y1="0" y2="1">
      <stop stop-color="#fff1df"/>
      <stop offset="1" stop-color="#fff1df" stop-opacity="0.22"/>
    </linearGradient>
  </defs>
  <rect width="800" height="420" fill="url(#bg)"/>
  <circle cx="215" cy="273" r="136" fill="#f6bc42" opacity="0.13"/>
  <circle cx="485" cy="195" r="143" fill="#d95a35" opacity="0.16"/>
  <circle cx="265" cy="164" r="2" fill="#15191d" opacity="0.51"/><circle cx="674" cy="75" r="2" fill="#15191d" opacity="0.52"/><circle cx="163" cy="342" r="2" fill="#15191d" opacity="0.49"/><circle cx="572" cy="253" r="2" fill="#15191d" opacity="0.5"/><circle cx="61" cy="178" r="2" fill="#15191d" opacity="0.47000000000000003"/><circle cx="470" cy="89" r="2" fill="#15191d" opacity="0.48000000000000004"/><circle cx="675" cy="357" r="2" fill="#15191d" opacity="0.45000000000000007"/><circle cx="368" cy="267" r="2" fill="#15191d" opacity="0.46"/><circle cx="573" cy="193" r="2" fill="#15191d" opacity="0.43000000000000005"/>
  <rect x="76" y="58" width="648" height="304" rx="30" fill="#d95a35"/><path d="M100 210h600M400 58v304" stroke="#fffaf4" stroke-width="8" opacity=".8"/><circle cx="400" cy="210" r="80" fill="none" stroke="#fffaf4" stroke-width="8" opacity=".8"/><circle cx="516" cy="246" r="42" fill="#15191d"/><path d="M474 246h84M516 204v84" stroke="#f6bc42" stroke-width="5" fill="none"/>
</svg>
