<svg xmlns="http://www.w3.org/2000/svg" viewBox="0 0 800 420" role="img" aria-label="Ilustracion propia de cancha de baloncesto para esta pregunta">
  <defs>
    <linearGradient id="bg" x1="0" x2="1" y1="0" y2="1">
      <stop stop-color="#fff1df"/>
      <stop offset="1" stop-color="#fff1df" stop-opacity="0.22"/>
    </linearGradient>
  </defs>
  <rect width="800" height="420" fill="url(#bg)"/>
  <circle cx="555" cy="184" r="138" fill="#f6bc42" opacity="0.13"/>
  <circle cx="528" cy="77" r="103" fill="#d95a35" opacity="0.16"/>
  <circle cx="90" cy="76" r="2" fill="#15191d" opacity="0.5"/><circle cx="397" cy="165" r="2" fill="#15191d" opacity="0.49"/><circle cx="704" cy="255" r="2" fill="#15191d" opacity="0.48000000000000004"/><circle cx="295" cy="344" r="2" fill="#15191d" opacity="0.47000000000000003"/><circle cx="602" cy="91" r="2" fill="#15191d" opacity="0.46"/><circle cx="193" cy="180" r="2" fill="#15191d" opacity="0.45000000000000007"/><circle cx="500" cy="269" r="2" fill="#15191d" opacity="0.44000000000000006"/><circle cx="91" cy="358" r="2" fill="#15191d" opacity="0.43000000000000005"/><circle cx="498" cy="47" r="2" fill="#15191d" opacity="0.5800000000000001"/>
  <rect x="76" y="58" width="648" height="304" rx="30" fill="#d95a35"/><path d="M100 210h600M400 58v304" stroke="#fffaf4" stroke-width="8" opacity=".8"/><circle cx="400" cy="210" r="80" fill="none" stroke="#fffaf4" stroke-width="8" opacity=".8"/><circle cx="516" cy="246" r="42" fill="#15191d"/><path d="M474 246h84M516 204v84" stroke="#f6bc42" stroke-width="5" fill="none"/>
</svg>
