<svg xmlns="http://www.w3.org/2000/svg" viewBox="0 0 800 420" role="img" aria-label="Ilustracion propia de cancha de baloncesto para esta pregunta">
  <defs>
    <linearGradient id="bg" x1="0" x2="1" y1="0" y2="1">
      <stop stop-color="#fff1df"/>
      <stop offset="1" stop-color="#15191d" stop-opacity="0.22"/>
    </linearGradient>
  </defs>
  <rect width="800" height="420" fill="url(#bg)"/>
  <circle cx="289" cy="248" r="109" fill="#f6bc42" opacity="0.13"/>
  <circle cx="120" cy="85" r="99" fill="#d95a35" opacity="0.16"/>
  <circle cx="529" cy="304" r="4" fill="#15191d" opacity="0.28"/><circle cx="222" cy="215" r="4" fill="#15191d" opacity="0.29000000000000004"/><circle cx="427" cy="140" r="4" fill="#15191d" opacity="0.71"/><circle cx="120" cy="51" r="4" fill="#15191d" opacity="0.72"/><circle cx="733" cy="289" r="4" fill="#15191d" opacity="0.32"/><circle cx="426" cy="200" r="4" fill="#15191d" opacity="0.33"/><circle cx="631" cy="125" r="4" fill="#15191d" opacity="0.30000000000000004"/><circle cx="324" cy="36" r="4" fill="#15191d" opacity="0.31000000000000005"/><circle cx="121" cy="333" r="4" fill="#15191d" opacity="0.65"/>
  <rect x="76" y="58" width="648" height="304" rx="30" fill="#d95a35"/><path d="M100 210h600M400 58v304" stroke="#fffaf4" stroke-width="8" opacity=".8"/><circle cx="400" cy="210" r="73" fill="none" stroke="#fffaf4" stroke-width="8" opacity=".8"/><circle cx="432" cy="222" r="42" fill="#15191d"/><path d="M390 222h84M432 180v84" stroke="#f6bc42" stroke-width="5" fill="none"/>
</svg>
