<svg xmlns="http://www.w3.org/2000/svg" viewBox="0 0 800 420" role="img" aria-label="Ilustracion propia de cancha de baloncesto para esta pregunta">
  <defs>
    <linearGradient id="bg" x1="0" x2="1" y1="0" y2="1">
      <stop stop-color="#fff1df"/>
      <stop offset="1" stop-color="#f6bc42" stop-opacity="0.22"/>
    </linearGradient>
  </defs>
  <rect width="800" height="420" fill="url(#bg)"/>
  <circle cx="647" cy="237" r="106" fill="#f6bc42" opacity="0.13"/>
  <circle cx="614" cy="191" r="129" fill="#d95a35" opacity="0.16"/>
  <circle cx="618" cy="275" r="3" fill="#15191d" opacity="0.53"/><circle cx="209" cy="364" r="3" fill="#15191d" opacity="0.52"/><circle cx="516" cy="111" r="3" fill="#15191d" opacity="0.51"/><circle cx="107" cy="200" r="3" fill="#15191d" opacity="0.5"/><circle cx="414" cy="289" r="3" fill="#15191d" opacity="0.49"/><circle cx="721" cy="36" r="3" fill="#15191d" opacity="0.48000000000000004"/><circle cx="544" cy="340" r="3" fill="#15191d" opacity="0.6100000000000001"/><circle cx="135" cy="87" r="3" fill="#15191d" opacity="0.6000000000000001"/><circle cx="310" cy="246" r="2" fill="#15191d" opacity="0.6100000000000001"/>
  <rect x="76" y="58" width="648" height="304" rx="30" fill="#d95a35"/><path d="M100 210h600M400 58v304" stroke="#fffaf4" stroke-width="8" opacity=".8"/><circle cx="400" cy="210" r="59" fill="none" stroke="#fffaf4" stroke-width="8" opacity=".8"/><circle cx="264" cy="174" r="42" fill="#15191d"/><path d="M222 174h84M264 132v84" stroke="#f6bc42" stroke-width="5" fill="none"/>
</svg>
