<svg xmlns="http://www.w3.org/2000/svg" viewBox="0 0 800 420" role="img" aria-label="Ilustracion propia de cancha de baloncesto para esta pregunta">
  <defs>
    <linearGradient id="bg" x1="0" x2="1" y1="0" y2="1">
      <stop stop-color="#fff1df"/>
      <stop offset="1" stop-color="#d95a35" stop-opacity="0.22"/>
    </linearGradient>
  </defs>
  <rect width="800" height="420" fill="url(#bg)"/>
  <circle cx="569" cy="122" r="115" fill="#f6bc42" opacity="0.13"/>
  <circle cx="155" cy="69" r="140" fill="#d95a35" opacity="0.16"/>
  <circle cx="61" cy="229" r="3" fill="#15191d" opacity="0.42000000000000004"/><circle cx="470" cy="140" r="2" fill="#15191d" opacity="0.43000000000000005"/><circle cx="675" cy="65" r="3" fill="#15191d" opacity="0.4"/><circle cx="368" cy="318" r="3" fill="#15191d" opacity="0.41000000000000003"/><circle cx="573" cy="243" r="3" fill="#15191d" opacity="0.38"/><circle cx="266" cy="154" r="3" fill="#15191d" opacity="0.39"/><circle cx="471" cy="80" r="3" fill="#15191d" opacity="0.36000000000000004"/><circle cx="164" cy="333" r="3" fill="#15191d" opacity="0.37"/><circle cx="369" cy="258" r="3" fill="#15191d" opacity="0.34"/>
  <rect x="76" y="58" width="648" height="304" rx="30" fill="#d95a35"/><path d="M100 210h600M400 58v304" stroke="#fffaf4" stroke-width="8" opacity=".8"/><circle cx="400" cy="210" r="73" fill="none" stroke="#fffaf4" stroke-width="8" opacity=".8"/><circle cx="432" cy="222" r="42" fill="#15191d"/><path d="M390 222h84M432 180v84" stroke="#f6bc42" stroke-width="5" fill="none"/>
</svg>
