<svg xmlns="http://www.w3.org/2000/svg" viewBox="0 0 800 420" role="img" aria-label="Ilustracion propia de cancha de baloncesto para esta pregunta">
  <defs>
    <linearGradient id="bg" x1="0" x2="1" y1="0" y2="1">
      <stop stop-color="#fff1df"/>
      <stop offset="1" stop-color="#fff1df" stop-opacity="0.22"/>
    </linearGradient>
  </defs>
  <rect width="800" height="420" fill="url(#bg)"/>
  <circle cx="639" cy="79" r="70" fill="#f6bc42" opacity="0.13"/>
  <circle cx="238" cy="135" r="114" fill="#d95a35" opacity="0.16"/>
  <circle cx="624" cy="84" r="4" fill="#15191d" opacity="0.69"/><circle cx="215" cy="173" r="4" fill="#15191d" opacity="0.68"/><circle cx="726" cy="247" r="4" fill="#15191d" opacity="0.71"/><circle cx="317" cy="337" r="4" fill="#15191d" opacity="0.7"/><circle cx="112" cy="69" r="4" fill="#15191d" opacity="0.28"/><circle cx="419" cy="158" r="4" fill="#15191d" opacity="0.72"/><circle cx="214" cy="233" r="4" fill="#15191d" opacity="0.30000000000000004"/><circle cx="521" cy="322" r="4" fill="#15191d" opacity="0.29000000000000004"/><circle cx="316" cy="55" r="4" fill="#15191d" opacity="0.32"/>
  <rect x="76" y="58" width="648" height="304" rx="30" fill="#d95a35"/><path d="M100 210h600M400 58v304" stroke="#fffaf4" stroke-width="8" opacity=".8"/><circle cx="400" cy="210" r="73" fill="none" stroke="#fffaf4" stroke-width="8" opacity=".8"/><circle cx="432" cy="222" r="42" fill="#15191d"/><path d="M390 222h84M432 180v84" stroke="#f6bc42" stroke-width="5" fill="none"/>
</svg>
