<svg xmlns="http://www.w3.org/2000/svg" viewBox="0 0 800 420" role="img" aria-label="Ilustracion propia de cancha de baloncesto para esta pregunta">
  <defs>
    <linearGradient id="bg" x1="0" x2="1" y1="0" y2="1">
      <stop stop-color="#fff1df"/>
      <stop offset="1" stop-color="#f6bc42" stop-opacity="0.22"/>
    </linearGradient>
  </defs>
  <rect width="800" height="420" fill="url(#bg)"/>
  <circle cx="164" cy="342" r="96" fill="#f6bc42" opacity="0.13"/>
  <circle cx="554" cy="168" r="98" fill="#d95a35" opacity="0.16"/>
  <circle cx="347" cy="101" r="4" fill="#15191d" opacity="0.5900000000000001"/><circle cx="756" cy="354" r="4" fill="#15191d" opacity="0.6000000000000001"/><circle cx="449" cy="265" r="4" fill="#15191d" opacity="0.6100000000000001"/><circle cx="142" cy="176" r="4" fill="#15191d" opacity="0.6200000000000001"/><circle cx="143" cy="116" r="4" fill="#15191d" opacity="0.55"/><circle cx="552" cy="369" r="4" fill="#15191d" opacity="0.56"/><circle cx="245" cy="279" r="4" fill="#15191d" opacity="0.5700000000000001"/><circle cx="654" cy="190" r="4" fill="#15191d" opacity="0.5800000000000001"/><circle cx="755" cy="72" r="4" fill="#15191d" opacity="0.67"/>
  <rect x="76" y="58" width="648" height="304" rx="30" fill="#d95a35"/><path d="M100 210h600M400 58v304" stroke="#fffaf4" stroke-width="8" opacity=".8"/><circle cx="400" cy="210" r="73" fill="none" stroke="#fffaf4" stroke-width="8" opacity=".8"/><circle cx="432" cy="222" r="42" fill="#15191d"/><path d="M390 222h84M432 180v84" stroke="#f6bc42" stroke-width="5" fill="none"/>
</svg>
