<svg xmlns="http://www.w3.org/2000/svg" viewBox="0 0 800 420" role="img" aria-label="Ilustracion propia de cancha de baloncesto para esta pregunta">
  <defs>
    <linearGradient id="bg" x1="0" x2="1" y1="0" y2="1">
      <stop stop-color="#fff1df"/>
      <stop offset="1" stop-color="#15191d" stop-opacity="0.22"/>
    </linearGradient>
  </defs>
  <rect width="800" height="420" fill="url(#bg)"/>
  <circle cx="255" cy="160" r="77" fill="#f6bc42" opacity="0.13"/>
  <circle cx="265" cy="110" r="85" fill="#d95a35" opacity="0.16"/>
  <circle cx="463" cy="348" r="2" fill="#15191d" opacity="0.33"/><circle cx="156" cy="259" r="2" fill="#15191d" opacity="0.34"/><circle cx="565" cy="170" r="2" fill="#15191d" opacity="0.35000000000000003"/><circle cx="258" cy="81" r="2" fill="#15191d" opacity="0.36000000000000004"/><circle cx="667" cy="334" r="2" fill="#15191d" opacity="0.37"/><circle cx="360" cy="245" r="2" fill="#15191d" opacity="0.38"/><circle cx="53" cy="155" r="2" fill="#15191d" opacity="0.39"/><circle cx="462" cy="66" r="2" fill="#15191d" opacity="0.4"/><circle cx="55" cy="377" r="2" fill="#15191d" opacity="0.7"/>
  <rect x="76" y="58" width="648" height="304" rx="30" fill="#d95a35"/><path d="M100 210h600M400 58v304" stroke="#fffaf4" stroke-width="8" opacity=".8"/><circle cx="400" cy="210" r="80" fill="none" stroke="#fffaf4" stroke-width="8" opacity=".8"/><circle cx="516" cy="246" r="42" fill="#15191d"/><path d="M474 246h84M516 204v84" stroke="#f6bc42" stroke-width="5" fill="none"/>
</svg>
