<svg xmlns="http://www.w3.org/2000/svg" viewBox="0 0 800 420" role="img" aria-label="Ilustracion propia de cancha de baloncesto para esta pregunta">
  <defs>
    <linearGradient id="bg" x1="0" x2="1" y1="0" y2="1">
      <stop stop-color="#fff1df"/>
      <stop offset="1" stop-color="#d95a35" stop-opacity="0.22"/>
    </linearGradient>
  </defs>
  <rect width="800" height="420" fill="url(#bg)"/>
  <circle cx="132" cy="220" r="85" fill="#f6bc42" opacity="0.13"/>
  <circle cx="400" cy="260" r="136" fill="#d95a35" opacity="0.16"/>
  <circle cx="184" cy="135" r="4" fill="#15191d" opacity="0.55"/><circle cx="491" cy="225" r="4" fill="#15191d" opacity="0.54"/><circle cx="286" cy="299" r="4" fill="#15191d" opacity="0.5700000000000001"/><circle cx="593" cy="46" r="4" fill="#15191d" opacity="0.56"/><circle cx="696" cy="150" r="4" fill="#15191d" opacity="0.51"/><circle cx="287" cy="239" r="4" fill="#15191d" opacity="0.5"/><circle cx="82" cy="314" r="4" fill="#15191d" opacity="0.53"/><circle cx="389" cy="61" r="4" fill="#15191d" opacity="0.52"/><circle cx="592" cy="106" r="4" fill="#15191d" opacity="0.63"/>
  <rect x="76" y="58" width="648" height="304" rx="30" fill="#d95a35"/><path d="M100 210h600M400 58v304" stroke="#fffaf4" stroke-width="8" opacity=".8"/><circle cx="400" cy="210" r="59" fill="none" stroke="#fffaf4" stroke-width="8" opacity=".8"/><circle cx="264" cy="174" r="42" fill="#15191d"/><path d="M222 174h84M264 132v84" stroke="#f6bc42" stroke-width="5" fill="none"/>
</svg>
