<svg xmlns="http://www.w3.org/2000/svg" viewBox="0 0 800 420" role="img" aria-label="Ilustracion propia de cancha de baloncesto para esta pregunta">
  <defs>
    <linearGradient id="bg" x1="0" x2="1" y1="0" y2="1">
      <stop stop-color="#fff1df"/>
      <stop offset="1" stop-color="#15191d" stop-opacity="0.22"/>
    </linearGradient>
  </defs>
  <rect width="800" height="420" fill="url(#bg)"/>
  <circle cx="197" cy="108" r="107" fill="#f6bc42" opacity="0.13"/>
  <circle cx="408" cy="210" r="139" fill="#d95a35" opacity="0.16"/>
  <circle cx="129" cy="204" r="2" fill="#15191d" opacity="0.66"/><circle cx="538" cy="115" r="2" fill="#15191d" opacity="0.67"/><circle cx="743" cy="40" r="2" fill="#15191d" opacity="0.64"/><circle cx="436" cy="293" r="2" fill="#15191d" opacity="0.65"/><circle cx="333" cy="189" r="2" fill="#15191d" opacity="0.7"/><circle cx="742" cy="100" r="2" fill="#15191d" opacity="0.71"/><circle cx="231" cy="368" r="2" fill="#15191d" opacity="0.68"/><circle cx="640" cy="279" r="2" fill="#15191d" opacity="0.69"/><circle cx="537" cy="175" r="2" fill="#15191d" opacity="0.29000000000000004"/>
  <rect x="76" y="58" width="648" height="304" rx="30" fill="#d95a35"/><path d="M100 210h600M400 58v304" stroke="#fffaf4" stroke-width="8" opacity=".8"/><circle cx="400" cy="210" r="59" fill="none" stroke="#fffaf4" stroke-width="8" opacity=".8"/><circle cx="264" cy="174" r="42" fill="#15191d"/><path d="M222 174h84M264 132v84" stroke="#f6bc42" stroke-width="5" fill="none"/>
</svg>
