<svg xmlns="http://www.w3.org/2000/svg" viewBox="0 0 800 420" role="img" aria-label="Ilustracion propia de cancha de baloncesto para esta pregunta">
  <defs>
    <linearGradient id="bg" x1="0" x2="1" y1="0" y2="1">
      <stop stop-color="#fff1df"/>
      <stop offset="1" stop-color="#fff1df" stop-opacity="0.22"/>
    </linearGradient>
  </defs>
  <rect width="800" height="420" fill="url(#bg)"/>
  <circle cx="365" cy="262" r="132" fill="#f6bc42" opacity="0.13"/>
  <circle cx="129" cy="301" r="72" fill="#d95a35" opacity="0.16"/>
  <circle cx="684" cy="295" r="2" fill="#15191d" opacity="0.5700000000000001"/><circle cx="275" cy="42" r="2" fill="#15191d" opacity="0.56"/><circle cx="70" cy="117" r="2" fill="#15191d" opacity="0.5900000000000001"/><circle cx="377" cy="206" r="2" fill="#15191d" opacity="0.5800000000000001"/><circle cx="480" cy="310" r="2" fill="#15191d" opacity="0.53"/><circle cx="71" cy="57" r="2" fill="#15191d" opacity="0.52"/><circle cx="582" cy="131" r="2" fill="#15191d" opacity="0.55"/><circle cx="173" cy="221" r="2" fill="#15191d" opacity="0.54"/><circle cx="376" cy="266" r="2" fill="#15191d" opacity="0.65"/>
  <rect x="76" y="58" width="648" height="304" rx="30" fill="#d95a35"/><path d="M100 210h600M400 58v304" stroke="#fffaf4" stroke-width="8" opacity=".8"/><circle cx="400" cy="210" r="80" fill="none" stroke="#fffaf4" stroke-width="8" opacity=".8"/><circle cx="516" cy="246" r="42" fill="#15191d"/><path d="M474 246h84M516 204v84" stroke="#f6bc42" stroke-width="5" fill="none"/>
</svg>
