<svg xmlns="http://www.w3.org/2000/svg" viewBox="0 0 800 420" role="img" aria-label="Ilustracion propia de cancha de baloncesto para esta pregunta">
  <defs>
    <linearGradient id="bg" x1="0" x2="1" y1="0" y2="1">
      <stop stop-color="#fff1df"/>
      <stop offset="1" stop-color="#fff1df" stop-opacity="0.22"/>
    </linearGradient>
  </defs>
  <rect width="800" height="420" fill="url(#bg)"/>
  <circle cx="303" cy="185" r="136" fill="#f6bc42" opacity="0.13"/>
  <circle cx="271" cy="113" r="143" fill="#d95a35" opacity="0.16"/>
  <circle cx="495" cy="180" r="2" fill="#15191d" opacity="0.69"/><circle cx="188" cy="91" r="2" fill="#15191d" opacity="0.7"/><circle cx="597" cy="344" r="2" fill="#15191d" opacity="0.71"/><circle cx="290" cy="255" r="2" fill="#15191d" opacity="0.72"/><circle cx="699" cy="166" r="2" fill="#15191d" opacity="0.28"/><circle cx="392" cy="76" r="2" fill="#15191d" opacity="0.29000000000000004"/><circle cx="85" cy="329" r="2" fill="#15191d" opacity="0.30000000000000004"/><circle cx="494" cy="240" r="2" fill="#15191d" opacity="0.31000000000000005"/><circle cx="187" cy="151" r="2" fill="#15191d" opacity="0.32"/>
  <rect x="76" y="58" width="648" height="304" rx="30" fill="#d95a35"/><path d="M100 210h600M400 58v304" stroke="#fffaf4" stroke-width="8" opacity=".8"/><circle cx="400" cy="210" r="66" fill="none" stroke="#fffaf4" stroke-width="8" opacity=".8"/><circle cx="348" cy="198" r="42" fill="#15191d"/><path d="M306 198h84M348 156v84" stroke="#f6bc42" stroke-width="5" fill="none"/>
</svg>
