<svg xmlns="http://www.w3.org/2000/svg" viewBox="0 0 800 420" role="img" aria-label="Ilustracion propia de cancha de baloncesto para esta pregunta">
  <defs>
    <linearGradient id="bg" x1="0" x2="1" y1="0" y2="1">
      <stop stop-color="#fff1df"/>
      <stop offset="1" stop-color="#d95a35" stop-opacity="0.22"/>
    </linearGradient>
  </defs>
  <rect width="800" height="420" fill="url(#bg)"/>
  <circle cx="518" cy="314" r="77" fill="#f6bc42" opacity="0.13"/>
  <circle cx="448" cy="272" r="125" fill="#d95a35" opacity="0.16"/>
  <circle cx="229" cy="323" r="4" fill="#15191d" opacity="0.5700000000000001"/><circle cx="638" cy="234" r="4" fill="#15191d" opacity="0.5800000000000001"/><circle cx="127" cy="159" r="5" fill="#15191d" opacity="0.55"/><circle cx="536" cy="70" r="5" fill="#15191d" opacity="0.56"/><circle cx="433" cy="308" r="4" fill="#15191d" opacity="0.6100000000000001"/><circle cx="126" cy="219" r="4" fill="#15191d" opacity="0.6200000000000001"/><circle cx="331" cy="144" r="4" fill="#15191d" opacity="0.5900000000000001"/><circle cx="740" cy="55" r="4" fill="#15191d" opacity="0.6000000000000001"/><circle cx="537" cy="352" r="5" fill="#15191d" opacity="0.49"/>
  <rect x="76" y="58" width="648" height="304" rx="30" fill="#d95a35"/><path d="M100 210h600M400 58v304" stroke="#fffaf4" stroke-width="8" opacity=".8"/><circle cx="400" cy="210" r="66" fill="none" stroke="#fffaf4" stroke-width="8" opacity=".8"/><circle cx="348" cy="198" r="42" fill="#15191d"/><path d="M306 198h84M348 156v84" stroke="#f6bc42" stroke-width="5" fill="none"/>
</svg>
