<svg xmlns="http://www.w3.org/2000/svg" viewBox="0 0 800 420" role="img" aria-label="Ilustracion propia de cancha de baloncesto para esta pregunta">
  <defs>
    <linearGradient id="bg" x1="0" x2="1" y1="0" y2="1">
      <stop stop-color="#fff1df"/>
      <stop offset="1" stop-color="#15191d" stop-opacity="0.22"/>
    </linearGradient>
  </defs>
  <rect width="800" height="420" fill="url(#bg)"/>
  <circle cx="269" cy="128" r="115" fill="#f6bc42" opacity="0.13"/>
  <circle cx="417" cy="177" r="140" fill="#d95a35" opacity="0.16"/>
  <circle cx="340" cy="52" r="2" fill="#15191d" opacity="0.64"/><circle cx="647" cy="141" r="2" fill="#15191d" opacity="0.63"/><circle cx="442" cy="216" r="2" fill="#15191d" opacity="0.66"/><circle cx="749" cy="305" r="2" fill="#15191d" opacity="0.65"/><circle cx="544" cy="37" r="2" fill="#15191d" opacity="0.68"/><circle cx="135" cy="127" r="2" fill="#15191d" opacity="0.67"/><circle cx="646" cy="201" r="2" fill="#15191d" opacity="0.7"/><circle cx="237" cy="290" r="2" fill="#15191d" opacity="0.69"/><circle cx="748" cy="365" r="2" fill="#15191d" opacity="0.72"/>
  <rect x="76" y="58" width="648" height="304" rx="30" fill="#d95a35"/><path d="M100 210h600M400 58v304" stroke="#fffaf4" stroke-width="8" opacity=".8"/><circle cx="400" cy="210" r="73" fill="none" stroke="#fffaf4" stroke-width="8" opacity=".8"/><circle cx="432" cy="222" r="42" fill="#15191d"/><path d="M390 222h84M432 180v84" stroke="#f6bc42" stroke-width="5" fill="none"/>
</svg>
