<svg xmlns="http://www.w3.org/2000/svg" viewBox="0 0 800 420" role="img" aria-label="Ilustracion propia de cancha de baloncesto para esta pregunta">
  <defs>
    <linearGradient id="bg" x1="0" x2="1" y1="0" y2="1">
      <stop stop-color="#fff1df"/>
      <stop offset="1" stop-color="#15191d" stop-opacity="0.22"/>
    </linearGradient>
  </defs>
  <rect width="800" height="420" fill="url(#bg)"/>
  <circle cx="511" cy="120" r="91" fill="#f6bc42" opacity="0.13"/>
  <circle cx="672" cy="283" r="127" fill="#d95a35" opacity="0.16"/>
  <circle cx="361" cy="209" r="3" fill="#15191d" opacity="0.66"/><circle cx="54" cy="119" r="3" fill="#15191d" opacity="0.67"/><circle cx="259" cy="45" r="3" fill="#15191d" opacity="0.64"/><circle cx="668" cy="298" r="3" fill="#15191d" opacity="0.65"/><circle cx="565" cy="194" r="3" fill="#15191d" opacity="0.7"/><circle cx="258" cy="105" r="3" fill="#15191d" opacity="0.71"/><circle cx="463" cy="372" r="3" fill="#15191d" opacity="0.68"/><circle cx="156" cy="283" r="3" fill="#15191d" opacity="0.69"/><circle cx="53" cy="179" r="3" fill="#15191d" opacity="0.29000000000000004"/>
  <rect x="76" y="58" width="648" height="304" rx="30" fill="#d95a35"/><path d="M100 210h600M400 58v304" stroke="#fffaf4" stroke-width="8" opacity=".8"/><circle cx="400" cy="210" r="52" fill="none" stroke="#fffaf4" stroke-width="8" opacity=".8"/><circle cx="180" cy="150" r="42" fill="#15191d"/><path d="M138 150h84M180 108v84" stroke="#f6bc42" stroke-width="5" fill="none"/>
</svg>
