<svg xmlns="http://www.w3.org/2000/svg" viewBox="0 0 800 420" role="img" aria-label="Ilustracion propia de cancha de baloncesto para esta pregunta">
  <defs>
    <linearGradient id="bg" x1="0" x2="1" y1="0" y2="1">
      <stop stop-color="#fff1df"/>
      <stop offset="1" stop-color="#fff1df" stop-opacity="0.22"/>
    </linearGradient>
  </defs>
  <rect width="800" height="420" fill="url(#bg)"/>
  <circle cx="164" cy="206" r="86" fill="#f6bc42" opacity="0.13"/>
  <circle cx="329" cy="294" r="136" fill="#d95a35" opacity="0.16"/>
  <circle cx="550" cy="299" r="4" fill="#15191d" opacity="0.31000000000000005"/><circle cx="141" cy="46" r="5" fill="#15191d" opacity="0.30000000000000004"/><circle cx="448" cy="135" r="5" fill="#15191d" opacity="0.29000000000000004"/><circle cx="755" cy="224" r="5" fill="#15191d" opacity="0.28"/><circle cx="346" cy="313" r="5" fill="#15191d" opacity="0.72"/><circle cx="653" cy="60" r="5" fill="#15191d" opacity="0.71"/><circle cx="244" cy="149" r="5" fill="#15191d" opacity="0.7"/><circle cx="551" cy="239" r="5" fill="#15191d" opacity="0.69"/><circle cx="242" cy="269" r="4" fill="#15191d" opacity="0.39"/>
  <rect x="76" y="58" width="648" height="304" rx="30" fill="#d95a35"/><path d="M100 210h600M400 58v304" stroke="#fffaf4" stroke-width="8" opacity=".8"/><circle cx="400" cy="210" r="73" fill="none" stroke="#fffaf4" stroke-width="8" opacity=".8"/><circle cx="432" cy="222" r="42" fill="#15191d"/><path d="M390 222h84M432 180v84" stroke="#f6bc42" stroke-width="5" fill="none"/>
</svg>
