<svg xmlns="http://www.w3.org/2000/svg" viewBox="0 0 800 420" role="img" aria-label="Ilustracion propia de cancha de baloncesto para esta pregunta">
  <defs>
    <linearGradient id="bg" x1="0" x2="1" y1="0" y2="1">
      <stop stop-color="#fff1df"/>
      <stop offset="1" stop-color="#d95a35" stop-opacity="0.22"/>
    </linearGradient>
  </defs>
  <rect width="800" height="420" fill="url(#bg)"/>
  <circle cx="404" cy="164" r="121" fill="#f6bc42" opacity="0.13"/>
  <circle cx="209" cy="217" r="121" fill="#d95a35" opacity="0.16"/>
  <circle cx="384" cy="120" r="3" fill="#15191d" opacity="0.36000000000000004"/><circle cx="691" cy="209" r="3" fill="#15191d" opacity="0.35000000000000003"/><circle cx="486" cy="284" r="3" fill="#15191d" opacity="0.38"/><circle cx="77" cy="373" r="3" fill="#15191d" opacity="0.37"/><circle cx="180" cy="134" r="3" fill="#15191d" opacity="0.32"/><circle cx="487" cy="224" r="3" fill="#15191d" opacity="0.31000000000000005"/><circle cx="282" cy="298" r="3" fill="#15191d" opacity="0.34"/><circle cx="589" cy="45" r="3" fill="#15191d" opacity="0.33"/><circle cx="692" cy="149" r="3" fill="#15191d" opacity="0.28"/>
  <rect x="76" y="58" width="648" height="304" rx="30" fill="#d95a35"/><path d="M100 210h600M400 58v304" stroke="#fffaf4" stroke-width="8" opacity=".8"/><circle cx="400" cy="210" r="73" fill="none" stroke="#fffaf4" stroke-width="8" opacity=".8"/><circle cx="432" cy="222" r="42" fill="#15191d"/><path d="M390 222h84M432 180v84" stroke="#f6bc42" stroke-width="5" fill="none"/>
</svg>
