<svg xmlns="http://www.w3.org/2000/svg" viewBox="0 0 800 420" role="img" aria-label="Ilustracion propia de cancha de baloncesto para esta pregunta">
  <defs>
    <linearGradient id="bg" x1="0" x2="1" y1="0" y2="1">
      <stop stop-color="#fff1df"/>
      <stop offset="1" stop-color="#fff1df" stop-opacity="0.22"/>
    </linearGradient>
  </defs>
  <rect width="800" height="420" fill="url(#bg)"/>
  <circle cx="106" cy="251" r="116" fill="#f6bc42" opacity="0.13"/>
  <circle cx="622" cy="192" r="70" fill="#d95a35" opacity="0.16"/>
  <circle cx="434" cy="93" r="2" fill="#15191d" opacity="0.64"/><circle cx="741" cy="183" r="2" fill="#15191d" opacity="0.63"/><circle cx="332" cy="272" r="2" fill="#15191d" opacity="0.6200000000000001"/><circle cx="639" cy="361" r="2" fill="#15191d" opacity="0.6100000000000001"/><circle cx="230" cy="108" r="2" fill="#15191d" opacity="0.6000000000000001"/><circle cx="537" cy="197" r="2" fill="#15191d" opacity="0.5900000000000001"/><circle cx="128" cy="286" r="2" fill="#15191d" opacity="0.5800000000000001"/><circle cx="435" cy="375" r="2" fill="#15191d" opacity="0.5700000000000001"/><circle cx="126" cy="64" r="2" fill="#15191d" opacity="0.72"/>
  <rect x="76" y="58" width="648" height="304" rx="30" fill="#d95a35"/><path d="M100 210h600M400 58v304" stroke="#fffaf4" stroke-width="8" opacity=".8"/><circle cx="400" cy="210" r="52" fill="none" stroke="#fffaf4" stroke-width="8" opacity=".8"/><circle cx="180" cy="150" r="42" fill="#15191d"/><path d="M138 150h84M180 108v84" stroke="#f6bc42" stroke-width="5" fill="none"/>
</svg>
