<svg xmlns="http://www.w3.org/2000/svg" viewBox="0 0 800 420" role="img" aria-label="Ilustracion propia de cancha de baloncesto para esta pregunta">
  <defs>
    <linearGradient id="bg" x1="0" x2="1" y1="0" y2="1">
      <stop stop-color="#fff1df"/>
      <stop offset="1" stop-color="#f6bc42" stop-opacity="0.22"/>
    </linearGradient>
  </defs>
  <rect width="800" height="420" fill="url(#bg)"/>
  <circle cx="449" cy="330" r="98" fill="#f6bc42" opacity="0.13"/>
  <circle cx="440" cy="95" r="78" fill="#d95a35" opacity="0.16"/>
  <circle cx="231" cy="64" r="4" fill="#15191d" opacity="0.72"/><circle cx="640" cy="317" r="4" fill="#15191d" opacity="0.28"/><circle cx="333" cy="227" r="4" fill="#15191d" opacity="0.29000000000000004"/><circle cx="742" cy="138" r="4" fill="#15191d" opacity="0.30000000000000004"/><circle cx="743" cy="78" r="5" fill="#15191d" opacity="0.68"/><circle cx="436" cy="331" r="5" fill="#15191d" opacity="0.69"/><circle cx="129" cy="242" r="5" fill="#15191d" opacity="0.7"/><circle cx="538" cy="153" r="4" fill="#15191d" opacity="0.71"/><circle cx="639" cy="377" r="4" fill="#15191d" opacity="0.35000000000000003"/>
  <rect x="76" y="58" width="648" height="304" rx="30" fill="#d95a35"/><path d="M100 210h600M400 58v304" stroke="#fffaf4" stroke-width="8" opacity=".8"/><circle cx="400" cy="210" r="73" fill="none" stroke="#fffaf4" stroke-width="8" opacity=".8"/><circle cx="432" cy="222" r="42" fill="#15191d"/><path d="M390 222h84M432 180v84" stroke="#f6bc42" stroke-width="5" fill="none"/>
</svg>
