<svg xmlns="http://www.w3.org/2000/svg" viewBox="0 0 800 420" role="img" aria-label="Ilustracion propia de cancha de baloncesto para esta pregunta">
  <defs>
    <linearGradient id="bg" x1="0" x2="1" y1="0" y2="1">
      <stop stop-color="#fff1df"/>
      <stop offset="1" stop-color="#15191d" stop-opacity="0.22"/>
    </linearGradient>
  </defs>
  <rect width="800" height="420" fill="url(#bg)"/>
  <circle cx="390" cy="157" r="75" fill="#f6bc42" opacity="0.13"/>
  <circle cx="582" cy="288" r="85" fill="#d95a35" opacity="0.16"/>
  <circle cx="707" cy="95" r="3" fill="#15191d" opacity="0.35000000000000003"/><circle cx="400" cy="348" r="3" fill="#15191d" opacity="0.36000000000000004"/><circle cx="93" cy="258" r="3" fill="#15191d" opacity="0.37"/><circle cx="502" cy="169" r="3" fill="#15191d" opacity="0.38"/><circle cx="503" cy="109" r="3" fill="#15191d" opacity="0.31000000000000005"/><circle cx="196" cy="362" r="3" fill="#15191d" opacity="0.32"/><circle cx="605" cy="273" r="3" fill="#15191d" opacity="0.33"/><circle cx="298" cy="184" r="3" fill="#15191d" opacity="0.34"/><circle cx="399" cy="66" r="3" fill="#15191d" opacity="0.43000000000000005"/>
  <rect x="76" y="58" width="648" height="304" rx="30" fill="#d95a35"/><path d="M100 210h600M400 58v304" stroke="#fffaf4" stroke-width="8" opacity=".8"/><circle cx="400" cy="210" r="80" fill="none" stroke="#fffaf4" stroke-width="8" opacity=".8"/><circle cx="516" cy="246" r="42" fill="#15191d"/><path d="M474 246h84M516 204v84" stroke="#f6bc42" stroke-width="5" fill="none"/>
</svg>
