<svg xmlns="http://www.w3.org/2000/svg" viewBox="0 0 800 420" role="img" aria-label="Ilustracion propia de cancha de baloncesto para esta pregunta">
  <defs>
    <linearGradient id="bg" x1="0" x2="1" y1="0" y2="1">
      <stop stop-color="#fff1df"/>
      <stop offset="1" stop-color="#fff1df" stop-opacity="0.22"/>
    </linearGradient>
  </defs>
  <rect width="800" height="420" fill="url(#bg)"/>
  <circle cx="127" cy="134" r="114" fill="#f6bc42" opacity="0.13"/>
  <circle cx="99" cy="321" r="110" fill="#d95a35" opacity="0.16"/>
  <circle cx="743" cy="344" r="3" fill="#15191d" opacity="0.39"/><circle cx="436" cy="255" r="3" fill="#15191d" opacity="0.4"/><circle cx="129" cy="166" r="3" fill="#15191d" opacity="0.41000000000000003"/><circle cx="538" cy="77" r="3" fill="#15191d" opacity="0.42000000000000004"/><circle cx="539" cy="359" r="4" fill="#15191d" opacity="0.35000000000000003"/><circle cx="232" cy="270" r="4" fill="#15191d" opacity="0.36000000000000004"/><circle cx="641" cy="181" r="4" fill="#15191d" opacity="0.37"/><circle cx="334" cy="91" r="4" fill="#15191d" opacity="0.38"/><circle cx="435" cy="315" r="3" fill="#15191d" opacity="0.47000000000000003"/>
  <rect x="76" y="58" width="648" height="304" rx="30" fill="#d95a35"/><path d="M100 210h600M400 58v304" stroke="#fffaf4" stroke-width="8" opacity=".8"/><circle cx="400" cy="210" r="59" fill="none" stroke="#fffaf4" stroke-width="8" opacity=".8"/><circle cx="264" cy="174" r="42" fill="#15191d"/><path d="M222 174h84M264 132v84" stroke="#f6bc42" stroke-width="5" fill="none"/>
</svg>
