<svg xmlns="http://www.w3.org/2000/svg" viewBox="0 0 800 420" role="img" aria-label="Ilustracion propia de mapa y geografia para esta pregunta">
  <defs>
    <linearGradient id="bg" x1="0" x2="1" y1="0" y2="1">
      <stop stop-color="#eaf9f6"/>
      <stop offset="1" stop-color="#12b7a6" stop-opacity="0.22"/>
    </linearGradient>
  </defs>
  <rect width="800" height="420" fill="url(#bg)"/>
  <circle cx="357" cy="72" r="79" fill="#fffaf4" opacity="0.13"/>
  <circle cx="578" cy="242" r="125" fill="#12b7a6" opacity="0.16"/>
  <circle cx="130" cy="67" r="4" fill="#ff4f6d" opacity="0.31000000000000005"/><circle cx="437" cy="156" r="4" fill="#ff4f6d" opacity="0.30000000000000004"/><circle cx="744" cy="245" r="4" fill="#ff4f6d" opacity="0.29000000000000004"/><circle cx="335" cy="335" r="4" fill="#ff4f6d" opacity="0.28"/><circle cx="334" cy="53" r="4" fill="#ff4f6d" opacity="0.35000000000000003"/><circle cx="641" cy="142" r="4" fill="#ff4f6d" opacity="0.34"/><circle cx="232" cy="231" r="4" fill="#ff4f6d" opacity="0.33"/><circle cx="539" cy="320" r="4" fill="#ff4f6d" opacity="0.32"/><circle cx="438" cy="96" r="4" fill="#ff4f6d" opacity="0.68"/>
  <path d="M100 84l170-42 160 50 170-42 100 42v244l-170 42-160-50-170 42-100-42z" fill="#12b7a6" stroke="#15191d" stroke-width="5" opacity=".94"/><path d="M270 42v286M430 92v286M600 50v286" stroke="#15191d" stroke-width="4" opacity=".16"/><path d="M126 152c80 22 106-36 176-8 72 28 94 88 182 48 86-40 128-8 184 44" fill="none" stroke="#ff4f6d" stroke-width="14" stroke-linecap="round"/><path d="M470 126c0 36-38 70-38 70s-38-34-38-70a38 38 0 0176 0z" fill="#fffaf4"/>
</svg>
