<svg xmlns="http://www.w3.org/2000/svg" viewBox="0 0 800 420" role="img" aria-label="Ilustracion propia de oceano y olas para esta pregunta">
  <defs>
    <linearGradient id="bg" x1="0" x2="1" y1="0" y2="1">
      <stop stop-color="#dff8ff"/>
      <stop offset="1" stop-color="#12b7a6" stop-opacity="0.22"/>
    </linearGradient>
  </defs>
  <rect width="800" height="420" fill="url(#bg)"/>
  <circle cx="178" cy="276" r="142" fill="#12b7a6" opacity="0.13"/>
  <circle cx="106" cy="196" r="103" fill="#315be8" opacity="0.16"/>
  <circle cx="408" cy="119" r="4" fill="#fffaf4" opacity="0.49"/><circle cx="715" cy="208" r="4" fill="#fffaf4" opacity="0.48000000000000004"/><circle cx="510" cy="282" r="4" fill="#fffaf4" opacity="0.51"/><circle cx="101" cy="372" r="4" fill="#fffaf4" opacity="0.5"/><circle cx="612" cy="104" r="4" fill="#fffaf4" opacity="0.53"/><circle cx="203" cy="193" r="4" fill="#fffaf4" opacity="0.52"/><circle cx="714" cy="268" r="4" fill="#fffaf4" opacity="0.55"/><circle cx="305" cy="357" r="4" fill="#fffaf4" opacity="0.54"/><circle cx="100" cy="90" r="4" fill="#fffaf4" opacity="0.5700000000000001"/>
  <path d="M0 240c88-42 144 42 232 0s144 42 232 0 144 42 232 0 144 42 232 0v180H0z" fill="#fff" opacity=".34"/><path d="M0 306c88-42 144 42 232 0s144 42 232 0 144 42 232 0 144 42 232 0" fill="none" stroke="#fff" stroke-width="18" opacity=".62"/><path d="M142 174c82-44 170-44 252 0" fill="none" stroke="#fff" stroke-width="10" opacity=".45" stroke-linecap="round"/>
</svg>
