<svg xmlns="http://www.w3.org/2000/svg" viewBox="0 0 800 420" role="img" aria-label="Ilustracion propia de espacio y planetas para esta pregunta">
  <defs>
    <linearGradient id="bg" x1="0" x2="1" y1="0" y2="1">
      <stop stop-color="#12171a"/>
      <stop offset="1" stop-color="#f6bc42" stop-opacity="0.22"/>
    </linearGradient>
  </defs>
  <rect width="800" height="420" fill="url(#bg)"/>
  <circle cx="610" cy="187" r="119" fill="#e46b4f" opacity="0.13"/>
  <circle cx="310" cy="77" r="70" fill="#f6bc42" opacity="0.16"/>
  <circle cx="405" cy="375" r="4" fill="#315be8" opacity="0.28"/><circle cx="98" cy="285" r="4" fill="#315be8" opacity="0.29000000000000004"/><circle cx="303" cy="211" r="4" fill="#315be8" opacity="0.71"/><circle cx="712" cy="122" r="4" fill="#315be8" opacity="0.72"/><circle cx="377" cy="146" r="4" fill="#315be8" opacity="0.63"/><circle cx="70" cy="57" r="4" fill="#315be8" opacity="0.64"/><circle cx="275" cy="324" r="4" fill="#315be8" opacity="0.6100000000000001"/><circle cx="684" cy="235" r="4" fill="#315be8" opacity="0.6200000000000001"/><circle cx="713" cy="62" r="4" fill="#315be8" opacity="0.65"/>
  <rect width="800" height="420" fill="#e46b4f"/><circle cx="422" cy="218" r="98" fill="#f6bc42"/><path d="M230 212c36 14 66-22 112-2" stroke="#8f3327" stroke-width="12" stroke-linecap="round" opacity=".36"/><circle cx="406" cy="232" r="64" fill="#315be8"/><circle cx="620" cy="276" r="32" fill="#fffaf4"/><path d="M176 324c140 46 308 54 476 0" stroke="#fff" stroke-width="5" fill="none" opacity=".38"/>
</svg>
