<svg xmlns="http://www.w3.org/2000/svg" viewBox="0 0 800 420" role="img" aria-label="Ilustracion propia de anatomia humana para esta pregunta">
  <defs>
    <linearGradient id="bg" x1="0" x2="1" y1="0" y2="1">
      <stop stop-color="#fff0f3"/>
      <stop offset="1" stop-color="#ffb99c" stop-opacity="0.22"/>
    </linearGradient>
  </defs>
  <rect width="800" height="420" fill="url(#bg)"/>
  <circle cx="139" cy="79" r="100" fill="#ffb99c" opacity="0.13"/>
  <circle cx="101" cy="135" r="78" fill="#ff4f6d" opacity="0.16"/>
  <circle cx="495" cy="271" r="4" fill="#15191d" opacity="0.56"/><circle cx="188" cy="182" r="4" fill="#15191d" opacity="0.5700000000000001"/><circle cx="597" cy="93" r="4" fill="#15191d" opacity="0.5800000000000001"/><circle cx="290" cy="346" r="4" fill="#15191d" opacity="0.5900000000000001"/><circle cx="699" cy="257" r="3" fill="#15191d" opacity="0.6000000000000001"/><circle cx="392" cy="168" r="3" fill="#15191d" opacity="0.6100000000000001"/><circle cx="85" cy="79" r="3" fill="#15191d" opacity="0.6200000000000001"/><circle cx="494" cy="331" r="3" fill="#15191d" opacity="0.63"/><circle cx="187" cy="242" r="3" fill="#15191d" opacity="0.64"/>
  <circle cx="400" cy="104" r="46" fill="#ff4f6d"/><path d="M322 352c10-122 28-184 78-184s68 62 78 184z" fill="#fffaf4" stroke="#15191d" stroke-width="8"/><path d="M400 168v184M330 230h140" stroke="#15191d" stroke-width="12" stroke-linecap="round" opacity=".72"/><path d="M316 208c-58 26-90 70-98 134M484 208c58 26 90 70 98 134" stroke="#15191d" stroke-width="18" stroke-linecap="round" opacity=".62"/>
</svg>
