<svg xmlns="http://www.w3.org/2000/svg" viewBox="0 0 800 420" role="img" aria-label="Ilustracion propia de espacio y planetas para esta pregunta">
  <defs>
    <linearGradient id="bg" x1="0" x2="1" y1="0" y2="1">
      <stop stop-color="#12171a"/>
      <stop offset="1" stop-color="#315be8" stop-opacity="0.22"/>
    </linearGradient>
  </defs>
  <rect width="800" height="420" fill="url(#bg)"/>
  <circle cx="310" cy="134" r="121" fill="#e46b4f" opacity="0.13"/>
  <circle cx="272" cy="249" r="71" fill="#f6bc42" opacity="0.16"/>
  <circle cx="602" cy="173" r="5" fill="#315be8" opacity="0.6000000000000001"/><circle cx="193" cy="262" r="5" fill="#315be8" opacity="0.5900000000000001"/><circle cx="500" cy="351" r="5" fill="#315be8" opacity="0.5800000000000001"/><circle cx="91" cy="98" r="5" fill="#315be8" opacity="0.5700000000000001"/><circle cx="398" cy="188" r="2" fill="#315be8" opacity="0.56"/><circle cx="705" cy="277" r="2" fill="#315be8" opacity="0.55"/><circle cx="296" cy="366" r="2" fill="#315be8" opacity="0.54"/><circle cx="603" cy="113" r="2" fill="#315be8" opacity="0.53"/><circle cx="194" cy="202" r="2" fill="#315be8" opacity="0.52"/>
  <rect width="800" height="420" fill="#e46b4f"/><circle cx="422" cy="218" r="98" fill="#f6bc42"/><path d="M230 212c36 14 66-22 112-2" stroke="#8f3327" stroke-width="12" stroke-linecap="round" opacity=".36"/><circle cx="406" cy="232" r="64" fill="#315be8"/><circle cx="620" cy="276" r="32" fill="#fffaf4"/><path d="M176 324c140 46 308 54 476 0" stroke="#fff" stroke-width="5" fill="none" opacity=".38"/>
</svg>
