<svg xmlns="http://www.w3.org/2000/svg" viewBox="0 0 800 420" role="img" aria-label="Ilustracion propia de oceano y olas para esta pregunta">
  <defs>
    <linearGradient id="bg" x1="0" x2="1" y1="0" y2="1">
      <stop stop-color="#dff8ff"/>
      <stop offset="1" stop-color="#dff8ff" stop-opacity="0.22"/>
    </linearGradient>
  </defs>
  <rect width="800" height="420" fill="url(#bg)"/>
  <circle cx="484" cy="116" r="76" fill="#12b7a6" opacity="0.13"/>
  <circle cx="369" cy="211" r="105" fill="#315be8" opacity="0.16"/>
  <circle cx="535" cy="280" r="4" fill="#fffaf4" opacity="0.66"/><circle cx="228" cy="191" r="4" fill="#fffaf4" opacity="0.67"/><circle cx="637" cy="102" r="4" fill="#fffaf4" opacity="0.68"/><circle cx="330" cy="354" r="4" fill="#fffaf4" opacity="0.69"/><circle cx="739" cy="265" r="4" fill="#fffaf4" opacity="0.7"/><circle cx="432" cy="176" r="4" fill="#fffaf4" opacity="0.71"/><circle cx="125" cy="87" r="4" fill="#fffaf4" opacity="0.72"/><circle cx="534" cy="340" r="4" fill="#fffaf4" opacity="0.28"/><circle cx="227" cy="251" r="4" fill="#fffaf4" opacity="0.29000000000000004"/>
  <path d="M0 240c88-42 144 42 232 0s144 42 232 0 144 42 232 0 144 42 232 0v180H0z" fill="#fff" opacity=".34"/><path d="M0 316c88-42 144 42 232 0s144 42 232 0 144 42 232 0 144 42 232 0" fill="none" stroke="#fff" stroke-width="18" opacity=".62"/><path d="M142 174c82-44 170-44 252 0" fill="none" stroke="#fff" stroke-width="10" opacity=".45" stroke-linecap="round"/>
</svg>
