<svg xmlns="http://www.w3.org/2000/svg" viewBox="0 0 800 420" role="img" aria-label="Ilustracion propia de historia y archivo para esta pregunta">
  <defs>
    <linearGradient id="bg" x1="0" x2="1" y1="0" y2="1">
      <stop stop-color="#fff4e4"/>
      <stop offset="1" stop-color="#15191d" stop-opacity="0.22"/>
    </linearGradient>
  </defs>
  <rect width="800" height="420" fill="url(#bg)"/>
  <circle cx="599" cy="88" r="102" fill="#15191d" opacity="0.13"/>
  <circle cx="233" cy="315" r="68" fill="#d9cec1" opacity="0.16"/>
  <circle cx="53" cy="207" r="4" fill="#f6bc42" opacity="0.41000000000000003"/><circle cx="462" cy="118" r="4" fill="#f6bc42" opacity="0.42000000000000004"/><circle cx="667" cy="43" r="4" fill="#f6bc42" opacity="0.39"/><circle cx="360" cy="296" r="4" fill="#f6bc42" opacity="0.4"/><circle cx="257" cy="192" r="4" fill="#f6bc42" opacity="0.45000000000000007"/><circle cx="666" cy="103" r="4" fill="#f6bc42" opacity="0.46"/><circle cx="155" cy="370" r="4" fill="#f6bc42" opacity="0.43000000000000005"/><circle cx="564" cy="281" r="4" fill="#f6bc42" opacity="0.44000000000000006"/><circle cx="361" cy="236" r="4" fill="#f6bc42" opacity="0.33"/>
  <rect x="184" y="130" width="220" height="210" rx="18" fill="#fffaf4" stroke="#f6bc42" stroke-width="5"/><rect x="218" y="172" width="152" height="12" rx="6" fill="#15191d" opacity=".2"/><rect x="218" y="212" width="120" height="12" rx="6" fill="#15191d" opacity=".2"/><path d="M470 170h210L575 94z" fill="#15191d"/><rect x="500" y="190" width="32" height="120" rx="6" fill="#15191d"/><rect x="560" y="190" width="32" height="120" rx="6" fill="#15191d"/><rect x="620" y="190" width="32" height="120" rx="6" fill="#15191d"/>
</svg>
