<svg xmlns="http://www.w3.org/2000/svg" viewBox="0 0 800 420" role="img" aria-label="Ilustracion propia de estadio y futbol generico para esta pregunta">
  <defs>
    <linearGradient id="bg" x1="0" x2="1" y1="0" y2="1">
      <stop stop-color="#eaf8f5"/>
      <stop offset="1" stop-color="#eaf8f5" stop-opacity="0.22"/>
    </linearGradient>
  </defs>
  <rect width="800" height="420" fill="url(#bg)"/>
  <circle cx="491" cy="338" r="128" fill="#26b99f" opacity="0.13"/>
  <circle cx="145" cy="203" r="82" fill="#f6bc42" opacity="0.16"/>
  <circle cx="426" cy="47" r="3" fill="#15191d" opacity="0.28"/><circle cx="733" cy="136" r="3" fill="#15191d" opacity="0.72"/><circle cx="324" cy="226" r="3" fill="#15191d" opacity="0.71"/><circle cx="631" cy="315" r="3" fill="#15191d" opacity="0.7"/><circle cx="222" cy="62" r="3" fill="#15191d" opacity="0.69"/><circle cx="529" cy="151" r="3" fill="#15191d" opacity="0.68"/><circle cx="120" cy="240" r="3" fill="#15191d" opacity="0.67"/><circle cx="427" cy="329" r="3" fill="#15191d" opacity="0.66"/><circle cx="118" cy="360" r="3" fill="#15191d" opacity="0.36000000000000004"/>
  <path d="M92 270c130-94 486-94 616 0v92H92z" fill="#26b99f" opacity=".9"/><path d="M150 270c102-54 398-54 500 0" fill="none" stroke="#fff" stroke-width="14" opacity=".64"/><rect x="165" y="304" width="470" height="62" rx="16" fill="#f6bc42"/><path d="M400 304v62M165 335h470" stroke="#fff" stroke-width="4" opacity=".65"/><path d="M400 86l18 45h48l-38 29 14 48-42-28-42 28 14-48-38-29h48z" fill="#15191d"/>
</svg>
