<svg xmlns="http://www.w3.org/2000/svg" viewBox="0 0 800 420" role="img" aria-label="Ilustracion propia de oceano y olas para esta pregunta">
  <defs>
    <linearGradient id="bg" x1="0" x2="1" y1="0" y2="1">
      <stop stop-color="#dff8ff"/>
      <stop offset="1" stop-color="#dff8ff" stop-opacity="0.22"/>
    </linearGradient>
  </defs>
  <rect width="800" height="420" fill="url(#bg)"/>
  <circle cx="649" cy="247" r="140" fill="#12b7a6" opacity="0.13"/>
  <circle cx="390" cy="335" r="83" fill="#315be8" opacity="0.16"/>
  <circle cx="391" cy="228" r="3" fill="#fffaf4" opacity="0.52"/><circle cx="84" cy="139" r="2" fill="#fffaf4" opacity="0.53"/><circle cx="493" cy="50" r="2" fill="#fffaf4" opacity="0.54"/><circle cx="186" cy="303" r="2" fill="#fffaf4" opacity="0.55"/><circle cx="595" cy="214" r="2" fill="#fffaf4" opacity="0.56"/><circle cx="288" cy="125" r="2" fill="#fffaf4" opacity="0.5700000000000001"/><circle cx="697" cy="36" r="2" fill="#fffaf4" opacity="0.5800000000000001"/><circle cx="390" cy="288" r="2" fill="#fffaf4" opacity="0.5900000000000001"/><circle cx="699" cy="258" r="3" fill="#fffaf4" opacity="0.44000000000000006"/>
  <path d="M0 240c88-42 144 42 232 0s144 42 232 0 144 42 232 0 144 42 232 0v180H0z" fill="#fff" opacity=".34"/><path d="M0 316c88-42 144 42 232 0s144 42 232 0 144 42 232 0 144 42 232 0" fill="none" stroke="#fff" stroke-width="18" opacity=".62"/><path d="M142 174c82-44 170-44 252 0" fill="none" stroke="#fff" stroke-width="10" opacity=".45" stroke-linecap="round"/>
</svg>
