<svg xmlns="http://www.w3.org/2000/svg" viewBox="0 0 800 420" role="img" aria-label="Ilustracion propia de historia y archivo para esta pregunta">
  <defs>
    <linearGradient id="bg" x1="0" x2="1" y1="0" y2="1">
      <stop stop-color="#fff4e4"/>
      <stop offset="1" stop-color="#15191d" stop-opacity="0.22"/>
    </linearGradient>
  </defs>
  <rect width="800" height="420" fill="url(#bg)"/>
  <circle cx="519" cy="88" r="64" fill="#15191d" opacity="0.13"/>
  <circle cx="298" cy="172" r="124" fill="#d9cec1" opacity="0.16"/>
  <circle cx="379" cy="103" r="4" fill="#f6bc42" opacity="0.5"/><circle cx="72" cy="356" r="4" fill="#f6bc42" opacity="0.51"/><circle cx="481" cy="267" r="4" fill="#f6bc42" opacity="0.52"/><circle cx="174" cy="177" r="3" fill="#f6bc42" opacity="0.53"/><circle cx="175" cy="117" r="4" fill="#f6bc42" opacity="0.46"/><circle cx="584" cy="370" r="4" fill="#f6bc42" opacity="0.47000000000000003"/><circle cx="277" cy="281" r="4" fill="#f6bc42" opacity="0.48000000000000004"/><circle cx="686" cy="192" r="4" fill="#f6bc42" opacity="0.49"/><circle cx="687" cy="132" r="4" fill="#f6bc42" opacity="0.42000000000000004"/>
  <rect x="184" y="130" width="220" height="210" rx="18" fill="#fffaf4" stroke="#f6bc42" stroke-width="5"/><rect x="218" y="172" width="152" height="12" rx="6" fill="#15191d" opacity=".2"/><rect x="218" y="212" width="120" height="12" rx="6" fill="#15191d" opacity=".2"/><path d="M470 170h210L575 94z" fill="#15191d"/><rect x="500" y="190" width="32" height="120" rx="6" fill="#15191d"/><rect x="560" y="190" width="32" height="120" rx="6" fill="#15191d"/><rect x="620" y="190" width="32" height="120" rx="6" fill="#15191d"/>
</svg>
