<svg xmlns="http://www.w3.org/2000/svg" viewBox="0 0 800 420" role="img" aria-label="Ilustracion propia de espacio y planetas para esta pregunta">
  <defs>
    <linearGradient id="bg" x1="0" x2="1" y1="0" y2="1">
      <stop stop-color="#12171a"/>
      <stop offset="1" stop-color="#12171a" stop-opacity="0.22"/>
    </linearGradient>
  </defs>
  <rect width="800" height="420" fill="url(#bg)"/>
  <circle cx="309" cy="157" r="90" fill="#e46b4f" opacity="0.13"/>
  <circle cx="647" cy="73" r="127" fill="#f6bc42" opacity="0.16"/>
  <circle cx="429" cy="362" r="4" fill="#315be8" opacity="0.37"/><circle cx="122" cy="273" r="4" fill="#315be8" opacity="0.38"/><circle cx="327" cy="198" r="4" fill="#315be8" opacity="0.35000000000000003"/><circle cx="736" cy="109" r="4" fill="#315be8" opacity="0.36000000000000004"/><circle cx="633" cy="347" r="4" fill="#315be8" opacity="0.41000000000000003"/><circle cx="326" cy="258" r="4" fill="#315be8" opacity="0.42000000000000004"/><circle cx="531" cy="183" r="4" fill="#315be8" opacity="0.39"/><circle cx="224" cy="94" r="4" fill="#315be8" opacity="0.4"/><circle cx="121" cy="332" r="4" fill="#315be8" opacity="0.45000000000000007"/>
  <rect width="800" height="420" fill="#e46b4f"/><circle cx="388" cy="218" r="91" fill="#f6bc42"/><path d="M230 212c36 14 66-22 112-2" stroke="#8f3327" stroke-width="12" stroke-linecap="round" opacity=".36"/><circle cx="432" cy="214" r="60" fill="#315be8"/><circle cx="600" cy="276" r="32" fill="#fffaf4"/><path d="M176 324c140 46 308 54 476 0" stroke="#fff" stroke-width="5" fill="none" opacity=".38"/>
</svg>
