<svg xmlns="http://www.w3.org/2000/svg" viewBox="0 0 800 420" role="img" aria-label="Ilustracion propia de espacio y planetas para esta pregunta">
  <defs>
    <linearGradient id="bg" x1="0" x2="1" y1="0" y2="1">
      <stop stop-color="#12171a"/>
      <stop offset="1" stop-color="#12171a" stop-opacity="0.22"/>
    </linearGradient>
  </defs>
  <rect width="800" height="420" fill="url(#bg)"/>
  <circle cx="283" cy="292" r="140" fill="#e46b4f" opacity="0.13"/>
  <circle cx="194" cy="269" r="123" fill="#f6bc42" opacity="0.16"/>
  <circle cx="73" cy="342" r="3" fill="#315be8" opacity="0.53"/><circle cx="482" cy="253" r="3" fill="#315be8" opacity="0.54"/><circle cx="687" cy="178" r="3" fill="#315be8" opacity="0.51"/><circle cx="380" cy="89" r="3" fill="#315be8" opacity="0.52"/><circle cx="585" cy="356" r="3" fill="#315be8" opacity="0.49"/><circle cx="278" cy="267" r="3" fill="#315be8" opacity="0.5"/><circle cx="483" cy="193" r="3" fill="#315be8" opacity="0.47000000000000003"/><circle cx="176" cy="104" r="3" fill="#315be8" opacity="0.48000000000000004"/><circle cx="249" cy="99" r="2" fill="#315be8" opacity="0.47000000000000003"/>
  <rect width="800" height="420" fill="#e46b4f"/><circle cx="354" cy="218" r="84" fill="#f6bc42"/><path d="M230 212c36 14 66-22 112-2" stroke="#8f3327" stroke-width="12" stroke-linecap="round" opacity=".36"/><circle cx="458" cy="196" r="56" fill="#315be8"/><circle cx="580" cy="276" r="32" fill="#fffaf4"/><path d="M176 324c140 46 308 54 476 0" stroke="#fff" stroke-width="5" fill="none" opacity=".38"/>
</svg>
