<svg xmlns="http://www.w3.org/2000/svg" viewBox="0 0 800 420" role="img" aria-label="Ilustracion propia de espacio y planetas para esta pregunta">
  <defs>
    <linearGradient id="bg" x1="0" x2="1" y1="0" y2="1">
      <stop stop-color="#12171a"/>
      <stop offset="1" stop-color="#e46b4f" stop-opacity="0.22"/>
    </linearGradient>
  </defs>
  <rect width="800" height="420" fill="url(#bg)"/>
  <circle cx="124" cy="142" r="142" fill="#e46b4f" opacity="0.13"/>
  <circle cx="624" cy="72" r="83" fill="#f6bc42" opacity="0.16"/>
  <circle cx="135" cy="167" r="3" fill="#315be8" opacity="0.69"/><circle cx="544" cy="77" r="3" fill="#315be8" opacity="0.7"/><circle cx="237" cy="330" r="3" fill="#315be8" opacity="0.71"/><circle cx="646" cy="241" r="3" fill="#315be8" opacity="0.72"/><circle cx="339" cy="152" r="3" fill="#315be8" opacity="0.28"/><circle cx="748" cy="63" r="3" fill="#315be8" opacity="0.29000000000000004"/><circle cx="441" cy="316" r="3" fill="#315be8" opacity="0.30000000000000004"/><circle cx="134" cy="227" r="3" fill="#315be8" opacity="0.31000000000000005"/><circle cx="543" cy="137" r="3" fill="#315be8" opacity="0.32"/>
  <rect width="800" height="420" fill="#e46b4f"/><circle cx="388" cy="218" r="91" fill="#f6bc42"/><path d="M230 212c36 14 66-22 112-2" stroke="#8f3327" stroke-width="12" stroke-linecap="round" opacity=".36"/><circle cx="432" cy="214" r="60" fill="#315be8"/><circle cx="600" cy="276" r="32" fill="#fffaf4"/><path d="M176 324c140 46 308 54 476 0" stroke="#fff" stroke-width="5" fill="none" opacity=".38"/>
</svg>
