<svg xmlns="http://www.w3.org/2000/svg" viewBox="0 0 800 420" role="img" aria-label="Ilustracion propia de laboratorio cientifico para esta pregunta">
  <defs>
    <linearGradient id="bg" x1="0" x2="1" y1="0" y2="1">
      <stop stop-color="#edf9ff"/>
      <stop offset="1" stop-color="#ff4f6d" stop-opacity="0.22"/>
    </linearGradient>
  </defs>
  <rect width="800" height="420" fill="url(#bg)"/>
  <circle cx="366" cy="71" r="65" fill="#fffaf4" opacity="0.13"/>
  <circle cx="429" cy="134" r="64" fill="#12b7a6" opacity="0.16"/>
  <circle cx="148" cy="218" r="3" fill="#ff4f6d" opacity="0.36000000000000004"/><circle cx="455" cy="307" r="3" fill="#ff4f6d" opacity="0.35000000000000003"/><circle cx="250" cy="40" r="3" fill="#ff4f6d" opacity="0.38"/><circle cx="557" cy="129" r="3" fill="#ff4f6d" opacity="0.37"/><circle cx="660" cy="233" r="3" fill="#ff4f6d" opacity="0.32"/><circle cx="251" cy="322" r="3" fill="#ff4f6d" opacity="0.31000000000000005"/><circle cx="46" cy="55" r="3" fill="#ff4f6d" opacity="0.34"/><circle cx="353" cy="144" r="3" fill="#ff4f6d" opacity="0.33"/><circle cx="556" cy="189" r="2" fill="#ff4f6d" opacity="0.44000000000000006"/>
  <path d="M350 74h116v28l-38 76v84c0 48-39 86-86 86h-8c-47 0-86-38-86-86v-84l-38-76V74h116z" fill="#12b7a6" stroke="#15191d" stroke-width="8"/><path d="M290 230h132v38c0 31-25 56-56 56h-20c-31 0-56-25-56-56z" fill="#ff4f6d" opacity=".85"/><circle cx="326" cy="250" r="12" fill="#fff"/><circle cx="380" cy="280" r="18" fill="#fff"/><path d="M528 118l68 118 68-118" fill="none" stroke="#fffaf4" stroke-width="15" stroke-linejoin="round"/>
</svg>
