<svg xmlns="http://www.w3.org/2000/svg" viewBox="0 0 800 420" role="img" aria-label="Ilustracion propia de naturaleza para esta pregunta">
  <defs>
    <linearGradient id="bg" x1="0" x2="1" y1="0" y2="1">
      <stop stop-color="#ecfbef"/>
      <stop offset="1" stop-color="#315be8" stop-opacity="0.22"/>
    </linearGradient>
  </defs>
  <rect width="800" height="420" fill="url(#bg)"/>
  <circle cx="205" cy="153" r="95" fill="#12b7a6" opacity="0.13"/>
  <circle cx="484" cy="180" r="117" fill="#315be8" opacity="0.16"/>
  <circle cx="668" cy="194" r="2" fill="#f6bc42" opacity="0.68"/><circle cx="259" cy="283" r="2" fill="#f6bc42" opacity="0.67"/><circle cx="54" cy="358" r="2" fill="#f6bc42" opacity="0.7"/><circle cx="361" cy="105" r="2" fill="#f6bc42" opacity="0.69"/><circle cx="464" cy="209" r="2" fill="#f6bc42" opacity="0.64"/><circle cx="55" cy="298" r="2" fill="#f6bc42" opacity="0.63"/><circle cx="566" cy="373" r="2" fill="#f6bc42" opacity="0.66"/><circle cx="157" cy="120" r="2" fill="#f6bc42" opacity="0.65"/><circle cx="260" cy="223" r="2" fill="#f6bc42" opacity="0.6000000000000001"/>
  <path d="M164 322c172-20 120-184 278-208 118-18 172 78 194 158-152 42-298 74-472 50z" fill="#315be8"/><path d="M214 300c138-68 244-104 390-118" stroke="#fff" stroke-width="14" stroke-linecap="round" opacity=".72"/><path d="M394 254c-28-52-20-104 24-156 72 30 102 82 84 150z" fill="#f6bc42" opacity=".88"/>
</svg>
