<svg xmlns="http://www.w3.org/2000/svg" viewBox="0 0 800 420" role="img" aria-label="Ilustracion propia de oceano y olas para esta pregunta">
  <defs>
    <linearGradient id="bg" x1="0" x2="1" y1="0" y2="1">
      <stop stop-color="#dff8ff"/>
      <stop offset="1" stop-color="#315be8" stop-opacity="0.22"/>
    </linearGradient>
  </defs>
  <rect width="800" height="420" fill="url(#bg)"/>
  <circle cx="533" cy="322" r="89" fill="#12b7a6" opacity="0.13"/>
  <circle cx="675" cy="201" r="117" fill="#315be8" opacity="0.16"/>
  <circle cx="234" cy="65" r="3" fill="#fffaf4" opacity="0.5800000000000001"/><circle cx="541" cy="154" r="3" fill="#fffaf4" opacity="0.5700000000000001"/><circle cx="132" cy="243" r="3" fill="#fffaf4" opacity="0.56"/><circle cx="439" cy="333" r="3" fill="#fffaf4" opacity="0.55"/><circle cx="746" cy="80" r="3" fill="#fffaf4" opacity="0.54"/><circle cx="337" cy="169" r="3" fill="#fffaf4" opacity="0.53"/><circle cx="644" cy="258" r="3" fill="#fffaf4" opacity="0.52"/><circle cx="235" cy="347" r="3" fill="#fffaf4" opacity="0.51"/><circle cx="542" cy="94" r="3" fill="#fffaf4" opacity="0.5"/>
  <path d="M0 240c88-42 144 42 232 0s144 42 232 0 144 42 232 0 144 42 232 0v180H0z" fill="#fff" opacity=".34"/><path d="M0 306c88-42 144 42 232 0s144 42 232 0 144 42 232 0 144 42 232 0" fill="none" stroke="#fff" stroke-width="18" opacity=".62"/><path d="M142 174c82-44 170-44 252 0" fill="none" stroke="#fff" stroke-width="10" opacity=".45" stroke-linecap="round"/>
</svg>
