<svg xmlns="http://www.w3.org/2000/svg" viewBox="0 0 800 420" role="img" aria-label="Ilustracion propia de naturaleza para esta pregunta">
  <defs>
    <linearGradient id="bg" x1="0" x2="1" y1="0" y2="1">
      <stop stop-color="#ecfbef"/>
      <stop offset="1" stop-color="#315be8" stop-opacity="0.22"/>
    </linearGradient>
  </defs>
  <rect width="800" height="420" fill="url(#bg)"/>
  <circle cx="137" cy="283" r="75" fill="#12b7a6" opacity="0.13"/>
  <circle cx="101" cy="161" r="105" fill="#315be8" opacity="0.16"/>
  <circle cx="345" cy="265" r="4" fill="#f6bc42" opacity="0.71"/><circle cx="754" cy="176" r="4" fill="#f6bc42" opacity="0.72"/><circle cx="243" cy="101" r="4" fill="#f6bc42" opacity="0.69"/><circle cx="652" cy="354" r="4" fill="#f6bc42" opacity="0.7"/><circle cx="549" cy="250" r="4" fill="#f6bc42" opacity="0.30000000000000004"/><circle cx="242" cy="161" r="4" fill="#f6bc42" opacity="0.31000000000000005"/><circle cx="447" cy="87" r="4" fill="#f6bc42" opacity="0.28"/><circle cx="140" cy="340" r="4" fill="#f6bc42" opacity="0.29000000000000004"/><circle cx="753" cy="236" r="4" fill="#f6bc42" opacity="0.34"/>
  <path d="M164 322c172-20 120-184 278-208 118-18 172 78 194 158-152 42-298 74-472 50z" fill="#315be8"/><path d="M214 300c138-68 244-104 390-118" stroke="#fff" stroke-width="14" stroke-linecap="round" opacity=".72"/><path d="M334 254c-28-52-20-104 24-156 72 30 102 82 84 150z" fill="#f6bc42" opacity=".88"/>
</svg>
