<svg xmlns="http://www.w3.org/2000/svg" viewBox="0 0 800 420" role="img" aria-label="Ilustracion propia de naturaleza para esta pregunta">
  <defs>
    <linearGradient id="bg" x1="0" x2="1" y1="0" y2="1">
      <stop stop-color="#ecfbef"/>
      <stop offset="1" stop-color="#ecfbef" stop-opacity="0.22"/>
    </linearGradient>
  </defs>
  <rect width="800" height="420" fill="url(#bg)"/>
  <circle cx="423" cy="90" r="108" fill="#12b7a6" opacity="0.13"/>
  <circle cx="136" cy="65" r="109" fill="#315be8" opacity="0.16"/>
  <circle cx="260" cy="47" r="2" fill="#f6bc42" opacity="0.46"/><circle cx="567" cy="136" r="2" fill="#f6bc42" opacity="0.45000000000000007"/><circle cx="362" cy="211" r="2" fill="#f6bc42" opacity="0.48000000000000004"/><circle cx="669" cy="300" r="2" fill="#f6bc42" opacity="0.47000000000000003"/><circle cx="56" cy="62" r="2" fill="#f6bc42" opacity="0.42000000000000004"/><circle cx="363" cy="151" r="2" fill="#f6bc42" opacity="0.41000000000000003"/><circle cx="158" cy="225" r="2" fill="#f6bc42" opacity="0.44000000000000006"/><circle cx="465" cy="315" r="2" fill="#f6bc42" opacity="0.43000000000000005"/><circle cx="568" cy="76" r="2" fill="#f6bc42" opacity="0.38"/>
  <path d="M164 322c172-20 120-184 278-208 118-18 172 78 194 158-152 42-298 74-472 50z" fill="#315be8"/><path d="M214 300c138-68 244-104 390-118" stroke="#fff" stroke-width="14" stroke-linecap="round" opacity=".72"/><path d="M354 254c-28-52-20-104 24-156 72 30 102 82 84 150z" fill="#f6bc42" opacity=".88"/>
</svg>
