<svg xmlns="http://www.w3.org/2000/svg" viewBox="0 0 800 420" role="img" aria-label="Ilustracion propia de laboratorio cientifico para esta pregunta">
  <defs>
    <linearGradient id="bg" x1="0" x2="1" y1="0" y2="1">
      <stop stop-color="#edf9ff"/>
      <stop offset="1" stop-color="#edf9ff" stop-opacity="0.22"/>
    </linearGradient>
  </defs>
  <rect width="800" height="420" fill="url(#bg)"/>
  <circle cx="444" cy="253" r="128" fill="#fffaf4" opacity="0.13"/>
  <circle cx="589" cy="85" r="92" fill="#12b7a6" opacity="0.16"/>
  <circle cx="141" cy="76" r="3" fill="#ff4f6d" opacity="0.64"/><circle cx="550" cy="329" r="3" fill="#ff4f6d" opacity="0.65"/><circle cx="755" cy="255" r="3" fill="#ff4f6d" opacity="0.6200000000000001"/><circle cx="448" cy="165" r="3" fill="#ff4f6d" opacity="0.63"/><circle cx="653" cy="91" r="3" fill="#ff4f6d" opacity="0.6000000000000001"/><circle cx="346" cy="344" r="3" fill="#ff4f6d" opacity="0.6100000000000001"/><circle cx="551" cy="269" r="3" fill="#ff4f6d" opacity="0.5800000000000001"/><circle cx="244" cy="180" r="3" fill="#ff4f6d" opacity="0.5900000000000001"/><circle cx="549" cy="47" r="2" fill="#ff4f6d" opacity="0.72"/>
  <path d="M380 74h116v28l-38 76v84c0 48-39 86-86 86h-8c-47 0-86-38-86-86v-84l-38-76V74h116z" fill="#12b7a6" stroke="#15191d" stroke-width="8"/><path d="M290 230h132v38c0 31-25 56-56 56h-20c-31 0-56-25-56-56z" fill="#ff4f6d" opacity=".85"/><circle cx="386" cy="250" r="12" fill="#fff"/><circle cx="326" cy="280" r="18" fill="#fff"/><path d="M528 118l68 118 68-118" fill="none" stroke="#fffaf4" stroke-width="15" stroke-linejoin="round"/>
</svg>
