<svg xmlns="http://www.w3.org/2000/svg" viewBox="0 0 800 420" role="img" aria-label="Ilustracion propia de naturaleza para esta pregunta">
  <defs>
    <linearGradient id="bg" x1="0" x2="1" y1="0" y2="1">
      <stop stop-color="#ecfbef"/>
      <stop offset="1" stop-color="#ecfbef" stop-opacity="0.22"/>
    </linearGradient>
  </defs>
  <rect width="800" height="420" fill="url(#bg)"/>
  <circle cx="161" cy="75" r="108" fill="#12b7a6" opacity="0.13"/>
  <circle cx="404" cy="135" r="99" fill="#315be8" opacity="0.16"/>
  <circle cx="345" cy="96" r="5" fill="#f6bc42" opacity="0.68"/><circle cx="754" cy="349" r="5" fill="#f6bc42" opacity="0.69"/><circle cx="243" cy="274" r="5" fill="#f6bc42" opacity="0.66"/><circle cx="652" cy="185" r="5" fill="#f6bc42" opacity="0.67"/><circle cx="141" cy="110" r="5" fill="#f6bc42" opacity="0.64"/><circle cx="550" cy="363" r="5" fill="#f6bc42" opacity="0.65"/><circle cx="755" cy="289" r="5" fill="#f6bc42" opacity="0.6200000000000001"/><circle cx="448" cy="199" r="5" fill="#f6bc42" opacity="0.63"/><circle cx="653" cy="125" r="5" fill="#f6bc42" opacity="0.6000000000000001"/>
  <path d="M164 322c172-20 120-184 278-208 118-18 172 78 194 158-152 42-298 74-472 50z" fill="#315be8"/><path d="M214 300c138-68 244-104 390-118" stroke="#fff" stroke-width="14" stroke-linecap="round" opacity=".72"/><path d="M314 254c-28-52-20-104 24-156 72 30 102 82 84 150z" fill="#f6bc42" opacity=".88"/>
</svg>
