<svg xmlns="http://www.w3.org/2000/svg" viewBox="0 0 800 420" role="img" aria-label="Ilustracion propia de naturaleza para esta pregunta">
  <defs>
    <linearGradient id="bg" x1="0" x2="1" y1="0" y2="1">
      <stop stop-color="#ecfbef"/>
      <stop offset="1" stop-color="#f6bc42" stop-opacity="0.22"/>
    </linearGradient>
  </defs>
  <rect width="800" height="420" fill="url(#bg)"/>
  <circle cx="542" cy="203" r="135" fill="#12b7a6" opacity="0.13"/>
  <circle cx="301" cy="258" r="102" fill="#315be8" opacity="0.16"/>
  <circle cx="81" cy="40" r="3" fill="#f6bc42" opacity="0.35000000000000003"/><circle cx="490" cy="293" r="3" fill="#f6bc42" opacity="0.36000000000000004"/><circle cx="695" cy="218" r="3" fill="#f6bc42" opacity="0.33"/><circle cx="388" cy="129" r="3" fill="#f6bc42" opacity="0.34"/><circle cx="593" cy="54" r="3" fill="#f6bc42" opacity="0.31000000000000005"/><circle cx="286" cy="307" r="3" fill="#f6bc42" opacity="0.32"/><circle cx="491" cy="233" r="3" fill="#f6bc42" opacity="0.29000000000000004"/><circle cx="184" cy="144" r="3" fill="#f6bc42" opacity="0.30000000000000004"/><circle cx="389" cy="69" r="3" fill="#f6bc42" opacity="0.72"/>
  <path d="M164 322c172-20 120-184 278-208 118-18 172 78 194 158-152 42-298 74-472 50z" fill="#315be8"/><path d="M214 300c138-68 244-104 390-118" stroke="#fff" stroke-width="14" stroke-linecap="round" opacity=".72"/><path d="M334 254c-28-52-20-104 24-156 72 30 102 82 84 150z" fill="#f6bc42" opacity=".88"/>
</svg>
