<svg xmlns="http://www.w3.org/2000/svg" viewBox="0 0 800 420" role="img" aria-label="Ilustracion propia de laboratorio cientifico para esta pregunta">
  <defs>
    <linearGradient id="bg" x1="0" x2="1" y1="0" y2="1">
      <stop stop-color="#edf9ff"/>
      <stop offset="1" stop-color="#edf9ff" stop-opacity="0.22"/>
    </linearGradient>
  </defs>
  <rect width="800" height="420" fill="url(#bg)"/>
  <circle cx="140" cy="298" r="88" fill="#fffaf4" opacity="0.13"/>
  <circle cx="626" cy="234" r="127" fill="#12b7a6" opacity="0.16"/>
  <circle cx="645" cy="280" r="5" fill="#ff4f6d" opacity="0.68"/><circle cx="338" cy="191" r="5" fill="#ff4f6d" opacity="0.69"/><circle cx="543" cy="116" r="5" fill="#ff4f6d" opacity="0.66"/><circle cx="236" cy="369" r="5" fill="#ff4f6d" opacity="0.67"/><circle cx="441" cy="295" r="5" fill="#ff4f6d" opacity="0.64"/><circle cx="134" cy="206" r="5" fill="#ff4f6d" opacity="0.65"/><circle cx="339" cy="131" r="5" fill="#ff4f6d" opacity="0.6200000000000001"/><circle cx="748" cy="42" r="5" fill="#ff4f6d" opacity="0.63"/><circle cx="237" cy="309" r="5" fill="#ff4f6d" opacity="0.6000000000000001"/>
  <path d="M390 74h116v28l-38 76v84c0 48-39 86-86 86h-8c-47 0-86-38-86-86v-84l-38-76V74h116z" fill="#12b7a6" stroke="#15191d" stroke-width="8"/><path d="M290 230h132v38c0 31-25 56-56 56h-20c-31 0-56-25-56-56z" fill="#ff4f6d" opacity=".85"/><circle cx="406" cy="250" r="12" fill="#fff"/><circle cx="308" cy="280" r="18" fill="#fff"/><path d="M528 118l68 118 68-118" fill="none" stroke="#fffaf4" stroke-width="15" stroke-linejoin="round"/>
</svg>
