<svg xmlns="http://www.w3.org/2000/svg" viewBox="0 0 800 420" role="img" aria-label="Ilustracion propia de arte y museo para esta pregunta">
  <defs>
    <linearGradient id="bg" x1="0" x2="1" y1="0" y2="1">
      <stop stop-color="#fff2df"/>
      <stop offset="1" stop-color="#12b7a6" stop-opacity="0.22"/>
    </linearGradient>
  </defs>
  <rect width="800" height="420" fill="url(#bg)"/>
  <circle cx="132" cy="325" r="81" fill="#6f4a2d" opacity="0.13"/>
  <circle cx="100" cy="94" r="96" fill="#12b7a6" opacity="0.16"/>
  <circle cx="120" cy="331" r="3" fill="#ff4f6d" opacity="0.6000000000000001"/><circle cx="427" cy="78" r="3" fill="#ff4f6d" opacity="0.5900000000000001"/><circle cx="222" cy="153" r="3" fill="#ff4f6d" opacity="0.6200000000000001"/><circle cx="529" cy="242" r="3" fill="#ff4f6d" opacity="0.6100000000000001"/><circle cx="324" cy="317" r="3" fill="#ff4f6d" opacity="0.64"/><circle cx="631" cy="64" r="3" fill="#ff4f6d" opacity="0.63"/><circle cx="426" cy="138" r="3" fill="#ff4f6d" opacity="0.66"/><circle cx="733" cy="227" r="3" fill="#ff4f6d" opacity="0.65"/><circle cx="528" cy="302" r="3" fill="#ff4f6d" opacity="0.68"/>
  <rect x="258" y="54" width="304" height="312" rx="24" fill="#6f4a2d"/><rect x="288" y="84" width="244" height="252" rx="16" fill="#d9c092"/><circle cx="410" cy="178" r="54" fill="#f0c7a5"/><path d="M340 318c12-82 42-120 70-120s58 38 70 120z" fill="#ff4f6d"/><path d="M354 154c36-72 116-46 122 10-36-18-74-18-122-10z" fill="#4a2d22"/>
</svg>
