<svg xmlns="http://www.w3.org/2000/svg" viewBox="0 0 800 420" role="img" aria-label="Ilustracion propia de naturaleza para esta pregunta">
  <defs>
    <linearGradient id="bg" x1="0" x2="1" y1="0" y2="1">
      <stop stop-color="#ecfbef"/>
      <stop offset="1" stop-color="#315be8" stop-opacity="0.22"/>
    </linearGradient>
  </defs>
  <rect width="800" height="420" fill="url(#bg)"/>
  <circle cx="117" cy="135" r="89" fill="#12b7a6" opacity="0.13"/>
  <circle cx="548" cy="285" r="87" fill="#315be8" opacity="0.16"/>
  <circle cx="506" cy="238" r="3" fill="#f6bc42" opacity="0.68"/><circle cx="97" cy="327" r="3" fill="#f6bc42" opacity="0.67"/><circle cx="404" cy="74" r="3" fill="#f6bc42" opacity="0.66"/><circle cx="711" cy="163" r="3" fill="#f6bc42" opacity="0.65"/><circle cx="302" cy="252" r="3" fill="#f6bc42" opacity="0.64"/><circle cx="609" cy="341" r="3" fill="#f6bc42" opacity="0.63"/><circle cx="200" cy="89" r="3" fill="#f6bc42" opacity="0.6200000000000001"/><circle cx="507" cy="178" r="3" fill="#f6bc42" opacity="0.6100000000000001"/><circle cx="98" cy="267" r="3" fill="#f6bc42" opacity="0.6000000000000001"/>
  <path d="M164 322c172-20 120-184 278-208 118-18 172 78 194 158-152 42-298 74-472 50z" fill="#315be8"/><path d="M214 300c138-68 244-104 390-118" stroke="#fff" stroke-width="14" stroke-linecap="round" opacity=".72"/><path d="M334 254c-28-52-20-104 24-156 72 30 102 82 84 150z" fill="#f6bc42" opacity=".88"/>
</svg>
