<svg xmlns="http://www.w3.org/2000/svg" viewBox="0 0 800 420" role="img" aria-label="Ilustracion propia de naturaleza para esta pregunta">
  <defs>
    <linearGradient id="bg" x1="0" x2="1" y1="0" y2="1">
      <stop stop-color="#ecfbef"/>
      <stop offset="1" stop-color="#12b7a6" stop-opacity="0.22"/>
    </linearGradient>
  </defs>
  <rect width="800" height="420" fill="url(#bg)"/>
  <circle cx="304" cy="255" r="74" fill="#12b7a6" opacity="0.13"/>
  <circle cx="197" cy="229" r="75" fill="#315be8" opacity="0.16"/>
  <circle cx="735" cy="77" r="5" fill="#f6bc42" opacity="0.7"/><circle cx="428" cy="330" r="5" fill="#f6bc42" opacity="0.71"/><circle cx="121" cy="241" r="5" fill="#f6bc42" opacity="0.72"/><circle cx="530" cy="152" r="5" fill="#f6bc42" opacity="0.28"/><circle cx="223" cy="63" r="5" fill="#f6bc42" opacity="0.29000000000000004"/><circle cx="632" cy="315" r="5" fill="#f6bc42" opacity="0.30000000000000004"/><circle cx="325" cy="226" r="5" fill="#f6bc42" opacity="0.31000000000000005"/><circle cx="734" cy="137" r="5" fill="#f6bc42" opacity="0.32"/><circle cx="427" cy="48" r="5" fill="#f6bc42" opacity="0.33"/>
  <path d="M164 322c172-20 120-184 278-208 118-18 172 78 194 158-152 42-298 74-472 50z" fill="#315be8"/><path d="M214 300c138-68 244-104 390-118" stroke="#fff" stroke-width="14" stroke-linecap="round" opacity=".72"/><path d="M374 254c-28-52-20-104 24-156 72 30 102 82 84 150z" fill="#f6bc42" opacity=".88"/>
</svg>
