<svg xmlns="http://www.w3.org/2000/svg" viewBox="0 0 800 420" role="img" aria-label="Ilustracion propia de laboratorio cientifico para esta pregunta">
  <defs>
    <linearGradient id="bg" x1="0" x2="1" y1="0" y2="1">
      <stop stop-color="#edf9ff"/>
      <stop offset="1" stop-color="#edf9ff" stop-opacity="0.22"/>
    </linearGradient>
  </defs>
  <rect width="800" height="420" fill="url(#bg)"/>
  <circle cx="609" cy="247" r="72" fill="#fffaf4" opacity="0.13"/>
  <circle cx="535" cy="299" r="115" fill="#12b7a6" opacity="0.16"/>
  <circle cx="81" cy="185" r="3" fill="#ff4f6d" opacity="0.53"/><circle cx="490" cy="95" r="3" fill="#ff4f6d" opacity="0.54"/><circle cx="695" cy="363" r="3" fill="#ff4f6d" opacity="0.51"/><circle cx="388" cy="274" r="3" fill="#ff4f6d" opacity="0.52"/><circle cx="285" cy="170" r="3" fill="#ff4f6d" opacity="0.5700000000000001"/><circle cx="694" cy="81" r="3" fill="#ff4f6d" opacity="0.5800000000000001"/><circle cx="183" cy="348" r="3" fill="#ff4f6d" opacity="0.55"/><circle cx="592" cy="259" r="3" fill="#ff4f6d" opacity="0.56"/><circle cx="389" cy="214" r="3" fill="#ff4f6d" opacity="0.45000000000000007"/>
  <path d="M380 74h116v28l-38 76v84c0 48-39 86-86 86h-8c-47 0-86-38-86-86v-84l-38-76V74h116z" fill="#12b7a6" stroke="#15191d" stroke-width="8"/><path d="M290 230h132v38c0 31-25 56-56 56h-20c-31 0-56-25-56-56z" fill="#ff4f6d" opacity=".85"/><circle cx="386" cy="250" r="12" fill="#fff"/><circle cx="326" cy="280" r="18" fill="#fff"/><path d="M528 118l68 118 68-118" fill="none" stroke="#fffaf4" stroke-width="15" stroke-linejoin="round"/>
</svg>
