<svg xmlns="http://www.w3.org/2000/svg" viewBox="0 0 800 420" role="img" aria-label="Ilustracion propia de oceano y olas para esta pregunta">
  <defs>
    <linearGradient id="bg" x1="0" x2="1" y1="0" y2="1">
      <stop stop-color="#dff8ff"/>
      <stop offset="1" stop-color="#dff8ff" stop-opacity="0.22"/>
    </linearGradient>
  </defs>
  <rect width="800" height="420" fill="url(#bg)"/>
  <circle cx="298" cy="172" r="68" fill="#12b7a6" opacity="0.13"/>
  <circle cx="346" cy="75" r="74" fill="#315be8" opacity="0.16"/>
  <circle cx="672" cy="269" r="2" fill="#fffaf4" opacity="0.35000000000000003"/><circle cx="263" cy="358" r="2" fill="#fffaf4" opacity="0.34"/><circle cx="58" cy="91" r="2" fill="#fffaf4" opacity="0.37"/><circle cx="365" cy="180" r="2" fill="#fffaf4" opacity="0.36000000000000004"/><circle cx="644" cy="41" r="2" fill="#fffaf4" opacity="0.7"/><circle cx="235" cy="130" r="2" fill="#fffaf4" opacity="0.69"/><circle cx="746" cy="204" r="5" fill="#fffaf4" opacity="0.72"/><circle cx="337" cy="293" r="5" fill="#fffaf4" opacity="0.71"/><circle cx="132" cy="368" r="5" fill="#fffaf4" opacity="0.29000000000000004"/>
  <path d="M0 240c88-42 144 42 232 0s144 42 232 0 144 42 232 0 144 42 232 0v180H0z" fill="#fff" opacity=".34"/><path d="M0 306c88-42 144 42 232 0s144 42 232 0 144 42 232 0 144 42 232 0" fill="none" stroke="#fff" stroke-width="18" opacity=".62"/><path d="M142 174c82-44 170-44 252 0" fill="none" stroke="#fff" stroke-width="10" opacity=".45" stroke-linecap="round"/>
</svg>
