<svg xmlns="http://www.w3.org/2000/svg" viewBox="0 0 800 420" role="img" aria-label="Ilustracion propia de oceano y olas para esta pregunta">
  <defs>
    <linearGradient id="bg" x1="0" x2="1" y1="0" y2="1">
      <stop stop-color="#dff8ff"/>
      <stop offset="1" stop-color="#fffaf4" stop-opacity="0.22"/>
    </linearGradient>
  </defs>
  <rect width="800" height="420" fill="url(#bg)"/>
  <circle cx="278" cy="187" r="127" fill="#12b7a6" opacity="0.13"/>
  <circle cx="268" cy="292" r="121" fill="#315be8" opacity="0.16"/>
  <circle cx="328" cy="144" r="2" fill="#fffaf4" opacity="0.42000000000000004"/><circle cx="635" cy="233" r="2" fill="#fffaf4" opacity="0.41000000000000003"/><circle cx="430" cy="308" r="2" fill="#fffaf4" opacity="0.44000000000000006"/><circle cx="737" cy="55" r="2" fill="#fffaf4" opacity="0.43000000000000005"/><circle cx="532" cy="129" r="2" fill="#fffaf4" opacity="0.46"/><circle cx="123" cy="218" r="2" fill="#fffaf4" opacity="0.45000000000000007"/><circle cx="634" cy="293" r="2" fill="#fffaf4" opacity="0.48000000000000004"/><circle cx="225" cy="40" r="2" fill="#fffaf4" opacity="0.47000000000000003"/><circle cx="152" cy="45" r="2" fill="#fffaf4" opacity="0.48000000000000004"/>
  <path d="M0 240c88-42 144 42 232 0s144 42 232 0 144 42 232 0 144 42 232 0v180H0z" fill="#fff" opacity=".34"/><path d="M0 306c88-42 144 42 232 0s144 42 232 0 144 42 232 0 144 42 232 0" fill="none" stroke="#fff" stroke-width="18" opacity=".62"/><path d="M142 174c82-44 170-44 252 0" fill="none" stroke="#fff" stroke-width="10" opacity=".45" stroke-linecap="round"/>
</svg>
