<svg xmlns="http://www.w3.org/2000/svg" viewBox="0 0 800 420" role="img" aria-label="Ilustracion propia de laboratorio cientifico para esta pregunta">
  <defs>
    <linearGradient id="bg" x1="0" x2="1" y1="0" y2="1">
      <stop stop-color="#edf9ff"/>
      <stop offset="1" stop-color="#12b7a6" stop-opacity="0.22"/>
    </linearGradient>
  </defs>
  <rect width="800" height="420" fill="url(#bg)"/>
  <circle cx="539" cy="248" r="127" fill="#fffaf4" opacity="0.13"/>
  <circle cx="451" cy="335" r="91" fill="#12b7a6" opacity="0.16"/>
  <circle cx="345" cy="370" r="4" fill="#ff4f6d" opacity="0.6200000000000001"/><circle cx="754" cy="281" r="3" fill="#ff4f6d" opacity="0.63"/><circle cx="243" cy="206" r="4" fill="#ff4f6d" opacity="0.6000000000000001"/><circle cx="652" cy="117" r="4" fill="#ff4f6d" opacity="0.6100000000000001"/><circle cx="549" cy="355" r="3" fill="#ff4f6d" opacity="0.66"/><circle cx="242" cy="266" r="3" fill="#ff4f6d" opacity="0.67"/><circle cx="447" cy="191" r="3" fill="#ff4f6d" opacity="0.64"/><circle cx="140" cy="102" r="3" fill="#ff4f6d" opacity="0.65"/><circle cx="753" cy="340" r="3" fill="#ff4f6d" opacity="0.7"/>
  <path d="M380 74h116v28l-38 76v84c0 48-39 86-86 86h-8c-47 0-86-38-86-86v-84l-38-76V74h116z" fill="#12b7a6" stroke="#15191d" stroke-width="8"/><path d="M290 230h132v38c0 31-25 56-56 56h-20c-31 0-56-25-56-56z" fill="#ff4f6d" opacity=".85"/><circle cx="386" cy="250" r="12" fill="#fff"/><circle cx="326" cy="280" r="18" fill="#fff"/><path d="M528 118l68 118 68-118" fill="none" stroke="#fffaf4" stroke-width="15" stroke-linejoin="round"/>
</svg>
