<svg xmlns="http://www.w3.org/2000/svg" viewBox="0 0 800 420" role="img" aria-label="Ilustracion propia de naturaleza para esta pregunta">
  <defs>
    <linearGradient id="bg" x1="0" x2="1" y1="0" y2="1">
      <stop stop-color="#ecfbef"/>
      <stop offset="1" stop-color="#315be8" stop-opacity="0.22"/>
    </linearGradient>
  </defs>
  <rect width="800" height="420" fill="url(#bg)"/>
  <circle cx="653" cy="174" r="121" fill="#12b7a6" opacity="0.13"/>
  <circle cx="315" cy="183" r="91" fill="#315be8" opacity="0.16"/>
  <circle cx="373" cy="220" r="5" fill="#f6bc42" opacity="0.56"/><circle cx="66" cy="131" r="5" fill="#f6bc42" opacity="0.5700000000000001"/><circle cx="271" cy="56" r="5" fill="#f6bc42" opacity="0.54"/><circle cx="680" cy="309" r="5" fill="#f6bc42" opacity="0.55"/><circle cx="169" cy="235" r="5" fill="#f6bc42" opacity="0.52"/><circle cx="578" cy="146" r="5" fill="#f6bc42" opacity="0.53"/><circle cx="67" cy="71" r="5" fill="#f6bc42" opacity="0.5"/><circle cx="476" cy="324" r="5" fill="#f6bc42" opacity="0.51"/><circle cx="681" cy="249" r="5" fill="#f6bc42" opacity="0.48000000000000004"/>
  <path d="M164 322c172-20 120-184 278-208 118-18 172 78 194 158-152 42-298 74-472 50z" fill="#315be8"/><path d="M214 300c138-68 244-104 390-118" stroke="#fff" stroke-width="14" stroke-linecap="round" opacity=".72"/><path d="M354 254c-28-52-20-104 24-156 72 30 102 82 84 150z" fill="#f6bc42" opacity=".88"/>
</svg>
