<svg xmlns="http://www.w3.org/2000/svg" viewBox="0 0 800 420" role="img" aria-label="Ilustracion propia de oceano y olas para esta pregunta">
  <defs>
    <linearGradient id="bg" x1="0" x2="1" y1="0" y2="1">
      <stop stop-color="#dff8ff"/>
      <stop offset="1" stop-color="#315be8" stop-opacity="0.22"/>
    </linearGradient>
  </defs>
  <rect width="800" height="420" fill="url(#bg)"/>
  <circle cx="677" cy="218" r="89" fill="#12b7a6" opacity="0.13"/>
  <circle cx="168" cy="153" r="97" fill="#315be8" opacity="0.16"/>
  <circle cx="652" cy="247" r="5" fill="#fffaf4" opacity="0.6200000000000001"/><circle cx="243" cy="336" r="5" fill="#fffaf4" opacity="0.6100000000000001"/><circle cx="754" cy="68" r="4" fill="#fffaf4" opacity="0.64"/><circle cx="345" cy="158" r="5" fill="#fffaf4" opacity="0.63"/><circle cx="140" cy="232" r="4" fill="#fffaf4" opacity="0.66"/><circle cx="447" cy="321" r="4" fill="#fffaf4" opacity="0.65"/><circle cx="242" cy="54" r="4" fill="#fffaf4" opacity="0.68"/><circle cx="549" cy="143" r="4" fill="#fffaf4" opacity="0.67"/><circle cx="344" cy="218" r="4" fill="#fffaf4" opacity="0.7"/>
  <path d="M0 240c88-42 144 42 232 0s144 42 232 0 144 42 232 0 144 42 232 0v180H0z" fill="#fff" opacity=".34"/><path d="M0 296c88-42 144 42 232 0s144 42 232 0 144 42 232 0 144 42 232 0" fill="none" stroke="#fff" stroke-width="18" opacity=".62"/><path d="M142 174c82-44 170-44 252 0" fill="none" stroke="#fff" stroke-width="10" opacity=".45" stroke-linecap="round"/>
</svg>
