<svg xmlns="http://www.w3.org/2000/svg" viewBox="0 0 800 420" role="img" aria-label="Ilustracion propia de oceano y olas para esta pregunta">
  <defs>
    <linearGradient id="bg" x1="0" x2="1" y1="0" y2="1">
      <stop stop-color="#dff8ff"/>
      <stop offset="1" stop-color="#dff8ff" stop-opacity="0.22"/>
    </linearGradient>
  </defs>
  <rect width="800" height="420" fill="url(#bg)"/>
  <circle cx="361" cy="313" r="88" fill="#12b7a6" opacity="0.13"/>
  <circle cx="429" cy="307" r="127" fill="#315be8" opacity="0.16"/>
  <circle cx="206" cy="263" r="4" fill="#fffaf4" opacity="0.5800000000000001"/><circle cx="513" cy="353" r="4" fill="#fffaf4" opacity="0.5700000000000001"/><circle cx="104" cy="100" r="4" fill="#fffaf4" opacity="0.56"/><circle cx="411" cy="189" r="4" fill="#fffaf4" opacity="0.55"/><circle cx="410" cy="249" r="4" fill="#fffaf4" opacity="0.6200000000000001"/><circle cx="717" cy="338" r="4" fill="#fffaf4" opacity="0.6100000000000001"/><circle cx="308" cy="85" r="4" fill="#fffaf4" opacity="0.6000000000000001"/><circle cx="615" cy="174" r="4" fill="#fffaf4" opacity="0.5900000000000001"/><circle cx="614" cy="234" r="4" fill="#fffaf4" opacity="0.66"/>
  <path d="M0 240c88-42 144 42 232 0s144 42 232 0 144 42 232 0 144 42 232 0v180H0z" fill="#fff" opacity=".34"/><path d="M0 286c88-42 144 42 232 0s144 42 232 0 144 42 232 0 144 42 232 0" fill="none" stroke="#fff" stroke-width="18" opacity=".62"/><path d="M142 174c82-44 170-44 252 0" fill="none" stroke="#fff" stroke-width="10" opacity=".45" stroke-linecap="round"/>
</svg>
