<svg xmlns="http://www.w3.org/2000/svg" viewBox="0 0 800 420" role="img" aria-label="Ilustracion propia de estadio y futbol generico para esta pregunta">
  <defs>
    <linearGradient id="bg" x1="0" x2="1" y1="0" y2="1">
      <stop stop-color="#eaf8f5"/>
      <stop offset="1" stop-color="#f6bc42" stop-opacity="0.22"/>
    </linearGradient>
  </defs>
  <rect width="800" height="420" fill="url(#bg)"/>
  <circle cx="259" cy="191" r="135" fill="#26b99f" opacity="0.13"/>
  <circle cx="566" cy="292" r="82" fill="#f6bc42" opacity="0.16"/>
  <circle cx="640" cy="149" r="4" fill="#15191d" opacity="0.39"/><circle cx="231" cy="239" r="4" fill="#15191d" opacity="0.38"/><circle cx="742" cy="313" r="4" fill="#15191d" opacity="0.41000000000000003"/><circle cx="333" cy="60" r="4" fill="#15191d" opacity="0.4"/><circle cx="436" cy="164" r="5" fill="#15191d" opacity="0.35000000000000003"/><circle cx="743" cy="253" r="5" fill="#15191d" opacity="0.34"/><circle cx="538" cy="328" r="5" fill="#15191d" opacity="0.37"/><circle cx="129" cy="75" r="5" fill="#15191d" opacity="0.36000000000000004"/><circle cx="232" cy="179" r="5" fill="#15191d" opacity="0.31000000000000005"/>
  <path d="M92 270c130-94 486-94 616 0v92H92z" fill="#26b99f" opacity=".9"/><path d="M150 270c102-54 398-54 500 0" fill="none" stroke="#fff" stroke-width="14" opacity=".64"/><rect x="165" y="304" width="470" height="62" rx="16" fill="#f6bc42"/><path d="M400 304v62M165 335h470" stroke="#fff" stroke-width="4" opacity=".65"/><path d="M400 104l18 45h48l-38 29 14 48-42-28-42 28 14-48-38-29h48z" fill="#15191d"/>
</svg>
