<svg xmlns="http://www.w3.org/2000/svg" viewBox="0 0 800 420" role="img" aria-label="Ilustracion propia de circuito de velocidad para esta pregunta">
  <defs>
    <linearGradient id="bg" x1="0" x2="1" y1="0" y2="1">
      <stop stop-color="#e7f8ff"/>
      <stop offset="1" stop-color="#15191d" stop-opacity="0.22"/>
    </linearGradient>
  </defs>
  <rect width="800" height="420" fill="url(#bg)"/>
  <circle cx="558" cy="109" r="128" fill="#15191d" opacity="0.13"/>
  <circle cx="303" cy="210" r="142" fill="#ff4f6d" opacity="0.16"/>
  <circle cx="419" cy="258" r="5" fill="#315be8" opacity="0.69"/><circle cx="112" cy="169" r="5" fill="#315be8" opacity="0.7"/><circle cx="521" cy="80" r="5" fill="#315be8" opacity="0.71"/><circle cx="214" cy="333" r="5" fill="#315be8" opacity="0.72"/><circle cx="623" cy="244" r="5" fill="#315be8" opacity="0.28"/><circle cx="316" cy="155" r="5" fill="#315be8" opacity="0.29000000000000004"/><circle cx="725" cy="65" r="5" fill="#315be8" opacity="0.30000000000000004"/><circle cx="418" cy="318" r="5" fill="#315be8" opacity="0.31000000000000005"/><circle cx="727" cy="287" r="5" fill="#315be8" opacity="0.6100000000000001"/>
  <path d="M98 300c110-170 248-42 350-120 60-46 118-84 210-28 66 40 54 132-26 152-96 24-160-50-246-24-100 30-152 94-288 20z" fill="none" stroke="#15191d" stroke-width="46" stroke-linecap="round"/><path d="M98 300c110-170 248-42 350-120 60-46 118-84 210-28 66 40 54 132-26 152-96 24-160-50-246-24-100 30-152 94-288 20z" fill="none" stroke="#fff" stroke-width="7" stroke-dasharray="24 22" stroke-linecap="round"/><rect x="328" y="250" width="150" height="42" rx="18" fill="#315be8"/><path d="M356 250l34-34h52l24 34z" fill="#fffaf4"/>
</svg>
