<svg xmlns="http://www.w3.org/2000/svg" viewBox="0 0 800 420" role="img" aria-label="Ilustracion propia de circuito de velocidad para esta pregunta">
  <defs>
    <linearGradient id="bg" x1="0" x2="1" y1="0" y2="1">
      <stop stop-color="#e7f8ff"/>
      <stop offset="1" stop-color="#15191d" stop-opacity="0.22"/>
    </linearGradient>
  </defs>
  <rect width="800" height="420" fill="url(#bg)"/>
  <circle cx="300" cy="82" r="82" fill="#15191d" opacity="0.13"/>
  <circle cx="571" cy="314" r="66" fill="#ff4f6d" opacity="0.16"/>
  <circle cx="503" cy="149" r="2" fill="#315be8" opacity="0.5700000000000001"/><circle cx="196" cy="60" r="2" fill="#315be8" opacity="0.5800000000000001"/><circle cx="605" cy="313" r="2" fill="#315be8" opacity="0.5900000000000001"/><circle cx="298" cy="224" r="2" fill="#315be8" opacity="0.6000000000000001"/><circle cx="299" cy="164" r="2" fill="#315be8" opacity="0.53"/><circle cx="708" cy="75" r="2" fill="#315be8" opacity="0.54"/><circle cx="401" cy="327" r="2" fill="#315be8" opacity="0.55"/><circle cx="94" cy="238" r="2" fill="#315be8" opacity="0.56"/><circle cx="95" cy="178" r="2" fill="#315be8" opacity="0.49"/>
  <path d="M98 300c110-170 248-42 350-120 60-46 118-84 210-28 66 40 54 132-26 152-96 24-160-50-246-24-100 30-152 94-288 20z" fill="none" stroke="#15191d" stroke-width="52" stroke-linecap="round"/><path d="M98 300c110-170 248-42 350-120 60-46 118-84 210-28 66 40 54 132-26 152-96 24-160-50-246-24-100 30-152 94-288 20z" fill="none" stroke="#fff" stroke-width="7" stroke-dasharray="24 22" stroke-linecap="round"/><rect x="376" y="250" width="150" height="42" rx="18" fill="#315be8"/><path d="M404 250l34-34h52l24 34z" fill="#fffaf4"/>
</svg>
