<svg xmlns="http://www.w3.org/2000/svg" viewBox="0 0 800 420" role="img" aria-label="Ilustracion propia de espacio y planetas para esta pregunta">
  <defs>
    <linearGradient id="bg" x1="0" x2="1" y1="0" y2="1">
      <stop stop-color="#12171a"/>
      <stop offset="1" stop-color="#e46b4f" stop-opacity="0.22"/>
    </linearGradient>
  </defs>
  <rect width="800" height="420" fill="url(#bg)"/>
  <circle cx="512" cy="74" r="118" fill="#e46b4f" opacity="0.13"/>
  <circle cx="523" cy="242" r="140" fill="#f6bc42" opacity="0.16"/>
  <circle cx="129" cy="367" r="2" fill="#315be8" opacity="0.31000000000000005"/><circle cx="538" cy="278" r="2" fill="#315be8" opacity="0.32"/><circle cx="743" cy="204" r="2" fill="#315be8" opacity="0.29000000000000004"/><circle cx="436" cy="115" r="2" fill="#315be8" opacity="0.30000000000000004"/><circle cx="641" cy="40" r="2" fill="#315be8" opacity="0.72"/><circle cx="334" cy="293" r="2" fill="#315be8" opacity="0.28"/><circle cx="539" cy="218" r="2" fill="#315be8" opacity="0.7"/><circle cx="232" cy="129" r="2" fill="#315be8" opacity="0.71"/><circle cx="437" cy="55" r="2" fill="#315be8" opacity="0.68"/>
  <rect width="800" height="420" fill="#e46b4f"/><circle cx="320" cy="218" r="77" fill="#f6bc42"/><path d="M230 212c36 14 66-22 112-2" stroke="#8f3327" stroke-width="12" stroke-linecap="round" opacity=".36"/><circle cx="484" cy="178" r="52" fill="#315be8"/><circle cx="560" cy="276" r="32" fill="#fffaf4"/><path d="M176 324c140 46 308 54 476 0" stroke="#fff" stroke-width="5" fill="none" opacity=".38"/>
</svg>
