<svg xmlns="http://www.w3.org/2000/svg" viewBox="0 0 800 420" role="img" aria-label="Ilustracion propia de oceano y olas para esta pregunta">
  <defs>
    <linearGradient id="bg" x1="0" x2="1" y1="0" y2="1">
      <stop stop-color="#dff8ff"/>
      <stop offset="1" stop-color="#12b7a6" stop-opacity="0.22"/>
    </linearGradient>
  </defs>
  <rect width="800" height="420" fill="url(#bg)"/>
  <circle cx="447" cy="282" r="106" fill="#12b7a6" opacity="0.13"/>
  <circle cx="289" cy="161" r="109" fill="#315be8" opacity="0.16"/>
  <circle cx="621" cy="137" r="5" fill="#fffaf4" opacity="0.4"/><circle cx="314" cy="48" r="5" fill="#fffaf4" opacity="0.41000000000000003"/><circle cx="519" cy="315" r="5" fill="#fffaf4" opacity="0.38"/><circle cx="212" cy="226" r="5" fill="#fffaf4" opacity="0.39"/><circle cx="417" cy="151" r="5" fill="#fffaf4" opacity="0.36000000000000004"/><circle cx="110" cy="62" r="5" fill="#fffaf4" opacity="0.37"/><circle cx="315" cy="330" r="2" fill="#fffaf4" opacity="0.34"/><circle cx="724" cy="241" r="5" fill="#fffaf4" opacity="0.35000000000000003"/><circle cx="213" cy="166" r="2" fill="#fffaf4" opacity="0.32"/>
  <path d="M0 240c88-42 144 42 232 0s144 42 232 0 144 42 232 0 144 42 232 0v180H0z" fill="#fff" opacity=".34"/><path d="M0 296c88-42 144 42 232 0s144 42 232 0 144 42 232 0 144 42 232 0" fill="none" stroke="#fff" stroke-width="18" opacity=".62"/><path d="M142 174c82-44 170-44 252 0" fill="none" stroke="#fff" stroke-width="10" opacity=".45" stroke-linecap="round"/>
</svg>
