<svg xmlns="http://www.w3.org/2000/svg" viewBox="0 0 800 420" role="img" aria-label="Ilustracion propia de mapa y geografia para esta pregunta">
  <defs>
    <linearGradient id="bg" x1="0" x2="1" y1="0" y2="1">
      <stop stop-color="#eaf9f6"/>
      <stop offset="1" stop-color="#ff4f6d" stop-opacity="0.22"/>
    </linearGradient>
  </defs>
  <rect width="800" height="420" fill="url(#bg)"/>
  <circle cx="512" cy="298" r="81" fill="#fffaf4" opacity="0.13"/>
  <circle cx="673" cy="234" r="116" fill="#12b7a6" opacity="0.16"/>
  <circle cx="569" cy="217" r="4" fill="#ff4f6d" opacity="0.45000000000000007"/><circle cx="262" cy="128" r="3" fill="#ff4f6d" opacity="0.46"/><circle cx="467" cy="54" r="4" fill="#ff4f6d" opacity="0.43000000000000005"/><circle cx="160" cy="307" r="4" fill="#ff4f6d" opacity="0.44000000000000006"/><circle cx="365" cy="232" r="4" fill="#ff4f6d" opacity="0.41000000000000003"/><circle cx="58" cy="143" r="4" fill="#ff4f6d" opacity="0.42000000000000004"/><circle cx="263" cy="68" r="4" fill="#ff4f6d" opacity="0.39"/><circle cx="672" cy="321" r="4" fill="#ff4f6d" opacity="0.4"/><circle cx="261" cy="188" r="3" fill="#ff4f6d" opacity="0.53"/>
  <path d="M100 84l170-42 160 50 170-42 100 42v244l-170 42-160-50-170 42-100-42z" fill="#12b7a6" stroke="#15191d" stroke-width="5" opacity=".94"/><path d="M270 42v286M430 92v286M600 50v286" stroke="#15191d" stroke-width="4" opacity=".16"/><path d="M126 152c80 22 106-36 176-8 72 28 94 88 182 48 86-40 128-8 184 44" fill="none" stroke="#ff4f6d" stroke-width="14" stroke-linecap="round"/><path d="M470 126c0 36-38 70-38 70s-38-34-38-70a38 38 0 0176 0z" fill="#fffaf4"/>
</svg>
