<svg xmlns="http://www.w3.org/2000/svg" viewBox="0 0 800 420" role="img" aria-label="Ilustracion propia de mapa y geografia para esta pregunta">
  <defs>
    <linearGradient id="bg" x1="0" x2="1" y1="0" y2="1">
      <stop stop-color="#eaf9f6"/>
      <stop offset="1" stop-color="#fffaf4" stop-opacity="0.22"/>
    </linearGradient>
  </defs>
  <rect width="800" height="420" fill="url(#bg)"/>
  <circle cx="363" cy="106" r="70" fill="#fffaf4" opacity="0.13"/>
  <circle cx="579" cy="246" r="104" fill="#12b7a6" opacity="0.16"/>
  <circle cx="140" cy="356" r="5" fill="#ff4f6d" opacity="0.44000000000000006"/><circle cx="447" cy="104" r="5" fill="#ff4f6d" opacity="0.43000000000000005"/><circle cx="242" cy="178" r="5" fill="#ff4f6d" opacity="0.46"/><circle cx="549" cy="267" r="5" fill="#ff4f6d" opacity="0.45000000000000007"/><circle cx="344" cy="342" r="5" fill="#ff4f6d" opacity="0.48000000000000004"/><circle cx="651" cy="89" r="5" fill="#ff4f6d" opacity="0.47000000000000003"/><circle cx="446" cy="164" r="5" fill="#ff4f6d" opacity="0.5"/><circle cx="753" cy="253" r="5" fill="#ff4f6d" opacity="0.49"/><circle cx="448" cy="44" r="5" fill="#ff4f6d" opacity="0.36000000000000004"/>
  <path d="M100 84l170-42 160 50 170-42 100 42v244l-170 42-160-50-170 42-100-42z" fill="#12b7a6" stroke="#15191d" stroke-width="5" opacity=".94"/><path d="M270 42v286M430 92v286M600 50v286" stroke="#15191d" stroke-width="4" opacity=".16"/><path d="M126 168c80 22 106-36 176-8 72 28 94 88 182 48 86-40 128-8 184 44" fill="none" stroke="#ff4f6d" stroke-width="14" stroke-linecap="round"/><path d="M500 140c0 36-38 70-38 70s-38-34-38-70a38 38 0 0176 0z" fill="#fffaf4"/>
</svg>
