<svg xmlns="http://www.w3.org/2000/svg" viewBox="0 0 800 420" role="img" aria-label="Ilustracion propia de oceano y olas para esta pregunta">
  <defs>
    <linearGradient id="bg" x1="0" x2="1" y1="0" y2="1">
      <stop stop-color="#dff8ff"/>
      <stop offset="1" stop-color="#12b7a6" stop-opacity="0.22"/>
    </linearGradient>
  </defs>
  <rect width="800" height="420" fill="url(#bg)"/>
  <circle cx="365" cy="67" r="66" fill="#12b7a6" opacity="0.13"/>
  <circle cx="279" cy="62" r="74" fill="#315be8" opacity="0.16"/>
  <circle cx="577" cy="145" r="4" fill="#fffaf4" opacity="0.72"/><circle cx="270" cy="56" r="4" fill="#fffaf4" opacity="0.28"/><circle cx="475" cy="323" r="4" fill="#fffaf4" opacity="0.7"/><circle cx="168" cy="234" r="4" fill="#fffaf4" opacity="0.71"/><circle cx="65" cy="131" r="4" fill="#fffaf4" opacity="0.31000000000000005"/><circle cx="474" cy="41" r="3" fill="#fffaf4" opacity="0.32"/><circle cx="679" cy="309" r="4" fill="#fffaf4" opacity="0.29000000000000004"/><circle cx="372" cy="220" r="4" fill="#fffaf4" opacity="0.30000000000000004"/><circle cx="269" cy="116" r="3" fill="#fffaf4" opacity="0.35000000000000003"/>
  <path d="M0 240c88-42 144 42 232 0s144 42 232 0 144 42 232 0 144 42 232 0v180H0z" fill="#fff" opacity=".34"/><path d="M0 326c88-42 144 42 232 0s144 42 232 0 144 42 232 0 144 42 232 0" fill="none" stroke="#fff" stroke-width="18" opacity=".62"/><path d="M142 174c82-44 170-44 252 0" fill="none" stroke="#fff" stroke-width="10" opacity=".45" stroke-linecap="round"/>
</svg>
