<svg xmlns="http://www.w3.org/2000/svg" viewBox="0 0 800 420" role="img" aria-label="Ilustracion propia de mapa y geografia para esta pregunta">
  <defs>
    <linearGradient id="bg" x1="0" x2="1" y1="0" y2="1">
      <stop stop-color="#eaf9f6"/>
      <stop offset="1" stop-color="#ff4f6d" stop-opacity="0.22"/>
    </linearGradient>
  </defs>
  <rect width="800" height="420" fill="url(#bg)"/>
  <circle cx="280" cy="104" r="123" fill="#fffaf4" opacity="0.13"/>
  <circle cx="194" cy="67" r="131" fill="#12b7a6" opacity="0.16"/>
  <circle cx="305" cy="38" r="3" fill="#ff4f6d" opacity="0.30000000000000004"/><circle cx="714" cy="291" r="3" fill="#ff4f6d" opacity="0.31000000000000005"/><circle cx="203" cy="217" r="3" fill="#ff4f6d" opacity="0.28"/><circle cx="612" cy="128" r="3" fill="#ff4f6d" opacity="0.29000000000000004"/><circle cx="101" cy="53" r="3" fill="#ff4f6d" opacity="0.71"/><circle cx="510" cy="306" r="3" fill="#ff4f6d" opacity="0.72"/><circle cx="715" cy="231" r="3" fill="#ff4f6d" opacity="0.69"/><circle cx="408" cy="142" r="3" fill="#ff4f6d" opacity="0.7"/><circle cx="613" cy="68" r="3" fill="#ff4f6d" opacity="0.67"/>
  <path d="M100 84l170-42 160 50 170-42 100 42v244l-170 42-160-50-170 42-100-42z" fill="#12b7a6" stroke="#15191d" stroke-width="5" opacity=".94"/><path d="M270 42v286M430 92v286M600 50v286" stroke="#15191d" stroke-width="4" opacity=".16"/><path d="M126 200c80 22 106-36 176-8 72 28 94 88 182 48 86-40 128-8 184 44" fill="none" stroke="#ff4f6d" stroke-width="14" stroke-linecap="round"/><path d="M560 168c0 36-38 70-38 70s-38-34-38-70a38 38 0 0176 0z" fill="#fffaf4"/>
</svg>
