<svg xmlns="http://www.w3.org/2000/svg" viewBox="0 0 800 420" role="img" aria-label="Ilustracion propia de mapa y geografia para esta pregunta">
  <defs>
    <linearGradient id="bg" x1="0" x2="1" y1="0" y2="1">
      <stop stop-color="#eaf9f6"/>
      <stop offset="1" stop-color="#ff4f6d" stop-opacity="0.22"/>
    </linearGradient>
  </defs>
  <rect width="800" height="420" fill="url(#bg)"/>
  <circle cx="684" cy="90" r="141" fill="#fffaf4" opacity="0.13"/>
  <circle cx="169" cy="137" r="73" fill="#12b7a6" opacity="0.16"/>
  <circle cx="645" cy="298" r="4" fill="#ff4f6d" opacity="0.69"/><circle cx="338" cy="208" r="4" fill="#ff4f6d" opacity="0.7"/><circle cx="543" cy="134" r="4" fill="#ff4f6d" opacity="0.67"/><circle cx="236" cy="45" r="4" fill="#ff4f6d" opacity="0.68"/><circle cx="441" cy="312" r="4" fill="#ff4f6d" opacity="0.65"/><circle cx="134" cy="223" r="4" fill="#ff4f6d" opacity="0.66"/><circle cx="339" cy="148" r="4" fill="#ff4f6d" opacity="0.63"/><circle cx="748" cy="59" r="4" fill="#ff4f6d" opacity="0.64"/><circle cx="237" cy="327" r="4" fill="#ff4f6d" opacity="0.6100000000000001"/>
  <path d="M100 84l170-42 160 50 170-42 100 42v244l-170 42-160-50-170 42-100-42z" fill="#12b7a6" stroke="#15191d" stroke-width="5" opacity=".94"/><path d="M270 42v286M430 92v286M600 50v286" stroke="#15191d" stroke-width="4" opacity=".16"/><path d="M126 184c80 22 106-36 176-8 72 28 94 88 182 48 86-40 128-8 184 44" fill="none" stroke="#ff4f6d" stroke-width="14" stroke-linecap="round"/><path d="M530 154c0 36-38 70-38 70s-38-34-38-70a38 38 0 0176 0z" fill="#fffaf4"/>
</svg>
