<svg xmlns="http://www.w3.org/2000/svg" viewBox="0 0 800 420" role="img" aria-label="Ilustracion propia de mapa y geografia para esta pregunta">
  <defs>
    <linearGradient id="bg" x1="0" x2="1" y1="0" y2="1">
      <stop stop-color="#eaf9f6"/>
      <stop offset="1" stop-color="#ff4f6d" stop-opacity="0.22"/>
    </linearGradient>
  </defs>
  <rect width="800" height="420" fill="url(#bg)"/>
  <circle cx="450" cy="204" r="113" fill="#fffaf4" opacity="0.13"/>
  <circle cx="665" cy="187" r="110" fill="#12b7a6" opacity="0.16"/>
  <circle cx="121" cy="130" r="5" fill="#ff4f6d" opacity="0.66"/><circle cx="530" cy="41" r="5" fill="#ff4f6d" opacity="0.67"/><circle cx="735" cy="308" r="5" fill="#ff4f6d" opacity="0.64"/><circle cx="428" cy="219" r="5" fill="#ff4f6d" opacity="0.65"/><circle cx="325" cy="115" r="5" fill="#ff4f6d" opacity="0.7"/><circle cx="734" cy="368" r="5" fill="#ff4f6d" opacity="0.71"/><circle cx="223" cy="294" r="5" fill="#ff4f6d" opacity="0.68"/><circle cx="632" cy="204" r="5" fill="#ff4f6d" opacity="0.69"/><circle cx="529" cy="101" r="5" fill="#ff4f6d" opacity="0.29000000000000004"/>
  <path d="M100 84l170-42 160 50 170-42 100 42v244l-170 42-160-50-170 42-100-42z" fill="#12b7a6" stroke="#15191d" stroke-width="5" opacity=".94"/><path d="M270 42v286M430 92v286M600 50v286" stroke="#15191d" stroke-width="4" opacity=".16"/><path d="M126 200c80 22 106-36 176-8 72 28 94 88 182 48 86-40 128-8 184 44" fill="none" stroke="#ff4f6d" stroke-width="14" stroke-linecap="round"/><path d="M560 168c0 36-38 70-38 70s-38-34-38-70a38 38 0 0176 0z" fill="#fffaf4"/>
</svg>
