<svg xmlns="http://www.w3.org/2000/svg" viewBox="0 0 800 420" role="img" aria-label="Ilustracion propia de mapa y geografia para esta pregunta">
  <defs>
    <linearGradient id="bg" x1="0" x2="1" y1="0" y2="1">
      <stop stop-color="#eaf9f6"/>
      <stop offset="1" stop-color="#eaf9f6" stop-opacity="0.22"/>
    </linearGradient>
  </defs>
  <rect width="800" height="420" fill="url(#bg)"/>
  <circle cx="154" cy="252" r="112" fill="#fffaf4" opacity="0.13"/>
  <circle cx="328" cy="121" r="90" fill="#12b7a6" opacity="0.16"/>
  <circle cx="199" cy="201" r="5" fill="#ff4f6d" opacity="0.39"/><circle cx="608" cy="112" r="5" fill="#ff4f6d" opacity="0.4"/><circle cx="301" cy="365" r="5" fill="#ff4f6d" opacity="0.41000000000000003"/><circle cx="710" cy="276" r="5" fill="#ff4f6d" opacity="0.42000000000000004"/><circle cx="403" cy="187" r="5" fill="#ff4f6d" opacity="0.43000000000000005"/><circle cx="96" cy="97" r="5" fill="#ff4f6d" opacity="0.44000000000000006"/><circle cx="505" cy="350" r="5" fill="#ff4f6d" opacity="0.45000000000000007"/><circle cx="198" cy="261" r="5" fill="#ff4f6d" opacity="0.46"/><circle cx="607" cy="172" r="5" fill="#ff4f6d" opacity="0.47000000000000003"/>
  <path d="M100 84l170-42 160 50 170-42 100 42v244l-170 42-160-50-170 42-100-42z" fill="#12b7a6" stroke="#15191d" stroke-width="5" opacity=".94"/><path d="M270 42v286M430 92v286M600 50v286" stroke="#15191d" stroke-width="4" opacity=".16"/><path d="M126 184c80 22 106-36 176-8 72 28 94 88 182 48 86-40 128-8 184 44" fill="none" stroke="#ff4f6d" stroke-width="14" stroke-linecap="round"/><path d="M530 154c0 36-38 70-38 70s-38-34-38-70a38 38 0 0176 0z" fill="#fffaf4"/>
</svg>
