<svg xmlns="http://www.w3.org/2000/svg" viewBox="0 0 800 420" role="img" aria-label="Ilustracion propia de mapa y geografia para esta pregunta">
  <defs>
    <linearGradient id="bg" x1="0" x2="1" y1="0" y2="1">
      <stop stop-color="#eaf9f6"/>
      <stop offset="1" stop-color="#eaf9f6" stop-opacity="0.22"/>
    </linearGradient>
  </defs>
  <rect width="800" height="420" fill="url(#bg)"/>
  <circle cx="359" cy="190" r="74" fill="#fffaf4" opacity="0.13"/>
  <circle cx="353" cy="113" r="115" fill="#12b7a6" opacity="0.16"/>
  <circle cx="644" cy="280" r="5" fill="#ff4f6d" opacity="0.29000000000000004"/><circle cx="235" cy="369" r="5" fill="#ff4f6d" opacity="0.28"/><circle cx="746" cy="102" r="5" fill="#ff4f6d" opacity="0.31000000000000005"/><circle cx="337" cy="191" r="5" fill="#ff4f6d" opacity="0.30000000000000004"/><circle cx="440" cy="295" r="5" fill="#ff4f6d" opacity="0.7"/><circle cx="747" cy="42" r="5" fill="#ff4f6d" opacity="0.69"/><circle cx="542" cy="116" r="5" fill="#ff4f6d" opacity="0.72"/><circle cx="133" cy="205" r="5" fill="#ff4f6d" opacity="0.71"/><circle cx="336" cy="251" r="5" fill="#ff4f6d" opacity="0.37"/>
  <path d="M100 84l170-42 160 50 170-42 100 42v244l-170 42-160-50-170 42-100-42z" fill="#12b7a6" stroke="#15191d" stroke-width="5" opacity=".94"/><path d="M270 42v286M430 92v286M600 50v286" stroke="#15191d" stroke-width="4" opacity=".16"/><path d="M126 184c80 22 106-36 176-8 72 28 94 88 182 48 86-40 128-8 184 44" fill="none" stroke="#ff4f6d" stroke-width="14" stroke-linecap="round"/><path d="M530 154c0 36-38 70-38 70s-38-34-38-70a38 38 0 0176 0z" fill="#fffaf4"/>
</svg>
