<svg xmlns="http://www.w3.org/2000/svg" viewBox="0 0 800 420" role="img" aria-label="Ilustracion propia de mapa y geografia para esta pregunta">
  <defs>
    <linearGradient id="bg" x1="0" x2="1" y1="0" y2="1">
      <stop stop-color="#eaf9f6"/>
      <stop offset="1" stop-color="#eaf9f6" stop-opacity="0.22"/>
    </linearGradient>
  </defs>
  <rect width="800" height="420" fill="url(#bg)"/>
  <circle cx="487" cy="93" r="102" fill="#fffaf4" opacity="0.13"/>
  <circle cx="444" cy="316" r="118" fill="#12b7a6" opacity="0.16"/>
  <circle cx="196" cy="154" r="2" fill="#ff4f6d" opacity="0.54"/><circle cx="503" cy="243" r="2" fill="#ff4f6d" opacity="0.53"/><circle cx="298" cy="318" r="2" fill="#ff4f6d" opacity="0.56"/><circle cx="605" cy="65" r="2" fill="#ff4f6d" opacity="0.55"/><circle cx="400" cy="139" r="2" fill="#ff4f6d" opacity="0.5800000000000001"/><circle cx="707" cy="228" r="2" fill="#ff4f6d" opacity="0.5700000000000001"/><circle cx="502" cy="303" r="2" fill="#ff4f6d" opacity="0.6000000000000001"/><circle cx="93" cy="50" r="2" fill="#ff4f6d" opacity="0.5900000000000001"/><circle cx="604" cy="125" r="2" fill="#ff4f6d" opacity="0.6200000000000001"/>
  <path d="M100 84l170-42 160 50 170-42 100 42v244l-170 42-160-50-170 42-100-42z" fill="#12b7a6" stroke="#15191d" stroke-width="5" opacity=".94"/><path d="M270 42v286M430 92v286M600 50v286" stroke="#15191d" stroke-width="4" opacity=".16"/><path d="M126 152c80 22 106-36 176-8 72 28 94 88 182 48 86-40 128-8 184 44" fill="none" stroke="#ff4f6d" stroke-width="14" stroke-linecap="round"/><path d="M470 126c0 36-38 70-38 70s-38-34-38-70a38 38 0 0176 0z" fill="#fffaf4"/>
</svg>
