<svg xmlns="http://www.w3.org/2000/svg" viewBox="0 0 800 420" role="img" aria-label="Ilustracion propia de estadio y futbol generico para esta pregunta">
  <defs>
    <linearGradient id="bg" x1="0" x2="1" y1="0" y2="1">
      <stop stop-color="#eaf8f5"/>
      <stop offset="1" stop-color="#f6bc42" stop-opacity="0.22"/>
    </linearGradient>
  </defs>
  <rect width="800" height="420" fill="url(#bg)"/>
  <circle cx="227" cy="313" r="75" fill="#26b99f" opacity="0.13"/>
  <circle cx="262" cy="129" r="85" fill="#f6bc42" opacity="0.16"/>
  <circle cx="199" cy="44" r="2" fill="#15191d" opacity="0.28"/><circle cx="608" cy="297" r="2" fill="#15191d" opacity="0.29000000000000004"/><circle cx="301" cy="208" r="5" fill="#15191d" opacity="0.30000000000000004"/><circle cx="710" cy="119" r="5" fill="#15191d" opacity="0.31000000000000005"/><circle cx="711" cy="59" r="2" fill="#15191d" opacity="0.69"/><circle cx="404" cy="311" r="2" fill="#15191d" opacity="0.7"/><circle cx="97" cy="222" r="2" fill="#15191d" opacity="0.71"/><circle cx="506" cy="133" r="2" fill="#15191d" opacity="0.72"/><circle cx="607" cy="357" r="5" fill="#15191d" opacity="0.36000000000000004"/>
  <path d="M92 270c130-94 486-94 616 0v92H92z" fill="#26b99f" opacity=".9"/><path d="M150 270c102-54 398-54 500 0" fill="none" stroke="#fff" stroke-width="14" opacity=".64"/><rect x="165" y="304" width="470" height="62" rx="16" fill="#f6bc42"/><path d="M400 304v62M165 335h470" stroke="#fff" stroke-width="4" opacity=".65"/><path d="M400 92l18 45h48l-38 29 14 48-42-28-42 28 14-48-38-29h48z" fill="#15191d"/>
</svg>
