<svg xmlns="http://www.w3.org/2000/svg" viewBox="0 0 800 420" role="img" aria-label="Ilustracion propia de estadio y futbol generico para esta pregunta">
  <defs>
    <linearGradient id="bg" x1="0" x2="1" y1="0" y2="1">
      <stop stop-color="#eaf8f5"/>
      <stop offset="1" stop-color="#f6bc42" stop-opacity="0.22"/>
    </linearGradient>
  </defs>
  <rect width="800" height="420" fill="url(#bg)"/>
  <circle cx="235" cy="216" r="131" fill="#26b99f" opacity="0.13"/>
  <circle cx="338" cy="152" r="112" fill="#f6bc42" opacity="0.16"/>
  <circle cx="373" cy="87" r="3" fill="#15191d" opacity="0.72"/><circle cx="66" cy="340" r="3" fill="#15191d" opacity="0.28"/><circle cx="271" cy="265" r="3" fill="#15191d" opacity="0.7"/><circle cx="680" cy="176" r="3" fill="#15191d" opacity="0.71"/><circle cx="169" cy="102" r="3" fill="#15191d" opacity="0.68"/><circle cx="578" cy="354" r="3" fill="#15191d" opacity="0.69"/><circle cx="67" cy="280" r="3" fill="#15191d" opacity="0.66"/><circle cx="476" cy="191" r="3" fill="#15191d" opacity="0.67"/><circle cx="65" cy="58" r="3" fill="#15191d" opacity="0.35000000000000003"/>
  <rect x="118" y="78" width="564" height="264" rx="26" fill="#f6bc42"/><path d="M400 78v264M118 210h564" stroke="#fff" stroke-width="7" opacity=".76"/><circle cx="400" cy="210" r="58" fill="none" stroke="#fff" stroke-width="7" opacity=".76"/><circle cx="372" cy="236" r="32" fill="#fff"/><path d="M340 236h64M372 204v64" stroke="#26b99f" stroke-width="5" opacity=".5"/>
</svg>
