<svg xmlns="http://www.w3.org/2000/svg" viewBox="0 0 800 420" role="img" aria-label="Ilustracion propia de pista de tenis para esta pregunta">
  <defs>
    <linearGradient id="bg" x1="0" x2="1" y1="0" y2="1">
      <stop stop-color="#e8fbf5"/>
      <stop offset="1" stop-color="#12b7a6" stop-opacity="0.22"/>
    </linearGradient>
  </defs>
  <rect width="800" height="420" fill="url(#bg)"/>
  <circle cx="378" cy="259" r="110" fill="#12b7a6" opacity="0.13"/>
  <circle cx="356" cy="336" r="139" fill="#f6bc42" opacity="0.16"/>
  <circle cx="662" cy="235" r="3" fill="#315be8" opacity="0.6000000000000001"/><circle cx="253" cy="325" r="3" fill="#315be8" opacity="0.5900000000000001"/><circle cx="560" cy="72" r="3" fill="#315be8" opacity="0.5800000000000001"/><circle cx="151" cy="161" r="3" fill="#315be8" opacity="0.5700000000000001"/><circle cx="458" cy="250" r="4" fill="#315be8" opacity="0.56"/><circle cx="49" cy="339" r="4" fill="#315be8" opacity="0.55"/><circle cx="356" cy="86" r="4" fill="#315be8" opacity="0.54"/><circle cx="663" cy="175" r="4" fill="#315be8" opacity="0.53"/><circle cx="354" cy="206" r="3" fill="#315be8" opacity="0.68"/>
  <rect x="96" y="52" width="608" height="316" rx="28" fill="#f6bc42"/><path d="M400 52v316M96 210h608M170 110h460M170 310h460M170 110v200M630 110v200" stroke="#fff" stroke-width="7" opacity=".88"/><circle cx="446" cy="194" r="18" fill="#315be8"/><ellipse cx="262" cy="224" rx="36" ry="50" fill="none" stroke="#fffaf4" stroke-width="9" transform="rotate(-18 262 224)"/>
</svg>
