<svg xmlns="http://www.w3.org/2000/svg" viewBox="0 0 800 420" role="img" aria-label="Ilustracion propia de cancha de baloncesto para esta pregunta">
  <defs>
    <linearGradient id="bg" x1="0" x2="1" y1="0" y2="1">
      <stop stop-color="#fff1df"/>
      <stop offset="1" stop-color="#15191d" stop-opacity="0.22"/>
    </linearGradient>
  </defs>
  <rect width="800" height="420" fill="url(#bg)"/>
  <circle cx="659" cy="199" r="121" fill="#f6bc42" opacity="0.13"/>
  <circle cx="391" cy="293" r="121" fill="#d95a35" opacity="0.16"/>
  <circle cx="500" cy="222" r="2" fill="#15191d" opacity="0.63"/><circle cx="91" cy="311" r="2" fill="#15191d" opacity="0.6200000000000001"/><circle cx="602" cy="44" r="2" fill="#15191d" opacity="0.65"/><circle cx="193" cy="133" r="2" fill="#15191d" opacity="0.64"/><circle cx="296" cy="237" r="2" fill="#15191d" opacity="0.5900000000000001"/><circle cx="603" cy="326" r="2" fill="#15191d" opacity="0.5800000000000001"/><circle cx="398" cy="58" r="2" fill="#15191d" opacity="0.6100000000000001"/><circle cx="705" cy="148" r="2" fill="#15191d" opacity="0.6000000000000001"/><circle cx="92" cy="251" r="2" fill="#15191d" opacity="0.55"/>
  <rect x="76" y="58" width="648" height="304" rx="30" fill="#d95a35"/><path d="M100 210h600M400 58v304" stroke="#fffaf4" stroke-width="8" opacity=".8"/><circle cx="400" cy="210" r="73" fill="none" stroke="#fffaf4" stroke-width="8" opacity=".8"/><circle cx="432" cy="222" r="42" fill="#15191d"/><path d="M390 222h84M432 180v84" stroke="#f6bc42" stroke-width="5" fill="none"/>
</svg>
