<svg xmlns="http://www.w3.org/2000/svg" viewBox="0 0 800 420" role="img" aria-label="Ilustracion propia de cancha de baloncesto para esta pregunta">
  <defs>
    <linearGradient id="bg" x1="0" x2="1" y1="0" y2="1">
      <stop stop-color="#fff1df"/>
      <stop offset="1" stop-color="#d95a35" stop-opacity="0.22"/>
    </linearGradient>
  </defs>
  <rect width="800" height="420" fill="url(#bg)"/>
  <circle cx="253" cy="229" r="97" fill="#f6bc42" opacity="0.13"/>
  <circle cx="340" cy="225" r="108" fill="#d95a35" opacity="0.16"/>
  <circle cx="55" cy="127" r="4" fill="#15191d" opacity="0.44000000000000006"/><circle cx="464" cy="37" r="4" fill="#15191d" opacity="0.45000000000000007"/><circle cx="157" cy="290" r="4" fill="#15191d" opacity="0.46"/><circle cx="566" cy="201" r="4" fill="#15191d" opacity="0.47000000000000003"/><circle cx="259" cy="112" r="4" fill="#15191d" opacity="0.48000000000000004"/><circle cx="668" cy="365" r="4" fill="#15191d" opacity="0.49"/><circle cx="361" cy="276" r="4" fill="#15191d" opacity="0.5"/><circle cx="54" cy="187" r="4" fill="#15191d" opacity="0.51"/><circle cx="363" cy="156" r="4" fill="#15191d" opacity="0.36000000000000004"/>
  <rect x="76" y="58" width="648" height="304" rx="30" fill="#d95a35"/><path d="M100 210h600M400 58v304" stroke="#fffaf4" stroke-width="8" opacity=".8"/><circle cx="400" cy="210" r="66" fill="none" stroke="#fffaf4" stroke-width="8" opacity=".8"/><circle cx="348" cy="198" r="42" fill="#15191d"/><path d="M306 198h84M348 156v84" stroke="#f6bc42" stroke-width="5" fill="none"/>
</svg>
