<svg xmlns="http://www.w3.org/2000/svg" viewBox="0 0 800 420" role="img" aria-label="Ilustracion propia de tecnologia para esta pregunta">
  <defs>
    <linearGradient id="bg" x1="0" x2="1" y1="0" y2="1">
      <stop stop-color="#111820"/>
      <stop offset="1" stop-color="#fffaf4" stop-opacity="0.22"/>
    </linearGradient>
  </defs>
  <rect width="800" height="420" fill="url(#bg)"/>
  <circle cx="214" cy="199" r="116" fill="#fffaf4" opacity="0.13"/>
  <circle cx="485" cy="114" r="90" fill="#315be8" opacity="0.16"/>
  <circle cx="164" cy="205" r="2" fill="#12b7a6" opacity="0.55"/><circle cx="471" cy="294" r="2" fill="#12b7a6" opacity="0.54"/><circle cx="266" cy="368" r="2" fill="#12b7a6" opacity="0.5700000000000001"/><circle cx="573" cy="116" r="2" fill="#12b7a6" opacity="0.56"/><circle cx="676" cy="219" r="2" fill="#12b7a6" opacity="0.51"/><circle cx="267" cy="308" r="2" fill="#12b7a6" opacity="0.5"/><circle cx="62" cy="41" r="2" fill="#12b7a6" opacity="0.53"/><circle cx="369" cy="130" r="2" fill="#12b7a6" opacity="0.52"/><circle cx="472" cy="234" r="2" fill="#12b7a6" opacity="0.47000000000000003"/>
  <rect width="800" height="420" fill="#fffaf4"/><rect x="108" y="72" width="584" height="276" rx="28" fill="#315be8"/><rect x="108" y="72" width="584" height="58" rx="28" fill="#12b7a6"/><path d="M246 206l-62 44 62 44M554 206l62 44-62 44" stroke="#fffaf4" stroke-width="20" stroke-linecap="round" stroke-linejoin="round" fill="none"/><path d="M364 306l72-184" stroke="#12b7a6" stroke-width="18" stroke-linecap="round"/>
</svg>
