<svg xmlns="http://www.w3.org/2000/svg" viewBox="0 0 800 420" role="img" aria-label="Ilustracion propia de tecnologia para esta pregunta">
  <defs>
    <linearGradient id="bg" x1="0" x2="1" y1="0" y2="1">
      <stop stop-color="#111820"/>
      <stop offset="1" stop-color="#111820" stop-opacity="0.22"/>
    </linearGradient>
  </defs>
  <rect width="800" height="420" fill="url(#bg)"/>
  <circle cx="661" cy="77" r="122" fill="#fffaf4" opacity="0.13"/>
  <circle cx="316" cy="171" r="71" fill="#315be8" opacity="0.16"/>
  <circle cx="418" cy="314" r="2" fill="#12b7a6" opacity="0.7"/><circle cx="725" cy="61" r="2" fill="#12b7a6" opacity="0.69"/><circle cx="316" cy="150" r="2" fill="#12b7a6" opacity="0.68"/><circle cx="623" cy="239" r="2" fill="#12b7a6" opacity="0.67"/><circle cx="622" cy="299" r="2" fill="#12b7a6" opacity="0.29000000000000004"/><circle cx="213" cy="46" r="2" fill="#12b7a6" opacity="0.28"/><circle cx="520" cy="136" r="2" fill="#12b7a6" opacity="0.72"/><circle cx="111" cy="225" r="2" fill="#12b7a6" opacity="0.71"/><circle cx="726" cy="343" r="2" fill="#12b7a6" opacity="0.6200000000000001"/>
  <rect width="800" height="420" fill="#fffaf4"/><rect x="108" y="72" width="584" height="276" rx="28" fill="#315be8"/><rect x="108" y="72" width="584" height="58" rx="28" fill="#12b7a6"/><path d="M210 206l-62 44 62 44M590 206l62 44-62 44" stroke="#fffaf4" stroke-width="20" stroke-linecap="round" stroke-linejoin="round" fill="none"/><path d="M364 306l72-184" stroke="#12b7a6" stroke-width="18" stroke-linecap="round"/>
</svg>
