<svg xmlns="http://www.w3.org/2000/svg" viewBox="0 0 800 420" role="img" aria-label="Ilustracion propia de tecnologia para esta pregunta">
  <defs>
    <linearGradient id="bg" x1="0" x2="1" y1="0" y2="1">
      <stop stop-color="#111820"/>
      <stop offset="1" stop-color="#111820" stop-opacity="0.22"/>
    </linearGradient>
  </defs>
  <rect width="800" height="420" fill="url(#bg)"/>
  <circle cx="189" cy="139" r="114" fill="#fffaf4" opacity="0.13"/>
  <circle cx="182" cy="107" r="70" fill="#315be8" opacity="0.16"/>
  <circle cx="92" cy="210" r="2" fill="#12b7a6" opacity="0.4"/><circle cx="399" cy="299" r="2" fill="#12b7a6" opacity="0.39"/><circle cx="194" cy="373" r="2" fill="#12b7a6" opacity="0.42000000000000004"/><circle cx="501" cy="120" r="2" fill="#12b7a6" opacity="0.41000000000000003"/><circle cx="604" cy="224" r="2" fill="#12b7a6" opacity="0.36000000000000004"/><circle cx="195" cy="313" r="2" fill="#12b7a6" opacity="0.35000000000000003"/><circle cx="706" cy="46" r="2" fill="#12b7a6" opacity="0.38"/><circle cx="297" cy="135" r="2" fill="#12b7a6" opacity="0.37"/><circle cx="400" cy="239" r="2" fill="#12b7a6" opacity="0.32"/>
  <rect width="800" height="420" fill="#fffaf4"/><rect x="108" y="72" width="584" height="276" rx="28" fill="#315be8"/><rect x="108" y="72" width="584" height="58" rx="28" fill="#12b7a6"/><path d="M246 206l-62 44 62 44M554 206l62 44-62 44" stroke="#fffaf4" stroke-width="20" stroke-linecap="round" stroke-linejoin="round" fill="none"/><path d="M364 306l72-184" stroke="#12b7a6" stroke-width="18" stroke-linecap="round"/>
</svg>
