<svg xmlns="http://www.w3.org/2000/svg" viewBox="0 0 800 420" role="img" aria-label="Ilustracion propia de tecnologia para esta pregunta">
  <defs>
    <linearGradient id="bg" x1="0" x2="1" y1="0" y2="1">
      <stop stop-color="#111820"/>
      <stop offset="1" stop-color="#111820" stop-opacity="0.22"/>
    </linearGradient>
  </defs>
  <rect width="800" height="420" fill="url(#bg)"/>
  <circle cx="233" cy="126" r="110" fill="#fffaf4" opacity="0.13"/>
  <circle cx="488" cy="248" r="129" fill="#315be8" opacity="0.16"/>
  <circle cx="606" cy="61" r="2" fill="#12b7a6" opacity="0.5900000000000001"/><circle cx="197" cy="150" r="2" fill="#12b7a6" opacity="0.5800000000000001"/><circle cx="504" cy="239" r="2" fill="#12b7a6" opacity="0.5700000000000001"/><circle cx="95" cy="328" r="2" fill="#12b7a6" opacity="0.56"/><circle cx="94" cy="46" r="5" fill="#12b7a6" opacity="0.63"/><circle cx="401" cy="135" r="5" fill="#12b7a6" opacity="0.6200000000000001"/><circle cx="708" cy="225" r="5" fill="#12b7a6" opacity="0.6100000000000001"/><circle cx="299" cy="314" r="5" fill="#12b7a6" opacity="0.6000000000000001"/><circle cx="198" cy="90" r="2" fill="#12b7a6" opacity="0.51"/>
  <rect width="800" height="420" fill="#fffaf4"/><rect x="108" y="72" width="584" height="276" rx="28" fill="#315be8"/><rect x="108" y="72" width="584" height="58" rx="28" fill="#12b7a6"/><path d="M234 206l-62 44 62 44M566 206l62 44-62 44" stroke="#fffaf4" stroke-width="20" stroke-linecap="round" stroke-linejoin="round" fill="none"/><path d="M364 306l72-184" stroke="#12b7a6" stroke-width="18" stroke-linecap="round"/>
</svg>
