<svg xmlns="http://www.w3.org/2000/svg" viewBox="0 0 800 420" role="img" aria-label="Ilustracion propia de tecnologia para esta pregunta">
  <defs>
    <linearGradient id="bg" x1="0" x2="1" y1="0" y2="1">
      <stop stop-color="#111820"/>
      <stop offset="1" stop-color="#fffaf4" stop-opacity="0.22"/>
    </linearGradient>
  </defs>
  <rect width="800" height="420" fill="url(#bg)"/>
  <circle cx="662" cy="261" r="142" fill="#fffaf4" opacity="0.13"/>
  <circle cx="316" cy="158" r="123" fill="#315be8" opacity="0.16"/>
  <circle cx="435" cy="374" r="3" fill="#12b7a6" opacity="0.28"/><circle cx="128" cy="285" r="3" fill="#12b7a6" opacity="0.29000000000000004"/><circle cx="537" cy="196" r="3" fill="#12b7a6" opacity="0.30000000000000004"/><circle cx="230" cy="107" r="3" fill="#12b7a6" opacity="0.31000000000000005"/><circle cx="231" cy="47" r="3" fill="#12b7a6" opacity="0.69"/><circle cx="640" cy="300" r="3" fill="#12b7a6" opacity="0.7"/><circle cx="333" cy="210" r="3" fill="#12b7a6" opacity="0.71"/><circle cx="742" cy="121" r="3" fill="#12b7a6" opacity="0.72"/><circle cx="743" cy="61" r="3" fill="#12b7a6" opacity="0.65"/>
  <rect width="800" height="420" fill="#fffaf4"/><rect x="108" y="72" width="584" height="276" rx="28" fill="#315be8"/><rect x="108" y="72" width="584" height="58" rx="28" fill="#12b7a6"/><path d="M222 206l-62 44 62 44M578 206l62 44-62 44" stroke="#fffaf4" stroke-width="20" stroke-linecap="round" stroke-linejoin="round" fill="none"/><path d="M364 306l72-184" stroke="#12b7a6" stroke-width="18" stroke-linecap="round"/>
</svg>
