<svg xmlns="http://www.w3.org/2000/svg" viewBox="0 0 800 420" role="img" aria-label="Ilustracion propia de tecnologia para esta pregunta">
  <defs>
    <linearGradient id="bg" x1="0" x2="1" y1="0" y2="1">
      <stop stop-color="#111820"/>
      <stop offset="1" stop-color="#12b7a6" stop-opacity="0.22"/>
    </linearGradient>
  </defs>
  <rect width="800" height="420" fill="url(#bg)"/>
  <circle cx="143" cy="188" r="79" fill="#fffaf4" opacity="0.13"/>
  <circle cx="176" cy="77" r="95" fill="#315be8" opacity="0.16"/>
  <circle cx="583" cy="199" r="4" fill="#12b7a6" opacity="0.72"/><circle cx="276" cy="110" r="4" fill="#12b7a6" opacity="0.28"/><circle cx="685" cy="363" r="4" fill="#12b7a6" opacity="0.29000000000000004"/><circle cx="378" cy="274" r="4" fill="#12b7a6" opacity="0.30000000000000004"/><circle cx="379" cy="214" r="4" fill="#12b7a6" opacity="0.68"/><circle cx="72" cy="125" r="4" fill="#12b7a6" opacity="0.69"/><circle cx="481" cy="36" r="4" fill="#12b7a6" opacity="0.7"/><circle cx="174" cy="288" r="4" fill="#12b7a6" opacity="0.71"/><circle cx="175" cy="229" r="5" fill="#12b7a6" opacity="0.64"/>
  <rect width="800" height="420" fill="#fffaf4"/><rect x="108" y="72" width="584" height="276" rx="28" fill="#315be8"/><rect x="108" y="72" width="584" height="58" rx="28" fill="#12b7a6"/><path d="M234 206l-62 44 62 44M566 206l62 44-62 44" stroke="#fffaf4" stroke-width="20" stroke-linecap="round" stroke-linejoin="round" fill="none"/><path d="M364 306l72-184" stroke="#12b7a6" stroke-width="18" stroke-linecap="round"/>
</svg>
