<svg xmlns="http://www.w3.org/2000/svg" viewBox="0 0 800 420" role="img" aria-label="Ilustracion propia de tecnologia para esta pregunta">
  <defs>
    <linearGradient id="bg" x1="0" x2="1" y1="0" y2="1">
      <stop stop-color="#111820"/>
      <stop offset="1" stop-color="#315be8" stop-opacity="0.22"/>
    </linearGradient>
  </defs>
  <rect width="800" height="420" fill="url(#bg)"/>
  <circle cx="686" cy="263" r="69" fill="#fffaf4" opacity="0.13"/>
  <circle cx="244" cy="122" r="104" fill="#315be8" opacity="0.16"/>
  <circle cx="732" cy="133" r="4" fill="#12b7a6" opacity="0.28"/><circle cx="323" cy="222" r="4" fill="#12b7a6" opacity="0.72"/><circle cx="118" cy="296" r="4" fill="#12b7a6" opacity="0.30000000000000004"/><circle cx="425" cy="44" r="4" fill="#12b7a6" opacity="0.29000000000000004"/><circle cx="528" cy="147" r="4" fill="#12b7a6" opacity="0.69"/><circle cx="119" cy="236" r="4" fill="#12b7a6" opacity="0.68"/><circle cx="630" cy="311" r="4" fill="#12b7a6" opacity="0.71"/><circle cx="221" cy="58" r="4" fill="#12b7a6" opacity="0.7"/><circle cx="324" cy="162" r="4" fill="#12b7a6" opacity="0.65"/>
  <rect width="800" height="420" fill="#fffaf4"/><rect x="108" y="72" width="584" height="276" rx="28" fill="#315be8"/><rect x="108" y="72" width="584" height="58" rx="28" fill="#12b7a6"/><path d="M210 206l-62 44 62 44M590 206l62 44-62 44" stroke="#fffaf4" stroke-width="20" stroke-linecap="round" stroke-linejoin="round" fill="none"/><path d="M364 306l72-184" stroke="#12b7a6" stroke-width="18" stroke-linecap="round"/>
</svg>
