<svg xmlns="http://www.w3.org/2000/svg" viewBox="0 0 800 420" role="img" aria-label="Ilustracion propia de tecnologia para esta pregunta">
  <defs>
    <linearGradient id="bg" x1="0" x2="1" y1="0" y2="1">
      <stop stop-color="#111820"/>
      <stop offset="1" stop-color="#111820" stop-opacity="0.22"/>
    </linearGradient>
  </defs>
  <rect width="800" height="420" fill="url(#bg)"/>
  <circle cx="508" cy="75" r="94" fill="#fffaf4" opacity="0.13"/>
  <circle cx="222" cy="278" r="97" fill="#315be8" opacity="0.16"/>
  <circle cx="186" cy="335" r="5" fill="#12b7a6" opacity="0.71"/><circle cx="493" cy="82" r="2" fill="#12b7a6" opacity="0.7"/><circle cx="84" cy="171" r="2" fill="#12b7a6" opacity="0.69"/><circle cx="391" cy="260" r="2" fill="#12b7a6" opacity="0.68"/><circle cx="698" cy="349" r="2" fill="#12b7a6" opacity="0.67"/><circle cx="289" cy="97" r="2" fill="#12b7a6" opacity="0.66"/><circle cx="596" cy="186" r="2" fill="#12b7a6" opacity="0.65"/><circle cx="187" cy="275" r="2" fill="#12b7a6" opacity="0.64"/><circle cx="494" cy="364" r="2" fill="#12b7a6" opacity="0.63"/>
  <rect width="800" height="420" fill="#fffaf4"/><rect x="108" y="72" width="584" height="276" rx="28" fill="#315be8"/><rect x="108" y="72" width="584" height="58" rx="28" fill="#12b7a6"/><path d="M234 206l-62 44 62 44M566 206l62 44-62 44" stroke="#fffaf4" stroke-width="20" stroke-linecap="round" stroke-linejoin="round" fill="none"/><path d="M364 306l72-184" stroke="#12b7a6" stroke-width="18" stroke-linecap="round"/>
</svg>
