<svg xmlns="http://www.w3.org/2000/svg" viewBox="0 0 800 420" role="img" aria-label="Ilustracion propia de tecnologia para esta pregunta">
  <defs>
    <linearGradient id="bg" x1="0" x2="1" y1="0" y2="1">
      <stop stop-color="#111820"/>
      <stop offset="1" stop-color="#315be8" stop-opacity="0.22"/>
    </linearGradient>
  </defs>
  <rect width="800" height="420" fill="url(#bg)"/>
  <circle cx="571" cy="92" r="75" fill="#fffaf4" opacity="0.13"/>
  <circle cx="305" cy="316" r="115" fill="#315be8" opacity="0.16"/>
  <circle cx="646" cy="114" r="5" fill="#12b7a6" opacity="0.67"/><circle cx="237" cy="203" r="5" fill="#12b7a6" opacity="0.66"/><circle cx="544" cy="292" r="5" fill="#12b7a6" opacity="0.65"/><circle cx="135" cy="39" r="2" fill="#12b7a6" opacity="0.64"/><circle cx="442" cy="128" r="2" fill="#12b7a6" opacity="0.63"/><circle cx="749" cy="217" r="2" fill="#12b7a6" opacity="0.6200000000000001"/><circle cx="340" cy="306" r="2" fill="#12b7a6" opacity="0.6100000000000001"/><circle cx="647" cy="54" r="2" fill="#12b7a6" opacity="0.6000000000000001"/><circle cx="238" cy="143" r="2" fill="#12b7a6" opacity="0.5900000000000001"/>
  <rect width="800" height="420" fill="#fffaf4"/><rect x="108" y="72" width="584" height="276" rx="28" fill="#315be8"/><rect x="108" y="72" width="584" height="58" rx="28" fill="#12b7a6"/><path d="M210 206l-62 44 62 44M590 206l62 44-62 44" stroke="#fffaf4" stroke-width="20" stroke-linecap="round" stroke-linejoin="round" fill="none"/><path d="M364 306l72-184" stroke="#12b7a6" stroke-width="18" stroke-linecap="round"/>
</svg>
