<svg xmlns="http://www.w3.org/2000/svg" viewBox="0 0 800 420" role="img" aria-label="Ilustracion propia de tecnologia para esta pregunta">
  <defs>
    <linearGradient id="bg" x1="0" x2="1" y1="0" y2="1">
      <stop stop-color="#111820"/>
      <stop offset="1" stop-color="#111820" stop-opacity="0.22"/>
    </linearGradient>
  </defs>
  <rect width="800" height="420" fill="url(#bg)"/>
  <circle cx="650" cy="68" r="130" fill="#fffaf4" opacity="0.13"/>
  <circle cx="315" cy="134" r="142" fill="#315be8" opacity="0.16"/>
  <circle cx="647" cy="257" r="3" fill="#12b7a6" opacity="0.66"/><circle cx="340" cy="167" r="3" fill="#12b7a6" opacity="0.67"/><circle cx="749" cy="78" r="3" fill="#12b7a6" opacity="0.68"/><circle cx="442" cy="331" r="3" fill="#12b7a6" opacity="0.69"/><circle cx="443" cy="271" r="3" fill="#12b7a6" opacity="0.6200000000000001"/><circle cx="136" cy="182" r="3" fill="#12b7a6" opacity="0.63"/><circle cx="545" cy="93" r="3" fill="#12b7a6" opacity="0.64"/><circle cx="238" cy="346" r="3" fill="#12b7a6" opacity="0.65"/><circle cx="339" cy="227" r="3" fill="#12b7a6" opacity="0.29000000000000004"/>
  <rect width="800" height="420" fill="#fffaf4"/><rect x="108" y="72" width="584" height="276" rx="28" fill="#315be8"/><rect x="108" y="72" width="584" height="58" rx="28" fill="#12b7a6"/><path d="M258 206l-62 44 62 44M542 206l62 44-62 44" stroke="#fffaf4" stroke-width="20" stroke-linecap="round" stroke-linejoin="round" fill="none"/><path d="M364 306l72-184" stroke="#12b7a6" stroke-width="18" stroke-linecap="round"/>
</svg>
