<svg xmlns="http://www.w3.org/2000/svg" viewBox="0 0 800 420" role="img" aria-label="Ilustracion propia de tecnologia para esta pregunta">
  <defs>
    <linearGradient id="bg" x1="0" x2="1" y1="0" y2="1">
      <stop stop-color="#111820"/>
      <stop offset="1" stop-color="#fffaf4" stop-opacity="0.22"/>
    </linearGradient>
  </defs>
  <rect width="800" height="420" fill="url(#bg)"/>
  <circle cx="677" cy="183" r="110" fill="#fffaf4" opacity="0.13"/>
  <circle cx="543" cy="291" r="79" fill="#315be8" opacity="0.16"/>
  <circle cx="491" cy="332" r="4" fill="#12b7a6" opacity="0.66"/><circle cx="184" cy="243" r="4" fill="#12b7a6" opacity="0.67"/><circle cx="593" cy="154" r="4" fill="#12b7a6" opacity="0.68"/><circle cx="286" cy="65" r="4" fill="#12b7a6" opacity="0.69"/><circle cx="287" cy="347" r="4" fill="#12b7a6" opacity="0.6200000000000001"/><circle cx="696" cy="258" r="4" fill="#12b7a6" opacity="0.63"/><circle cx="389" cy="169" r="4" fill="#12b7a6" opacity="0.64"/><circle cx="82" cy="80" r="4" fill="#12b7a6" opacity="0.65"/><circle cx="83" cy="362" r="4" fill="#12b7a6" opacity="0.5800000000000001"/>
  <rect width="800" height="420" fill="#fffaf4"/><rect x="108" y="72" width="584" height="276" rx="28" fill="#315be8"/><rect x="108" y="72" width="584" height="58" rx="28" fill="#12b7a6"/><path d="M222 206l-62 44 62 44M578 206l62 44-62 44" stroke="#fffaf4" stroke-width="20" stroke-linecap="round" stroke-linejoin="round" fill="none"/><path d="M364 306l72-184" stroke="#12b7a6" stroke-width="18" stroke-linecap="round"/>
</svg>
