<svg xmlns="http://www.w3.org/2000/svg" viewBox="0 0 800 420" role="img" aria-label="Ilustracion propia de tecnologia para esta pregunta">
  <defs>
    <linearGradient id="bg" x1="0" x2="1" y1="0" y2="1">
      <stop stop-color="#111820"/>
      <stop offset="1" stop-color="#111820" stop-opacity="0.22"/>
    </linearGradient>
  </defs>
  <rect width="800" height="420" fill="url(#bg)"/>
  <circle cx="230" cy="124" r="106" fill="#fffaf4" opacity="0.13"/>
  <circle cx="562" cy="284" r="69" fill="#315be8" opacity="0.16"/>
  <circle cx="584" cy="47" r="5" fill="#12b7a6" opacity="0.7"/><circle cx="175" cy="136" r="5" fill="#12b7a6" opacity="0.69"/><circle cx="686" cy="211" r="5" fill="#12b7a6" opacity="0.72"/><circle cx="277" cy="300" r="5" fill="#12b7a6" opacity="0.71"/><circle cx="380" cy="61" r="5" fill="#12b7a6" opacity="0.66"/><circle cx="687" cy="151" r="5" fill="#12b7a6" opacity="0.65"/><circle cx="482" cy="225" r="5" fill="#12b7a6" opacity="0.68"/><circle cx="73" cy="314" r="5" fill="#12b7a6" opacity="0.67"/><circle cx="176" cy="76" r="5" fill="#12b7a6" opacity="0.6200000000000001"/>
  <rect width="800" height="420" fill="#fffaf4"/><rect x="108" y="72" width="584" height="276" rx="28" fill="#315be8"/><rect x="108" y="72" width="584" height="58" rx="28" fill="#12b7a6"/><path d="M258 206l-62 44 62 44M542 206l62 44-62 44" stroke="#fffaf4" stroke-width="20" stroke-linecap="round" stroke-linejoin="round" fill="none"/><path d="M364 306l72-184" stroke="#12b7a6" stroke-width="18" stroke-linecap="round"/>
</svg>
