<svg xmlns="http://www.w3.org/2000/svg" viewBox="0 0 800 420" role="img" aria-label="Ilustracion propia de tecnologia para esta pregunta">
  <defs>
    <linearGradient id="bg" x1="0" x2="1" y1="0" y2="1">
      <stop stop-color="#111820"/>
      <stop offset="1" stop-color="#fffaf4" stop-opacity="0.22"/>
    </linearGradient>
  </defs>
  <rect width="800" height="420" fill="url(#bg)"/>
  <circle cx="543" cy="319" r="84" fill="#fffaf4" opacity="0.13"/>
  <circle cx="526" cy="94" r="116" fill="#315be8" opacity="0.16"/>
  <circle cx="565" cy="99" r="3" fill="#12b7a6" opacity="0.65"/><circle cx="258" cy="352" r="3" fill="#12b7a6" opacity="0.66"/><circle cx="463" cy="278" r="3" fill="#12b7a6" opacity="0.63"/><circle cx="156" cy="189" r="3" fill="#12b7a6" opacity="0.64"/><circle cx="53" cy="85" r="3" fill="#12b7a6" opacity="0.69"/><circle cx="462" cy="338" r="3" fill="#12b7a6" opacity="0.7"/><circle cx="667" cy="263" r="3" fill="#12b7a6" opacity="0.67"/><circle cx="360" cy="174" r="3" fill="#12b7a6" opacity="0.68"/><circle cx="157" cy="129" r="3" fill="#12b7a6" opacity="0.5700000000000001"/>
  <rect width="800" height="420" fill="#fffaf4"/><rect x="108" y="72" width="584" height="276" rx="28" fill="#315be8"/><rect x="108" y="72" width="584" height="58" rx="28" fill="#12b7a6"/><path d="M234 206l-62 44 62 44M566 206l62 44-62 44" stroke="#fffaf4" stroke-width="20" stroke-linecap="round" stroke-linejoin="round" fill="none"/><path d="M364 306l72-184" stroke="#12b7a6" stroke-width="18" stroke-linecap="round"/>
</svg>
