<svg xmlns="http://www.w3.org/2000/svg" viewBox="0 0 800 420" role="img" aria-label="Ilustracion propia de laboratorio cientifico para esta pregunta">
  <defs>
    <linearGradient id="bg" x1="0" x2="1" y1="0" y2="1">
      <stop stop-color="#edf9ff"/>
      <stop offset="1" stop-color="#ff4f6d" stop-opacity="0.22"/>
    </linearGradient>
  </defs>
  <rect width="800" height="420" fill="url(#bg)"/>
  <circle cx="411" cy="150" r="71" fill="#fffaf4" opacity="0.13"/>
  <circle cx="585" cy="287" r="124" fill="#12b7a6" opacity="0.16"/>
  <circle cx="523" cy="263" r="5" fill="#ff4f6d" opacity="0.64"/><circle cx="216" cy="173" r="5" fill="#ff4f6d" opacity="0.65"/><circle cx="625" cy="84" r="5" fill="#ff4f6d" opacity="0.66"/><circle cx="318" cy="337" r="5" fill="#ff4f6d" opacity="0.67"/><circle cx="727" cy="248" r="5" fill="#ff4f6d" opacity="0.68"/><circle cx="420" cy="159" r="5" fill="#ff4f6d" opacity="0.69"/><circle cx="113" cy="70" r="5" fill="#ff4f6d" opacity="0.7"/><circle cx="522" cy="323" r="5" fill="#ff4f6d" opacity="0.71"/><circle cx="115" cy="292" r="5" fill="#ff4f6d" opacity="0.56"/>
  <path d="M350 74h116v28l-38 76v84c0 48-39 86-86 86h-8c-47 0-86-38-86-86v-84l-38-76V74h116z" fill="#12b7a6" stroke="#15191d" stroke-width="8"/><path d="M290 230h132v38c0 31-25 56-56 56h-20c-31 0-56-25-56-56z" fill="#ff4f6d" opacity=".85"/><circle cx="326" cy="250" r="12" fill="#fff"/><circle cx="380" cy="280" r="18" fill="#fff"/><path d="M528 118l68 118 68-118" fill="none" stroke="#fffaf4" stroke-width="15" stroke-linejoin="round"/>
</svg>
