<svg xmlns="http://www.w3.org/2000/svg" viewBox="0 0 800 420" role="img" aria-label="Ilustracion propia de oceano y olas para esta pregunta">
  <defs>
    <linearGradient id="bg" x1="0" x2="1" y1="0" y2="1">
      <stop stop-color="#dff8ff"/>
      <stop offset="1" stop-color="#315be8" stop-opacity="0.22"/>
    </linearGradient>
  </defs>
  <rect width="800" height="420" fill="url(#bg)"/>
  <circle cx="245" cy="152" r="77" fill="#12b7a6" opacity="0.13"/>
  <circle cx="489" cy="323" r="95" fill="#315be8" opacity="0.16"/>
  <circle cx="689" cy="120" r="4" fill="#fffaf4" opacity="0.5"/><circle cx="382" cy="373" r="4" fill="#fffaf4" opacity="0.51"/><circle cx="587" cy="298" r="4" fill="#fffaf4" opacity="0.48000000000000004"/><circle cx="280" cy="209" r="4" fill="#fffaf4" opacity="0.49"/><circle cx="177" cy="106" r="4" fill="#fffaf4" opacity="0.54"/><circle cx="586" cy="358" r="4" fill="#fffaf4" opacity="0.55"/><circle cx="75" cy="284" r="4" fill="#fffaf4" opacity="0.52"/><circle cx="484" cy="195" r="4" fill="#fffaf4" opacity="0.53"/><circle cx="281" cy="149" r="4" fill="#fffaf4" opacity="0.42000000000000004"/>
  <path d="M0 240c88-42 144 42 232 0s144 42 232 0 144 42 232 0 144 42 232 0v180H0z" fill="#fff" opacity=".34"/><path d="M0 326c88-42 144 42 232 0s144 42 232 0 144 42 232 0 144 42 232 0" fill="none" stroke="#fff" stroke-width="18" opacity=".62"/><path d="M142 174c82-44 170-44 252 0" fill="none" stroke="#fff" stroke-width="10" opacity=".45" stroke-linecap="round"/>
</svg>
