<svg xmlns="http://www.w3.org/2000/svg" viewBox="0 0 800 420" role="img" aria-label="Ilustracion propia de laboratorio cientifico para esta pregunta">
  <defs>
    <linearGradient id="bg" x1="0" x2="1" y1="0" y2="1">
      <stop stop-color="#edf9ff"/>
      <stop offset="1" stop-color="#12b7a6" stop-opacity="0.22"/>
    </linearGradient>
  </defs>
  <rect width="800" height="420" fill="url(#bg)"/>
  <circle cx="389" cy="253" r="103" fill="#fffaf4" opacity="0.13"/>
  <circle cx="132" cy="157" r="108" fill="#12b7a6" opacity="0.16"/>
  <circle cx="539" cy="160" r="5" fill="#ff4f6d" opacity="0.52"/><circle cx="232" cy="71" r="5" fill="#ff4f6d" opacity="0.53"/><circle cx="641" cy="324" r="5" fill="#ff4f6d" opacity="0.54"/><circle cx="334" cy="235" r="5" fill="#ff4f6d" opacity="0.55"/><circle cx="335" cy="175" r="5" fill="#ff4f6d" opacity="0.48000000000000004"/><circle cx="744" cy="86" r="5" fill="#ff4f6d" opacity="0.49"/><circle cx="437" cy="338" r="5" fill="#ff4f6d" opacity="0.5"/><circle cx="130" cy="249" r="5" fill="#ff4f6d" opacity="0.51"/><circle cx="131" cy="189" r="5" fill="#ff4f6d" opacity="0.44000000000000006"/>
  <path d="M380 74h116v28l-38 76v84c0 48-39 86-86 86h-8c-47 0-86-38-86-86v-84l-38-76V74h116z" fill="#12b7a6" stroke="#15191d" stroke-width="8"/><path d="M290 230h132v38c0 31-25 56-56 56h-20c-31 0-56-25-56-56z" fill="#ff4f6d" opacity=".85"/><circle cx="386" cy="250" r="12" fill="#fff"/><circle cx="326" cy="280" r="18" fill="#fff"/><path d="M528 118l68 118 68-118" fill="none" stroke="#fffaf4" stroke-width="15" stroke-linejoin="round"/>
</svg>
