<svg xmlns="http://www.w3.org/2000/svg" viewBox="0 0 800 420" role="img" aria-label="Ilustracion propia de espacio y planetas para esta pregunta">
  <defs>
    <linearGradient id="bg" x1="0" x2="1" y1="0" y2="1">
      <stop stop-color="#12171a"/>
      <stop offset="1" stop-color="#12171a" stop-opacity="0.22"/>
    </linearGradient>
  </defs>
  <rect width="800" height="420" fill="url(#bg)"/>
  <circle cx="194" cy="277" r="136" fill="#e46b4f" opacity="0.13"/>
  <circle cx="333" cy="124" r="133" fill="#f6bc42" opacity="0.16"/>
  <circle cx="427" cy="173" r="2" fill="#315be8" opacity="0.36000000000000004"/><circle cx="120" cy="84" r="2" fill="#315be8" opacity="0.37"/><circle cx="529" cy="337" r="2" fill="#315be8" opacity="0.38"/><circle cx="222" cy="247" r="2" fill="#315be8" opacity="0.39"/><circle cx="223" cy="187" r="2" fill="#315be8" opacity="0.32"/><circle cx="632" cy="98" r="2" fill="#315be8" opacity="0.33"/><circle cx="325" cy="351" r="2" fill="#315be8" opacity="0.34"/><circle cx="734" cy="262" r="2" fill="#315be8" opacity="0.35000000000000003"/><circle cx="119" cy="144" r="2" fill="#315be8" opacity="0.44000000000000006"/>
  <rect width="800" height="420" fill="#e46b4f"/><circle cx="388" cy="218" r="91" fill="#f6bc42"/><path d="M230 212c36 14 66-22 112-2" stroke="#8f3327" stroke-width="12" stroke-linecap="round" opacity=".36"/><circle cx="432" cy="214" r="60" fill="#315be8"/><circle cx="600" cy="276" r="32" fill="#fffaf4"/><path d="M176 324c140 46 308 54 476 0" stroke="#fff" stroke-width="5" fill="none" opacity=".38"/>
</svg>
