<svg xmlns="http://www.w3.org/2000/svg" viewBox="0 0 800 420" role="img" aria-label="Ilustracion propia de laboratorio cientifico para esta pregunta">
  <defs>
    <linearGradient id="bg" x1="0" x2="1" y1="0" y2="1">
      <stop stop-color="#edf9ff"/>
      <stop offset="1" stop-color="#12b7a6" stop-opacity="0.22"/>
    </linearGradient>
  </defs>
  <rect width="800" height="420" fill="url(#bg)"/>
  <circle cx="332" cy="205" r="87" fill="#fffaf4" opacity="0.13"/>
  <circle cx="350" cy="222" r="96" fill="#12b7a6" opacity="0.16"/>
  <circle cx="749" cy="208" r="3" fill="#ff4f6d" opacity="0.30000000000000004"/><circle cx="442" cy="119" r="3" fill="#ff4f6d" opacity="0.31000000000000005"/><circle cx="647" cy="44" r="3" fill="#ff4f6d" opacity="0.28"/><circle cx="340" cy="297" r="3" fill="#ff4f6d" opacity="0.29000000000000004"/><circle cx="237" cy="193" r="3" fill="#ff4f6d" opacity="0.34"/><circle cx="646" cy="104" r="3" fill="#ff4f6d" opacity="0.35000000000000003"/><circle cx="135" cy="372" r="3" fill="#ff4f6d" opacity="0.32"/><circle cx="544" cy="283" r="3" fill="#ff4f6d" opacity="0.33"/><circle cx="341" cy="237" r="3" fill="#ff4f6d" opacity="0.67"/>
  <path d="M360 74h116v28l-38 76v84c0 48-39 86-86 86h-8c-47 0-86-38-86-86v-84l-38-76V74h116z" fill="#12b7a6" stroke="#15191d" stroke-width="8"/><path d="M290 230h132v38c0 31-25 56-56 56h-20c-31 0-56-25-56-56z" fill="#ff4f6d" opacity=".85"/><circle cx="346" cy="250" r="12" fill="#fff"/><circle cx="362" cy="280" r="18" fill="#fff"/><path d="M528 118l68 118 68-118" fill="none" stroke="#fffaf4" stroke-width="15" stroke-linejoin="round"/>
</svg>
