<svg xmlns="http://www.w3.org/2000/svg" viewBox="0 0 800 420" role="img" aria-label="Ilustracion propia de anatomia humana para esta pregunta">
  <defs>
    <linearGradient id="bg" x1="0" x2="1" y1="0" y2="1">
      <stop stop-color="#fff0f3"/>
      <stop offset="1" stop-color="#ffb99c" stop-opacity="0.22"/>
    </linearGradient>
  </defs>
  <rect width="800" height="420" fill="url(#bg)"/>
  <circle cx="473" cy="337" r="134" fill="#ffb99c" opacity="0.13"/>
  <circle cx="293" cy="203" r="132" fill="#ff4f6d" opacity="0.16"/>
  <circle cx="144" cy="304" r="5" fill="#15191d" opacity="0.31000000000000005"/><circle cx="451" cy="51" r="5" fill="#15191d" opacity="0.30000000000000004"/><circle cx="246" cy="125" r="5" fill="#15191d" opacity="0.33"/><circle cx="553" cy="215" r="5" fill="#15191d" opacity="0.32"/><circle cx="348" cy="289" r="5" fill="#15191d" opacity="0.35000000000000003"/><circle cx="655" cy="36" r="5" fill="#15191d" opacity="0.34"/><circle cx="450" cy="111" r="5" fill="#15191d" opacity="0.37"/><circle cx="757" cy="200" r="5" fill="#15191d" opacity="0.36000000000000004"/><circle cx="452" cy="333" r="5" fill="#15191d" opacity="0.68"/>
  <circle cx="400" cy="104" r="46" fill="#ff4f6d"/><path d="M322 352c10-122 28-184 78-184s68 62 78 184z" fill="#fffaf4" stroke="#15191d" stroke-width="8"/><path d="M400 168v184M330 230h140" stroke="#15191d" stroke-width="12" stroke-linecap="round" opacity=".72"/><path d="M316 208c-58 26-90 70-98 134M484 208c58 26 90 70 98 134" stroke="#15191d" stroke-width="18" stroke-linecap="round" opacity=".62"/>
</svg>
