<svg xmlns="http://www.w3.org/2000/svg" viewBox="0 0 800 420" role="img" aria-label="Ilustracion propia de oceano y olas para esta pregunta">
  <defs>
    <linearGradient id="bg" x1="0" x2="1" y1="0" y2="1">
      <stop stop-color="#dff8ff"/>
      <stop offset="1" stop-color="#12b7a6" stop-opacity="0.22"/>
    </linearGradient>
  </defs>
  <rect width="800" height="420" fill="url(#bg)"/>
  <circle cx="660" cy="205" r="136" fill="#12b7a6" opacity="0.13"/>
  <circle cx="391" cy="115" r="113" fill="#315be8" opacity="0.16"/>
  <circle cx="127" cy="289" r="2" fill="#fffaf4" opacity="0.38"/><circle cx="536" cy="200" r="2" fill="#fffaf4" opacity="0.39"/><circle cx="229" cy="111" r="2" fill="#fffaf4" opacity="0.4"/><circle cx="638" cy="364" r="2" fill="#fffaf4" opacity="0.41000000000000003"/><circle cx="639" cy="304" r="2" fill="#fffaf4" opacity="0.34"/><circle cx="332" cy="215" r="2" fill="#fffaf4" opacity="0.35000000000000003"/><circle cx="741" cy="125" r="2" fill="#fffaf4" opacity="0.36000000000000004"/><circle cx="434" cy="36" r="2" fill="#fffaf4" opacity="0.37"/><circle cx="435" cy="318" r="2" fill="#fffaf4" opacity="0.30000000000000004"/>
  <path d="M0 240c88-42 144 42 232 0s144 42 232 0 144 42 232 0 144 42 232 0v180H0z" fill="#fff" opacity=".34"/><path d="M0 326c88-42 144 42 232 0s144 42 232 0 144 42 232 0 144 42 232 0" fill="none" stroke="#fff" stroke-width="18" opacity=".62"/><path d="M142 174c82-44 170-44 252 0" fill="none" stroke="#fff" stroke-width="10" opacity=".45" stroke-linecap="round"/>
</svg>
