<svg xmlns="http://www.w3.org/2000/svg" viewBox="0 0 800 420" role="img" aria-label="Ilustracion propia de oceano y olas para esta pregunta">
  <defs>
    <linearGradient id="bg" x1="0" x2="1" y1="0" y2="1">
      <stop stop-color="#dff8ff"/>
      <stop offset="1" stop-color="#fffaf4" stop-opacity="0.22"/>
    </linearGradient>
  </defs>
  <rect width="800" height="420" fill="url(#bg)"/>
  <circle cx="555" cy="232" r="93" fill="#12b7a6" opacity="0.13"/>
  <circle cx="528" cy="190" r="97" fill="#315be8" opacity="0.16"/>
  <circle cx="235" cy="334" r="4" fill="#fffaf4" opacity="0.71"/><circle cx="644" cy="244" r="4" fill="#fffaf4" opacity="0.72"/><circle cx="337" cy="155" r="4" fill="#fffaf4" opacity="0.28"/><circle cx="746" cy="66" r="4" fill="#fffaf4" opacity="0.29000000000000004"/><circle cx="439" cy="319" r="4" fill="#fffaf4" opacity="0.30000000000000004"/><circle cx="132" cy="230" r="4" fill="#fffaf4" opacity="0.31000000000000005"/><circle cx="541" cy="141" r="4" fill="#fffaf4" opacity="0.32"/><circle cx="234" cy="52" r="4" fill="#fffaf4" opacity="0.33"/><circle cx="543" cy="363" r="4" fill="#fffaf4" opacity="0.63"/>
  <path d="M0 240c88-42 144 42 232 0s144 42 232 0 144 42 232 0 144 42 232 0v180H0z" fill="#fff" opacity=".34"/><path d="M0 326c88-42 144 42 232 0s144 42 232 0 144 42 232 0 144 42 232 0" fill="none" stroke="#fff" stroke-width="18" opacity=".62"/><path d="M142 174c82-44 170-44 252 0" fill="none" stroke="#fff" stroke-width="10" opacity=".45" stroke-linecap="round"/>
</svg>
