<svg xmlns="http://www.w3.org/2000/svg" viewBox="0 0 800 420" role="img" aria-label="Ilustracion propia de espacio y planetas para esta pregunta">
  <defs>
    <linearGradient id="bg" x1="0" x2="1" y1="0" y2="1">
      <stop stop-color="#12171a"/>
      <stop offset="1" stop-color="#e46b4f" stop-opacity="0.22"/>
    </linearGradient>
  </defs>
  <rect width="800" height="420" fill="url(#bg)"/>
  <circle cx="196" cy="259" r="98" fill="#e46b4f" opacity="0.13"/>
  <circle cx="333" cy="193" r="98" fill="#f6bc42" opacity="0.16"/>
  <circle cx="134" cy="238" r="2" fill="#315be8" opacity="0.45000000000000007"/><circle cx="441" cy="327" r="2" fill="#315be8" opacity="0.44000000000000006"/><circle cx="748" cy="74" r="2" fill="#315be8" opacity="0.43000000000000005"/><circle cx="339" cy="164" r="2" fill="#315be8" opacity="0.42000000000000004"/><circle cx="646" cy="253" r="2" fill="#315be8" opacity="0.41000000000000003"/><circle cx="237" cy="342" r="2" fill="#315be8" opacity="0.4"/><circle cx="544" cy="89" r="2" fill="#315be8" opacity="0.39"/><circle cx="135" cy="178" r="2" fill="#315be8" opacity="0.38"/><circle cx="542" cy="209" r="2" fill="#315be8" opacity="0.53"/>
  <rect width="800" height="420" fill="#e46b4f"/><circle cx="286" cy="218" r="70" fill="#f6bc42"/><path d="M230 212c36 14 66-22 112-2" stroke="#8f3327" stroke-width="12" stroke-linecap="round" opacity=".36"/><circle cx="510" cy="160" r="48" fill="#315be8"/><circle cx="540" cy="276" r="32" fill="#fffaf4"/><path d="M176 324c140 46 308 54 476 0" stroke="#fff" stroke-width="5" fill="none" opacity=".38"/>
</svg>
