<svg xmlns="http://www.w3.org/2000/svg" viewBox="0 0 800 420" role="img" aria-label="Ilustracion propia de anatomia humana para esta pregunta">
  <defs>
    <linearGradient id="bg" x1="0" x2="1" y1="0" y2="1">
      <stop stop-color="#fff0f3"/>
      <stop offset="1" stop-color="#15191d" stop-opacity="0.22"/>
    </linearGradient>
  </defs>
  <rect width="800" height="420" fill="url(#bg)"/>
  <circle cx="657" cy="182" r="109" fill="#ffb99c" opacity="0.13"/>
  <circle cx="691" cy="184" r="89" fill="#ff4f6d" opacity="0.16"/>
  <circle cx="172" cy="135" r="4" fill="#15191d" opacity="0.35000000000000003"/><circle cx="479" cy="224" r="5" fill="#15191d" opacity="0.34"/><circle cx="274" cy="298" r="4" fill="#15191d" opacity="0.37"/><circle cx="581" cy="46" r="4" fill="#15191d" opacity="0.36000000000000004"/><circle cx="376" cy="120" r="4" fill="#15191d" opacity="0.39"/><circle cx="683" cy="209" r="4" fill="#15191d" opacity="0.38"/><circle cx="478" cy="284" r="4" fill="#15191d" opacity="0.41000000000000003"/><circle cx="69" cy="373" r="4" fill="#15191d" opacity="0.4"/><circle cx="480" cy="164" r="5" fill="#15191d" opacity="0.72"/>
  <circle cx="400" cy="104" r="46" fill="#ff4f6d"/><path d="M322 352c10-122 28-184 78-184s68 62 78 184z" fill="#fffaf4" stroke="#15191d" stroke-width="8"/><path d="M400 168v184M330 230h140" stroke="#15191d" stroke-width="12" stroke-linecap="round" opacity=".72"/><path d="M316 208c-58 26-90 70-98 134M484 208c58 26 90 70 98 134" stroke="#15191d" stroke-width="18" stroke-linecap="round" opacity=".62"/>
</svg>
