<svg xmlns="http://www.w3.org/2000/svg" viewBox="0 0 800 420" role="img" aria-label="Ilustracion propia de espacio y planetas para esta pregunta">
  <defs>
    <linearGradient id="bg" x1="0" x2="1" y1="0" y2="1">
      <stop stop-color="#12171a"/>
      <stop offset="1" stop-color="#315be8" stop-opacity="0.22"/>
    </linearGradient>
  </defs>
  <rect width="800" height="420" fill="url(#bg)"/>
  <circle cx="292" cy="109" r="105" fill="#e46b4f" opacity="0.13"/>
  <circle cx="270" cy="246" r="139" fill="#f6bc42" opacity="0.16"/>
  <circle cx="499" cy="43" r="3" fill="#315be8" opacity="0.63"/><circle cx="192" cy="296" r="3" fill="#315be8" opacity="0.64"/><circle cx="601" cy="206" r="3" fill="#315be8" opacity="0.65"/><circle cx="294" cy="117" r="3" fill="#315be8" opacity="0.66"/><circle cx="703" cy="370" r="3" fill="#315be8" opacity="0.67"/><circle cx="396" cy="281" r="3" fill="#315be8" opacity="0.68"/><circle cx="89" cy="192" r="3" fill="#315be8" opacity="0.69"/><circle cx="498" cy="103" r="2" fill="#315be8" opacity="0.7"/><circle cx="91" cy="72" r="3" fill="#315be8" opacity="0.55"/>
  <rect width="800" height="420" fill="#e46b4f"/><circle cx="320" cy="218" r="77" fill="#f6bc42"/><path d="M230 212c36 14 66-22 112-2" stroke="#8f3327" stroke-width="12" stroke-linecap="round" opacity=".36"/><circle cx="484" cy="178" r="52" fill="#315be8"/><circle cx="560" cy="276" r="32" fill="#fffaf4"/><path d="M176 324c140 46 308 54 476 0" stroke="#fff" stroke-width="5" fill="none" opacity=".38"/>
</svg>
