<svg xmlns="http://www.w3.org/2000/svg" viewBox="0 0 800 420" role="img" aria-label="Ilustracion propia de oceano y olas para esta pregunta">
  <defs>
    <linearGradient id="bg" x1="0" x2="1" y1="0" y2="1">
      <stop stop-color="#dff8ff"/>
      <stop offset="1" stop-color="#dff8ff" stop-opacity="0.22"/>
    </linearGradient>
  </defs>
  <rect width="800" height="420" fill="url(#bg)"/>
  <circle cx="119" cy="345" r="110" fill="#12b7a6" opacity="0.13"/>
  <circle cx="398" cy="240" r="129" fill="#315be8" opacity="0.16"/>
  <circle cx="115" cy="250" r="3" fill="#fffaf4" opacity="0.69"/><circle cx="524" cy="161" r="3" fill="#fffaf4" opacity="0.7"/><circle cx="217" cy="72" r="3" fill="#fffaf4" opacity="0.71"/><circle cx="626" cy="324" r="3" fill="#fffaf4" opacity="0.72"/><circle cx="319" cy="235" r="3" fill="#fffaf4" opacity="0.28"/><circle cx="728" cy="146" r="3" fill="#fffaf4" opacity="0.29000000000000004"/><circle cx="421" cy="57" r="3" fill="#fffaf4" opacity="0.30000000000000004"/><circle cx="114" cy="310" r="3" fill="#fffaf4" opacity="0.31000000000000005"/><circle cx="523" cy="221" r="3" fill="#fffaf4" opacity="0.32"/>
  <path d="M0 240c88-42 144 42 232 0s144 42 232 0 144 42 232 0 144 42 232 0v180H0z" fill="#fff" opacity=".34"/><path d="M0 316c88-42 144 42 232 0s144 42 232 0 144 42 232 0 144 42 232 0" fill="none" stroke="#fff" stroke-width="18" opacity=".62"/><path d="M142 174c82-44 170-44 252 0" fill="none" stroke="#fff" stroke-width="10" opacity=".45" stroke-linecap="round"/>
</svg>
