<svg xmlns="http://www.w3.org/2000/svg" viewBox="0 0 800 420" role="img" aria-label="Ilustracion propia de espacio y planetas para esta pregunta">
  <defs>
    <linearGradient id="bg" x1="0" x2="1" y1="0" y2="1">
      <stop stop-color="#12171a"/>
      <stop offset="1" stop-color="#315be8" stop-opacity="0.22"/>
    </linearGradient>
  </defs>
  <rect width="800" height="420" fill="url(#bg)"/>
  <circle cx="394" cy="172" r="65" fill="#e46b4f" opacity="0.13"/>
  <circle cx="658" cy="290" r="134" fill="#f6bc42" opacity="0.16"/>
  <circle cx="93" cy="268" r="5" fill="#315be8" opacity="0.35000000000000003"/><circle cx="502" cy="178" r="5" fill="#315be8" opacity="0.36000000000000004"/><circle cx="707" cy="104" r="5" fill="#315be8" opacity="0.33"/><circle cx="400" cy="357" r="5" fill="#315be8" opacity="0.34"/><circle cx="605" cy="282" r="5" fill="#315be8" opacity="0.31000000000000005"/><circle cx="298" cy="193" r="5" fill="#315be8" opacity="0.32"/><circle cx="503" cy="118" r="2" fill="#315be8" opacity="0.29000000000000004"/><circle cx="196" cy="371" r="5" fill="#315be8" opacity="0.30000000000000004"/><circle cx="501" cy="238" r="5" fill="#315be8" opacity="0.43000000000000005"/>
  <rect width="800" height="420" fill="#e46b4f"/><circle cx="388" cy="218" r="91" fill="#f6bc42"/><path d="M230 212c36 14 66-22 112-2" stroke="#8f3327" stroke-width="12" stroke-linecap="round" opacity=".36"/><circle cx="432" cy="214" r="60" fill="#315be8"/><circle cx="600" cy="276" r="32" fill="#fffaf4"/><path d="M176 324c140 46 308 54 476 0" stroke="#fff" stroke-width="5" fill="none" opacity=".38"/>
</svg>
