<svg xmlns="http://www.w3.org/2000/svg" viewBox="0 0 800 420" role="img" aria-label="Ilustracion propia de laboratorio cientifico para esta pregunta">
  <defs>
    <linearGradient id="bg" x1="0" x2="1" y1="0" y2="1">
      <stop stop-color="#edf9ff"/>
      <stop offset="1" stop-color="#ff4f6d" stop-opacity="0.22"/>
    </linearGradient>
  </defs>
  <rect width="800" height="420" fill="url(#bg)"/>
  <circle cx="502" cy="137" r="141" fill="#fffaf4" opacity="0.13"/>
  <circle cx="221" cy="71" r="123" fill="#12b7a6" opacity="0.16"/>
  <circle cx="306" cy="233" r="2" fill="#ff4f6d" opacity="0.37"/><circle cx="613" cy="322" r="2" fill="#ff4f6d" opacity="0.36000000000000004"/><circle cx="204" cy="70" r="2" fill="#ff4f6d" opacity="0.35000000000000003"/><circle cx="511" cy="159" r="2" fill="#ff4f6d" opacity="0.34"/><circle cx="510" cy="219" r="2" fill="#ff4f6d" opacity="0.41000000000000003"/><circle cx="101" cy="308" r="2" fill="#ff4f6d" opacity="0.4"/><circle cx="408" cy="55" r="2" fill="#ff4f6d" opacity="0.39"/><circle cx="715" cy="144" r="2" fill="#ff4f6d" opacity="0.38"/><circle cx="614" cy="262" r="2" fill="#ff4f6d" opacity="0.29000000000000004"/>
  <path d="M360 74h116v28l-38 76v84c0 48-39 86-86 86h-8c-47 0-86-38-86-86v-84l-38-76V74h116z" fill="#12b7a6" stroke="#15191d" stroke-width="8"/><path d="M290 230h132v38c0 31-25 56-56 56h-20c-31 0-56-25-56-56z" fill="#ff4f6d" opacity=".85"/><circle cx="346" cy="250" r="12" fill="#fff"/><circle cx="362" cy="280" r="18" fill="#fff"/><path d="M528 118l68 118 68-118" fill="none" stroke="#fffaf4" stroke-width="15" stroke-linejoin="round"/>
</svg>
