<svg xmlns="http://www.w3.org/2000/svg" viewBox="0 0 800 420" role="img" aria-label="Ilustracion propia de oceano y olas para esta pregunta">
  <defs>
    <linearGradient id="bg" x1="0" x2="1" y1="0" y2="1">
      <stop stop-color="#dff8ff"/>
      <stop offset="1" stop-color="#dff8ff" stop-opacity="0.22"/>
    </linearGradient>
  </defs>
  <rect width="800" height="420" fill="url(#bg)"/>
  <circle cx="411" cy="135" r="116" fill="#12b7a6" opacity="0.13"/>
  <circle cx="285" cy="285" r="130" fill="#315be8" opacity="0.16"/>
  <circle cx="436" cy="227" r="2" fill="#fffaf4" opacity="0.6100000000000001"/><circle cx="743" cy="317" r="2" fill="#fffaf4" opacity="0.6000000000000001"/><circle cx="538" cy="49" r="2" fill="#fffaf4" opacity="0.63"/><circle cx="129" cy="138" r="2" fill="#fffaf4" opacity="0.6200000000000001"/><circle cx="232" cy="242" r="2" fill="#fffaf4" opacity="0.5700000000000001"/><circle cx="539" cy="331" r="2" fill="#fffaf4" opacity="0.56"/><circle cx="334" cy="64" r="2" fill="#fffaf4" opacity="0.5900000000000001"/><circle cx="641" cy="153" r="2" fill="#fffaf4" opacity="0.5800000000000001"/><circle cx="128" cy="198" r="2" fill="#fffaf4" opacity="0.69"/>
  <path d="M0 240c88-42 144 42 232 0s144 42 232 0 144 42 232 0 144 42 232 0v180H0z" fill="#fff" opacity=".34"/><path d="M0 286c88-42 144 42 232 0s144 42 232 0 144 42 232 0 144 42 232 0" fill="none" stroke="#fff" stroke-width="18" opacity=".62"/><path d="M142 174c82-44 170-44 252 0" fill="none" stroke="#fff" stroke-width="10" opacity=".45" stroke-linecap="round"/>
</svg>
