<svg xmlns="http://www.w3.org/2000/svg" viewBox="0 0 800 420" role="img" aria-label="Ilustracion propia de cine y rodaje para esta pregunta">
  <defs>
    <linearGradient id="bg" x1="0" x2="1" y1="0" y2="1">
      <stop stop-color="#15191d"/>
      <stop offset="1" stop-color="#fffaf4" stop-opacity="0.22"/>
    </linearGradient>
  </defs>
  <rect width="800" height="420" fill="url(#bg)"/>
  <circle cx="177" cy="118" r="94" fill="#fffaf4" opacity="0.13"/>
  <circle cx="106" cy="104" r="127" fill="#f6bc42" opacity="0.16"/>
  <circle cx="435" cy="170" r="4" fill="#ff4f6d" opacity="0.6200000000000001"/><circle cx="128" cy="81" r="4" fill="#ff4f6d" opacity="0.63"/><circle cx="537" cy="334" r="4" fill="#ff4f6d" opacity="0.64"/><circle cx="230" cy="245" r="4" fill="#ff4f6d" opacity="0.65"/><circle cx="231" cy="185" r="4" fill="#ff4f6d" opacity="0.5800000000000001"/><circle cx="640" cy="96" r="4" fill="#ff4f6d" opacity="0.5900000000000001"/><circle cx="333" cy="348" r="4" fill="#ff4f6d" opacity="0.6000000000000001"/><circle cx="742" cy="259" r="4" fill="#ff4f6d" opacity="0.6100000000000001"/><circle cx="127" cy="141" r="4" fill="#ff4f6d" opacity="0.7"/>
  <rect width="800" height="420" fill="#fffaf4"/><circle cx="580" cy="116" r="120" fill="#ff4f6d" opacity=".42"/><rect x="190" y="182" width="420" height="198" rx="22" fill="#f6bc42"/><rect x="190" y="116" width="420" height="70" rx="18" fill="#fffaf4"/><path d="M228 116l58 70M330 116l58 70M432 116l58 70M534 116l58 70" stroke="#fffaf4" stroke-width="20"/><rect x="244" y="254" width="312" height="18" rx="9" fill="#fffaf4" opacity=".16"/>
</svg>
