<svg xmlns="http://www.w3.org/2000/svg" viewBox="0 0 800 420" role="img" aria-label="Ilustracion propia de cine y rodaje para esta pregunta">
  <defs>
    <linearGradient id="bg" x1="0" x2="1" y1="0" y2="1">
      <stop stop-color="#15191d"/>
      <stop offset="1" stop-color="#f6bc42" stop-opacity="0.22"/>
    </linearGradient>
  </defs>
  <rect width="800" height="420" fill="url(#bg)"/>
  <circle cx="687" cy="234" r="65" fill="#fffaf4" opacity="0.13"/>
  <circle cx="544" cy="119" r="94" fill="#f6bc42" opacity="0.16"/>
  <circle cx="608" cy="374" r="5" fill="#ff4f6d" opacity="0.5900000000000001"/><circle cx="199" cy="121" r="5" fill="#ff4f6d" opacity="0.5800000000000001"/><circle cx="710" cy="196" r="5" fill="#ff4f6d" opacity="0.6100000000000001"/><circle cx="301" cy="285" r="5" fill="#ff4f6d" opacity="0.6000000000000001"/><circle cx="404" cy="47" r="5" fill="#ff4f6d" opacity="0.55"/><circle cx="711" cy="136" r="5" fill="#ff4f6d" opacity="0.54"/><circle cx="506" cy="211" r="5" fill="#ff4f6d" opacity="0.5700000000000001"/><circle cx="97" cy="300" r="5" fill="#ff4f6d" opacity="0.56"/><circle cx="200" cy="61" r="5" fill="#ff4f6d" opacity="0.51"/>
  <rect width="800" height="420" fill="#fffaf4"/><circle cx="580" cy="116" r="120" fill="#ff4f6d" opacity=".42"/><rect x="190" y="182" width="420" height="198" rx="22" fill="#f6bc42"/><rect x="190" y="116" width="420" height="70" rx="18" fill="#fffaf4"/><path d="M228 116l58 70M330 116l58 70M432 116l58 70M534 116l58 70" stroke="#fffaf4" stroke-width="20"/><rect x="244" y="254" width="312" height="18" rx="9" fill="#fffaf4" opacity=".16"/>
</svg>
