<svg xmlns="http://www.w3.org/2000/svg" viewBox="0 0 800 420" role="img" aria-label="Ilustracion propia de cine y rodaje para esta pregunta">
  <defs>
    <linearGradient id="bg" x1="0" x2="1" y1="0" y2="1">
      <stop stop-color="#15191d"/>
      <stop offset="1" stop-color="#15191d" stop-opacity="0.22"/>
    </linearGradient>
  </defs>
  <rect width="800" height="420" fill="url(#bg)"/>
  <circle cx="693" cy="175" r="108" fill="#fffaf4" opacity="0.13"/>
  <circle cx="245" cy="219" r="69" fill="#f6bc42" opacity="0.16"/>
  <circle cx="512" cy="372" r="5" fill="#ff4f6d" opacity="0.67"/><circle cx="103" cy="120" r="5" fill="#ff4f6d" opacity="0.66"/><circle cx="614" cy="194" r="5" fill="#ff4f6d" opacity="0.69"/><circle cx="205" cy="283" r="5" fill="#ff4f6d" opacity="0.68"/><circle cx="716" cy="358" r="5" fill="#ff4f6d" opacity="0.71"/><circle cx="307" cy="105" r="5" fill="#ff4f6d" opacity="0.7"/><circle cx="102" cy="180" r="5" fill="#ff4f6d" opacity="0.28"/><circle cx="409" cy="269" r="5" fill="#ff4f6d" opacity="0.72"/><circle cx="104" cy="60" r="5" fill="#ff4f6d" opacity="0.5900000000000001"/>
  <rect width="800" height="420" fill="#fffaf4"/><circle cx="540" cy="142" r="120" fill="#ff4f6d" opacity=".42"/><rect x="190" y="182" width="420" height="198" rx="22" fill="#f6bc42"/><rect x="190" y="124" width="420" height="70" rx="18" fill="#fffaf4"/><path d="M228 124l58 70M330 124l58 70M432 124l58 70M534 124l58 70" stroke="#fffaf4" stroke-width="20"/><rect x="244" y="254" width="312" height="18" rx="9" fill="#fffaf4" opacity=".16"/>
</svg>
