<svg xmlns="http://www.w3.org/2000/svg" viewBox="0 0 800 420" role="img" aria-label="Ilustracion propia de cine y rodaje para esta pregunta">
  <defs>
    <linearGradient id="bg" x1="0" x2="1" y1="0" y2="1">
      <stop stop-color="#15191d"/>
      <stop offset="1" stop-color="#15191d" stop-opacity="0.22"/>
    </linearGradient>
  </defs>
  <rect width="800" height="420" fill="url(#bg)"/>
  <circle cx="509" cy="158" r="74" fill="#fffaf4" opacity="0.13"/>
  <circle cx="297" cy="74" r="105" fill="#f6bc42" opacity="0.16"/>
  <circle cx="686" cy="123" r="3" fill="#ff4f6d" opacity="0.35000000000000003"/><circle cx="277" cy="213" r="3" fill="#ff4f6d" opacity="0.34"/><circle cx="584" cy="302" r="3" fill="#ff4f6d" opacity="0.33"/><circle cx="175" cy="49" r="3" fill="#ff4f6d" opacity="0.32"/><circle cx="482" cy="138" r="3" fill="#ff4f6d" opacity="0.31000000000000005"/><circle cx="73" cy="227" r="3" fill="#ff4f6d" opacity="0.30000000000000004"/><circle cx="380" cy="316" r="3" fill="#ff4f6d" opacity="0.29000000000000004"/><circle cx="687" cy="63" r="3" fill="#ff4f6d" opacity="0.28"/><circle cx="278" cy="153" r="3" fill="#ff4f6d" opacity="0.72"/>
  <rect width="800" height="420" fill="#fffaf4"/><circle cx="500" cy="168" r="120" fill="#ff4f6d" opacity=".42"/><rect x="190" y="182" width="420" height="198" rx="22" fill="#f6bc42"/><rect x="190" y="132" width="420" height="70" rx="18" fill="#fffaf4"/><path d="M228 132l58 70M330 132l58 70M432 132l58 70M534 132l58 70" stroke="#fffaf4" stroke-width="20"/><rect x="244" y="254" width="312" height="18" rx="9" fill="#fffaf4" opacity=".16"/>
</svg>
