<svg xmlns="http://www.w3.org/2000/svg" viewBox="0 0 800 420" role="img" aria-label="Ilustracion propia de cine y rodaje para esta pregunta">
  <defs>
    <linearGradient id="bg" x1="0" x2="1" y1="0" y2="1">
      <stop stop-color="#15191d"/>
      <stop offset="1" stop-color="#fffaf4" stop-opacity="0.22"/>
    </linearGradient>
  </defs>
  <rect width="800" height="420" fill="url(#bg)"/>
  <circle cx="360" cy="126" r="112" fill="#fffaf4" opacity="0.13"/>
  <circle cx="504" cy="177" r="90" fill="#f6bc42" opacity="0.16"/>
  <circle cx="339" cy="178" r="2" fill="#ff4f6d" opacity="0.31000000000000005"/><circle cx="748" cy="89" r="2" fill="#ff4f6d" opacity="0.32"/><circle cx="441" cy="342" r="2" fill="#ff4f6d" opacity="0.33"/><circle cx="134" cy="253" r="2" fill="#ff4f6d" opacity="0.34"/><circle cx="543" cy="163" r="2" fill="#ff4f6d" opacity="0.35000000000000003"/><circle cx="236" cy="74" r="2" fill="#ff4f6d" opacity="0.36000000000000004"/><circle cx="645" cy="327" r="2" fill="#ff4f6d" opacity="0.37"/><circle cx="338" cy="238" r="2" fill="#ff4f6d" opacity="0.38"/><circle cx="747" cy="149" r="2" fill="#ff4f6d" opacity="0.39"/>
  <rect width="800" height="420" fill="#fffaf4"/><circle cx="460" cy="194" r="120" fill="#ff4f6d" opacity=".42"/><rect x="190" y="182" width="420" height="198" rx="22" fill="#f6bc42"/><rect x="190" y="140" width="420" height="70" rx="18" fill="#fffaf4"/><path d="M228 140l58 70M330 140l58 70M432 140l58 70M534 140l58 70" stroke="#fffaf4" stroke-width="20"/><rect x="244" y="254" width="312" height="18" rx="9" fill="#fffaf4" opacity=".16"/>
</svg>
