<svg xmlns="http://www.w3.org/2000/svg" viewBox="0 0 800 420" role="img" aria-label="Ilustracion propia de cine y rodaje para esta pregunta">
  <defs>
    <linearGradient id="bg" x1="0" x2="1" y1="0" y2="1">
      <stop stop-color="#15191d"/>
      <stop offset="1" stop-color="#15191d" stop-opacity="0.22"/>
    </linearGradient>
  </defs>
  <rect width="800" height="420" fill="url(#bg)"/>
  <circle cx="161" cy="249" r="94" fill="#fffaf4" opacity="0.13"/>
  <circle cx="629" cy="228" r="97" fill="#f6bc42" opacity="0.16"/>
  <circle cx="256" cy="158" r="5" fill="#ff4f6d" opacity="0.41000000000000003"/><circle cx="563" cy="247" r="5" fill="#ff4f6d" opacity="0.4"/><circle cx="358" cy="321" r="5" fill="#ff4f6d" opacity="0.43000000000000005"/><circle cx="665" cy="69" r="5" fill="#ff4f6d" opacity="0.42000000000000004"/><circle cx="52" cy="172" r="5" fill="#ff4f6d" opacity="0.37"/><circle cx="359" cy="261" r="5" fill="#ff4f6d" opacity="0.36000000000000004"/><circle cx="154" cy="336" r="5" fill="#ff4f6d" opacity="0.39"/><circle cx="461" cy="83" r="5" fill="#ff4f6d" opacity="0.38"/><circle cx="664" cy="129" r="4" fill="#ff4f6d" opacity="0.49"/>
  <rect width="800" height="420" fill="#fffaf4"/><circle cx="620" cy="90" r="120" fill="#ff4f6d" opacity=".42"/><rect x="190" y="182" width="420" height="198" rx="22" fill="#f6bc42"/><rect x="190" y="108" width="420" height="70" rx="18" fill="#fffaf4"/><path d="M228 108l58 70M330 108l58 70M432 108l58 70M534 108l58 70" stroke="#fffaf4" stroke-width="20"/><rect x="244" y="254" width="312" height="18" rx="9" fill="#fffaf4" opacity=".16"/>
</svg>
