<svg xmlns="http://www.w3.org/2000/svg" viewBox="0 0 800 420" role="img" aria-label="Ilustracion propia de cine y rodaje para esta pregunta">
  <defs>
    <linearGradient id="bg" x1="0" x2="1" y1="0" y2="1">
      <stop stop-color="#15191d"/>
      <stop offset="1" stop-color="#ff4f6d" stop-opacity="0.22"/>
    </linearGradient>
  </defs>
  <rect width="800" height="420" fill="url(#bg)"/>
  <circle cx="523" cy="210" r="111" fill="#fffaf4" opacity="0.13"/>
  <circle cx="299" cy="152" r="119" fill="#f6bc42" opacity="0.16"/>
  <circle cx="668" cy="320" r="5" fill="#ff4f6d" opacity="0.63"/><circle cx="259" cy="67" r="5" fill="#ff4f6d" opacity="0.6200000000000001"/><circle cx="54" cy="142" r="5" fill="#ff4f6d" opacity="0.65"/><circle cx="361" cy="231" r="5" fill="#ff4f6d" opacity="0.64"/><circle cx="156" cy="306" r="5" fill="#ff4f6d" opacity="0.67"/><circle cx="463" cy="53" r="5" fill="#ff4f6d" opacity="0.66"/><circle cx="258" cy="127" r="5" fill="#ff4f6d" opacity="0.69"/><circle cx="565" cy="217" r="5" fill="#ff4f6d" opacity="0.68"/><circle cx="360" cy="291" r="5" fill="#ff4f6d" opacity="0.71"/>
  <rect width="800" height="420" fill="#fffaf4"/><circle cx="540" cy="142" r="120" fill="#ff4f6d" opacity=".42"/><rect x="190" y="182" width="420" height="198" rx="22" fill="#f6bc42"/><rect x="190" y="124" width="420" height="70" rx="18" fill="#fffaf4"/><path d="M228 124l58 70M330 124l58 70M432 124l58 70M534 124l58 70" stroke="#fffaf4" stroke-width="20"/><rect x="244" y="254" width="312" height="18" rx="9" fill="#fffaf4" opacity=".16"/>
</svg>
