<svg xmlns="http://www.w3.org/2000/svg" viewBox="0 0 800 420" role="img" aria-label="Ilustracion propia de cine y rodaje para esta pregunta">
  <defs>
    <linearGradient id="bg" x1="0" x2="1" y1="0" y2="1">
      <stop stop-color="#15191d"/>
      <stop offset="1" stop-color="#fffaf4" stop-opacity="0.22"/>
    </linearGradient>
  </defs>
  <rect width="800" height="420" fill="url(#bg)"/>
  <circle cx="169" cy="91" r="122" fill="#fffaf4" opacity="0.13"/>
  <circle cx="630" cy="280" r="121" fill="#f6bc42" opacity="0.16"/>
  <circle cx="244" cy="59" r="5" fill="#ff4f6d" opacity="0.55"/><circle cx="551" cy="148" r="5" fill="#ff4f6d" opacity="0.54"/><circle cx="346" cy="223" r="5" fill="#ff4f6d" opacity="0.5700000000000001"/><circle cx="653" cy="312" r="5" fill="#ff4f6d" opacity="0.56"/><circle cx="448" cy="45" r="5" fill="#ff4f6d" opacity="0.5900000000000001"/><circle cx="755" cy="134" r="5" fill="#ff4f6d" opacity="0.5800000000000001"/><circle cx="550" cy="208" r="5" fill="#ff4f6d" opacity="0.6100000000000001"/><circle cx="141" cy="298" r="5" fill="#ff4f6d" opacity="0.6000000000000001"/><circle cx="552" cy="88" r="5" fill="#ff4f6d" opacity="0.47000000000000003"/>
  <rect width="800" height="420" fill="#fffaf4"/><circle cx="500" cy="168" r="120" fill="#ff4f6d" opacity=".42"/><rect x="190" y="182" width="420" height="198" rx="22" fill="#f6bc42"/><rect x="190" y="132" width="420" height="70" rx="18" fill="#fffaf4"/><path d="M228 132l58 70M330 132l58 70M432 132l58 70M534 132l58 70" stroke="#fffaf4" stroke-width="20"/><rect x="244" y="254" width="312" height="18" rx="9" fill="#fffaf4" opacity=".16"/>
</svg>
