<svg xmlns="http://www.w3.org/2000/svg" viewBox="0 0 800 420" role="img" aria-label="Ilustracion propia de cine y rodaje para esta pregunta">
  <defs>
    <linearGradient id="bg" x1="0" x2="1" y1="0" y2="1">
      <stop stop-color="#15191d"/>
      <stop offset="1" stop-color="#f6bc42" stop-opacity="0.22"/>
    </linearGradient>
  </defs>
  <rect width="800" height="420" fill="url(#bg)"/>
  <circle cx="103" cy="346" r="87" fill="#fffaf4" opacity="0.13"/>
  <circle cx="96" cy="347" r="126" fill="#f6bc42" opacity="0.16"/>
  <circle cx="504" cy="122" r="5" fill="#ff4f6d" opacity="0.35000000000000003"/><circle cx="95" cy="211" r="5" fill="#ff4f6d" opacity="0.34"/><circle cx="606" cy="286" r="5" fill="#ff4f6d" opacity="0.37"/><circle cx="197" cy="375" r="5" fill="#ff4f6d" opacity="0.36000000000000004"/><circle cx="300" cy="137" r="5" fill="#ff4f6d" opacity="0.31000000000000005"/><circle cx="607" cy="226" r="5" fill="#ff4f6d" opacity="0.30000000000000004"/><circle cx="402" cy="300" r="5" fill="#ff4f6d" opacity="0.33"/><circle cx="709" cy="48" r="5" fill="#ff4f6d" opacity="0.32"/><circle cx="196" cy="93" r="5" fill="#ff4f6d" opacity="0.43000000000000005"/>
  <rect width="800" height="420" fill="#fffaf4"/><circle cx="540" cy="142" r="120" fill="#ff4f6d" opacity=".42"/><rect x="190" y="182" width="420" height="198" rx="22" fill="#f6bc42"/><rect x="190" y="124" width="420" height="70" rx="18" fill="#fffaf4"/><path d="M228 124l58 70M330 124l58 70M432 124l58 70M534 124l58 70" stroke="#fffaf4" stroke-width="20"/><rect x="244" y="254" width="312" height="18" rx="9" fill="#fffaf4" opacity=".16"/>
</svg>
