<svg xmlns="http://www.w3.org/2000/svg" viewBox="0 0 800 420" role="img" aria-label="Ilustracion propia de cine y rodaje para esta pregunta">
  <defs>
    <linearGradient id="bg" x1="0" x2="1" y1="0" y2="1">
      <stop stop-color="#15191d"/>
      <stop offset="1" stop-color="#f6bc42" stop-opacity="0.22"/>
    </linearGradient>
  </defs>
  <rect width="800" height="420" fill="url(#bg)"/>
  <circle cx="539" cy="153" r="113" fill="#fffaf4" opacity="0.13"/>
  <circle cx="151" cy="180" r="70" fill="#f6bc42" opacity="0.16"/>
  <circle cx="405" cy="279" r="2" fill="#ff4f6d" opacity="0.39"/><circle cx="98" cy="190" r="2" fill="#ff4f6d" opacity="0.4"/><circle cx="303" cy="116" r="2" fill="#ff4f6d" opacity="0.37"/><circle cx="712" cy="369" r="2" fill="#ff4f6d" opacity="0.38"/><circle cx="609" cy="265" r="2" fill="#ff4f6d" opacity="0.43000000000000005"/><circle cx="302" cy="176" r="2" fill="#ff4f6d" opacity="0.44000000000000006"/><circle cx="507" cy="101" r="2" fill="#ff4f6d" opacity="0.41000000000000003"/><circle cx="200" cy="354" r="2" fill="#ff4f6d" opacity="0.42000000000000004"/><circle cx="97" cy="250" r="2" fill="#ff4f6d" opacity="0.47000000000000003"/>
  <rect width="800" height="420" fill="#fffaf4"/><circle cx="500" cy="168" r="120" fill="#ff4f6d" opacity=".42"/><rect x="190" y="182" width="420" height="198" rx="22" fill="#f6bc42"/><rect x="190" y="132" width="420" height="70" rx="18" fill="#fffaf4"/><path d="M228 132l58 70M330 132l58 70M432 132l58 70M534 132l58 70" stroke="#fffaf4" stroke-width="20"/><rect x="244" y="254" width="312" height="18" rx="9" fill="#fffaf4" opacity=".16"/>
</svg>
