<svg xmlns="http://www.w3.org/2000/svg" viewBox="0 0 800 420" role="img" aria-label="Ilustracion propia de cine y rodaje para esta pregunta">
  <defs>
    <linearGradient id="bg" x1="0" x2="1" y1="0" y2="1">
      <stop stop-color="#15191d"/>
      <stop offset="1" stop-color="#f6bc42" stop-opacity="0.22"/>
    </linearGradient>
  </defs>
  <rect width="800" height="420" fill="url(#bg)"/>
  <circle cx="465" cy="89" r="91" fill="#fffaf4" opacity="0.13"/>
  <circle cx="517" cy="65" r="97" fill="#f6bc42" opacity="0.16"/>
  <circle cx="291" cy="56" r="5" fill="#ff4f6d" opacity="0.67"/><circle cx="700" cy="309" r="5" fill="#ff4f6d" opacity="0.68"/><circle cx="393" cy="220" r="5" fill="#ff4f6d" opacity="0.69"/><circle cx="86" cy="130" r="5" fill="#ff4f6d" opacity="0.7"/><circle cx="495" cy="41" r="5" fill="#ff4f6d" opacity="0.71"/><circle cx="188" cy="294" r="5" fill="#ff4f6d" opacity="0.72"/><circle cx="597" cy="205" r="5" fill="#ff4f6d" opacity="0.28"/><circle cx="290" cy="116" r="5" fill="#ff4f6d" opacity="0.29000000000000004"/><circle cx="599" cy="85" r="5" fill="#ff4f6d" opacity="0.5900000000000001"/>
  <rect width="800" height="420" fill="#fffaf4"/><circle cx="460" cy="194" r="120" fill="#ff4f6d" opacity=".42"/><rect x="190" y="182" width="420" height="198" rx="22" fill="#f6bc42"/><rect x="190" y="140" width="420" height="70" rx="18" fill="#fffaf4"/><path d="M228 140l58 70M330 140l58 70M432 140l58 70M534 140l58 70" stroke="#fffaf4" stroke-width="20"/><rect x="244" y="254" width="312" height="18" rx="9" fill="#fffaf4" opacity=".16"/>
</svg>
