<svg xmlns="http://www.w3.org/2000/svg" viewBox="0 0 800 420" role="img" aria-label="Ilustracion propia de cine y rodaje para esta pregunta">
  <defs>
    <linearGradient id="bg" x1="0" x2="1" y1="0" y2="1">
      <stop stop-color="#15191d"/>
      <stop offset="1" stop-color="#15191d" stop-opacity="0.22"/>
    </linearGradient>
  </defs>
  <rect width="800" height="420" fill="url(#bg)"/>
  <circle cx="441" cy="82" r="102" fill="#fffaf4" opacity="0.13"/>
  <circle cx="289" cy="100" r="98" fill="#f6bc42" opacity="0.16"/>
  <circle cx="410" cy="138" r="3" fill="#ff4f6d" opacity="0.5900000000000001"/><circle cx="717" cy="227" r="3" fill="#ff4f6d" opacity="0.5800000000000001"/><circle cx="308" cy="316" r="3" fill="#ff4f6d" opacity="0.5700000000000001"/><circle cx="615" cy="64" r="3" fill="#ff4f6d" opacity="0.56"/><circle cx="206" cy="153" r="3" fill="#ff4f6d" opacity="0.55"/><circle cx="513" cy="242" r="3" fill="#ff4f6d" opacity="0.54"/><circle cx="104" cy="331" r="4" fill="#ff4f6d" opacity="0.53"/><circle cx="411" cy="78" r="4" fill="#ff4f6d" opacity="0.52"/><circle cx="102" cy="109" r="3" fill="#ff4f6d" opacity="0.67"/>
  <rect width="800" height="420" fill="#fffaf4"/><circle cx="620" cy="90" r="120" fill="#ff4f6d" opacity=".42"/><rect x="190" y="182" width="420" height="198" rx="22" fill="#f6bc42"/><rect x="190" y="108" width="420" height="70" rx="18" fill="#fffaf4"/><path d="M228 108l58 70M330 108l58 70M432 108l58 70M534 108l58 70" stroke="#fffaf4" stroke-width="20"/><rect x="244" y="254" width="312" height="18" rx="9" fill="#fffaf4" opacity=".16"/>
</svg>
