<svg xmlns="http://www.w3.org/2000/svg" viewBox="0 0 800 420" role="img" aria-label="Ilustracion propia de arte y museo para esta pregunta">
  <defs>
    <linearGradient id="bg" x1="0" x2="1" y1="0" y2="1">
      <stop stop-color="#fff2df"/>
      <stop offset="1" stop-color="#12b7a6" stop-opacity="0.22"/>
    </linearGradient>
  </defs>
  <rect width="800" height="420" fill="url(#bg)"/>
  <circle cx="187" cy="347" r="89" fill="#6f4a2d" opacity="0.13"/>
  <circle cx="182" cy="133" r="117" fill="#12b7a6" opacity="0.16"/>
  <circle cx="165" cy="351" r="4" fill="#ff4f6d" opacity="0.6000000000000001"/><circle cx="574" cy="262" r="4" fill="#ff4f6d" opacity="0.6100000000000001"/><circle cx="63" cy="188" r="4" fill="#ff4f6d" opacity="0.5800000000000001"/><circle cx="472" cy="98" r="4" fill="#ff4f6d" opacity="0.5900000000000001"/><circle cx="369" cy="337" r="4" fill="#ff4f6d" opacity="0.64"/><circle cx="62" cy="248" r="4" fill="#ff4f6d" opacity="0.65"/><circle cx="267" cy="173" r="4" fill="#ff4f6d" opacity="0.6200000000000001"/><circle cx="676" cy="84" r="4" fill="#ff4f6d" opacity="0.63"/><circle cx="473" cy="38" r="4" fill="#ff4f6d" opacity="0.52"/>
  <rect x="258" y="54" width="304" height="312" rx="24" fill="#6f4a2d"/><rect x="288" y="84" width="244" height="252" rx="16" fill="#d9c092"/><circle cx="410" cy="178" r="54" fill="#f0c7a5"/><path d="M340 318c12-82 42-120 70-120s58 38 70 120z" fill="#ff4f6d"/><path d="M354 154c36-72 116-46 122 10-36-18-74-18-122-10z" fill="#4a2d22"/>
</svg>
