<svg xmlns="http://www.w3.org/2000/svg" viewBox="0 0 800 420" role="img" aria-label="Ilustracion propia de cine y rodaje para esta pregunta">
  <defs>
    <linearGradient id="bg" x1="0" x2="1" y1="0" y2="1">
      <stop stop-color="#15191d"/>
      <stop offset="1" stop-color="#ff4f6d" stop-opacity="0.22"/>
    </linearGradient>
  </defs>
  <rect width="800" height="420" fill="url(#bg)"/>
  <circle cx="254" cy="83" r="81" fill="#fffaf4" opacity="0.13"/>
  <circle cx="190" cy="207" r="116" fill="#f6bc42" opacity="0.16"/>
  <circle cx="589" cy="163" r="3" fill="#ff4f6d" opacity="0.35000000000000003"/><circle cx="282" cy="74" r="3" fill="#ff4f6d" opacity="0.36000000000000004"/><circle cx="487" cy="341" r="3" fill="#ff4f6d" opacity="0.33"/><circle cx="180" cy="252" r="3" fill="#ff4f6d" opacity="0.34"/><circle cx="77" cy="148" r="2" fill="#ff4f6d" opacity="0.39"/><circle cx="486" cy="59" r="2" fill="#ff4f6d" opacity="0.4"/><circle cx="691" cy="326" r="2" fill="#ff4f6d" opacity="0.37"/><circle cx="384" cy="237" r="2" fill="#ff4f6d" opacity="0.38"/><circle cx="281" cy="133" r="2" fill="#ff4f6d" opacity="0.43000000000000005"/>
  <rect width="800" height="420" fill="#fffaf4"/><circle cx="500" cy="168" r="120" fill="#ff4f6d" opacity=".42"/><rect x="190" y="182" width="420" height="198" rx="22" fill="#f6bc42"/><rect x="190" y="132" width="420" height="70" rx="18" fill="#fffaf4"/><path d="M228 132l58 70M330 132l58 70M432 132l58 70M534 132l58 70" stroke="#fffaf4" stroke-width="20"/><rect x="244" y="254" width="312" height="18" rx="9" fill="#fffaf4" opacity=".16"/>
</svg>
