<svg xmlns="http://www.w3.org/2000/svg" viewBox="0 0 800 420" role="img" aria-label="Ilustracion propia de cine y rodaje para esta pregunta">
  <defs>
    <linearGradient id="bg" x1="0" x2="1" y1="0" y2="1">
      <stop stop-color="#15191d"/>
      <stop offset="1" stop-color="#ff4f6d" stop-opacity="0.22"/>
    </linearGradient>
  </defs>
  <rect width="800" height="420" fill="url(#bg)"/>
  <circle cx="125" cy="312" r="69" fill="#fffaf4" opacity="0.13"/>
  <circle cx="474" cy="129" r="104" fill="#f6bc42" opacity="0.16"/>
  <circle cx="264" cy="70" r="3" fill="#ff4f6d" opacity="0.53"/><circle cx="571" cy="159" r="3" fill="#ff4f6d" opacity="0.52"/><circle cx="366" cy="233" r="3" fill="#ff4f6d" opacity="0.55"/><circle cx="673" cy="322" r="3" fill="#ff4f6d" opacity="0.54"/><circle cx="468" cy="55" r="3" fill="#ff4f6d" opacity="0.5700000000000001"/><circle cx="59" cy="144" r="3" fill="#ff4f6d" opacity="0.56"/><circle cx="570" cy="219" r="3" fill="#ff4f6d" opacity="0.5900000000000001"/><circle cx="161" cy="308" r="3" fill="#ff4f6d" opacity="0.5800000000000001"/><circle cx="572" cy="99" r="4" fill="#ff4f6d" opacity="0.45000000000000007"/>
  <rect width="800" height="420" fill="#fffaf4"/><circle cx="460" cy="194" r="120" fill="#ff4f6d" opacity=".42"/><rect x="190" y="182" width="420" height="198" rx="22" fill="#f6bc42"/><rect x="190" y="140" width="420" height="70" rx="18" fill="#fffaf4"/><path d="M228 140l58 70M330 140l58 70M432 140l58 70M534 140l58 70" stroke="#fffaf4" stroke-width="20"/><rect x="244" y="254" width="312" height="18" rx="9" fill="#fffaf4" opacity=".16"/>
</svg>
