<svg xmlns="http://www.w3.org/2000/svg" viewBox="0 0 800 420" role="img" aria-label="Ilustracion propia de cine y rodaje para esta pregunta">
  <defs>
    <linearGradient id="bg" x1="0" x2="1" y1="0" y2="1">
      <stop stop-color="#15191d"/>
      <stop offset="1" stop-color="#fffaf4" stop-opacity="0.22"/>
    </linearGradient>
  </defs>
  <rect width="800" height="420" fill="url(#bg)"/>
  <circle cx="271" cy="332" r="108" fill="#fffaf4" opacity="0.13"/>
  <circle cx="417" cy="238" r="69" fill="#f6bc42" opacity="0.16"/>
  <circle cx="383" cy="311" r="2" fill="#ff4f6d" opacity="0.52"/><circle cx="76" cy="222" r="2" fill="#ff4f6d" opacity="0.53"/><circle cx="485" cy="133" r="2" fill="#ff4f6d" opacity="0.54"/><circle cx="178" cy="43" r="2" fill="#ff4f6d" opacity="0.55"/><circle cx="179" cy="325" r="2" fill="#ff4f6d" opacity="0.48000000000000004"/><circle cx="588" cy="236" r="2" fill="#ff4f6d" opacity="0.49"/><circle cx="281" cy="147" r="2" fill="#ff4f6d" opacity="0.5"/><circle cx="690" cy="58" r="2" fill="#ff4f6d" opacity="0.51"/><circle cx="691" cy="340" r="2" fill="#ff4f6d" opacity="0.44000000000000006"/>
  <rect width="800" height="420" fill="#fffaf4"/><circle cx="620" cy="90" r="120" fill="#ff4f6d" opacity=".42"/><rect x="190" y="182" width="420" height="198" rx="22" fill="#f6bc42"/><rect x="190" y="108" width="420" height="70" rx="18" fill="#fffaf4"/><path d="M228 108l58 70M330 108l58 70M432 108l58 70M534 108l58 70" stroke="#fffaf4" stroke-width="20"/><rect x="244" y="254" width="312" height="18" rx="9" fill="#fffaf4" opacity=".16"/>
</svg>
