<svg xmlns="http://www.w3.org/2000/svg" viewBox="0 0 800 420" role="img" aria-label="Ilustracion propia de cine y rodaje para esta pregunta">
  <defs>
    <linearGradient id="bg" x1="0" x2="1" y1="0" y2="1">
      <stop stop-color="#15191d"/>
      <stop offset="1" stop-color="#f6bc42" stop-opacity="0.22"/>
    </linearGradient>
  </defs>
  <rect width="800" height="420" fill="url(#bg)"/>
  <circle cx="395" cy="235" r="97" fill="#fffaf4" opacity="0.13"/>
  <circle cx="133" cy="83" r="128" fill="#f6bc42" opacity="0.16"/>
  <circle cx="195" cy="358" r="5" fill="#ff4f6d" opacity="0.49"/><circle cx="604" cy="269" r="5" fill="#ff4f6d" opacity="0.5"/><circle cx="297" cy="180" r="5" fill="#ff4f6d" opacity="0.51"/><circle cx="706" cy="91" r="5" fill="#ff4f6d" opacity="0.52"/><circle cx="707" cy="373" r="5" fill="#ff4f6d" opacity="0.45000000000000007"/><circle cx="400" cy="284" r="5" fill="#ff4f6d" opacity="0.46"/><circle cx="93" cy="195" r="5" fill="#ff4f6d" opacity="0.47000000000000003"/><circle cx="502" cy="105" r="5" fill="#ff4f6d" opacity="0.48000000000000004"/><circle cx="603" cy="329" r="4" fill="#ff4f6d" opacity="0.5700000000000001"/>
  <rect width="800" height="420" fill="#fffaf4"/><circle cx="460" cy="194" r="120" fill="#ff4f6d" opacity=".42"/><rect x="190" y="182" width="420" height="198" rx="22" fill="#f6bc42"/><rect x="190" y="140" width="420" height="70" rx="18" fill="#fffaf4"/><path d="M228 140l58 70M330 140l58 70M432 140l58 70M534 140l58 70" stroke="#fffaf4" stroke-width="20"/><rect x="244" y="254" width="312" height="18" rx="9" fill="#fffaf4" opacity=".16"/>
</svg>
