<svg xmlns="http://www.w3.org/2000/svg" viewBox="0 0 800 420" role="img" aria-label="Ilustracion propia de cine y rodaje para esta pregunta">
  <defs>
    <linearGradient id="bg" x1="0" x2="1" y1="0" y2="1">
      <stop stop-color="#15191d"/>
      <stop offset="1" stop-color="#ff4f6d" stop-opacity="0.22"/>
    </linearGradient>
  </defs>
  <rect width="800" height="420" fill="url(#bg)"/>
  <circle cx="542" cy="174" r="87" fill="#fffaf4" opacity="0.13"/>
  <circle cx="451" cy="254" r="136" fill="#f6bc42" opacity="0.16"/>
  <circle cx="741" cy="67" r="2" fill="#ff4f6d" opacity="0.46"/><circle cx="434" cy="320" r="2" fill="#ff4f6d" opacity="0.47000000000000003"/><circle cx="639" cy="245" r="2" fill="#ff4f6d" opacity="0.44000000000000006"/><circle cx="332" cy="156" r="2" fill="#ff4f6d" opacity="0.45000000000000007"/><circle cx="537" cy="81" r="2" fill="#ff4f6d" opacity="0.42000000000000004"/><circle cx="230" cy="334" r="2" fill="#ff4f6d" opacity="0.43000000000000005"/><circle cx="667" cy="132" r="3" fill="#ff4f6d" opacity="0.54"/><circle cx="128" cy="170" r="2" fill="#ff4f6d" opacity="0.41000000000000003"/><circle cx="565" cy="310" r="3" fill="#ff4f6d" opacity="0.52"/>
  <rect width="800" height="420" fill="#fffaf4"/><circle cx="580" cy="116" r="120" fill="#ff4f6d" opacity=".42"/><rect x="190" y="182" width="420" height="198" rx="22" fill="#f6bc42"/><rect x="190" y="116" width="420" height="70" rx="18" fill="#fffaf4"/><path d="M228 116l58 70M330 116l58 70M432 116l58 70M534 116l58 70" stroke="#fffaf4" stroke-width="20"/><rect x="244" y="254" width="312" height="18" rx="9" fill="#fffaf4" opacity=".16"/>
</svg>
