<svg xmlns="http://www.w3.org/2000/svg" viewBox="0 0 800 420" role="img" aria-label="Ilustracion propia de cine y rodaje para esta pregunta">
  <defs>
    <linearGradient id="bg" x1="0" x2="1" y1="0" y2="1">
      <stop stop-color="#15191d"/>
      <stop offset="1" stop-color="#15191d" stop-opacity="0.22"/>
    </linearGradient>
  </defs>
  <rect width="800" height="420" fill="url(#bg)"/>
  <circle cx="482" cy="303" r="82" fill="#fffaf4" opacity="0.13"/>
  <circle cx="294" cy="163" r="96" fill="#f6bc42" opacity="0.16"/>
  <circle cx="217" cy="365" r="3" fill="#ff4f6d" opacity="0.30000000000000004"/><circle cx="626" cy="276" r="3" fill="#ff4f6d" opacity="0.31000000000000005"/><circle cx="115" cy="201" r="3" fill="#ff4f6d" opacity="0.28"/><circle cx="524" cy="112" r="3" fill="#ff4f6d" opacity="0.29000000000000004"/><circle cx="421" cy="350" r="3" fill="#ff4f6d" opacity="0.34"/><circle cx="114" cy="261" r="3" fill="#ff4f6d" opacity="0.35000000000000003"/><circle cx="319" cy="187" r="3" fill="#ff4f6d" opacity="0.32"/><circle cx="728" cy="97" r="3" fill="#ff4f6d" opacity="0.33"/><circle cx="625" cy="336" r="3" fill="#ff4f6d" opacity="0.38"/>
  <rect width="800" height="420" fill="#fffaf4"/><circle cx="580" cy="116" r="120" fill="#ff4f6d" opacity=".42"/><rect x="190" y="182" width="420" height="198" rx="22" fill="#f6bc42"/><rect x="190" y="116" width="420" height="70" rx="18" fill="#fffaf4"/><path d="M228 116l58 70M330 116l58 70M432 116l58 70M534 116l58 70" stroke="#fffaf4" stroke-width="20"/><rect x="244" y="254" width="312" height="18" rx="9" fill="#fffaf4" opacity=".16"/>
</svg>
