<svg xmlns="http://www.w3.org/2000/svg" viewBox="0 0 800 420" role="img" aria-label="Ilustracion propia de cine y rodaje para esta pregunta">
  <defs>
    <linearGradient id="bg" x1="0" x2="1" y1="0" y2="1">
      <stop stop-color="#15191d"/>
      <stop offset="1" stop-color="#f6bc42" stop-opacity="0.22"/>
    </linearGradient>
  </defs>
  <rect width="800" height="420" fill="url(#bg)"/>
  <circle cx="101" cy="223" r="119" fill="#fffaf4" opacity="0.13"/>
  <circle cx="246" cy="260" r="80" fill="#f6bc42" opacity="0.16"/>
  <circle cx="185" cy="199" r="3" fill="#ff4f6d" opacity="0.67"/><circle cx="594" cy="110" r="3" fill="#ff4f6d" opacity="0.68"/><circle cx="83" cy="377" r="4" fill="#ff4f6d" opacity="0.65"/><circle cx="492" cy="288" r="4" fill="#ff4f6d" opacity="0.66"/><circle cx="697" cy="213" r="4" fill="#ff4f6d" opacity="0.63"/><circle cx="390" cy="124" r="4" fill="#ff4f6d" opacity="0.64"/><circle cx="595" cy="50" r="4" fill="#ff4f6d" opacity="0.6100000000000001"/><circle cx="288" cy="302" r="4" fill="#ff4f6d" opacity="0.6200000000000001"/><circle cx="493" cy="228" r="4" fill="#ff4f6d" opacity="0.5900000000000001"/>
  <rect width="800" height="420" fill="#fffaf4"/><circle cx="620" cy="90" r="120" fill="#ff4f6d" opacity=".42"/><rect x="190" y="182" width="420" height="198" rx="22" fill="#f6bc42"/><rect x="190" y="108" width="420" height="70" rx="18" fill="#fffaf4"/><path d="M228 108l58 70M330 108l58 70M432 108l58 70M534 108l58 70" stroke="#fffaf4" stroke-width="20"/><rect x="244" y="254" width="312" height="18" rx="9" fill="#fffaf4" opacity=".16"/>
</svg>
