<svg xmlns="http://www.w3.org/2000/svg" viewBox="0 0 800 420" role="img" aria-label="Ilustracion propia de cine y rodaje para esta pregunta">
  <defs>
    <linearGradient id="bg" x1="0" x2="1" y1="0" y2="1">
      <stop stop-color="#15191d"/>
      <stop offset="1" stop-color="#fffaf4" stop-opacity="0.22"/>
    </linearGradient>
  </defs>
  <rect width="800" height="420" fill="url(#bg)"/>
  <circle cx="494" cy="219" r="112" fill="#fffaf4" opacity="0.13"/>
  <circle cx="445" cy="331" r="120" fill="#f6bc42" opacity="0.16"/>
  <circle cx="126" cy="127" r="4" fill="#ff4f6d" opacity="0.64"/><circle cx="433" cy="217" r="4" fill="#ff4f6d" opacity="0.63"/><circle cx="740" cy="306" r="4" fill="#ff4f6d" opacity="0.6200000000000001"/><circle cx="331" cy="53" r="4" fill="#ff4f6d" opacity="0.6100000000000001"/><circle cx="330" cy="113" r="4" fill="#ff4f6d" opacity="0.68"/><circle cx="637" cy="202" r="4" fill="#ff4f6d" opacity="0.67"/><circle cx="228" cy="291" r="4" fill="#ff4f6d" opacity="0.66"/><circle cx="535" cy="38" r="4" fill="#ff4f6d" opacity="0.65"/><circle cx="434" cy="157" r="4" fill="#ff4f6d" opacity="0.56"/>
  <rect width="800" height="420" fill="#fffaf4"/><circle cx="500" cy="168" r="120" fill="#ff4f6d" opacity=".42"/><rect x="190" y="182" width="420" height="198" rx="22" fill="#f6bc42"/><rect x="190" y="132" width="420" height="70" rx="18" fill="#fffaf4"/><path d="M228 132l58 70M330 132l58 70M432 132l58 70M534 132l58 70" stroke="#fffaf4" stroke-width="20"/><rect x="244" y="254" width="312" height="18" rx="9" fill="#fffaf4" opacity=".16"/>
</svg>
