<svg xmlns="http://www.w3.org/2000/svg" viewBox="0 0 800 420" role="img" aria-label="Ilustracion propia de cine y rodaje para esta pregunta">
  <defs>
    <linearGradient id="bg" x1="0" x2="1" y1="0" y2="1">
      <stop stop-color="#15191d"/>
      <stop offset="1" stop-color="#fffaf4" stop-opacity="0.22"/>
    </linearGradient>
  </defs>
  <rect width="800" height="420" fill="url(#bg)"/>
  <circle cx="279" cy="248" r="134" fill="#fffaf4" opacity="0.13"/>
  <circle cx="643" cy="85" r="142" fill="#f6bc42" opacity="0.16"/>
  <circle cx="647" cy="221" r="2" fill="#ff4f6d" opacity="0.34"/><circle cx="340" cy="131" r="2" fill="#ff4f6d" opacity="0.35000000000000003"/><circle cx="749" cy="42" r="2" fill="#ff4f6d" opacity="0.36000000000000004"/><circle cx="442" cy="295" r="2" fill="#ff4f6d" opacity="0.37"/><circle cx="135" cy="206" r="2" fill="#ff4f6d" opacity="0.38"/><circle cx="544" cy="117" r="2" fill="#ff4f6d" opacity="0.39"/><circle cx="237" cy="370" r="2" fill="#ff4f6d" opacity="0.4"/><circle cx="646" cy="281" r="2" fill="#ff4f6d" opacity="0.41000000000000003"/><circle cx="239" cy="250" r="2" fill="#ff4f6d" opacity="0.71"/>
  <rect width="800" height="420" fill="#fffaf4"/><circle cx="500" cy="168" r="120" fill="#ff4f6d" opacity=".42"/><rect x="190" y="182" width="420" height="198" rx="22" fill="#f6bc42"/><rect x="190" y="132" width="420" height="70" rx="18" fill="#fffaf4"/><path d="M228 132l58 70M330 132l58 70M432 132l58 70M534 132l58 70" stroke="#fffaf4" stroke-width="20"/><rect x="244" y="254" width="312" height="18" rx="9" fill="#fffaf4" opacity=".16"/>
</svg>
