<svg xmlns="http://www.w3.org/2000/svg" viewBox="0 0 800 420" role="img" aria-label="Ilustracion propia de cine y rodaje para esta pregunta">
  <defs>
    <linearGradient id="bg" x1="0" x2="1" y1="0" y2="1">
      <stop stop-color="#15191d"/>
      <stop offset="1" stop-color="#f6bc42" stop-opacity="0.22"/>
    </linearGradient>
  </defs>
  <rect width="800" height="420" fill="url(#bg)"/>
  <circle cx="107" cy="295" r="111" fill="#fffaf4" opacity="0.13"/>
  <circle cx="622" cy="126" r="139" fill="#f6bc42" opacity="0.16"/>
  <circle cx="317" cy="270" r="5" fill="#ff4f6d" opacity="0.29000000000000004"/><circle cx="726" cy="181" r="5" fill="#ff4f6d" opacity="0.30000000000000004"/><circle cx="215" cy="107" r="5" fill="#ff4f6d" opacity="0.72"/><circle cx="624" cy="359" r="5" fill="#ff4f6d" opacity="0.28"/><circle cx="113" cy="285" r="5" fill="#ff4f6d" opacity="0.7"/><circle cx="522" cy="196" r="5" fill="#ff4f6d" opacity="0.71"/><circle cx="727" cy="121" r="5" fill="#ff4f6d" opacity="0.68"/><circle cx="420" cy="374" r="5" fill="#ff4f6d" opacity="0.69"/><circle cx="725" cy="241" r="5" fill="#ff4f6d" opacity="0.37"/>
  <rect width="800" height="420" fill="#fffaf4"/><circle cx="580" cy="116" r="120" fill="#ff4f6d" opacity=".42"/><rect x="190" y="182" width="420" height="198" rx="22" fill="#f6bc42"/><rect x="190" y="116" width="420" height="70" rx="18" fill="#fffaf4"/><path d="M228 116l58 70M330 116l58 70M432 116l58 70M534 116l58 70" stroke="#fffaf4" stroke-width="20"/><rect x="244" y="254" width="312" height="18" rx="9" fill="#fffaf4" opacity=".16"/>
</svg>
