<svg xmlns="http://www.w3.org/2000/svg" viewBox="0 0 800 420" role="img" aria-label="Ilustracion propia de cine y rodaje para esta pregunta">
  <defs>
    <linearGradient id="bg" x1="0" x2="1" y1="0" y2="1">
      <stop stop-color="#15191d"/>
      <stop offset="1" stop-color="#fffaf4" stop-opacity="0.22"/>
    </linearGradient>
  </defs>
  <rect width="800" height="420" fill="url(#bg)"/>
  <circle cx="623" cy="219" r="114" fill="#fffaf4" opacity="0.13"/>
  <circle cx="461" cy="331" r="110" fill="#f6bc42" opacity="0.16"/>
  <circle cx="493" cy="99" r="2" fill="#ff4f6d" opacity="0.71"/><circle cx="186" cy="351" r="2" fill="#ff4f6d" opacity="0.72"/><circle cx="391" cy="277" r="2" fill="#ff4f6d" opacity="0.69"/><circle cx="84" cy="188" r="2" fill="#ff4f6d" opacity="0.7"/><circle cx="697" cy="84" r="2" fill="#ff4f6d" opacity="0.30000000000000004"/><circle cx="390" cy="337" r="2" fill="#ff4f6d" opacity="0.31000000000000005"/><circle cx="595" cy="262" r="2" fill="#ff4f6d" opacity="0.28"/><circle cx="288" cy="173" r="2" fill="#ff4f6d" opacity="0.29000000000000004"/><circle cx="185" cy="69" r="2" fill="#ff4f6d" opacity="0.34"/>
  <rect width="800" height="420" fill="#fffaf4"/><circle cx="540" cy="142" r="120" fill="#ff4f6d" opacity=".42"/><rect x="190" y="182" width="420" height="198" rx="22" fill="#f6bc42"/><rect x="190" y="124" width="420" height="70" rx="18" fill="#fffaf4"/><path d="M228 124l58 70M330 124l58 70M432 124l58 70M534 124l58 70" stroke="#fffaf4" stroke-width="20"/><rect x="244" y="254" width="312" height="18" rx="9" fill="#fffaf4" opacity=".16"/>
</svg>
