<svg xmlns="http://www.w3.org/2000/svg" viewBox="0 0 800 420" role="img" aria-label="Ilustracion propia de cine y rodaje para esta pregunta">
  <defs>
    <linearGradient id="bg" x1="0" x2="1" y1="0" y2="1">
      <stop stop-color="#15191d"/>
      <stop offset="1" stop-color="#f6bc42" stop-opacity="0.22"/>
    </linearGradient>
  </defs>
  <rect width="800" height="420" fill="url(#bg)"/>
  <circle cx="359" cy="169" r="121" fill="#fffaf4" opacity="0.13"/>
  <circle cx="278" cy="75" r="111" fill="#f6bc42" opacity="0.16"/>
  <circle cx="568" cy="360" r="4" fill="#ff4f6d" opacity="0.29000000000000004"/><circle cx="159" cy="107" r="4" fill="#ff4f6d" opacity="0.28"/><circle cx="670" cy="182" r="4" fill="#ff4f6d" opacity="0.31000000000000005"/><circle cx="261" cy="271" r="4" fill="#ff4f6d" opacity="0.30000000000000004"/><circle cx="56" cy="346" r="4" fill="#ff4f6d" opacity="0.33"/><circle cx="363" cy="93" r="4" fill="#ff4f6d" opacity="0.32"/><circle cx="158" cy="167" r="3" fill="#ff4f6d" opacity="0.35000000000000003"/><circle cx="465" cy="256" r="4" fill="#ff4f6d" opacity="0.34"/><circle cx="392" cy="261" r="4" fill="#ff4f6d" opacity="0.35000000000000003"/>
  <rect width="800" height="420" fill="#fffaf4"/><circle cx="500" cy="168" r="120" fill="#ff4f6d" opacity=".42"/><rect x="190" y="182" width="420" height="198" rx="22" fill="#f6bc42"/><rect x="190" y="132" width="420" height="70" rx="18" fill="#fffaf4"/><path d="M228 132l58 70M330 132l58 70M432 132l58 70M534 132l58 70" stroke="#fffaf4" stroke-width="20"/><rect x="244" y="254" width="312" height="18" rx="9" fill="#fffaf4" opacity=".16"/>
</svg>
