<svg xmlns="http://www.w3.org/2000/svg" viewBox="0 0 800 420" role="img" aria-label="Ilustracion propia de cine y rodaje para esta pregunta">
  <defs>
    <linearGradient id="bg" x1="0" x2="1" y1="0" y2="1">
      <stop stop-color="#15191d"/>
      <stop offset="1" stop-color="#15191d" stop-opacity="0.22"/>
    </linearGradient>
  </defs>
  <rect width="800" height="420" fill="url(#bg)"/>
  <circle cx="187" cy="101" r="130" fill="#fffaf4" opacity="0.13"/>
  <circle cx="332" cy="66" r="82" fill="#f6bc42" opacity="0.16"/>
  <circle cx="235" cy="347" r="3" fill="#ff4f6d" opacity="0.6000000000000001"/><circle cx="644" cy="258" r="3" fill="#ff4f6d" opacity="0.6100000000000001"/><circle cx="337" cy="169" r="3" fill="#ff4f6d" opacity="0.6200000000000001"/><circle cx="746" cy="79" r="3" fill="#ff4f6d" opacity="0.63"/><circle cx="747" cy="361" r="3" fill="#ff4f6d" opacity="0.56"/><circle cx="440" cy="272" r="3" fill="#ff4f6d" opacity="0.5700000000000001"/><circle cx="133" cy="183" r="3" fill="#ff4f6d" opacity="0.5800000000000001"/><circle cx="542" cy="94" r="3" fill="#ff4f6d" opacity="0.5900000000000001"/><circle cx="643" cy="318" r="3" fill="#ff4f6d" opacity="0.68"/>
  <rect width="800" height="420" fill="#fffaf4"/><circle cx="580" cy="116" r="120" fill="#ff4f6d" opacity=".42"/><rect x="190" y="182" width="420" height="198" rx="22" fill="#f6bc42"/><rect x="190" y="116" width="420" height="70" rx="18" fill="#fffaf4"/><path d="M228 116l58 70M330 116l58 70M432 116l58 70M534 116l58 70" stroke="#fffaf4" stroke-width="20"/><rect x="244" y="254" width="312" height="18" rx="9" fill="#fffaf4" opacity=".16"/>
</svg>
