<svg xmlns="http://www.w3.org/2000/svg" viewBox="0 0 800 420" role="img" aria-label="Ilustracion propia de cine y rodaje para esta pregunta">
  <defs>
    <linearGradient id="bg" x1="0" x2="1" y1="0" y2="1">
      <stop stop-color="#15191d"/>
      <stop offset="1" stop-color="#f6bc42" stop-opacity="0.22"/>
    </linearGradient>
  </defs>
  <rect width="800" height="420" fill="url(#bg)"/>
  <circle cx="447" cy="174" r="67" fill="#fffaf4" opacity="0.13"/>
  <circle cx="139" cy="111" r="124" fill="#f6bc42" opacity="0.16"/>
  <circle cx="550" cy="55" r="2" fill="#ff4f6d" opacity="0.55"/><circle cx="141" cy="145" r="2" fill="#ff4f6d" opacity="0.54"/><circle cx="448" cy="234" r="2" fill="#ff4f6d" opacity="0.53"/><circle cx="755" cy="323" r="2" fill="#ff4f6d" opacity="0.52"/><circle cx="754" cy="41" r="2" fill="#ff4f6d" opacity="0.5900000000000001"/><circle cx="345" cy="130" r="2" fill="#ff4f6d" opacity="0.5800000000000001"/><circle cx="652" cy="219" r="2" fill="#ff4f6d" opacity="0.5700000000000001"/><circle cx="243" cy="308" r="2" fill="#ff4f6d" opacity="0.56"/><circle cx="142" cy="85" r="2" fill="#ff4f6d" opacity="0.47000000000000003"/>
  <rect width="800" height="420" fill="#fffaf4"/><circle cx="580" cy="116" r="120" fill="#ff4f6d" opacity=".42"/><rect x="190" y="182" width="420" height="198" rx="22" fill="#f6bc42"/><rect x="190" y="116" width="420" height="70" rx="18" fill="#fffaf4"/><path d="M228 116l58 70M330 116l58 70M432 116l58 70M534 116l58 70" stroke="#fffaf4" stroke-width="20"/><rect x="244" y="254" width="312" height="18" rx="9" fill="#fffaf4" opacity=".16"/>
</svg>
