<svg xmlns="http://www.w3.org/2000/svg" viewBox="0 0 800 420" role="img" aria-label="Ilustracion propia de cine y rodaje para esta pregunta">
  <defs>
    <linearGradient id="bg" x1="0" x2="1" y1="0" y2="1">
      <stop stop-color="#15191d"/>
      <stop offset="1" stop-color="#f6bc42" stop-opacity="0.22"/>
    </linearGradient>
  </defs>
  <rect width="800" height="420" fill="url(#bg)"/>
  <circle cx="157" cy="81" r="99" fill="#fffaf4" opacity="0.13"/>
  <circle cx="478" cy="135" r="108" fill="#f6bc42" opacity="0.16"/>
  <circle cx="516" cy="149" r="2" fill="#ff4f6d" opacity="0.6100000000000001"/><circle cx="107" cy="238" r="2" fill="#ff4f6d" opacity="0.6000000000000001"/><circle cx="618" cy="313" r="2" fill="#ff4f6d" opacity="0.63"/><circle cx="209" cy="60" r="2" fill="#ff4f6d" opacity="0.6200000000000001"/><circle cx="312" cy="164" r="2" fill="#ff4f6d" opacity="0.5700000000000001"/><circle cx="619" cy="253" r="2" fill="#ff4f6d" opacity="0.56"/><circle cx="414" cy="327" r="2" fill="#ff4f6d" opacity="0.5900000000000001"/><circle cx="721" cy="75" r="2" fill="#ff4f6d" opacity="0.5800000000000001"/><circle cx="108" cy="178" r="3" fill="#ff4f6d" opacity="0.53"/>
  <rect width="800" height="420" fill="#fffaf4"/><circle cx="580" cy="116" r="120" fill="#ff4f6d" opacity=".42"/><rect x="190" y="182" width="420" height="198" rx="22" fill="#f6bc42"/><rect x="190" y="116" width="420" height="70" rx="18" fill="#fffaf4"/><path d="M228 116l58 70M330 116l58 70M432 116l58 70M534 116l58 70" stroke="#fffaf4" stroke-width="20"/><rect x="244" y="254" width="312" height="18" rx="9" fill="#fffaf4" opacity=".16"/>
</svg>
