<svg xmlns="http://www.w3.org/2000/svg" viewBox="0 0 800 420" role="img" aria-label="Ilustracion propia de cine y rodaje para esta pregunta">
  <defs>
    <linearGradient id="bg" x1="0" x2="1" y1="0" y2="1">
      <stop stop-color="#15191d"/>
      <stop offset="1" stop-color="#ff4f6d" stop-opacity="0.22"/>
    </linearGradient>
  </defs>
  <rect width="800" height="420" fill="url(#bg)"/>
  <circle cx="261" cy="260" r="121" fill="#fffaf4" opacity="0.13"/>
  <circle cx="416" cy="194" r="81" fill="#f6bc42" opacity="0.16"/>
  <circle cx="563" cy="183" r="3" fill="#ff4f6d" opacity="0.28"/><circle cx="256" cy="94" r="3" fill="#ff4f6d" opacity="0.29000000000000004"/><circle cx="665" cy="346" r="3" fill="#ff4f6d" opacity="0.30000000000000004"/><circle cx="358" cy="257" r="3" fill="#ff4f6d" opacity="0.31000000000000005"/><circle cx="51" cy="168" r="3" fill="#ff4f6d" opacity="0.32"/><circle cx="460" cy="79" r="3" fill="#ff4f6d" opacity="0.33"/><circle cx="153" cy="332" r="3" fill="#ff4f6d" opacity="0.34"/><circle cx="562" cy="243" r="3" fill="#ff4f6d" opacity="0.35000000000000003"/><circle cx="155" cy="212" r="4" fill="#ff4f6d" opacity="0.65"/>
  <rect width="800" height="420" fill="#fffaf4"/><circle cx="620" cy="90" r="120" fill="#ff4f6d" opacity=".42"/><rect x="190" y="182" width="420" height="198" rx="22" fill="#f6bc42"/><rect x="190" y="108" width="420" height="70" rx="18" fill="#fffaf4"/><path d="M228 108l58 70M330 108l58 70M432 108l58 70M534 108l58 70" stroke="#fffaf4" stroke-width="20"/><rect x="244" y="254" width="312" height="18" rx="9" fill="#fffaf4" opacity=".16"/>
</svg>
