<svg xmlns="http://www.w3.org/2000/svg" viewBox="0 0 800 420" role="img" aria-label="Ilustracion propia de espacio y planetas para esta pregunta">
  <defs>
    <linearGradient id="bg" x1="0" x2="1" y1="0" y2="1">
      <stop stop-color="#12171a"/>
      <stop offset="1" stop-color="#f6bc42" stop-opacity="0.22"/>
    </linearGradient>
  </defs>
  <rect width="800" height="420" fill="url(#bg)"/>
  <circle cx="171" cy="86" r="97" fill="#e46b4f" opacity="0.13"/>
  <circle cx="105" cy="100" r="108" fill="#f6bc42" opacity="0.16"/>
  <circle cx="378" cy="100" r="2" fill="#315be8" opacity="0.34"/><circle cx="685" cy="189" r="2" fill="#315be8" opacity="0.33"/><circle cx="276" cy="278" r="2" fill="#315be8" opacity="0.32"/><circle cx="583" cy="368" r="2" fill="#315be8" opacity="0.31000000000000005"/><circle cx="582" cy="86" r="2" fill="#315be8" opacity="0.38"/><circle cx="173" cy="175" r="2" fill="#315be8" opacity="0.37"/><circle cx="480" cy="264" r="2" fill="#315be8" opacity="0.36000000000000004"/><circle cx="71" cy="353" r="2" fill="#315be8" opacity="0.35000000000000003"/><circle cx="686" cy="129" r="2" fill="#315be8" opacity="0.71"/>
  <rect width="800" height="420" fill="#e46b4f"/><circle cx="286" cy="218" r="70" fill="#f6bc42"/><path d="M230 212c36 14 66-22 112-2" stroke="#8f3327" stroke-width="12" stroke-linecap="round" opacity=".36"/><circle cx="510" cy="160" r="48" fill="#315be8"/><circle cx="540" cy="276" r="32" fill="#fffaf4"/><path d="M176 324c140 46 308 54 476 0" stroke="#fff" stroke-width="5" fill="none" opacity=".38"/>
</svg>
