<svg xmlns="http://www.w3.org/2000/svg" viewBox="0 0 800 420" role="img" aria-label="Ilustracion propia de cine y rodaje para esta pregunta">
  <defs>
    <linearGradient id="bg" x1="0" x2="1" y1="0" y2="1">
      <stop stop-color="#15191d"/>
      <stop offset="1" stop-color="#f6bc42" stop-opacity="0.22"/>
    </linearGradient>
  </defs>
  <rect width="800" height="420" fill="url(#bg)"/>
  <circle cx="148" cy="288" r="67" fill="#fffaf4" opacity="0.13"/>
  <circle cx="177" cy="161" r="114" fill="#f6bc42" opacity="0.16"/>
  <circle cx="677" cy="52" r="5" fill="#ff4f6d" opacity="0.65"/><circle cx="370" cy="305" r="5" fill="#ff4f6d" opacity="0.66"/><circle cx="575" cy="231" r="5" fill="#ff4f6d" opacity="0.63"/><circle cx="268" cy="141" r="5" fill="#ff4f6d" opacity="0.64"/><circle cx="165" cy="38" r="5" fill="#ff4f6d" opacity="0.69"/><circle cx="574" cy="291" r="5" fill="#ff4f6d" opacity="0.7"/><circle cx="63" cy="216" r="5" fill="#ff4f6d" opacity="0.67"/><circle cx="472" cy="127" r="5" fill="#ff4f6d" opacity="0.68"/><circle cx="269" cy="81" r="5" fill="#ff4f6d" opacity="0.5700000000000001"/>
  <rect width="800" height="420" fill="#fffaf4"/><circle cx="540" cy="142" r="120" fill="#ff4f6d" opacity=".42"/><rect x="190" y="182" width="420" height="198" rx="22" fill="#f6bc42"/><rect x="190" y="124" width="420" height="70" rx="18" fill="#fffaf4"/><path d="M228 124l58 70M330 124l58 70M432 124l58 70M534 124l58 70" stroke="#fffaf4" stroke-width="20"/><rect x="244" y="254" width="312" height="18" rx="9" fill="#fffaf4" opacity=".16"/>
</svg>
