<svg xmlns="http://www.w3.org/2000/svg" viewBox="0 0 800 420" role="img" aria-label="Ilustracion propia de cine y rodaje para esta pregunta">
  <defs>
    <linearGradient id="bg" x1="0" x2="1" y1="0" y2="1">
      <stop stop-color="#15191d"/>
      <stop offset="1" stop-color="#ff4f6d" stop-opacity="0.22"/>
    </linearGradient>
  </defs>
  <rect width="800" height="420" fill="url(#bg)"/>
  <circle cx="432" cy="64" r="95" fill="#fffaf4" opacity="0.13"/>
  <circle cx="138" cy="169" r="67" fill="#f6bc42" opacity="0.16"/>
  <circle cx="745" cy="305" r="2" fill="#ff4f6d" opacity="0.5"/><circle cx="438" cy="216" r="2" fill="#ff4f6d" opacity="0.51"/><circle cx="643" cy="141" r="2" fill="#ff4f6d" opacity="0.48000000000000004"/><circle cx="336" cy="52" r="2" fill="#ff4f6d" opacity="0.49"/><circle cx="541" cy="319" r="2" fill="#ff4f6d" opacity="0.46"/><circle cx="234" cy="230" r="2" fill="#ff4f6d" opacity="0.47000000000000003"/><circle cx="439" cy="156" r="2" fill="#ff4f6d" opacity="0.44000000000000006"/><circle cx="132" cy="67" r="2" fill="#ff4f6d" opacity="0.45000000000000007"/><circle cx="337" cy="334" r="3" fill="#ff4f6d" opacity="0.42000000000000004"/>
  <rect width="800" height="420" fill="#fffaf4"/><circle cx="580" cy="116" r="120" fill="#ff4f6d" opacity=".42"/><rect x="190" y="182" width="420" height="198" rx="22" fill="#f6bc42"/><rect x="190" y="116" width="420" height="70" rx="18" fill="#fffaf4"/><path d="M228 116l58 70M330 116l58 70M432 116l58 70M534 116l58 70" stroke="#fffaf4" stroke-width="20"/><rect x="244" y="254" width="312" height="18" rx="9" fill="#fffaf4" opacity=".16"/>
</svg>
