<svg xmlns="http://www.w3.org/2000/svg" viewBox="0 0 800 420" role="img" aria-label="Ilustracion propia de cine y rodaje para esta pregunta">
  <defs>
    <linearGradient id="bg" x1="0" x2="1" y1="0" y2="1">
      <stop stop-color="#15191d"/>
      <stop offset="1" stop-color="#fffaf4" stop-opacity="0.22"/>
    </linearGradient>
  </defs>
  <rect width="800" height="420" fill="url(#bg)"/>
  <circle cx="599" cy="246" r="120" fill="#fffaf4" opacity="0.13"/>
  <circle cx="608" cy="335" r="141" fill="#f6bc42" opacity="0.16"/>
  <circle cx="678" cy="277" r="3" fill="#ff4f6d" opacity="0.54"/><circle cx="269" cy="366" r="3" fill="#ff4f6d" opacity="0.53"/><circle cx="576" cy="113" r="3" fill="#ff4f6d" opacity="0.52"/><circle cx="167" cy="202" r="4" fill="#ff4f6d" opacity="0.51"/><circle cx="474" cy="291" r="4" fill="#ff4f6d" opacity="0.5"/><circle cx="65" cy="39" r="4" fill="#ff4f6d" opacity="0.49"/><circle cx="372" cy="128" r="4" fill="#ff4f6d" opacity="0.48000000000000004"/><circle cx="679" cy="217" r="4" fill="#ff4f6d" opacity="0.47000000000000003"/><circle cx="270" cy="306" r="4" fill="#ff4f6d" opacity="0.46"/>
  <rect width="800" height="420" fill="#fffaf4"/><circle cx="500" cy="168" r="120" fill="#ff4f6d" opacity=".42"/><rect x="190" y="182" width="420" height="198" rx="22" fill="#f6bc42"/><rect x="190" y="132" width="420" height="70" rx="18" fill="#fffaf4"/><path d="M228 132l58 70M330 132l58 70M432 132l58 70M534 132l58 70" stroke="#fffaf4" stroke-width="20"/><rect x="244" y="254" width="312" height="18" rx="9" fill="#fffaf4" opacity=".16"/>
</svg>
