<svg xmlns="http://www.w3.org/2000/svg" viewBox="0 0 800 420" role="img" aria-label="Ilustracion propia de cine y rodaje para esta pregunta">
  <defs>
    <linearGradient id="bg" x1="0" x2="1" y1="0" y2="1">
      <stop stop-color="#15191d"/>
      <stop offset="1" stop-color="#15191d" stop-opacity="0.22"/>
    </linearGradient>
  </defs>
  <rect width="800" height="420" fill="url(#bg)"/>
  <circle cx="388" cy="279" r="66" fill="#fffaf4" opacity="0.13"/>
  <circle cx="357" cy="339" r="74" fill="#f6bc42" opacity="0.16"/>
  <circle cx="568" cy="129" r="2" fill="#ff4f6d" opacity="0.52"/><circle cx="159" cy="219" r="2" fill="#ff4f6d" opacity="0.51"/><circle cx="670" cy="293" r="2" fill="#ff4f6d" opacity="0.54"/><circle cx="261" cy="40" r="2" fill="#ff4f6d" opacity="0.53"/><circle cx="364" cy="144" r="2" fill="#ff4f6d" opacity="0.48000000000000004"/><circle cx="671" cy="233" r="2" fill="#ff4f6d" opacity="0.47000000000000003"/><circle cx="466" cy="308" r="2" fill="#ff4f6d" opacity="0.5"/><circle cx="57" cy="55" r="2" fill="#ff4f6d" opacity="0.49"/><circle cx="260" cy="100" r="2" fill="#ff4f6d" opacity="0.6000000000000001"/>
  <rect width="800" height="420" fill="#fffaf4"/><circle cx="540" cy="142" r="120" fill="#ff4f6d" opacity=".42"/><rect x="190" y="182" width="420" height="198" rx="22" fill="#f6bc42"/><rect x="190" y="124" width="420" height="70" rx="18" fill="#fffaf4"/><path d="M228 124l58 70M330 124l58 70M432 124l58 70M534 124l58 70" stroke="#fffaf4" stroke-width="20"/><rect x="244" y="254" width="312" height="18" rx="9" fill="#fffaf4" opacity=".16"/>
</svg>
