<svg xmlns="http://www.w3.org/2000/svg" viewBox="0 0 800 420" role="img" aria-label="Ilustracion propia de cine y rodaje para esta pregunta">
  <defs>
    <linearGradient id="bg" x1="0" x2="1" y1="0" y2="1">
      <stop stop-color="#15191d"/>
      <stop offset="1" stop-color="#f6bc42" stop-opacity="0.22"/>
    </linearGradient>
  </defs>
  <rect width="800" height="420" fill="url(#bg)"/>
  <circle cx="469" cy="147" r="81" fill="#fffaf4" opacity="0.13"/>
  <circle cx="292" cy="72" r="86" fill="#f6bc42" opacity="0.16"/>
  <circle cx="127" cy="84" r="4" fill="#ff4f6d" opacity="0.51"/><circle cx="536" cy="337" r="4" fill="#ff4f6d" opacity="0.52"/><circle cx="229" cy="248" r="4" fill="#ff4f6d" opacity="0.53"/><circle cx="638" cy="159" r="4" fill="#ff4f6d" opacity="0.54"/><circle cx="639" cy="99" r="4" fill="#ff4f6d" opacity="0.47000000000000003"/><circle cx="332" cy="352" r="4" fill="#ff4f6d" opacity="0.48000000000000004"/><circle cx="741" cy="262" r="4" fill="#ff4f6d" opacity="0.49"/><circle cx="434" cy="173" r="4" fill="#ff4f6d" opacity="0.5"/><circle cx="435" cy="113" r="4" fill="#ff4f6d" opacity="0.43000000000000005"/>
  <rect width="800" height="420" fill="#fffaf4"/><circle cx="500" cy="168" r="120" fill="#ff4f6d" opacity=".42"/><rect x="190" y="182" width="420" height="198" rx="22" fill="#f6bc42"/><rect x="190" y="132" width="420" height="70" rx="18" fill="#fffaf4"/><path d="M228 132l58 70M330 132l58 70M432 132l58 70M534 132l58 70" stroke="#fffaf4" stroke-width="20"/><rect x="244" y="254" width="312" height="18" rx="9" fill="#fffaf4" opacity=".16"/>
</svg>
