<svg xmlns="http://www.w3.org/2000/svg" viewBox="0 0 800 420" role="img" aria-label="Ilustracion propia de cine y rodaje para esta pregunta">
  <defs>
    <linearGradient id="bg" x1="0" x2="1" y1="0" y2="1">
      <stop stop-color="#15191d"/>
      <stop offset="1" stop-color="#ff4f6d" stop-opacity="0.22"/>
    </linearGradient>
  </defs>
  <rect width="800" height="420" fill="url(#bg)"/>
  <circle cx="378" cy="104" r="83" fill="#fffaf4" opacity="0.13"/>
  <circle cx="656" cy="138" r="96" fill="#f6bc42" opacity="0.16"/>
  <circle cx="312" cy="42" r="5" fill="#ff4f6d" opacity="0.51"/><circle cx="135" cy="346" r="5" fill="#ff4f6d" opacity="0.64"/><circle cx="414" cy="206" r="5" fill="#ff4f6d" opacity="0.53"/><circle cx="721" cy="295" r="5" fill="#ff4f6d" opacity="0.52"/><circle cx="340" cy="271" r="5" fill="#ff4f6d" opacity="0.6100000000000001"/><circle cx="647" cy="360" r="5" fill="#ff4f6d" opacity="0.6000000000000001"/><circle cx="442" cy="93" r="5" fill="#ff4f6d" opacity="0.63"/><circle cx="749" cy="182" r="5" fill="#ff4f6d" opacity="0.6200000000000001"/><circle cx="720" cy="355" r="5" fill="#ff4f6d" opacity="0.5900000000000001"/>
  <rect width="800" height="420" fill="#fffaf4"/><circle cx="540" cy="142" r="120" fill="#ff4f6d" opacity=".42"/><rect x="190" y="182" width="420" height="198" rx="22" fill="#f6bc42"/><rect x="190" y="124" width="420" height="70" rx="18" fill="#fffaf4"/><path d="M228 124l58 70M330 124l58 70M432 124l58 70M534 124l58 70" stroke="#fffaf4" stroke-width="20"/><rect x="244" y="254" width="312" height="18" rx="9" fill="#fffaf4" opacity=".16"/>
</svg>
