<svg xmlns="http://www.w3.org/2000/svg" viewBox="0 0 800 420" role="img" aria-label="Ilustracion propia de cine y rodaje para esta pregunta">
  <defs>
    <linearGradient id="bg" x1="0" x2="1" y1="0" y2="1">
      <stop stop-color="#15191d"/>
      <stop offset="1" stop-color="#ff4f6d" stop-opacity="0.22"/>
    </linearGradient>
  </defs>
  <rect width="800" height="420" fill="url(#bg)"/>
  <circle cx="169" cy="176" r="111" fill="#fffaf4" opacity="0.13"/>
  <circle cx="105" cy="76" r="79" fill="#f6bc42" opacity="0.16"/>
  <circle cx="664" cy="54" r="3" fill="#ff4f6d" opacity="0.52"/><circle cx="255" cy="144" r="3" fill="#ff4f6d" opacity="0.51"/><circle cx="50" cy="218" r="3" fill="#ff4f6d" opacity="0.54"/><circle cx="357" cy="307" r="3" fill="#ff4f6d" opacity="0.53"/><circle cx="152" cy="40" r="3" fill="#ff4f6d" opacity="0.56"/><circle cx="459" cy="129" r="3" fill="#ff4f6d" opacity="0.55"/><circle cx="254" cy="204" r="3" fill="#ff4f6d" opacity="0.5800000000000001"/><circle cx="561" cy="293" r="3" fill="#ff4f6d" opacity="0.5700000000000001"/><circle cx="256" cy="84" r="3" fill="#ff4f6d" opacity="0.44000000000000006"/>
  <rect width="800" height="420" fill="#fffaf4"/><circle cx="500" cy="168" r="120" fill="#ff4f6d" opacity=".42"/><rect x="190" y="182" width="420" height="198" rx="22" fill="#f6bc42"/><rect x="190" y="132" width="420" height="70" rx="18" fill="#fffaf4"/><path d="M228 132l58 70M330 132l58 70M432 132l58 70M534 132l58 70" stroke="#fffaf4" stroke-width="20"/><rect x="244" y="254" width="312" height="18" rx="9" fill="#fffaf4" opacity=".16"/>
</svg>
