<svg xmlns="http://www.w3.org/2000/svg" viewBox="0 0 800 420" role="img" aria-label="Ilustracion propia de cine y rodaje para esta pregunta">
  <defs>
    <linearGradient id="bg" x1="0" x2="1" y1="0" y2="1">
      <stop stop-color="#15191d"/>
      <stop offset="1" stop-color="#ff4f6d" stop-opacity="0.22"/>
    </linearGradient>
  </defs>
  <rect width="800" height="420" fill="url(#bg)"/>
  <circle cx="303" cy="101" r="71" fill="#fffaf4" opacity="0.13"/>
  <circle cx="421" cy="281" r="64" fill="#f6bc42" opacity="0.16"/>
  <circle cx="455" cy="220" r="4" fill="#ff4f6d" opacity="0.69"/><circle cx="148" cy="131" r="3" fill="#ff4f6d" opacity="0.7"/><circle cx="557" cy="42" r="3" fill="#ff4f6d" opacity="0.71"/><circle cx="250" cy="295" r="3" fill="#ff4f6d" opacity="0.72"/><circle cx="251" cy="235" r="4" fill="#ff4f6d" opacity="0.65"/><circle cx="660" cy="146" r="4" fill="#ff4f6d" opacity="0.66"/><circle cx="353" cy="57" r="4" fill="#ff4f6d" opacity="0.67"/><circle cx="46" cy="309" r="4" fill="#ff4f6d" opacity="0.68"/><circle cx="47" cy="250" r="4" fill="#ff4f6d" opacity="0.6100000000000001"/>
  <rect width="800" height="420" fill="#fffaf4"/><circle cx="540" cy="142" r="120" fill="#ff4f6d" opacity=".42"/><rect x="190" y="182" width="420" height="198" rx="22" fill="#f6bc42"/><rect x="190" y="124" width="420" height="70" rx="18" fill="#fffaf4"/><path d="M228 124l58 70M330 124l58 70M432 124l58 70M534 124l58 70" stroke="#fffaf4" stroke-width="20"/><rect x="244" y="254" width="312" height="18" rx="9" fill="#fffaf4" opacity=".16"/>
</svg>
