<svg xmlns="http://www.w3.org/2000/svg" viewBox="0 0 800 420" role="img" aria-label="Ilustracion propia de cine y rodaje para esta pregunta">
  <defs>
    <linearGradient id="bg" x1="0" x2="1" y1="0" y2="1">
      <stop stop-color="#15191d"/>
      <stop offset="1" stop-color="#15191d" stop-opacity="0.22"/>
    </linearGradient>
  </defs>
  <rect width="800" height="420" fill="url(#bg)"/>
  <circle cx="267" cy="211" r="134" fill="#fffaf4" opacity="0.13"/>
  <circle cx="492" cy="295" r="132" fill="#f6bc42" opacity="0.16"/>
  <circle cx="276" cy="73" r="3" fill="#ff4f6d" opacity="0.65"/><circle cx="583" cy="162" r="3" fill="#ff4f6d" opacity="0.64"/><circle cx="378" cy="237" r="3" fill="#ff4f6d" opacity="0.67"/><circle cx="685" cy="326" r="3" fill="#ff4f6d" opacity="0.66"/><circle cx="480" cy="59" r="3" fill="#ff4f6d" opacity="0.69"/><circle cx="71" cy="148" r="3" fill="#ff4f6d" opacity="0.68"/><circle cx="582" cy="222" r="3" fill="#ff4f6d" opacity="0.71"/><circle cx="173" cy="312" r="3" fill="#ff4f6d" opacity="0.7"/><circle cx="584" cy="102" r="3" fill="#ff4f6d" opacity="0.5700000000000001"/>
  <rect width="800" height="420" fill="#fffaf4"/><circle cx="580" cy="116" r="120" fill="#ff4f6d" opacity=".42"/><rect x="190" y="182" width="420" height="198" rx="22" fill="#f6bc42"/><rect x="190" y="116" width="420" height="70" rx="18" fill="#fffaf4"/><path d="M228 116l58 70M330 116l58 70M432 116l58 70M534 116l58 70" stroke="#fffaf4" stroke-width="20"/><rect x="244" y="254" width="312" height="18" rx="9" fill="#fffaf4" opacity=".16"/>
</svg>
