<svg xmlns="http://www.w3.org/2000/svg" viewBox="0 0 800 420" role="img" aria-label="Ilustracion propia de historia y archivo para esta pregunta">
  <defs>
    <linearGradient id="bg" x1="0" x2="1" y1="0" y2="1">
      <stop stop-color="#fff4e4"/>
      <stop offset="1" stop-color="#fff4e4" stop-opacity="0.22"/>
    </linearGradient>
  </defs>
  <rect width="800" height="420" fill="url(#bg)"/>
  <circle cx="315" cy="71" r="100" fill="#15191d" opacity="0.13"/>
  <circle cx="423" cy="63" r="98" fill="#d9cec1" opacity="0.16"/>
  <circle cx="638" cy="163" r="3" fill="#f6bc42" opacity="0.64"/><circle cx="229" cy="252" r="3" fill="#f6bc42" opacity="0.63"/><circle cx="536" cy="341" r="3" fill="#f6bc42" opacity="0.6200000000000001"/><circle cx="127" cy="89" r="3" fill="#f6bc42" opacity="0.6100000000000001"/><circle cx="434" cy="178" r="3" fill="#f6bc42" opacity="0.6000000000000001"/><circle cx="741" cy="267" r="3" fill="#f6bc42" opacity="0.5900000000000001"/><circle cx="332" cy="356" r="3" fill="#f6bc42" opacity="0.5800000000000001"/><circle cx="639" cy="103" r="3" fill="#f6bc42" opacity="0.5700000000000001"/><circle cx="330" cy="134" r="3" fill="#f6bc42" opacity="0.72"/>
  <rect x="202" y="130" width="220" height="210" rx="18" fill="#fffaf4" stroke="#f6bc42" stroke-width="5"/><rect x="236" y="172" width="152" height="12" rx="6" fill="#15191d" opacity=".2"/><rect x="236" y="212" width="120" height="12" rx="6" fill="#15191d" opacity=".2"/><path d="M470 170h210L575 94z" fill="#15191d"/><rect x="500" y="190" width="32" height="120" rx="6" fill="#15191d"/><rect x="560" y="190" width="32" height="120" rx="6" fill="#15191d"/><rect x="620" y="190" width="32" height="120" rx="6" fill="#15191d"/>
</svg>
