<svg xmlns="http://www.w3.org/2000/svg" viewBox="0 0 800 420" role="img" aria-label="Ilustracion propia de historia y archivo para esta pregunta">
  <defs>
    <linearGradient id="bg" x1="0" x2="1" y1="0" y2="1">
      <stop stop-color="#fff4e4"/>
      <stop offset="1" stop-color="#15191d" stop-opacity="0.22"/>
    </linearGradient>
  </defs>
  <rect width="800" height="420" fill="url(#bg)"/>
  <circle cx="507" cy="310" r="108" fill="#15191d" opacity="0.13"/>
  <circle cx="672" cy="236" r="139" fill="#d9cec1" opacity="0.16"/>
  <circle cx="509" cy="101" r="3" fill="#f6bc42" opacity="0.53"/><circle cx="202" cy="353" r="3" fill="#f6bc42" opacity="0.54"/><circle cx="407" cy="279" r="3" fill="#f6bc42" opacity="0.51"/><circle cx="100" cy="190" r="3" fill="#f6bc42" opacity="0.52"/><circle cx="305" cy="115" r="3" fill="#f6bc42" opacity="0.49"/><circle cx="714" cy="368" r="3" fill="#f6bc42" opacity="0.5"/><circle cx="203" cy="293" r="4" fill="#f6bc42" opacity="0.47000000000000003"/><circle cx="612" cy="204" r="4" fill="#f6bc42" opacity="0.48000000000000004"/><circle cx="101" cy="130" r="4" fill="#f6bc42" opacity="0.45000000000000007"/>
  <rect x="148" y="130" width="220" height="210" rx="18" fill="#fffaf4" stroke="#f6bc42" stroke-width="5"/><rect x="182" y="172" width="152" height="12" rx="6" fill="#15191d" opacity=".2"/><rect x="182" y="212" width="120" height="12" rx="6" fill="#15191d" opacity=".2"/><path d="M470 170h210L575 94z" fill="#15191d"/><rect x="500" y="190" width="32" height="120" rx="6" fill="#15191d"/><rect x="560" y="190" width="32" height="120" rx="6" fill="#15191d"/><rect x="620" y="190" width="32" height="120" rx="6" fill="#15191d"/>
</svg>
