<svg xmlns="http://www.w3.org/2000/svg" viewBox="0 0 800 420" role="img" aria-label="Ilustracion propia de historia y archivo para esta pregunta">
  <defs>
    <linearGradient id="bg" x1="0" x2="1" y1="0" y2="1">
      <stop stop-color="#fff4e4"/>
      <stop offset="1" stop-color="#15191d" stop-opacity="0.22"/>
    </linearGradient>
  </defs>
  <rect width="800" height="420" fill="url(#bg)"/>
  <circle cx="357" cy="286" r="74" fill="#15191d" opacity="0.13"/>
  <circle cx="203" cy="197" r="135" fill="#d9cec1" opacity="0.16"/>
  <circle cx="82" cy="135" r="5" fill="#f6bc42" opacity="0.53"/><circle cx="389" cy="224" r="5" fill="#f6bc42" opacity="0.52"/><circle cx="696" cy="313" r="5" fill="#f6bc42" opacity="0.51"/><circle cx="287" cy="61" r="5" fill="#f6bc42" opacity="0.5"/><circle cx="594" cy="150" r="5" fill="#f6bc42" opacity="0.49"/><circle cx="185" cy="239" r="5" fill="#f6bc42" opacity="0.48000000000000004"/><circle cx="492" cy="328" r="5" fill="#f6bc42" opacity="0.47000000000000003"/><circle cx="83" cy="75" r="5" fill="#f6bc42" opacity="0.46"/><circle cx="490" cy="106" r="5" fill="#f6bc42" opacity="0.6100000000000001"/>
  <rect x="148" y="130" width="220" height="210" rx="18" fill="#fffaf4" stroke="#f6bc42" stroke-width="5"/><rect x="182" y="172" width="152" height="12" rx="6" fill="#15191d" opacity=".2"/><rect x="182" y="212" width="120" height="12" rx="6" fill="#15191d" opacity=".2"/><path d="M470 170h210L575 94z" fill="#15191d"/><rect x="500" y="190" width="32" height="120" rx="6" fill="#15191d"/><rect x="560" y="190" width="32" height="120" rx="6" fill="#15191d"/><rect x="620" y="190" width="32" height="120" rx="6" fill="#15191d"/>
</svg>
