<svg xmlns="http://www.w3.org/2000/svg" viewBox="0 0 800 420" role="img" aria-label="Ilustracion propia de historia y archivo para esta pregunta">
  <defs>
    <linearGradient id="bg" x1="0" x2="1" y1="0" y2="1">
      <stop stop-color="#fff4e4"/>
      <stop offset="1" stop-color="#fff4e4" stop-opacity="0.22"/>
    </linearGradient>
  </defs>
  <rect width="800" height="420" fill="url(#bg)"/>
  <circle cx="383" cy="115" r="64" fill="#15191d" opacity="0.13"/>
  <circle cx="431" cy="211" r="94" fill="#d9cec1" opacity="0.16"/>
  <circle cx="484" cy="94" r="2" fill="#f6bc42" opacity="0.5800000000000001"/><circle cx="75" cy="183" r="2" fill="#f6bc42" opacity="0.5700000000000001"/><circle cx="586" cy="258" r="5" fill="#f6bc42" opacity="0.6000000000000001"/><circle cx="177" cy="347" r="5" fill="#f6bc42" opacity="0.5900000000000001"/><circle cx="280" cy="109" r="2" fill="#f6bc42" opacity="0.54"/><circle cx="587" cy="198" r="2" fill="#f6bc42" opacity="0.53"/><circle cx="382" cy="273" r="2" fill="#f6bc42" opacity="0.56"/><circle cx="689" cy="362" r="2" fill="#f6bc42" opacity="0.55"/><circle cx="176" cy="65" r="5" fill="#f6bc42" opacity="0.66"/>
  <rect x="166" y="130" width="220" height="210" rx="18" fill="#fffaf4" stroke="#f6bc42" stroke-width="5"/><rect x="200" y="172" width="152" height="12" rx="6" fill="#15191d" opacity=".2"/><rect x="200" y="212" width="120" height="12" rx="6" fill="#15191d" opacity=".2"/><path d="M470 170h210L575 94z" fill="#15191d"/><rect x="500" y="190" width="32" height="120" rx="6" fill="#15191d"/><rect x="560" y="190" width="32" height="120" rx="6" fill="#15191d"/><rect x="620" y="190" width="32" height="120" rx="6" fill="#15191d"/>
</svg>
