<svg xmlns="http://www.w3.org/2000/svg" viewBox="0 0 800 420" role="img" aria-label="Ilustracion propia de historia y archivo para esta pregunta">
  <defs>
    <linearGradient id="bg" x1="0" x2="1" y1="0" y2="1">
      <stop stop-color="#fff4e4"/>
      <stop offset="1" stop-color="#fff4e4" stop-opacity="0.22"/>
    </linearGradient>
  </defs>
  <rect width="800" height="420" fill="url(#bg)"/>
  <circle cx="412" cy="161" r="90" fill="#15191d" opacity="0.13"/>
  <circle cx="135" cy="288" r="107" fill="#d9cec1" opacity="0.16"/>
  <circle cx="590" cy="85" r="4" fill="#f6bc42" opacity="0.43000000000000005"/><circle cx="181" cy="174" r="4" fill="#f6bc42" opacity="0.42000000000000004"/><circle cx="488" cy="263" r="4" fill="#f6bc42" opacity="0.41000000000000003"/><circle cx="79" cy="352" r="4" fill="#f6bc42" opacity="0.4"/><circle cx="386" cy="99" r="4" fill="#f6bc42" opacity="0.39"/><circle cx="693" cy="188" r="4" fill="#f6bc42" opacity="0.38"/><circle cx="284" cy="278" r="4" fill="#f6bc42" opacity="0.37"/><circle cx="591" cy="367" r="4" fill="#f6bc42" opacity="0.36000000000000004"/><circle cx="182" cy="114" r="4" fill="#f6bc42" opacity="0.35000000000000003"/>
  <rect x="148" y="130" width="220" height="210" rx="18" fill="#fffaf4" stroke="#f6bc42" stroke-width="5"/><rect x="182" y="172" width="152" height="12" rx="6" fill="#15191d" opacity=".2"/><rect x="182" y="212" width="120" height="12" rx="6" fill="#15191d" opacity=".2"/><path d="M470 170h210L575 94z" fill="#15191d"/><rect x="500" y="190" width="32" height="120" rx="6" fill="#15191d"/><rect x="560" y="190" width="32" height="120" rx="6" fill="#15191d"/><rect x="620" y="190" width="32" height="120" rx="6" fill="#15191d"/>
</svg>
