<svg xmlns="http://www.w3.org/2000/svg" viewBox="0 0 800 420" role="img" aria-label="Ilustracion propia de historia y archivo para esta pregunta">
  <defs>
    <linearGradient id="bg" x1="0" x2="1" y1="0" y2="1">
      <stop stop-color="#fff4e4"/>
      <stop offset="1" stop-color="#fff4e4" stop-opacity="0.22"/>
    </linearGradient>
  </defs>
  <rect width="800" height="420" fill="url(#bg)"/>
  <circle cx="167" cy="97" r="88" fill="#15191d" opacity="0.13"/>
  <circle cx="629" cy="137" r="97" fill="#d9cec1" opacity="0.16"/>
  <circle cx="693" cy="237" r="5" fill="#f6bc42" opacity="0.5900000000000001"/><circle cx="386" cy="148" r="5" fill="#f6bc42" opacity="0.6000000000000001"/><circle cx="591" cy="73" r="5" fill="#f6bc42" opacity="0.5700000000000001"/><circle cx="284" cy="326" r="5" fill="#f6bc42" opacity="0.5800000000000001"/><circle cx="181" cy="223" r="5" fill="#f6bc42" opacity="0.63"/><circle cx="590" cy="133" r="5" fill="#f6bc42" opacity="0.64"/><circle cx="79" cy="59" r="5" fill="#f6bc42" opacity="0.6100000000000001"/><circle cx="488" cy="312" r="5" fill="#f6bc42" opacity="0.6200000000000001"/><circle cx="285" cy="266" r="5" fill="#f6bc42" opacity="0.51"/>
  <rect x="148" y="130" width="220" height="210" rx="18" fill="#fffaf4" stroke="#f6bc42" stroke-width="5"/><rect x="182" y="172" width="152" height="12" rx="6" fill="#15191d" opacity=".2"/><rect x="182" y="212" width="120" height="12" rx="6" fill="#15191d" opacity=".2"/><path d="M470 170h210L575 94z" fill="#15191d"/><rect x="500" y="190" width="32" height="120" rx="6" fill="#15191d"/><rect x="560" y="190" width="32" height="120" rx="6" fill="#15191d"/><rect x="620" y="190" width="32" height="120" rx="6" fill="#15191d"/>
</svg>
