<svg xmlns="http://www.w3.org/2000/svg" viewBox="0 0 800 420" role="img" aria-label="Ilustracion propia de historia y archivo para esta pregunta">
  <defs>
    <linearGradient id="bg" x1="0" x2="1" y1="0" y2="1">
      <stop stop-color="#fff4e4"/>
      <stop offset="1" stop-color="#15191d" stop-opacity="0.22"/>
    </linearGradient>
  </defs>
  <rect width="800" height="420" fill="url(#bg)"/>
  <circle cx="138" cy="168" r="98" fill="#15191d" opacity="0.13"/>
  <circle cx="401" cy="218" r="78" fill="#d9cec1" opacity="0.16"/>
  <circle cx="550" cy="117" r="3" fill="#f6bc42" opacity="0.31000000000000005"/><circle cx="141" cy="206" r="3" fill="#f6bc42" opacity="0.30000000000000004"/><circle cx="448" cy="295" r="3" fill="#f6bc42" opacity="0.29000000000000004"/><circle cx="755" cy="42" r="3" fill="#f6bc42" opacity="0.28"/><circle cx="754" cy="102" r="3" fill="#f6bc42" opacity="0.35000000000000003"/><circle cx="345" cy="191" r="3" fill="#f6bc42" opacity="0.34"/><circle cx="652" cy="280" r="3" fill="#f6bc42" opacity="0.33"/><circle cx="243" cy="369" r="3" fill="#f6bc42" opacity="0.32"/><circle cx="142" cy="146" r="3" fill="#f6bc42" opacity="0.68"/>
  <rect x="166" y="130" width="220" height="210" rx="18" fill="#fffaf4" stroke="#f6bc42" stroke-width="5"/><rect x="200" y="172" width="152" height="12" rx="6" fill="#15191d" opacity=".2"/><rect x="200" y="212" width="120" height="12" rx="6" fill="#15191d" opacity=".2"/><path d="M470 170h210L575 94z" fill="#15191d"/><rect x="500" y="190" width="32" height="120" rx="6" fill="#15191d"/><rect x="560" y="190" width="32" height="120" rx="6" fill="#15191d"/><rect x="620" y="190" width="32" height="120" rx="6" fill="#15191d"/>
</svg>
