<svg xmlns="http://www.w3.org/2000/svg" viewBox="0 0 800 420" role="img" aria-label="Ilustracion propia de mapa y geografia para esta pregunta">
  <defs>
    <linearGradient id="bg" x1="0" x2="1" y1="0" y2="1">
      <stop stop-color="#eaf9f6"/>
      <stop offset="1" stop-color="#eaf9f6" stop-opacity="0.22"/>
    </linearGradient>
  </defs>
  <rect width="800" height="420" fill="url(#bg)"/>
  <circle cx="547" cy="253" r="72" fill="#fffaf4" opacity="0.13"/>
  <circle cx="302" cy="85" r="115" fill="#12b7a6" opacity="0.16"/>
  <circle cx="479" cy="375" r="5" fill="#ff4f6d" opacity="0.6200000000000001"/><circle cx="172" cy="286" r="5" fill="#ff4f6d" opacity="0.63"/><circle cx="581" cy="197" r="5" fill="#ff4f6d" opacity="0.64"/><circle cx="274" cy="108" r="5" fill="#ff4f6d" opacity="0.65"/><circle cx="683" cy="361" r="5" fill="#ff4f6d" opacity="0.66"/><circle cx="376" cy="271" r="5" fill="#ff4f6d" opacity="0.67"/><circle cx="69" cy="182" r="5" fill="#ff4f6d" opacity="0.68"/><circle cx="478" cy="93" r="5" fill="#ff4f6d" opacity="0.69"/><circle cx="71" cy="62" r="5" fill="#ff4f6d" opacity="0.54"/>
  <path d="M100 84l170-42 160 50 170-42 100 42v244l-170 42-160-50-170 42-100-42z" fill="#12b7a6" stroke="#15191d" stroke-width="5" opacity=".94"/><path d="M270 42v286M430 92v286M600 50v286" stroke="#15191d" stroke-width="4" opacity=".16"/><path d="M126 152c80 22 106-36 176-8 72 28 94 88 182 48 86-40 128-8 184 44" fill="none" stroke="#ff4f6d" stroke-width="14" stroke-linecap="round"/><path d="M470 126c0 36-38 70-38 70s-38-34-38-70a38 38 0 0176 0z" fill="#fffaf4"/>
</svg>
