<svg xmlns="http://www.w3.org/2000/svg" viewBox="0 0 800 420" role="img" aria-label="Ilustracion propia de historia y archivo para esta pregunta">
  <defs>
    <linearGradient id="bg" x1="0" x2="1" y1="0" y2="1">
      <stop stop-color="#fff4e4"/>
      <stop offset="1" stop-color="#d9cec1" stop-opacity="0.22"/>
    </linearGradient>
  </defs>
  <rect width="800" height="420" fill="url(#bg)"/>
  <circle cx="421" cy="248" r="95" fill="#15191d" opacity="0.13"/>
  <circle cx="586" cy="264" r="87" fill="#d9cec1" opacity="0.16"/>
  <circle cx="335" cy="172" r="5" fill="#f6bc42" opacity="0.53"/><circle cx="744" cy="83" r="5" fill="#f6bc42" opacity="0.54"/><circle cx="437" cy="336" r="5" fill="#f6bc42" opacity="0.55"/><circle cx="130" cy="246" r="5" fill="#f6bc42" opacity="0.56"/><circle cx="131" cy="186" r="5" fill="#f6bc42" opacity="0.49"/><circle cx="540" cy="97" r="5" fill="#f6bc42" opacity="0.5"/><circle cx="233" cy="350" r="5" fill="#f6bc42" opacity="0.51"/><circle cx="642" cy="261" r="5" fill="#f6bc42" opacity="0.52"/><circle cx="643" cy="201" r="5" fill="#f6bc42" opacity="0.45000000000000007"/>
  <rect x="130" y="130" width="220" height="210" rx="18" fill="#fffaf4" stroke="#f6bc42" stroke-width="5"/><rect x="164" y="172" width="152" height="12" rx="6" fill="#15191d" opacity=".2"/><rect x="164" y="212" width="120" height="12" rx="6" fill="#15191d" opacity=".2"/><path d="M470 170h210L575 94z" fill="#15191d"/><rect x="500" y="190" width="32" height="120" rx="6" fill="#15191d"/><rect x="560" y="190" width="32" height="120" rx="6" fill="#15191d"/><rect x="620" y="190" width="32" height="120" rx="6" fill="#15191d"/>
</svg>
