<svg xmlns="http://www.w3.org/2000/svg" viewBox="0 0 800 420" role="img" aria-label="Ilustracion propia de historia y archivo para esta pregunta">
  <defs>
    <linearGradient id="bg" x1="0" x2="1" y1="0" y2="1">
      <stop stop-color="#fff4e4"/>
      <stop offset="1" stop-color="#f6bc42" stop-opacity="0.22"/>
    </linearGradient>
  </defs>
  <rect width="800" height="420" fill="url(#bg)"/>
  <circle cx="137" cy="92" r="89" fill="#15191d" opacity="0.13"/>
  <circle cx="251" cy="101" r="97" fill="#d9cec1" opacity="0.16"/>
  <circle cx="154" cy="337" r="3" fill="#f6bc42" opacity="0.52"/><circle cx="461" cy="84" r="3" fill="#f6bc42" opacity="0.51"/><circle cx="52" cy="173" r="3" fill="#f6bc42" opacity="0.5"/><circle cx="359" cy="263" r="3" fill="#f6bc42" opacity="0.49"/><circle cx="666" cy="352" r="3" fill="#f6bc42" opacity="0.48000000000000004"/><circle cx="257" cy="99" r="3" fill="#f6bc42" opacity="0.47000000000000003"/><circle cx="564" cy="188" r="3" fill="#f6bc42" opacity="0.46"/><circle cx="155" cy="277" r="3" fill="#f6bc42" opacity="0.45000000000000007"/><circle cx="562" cy="308" r="3" fill="#f6bc42" opacity="0.6000000000000001"/>
  <rect x="148" y="130" width="220" height="210" rx="18" fill="#fffaf4" stroke="#f6bc42" stroke-width="5"/><rect x="182" y="172" width="152" height="12" rx="6" fill="#15191d" opacity=".2"/><rect x="182" y="212" width="120" height="12" rx="6" fill="#15191d" opacity=".2"/><path d="M470 170h210L575 94z" fill="#15191d"/><rect x="500" y="190" width="32" height="120" rx="6" fill="#15191d"/><rect x="560" y="190" width="32" height="120" rx="6" fill="#15191d"/><rect x="620" y="190" width="32" height="120" rx="6" fill="#15191d"/>
</svg>
