<svg xmlns="http://www.w3.org/2000/svg" viewBox="0 0 800 420" role="img" aria-label="Ilustracion propia de mapa y geografia para esta pregunta">
  <defs>
    <linearGradient id="bg" x1="0" x2="1" y1="0" y2="1">
      <stop stop-color="#eaf9f6"/>
      <stop offset="1" stop-color="#fffaf4" stop-opacity="0.22"/>
    </linearGradient>
  </defs>
  <rect width="800" height="420" fill="url(#bg)"/>
  <circle cx="241" cy="317" r="72" fill="#fffaf4" opacity="0.13"/>
  <circle cx="189" cy="165" r="115" fill="#12b7a6" opacity="0.16"/>
  <circle cx="718" cy="72" r="5" fill="#ff4f6d" opacity="0.5900000000000001"/><circle cx="309" cy="162" r="5" fill="#ff4f6d" opacity="0.5800000000000001"/><circle cx="616" cy="251" r="5" fill="#ff4f6d" opacity="0.5700000000000001"/><circle cx="207" cy="340" r="5" fill="#ff4f6d" opacity="0.56"/><circle cx="514" cy="87" r="5" fill="#ff4f6d" opacity="0.55"/><circle cx="105" cy="176" r="5" fill="#ff4f6d" opacity="0.54"/><circle cx="412" cy="265" r="5" fill="#ff4f6d" opacity="0.53"/><circle cx="719" cy="354" r="5" fill="#ff4f6d" opacity="0.52"/><circle cx="310" cy="102" r="5" fill="#ff4f6d" opacity="0.51"/>
  <path d="M100 84l170-42 160 50 170-42 100 42v244l-170 42-160-50-170 42-100-42z" fill="#12b7a6" stroke="#15191d" stroke-width="5" opacity=".94"/><path d="M270 42v286M430 92v286M600 50v286" stroke="#15191d" stroke-width="4" opacity=".16"/><path d="M126 136c80 22 106-36 176-8 72 28 94 88 182 48 86-40 128-8 184 44" fill="none" stroke="#ff4f6d" stroke-width="14" stroke-linecap="round"/><path d="M440 112c0 36-38 70-38 70s-38-34-38-70a38 38 0 0176 0z" fill="#fffaf4"/>
</svg>
