<svg xmlns="http://www.w3.org/2000/svg" viewBox="0 0 800 420" role="img" aria-label="Ilustracion propia de historia y archivo para esta pregunta">
  <defs>
    <linearGradient id="bg" x1="0" x2="1" y1="0" y2="1">
      <stop stop-color="#fff4e4"/>
      <stop offset="1" stop-color="#d9cec1" stop-opacity="0.22"/>
    </linearGradient>
  </defs>
  <rect width="800" height="420" fill="url(#bg)"/>
  <circle cx="631" cy="275" r="117" fill="#15191d" opacity="0.13"/>
  <circle cx="612" cy="124" r="100" fill="#d9cec1" opacity="0.16"/>
  <circle cx="541" cy="126" r="3" fill="#f6bc42" opacity="0.43000000000000005"/><circle cx="234" cy="37" r="3" fill="#f6bc42" opacity="0.44000000000000006"/><circle cx="439" cy="304" r="3" fill="#f6bc42" opacity="0.41000000000000003"/><circle cx="132" cy="215" r="3" fill="#f6bc42" opacity="0.42000000000000004"/><circle cx="337" cy="140" r="3" fill="#f6bc42" opacity="0.39"/><circle cx="746" cy="51" r="3" fill="#f6bc42" opacity="0.4"/><circle cx="235" cy="319" r="3" fill="#f6bc42" opacity="0.37"/><circle cx="644" cy="230" r="3" fill="#f6bc42" opacity="0.38"/><circle cx="133" cy="155" r="3" fill="#f6bc42" opacity="0.35000000000000003"/>
  <rect x="130" y="130" width="220" height="210" rx="18" fill="#fffaf4" stroke="#f6bc42" stroke-width="5"/><rect x="164" y="172" width="152" height="12" rx="6" fill="#15191d" opacity=".2"/><rect x="164" y="212" width="120" height="12" rx="6" fill="#15191d" opacity=".2"/><path d="M470 170h210L575 94z" fill="#15191d"/><rect x="500" y="190" width="32" height="120" rx="6" fill="#15191d"/><rect x="560" y="190" width="32" height="120" rx="6" fill="#15191d"/><rect x="620" y="190" width="32" height="120" rx="6" fill="#15191d"/>
</svg>
