<svg xmlns="http://www.w3.org/2000/svg" viewBox="0 0 800 420" role="img" aria-label="Ilustracion propia de historia y archivo para esta pregunta">
  <defs>
    <linearGradient id="bg" x1="0" x2="1" y1="0" y2="1">
      <stop stop-color="#fff4e4"/>
      <stop offset="1" stop-color="#15191d" stop-opacity="0.22"/>
    </linearGradient>
  </defs>
  <rect width="800" height="420" fill="url(#bg)"/>
  <circle cx="566" cy="82" r="100" fill="#15191d" opacity="0.13"/>
  <circle cx="304" cy="64" r="138" fill="#d9cec1" opacity="0.16"/>
  <circle cx="404" cy="36" r="2" fill="#f6bc42" opacity="0.51"/><circle cx="711" cy="126" r="2" fill="#f6bc42" opacity="0.5"/><circle cx="506" cy="200" r="2" fill="#f6bc42" opacity="0.53"/><circle cx="97" cy="289" r="2" fill="#f6bc42" opacity="0.52"/><circle cx="608" cy="364" r="5" fill="#f6bc42" opacity="0.55"/><circle cx="199" cy="111" r="5" fill="#f6bc42" opacity="0.54"/><circle cx="710" cy="186" r="5" fill="#f6bc42" opacity="0.5700000000000001"/><circle cx="301" cy="275" r="5" fill="#f6bc42" opacity="0.56"/><circle cx="96" cy="349" r="5" fill="#f6bc42" opacity="0.5900000000000001"/>
  <rect x="130" y="130" width="220" height="210" rx="18" fill="#fffaf4" stroke="#f6bc42" stroke-width="5"/><rect x="164" y="172" width="152" height="12" rx="6" fill="#15191d" opacity=".2"/><rect x="164" y="212" width="120" height="12" rx="6" fill="#15191d" opacity=".2"/><path d="M470 170h210L575 94z" fill="#15191d"/><rect x="500" y="190" width="32" height="120" rx="6" fill="#15191d"/><rect x="560" y="190" width="32" height="120" rx="6" fill="#15191d"/><rect x="620" y="190" width="32" height="120" rx="6" fill="#15191d"/>
</svg>
