<svg xmlns="http://www.w3.org/2000/svg" viewBox="0 0 800 420" role="img" aria-label="Ilustracion propia de historia y archivo para esta pregunta">
  <defs>
    <linearGradient id="bg" x1="0" x2="1" y1="0" y2="1">
      <stop stop-color="#fff4e4"/>
      <stop offset="1" stop-color="#fff4e4" stop-opacity="0.22"/>
    </linearGradient>
  </defs>
  <rect width="800" height="420" fill="url(#bg)"/>
  <circle cx="221" cy="214" r="132" fill="#15191d" opacity="0.13"/>
  <circle cx="336" cy="259" r="82" fill="#d9cec1" opacity="0.16"/>
  <circle cx="153" cy="226" r="3" fill="#f6bc42" opacity="0.71"/><circle cx="562" cy="137" r="3" fill="#f6bc42" opacity="0.72"/><circle cx="51" cy="62" r="3" fill="#f6bc42" opacity="0.69"/><circle cx="460" cy="315" r="3" fill="#f6bc42" opacity="0.7"/><circle cx="665" cy="241" r="3" fill="#f6bc42" opacity="0.67"/><circle cx="358" cy="151" r="3" fill="#f6bc42" opacity="0.68"/><circle cx="563" cy="77" r="3" fill="#f6bc42" opacity="0.65"/><circle cx="256" cy="330" r="3" fill="#f6bc42" opacity="0.66"/><circle cx="561" cy="197" r="3" fill="#f6bc42" opacity="0.34"/>
  <rect x="130" y="130" width="220" height="210" rx="18" fill="#fffaf4" stroke="#f6bc42" stroke-width="5"/><rect x="164" y="172" width="152" height="12" rx="6" fill="#15191d" opacity=".2"/><rect x="164" y="212" width="120" height="12" rx="6" fill="#15191d" opacity=".2"/><path d="M470 170h210L575 94z" fill="#15191d"/><rect x="500" y="190" width="32" height="120" rx="6" fill="#15191d"/><rect x="560" y="190" width="32" height="120" rx="6" fill="#15191d"/><rect x="620" y="190" width="32" height="120" rx="6" fill="#15191d"/>
</svg>
