<svg xmlns="http://www.w3.org/2000/svg" viewBox="0 0 800 420" role="img" aria-label="Ilustracion propia de historia y archivo para esta pregunta">
  <defs>
    <linearGradient id="bg" x1="0" x2="1" y1="0" y2="1">
      <stop stop-color="#fff4e4"/>
      <stop offset="1" stop-color="#f6bc42" stop-opacity="0.22"/>
    </linearGradient>
  </defs>
  <rect width="800" height="420" fill="url(#bg)"/>
  <circle cx="386" cy="270" r="77" fill="#15191d" opacity="0.13"/>
  <circle cx="432" cy="338" r="135" fill="#d9cec1" opacity="0.16"/>
  <circle cx="316" cy="351" r="3" fill="#f6bc42" opacity="0.4"/><circle cx="623" cy="98" r="3" fill="#f6bc42" opacity="0.39"/><circle cx="418" cy="173" r="2" fill="#f6bc42" opacity="0.42000000000000004"/><circle cx="725" cy="262" r="3" fill="#f6bc42" opacity="0.41000000000000003"/><circle cx="520" cy="336" r="2" fill="#f6bc42" opacity="0.44000000000000006"/><circle cx="111" cy="84" r="2" fill="#f6bc42" opacity="0.43000000000000005"/><circle cx="622" cy="158" r="2" fill="#f6bc42" opacity="0.46"/><circle cx="213" cy="247" r="2" fill="#f6bc42" opacity="0.45000000000000007"/><circle cx="624" cy="38" r="3" fill="#f6bc42" opacity="0.32"/>
  <rect x="130" y="130" width="220" height="210" rx="18" fill="#fffaf4" stroke="#f6bc42" stroke-width="5"/><rect x="164" y="172" width="152" height="12" rx="6" fill="#15191d" opacity=".2"/><rect x="164" y="212" width="120" height="12" rx="6" fill="#15191d" opacity=".2"/><path d="M470 170h210L575 94z" fill="#15191d"/><rect x="500" y="190" width="32" height="120" rx="6" fill="#15191d"/><rect x="560" y="190" width="32" height="120" rx="6" fill="#15191d"/><rect x="620" y="190" width="32" height="120" rx="6" fill="#15191d"/>
</svg>
