<svg xmlns="http://www.w3.org/2000/svg" viewBox="0 0 800 420" role="img" aria-label="Ilustracion propia de historia y archivo para esta pregunta">
  <defs>
    <linearGradient id="bg" x1="0" x2="1" y1="0" y2="1">
      <stop stop-color="#fff4e4"/>
      <stop offset="1" stop-color="#15191d" stop-opacity="0.22"/>
    </linearGradient>
  </defs>
  <rect width="800" height="420" fill="url(#bg)"/>
  <circle cx="296" cy="291" r="72" fill="#15191d" opacity="0.13"/>
  <circle cx="271" cy="269" r="125" fill="#d9cec1" opacity="0.16"/>
  <circle cx="442" cy="231" r="4" fill="#f6bc42" opacity="0.48000000000000004"/><circle cx="749" cy="320" r="4" fill="#f6bc42" opacity="0.47000000000000003"/><circle cx="340" cy="67" r="4" fill="#f6bc42" opacity="0.46"/><circle cx="647" cy="156" r="4" fill="#f6bc42" opacity="0.45000000000000007"/><circle cx="646" cy="216" r="4" fill="#f6bc42" opacity="0.52"/><circle cx="237" cy="305" r="4" fill="#f6bc42" opacity="0.51"/><circle cx="544" cy="53" r="4" fill="#f6bc42" opacity="0.5"/><circle cx="135" cy="142" r="4" fill="#f6bc42" opacity="0.49"/><circle cx="750" cy="260" r="4" fill="#f6bc42" opacity="0.4"/>
  <rect x="130" y="130" width="220" height="210" rx="18" fill="#fffaf4" stroke="#f6bc42" stroke-width="5"/><rect x="164" y="172" width="152" height="12" rx="6" fill="#15191d" opacity=".2"/><rect x="164" y="212" width="120" height="12" rx="6" fill="#15191d" opacity=".2"/><path d="M470 170h210L575 94z" fill="#15191d"/><rect x="500" y="190" width="32" height="120" rx="6" fill="#15191d"/><rect x="560" y="190" width="32" height="120" rx="6" fill="#15191d"/><rect x="620" y="190" width="32" height="120" rx="6" fill="#15191d"/>
</svg>
