<svg xmlns="http://www.w3.org/2000/svg" viewBox="0 0 800 420" role="img" aria-label="Ilustracion propia de escenario musical para esta pregunta">
  <defs>
    <linearGradient id="bg" x1="0" x2="1" y1="0" y2="1">
      <stop stop-color="#201525"/>
      <stop offset="1" stop-color="#201525" stop-opacity="0.22"/>
    </linearGradient>
  </defs>
  <rect width="800" height="420" fill="url(#bg)"/>
  <circle cx="578" cy="128" r="92" fill="#fffaf4" opacity="0.13"/>
  <circle cx="531" cy="177" r="87" fill="#ff4f6d" opacity="0.16"/>
  <circle cx="225" cy="70" r="3" fill="#12b7a6" opacity="0.6000000000000001"/><circle cx="634" cy="323" r="3" fill="#12b7a6" opacity="0.6100000000000001"/><circle cx="123" cy="249" r="3" fill="#12b7a6" opacity="0.5800000000000001"/><circle cx="532" cy="159" r="3" fill="#12b7a6" opacity="0.5900000000000001"/><circle cx="737" cy="85" r="3" fill="#12b7a6" opacity="0.56"/><circle cx="430" cy="338" r="3" fill="#12b7a6" opacity="0.5700000000000001"/><circle cx="635" cy="263" r="3" fill="#12b7a6" opacity="0.54"/><circle cx="328" cy="174" r="3" fill="#12b7a6" opacity="0.55"/><circle cx="533" cy="99" r="3" fill="#12b7a6" opacity="0.52"/>
  <rect width="800" height="420" fill="#fffaf4"/><path d="M158 0l170 290M642 0L510 290" stroke="#12b7a6" stroke-width="34" opacity=".5"/><rect x="150" y="292" width="500" height="54" rx="20" fill="#ff4f6d" opacity=".9"/><path d="M280 292c26-80 214-80 240 0" fill="none" stroke="#fffaf4" stroke-width="16"/><path d="M424 98v126c0 28-24 50-58 50s-58-22-58-50 24-50 58-50c12 0 23 3 32 8V98z" fill="#ff4f6d"/>
</svg>
