<svg xmlns="http://www.w3.org/2000/svg" viewBox="0 0 800 420" role="img" aria-label="Ilustracion propia de espacio y planetas para esta pregunta">
  <defs>
    <linearGradient id="bg" x1="0" x2="1" y1="0" y2="1">
      <stop stop-color="#12171a"/>
      <stop offset="1" stop-color="#e46b4f" stop-opacity="0.22"/>
    </linearGradient>
  </defs>
  <rect width="800" height="420" fill="url(#bg)"/>
  <circle cx="439" cy="70" r="140" fill="#e46b4f" opacity="0.13"/>
  <circle cx="363" cy="63" r="143" fill="#f6bc42" opacity="0.16"/>
  <circle cx="498" cy="41" r="5" fill="#315be8" opacity="0.30000000000000004"/><circle cx="89" cy="130" r="5" fill="#315be8" opacity="0.29000000000000004"/><circle cx="396" cy="220" r="5" fill="#315be8" opacity="0.28"/><circle cx="703" cy="309" r="5" fill="#315be8" opacity="0.72"/><circle cx="702" cy="369" r="4" fill="#315be8" opacity="0.34"/><circle cx="293" cy="116" r="4" fill="#315be8" opacity="0.33"/><circle cx="600" cy="205" r="4" fill="#315be8" opacity="0.32"/><circle cx="191" cy="294" r="5" fill="#315be8" opacity="0.31000000000000005"/><circle cx="190" cy="354" r="4" fill="#315be8" opacity="0.38"/>
  <rect width="800" height="420" fill="#e46b4f"/><circle cx="388" cy="218" r="91" fill="#f6bc42"/><path d="M230 212c36 14 66-22 112-2" stroke="#8f3327" stroke-width="12" stroke-linecap="round" opacity=".36"/><circle cx="432" cy="214" r="60" fill="#315be8"/><circle cx="600" cy="276" r="32" fill="#fffaf4"/><path d="M176 324c140 46 308 54 476 0" stroke="#fff" stroke-width="5" fill="none" opacity=".38"/>
</svg>
