<svg xmlns="http://www.w3.org/2000/svg" viewBox="0 0 800 420" role="img" aria-label="Ilustracion propia de oceano y olas para esta pregunta">
  <defs>
    <linearGradient id="bg" x1="0" x2="1" y1="0" y2="1">
      <stop stop-color="#dff8ff"/>
      <stop offset="1" stop-color="#fffaf4" stop-opacity="0.22"/>
    </linearGradient>
  </defs>
  <rect width="800" height="420" fill="url(#bg)"/>
  <circle cx="180" cy="88" r="79" fill="#12b7a6" opacity="0.13"/>
  <circle cx="256" cy="172" r="85" fill="#315be8" opacity="0.16"/>
  <circle cx="650" cy="262" r="2" fill="#fffaf4" opacity="0.29000000000000004"/><circle cx="241" cy="351" r="2" fill="#fffaf4" opacity="0.28"/><circle cx="548" cy="98" r="2" fill="#fffaf4" opacity="0.72"/><circle cx="139" cy="187" r="2" fill="#fffaf4" opacity="0.71"/><circle cx="446" cy="276" r="2" fill="#fffaf4" opacity="0.7"/><circle cx="753" cy="365" r="2" fill="#fffaf4" opacity="0.69"/><circle cx="344" cy="112" r="2" fill="#fffaf4" opacity="0.68"/><circle cx="651" cy="202" r="2" fill="#fffaf4" opacity="0.67"/><circle cx="342" cy="232" r="2" fill="#fffaf4" opacity="0.37"/>
  <path d="M0 240c88-42 144 42 232 0s144 42 232 0 144 42 232 0 144 42 232 0v180H0z" fill="#fff" opacity=".34"/><path d="M0 326c88-42 144 42 232 0s144 42 232 0 144 42 232 0 144 42 232 0" fill="none" stroke="#fff" stroke-width="18" opacity=".62"/><path d="M142 174c82-44 170-44 252 0" fill="none" stroke="#fff" stroke-width="10" opacity=".45" stroke-linecap="round"/>
</svg>
