<svg xmlns="http://www.w3.org/2000/svg" viewBox="0 0 800 420" role="img" aria-label="Ilustracion propia de oceano y olas para esta pregunta">
  <defs>
    <linearGradient id="bg" x1="0" x2="1" y1="0" y2="1">
      <stop stop-color="#dff8ff"/>
      <stop offset="1" stop-color="#dff8ff" stop-opacity="0.22"/>
    </linearGradient>
  </defs>
  <rect width="800" height="420" fill="url(#bg)"/>
  <circle cx="138" cy="194" r="74" fill="#12b7a6" opacity="0.13"/>
  <circle cx="401" cy="328" r="75" fill="#315be8" opacity="0.16"/>
  <circle cx="335" cy="116" r="4" fill="#fffaf4" opacity="0.66"/><circle cx="744" cy="368" r="4" fill="#fffaf4" opacity="0.67"/><circle cx="437" cy="279" r="3" fill="#fffaf4" opacity="0.68"/><circle cx="130" cy="190" r="3" fill="#fffaf4" opacity="0.69"/><circle cx="539" cy="101" r="3" fill="#fffaf4" opacity="0.7"/><circle cx="232" cy="354" r="3" fill="#fffaf4" opacity="0.71"/><circle cx="641" cy="265" r="3" fill="#fffaf4" opacity="0.72"/><circle cx="334" cy="176" r="3" fill="#fffaf4" opacity="0.28"/><circle cx="743" cy="86" r="3" fill="#fffaf4" opacity="0.29000000000000004"/>
  <path d="M0 240c88-42 144 42 232 0s144 42 232 0 144 42 232 0 144 42 232 0v180H0z" fill="#fff" opacity=".34"/><path d="M0 306c88-42 144 42 232 0s144 42 232 0 144 42 232 0 144 42 232 0" fill="none" stroke="#fff" stroke-width="18" opacity=".62"/><path d="M142 174c82-44 170-44 252 0" fill="none" stroke="#fff" stroke-width="10" opacity=".45" stroke-linecap="round"/>
</svg>
