<svg xmlns="http://www.w3.org/2000/svg" viewBox="0 0 800 420" role="img" aria-label="Ilustracion propia de cancha de baloncesto para esta pregunta">
  <defs>
    <linearGradient id="bg" x1="0" x2="1" y1="0" y2="1">
      <stop stop-color="#fff1df"/>
      <stop offset="1" stop-color="#d95a35" stop-opacity="0.22"/>
    </linearGradient>
  </defs>
  <rect width="800" height="420" fill="url(#bg)"/>
  <circle cx="117" cy="98" r="89" fill="#f6bc42" opacity="0.13"/>
  <circle cx="98" cy="138" r="77" fill="#d95a35" opacity="0.16"/>
  <circle cx="671" cy="136" r="2" fill="#15191d" opacity="0.29000000000000004"/><circle cx="364" cy="46" r="2" fill="#15191d" opacity="0.30000000000000004"/><circle cx="57" cy="299" r="2" fill="#15191d" opacity="0.31000000000000005"/><circle cx="466" cy="210" r="2" fill="#15191d" opacity="0.32"/><circle cx="467" cy="150" r="2" fill="#15191d" opacity="0.7"/><circle cx="160" cy="61" r="2" fill="#15191d" opacity="0.71"/><circle cx="569" cy="314" r="2" fill="#15191d" opacity="0.72"/><circle cx="262" cy="225" r="2" fill="#15191d" opacity="0.28"/><circle cx="363" cy="106" r="2" fill="#15191d" opacity="0.37"/>
  <rect x="76" y="58" width="648" height="304" rx="30" fill="#d95a35"/><path d="M100 210h600M400 58v304" stroke="#fffaf4" stroke-width="8" opacity=".8"/><circle cx="400" cy="210" r="59" fill="none" stroke="#fffaf4" stroke-width="8" opacity=".8"/><circle cx="264" cy="174" r="42" fill="#15191d"/><path d="M222 174h84M264 132v84" stroke="#f6bc42" stroke-width="5" fill="none"/>
</svg>
