<svg xmlns="http://www.w3.org/2000/svg" viewBox="0 0 800 420" role="img" aria-label="Ilustracion propia de cancha de baloncesto para esta pregunta">
  <defs>
    <linearGradient id="bg" x1="0" x2="1" y1="0" y2="1">
      <stop stop-color="#fff1df"/>
      <stop offset="1" stop-color="#fff1df" stop-opacity="0.22"/>
    </linearGradient>
  </defs>
  <rect width="800" height="420" fill="url(#bg)"/>
  <circle cx="609" cy="218" r="82" fill="#f6bc42" opacity="0.13"/>
  <circle cx="385" cy="188" r="76" fill="#d95a35" opacity="0.16"/>
  <circle cx="584" cy="55" r="3" fill="#15191d" opacity="0.63"/><circle cx="175" cy="144" r="3" fill="#15191d" opacity="0.6200000000000001"/><circle cx="686" cy="219" r="3" fill="#15191d" opacity="0.65"/><circle cx="277" cy="308" r="3" fill="#15191d" opacity="0.64"/><circle cx="380" cy="70" r="3" fill="#15191d" opacity="0.5900000000000001"/><circle cx="687" cy="159" r="3" fill="#15191d" opacity="0.5800000000000001"/><circle cx="482" cy="233" r="3" fill="#15191d" opacity="0.6100000000000001"/><circle cx="73" cy="323" r="3" fill="#15191d" opacity="0.6000000000000001"/><circle cx="276" cy="368" r="3" fill="#15191d" opacity="0.71"/>
  <rect x="76" y="58" width="648" height="304" rx="30" fill="#d95a35"/><path d="M100 210h600M400 58v304" stroke="#fffaf4" stroke-width="8" opacity=".8"/><circle cx="400" cy="210" r="73" fill="none" stroke="#fffaf4" stroke-width="8" opacity=".8"/><circle cx="432" cy="222" r="42" fill="#15191d"/><path d="M390 222h84M432 180v84" stroke="#f6bc42" stroke-width="5" fill="none"/>
</svg>
