<svg xmlns="http://www.w3.org/2000/svg" viewBox="0 0 800 420" role="img" aria-label="Ilustracion propia de estadio y futbol generico para esta pregunta">
  <defs>
    <linearGradient id="bg" x1="0" x2="1" y1="0" y2="1">
      <stop stop-color="#eaf8f5"/>
      <stop offset="1" stop-color="#15191d" stop-opacity="0.22"/>
    </linearGradient>
  </defs>
  <rect width="800" height="420" fill="url(#bg)"/>
  <circle cx="121" cy="264" r="133" fill="#26b99f" opacity="0.13"/>
  <circle cx="624" cy="123" r="142" fill="#f6bc42" opacity="0.16"/>
  <circle cx="226" cy="168" r="2" fill="#15191d" opacity="0.65"/><circle cx="533" cy="257" r="2" fill="#15191d" opacity="0.64"/><circle cx="124" cy="346" r="2" fill="#15191d" opacity="0.63"/><circle cx="431" cy="94" r="2" fill="#15191d" opacity="0.6200000000000001"/><circle cx="738" cy="183" r="3" fill="#15191d" opacity="0.6100000000000001"/><circle cx="329" cy="272" r="3" fill="#15191d" opacity="0.6000000000000001"/><circle cx="636" cy="361" r="3" fill="#15191d" opacity="0.5900000000000001"/><circle cx="227" cy="108" r="3" fill="#15191d" opacity="0.5800000000000001"/><circle cx="634" cy="139" r="2" fill="#15191d" opacity="0.28"/>
  <rect x="118" y="78" width="564" height="264" rx="26" fill="#f6bc42"/><path d="M400 78v264M118 210h564" stroke="#fff" stroke-width="7" opacity=".76"/><circle cx="400" cy="210" r="58" fill="none" stroke="#fff" stroke-width="7" opacity=".76"/><circle cx="220" cy="164" r="32" fill="#fff"/><path d="M188 164h64M220 132v64" stroke="#26b99f" stroke-width="5" opacity=".5"/>
</svg>
