<svg xmlns="http://www.w3.org/2000/svg" viewBox="0 0 800 420" role="img" aria-label="Ilustracion propia de cancha de baloncesto para esta pregunta">
  <defs>
    <linearGradient id="bg" x1="0" x2="1" y1="0" y2="1">
      <stop stop-color="#fff1df"/>
      <stop offset="1" stop-color="#15191d" stop-opacity="0.22"/>
    </linearGradient>
  </defs>
  <rect width="800" height="420" fill="url(#bg)"/>
  <circle cx="557" cy="204" r="109" fill="#f6bc42" opacity="0.13"/>
  <circle cx="603" cy="151" r="89" fill="#d95a35" opacity="0.16"/>
  <circle cx="279" cy="334" r="3" fill="#15191d" opacity="0.47000000000000003"/><circle cx="688" cy="245" r="3" fill="#15191d" opacity="0.48000000000000004"/><circle cx="381" cy="156" r="3" fill="#15191d" opacity="0.49"/><circle cx="74" cy="67" r="3" fill="#15191d" opacity="0.5"/><circle cx="483" cy="320" r="3" fill="#15191d" opacity="0.51"/><circle cx="176" cy="231" r="3" fill="#15191d" opacity="0.52"/><circle cx="585" cy="142" r="3" fill="#15191d" opacity="0.53"/><circle cx="278" cy="52" r="3" fill="#15191d" opacity="0.54"/><circle cx="687" cy="305" r="3" fill="#15191d" opacity="0.55"/>
  <rect x="76" y="58" width="648" height="304" rx="30" fill="#d95a35"/><path d="M100 210h600M400 58v304" stroke="#fffaf4" stroke-width="8" opacity=".8"/><circle cx="400" cy="210" r="59" fill="none" stroke="#fffaf4" stroke-width="8" opacity=".8"/><circle cx="264" cy="174" r="42" fill="#15191d"/><path d="M222 174h84M264 132v84" stroke="#f6bc42" stroke-width="5" fill="none"/>
</svg>
