<svg xmlns="http://www.w3.org/2000/svg" viewBox="0 0 800 420" role="img" aria-label="Ilustracion propia de arte y museo para esta pregunta">
  <defs>
    <linearGradient id="bg" x1="0" x2="1" y1="0" y2="1">
      <stop stop-color="#fff2df"/>
      <stop offset="1" stop-color="#fff2df" stop-opacity="0.22"/>
    </linearGradient>
  </defs>
  <rect width="800" height="420" fill="url(#bg)"/>
  <circle cx="203" cy="101" r="140" fill="#6f4a2d" opacity="0.13"/>
  <circle cx="484" cy="209" r="143" fill="#12b7a6" opacity="0.16"/>
  <circle cx="97" cy="135" r="2" fill="#ff4f6d" opacity="0.71"/><circle cx="506" cy="46" r="2" fill="#ff4f6d" opacity="0.72"/><circle cx="711" cy="314" r="2" fill="#ff4f6d" opacity="0.69"/><circle cx="404" cy="225" r="2" fill="#ff4f6d" opacity="0.7"/><circle cx="609" cy="150" r="2" fill="#ff4f6d" opacity="0.67"/><circle cx="302" cy="61" r="2" fill="#ff4f6d" opacity="0.68"/><circle cx="507" cy="328" r="2" fill="#ff4f6d" opacity="0.65"/><circle cx="200" cy="239" r="2" fill="#ff4f6d" opacity="0.66"/><circle cx="405" cy="165" r="2" fill="#ff4f6d" opacity="0.63"/>
  <rect x="270" y="54" width="304" height="312" rx="24" fill="#6f4a2d"/><rect x="300" y="84" width="244" height="252" rx="16" fill="#d9c092"/><circle cx="422" cy="178" r="54" fill="#f0c7a5"/><path d="M352 318c12-82 42-120 70-120s58 38 70 120z" fill="#ff4f6d"/><path d="M366 154c36-72 116-46 122 10-36-18-74-18-122-10z" fill="#4a2d22"/>
</svg>
