<svg xmlns="http://www.w3.org/2000/svg" viewBox="0 0 800 420" role="img" aria-label="Ilustracion propia de arte y museo para esta pregunta">
  <defs>
    <linearGradient id="bg" x1="0" x2="1" y1="0" y2="1">
      <stop stop-color="#fff2df"/>
      <stop offset="1" stop-color="#fff2df" stop-opacity="0.22"/>
    </linearGradient>
  </defs>
  <rect width="800" height="420" fill="url(#bg)"/>
  <circle cx="273" cy="140" r="134" fill="#6f4a2d" opacity="0.13"/>
  <circle cx="568" cy="179" r="132" fill="#12b7a6" opacity="0.16"/>
  <circle cx="183" cy="57" r="4" fill="#ff4f6d" opacity="0.5800000000000001"/><circle cx="592" cy="310" r="4" fill="#ff4f6d" opacity="0.5900000000000001"/><circle cx="285" cy="220" r="4" fill="#ff4f6d" opacity="0.6000000000000001"/><circle cx="694" cy="131" r="3" fill="#ff4f6d" opacity="0.6100000000000001"/><circle cx="695" cy="71" r="4" fill="#ff4f6d" opacity="0.54"/><circle cx="388" cy="324" r="4" fill="#ff4f6d" opacity="0.55"/><circle cx="81" cy="235" r="4" fill="#ff4f6d" opacity="0.56"/><circle cx="490" cy="146" r="4" fill="#ff4f6d" opacity="0.5700000000000001"/><circle cx="591" cy="370" r="3" fill="#ff4f6d" opacity="0.66"/>
  <rect x="270" y="54" width="304" height="312" rx="24" fill="#6f4a2d"/><rect x="300" y="84" width="244" height="252" rx="16" fill="#d9c092"/><circle cx="422" cy="178" r="54" fill="#f0c7a5"/><path d="M352 318c12-82 42-120 70-120s58 38 70 120z" fill="#ff4f6d"/><path d="M366 154c36-72 116-46 122 10-36-18-74-18-122-10z" fill="#4a2d22"/>
</svg>
