<svg xmlns="http://www.w3.org/2000/svg" viewBox="0 0 800 420" role="img" aria-label="Ilustracion propia de estadio y futbol generico para esta pregunta">
  <defs>
    <linearGradient id="bg" x1="0" x2="1" y1="0" y2="1">
      <stop stop-color="#eaf8f5"/>
      <stop offset="1" stop-color="#f6bc42" stop-opacity="0.22"/>
    </linearGradient>
  </defs>
  <rect width="800" height="420" fill="url(#bg)"/>
  <circle cx="671" cy="135" r="75" fill="#26b99f" opacity="0.13"/>
  <circle cx="542" cy="71" r="125" fill="#f6bc42" opacity="0.16"/>
  <circle cx="355" cy="280" r="2" fill="#15191d" opacity="0.36000000000000004"/><circle cx="48" cy="191" r="2" fill="#15191d" opacity="0.37"/><circle cx="457" cy="102" r="2" fill="#15191d" opacity="0.38"/><circle cx="150" cy="355" r="2" fill="#15191d" opacity="0.39"/><circle cx="559" cy="265" r="2" fill="#15191d" opacity="0.4"/><circle cx="252" cy="176" r="2" fill="#15191d" opacity="0.41000000000000003"/><circle cx="661" cy="87" r="2" fill="#15191d" opacity="0.42000000000000004"/><circle cx="354" cy="340" r="2" fill="#15191d" opacity="0.43000000000000005"/><circle cx="663" cy="309" r="2" fill="#15191d" opacity="0.28"/>
  <rect x="118" y="78" width="564" height="264" rx="26" fill="#f6bc42"/><path d="M400 78v264M118 210h564" stroke="#fff" stroke-width="7" opacity=".76"/><circle cx="400" cy="210" r="58" fill="none" stroke="#fff" stroke-width="7" opacity=".76"/><circle cx="220" cy="164" r="32" fill="#fff"/><path d="M188 164h64M220 132v64" stroke="#26b99f" stroke-width="5" opacity=".5"/>
</svg>
