<svg xmlns="http://www.w3.org/2000/svg" viewBox="0 0 800 420" role="img" aria-label="Ilustracion propia de circuito de velocidad para esta pregunta">
  <defs>
    <linearGradient id="bg" x1="0" x2="1" y1="0" y2="1">
      <stop stop-color="#e7f8ff"/>
      <stop offset="1" stop-color="#e7f8ff" stop-opacity="0.22"/>
    </linearGradient>
  </defs>
  <rect width="800" height="420" fill="url(#bg)"/>
  <circle cx="470" cy="140" r="134" fill="#15191d" opacity="0.13"/>
  <circle cx="442" cy="214" r="112" fill="#ff4f6d" opacity="0.16"/>
  <circle cx="204" cy="60" r="4" fill="#315be8" opacity="0.35000000000000003"/><circle cx="511" cy="149" r="4" fill="#315be8" opacity="0.34"/><circle cx="306" cy="224" r="4" fill="#315be8" opacity="0.37"/><circle cx="613" cy="313" r="4" fill="#315be8" opacity="0.36000000000000004"/><circle cx="716" cy="75" r="4" fill="#315be8" opacity="0.31000000000000005"/><circle cx="307" cy="164" r="4" fill="#315be8" opacity="0.30000000000000004"/><circle cx="102" cy="239" r="4" fill="#315be8" opacity="0.33"/><circle cx="409" cy="328" r="4" fill="#315be8" opacity="0.32"/><circle cx="612" cy="373" r="4" fill="#315be8" opacity="0.43000000000000005"/>
  <path d="M98 300c110-170 248-42 350-120 60-46 118-84 210-28 66 40 54 132-26 152-96 24-160-50-246-24-100 30-152 94-288 20z" fill="none" stroke="#15191d" stroke-width="52" stroke-linecap="round"/><path d="M98 300c110-170 248-42 350-120 60-46 118-84 210-28 66 40 54 132-26 152-96 24-160-50-246-24-100 30-152 94-288 20z" fill="none" stroke="#fff" stroke-width="7" stroke-dasharray="24 22" stroke-linecap="round"/><rect x="376" y="250" width="150" height="42" rx="18" fill="#315be8"/><path d="M404 250l34-34h52l24 34z" fill="#fffaf4"/>
</svg>
