<svg xmlns="http://www.w3.org/2000/svg" viewBox="0 0 800 420" role="img" aria-label="Ilustracion propia de pista de tenis para esta pregunta">
  <defs>
    <linearGradient id="bg" x1="0" x2="1" y1="0" y2="1">
      <stop stop-color="#e8fbf5"/>
      <stop offset="1" stop-color="#f6bc42" stop-opacity="0.22"/>
    </linearGradient>
  </defs>
  <rect width="800" height="420" fill="url(#bg)"/>
  <circle cx="399" cy="303" r="107" fill="#12b7a6" opacity="0.13"/>
  <circle cx="508" cy="270" r="139" fill="#f6bc42" opacity="0.16"/>
  <circle cx="536" cy="268" r="3" fill="#315be8" opacity="0.28"/><circle cx="127" cy="357" r="3" fill="#315be8" opacity="0.72"/><circle cx="638" cy="89" r="3" fill="#315be8" opacity="0.30000000000000004"/><circle cx="229" cy="179" r="3" fill="#315be8" opacity="0.29000000000000004"/><circle cx="332" cy="282" r="3" fill="#315be8" opacity="0.69"/><circle cx="639" cy="371" r="3" fill="#315be8" opacity="0.68"/><circle cx="434" cy="104" r="3" fill="#315be8" opacity="0.71"/><circle cx="741" cy="193" r="3" fill="#315be8" opacity="0.7"/><circle cx="128" cy="297" r="3" fill="#315be8" opacity="0.65"/>
  <rect x="96" y="52" width="608" height="316" rx="28" fill="#f6bc42"/><path d="M400 52v316M96 210h608M170 110h460M170 310h460M170 110v200M630 110v200" stroke="#fff" stroke-width="7" opacity=".88"/><circle cx="390" cy="228" r="18" fill="#315be8"/><ellipse cx="298" cy="206" rx="36" ry="50" fill="none" stroke="#fffaf4" stroke-width="9" transform="rotate(-18 298 206)"/>
</svg>
