<svg xmlns="http://www.w3.org/2000/svg" viewBox="0 0 800 420" role="img" aria-label="Ilustracion propia de estadio y futbol generico para esta pregunta">
  <defs>
    <linearGradient id="bg" x1="0" x2="1" y1="0" y2="1">
      <stop stop-color="#eaf8f5"/>
      <stop offset="1" stop-color="#f6bc42" stop-opacity="0.22"/>
    </linearGradient>
  </defs>
  <rect width="800" height="420" fill="url(#bg)"/>
  <circle cx="213" cy="319" r="87" fill="#26b99f" opacity="0.13"/>
  <circle cx="335" cy="165" r="106" fill="#f6bc42" opacity="0.16"/>
  <circle cx="423" cy="114" r="4" fill="#15191d" opacity="0.56"/><circle cx="116" cy="367" r="4" fill="#15191d" opacity="0.5700000000000001"/><circle cx="525" cy="277" r="4" fill="#15191d" opacity="0.5800000000000001"/><circle cx="218" cy="188" r="4" fill="#15191d" opacity="0.5900000000000001"/><circle cx="219" cy="128" r="4" fill="#15191d" opacity="0.52"/><circle cx="628" cy="39" r="4" fill="#15191d" opacity="0.53"/><circle cx="321" cy="292" r="4" fill="#15191d" opacity="0.54"/><circle cx="730" cy="203" r="4" fill="#15191d" opacity="0.55"/><circle cx="731" cy="143" r="4" fill="#15191d" opacity="0.48000000000000004"/>
  <rect x="118" y="78" width="564" height="264" rx="26" fill="#f6bc42"/><path d="M400 78v264M118 210h564" stroke="#fff" stroke-width="7" opacity=".76"/><circle cx="400" cy="210" r="58" fill="none" stroke="#fff" stroke-width="7" opacity=".76"/><circle cx="296" cy="200" r="32" fill="#fff"/><path d="M264 200h64M296 168v64" stroke="#26b99f" stroke-width="5" opacity=".5"/>
</svg>
