<svg xmlns="http://www.w3.org/2000/svg" viewBox="0 0 800 420" role="img" aria-label="Ilustracion propia de pista de tenis para esta pregunta">
  <defs>
    <linearGradient id="bg" x1="0" x2="1" y1="0" y2="1">
      <stop stop-color="#e8fbf5"/>
      <stop offset="1" stop-color="#e8fbf5" stop-opacity="0.22"/>
    </linearGradient>
  </defs>
  <rect width="800" height="420" fill="url(#bg)"/>
  <circle cx="159" cy="324" r="84" fill="#12b7a6" opacity="0.13"/>
  <circle cx="553" cy="130" r="86" fill="#f6bc42" opacity="0.16"/>
  <circle cx="565" cy="345" r="2" fill="#315be8" opacity="0.6200000000000001"/><circle cx="258" cy="256" r="2" fill="#315be8" opacity="0.63"/><circle cx="463" cy="182" r="2" fill="#315be8" opacity="0.6000000000000001"/><circle cx="156" cy="93" r="2" fill="#315be8" opacity="0.6100000000000001"/><circle cx="53" cy="331" r="2" fill="#315be8" opacity="0.66"/><circle cx="462" cy="242" r="2" fill="#315be8" opacity="0.67"/><circle cx="667" cy="167" r="2" fill="#315be8" opacity="0.64"/><circle cx="360" cy="78" r="2" fill="#315be8" opacity="0.65"/><circle cx="157" cy="375" r="2" fill="#315be8" opacity="0.54"/>
  <rect x="96" y="52" width="608" height="316" rx="28" fill="#f6bc42"/><path d="M400 52v316M96 210h608M170 110h460M170 310h460M170 110v200M630 110v200" stroke="#fff" stroke-width="7" opacity=".88"/><circle cx="390" cy="228" r="18" fill="#315be8"/><ellipse cx="298" cy="206" rx="36" ry="50" fill="none" stroke="#fffaf4" stroke-width="9" transform="rotate(-18 298 206)"/>
</svg>
