<svg xmlns="http://www.w3.org/2000/svg" viewBox="0 0 800 420" role="img" aria-label="Ilustracion propia de cancha de baloncesto para esta pregunta">
  <defs>
    <linearGradient id="bg" x1="0" x2="1" y1="0" y2="1">
      <stop stop-color="#fff1df"/>
      <stop offset="1" stop-color="#fff1df" stop-opacity="0.22"/>
    </linearGradient>
  </defs>
  <rect width="800" height="420" fill="url(#bg)"/>
  <circle cx="451" cy="345" r="104" fill="#f6bc42" opacity="0.13"/>
  <circle cx="140" cy="276" r="79" fill="#d95a35" opacity="0.16"/>
  <circle cx="531" cy="233" r="3" fill="#15191d" opacity="0.37"/><circle cx="224" cy="144" r="3" fill="#15191d" opacity="0.38"/><circle cx="633" cy="55" r="2" fill="#15191d" opacity="0.39"/><circle cx="326" cy="308" r="2" fill="#15191d" opacity="0.4"/><circle cx="327" cy="248" r="3" fill="#15191d" opacity="0.33"/><circle cx="736" cy="158" r="3" fill="#15191d" opacity="0.34"/><circle cx="429" cy="69" r="3" fill="#15191d" opacity="0.35000000000000003"/><circle cx="122" cy="322" r="3" fill="#15191d" opacity="0.36000000000000004"/><circle cx="223" cy="204" r="2" fill="#15191d" opacity="0.45000000000000007"/>
  <rect x="76" y="58" width="648" height="304" rx="30" fill="#d95a35"/><path d="M100 210h600M400 58v304" stroke="#fffaf4" stroke-width="8" opacity=".8"/><circle cx="400" cy="210" r="52" fill="none" stroke="#fffaf4" stroke-width="8" opacity=".8"/><circle cx="180" cy="150" r="42" fill="#15191d"/><path d="M138 150h84M180 108v84" stroke="#f6bc42" stroke-width="5" fill="none"/>
</svg>
