<svg xmlns="http://www.w3.org/2000/svg" viewBox="0 0 800 420" role="img" aria-label="Ilustracion propia de estadio y futbol generico para esta pregunta">
  <defs>
    <linearGradient id="bg" x1="0" x2="1" y1="0" y2="1">
      <stop stop-color="#eaf8f5"/>
      <stop offset="1" stop-color="#26b99f" stop-opacity="0.22"/>
    </linearGradient>
  </defs>
  <rect width="800" height="420" fill="url(#bg)"/>
  <circle cx="232" cy="250" r="104" fill="#26b99f" opacity="0.13"/>
  <circle cx="563" cy="121" r="109" fill="#f6bc42" opacity="0.16"/>
  <circle cx="192" cy="228" r="2" fill="#15191d" opacity="0.48000000000000004"/><circle cx="499" cy="317" r="2" fill="#15191d" opacity="0.47000000000000003"/><circle cx="294" cy="50" r="2" fill="#15191d" opacity="0.5"/><circle cx="601" cy="139" r="2" fill="#15191d" opacity="0.49"/><circle cx="704" cy="243" r="2" fill="#15191d" opacity="0.44000000000000006"/><circle cx="295" cy="332" r="2" fill="#15191d" opacity="0.43000000000000005"/><circle cx="90" cy="64" r="2" fill="#15191d" opacity="0.46"/><circle cx="397" cy="154" r="2" fill="#15191d" opacity="0.45000000000000007"/><circle cx="500" cy="257" r="2" fill="#15191d" opacity="0.4"/>
  <rect x="118" y="78" width="564" height="264" rx="26" fill="#f6bc42"/><path d="M400 78v264M118 210h564" stroke="#fff" stroke-width="7" opacity=".76"/><circle cx="400" cy="210" r="58" fill="none" stroke="#fff" stroke-width="7" opacity=".76"/><circle cx="258" cy="182" r="32" fill="#fff"/><path d="M226 182h64M258 150v64" stroke="#26b99f" stroke-width="5" opacity=".5"/>
</svg>
