<svg xmlns="http://www.w3.org/2000/svg" viewBox="0 0 800 420" role="img" aria-label="Ilustracion propia de cancha de baloncesto para esta pregunta">
  <defs>
    <linearGradient id="bg" x1="0" x2="1" y1="0" y2="1">
      <stop stop-color="#fff1df"/>
      <stop offset="1" stop-color="#d95a35" stop-opacity="0.22"/>
    </linearGradient>
  </defs>
  <rect width="800" height="420" fill="url(#bg)"/>
  <circle cx="631" cy="181" r="139" fill="#f6bc42" opacity="0.13"/>
  <circle cx="237" cy="219" r="103" fill="#d95a35" opacity="0.16"/>
  <circle cx="756" cy="108" r="5" fill="#15191d" opacity="0.34"/><circle cx="347" cy="197" r="5" fill="#15191d" opacity="0.33"/><circle cx="142" cy="271" r="5" fill="#15191d" opacity="0.36000000000000004"/><circle cx="449" cy="360" r="5" fill="#15191d" opacity="0.35000000000000003"/><circle cx="552" cy="122" r="5" fill="#15191d" opacity="0.30000000000000004"/><circle cx="143" cy="211" r="5" fill="#15191d" opacity="0.29000000000000004"/><circle cx="654" cy="286" r="5" fill="#15191d" opacity="0.32"/><circle cx="245" cy="375" r="5" fill="#15191d" opacity="0.31000000000000005"/><circle cx="348" cy="137" r="5" fill="#15191d" opacity="0.71"/>
  <rect x="76" y="58" width="648" height="304" rx="30" fill="#d95a35"/><path d="M100 210h600M400 58v304" stroke="#fffaf4" stroke-width="8" opacity=".8"/><circle cx="400" cy="210" r="52" fill="none" stroke="#fffaf4" stroke-width="8" opacity=".8"/><circle cx="180" cy="150" r="42" fill="#15191d"/><path d="M138 150h84M180 108v84" stroke="#f6bc42" stroke-width="5" fill="none"/>
</svg>
