<svg xmlns="http://www.w3.org/2000/svg" viewBox="0 0 800 420" role="img" aria-label="Ilustracion propia de cancha de baloncesto para esta pregunta">
  <defs>
    <linearGradient id="bg" x1="0" x2="1" y1="0" y2="1">
      <stop stop-color="#fff1df"/>
      <stop offset="1" stop-color="#f6bc42" stop-opacity="0.22"/>
    </linearGradient>
  </defs>
  <rect width="800" height="420" fill="url(#bg)"/>
  <circle cx="268" cy="343" r="98" fill="#f6bc42" opacity="0.13"/>
  <circle cx="492" cy="168" r="88" fill="#d95a35" opacity="0.16"/>
  <circle cx="648" cy="204" r="4" fill="#15191d" opacity="0.43000000000000005"/><circle cx="239" cy="293" r="4" fill="#15191d" opacity="0.42000000000000004"/><circle cx="750" cy="367" r="4" fill="#15191d" opacity="0.45000000000000007"/><circle cx="341" cy="115" r="4" fill="#15191d" opacity="0.44000000000000006"/><circle cx="444" cy="218" r="4" fill="#15191d" opacity="0.39"/><circle cx="751" cy="307" r="4" fill="#15191d" opacity="0.38"/><circle cx="546" cy="40" r="4" fill="#15191d" opacity="0.41000000000000003"/><circle cx="137" cy="129" r="4" fill="#15191d" opacity="0.4"/><circle cx="340" cy="175" r="4" fill="#15191d" opacity="0.51"/>
  <rect x="76" y="58" width="648" height="304" rx="30" fill="#d95a35"/><path d="M100 210h600M400 58v304" stroke="#fffaf4" stroke-width="8" opacity=".8"/><circle cx="400" cy="210" r="66" fill="none" stroke="#fffaf4" stroke-width="8" opacity=".8"/><circle cx="348" cy="198" r="42" fill="#15191d"/><path d="M306 198h84M348 156v84" stroke="#f6bc42" stroke-width="5" fill="none"/>
</svg>
