<svg xmlns="http://www.w3.org/2000/svg" viewBox="0 0 800 420" role="img" aria-label="Ilustracion propia de cancha de baloncesto para esta pregunta">
  <defs>
    <linearGradient id="bg" x1="0" x2="1" y1="0" y2="1">
      <stop stop-color="#fff1df"/>
      <stop offset="1" stop-color="#fff1df" stop-opacity="0.22"/>
    </linearGradient>
  </defs>
  <rect width="800" height="420" fill="url(#bg)"/>
  <circle cx="684" cy="133" r="134" fill="#f6bc42" opacity="0.13"/>
  <circle cx="319" cy="213" r="132" fill="#d95a35" opacity="0.16"/>
  <circle cx="385" cy="70" r="5" fill="#15191d" opacity="0.5700000000000001"/><circle cx="78" cy="323" r="5" fill="#15191d" opacity="0.5800000000000001"/><circle cx="283" cy="248" r="5" fill="#15191d" opacity="0.55"/><circle cx="692" cy="159" r="5" fill="#15191d" opacity="0.56"/><circle cx="181" cy="84" r="5" fill="#15191d" opacity="0.53"/><circle cx="590" cy="337" r="5" fill="#15191d" opacity="0.54"/><circle cx="79" cy="263" r="5" fill="#15191d" opacity="0.51"/><circle cx="488" cy="174" r="5" fill="#15191d" opacity="0.52"/><circle cx="693" cy="99" r="5" fill="#15191d" opacity="0.49"/>
  <rect x="76" y="58" width="648" height="304" rx="30" fill="#d95a35"/><path d="M100 210h600M400 58v304" stroke="#fffaf4" stroke-width="8" opacity=".8"/><circle cx="400" cy="210" r="73" fill="none" stroke="#fffaf4" stroke-width="8" opacity=".8"/><circle cx="432" cy="222" r="42" fill="#15191d"/><path d="M390 222h84M432 180v84" stroke="#f6bc42" stroke-width="5" fill="none"/>
</svg>
