<svg xmlns="http://www.w3.org/2000/svg" viewBox="0 0 800 420" role="img" aria-label="Ilustracion propia de circuito de velocidad para esta pregunta">
  <defs>
    <linearGradient id="bg" x1="0" x2="1" y1="0" y2="1">
      <stop stop-color="#e7f8ff"/>
      <stop offset="1" stop-color="#15191d" stop-opacity="0.22"/>
    </linearGradient>
  </defs>
  <rect width="800" height="420" fill="url(#bg)"/>
  <circle cx="518" cy="224" r="134" fill="#15191d" opacity="0.13"/>
  <circle cx="673" cy="261" r="122" fill="#ff4f6d" opacity="0.16"/>
  <circle cx="225" cy="254" r="5" fill="#315be8" opacity="0.5900000000000001"/><circle cx="634" cy="165" r="5" fill="#315be8" opacity="0.6000000000000001"/><circle cx="123" cy="90" r="5" fill="#315be8" opacity="0.5700000000000001"/><circle cx="532" cy="343" r="5" fill="#315be8" opacity="0.5800000000000001"/><circle cx="429" cy="239" r="5" fill="#315be8" opacity="0.63"/><circle cx="122" cy="150" r="5" fill="#315be8" opacity="0.64"/><circle cx="327" cy="76" r="5" fill="#315be8" opacity="0.6100000000000001"/><circle cx="736" cy="329" r="5" fill="#315be8" opacity="0.6200000000000001"/><circle cx="533" cy="283" r="5" fill="#315be8" opacity="0.51"/>
  <path d="M98 300c110-170 248-42 350-120 60-46 118-84 210-28 66 40 54 132-26 152-96 24-160-50-246-24-100 30-152 94-288 20z" fill="none" stroke="#15191d" stroke-width="46" stroke-linecap="round"/><path d="M98 300c110-170 248-42 350-120 60-46 118-84 210-28 66 40 54 132-26 152-96 24-160-50-246-24-100 30-152 94-288 20z" fill="none" stroke="#fff" stroke-width="7" stroke-dasharray="24 22" stroke-linecap="round"/><rect x="328" y="250" width="150" height="42" rx="18" fill="#315be8"/><path d="M356 250l34-34h52l24 34z" fill="#fffaf4"/>
</svg>
