<svg xmlns="http://www.w3.org/2000/svg" viewBox="0 0 800 420" role="img" aria-label="Ilustracion propia de pista de tenis para esta pregunta">
  <defs>
    <linearGradient id="bg" x1="0" x2="1" y1="0" y2="1">
      <stop stop-color="#e8fbf5"/>
      <stop offset="1" stop-color="#f6bc42" stop-opacity="0.22"/>
    </linearGradient>
  </defs>
  <rect width="800" height="420" fill="url(#bg)"/>
  <circle cx="579" cy="166" r="111" fill="#12b7a6" opacity="0.13"/>
  <circle cx="681" cy="182" r="139" fill="#f6bc42" opacity="0.16"/>
  <circle cx="470" cy="72" r="4" fill="#315be8" opacity="0.52"/><circle cx="61" cy="161" r="4" fill="#315be8" opacity="0.51"/><circle cx="368" cy="250" r="4" fill="#315be8" opacity="0.5"/><circle cx="675" cy="339" r="4" fill="#315be8" opacity="0.49"/><circle cx="674" cy="57" r="4" fill="#315be8" opacity="0.56"/><circle cx="265" cy="147" r="4" fill="#315be8" opacity="0.55"/><circle cx="572" cy="236" r="4" fill="#315be8" opacity="0.54"/><circle cx="163" cy="325" r="4" fill="#315be8" opacity="0.53"/><circle cx="62" cy="101" r="5" fill="#315be8" opacity="0.44000000000000006"/>
  <rect x="96" y="52" width="608" height="316" rx="28" fill="#f6bc42"/><path d="M400 52v316M96 210h608M170 110h460M170 310h460M170 110v200M630 110v200" stroke="#fff" stroke-width="7" opacity=".88"/><circle cx="390" cy="228" r="18" fill="#315be8"/><ellipse cx="298" cy="206" rx="36" ry="50" fill="none" stroke="#fffaf4" stroke-width="9" transform="rotate(-18 298 206)"/>
</svg>
