<svg xmlns="http://www.w3.org/2000/svg" viewBox="0 0 800 420" role="img" aria-label="Ilustracion propia de cancha de baloncesto para esta pregunta">
  <defs>
    <linearGradient id="bg" x1="0" x2="1" y1="0" y2="1">
      <stop stop-color="#fff1df"/>
      <stop offset="1" stop-color="#d95a35" stop-opacity="0.22"/>
    </linearGradient>
  </defs>
  <rect width="800" height="420" fill="url(#bg)"/>
  <circle cx="195" cy="129" r="119" fill="#f6bc42" opacity="0.13"/>
  <circle cx="558" cy="320" r="130" fill="#d95a35" opacity="0.16"/>
  <circle cx="284" cy="56" r="3" fill="#15191d" opacity="0.48000000000000004"/><circle cx="591" cy="145" r="3" fill="#15191d" opacity="0.47000000000000003"/><circle cx="386" cy="219" r="3" fill="#15191d" opacity="0.5"/><circle cx="693" cy="309" r="3" fill="#15191d" opacity="0.49"/><circle cx="488" cy="41" r="3" fill="#15191d" opacity="0.52"/><circle cx="79" cy="130" r="3" fill="#15191d" opacity="0.51"/><circle cx="590" cy="205" r="3" fill="#15191d" opacity="0.54"/><circle cx="181" cy="294" r="3" fill="#15191d" opacity="0.53"/><circle cx="592" cy="85" r="3" fill="#15191d" opacity="0.4"/>
  <rect x="76" y="58" width="648" height="304" rx="30" fill="#d95a35"/><path d="M100 210h600M400 58v304" stroke="#fffaf4" stroke-width="8" opacity=".8"/><circle cx="400" cy="210" r="80" fill="none" stroke="#fffaf4" stroke-width="8" opacity=".8"/><circle cx="516" cy="246" r="42" fill="#15191d"/><path d="M474 246h84M516 204v84" stroke="#f6bc42" stroke-width="5" fill="none"/>
</svg>
