<svg xmlns="http://www.w3.org/2000/svg" viewBox="0 0 800 420" role="img" aria-label="Ilustracion propia de cancha de baloncesto para esta pregunta">
  <defs>
    <linearGradient id="bg" x1="0" x2="1" y1="0" y2="1">
      <stop stop-color="#fff1df"/>
      <stop offset="1" stop-color="#fff1df" stop-opacity="0.22"/>
    </linearGradient>
  </defs>
  <rect width="800" height="420" fill="url(#bg)"/>
  <circle cx="638" cy="319" r="126" fill="#f6bc42" opacity="0.13"/>
  <circle cx="613" cy="308" r="71" fill="#d95a35" opacity="0.16"/>
  <circle cx="75" cy="130" r="3" fill="#15191d" opacity="0.66"/><circle cx="484" cy="41" r="3" fill="#15191d" opacity="0.67"/><circle cx="177" cy="293" r="3" fill="#15191d" opacity="0.68"/><circle cx="586" cy="204" r="3" fill="#15191d" opacity="0.69"/><circle cx="279" cy="115" r="3" fill="#15191d" opacity="0.7"/><circle cx="688" cy="368" r="3" fill="#15191d" opacity="0.71"/><circle cx="381" cy="279" r="3" fill="#15191d" opacity="0.72"/><circle cx="74" cy="190" r="3" fill="#15191d" opacity="0.28"/><circle cx="615" cy="373" r="3" fill="#15191d" opacity="0.72"/>
  <rect x="76" y="58" width="648" height="304" rx="30" fill="#d95a35"/><path d="M100 210h600M400 58v304" stroke="#fffaf4" stroke-width="8" opacity=".8"/><circle cx="400" cy="210" r="66" fill="none" stroke="#fffaf4" stroke-width="8" opacity=".8"/><circle cx="348" cy="198" r="42" fill="#15191d"/><path d="M306 198h84M348 156v84" stroke="#f6bc42" stroke-width="5" fill="none"/>
</svg>
