<svg xmlns="http://www.w3.org/2000/svg" viewBox="0 0 800 420" role="img" aria-label="Ilustracion propia de pista de tenis para esta pregunta">
  <defs>
    <linearGradient id="bg" x1="0" x2="1" y1="0" y2="1">
      <stop stop-color="#e8fbf5"/>
      <stop offset="1" stop-color="#f6bc42" stop-opacity="0.22"/>
    </linearGradient>
  </defs>
  <rect width="800" height="420" fill="url(#bg)"/>
  <circle cx="417" cy="229" r="123" fill="#12b7a6" opacity="0.13"/>
  <circle cx="436" cy="82" r="141" fill="#f6bc42" opacity="0.16"/>
  <circle cx="624" cy="315" r="5" fill="#315be8" opacity="0.51"/><circle cx="215" cy="63" r="5" fill="#315be8" opacity="0.5"/><circle cx="726" cy="137" r="5" fill="#315be8" opacity="0.53"/><circle cx="317" cy="226" r="5" fill="#315be8" opacity="0.52"/><circle cx="112" cy="301" r="5" fill="#315be8" opacity="0.55"/><circle cx="419" cy="48" r="5" fill="#315be8" opacity="0.54"/><circle cx="214" cy="123" r="5" fill="#315be8" opacity="0.5700000000000001"/><circle cx="521" cy="212" r="5" fill="#315be8" opacity="0.56"/><circle cx="316" cy="286" r="5" fill="#315be8" opacity="0.5900000000000001"/>
  <rect x="96" y="52" width="608" height="316" rx="28" fill="#f6bc42"/><path d="M400 52v316M96 210h608M170 110h460M170 310h460M170 110v200M630 110v200" stroke="#fff" stroke-width="7" opacity=".88"/><circle cx="502" cy="160" r="18" fill="#315be8"/><ellipse cx="226" cy="242" rx="36" ry="50" fill="none" stroke="#fffaf4" stroke-width="9" transform="rotate(-18 226 242)"/>
</svg>
