<svg xmlns="http://www.w3.org/2000/svg" viewBox="0 0 800 420" role="img" aria-label="Ilustracion propia de estadio y futbol generico para esta pregunta">
  <defs>
    <linearGradient id="bg" x1="0" x2="1" y1="0" y2="1">
      <stop stop-color="#eaf8f5"/>
      <stop offset="1" stop-color="#eaf8f5" stop-opacity="0.22"/>
    </linearGradient>
  </defs>
  <rect width="800" height="420" fill="url(#bg)"/>
  <circle cx="591" cy="264" r="98" fill="#26b99f" opacity="0.13"/>
  <circle cx="307" cy="301" r="88" fill="#f6bc42" opacity="0.16"/>
  <circle cx="352" cy="366" r="2" fill="#15191d" opacity="0.5"/><circle cx="659" cy="113" r="2" fill="#15191d" opacity="0.49"/><circle cx="454" cy="187" r="2" fill="#15191d" opacity="0.52"/><circle cx="45" cy="276" r="2" fill="#15191d" opacity="0.51"/><circle cx="556" cy="351" r="2" fill="#15191d" opacity="0.54"/><circle cx="147" cy="98" r="2" fill="#15191d" opacity="0.53"/><circle cx="658" cy="173" r="2" fill="#15191d" opacity="0.56"/><circle cx="249" cy="262" r="2" fill="#15191d" opacity="0.55"/><circle cx="44" cy="336" r="2" fill="#15191d" opacity="0.5800000000000001"/>
  <rect x="118" y="78" width="564" height="264" rx="26" fill="#f6bc42"/><path d="M400 78v264M118 210h564" stroke="#fff" stroke-width="7" opacity=".76"/><circle cx="400" cy="210" r="58" fill="none" stroke="#fff" stroke-width="7" opacity=".76"/><circle cx="220" cy="164" r="32" fill="#fff"/><path d="M188 164h64M220 132v64" stroke="#26b99f" stroke-width="5" opacity=".5"/>
</svg>
