<svg xmlns="http://www.w3.org/2000/svg" viewBox="0 0 800 420" role="img" aria-label="Ilustracion propia de estadio y futbol generico para esta pregunta">
  <defs>
    <linearGradient id="bg" x1="0" x2="1" y1="0" y2="1">
      <stop stop-color="#eaf8f5"/>
      <stop offset="1" stop-color="#15191d" stop-opacity="0.22"/>
    </linearGradient>
  </defs>
  <rect width="800" height="420" fill="url(#bg)"/>
  <circle cx="411" cy="135" r="117" fill="#26b99f" opacity="0.13"/>
  <circle cx="510" cy="214" r="100" fill="#f6bc42" opacity="0.16"/>
  <circle cx="232" cy="308" r="4" fill="#15191d" opacity="0.47000000000000003"/><circle cx="539" cy="55" r="4" fill="#15191d" opacity="0.46"/><circle cx="334" cy="130" r="4" fill="#15191d" opacity="0.49"/><circle cx="641" cy="219" r="4" fill="#15191d" opacity="0.48000000000000004"/><circle cx="436" cy="293" r="4" fill="#15191d" opacity="0.51"/><circle cx="743" cy="40" r="4" fill="#15191d" opacity="0.5"/><circle cx="538" cy="115" r="4" fill="#15191d" opacity="0.53"/><circle cx="129" cy="204" r="4" fill="#15191d" opacity="0.52"/><circle cx="640" cy="279" r="4" fill="#15191d" opacity="0.55"/>
  <rect x="118" y="78" width="564" height="264" rx="26" fill="#f6bc42"/><path d="M400 78v264M118 210h564" stroke="#fff" stroke-width="7" opacity=".76"/><circle cx="400" cy="210" r="58" fill="none" stroke="#fff" stroke-width="7" opacity=".76"/><circle cx="220" cy="164" r="32" fill="#fff"/><path d="M188 164h64M220 132v64" stroke="#26b99f" stroke-width="5" opacity=".5"/>
</svg>
