<svg xmlns="http://www.w3.org/2000/svg" viewBox="0 0 800 420" role="img" aria-label="Ilustracion propia de pista de tenis para esta pregunta">
  <defs>
    <linearGradient id="bg" x1="0" x2="1" y1="0" y2="1">
      <stop stop-color="#e8fbf5"/>
      <stop offset="1" stop-color="#12b7a6" stop-opacity="0.22"/>
    </linearGradient>
  </defs>
  <rect width="800" height="420" fill="url(#bg)"/>
  <circle cx="125" cy="75" r="92" fill="#12b7a6" opacity="0.13"/>
  <circle cx="174" cy="170" r="97" fill="#f6bc42" opacity="0.16"/>
  <circle cx="342" cy="235" r="2" fill="#315be8" opacity="0.4"/><circle cx="649" cy="324" r="2" fill="#315be8" opacity="0.39"/><circle cx="240" cy="72" r="2" fill="#315be8" opacity="0.38"/><circle cx="547" cy="161" r="2" fill="#315be8" opacity="0.37"/><circle cx="546" cy="221" r="2" fill="#315be8" opacity="0.44000000000000006"/><circle cx="137" cy="310" r="2" fill="#315be8" opacity="0.43000000000000005"/><circle cx="444" cy="57" r="2" fill="#315be8" opacity="0.42000000000000004"/><circle cx="751" cy="146" r="2" fill="#315be8" opacity="0.41000000000000003"/><circle cx="750" cy="206" r="5" fill="#315be8" opacity="0.48000000000000004"/>
  <rect x="96" y="52" width="608" height="316" rx="28" fill="#f6bc42"/><path d="M400 52v316M96 210h608M170 110h460M170 310h460M170 110v200M630 110v200" stroke="#fff" stroke-width="7" opacity=".88"/><circle cx="334" cy="262" r="18" fill="#315be8"/><ellipse cx="334" cy="188" rx="36" ry="50" fill="none" stroke="#fffaf4" stroke-width="9" transform="rotate(-18 334 188)"/>
</svg>
