<svg xmlns="http://www.w3.org/2000/svg" viewBox="0 0 800 420" role="img" aria-label="Ilustracion propia de espacio y planetas para esta pregunta">
  <defs>
    <linearGradient id="bg" x1="0" x2="1" y1="0" y2="1">
      <stop stop-color="#12171a"/>
      <stop offset="1" stop-color="#315be8" stop-opacity="0.22"/>
    </linearGradient>
  </defs>
  <rect width="800" height="420" fill="url(#bg)"/>
  <circle cx="494" cy="222" r="117" fill="#e46b4f" opacity="0.13"/>
  <circle cx="520" cy="117" r="70" fill="#f6bc42" opacity="0.16"/>
  <circle cx="315" cy="219" r="4" fill="#315be8" opacity="0.48000000000000004"/><circle cx="724" cy="130" r="4" fill="#315be8" opacity="0.49"/><circle cx="417" cy="41" r="4" fill="#315be8" opacity="0.5"/><circle cx="110" cy="294" r="4" fill="#315be8" opacity="0.51"/><circle cx="111" cy="234" r="5" fill="#315be8" opacity="0.44000000000000006"/><circle cx="520" cy="145" r="4" fill="#315be8" opacity="0.45000000000000007"/><circle cx="213" cy="56" r="4" fill="#315be8" opacity="0.46"/><circle cx="622" cy="309" r="4" fill="#315be8" opacity="0.47000000000000003"/><circle cx="723" cy="190" r="4" fill="#315be8" opacity="0.56"/>
  <rect width="800" height="420" fill="#e46b4f"/><circle cx="388" cy="218" r="91" fill="#f6bc42"/><path d="M230 212c36 14 66-22 112-2" stroke="#8f3327" stroke-width="12" stroke-linecap="round" opacity=".36"/><circle cx="432" cy="214" r="60" fill="#315be8"/><circle cx="600" cy="276" r="32" fill="#fffaf4"/><path d="M176 324c140 46 308 54 476 0" stroke="#fff" stroke-width="5" fill="none" opacity=".38"/>
</svg>
