<svg xmlns="http://www.w3.org/2000/svg" viewBox="0 0 800 420" role="img" aria-label="Ilustracion propia de arte y museo para esta pregunta">
  <defs>
    <linearGradient id="bg" x1="0" x2="1" y1="0" y2="1">
      <stop stop-color="#fff2df"/>
      <stop offset="1" stop-color="#6f4a2d" stop-opacity="0.22"/>
    </linearGradient>
  </defs>
  <rect width="800" height="420" fill="url(#bg)"/>
  <circle cx="675" cy="121" r="108" fill="#6f4a2d" opacity="0.13"/>
  <circle cx="468" cy="105" r="99" fill="#12b7a6" opacity="0.16"/>
  <circle cx="489" cy="115" r="2" fill="#ff4f6d" opacity="0.34"/><circle cx="182" cy="368" r="2" fill="#ff4f6d" opacity="0.35000000000000003"/><circle cx="387" cy="294" r="2" fill="#ff4f6d" opacity="0.32"/><circle cx="80" cy="205" r="2" fill="#ff4f6d" opacity="0.33"/><circle cx="693" cy="101" r="2" fill="#ff4f6d" opacity="0.38"/><circle cx="386" cy="354" r="2" fill="#ff4f6d" opacity="0.39"/><circle cx="591" cy="279" r="2" fill="#ff4f6d" opacity="0.36000000000000004"/><circle cx="284" cy="190" r="2" fill="#ff4f6d" opacity="0.37"/><circle cx="81" cy="145" r="2" fill="#ff4f6d" opacity="0.71"/>
  <rect x="294" y="54" width="304" height="312" rx="24" fill="#6f4a2d"/><rect x="324" y="84" width="244" height="252" rx="16" fill="#d9c092"/><circle cx="446" cy="178" r="54" fill="#f0c7a5"/><path d="M376 318c12-82 42-120 70-120s58 38 70 120z" fill="#ff4f6d"/><path d="M390 154c36-72 116-46 122 10-36-18-74-18-122-10z" fill="#4a2d22"/>
</svg>
