<svg xmlns="http://www.w3.org/2000/svg" viewBox="0 0 800 420" role="img" aria-label="Ilustracion propia de estadio y futbol generico para esta pregunta">
  <defs>
    <linearGradient id="bg" x1="0" x2="1" y1="0" y2="1">
      <stop stop-color="#eaf8f5"/>
      <stop offset="1" stop-color="#eaf8f5" stop-opacity="0.22"/>
    </linearGradient>
  </defs>
  <rect width="800" height="420" fill="url(#bg)"/>
  <circle cx="375" cy="131" r="136" fill="#26b99f" opacity="0.13"/>
  <circle cx="430" cy="285" r="113" fill="#f6bc42" opacity="0.16"/>
  <circle cx="123" cy="355" r="2" fill="#15191d" opacity="0.66"/><circle cx="532" cy="266" r="2" fill="#15191d" opacity="0.67"/><circle cx="225" cy="177" r="2" fill="#15191d" opacity="0.68"/><circle cx="634" cy="88" r="2" fill="#15191d" opacity="0.69"/><circle cx="635" cy="370" r="2" fill="#15191d" opacity="0.6200000000000001"/><circle cx="328" cy="280" r="2" fill="#15191d" opacity="0.63"/><circle cx="737" cy="191" r="2" fill="#15191d" opacity="0.64"/><circle cx="430" cy="102" r="2" fill="#15191d" opacity="0.65"/><circle cx="431" cy="42" r="2" fill="#15191d" opacity="0.5800000000000001"/>
  <rect x="118" y="78" width="564" height="264" rx="26" fill="#f6bc42"/><path d="M400 78v264M118 210h564" stroke="#fff" stroke-width="7" opacity=".76"/><circle cx="400" cy="210" r="58" fill="none" stroke="#fff" stroke-width="7" opacity=".76"/><circle cx="372" cy="236" r="32" fill="#fff"/><path d="M340 236h64M372 204v64" stroke="#26b99f" stroke-width="5" opacity=".5"/>
</svg>
