<svg xmlns="http://www.w3.org/2000/svg" viewBox="0 0 800 420" role="img" aria-label="Ilustracion propia de estadio y futbol generico para esta pregunta">
  <defs>
    <linearGradient id="bg" x1="0" x2="1" y1="0" y2="1">
      <stop stop-color="#eaf8f5"/>
      <stop offset="1" stop-color="#26b99f" stop-opacity="0.22"/>
    </linearGradient>
  </defs>
  <rect width="800" height="420" fill="url(#bg)"/>
  <circle cx="538" cy="158" r="100" fill="#26b99f" opacity="0.13"/>
  <circle cx="376" cy="145" r="98" fill="#f6bc42" opacity="0.16"/>
  <circle cx="519" cy="42" r="3" fill="#15191d" opacity="0.68"/><circle cx="212" cy="295" r="3" fill="#15191d" opacity="0.69"/><circle cx="621" cy="206" r="3" fill="#15191d" opacity="0.7"/><circle cx="314" cy="117" r="3" fill="#15191d" opacity="0.71"/><circle cx="315" cy="57" r="3" fill="#15191d" opacity="0.64"/><circle cx="724" cy="310" r="3" fill="#15191d" opacity="0.65"/><circle cx="417" cy="220" r="3" fill="#15191d" opacity="0.66"/><circle cx="110" cy="131" r="3" fill="#15191d" opacity="0.67"/><circle cx="111" cy="71" r="3" fill="#15191d" opacity="0.6000000000000001"/>
  <rect x="118" y="78" width="564" height="264" rx="26" fill="#f6bc42"/><path d="M400 78v264M118 210h564" stroke="#fff" stroke-width="7" opacity=".76"/><circle cx="400" cy="210" r="58" fill="none" stroke="#fff" stroke-width="7" opacity=".76"/><circle cx="296" cy="200" r="32" fill="#fff"/><path d="M264 200h64M296 168v64" stroke="#26b99f" stroke-width="5" opacity=".5"/>
</svg>
