<svg xmlns="http://www.w3.org/2000/svg" viewBox="0 0 800 420" role="img" aria-label="Ilustracion propia de estadio y futbol generico para esta pregunta">
  <defs>
    <linearGradient id="bg" x1="0" x2="1" y1="0" y2="1">
      <stop stop-color="#eaf8f5"/>
      <stop offset="1" stop-color="#f6bc42" stop-opacity="0.22"/>
    </linearGradient>
  </defs>
  <rect width="800" height="420" fill="url(#bg)"/>
  <circle cx="432" cy="112" r="121" fill="#26b99f" opacity="0.13"/>
  <circle cx="513" cy="211" r="131" fill="#f6bc42" opacity="0.16"/>
  <circle cx="352" cy="79" r="3" fill="#15191d" opacity="0.43000000000000005"/><circle cx="659" cy="168" r="3" fill="#15191d" opacity="0.42000000000000004"/><circle cx="454" cy="243" r="3" fill="#15191d" opacity="0.45000000000000007"/><circle cx="45" cy="332" r="3" fill="#15191d" opacity="0.44000000000000006"/><circle cx="148" cy="93" r="3" fill="#15191d" opacity="0.39"/><circle cx="455" cy="183" r="3" fill="#15191d" opacity="0.38"/><circle cx="250" cy="257" r="3" fill="#15191d" opacity="0.41000000000000003"/><circle cx="557" cy="346" r="3" fill="#15191d" opacity="0.4"/><circle cx="44" cy="50" r="3" fill="#15191d" opacity="0.51"/>
  <rect x="118" y="78" width="564" height="264" rx="26" fill="#f6bc42"/><path d="M400 78v264M118 210h564" stroke="#fff" stroke-width="7" opacity=".76"/><circle cx="400" cy="210" r="58" fill="none" stroke="#fff" stroke-width="7" opacity=".76"/><circle cx="258" cy="182" r="32" fill="#fff"/><path d="M226 182h64M258 150v64" stroke="#26b99f" stroke-width="5" opacity=".5"/>
</svg>
