<svg xmlns="http://www.w3.org/2000/svg" viewBox="0 0 800 420" role="img" aria-label="Ilustracion propia de pista de tenis para esta pregunta">
  <defs>
    <linearGradient id="bg" x1="0" x2="1" y1="0" y2="1">
      <stop stop-color="#e8fbf5"/>
      <stop offset="1" stop-color="#e8fbf5" stop-opacity="0.22"/>
    </linearGradient>
  </defs>
  <rect width="800" height="420" fill="url(#bg)"/>
  <circle cx="98" cy="65" r="128" fill="#12b7a6" opacity="0.13"/>
  <circle cx="471" cy="133" r="142" fill="#f6bc42" opacity="0.16"/>
  <circle cx="731" cy="178" r="5" fill="#315be8" opacity="0.47000000000000003"/><circle cx="424" cy="88" r="4" fill="#315be8" opacity="0.48000000000000004"/><circle cx="117" cy="341" r="4" fill="#315be8" opacity="0.49"/><circle cx="526" cy="252" r="4" fill="#315be8" opacity="0.5"/><circle cx="219" cy="163" r="4" fill="#315be8" opacity="0.51"/><circle cx="628" cy="74" r="4" fill="#315be8" opacity="0.52"/><circle cx="321" cy="327" r="4" fill="#315be8" opacity="0.53"/><circle cx="730" cy="238" r="4" fill="#315be8" opacity="0.54"/><circle cx="323" cy="207" r="5" fill="#315be8" opacity="0.39"/>
  <rect x="96" y="52" width="608" height="316" rx="28" fill="#f6bc42"/><path d="M400 52v316M96 210h608M170 110h460M170 310h460M170 110v200M630 110v200" stroke="#fff" stroke-width="7" opacity=".88"/><circle cx="446" cy="194" r="18" fill="#315be8"/><ellipse cx="262" cy="224" rx="36" ry="50" fill="none" stroke="#fffaf4" stroke-width="9" transform="rotate(-18 262 224)"/>
</svg>
