<svg xmlns="http://www.w3.org/2000/svg" viewBox="0 0 800 420" role="img" aria-label="Ilustracion propia de pista de tenis para esta pregunta">
  <defs>
    <linearGradient id="bg" x1="0" x2="1" y1="0" y2="1">
      <stop stop-color="#e8fbf5"/>
      <stop offset="1" stop-color="#12b7a6" stop-opacity="0.22"/>
    </linearGradient>
  </defs>
  <rect width="800" height="420" fill="url(#bg)"/>
  <circle cx="211" cy="250" r="88" fill="#12b7a6" opacity="0.13"/>
  <circle cx="635" cy="121" r="77" fill="#f6bc42" opacity="0.16"/>
  <circle cx="381" cy="194" r="2" fill="#315be8" opacity="0.48000000000000004"/><circle cx="74" cy="105" r="2" fill="#315be8" opacity="0.49"/><circle cx="279" cy="372" r="2" fill="#315be8" opacity="0.46"/><circle cx="688" cy="283" r="2" fill="#315be8" opacity="0.47000000000000003"/><circle cx="585" cy="179" r="2" fill="#315be8" opacity="0.52"/><circle cx="278" cy="90" r="2" fill="#315be8" opacity="0.53"/><circle cx="483" cy="358" r="2" fill="#315be8" opacity="0.5"/><circle cx="176" cy="268" r="2" fill="#315be8" opacity="0.51"/><circle cx="73" cy="165" r="2" fill="#315be8" opacity="0.56"/>
  <rect x="96" y="52" width="608" height="316" rx="28" fill="#f6bc42"/><path d="M400 52v316M96 210h608M170 110h460M170 310h460M170 110v200M630 110v200" stroke="#fff" stroke-width="7" opacity=".88"/><circle cx="558" cy="126" r="18" fill="#315be8"/><ellipse cx="190" cy="260" rx="36" ry="50" fill="none" stroke="#fffaf4" stroke-width="9" transform="rotate(-18 190 260)"/>
</svg>
