<svg xmlns="http://www.w3.org/2000/svg" viewBox="0 0 800 420" role="img" aria-label="Ilustracion propia de cancha de baloncesto para esta pregunta">
  <defs>
    <linearGradient id="bg" x1="0" x2="1" y1="0" y2="1">
      <stop stop-color="#fff1df"/>
      <stop offset="1" stop-color="#fff1df" stop-opacity="0.22"/>
    </linearGradient>
  </defs>
  <rect width="800" height="420" fill="url(#bg)"/>
  <circle cx="262" cy="326" r="72" fill="#f6bc42" opacity="0.13"/>
  <circle cx="491" cy="202" r="125" fill="#d95a35" opacity="0.16"/>
  <circle cx="693" cy="368" r="5" fill="#15191d" opacity="0.71"/><circle cx="386" cy="279" r="5" fill="#15191d" opacity="0.72"/><circle cx="591" cy="204" r="5" fill="#15191d" opacity="0.69"/><circle cx="284" cy="115" r="5" fill="#15191d" opacity="0.7"/><circle cx="181" cy="353" r="5" fill="#15191d" opacity="0.30000000000000004"/><circle cx="590" cy="264" r="5" fill="#15191d" opacity="0.31000000000000005"/><circle cx="79" cy="190" r="5" fill="#15191d" opacity="0.28"/><circle cx="488" cy="101" r="5" fill="#15191d" opacity="0.29000000000000004"/><circle cx="285" cy="55" r="2" fill="#15191d" opacity="0.63"/>
  <rect x="76" y="58" width="648" height="304" rx="30" fill="#d95a35"/><path d="M100 210h600M400 58v304" stroke="#fffaf4" stroke-width="8" opacity=".8"/><circle cx="400" cy="210" r="59" fill="none" stroke="#fffaf4" stroke-width="8" opacity=".8"/><circle cx="264" cy="174" r="42" fill="#15191d"/><path d="M222 174h84M264 132v84" stroke="#f6bc42" stroke-width="5" fill="none"/>
</svg>
