<svg xmlns="http://www.w3.org/2000/svg" viewBox="0 0 800 420" role="img" aria-label="Ilustracion propia de estadio y futbol generico para esta pregunta">
  <defs>
    <linearGradient id="bg" x1="0" x2="1" y1="0" y2="1">
      <stop stop-color="#eaf8f5"/>
      <stop offset="1" stop-color="#15191d" stop-opacity="0.22"/>
    </linearGradient>
  </defs>
  <rect width="800" height="420" fill="url(#bg)"/>
  <circle cx="217" cy="217" r="123" fill="#26b99f" opacity="0.13"/>
  <circle cx="636" cy="260" r="81" fill="#f6bc42" opacity="0.16"/>
  <circle cx="627" cy="309" r="3" fill="#15191d" opacity="0.5700000000000001"/><circle cx="320" cy="220" r="3" fill="#15191d" opacity="0.5800000000000001"/><circle cx="729" cy="131" r="3" fill="#15191d" opacity="0.5900000000000001"/><circle cx="422" cy="41" r="3" fill="#15191d" opacity="0.6000000000000001"/><circle cx="423" cy="323" r="4" fill="#15191d" opacity="0.53"/><circle cx="116" cy="234" r="4" fill="#15191d" opacity="0.54"/><circle cx="525" cy="145" r="4" fill="#15191d" opacity="0.55"/><circle cx="218" cy="56" r="4" fill="#15191d" opacity="0.56"/><circle cx="219" cy="338" r="4" fill="#15191d" opacity="0.49"/>
  <rect x="118" y="78" width="564" height="264" rx="26" fill="#f6bc42"/><path d="M400 78v264M118 210h564" stroke="#fff" stroke-width="7" opacity=".76"/><circle cx="400" cy="210" r="58" fill="none" stroke="#fff" stroke-width="7" opacity=".76"/><circle cx="258" cy="182" r="32" fill="#fff"/><path d="M226 182h64M258 150v64" stroke="#26b99f" stroke-width="5" opacity=".5"/>
</svg>
