<svg xmlns="http://www.w3.org/2000/svg" viewBox="0 0 800 420" role="img" aria-label="Ilustracion propia de pista de tenis para esta pregunta">
  <defs>
    <linearGradient id="bg" x1="0" x2="1" y1="0" y2="1">
      <stop stop-color="#e8fbf5"/>
      <stop offset="1" stop-color="#f6bc42" stop-opacity="0.22"/>
    </linearGradient>
  </defs>
  <rect width="800" height="420" fill="url(#bg)"/>
  <circle cx="623" cy="264" r="73" fill="#12b7a6" opacity="0.13"/>
  <circle cx="611" cy="87" r="75" fill="#f6bc42" opacity="0.16"/>
  <circle cx="241" cy="277" r="2" fill="#315be8" opacity="0.37"/><circle cx="650" cy="188" r="2" fill="#315be8" opacity="0.38"/><circle cx="139" cy="113" r="2" fill="#315be8" opacity="0.35000000000000003"/><circle cx="548" cy="366" r="2" fill="#315be8" opacity="0.36000000000000004"/><circle cx="445" cy="262" r="2" fill="#315be8" opacity="0.41000000000000003"/><circle cx="138" cy="173" r="2" fill="#315be8" opacity="0.42000000000000004"/><circle cx="343" cy="98" r="2" fill="#315be8" opacity="0.39"/><circle cx="752" cy="351" r="2" fill="#315be8" opacity="0.4"/><circle cx="549" cy="306" r="2" fill="#315be8" opacity="0.29000000000000004"/>
  <rect x="96" y="52" width="608" height="316" rx="28" fill="#f6bc42"/><path d="M400 52v316M96 210h608M170 110h460M170 310h460M170 110v200M630 110v200" stroke="#fff" stroke-width="7" opacity=".88"/><circle cx="446" cy="194" r="18" fill="#315be8"/><ellipse cx="262" cy="224" rx="36" ry="50" fill="none" stroke="#fffaf4" stroke-width="9" transform="rotate(-18 262 224)"/>
</svg>
