<svg xmlns="http://www.w3.org/2000/svg" viewBox="0 0 800 420" role="img" aria-label="Ilustracion propia de pista de tenis para esta pregunta">
  <defs>
    <linearGradient id="bg" x1="0" x2="1" y1="0" y2="1">
      <stop stop-color="#e8fbf5"/>
      <stop offset="1" stop-color="#e8fbf5" stop-opacity="0.22"/>
    </linearGradient>
  </defs>
  <rect width="800" height="420" fill="url(#bg)"/>
  <circle cx="177" cy="196" r="134" fill="#12b7a6" opacity="0.13"/>
  <circle cx="331" cy="329" r="92" fill="#f6bc42" opacity="0.16"/>
  <circle cx="160" cy="261" r="2" fill="#315be8" opacity="0.41000000000000003"/><circle cx="467" cy="350" r="2" fill="#315be8" opacity="0.4"/><circle cx="262" cy="83" r="2" fill="#315be8" opacity="0.43000000000000005"/><circle cx="569" cy="172" r="2" fill="#315be8" opacity="0.42000000000000004"/><circle cx="364" cy="246" r="2" fill="#315be8" opacity="0.45000000000000007"/><circle cx="671" cy="336" r="2" fill="#315be8" opacity="0.44000000000000006"/><circle cx="466" cy="68" r="2" fill="#315be8" opacity="0.47000000000000003"/><circle cx="57" cy="157" r="2" fill="#315be8" opacity="0.46"/><circle cx="568" cy="232" r="2" fill="#315be8" opacity="0.49"/>
  <rect x="96" y="52" width="608" height="316" rx="28" fill="#f6bc42"/><path d="M400 52v316M96 210h608M170 110h460M170 310h460M170 110v200M630 110v200" stroke="#fff" stroke-width="7" opacity=".88"/><circle cx="502" cy="160" r="18" fill="#315be8"/><ellipse cx="226" cy="242" rx="36" ry="50" fill="none" stroke="#fffaf4" stroke-width="9" transform="rotate(-18 226 242)"/>
</svg>
