<svg xmlns="http://www.w3.org/2000/svg" viewBox="0 0 800 420" role="img" aria-label="Ilustracion propia de pista de tenis para esta pregunta">
  <defs>
    <linearGradient id="bg" x1="0" x2="1" y1="0" y2="1">
      <stop stop-color="#e8fbf5"/>
      <stop offset="1" stop-color="#f6bc42" stop-opacity="0.22"/>
    </linearGradient>
  </defs>
  <rect width="800" height="420" fill="url(#bg)"/>
  <circle cx="215" cy="101" r="85" fill="#12b7a6" opacity="0.13"/>
  <circle cx="260" cy="317" r="116" fill="#f6bc42" opacity="0.16"/>
  <circle cx="198" cy="163" r="2" fill="#315be8" opacity="0.66"/><circle cx="505" cy="252" r="2" fill="#315be8" opacity="0.65"/><circle cx="96" cy="341" r="2" fill="#315be8" opacity="0.64"/><circle cx="403" cy="88" r="2" fill="#315be8" opacity="0.63"/><circle cx="710" cy="177" r="2" fill="#315be8" opacity="0.6200000000000001"/><circle cx="301" cy="266" r="2" fill="#315be8" opacity="0.6100000000000001"/><circle cx="608" cy="355" r="2" fill="#315be8" opacity="0.6000000000000001"/><circle cx="199" cy="103" r="2" fill="#315be8" opacity="0.5900000000000001"/><circle cx="506" cy="192" r="2" fill="#315be8" opacity="0.5800000000000001"/>
  <rect x="96" y="52" width="608" height="316" rx="28" fill="#f6bc42"/><path d="M400 52v316M96 210h608M170 110h460M170 310h460M170 110v200M630 110v200" stroke="#fff" stroke-width="7" opacity=".88"/><circle cx="334" cy="262" r="18" fill="#315be8"/><ellipse cx="334" cy="188" rx="36" ry="50" fill="none" stroke="#fffaf4" stroke-width="9" transform="rotate(-18 334 188)"/>
</svg>
