<svg xmlns="http://www.w3.org/2000/svg" viewBox="0 0 800 420" role="img" aria-label="Ilustracion propia de oceano y olas para esta pregunta">
  <defs>
    <linearGradient id="bg" x1="0" x2="1" y1="0" y2="1">
      <stop stop-color="#dff8ff"/>
      <stop offset="1" stop-color="#fffaf4" stop-opacity="0.22"/>
    </linearGradient>
  </defs>
  <rect width="800" height="420" fill="url(#bg)"/>
  <circle cx="425" cy="69" r="125" fill="#12b7a6" opacity="0.13"/>
  <circle cx="662" cy="134" r="71" fill="#315be8" opacity="0.16"/>
  <circle cx="514" cy="339" r="3" fill="#fffaf4" opacity="0.71"/><circle cx="105" cy="86" r="3" fill="#fffaf4" opacity="0.7"/><circle cx="412" cy="175" r="3" fill="#fffaf4" opacity="0.69"/><circle cx="719" cy="265" r="3" fill="#fffaf4" opacity="0.68"/><circle cx="718" cy="325" r="3" fill="#fffaf4" opacity="0.30000000000000004"/><circle cx="309" cy="72" r="3" fill="#fffaf4" opacity="0.29000000000000004"/><circle cx="616" cy="161" r="3" fill="#fffaf4" opacity="0.28"/><circle cx="207" cy="250" r="3" fill="#fffaf4" opacity="0.72"/><circle cx="338" cy="240" r="3" fill="#fffaf4" opacity="0.32"/>
  <path d="M0 240c88-42 144 42 232 0s144 42 232 0 144 42 232 0 144 42 232 0v180H0z" fill="#fff" opacity=".34"/><path d="M0 326c88-42 144 42 232 0s144 42 232 0 144 42 232 0 144 42 232 0" fill="none" stroke="#fff" stroke-width="18" opacity=".62"/><path d="M142 174c82-44 170-44 252 0" fill="none" stroke="#fff" stroke-width="10" opacity=".45" stroke-linecap="round"/>
</svg>
