<svg xmlns="http://www.w3.org/2000/svg" viewBox="0 0 800 420" role="img" aria-label="Ilustracion propia de cancha de baloncesto para esta pregunta">
  <defs>
    <linearGradient id="bg" x1="0" x2="1" y1="0" y2="1">
      <stop stop-color="#fff1df"/>
      <stop offset="1" stop-color="#15191d" stop-opacity="0.22"/>
    </linearGradient>
  </defs>
  <rect width="800" height="420" fill="url(#bg)"/>
  <circle cx="157" cy="310" r="85" fill="#f6bc42" opacity="0.13"/>
  <circle cx="178" cy="200" r="76" fill="#d95a35" opacity="0.16"/>
  <circle cx="119" cy="86" r="3" fill="#15191d" opacity="0.67"/><circle cx="528" cy="339" r="2" fill="#15191d" opacity="0.68"/><circle cx="221" cy="250" r="2" fill="#15191d" opacity="0.69"/><circle cx="630" cy="161" r="2" fill="#15191d" opacity="0.7"/><circle cx="323" cy="72" r="2" fill="#15191d" opacity="0.71"/><circle cx="732" cy="325" r="2" fill="#15191d" opacity="0.72"/><circle cx="425" cy="235" r="2" fill="#15191d" opacity="0.28"/><circle cx="118" cy="146" r="2" fill="#15191d" opacity="0.29000000000000004"/><circle cx="427" cy="115" r="3" fill="#15191d" opacity="0.5900000000000001"/>
  <rect x="76" y="58" width="648" height="304" rx="30" fill="#d95a35"/><path d="M100 210h600M400 58v304" stroke="#fffaf4" stroke-width="8" opacity=".8"/><circle cx="400" cy="210" r="59" fill="none" stroke="#fffaf4" stroke-width="8" opacity=".8"/><circle cx="264" cy="174" r="42" fill="#15191d"/><path d="M222 174h84M264 132v84" stroke="#f6bc42" stroke-width="5" fill="none"/>
</svg>
