<svg xmlns="http://www.w3.org/2000/svg" viewBox="0 0 800 420" role="img" aria-label="Ilustracion propia de estadio y futbol generico para esta pregunta">
  <defs>
    <linearGradient id="bg" x1="0" x2="1" y1="0" y2="1">
      <stop stop-color="#eaf8f5"/>
      <stop offset="1" stop-color="#26b99f" stop-opacity="0.22"/>
    </linearGradient>
  </defs>
  <rect width="800" height="420" fill="url(#bg)"/>
  <circle cx="510" cy="320" r="80" fill="#26b99f" opacity="0.13"/>
  <circle cx="147" cy="165" r="96" fill="#f6bc42" opacity="0.16"/>
  <circle cx="261" cy="92" r="4" fill="#15191d" opacity="0.39"/><circle cx="670" cy="345" r="4" fill="#15191d" opacity="0.4"/><circle cx="159" cy="270" r="4" fill="#15191d" opacity="0.37"/><circle cx="568" cy="181" r="4" fill="#15191d" opacity="0.38"/><circle cx="57" cy="106" r="4" fill="#15191d" opacity="0.35000000000000003"/><circle cx="466" cy="359" r="4" fill="#15191d" opacity="0.36000000000000004"/><circle cx="671" cy="285" r="4" fill="#15191d" opacity="0.33"/><circle cx="364" cy="196" r="4" fill="#15191d" opacity="0.34"/><circle cx="669" cy="63" r="4" fill="#15191d" opacity="0.47000000000000003"/>
  <rect x="118" y="78" width="564" height="264" rx="26" fill="#f6bc42"/><path d="M400 78v264M118 210h564" stroke="#fff" stroke-width="7" opacity=".76"/><circle cx="400" cy="210" r="58" fill="none" stroke="#fff" stroke-width="7" opacity=".76"/><circle cx="372" cy="236" r="32" fill="#fff"/><path d="M340 236h64M372 204v64" stroke="#26b99f" stroke-width="5" opacity=".5"/>
</svg>
