<svg xmlns="http://www.w3.org/2000/svg" viewBox="0 0 800 420" role="img" aria-label="Ilustracion propia de estadio y futbol generico para esta pregunta">
  <defs>
    <linearGradient id="bg" x1="0" x2="1" y1="0" y2="1">
      <stop stop-color="#eaf8f5"/>
      <stop offset="1" stop-color="#eaf8f5" stop-opacity="0.22"/>
    </linearGradient>
  </defs>
  <rect width="800" height="420" fill="url(#bg)"/>
  <circle cx="177" cy="125" r="104" fill="#26b99f" opacity="0.13"/>
  <circle cx="406" cy="212" r="79" fill="#f6bc42" opacity="0.16"/>
  <circle cx="460" cy="134" r="5" fill="#15191d" opacity="0.36000000000000004"/><circle cx="51" cy="223" r="5" fill="#15191d" opacity="0.35000000000000003"/><circle cx="562" cy="298" r="5" fill="#15191d" opacity="0.38"/><circle cx="153" cy="45" r="5" fill="#15191d" opacity="0.37"/><circle cx="664" cy="120" r="5" fill="#15191d" opacity="0.4"/><circle cx="255" cy="209" r="5" fill="#15191d" opacity="0.39"/><circle cx="50" cy="283" r="5" fill="#15191d" opacity="0.42000000000000004"/><circle cx="357" cy="372" r="5" fill="#15191d" opacity="0.41000000000000003"/><circle cx="52" cy="163" r="2" fill="#15191d" opacity="0.28"/>
  <rect x="118" y="78" width="564" height="264" rx="26" fill="#f6bc42"/><path d="M400 78v264M118 210h564" stroke="#fff" stroke-width="7" opacity=".76"/><circle cx="400" cy="210" r="58" fill="none" stroke="#fff" stroke-width="7" opacity=".76"/><circle cx="258" cy="182" r="32" fill="#fff"/><path d="M226 182h64M258 150v64" stroke="#26b99f" stroke-width="5" opacity=".5"/>
</svg>
