<svg xmlns="http://www.w3.org/2000/svg" viewBox="0 0 800 420" role="img" aria-label="Ilustracion propia de circuito de velocidad para esta pregunta">
  <defs>
    <linearGradient id="bg" x1="0" x2="1" y1="0" y2="1">
      <stop stop-color="#e7f8ff"/>
      <stop offset="1" stop-color="#ff4f6d" stop-opacity="0.22"/>
    </linearGradient>
  </defs>
  <rect width="800" height="420" fill="url(#bg)"/>
  <circle cx="689" cy="109" r="143" fill="#15191d" opacity="0.13"/>
  <circle cx="245" cy="175" r="73" fill="#ff4f6d" opacity="0.16"/>
  <circle cx="104" cy="154" r="5" fill="#315be8" opacity="0.6100000000000001"/><circle cx="411" cy="243" r="5" fill="#315be8" opacity="0.6000000000000001"/><circle cx="206" cy="318" r="5" fill="#315be8" opacity="0.63"/><circle cx="513" cy="65" r="5" fill="#315be8" opacity="0.6200000000000001"/><circle cx="616" cy="169" r="5" fill="#315be8" opacity="0.5700000000000001"/><circle cx="207" cy="258" r="2" fill="#315be8" opacity="0.56"/><circle cx="718" cy="333" r="5" fill="#315be8" opacity="0.5900000000000001"/><circle cx="309" cy="80" r="5" fill="#315be8" opacity="0.5800000000000001"/><circle cx="512" cy="125" r="5" fill="#315be8" opacity="0.69"/>
  <path d="M98 300c110-170 248-42 350-120 60-46 118-84 210-28 66 40 54 132-26 152-96 24-160-50-246-24-100 30-152 94-288 20z" fill="none" stroke="#15191d" stroke-width="49" stroke-linecap="round"/><path d="M98 300c110-170 248-42 350-120 60-46 118-84 210-28 66 40 54 132-26 152-96 24-160-50-246-24-100 30-152 94-288 20z" fill="none" stroke="#fff" stroke-width="7" stroke-dasharray="24 22" stroke-linecap="round"/><rect x="352" y="250" width="150" height="42" rx="18" fill="#315be8"/><path d="M380 250l34-34h52l24 34z" fill="#fffaf4"/>
</svg>
