<svg xmlns="http://www.w3.org/2000/svg" viewBox="0 0 800 420" role="img" aria-label="Ilustracion propia de cancha de baloncesto para esta pregunta">
  <defs>
    <linearGradient id="bg" x1="0" x2="1" y1="0" y2="1">
      <stop stop-color="#fff1df"/>
      <stop offset="1" stop-color="#fff1df" stop-opacity="0.22"/>
    </linearGradient>
  </defs>
  <rect width="800" height="420" fill="url(#bg)"/>
  <circle cx="583" cy="343" r="120" fill="#f6bc42" opacity="0.13"/>
  <circle cx="156" cy="204" r="91" fill="#d95a35" opacity="0.16"/>
  <circle cx="619" cy="290" r="3" fill="#15191d" opacity="0.5700000000000001"/><circle cx="312" cy="201" r="3" fill="#15191d" opacity="0.5800000000000001"/><circle cx="721" cy="112" r="3" fill="#15191d" opacity="0.5900000000000001"/><circle cx="414" cy="365" r="3" fill="#15191d" opacity="0.6000000000000001"/><circle cx="107" cy="275" r="3" fill="#15191d" opacity="0.6100000000000001"/><circle cx="516" cy="186" r="3" fill="#15191d" opacity="0.6200000000000001"/><circle cx="209" cy="97" r="3" fill="#15191d" opacity="0.63"/><circle cx="618" cy="350" r="3" fill="#15191d" opacity="0.64"/><circle cx="311" cy="261" r="3" fill="#15191d" opacity="0.65"/>
  <rect x="76" y="58" width="648" height="304" rx="30" fill="#d95a35"/><path d="M100 210h600M400 58v304" stroke="#fffaf4" stroke-width="8" opacity=".8"/><circle cx="400" cy="210" r="66" fill="none" stroke="#fffaf4" stroke-width="8" opacity=".8"/><circle cx="348" cy="198" r="42" fill="#15191d"/><path d="M306 198h84M348 156v84" stroke="#f6bc42" stroke-width="5" fill="none"/>
</svg>
