<svg xmlns="http://www.w3.org/2000/svg" viewBox="0 0 800 420" role="img" aria-label="Ilustracion propia de oceano y olas para esta pregunta">
  <defs>
    <linearGradient id="bg" x1="0" x2="1" y1="0" y2="1">
      <stop stop-color="#dff8ff"/>
      <stop offset="1" stop-color="#fffaf4" stop-opacity="0.22"/>
    </linearGradient>
  </defs>
  <rect width="800" height="420" fill="url(#bg)"/>
  <circle cx="97" cy="252" r="93" fill="#12b7a6" opacity="0.13"/>
  <circle cx="321" cy="121" r="87" fill="#315be8" opacity="0.16"/>
  <circle cx="189" cy="364" r="3" fill="#fffaf4" opacity="0.36000000000000004"/><circle cx="598" cy="275" r="3" fill="#fffaf4" opacity="0.37"/><circle cx="87" cy="201" r="3" fill="#fffaf4" opacity="0.34"/><circle cx="496" cy="111" r="3" fill="#fffaf4" opacity="0.35000000000000003"/><circle cx="701" cy="37" r="4" fill="#fffaf4" opacity="0.32"/><circle cx="394" cy="290" r="4" fill="#fffaf4" opacity="0.33"/><circle cx="599" cy="215" r="4" fill="#fffaf4" opacity="0.30000000000000004"/><circle cx="292" cy="126" r="4" fill="#fffaf4" opacity="0.31000000000000005"/><circle cx="497" cy="51" r="4" fill="#fffaf4" opacity="0.28"/>
  <path d="M0 240c88-42 144 42 232 0s144 42 232 0 144 42 232 0 144 42 232 0v180H0z" fill="#fff" opacity=".34"/><path d="M0 296c88-42 144 42 232 0s144 42 232 0 144 42 232 0 144 42 232 0" fill="none" stroke="#fff" stroke-width="18" opacity=".62"/><path d="M142 174c82-44 170-44 252 0" fill="none" stroke="#fff" stroke-width="10" opacity=".45" stroke-linecap="round"/>
</svg>
