<svg xmlns="http://www.w3.org/2000/svg" viewBox="0 0 800 420" role="img" aria-label="Ilustracion propia de oceano y olas para esta pregunta">
  <defs>
    <linearGradient id="bg" x1="0" x2="1" y1="0" y2="1">
      <stop stop-color="#dff8ff"/>
      <stop offset="1" stop-color="#dff8ff" stop-opacity="0.22"/>
    </linearGradient>
  </defs>
  <rect width="800" height="420" fill="url(#bg)"/>
  <circle cx="534" cy="272" r="132" fill="#12b7a6" opacity="0.13"/>
  <circle cx="225" cy="302" r="142" fill="#315be8" opacity="0.16"/>
  <circle cx="201" cy="101" r="4" fill="#fffaf4" opacity="0.51"/><circle cx="610" cy="354" r="4" fill="#fffaf4" opacity="0.52"/><circle cx="99" cy="279" r="4" fill="#fffaf4" opacity="0.49"/><circle cx="508" cy="190" r="4" fill="#fffaf4" opacity="0.5"/><circle cx="405" cy="86" r="4" fill="#fffaf4" opacity="0.55"/><circle cx="98" cy="339" r="4" fill="#fffaf4" opacity="0.56"/><circle cx="303" cy="265" r="4" fill="#fffaf4" opacity="0.53"/><circle cx="712" cy="175" r="4" fill="#fffaf4" opacity="0.54"/><circle cx="609" cy="72" r="4" fill="#fffaf4" opacity="0.5900000000000001"/>
  <path d="M0 240c88-42 144 42 232 0s144 42 232 0 144 42 232 0 144 42 232 0v180H0z" fill="#fff" opacity=".34"/><path d="M0 316c88-42 144 42 232 0s144 42 232 0 144 42 232 0 144 42 232 0" fill="none" stroke="#fff" stroke-width="18" opacity=".62"/><path d="M142 174c82-44 170-44 252 0" fill="none" stroke="#fff" stroke-width="10" opacity=".45" stroke-linecap="round"/>
</svg>
