<svg xmlns="http://www.w3.org/2000/svg" viewBox="0 0 800 420" role="img" aria-label="Ilustracion propia de oceano y olas para esta pregunta">
  <defs>
    <linearGradient id="bg" x1="0" x2="1" y1="0" y2="1">
      <stop stop-color="#dff8ff"/>
      <stop offset="1" stop-color="#315be8" stop-opacity="0.22"/>
    </linearGradient>
  </defs>
  <rect width="800" height="420" fill="url(#bg)"/>
  <circle cx="196" cy="155" r="65" fill="#12b7a6" opacity="0.13"/>
  <circle cx="183" cy="145" r="94" fill="#315be8" opacity="0.16"/>
  <circle cx="273" cy="362" r="3" fill="#fffaf4" opacity="0.72"/><circle cx="682" cy="273" r="3" fill="#fffaf4" opacity="0.28"/><circle cx="171" cy="199" r="3" fill="#fffaf4" opacity="0.7"/><circle cx="580" cy="109" r="3" fill="#fffaf4" opacity="0.71"/><circle cx="477" cy="348" r="3" fill="#fffaf4" opacity="0.31000000000000005"/><circle cx="170" cy="259" r="3" fill="#fffaf4" opacity="0.32"/><circle cx="375" cy="184" r="3" fill="#fffaf4" opacity="0.29000000000000004"/><circle cx="68" cy="95" r="3" fill="#fffaf4" opacity="0.30000000000000004"/><circle cx="681" cy="333" r="3" fill="#fffaf4" opacity="0.35000000000000003"/>
  <path d="M0 240c88-42 144 42 232 0s144 42 232 0 144 42 232 0 144 42 232 0v180H0z" fill="#fff" opacity=".34"/><path d="M0 286c88-42 144 42 232 0s144 42 232 0 144 42 232 0 144 42 232 0" fill="none" stroke="#fff" stroke-width="18" opacity=".62"/><path d="M142 174c82-44 170-44 252 0" fill="none" stroke="#fff" stroke-width="10" opacity=".45" stroke-linecap="round"/>
</svg>
