<svg xmlns="http://www.w3.org/2000/svg" viewBox="0 0 800 420" role="img" aria-label="Ilustracion propia de oceano y olas para esta pregunta">
  <defs>
    <linearGradient id="bg" x1="0" x2="1" y1="0" y2="1">
      <stop stop-color="#dff8ff"/>
      <stop offset="1" stop-color="#dff8ff" stop-opacity="0.22"/>
    </linearGradient>
  </defs>
  <rect width="800" height="420" fill="url(#bg)"/>
  <circle cx="668" cy="293" r="120" fill="#12b7a6" opacity="0.13"/>
  <circle cx="167" cy="233" r="111" fill="#315be8" opacity="0.16"/>
  <circle cx="717" cy="108" r="2" fill="#fffaf4" opacity="0.51"/><circle cx="410" cy="361" r="2" fill="#fffaf4" opacity="0.52"/><circle cx="615" cy="287" r="2" fill="#fffaf4" opacity="0.49"/><circle cx="308" cy="197" r="2" fill="#fffaf4" opacity="0.5"/><circle cx="689" cy="222" r="2" fill="#fffaf4" opacity="0.41000000000000003"/><circle cx="382" cy="133" r="5" fill="#fffaf4" opacity="0.42000000000000004"/><circle cx="587" cy="58" r="2" fill="#fffaf4" opacity="0.39"/><circle cx="280" cy="311" r="2" fill="#fffaf4" opacity="0.4"/><circle cx="309" cy="137" r="2" fill="#fffaf4" opacity="0.43000000000000005"/>
  <path d="M0 240c88-42 144 42 232 0s144 42 232 0 144 42 232 0 144 42 232 0v180H0z" fill="#fff" opacity=".34"/><path d="M0 306c88-42 144 42 232 0s144 42 232 0 144 42 232 0 144 42 232 0" fill="none" stroke="#fff" stroke-width="18" opacity=".62"/><path d="M142 174c82-44 170-44 252 0" fill="none" stroke="#fff" stroke-width="10" opacity=".45" stroke-linecap="round"/>
</svg>
