<svg xmlns="http://www.w3.org/2000/svg" viewBox="0 0 800 420" role="img" aria-label="Ilustracion propia de oceano y olas para esta pregunta">
  <defs>
    <linearGradient id="bg" x1="0" x2="1" y1="0" y2="1">
      <stop stop-color="#dff8ff"/>
      <stop offset="1" stop-color="#315be8" stop-opacity="0.22"/>
    </linearGradient>
  </defs>
  <rect width="800" height="420" fill="url(#bg)"/>
  <circle cx="608" cy="101" r="131" fill="#12b7a6" opacity="0.13"/>
  <circle cx="535" cy="102" r="82" fill="#315be8" opacity="0.16"/>
  <circle cx="397" cy="220" r="2" fill="#fffaf4" opacity="0.69"/><circle cx="90" cy="131" r="2" fill="#fffaf4" opacity="0.7"/><circle cx="295" cy="57" r="2" fill="#fffaf4" opacity="0.67"/><circle cx="704" cy="310" r="2" fill="#fffaf4" opacity="0.68"/><circle cx="193" cy="235" r="2" fill="#fffaf4" opacity="0.65"/><circle cx="602" cy="146" r="2" fill="#fffaf4" opacity="0.66"/><circle cx="91" cy="71" r="2" fill="#fffaf4" opacity="0.63"/><circle cx="500" cy="324" r="2" fill="#fffaf4" opacity="0.64"/><circle cx="89" cy="191" r="2" fill="#fffaf4" opacity="0.32"/>
  <path d="M0 240c88-42 144 42 232 0s144 42 232 0 144 42 232 0 144 42 232 0v180H0z" fill="#fff" opacity=".34"/><path d="M0 306c88-42 144 42 232 0s144 42 232 0 144 42 232 0 144 42 232 0" fill="none" stroke="#fff" stroke-width="18" opacity=".62"/><path d="M142 174c82-44 170-44 252 0" fill="none" stroke="#fff" stroke-width="10" opacity=".45" stroke-linecap="round"/>
</svg>
