<svg xmlns="http://www.w3.org/2000/svg" viewBox="0 0 800 420" role="img" aria-label="Ilustracion propia de oceano y olas para esta pregunta">
  <defs>
    <linearGradient id="bg" x1="0" x2="1" y1="0" y2="1">
      <stop stop-color="#dff8ff"/>
      <stop offset="1" stop-color="#315be8" stop-opacity="0.22"/>
    </linearGradient>
  </defs>
  <rect width="800" height="420" fill="url(#bg)"/>
  <circle cx="640" cy="82" r="139" fill="#12b7a6" opacity="0.13"/>
  <circle cx="539" cy="136" r="123" fill="#315be8" opacity="0.16"/>
  <circle cx="339" cy="84" r="5" fill="#fffaf4" opacity="0.69"/><circle cx="748" cy="337" r="5" fill="#fffaf4" opacity="0.7"/><circle cx="441" cy="248" r="5" fill="#fffaf4" opacity="0.71"/><circle cx="134" cy="159" r="5" fill="#fffaf4" opacity="0.72"/><circle cx="135" cy="99" r="5" fill="#fffaf4" opacity="0.65"/><circle cx="544" cy="352" r="5" fill="#fffaf4" opacity="0.66"/><circle cx="237" cy="262" r="5" fill="#fffaf4" opacity="0.67"/><circle cx="646" cy="173" r="5" fill="#fffaf4" opacity="0.68"/><circle cx="647" cy="113" r="5" fill="#fffaf4" opacity="0.6100000000000001"/>
  <path d="M0 240c88-42 144 42 232 0s144 42 232 0 144 42 232 0 144 42 232 0v180H0z" fill="#fff" opacity=".34"/><path d="M0 326c88-42 144 42 232 0s144 42 232 0 144 42 232 0 144 42 232 0" fill="none" stroke="#fff" stroke-width="18" opacity=".62"/><path d="M142 174c82-44 170-44 252 0" fill="none" stroke="#fff" stroke-width="10" opacity=".45" stroke-linecap="round"/>
</svg>
