<svg xmlns="http://www.w3.org/2000/svg" viewBox="0 0 800 420" role="img" aria-label="Ilustracion propia de oceano y olas para esta pregunta">
  <defs>
    <linearGradient id="bg" x1="0" x2="1" y1="0" y2="1">
      <stop stop-color="#dff8ff"/>
      <stop offset="1" stop-color="#315be8" stop-opacity="0.22"/>
    </linearGradient>
  </defs>
  <rect width="800" height="420" fill="url(#bg)"/>
  <circle cx="113" cy="96" r="125" fill="#12b7a6" opacity="0.13"/>
  <circle cx="323" cy="316" r="91" fill="#315be8" opacity="0.16"/>
  <circle cx="603" cy="249" r="4" fill="#fffaf4" opacity="0.30000000000000004"/><circle cx="296" cy="160" r="4" fill="#fffaf4" opacity="0.31000000000000005"/><circle cx="705" cy="71" r="4" fill="#fffaf4" opacity="0.32"/><circle cx="398" cy="324" r="4" fill="#fffaf4" opacity="0.33"/><circle cx="91" cy="235" r="4" fill="#fffaf4" opacity="0.34"/><circle cx="500" cy="146" r="4" fill="#fffaf4" opacity="0.35000000000000003"/><circle cx="193" cy="57" r="4" fill="#fffaf4" opacity="0.36000000000000004"/><circle cx="602" cy="309" r="4" fill="#fffaf4" opacity="0.37"/><circle cx="295" cy="220" r="4" fill="#fffaf4" opacity="0.38"/>
  <path d="M0 240c88-42 144 42 232 0s144 42 232 0 144 42 232 0 144 42 232 0v180H0z" fill="#fff" opacity=".34"/><path d="M0 306c88-42 144 42 232 0s144 42 232 0 144 42 232 0 144 42 232 0" fill="none" stroke="#fff" stroke-width="18" opacity=".62"/><path d="M142 174c82-44 170-44 252 0" fill="none" stroke="#fff" stroke-width="10" opacity=".45" stroke-linecap="round"/>
</svg>
