<svg xmlns="http://www.w3.org/2000/svg" viewBox="0 0 800 420" role="img" aria-label="Ilustracion propia de oceano y olas para esta pregunta">
  <defs>
    <linearGradient id="bg" x1="0" x2="1" y1="0" y2="1">
      <stop stop-color="#dff8ff"/>
      <stop offset="1" stop-color="#12b7a6" stop-opacity="0.22"/>
    </linearGradient>
  </defs>
  <rect width="800" height="420" fill="url(#bg)"/>
  <circle cx="476" cy="237" r="122" fill="#12b7a6" opacity="0.13"/>
  <circle cx="668" cy="334" r="81" fill="#315be8" opacity="0.16"/>
  <circle cx="440" cy="63" r="3" fill="#fffaf4" opacity="0.69"/><circle cx="747" cy="152" r="4" fill="#fffaf4" opacity="0.68"/><circle cx="542" cy="226" r="3" fill="#fffaf4" opacity="0.71"/><circle cx="133" cy="315" r="3" fill="#fffaf4" opacity="0.7"/><circle cx="236" cy="77" r="4" fill="#fffaf4" opacity="0.65"/><circle cx="543" cy="166" r="4" fill="#fffaf4" opacity="0.64"/><circle cx="338" cy="241" r="4" fill="#fffaf4" opacity="0.67"/><circle cx="645" cy="330" r="4" fill="#fffaf4" opacity="0.66"/><circle cx="132" cy="375" r="3" fill="#fffaf4" opacity="0.32"/>
  <path d="M0 240c88-42 144 42 232 0s144 42 232 0 144 42 232 0 144 42 232 0v180H0z" fill="#fff" opacity=".34"/><path d="M0 286c88-42 144 42 232 0s144 42 232 0 144 42 232 0 144 42 232 0" fill="none" stroke="#fff" stroke-width="18" opacity=".62"/><path d="M142 174c82-44 170-44 252 0" fill="none" stroke="#fff" stroke-width="10" opacity=".45" stroke-linecap="round"/>
</svg>
