<svg xmlns="http://www.w3.org/2000/svg" viewBox="0 0 800 420" role="img" aria-label="Ilustracion propia de oceano y olas para esta pregunta">
  <defs>
    <linearGradient id="bg" x1="0" x2="1" y1="0" y2="1">
      <stop stop-color="#dff8ff"/>
      <stop offset="1" stop-color="#12b7a6" stop-opacity="0.22"/>
    </linearGradient>
  </defs>
  <rect width="800" height="420" fill="url(#bg)"/>
  <circle cx="640" cy="161" r="108" fill="#12b7a6" opacity="0.13"/>
  <circle cx="239" cy="110" r="109" fill="#315be8" opacity="0.16"/>
  <circle cx="155" cy="183" r="4" fill="#fffaf4" opacity="0.5"/><circle cx="564" cy="94" r="4" fill="#fffaf4" opacity="0.51"/><circle cx="257" cy="346" r="4" fill="#fffaf4" opacity="0.52"/><circle cx="666" cy="257" r="4" fill="#fffaf4" opacity="0.53"/><circle cx="667" cy="197" r="4" fill="#fffaf4" opacity="0.46"/><circle cx="360" cy="108" r="4" fill="#fffaf4" opacity="0.47000000000000003"/><circle cx="53" cy="361" r="4" fill="#fffaf4" opacity="0.48000000000000004"/><circle cx="462" cy="272" r="4" fill="#fffaf4" opacity="0.49"/><circle cx="463" cy="212" r="5" fill="#fffaf4" opacity="0.42000000000000004"/>
  <path d="M0 240c88-42 144 42 232 0s144 42 232 0 144 42 232 0 144 42 232 0v180H0z" fill="#fff" opacity=".34"/><path d="M0 326c88-42 144 42 232 0s144 42 232 0 144 42 232 0 144 42 232 0" fill="none" stroke="#fff" stroke-width="18" opacity=".62"/><path d="M142 174c82-44 170-44 252 0" fill="none" stroke="#fff" stroke-width="10" opacity=".45" stroke-linecap="round"/>
</svg>
