<svg xmlns="http://www.w3.org/2000/svg" viewBox="0 0 800 420" role="img" aria-label="Ilustracion propia de oceano y olas para esta pregunta">
  <defs>
    <linearGradient id="bg" x1="0" x2="1" y1="0" y2="1">
      <stop stop-color="#dff8ff"/>
      <stop offset="1" stop-color="#315be8" stop-opacity="0.22"/>
    </linearGradient>
  </defs>
  <rect width="800" height="420" fill="url(#bg)"/>
  <circle cx="636" cy="280" r="97" fill="#12b7a6" opacity="0.13"/>
  <circle cx="538" cy="196" r="118" fill="#315be8" opacity="0.16"/>
  <circle cx="246" cy="186" r="4" fill="#fffaf4" opacity="0.5700000000000001"/><circle cx="553" cy="276" r="4" fill="#fffaf4" opacity="0.56"/><circle cx="144" cy="365" r="4" fill="#fffaf4" opacity="0.55"/><circle cx="451" cy="112" r="4" fill="#fffaf4" opacity="0.54"/><circle cx="218" cy="300" r="4" fill="#fffaf4" opacity="0.47000000000000003"/><circle cx="525" cy="47" r="4" fill="#fffaf4" opacity="0.46"/><circle cx="116" cy="136" r="4" fill="#fffaf4" opacity="0.45000000000000007"/><circle cx="423" cy="225" r="4" fill="#fffaf4" opacity="0.44000000000000006"/><circle cx="422" cy="285" r="4" fill="#fffaf4" opacity="0.51"/>
  <path d="M0 240c88-42 144 42 232 0s144 42 232 0 144 42 232 0 144 42 232 0v180H0z" fill="#fff" opacity=".34"/><path d="M0 286c88-42 144 42 232 0s144 42 232 0 144 42 232 0 144 42 232 0" fill="none" stroke="#fff" stroke-width="18" opacity=".62"/><path d="M142 174c82-44 170-44 252 0" fill="none" stroke="#fff" stroke-width="10" opacity=".45" stroke-linecap="round"/>
</svg>
