<svg xmlns="http://www.w3.org/2000/svg" viewBox="0 0 800 420" role="img" aria-label="Ilustracion propia de oceano y olas para esta pregunta">
  <defs>
    <linearGradient id="bg" x1="0" x2="1" y1="0" y2="1">
      <stop stop-color="#dff8ff"/>
      <stop offset="1" stop-color="#12b7a6" stop-opacity="0.22"/>
    </linearGradient>
  </defs>
  <rect width="800" height="420" fill="url(#bg)"/>
  <circle cx="654" cy="162" r="140" fill="#12b7a6" opacity="0.13"/>
  <circle cx="465" cy="181" r="73" fill="#315be8" opacity="0.16"/>
  <circle cx="517" cy="239" r="2" fill="#fffaf4" opacity="0.69"/><circle cx="210" cy="150" r="2" fill="#fffaf4" opacity="0.7"/><circle cx="415" cy="75" r="2" fill="#fffaf4" opacity="0.67"/><circle cx="108" cy="328" r="2" fill="#fffaf4" opacity="0.68"/><circle cx="721" cy="224" r="2" fill="#fffaf4" opacity="0.28"/><circle cx="414" cy="135" r="2" fill="#fffaf4" opacity="0.29000000000000004"/><circle cx="619" cy="60" r="2" fill="#fffaf4" opacity="0.71"/><circle cx="312" cy="313" r="2" fill="#fffaf4" opacity="0.72"/><circle cx="109" cy="268" r="2" fill="#fffaf4" opacity="0.6100000000000001"/>
  <path d="M0 240c88-42 144 42 232 0s144 42 232 0 144 42 232 0 144 42 232 0v180H0z" fill="#fff" opacity=".34"/><path d="M0 316c88-42 144 42 232 0s144 42 232 0 144 42 232 0 144 42 232 0" fill="none" stroke="#fff" stroke-width="18" opacity=".62"/><path d="M142 174c82-44 170-44 252 0" fill="none" stroke="#fff" stroke-width="10" opacity=".45" stroke-linecap="round"/>
</svg>
