<svg xmlns="http://www.w3.org/2000/svg" viewBox="0 0 800 420" role="img" aria-label="Ilustracion propia de oceano y olas para esta pregunta">
  <defs>
    <linearGradient id="bg" x1="0" x2="1" y1="0" y2="1">
      <stop stop-color="#dff8ff"/>
      <stop offset="1" stop-color="#315be8" stop-opacity="0.22"/>
    </linearGradient>
  </defs>
  <rect width="800" height="420" fill="url(#bg)"/>
  <circle cx="271" cy="274" r="93" fill="#12b7a6" opacity="0.13"/>
  <circle cx="267" cy="88" r="77" fill="#315be8" opacity="0.16"/>
  <circle cx="249" cy="53" r="2" fill="#fffaf4" opacity="0.48000000000000004"/><circle cx="658" cy="306" r="2" fill="#fffaf4" opacity="0.49"/><circle cx="147" cy="231" r="2" fill="#fffaf4" opacity="0.46"/><circle cx="556" cy="142" r="2" fill="#fffaf4" opacity="0.47000000000000003"/><circle cx="453" cy="38" r="2" fill="#fffaf4" opacity="0.52"/><circle cx="146" cy="291" r="2" fill="#fffaf4" opacity="0.53"/><circle cx="351" cy="216" r="2" fill="#fffaf4" opacity="0.5"/><circle cx="44" cy="127" r="2" fill="#fffaf4" opacity="0.51"/><circle cx="557" cy="82" r="2" fill="#fffaf4" opacity="0.4"/>
  <path d="M0 240c88-42 144 42 232 0s144 42 232 0 144 42 232 0 144 42 232 0v180H0z" fill="#fff" opacity=".34"/><path d="M0 286c88-42 144 42 232 0s144 42 232 0 144 42 232 0 144 42 232 0" fill="none" stroke="#fff" stroke-width="18" opacity=".62"/><path d="M142 174c82-44 170-44 252 0" fill="none" stroke="#fff" stroke-width="10" opacity=".45" stroke-linecap="round"/>
</svg>
