<svg xmlns="http://www.w3.org/2000/svg" viewBox="0 0 800 420" role="img" aria-label="Ilustracion propia de oceano y olas para esta pregunta">
  <defs>
    <linearGradient id="bg" x1="0" x2="1" y1="0" y2="1">
      <stop stop-color="#dff8ff"/>
      <stop offset="1" stop-color="#315be8" stop-opacity="0.22"/>
    </linearGradient>
  </defs>
  <rect width="800" height="420" fill="url(#bg)"/>
  <circle cx="480" cy="341" r="65" fill="#12b7a6" opacity="0.13"/>
  <circle cx="519" cy="168" r="94" fill="#315be8" opacity="0.16"/>
  <circle cx="126" cy="73" r="5" fill="#fffaf4" opacity="0.65"/><circle cx="433" cy="162" r="5" fill="#fffaf4" opacity="0.64"/><circle cx="740" cy="251" r="5" fill="#fffaf4" opacity="0.63"/><circle cx="331" cy="340" r="5" fill="#fffaf4" opacity="0.6200000000000001"/><circle cx="330" cy="58" r="5" fill="#fffaf4" opacity="0.69"/><circle cx="637" cy="147" r="5" fill="#fffaf4" opacity="0.68"/><circle cx="228" cy="237" r="5" fill="#fffaf4" opacity="0.67"/><circle cx="535" cy="326" r="5" fill="#fffaf4" opacity="0.66"/><circle cx="434" cy="102" r="5" fill="#fffaf4" opacity="0.5700000000000001"/>
  <path d="M0 240c88-42 144 42 232 0s144 42 232 0 144 42 232 0 144 42 232 0v180H0z" fill="#fff" opacity=".34"/><path d="M0 326c88-42 144 42 232 0s144 42 232 0 144 42 232 0 144 42 232 0" fill="none" stroke="#fff" stroke-width="18" opacity=".62"/><path d="M142 174c82-44 170-44 252 0" fill="none" stroke="#fff" stroke-width="10" opacity=".45" stroke-linecap="round"/>
</svg>
