<svg xmlns="http://www.w3.org/2000/svg" viewBox="0 0 800 420" role="img" aria-label="Ilustracion propia de oceano y olas para esta pregunta">
  <defs>
    <linearGradient id="bg" x1="0" x2="1" y1="0" y2="1">
      <stop stop-color="#dff8ff"/>
      <stop offset="1" stop-color="#315be8" stop-opacity="0.22"/>
    </linearGradient>
  </defs>
  <rect width="800" height="420" fill="url(#bg)"/>
  <circle cx="162" cy="251" r="123" fill="#12b7a6" opacity="0.13"/>
  <circle cx="254" cy="121" r="121" fill="#315be8" opacity="0.16"/>
  <circle cx="498" cy="130" r="2" fill="#fffaf4" opacity="0.6200000000000001"/><circle cx="89" cy="220" r="2" fill="#fffaf4" opacity="0.6100000000000001"/><circle cx="396" cy="309" r="2" fill="#fffaf4" opacity="0.6000000000000001"/><circle cx="703" cy="56" r="2" fill="#fffaf4" opacity="0.5900000000000001"/><circle cx="702" cy="116" r="2" fill="#fffaf4" opacity="0.66"/><circle cx="293" cy="205" r="2" fill="#fffaf4" opacity="0.65"/><circle cx="600" cy="294" r="2" fill="#fffaf4" opacity="0.64"/><circle cx="191" cy="41" r="2" fill="#fffaf4" opacity="0.63"/><circle cx="190" cy="101" r="2" fill="#fffaf4" opacity="0.7"/>
  <path d="M0 240c88-42 144 42 232 0s144 42 232 0 144 42 232 0 144 42 232 0v180H0z" fill="#fff" opacity=".34"/><path d="M0 296c88-42 144 42 232 0s144 42 232 0 144 42 232 0 144 42 232 0" fill="none" stroke="#fff" stroke-width="18" opacity=".62"/><path d="M142 174c82-44 170-44 252 0" fill="none" stroke="#fff" stroke-width="10" opacity=".45" stroke-linecap="round"/>
</svg>
