<svg xmlns="http://www.w3.org/2000/svg" viewBox="0 0 800 420" role="img" aria-label="Ilustracion propia de cancha de baloncesto para esta pregunta">
  <defs>
    <linearGradient id="bg" x1="0" x2="1" y1="0" y2="1">
      <stop stop-color="#fff1df"/>
      <stop offset="1" stop-color="#15191d" stop-opacity="0.22"/>
    </linearGradient>
  </defs>
  <rect width="800" height="420" fill="url(#bg)"/>
  <circle cx="584" cy="164" r="85" fill="#f6bc42" opacity="0.13"/>
  <circle cx="457" cy="253" r="96" fill="#d95a35" opacity="0.16"/>
  <circle cx="208" cy="259" r="3" fill="#15191d" opacity="0.72"/><circle cx="515" cy="348" r="3" fill="#15191d" opacity="0.71"/><circle cx="310" cy="80" r="3" fill="#15191d" opacity="0.29000000000000004"/><circle cx="617" cy="170" r="3" fill="#15191d" opacity="0.28"/><circle cx="720" cy="273" r="3" fill="#15191d" opacity="0.68"/><circle cx="311" cy="362" r="3" fill="#15191d" opacity="0.67"/><circle cx="106" cy="95" r="3" fill="#15191d" opacity="0.7"/><circle cx="413" cy="184" r="3" fill="#15191d" opacity="0.69"/><circle cx="616" cy="230" r="2" fill="#15191d" opacity="0.35000000000000003"/>
  <rect x="76" y="58" width="648" height="304" rx="30" fill="#d95a35"/><path d="M100 210h600M400 58v304" stroke="#fffaf4" stroke-width="8" opacity=".8"/><circle cx="400" cy="210" r="73" fill="none" stroke="#fffaf4" stroke-width="8" opacity=".8"/><circle cx="432" cy="222" r="42" fill="#15191d"/><path d="M390 222h84M432 180v84" stroke="#f6bc42" stroke-width="5" fill="none"/>
</svg>
