<svg xmlns="http://www.w3.org/2000/svg" viewBox="0 0 800 420" role="img" aria-label="Ilustracion propia de pista de tenis para esta pregunta">
  <defs>
    <linearGradient id="bg" x1="0" x2="1" y1="0" y2="1">
      <stop stop-color="#e8fbf5"/>
      <stop offset="1" stop-color="#f6bc42" stop-opacity="0.22"/>
    </linearGradient>
  </defs>
  <rect width="800" height="420" fill="url(#bg)"/>
  <circle cx="380" cy="151" r="103" fill="#12b7a6" opacity="0.13"/>
  <circle cx="431" cy="144" r="118" fill="#f6bc42" opacity="0.16"/>
  <circle cx="626" cy="207" r="5" fill="#315be8" opacity="0.46"/><circle cx="217" cy="296" r="5" fill="#315be8" opacity="0.45000000000000007"/><circle cx="524" cy="44" r="5" fill="#315be8" opacity="0.44000000000000006"/><circle cx="115" cy="133" r="5" fill="#315be8" opacity="0.43000000000000005"/><circle cx="114" cy="193" r="4" fill="#315be8" opacity="0.5"/><circle cx="421" cy="282" r="4" fill="#315be8" opacity="0.49"/><circle cx="728" cy="371" r="4" fill="#315be8" opacity="0.48000000000000004"/><circle cx="319" cy="118" r="4" fill="#315be8" opacity="0.47000000000000003"/><circle cx="218" cy="237" r="5" fill="#315be8" opacity="0.38"/>
  <rect x="96" y="52" width="608" height="316" rx="28" fill="#f6bc42"/><path d="M400 52v316M96 210h608M170 110h460M170 310h460M170 110v200M630 110v200" stroke="#fff" stroke-width="7" opacity=".88"/><circle cx="334" cy="262" r="18" fill="#315be8"/><ellipse cx="334" cy="188" rx="36" ry="50" fill="none" stroke="#fffaf4" stroke-width="9" transform="rotate(-18 334 188)"/>
</svg>
