<svg xmlns="http://www.w3.org/2000/svg" viewBox="0 0 800 420" role="img" aria-label="Ilustracion propia de cancha de baloncesto para esta pregunta">
  <defs>
    <linearGradient id="bg" x1="0" x2="1" y1="0" y2="1">
      <stop stop-color="#fff1df"/>
      <stop offset="1" stop-color="#fff1df" stop-opacity="0.22"/>
    </linearGradient>
  </defs>
  <rect width="800" height="420" fill="url(#bg)"/>
  <circle cx="267" cy="264" r="98" fill="#f6bc42" opacity="0.13"/>
  <circle cx="642" cy="123" r="108" fill="#d95a35" opacity="0.16"/>
  <circle cx="361" cy="126" r="2" fill="#15191d" opacity="0.6000000000000001"/><circle cx="54" cy="37" r="2" fill="#15191d" opacity="0.6100000000000001"/><circle cx="259" cy="304" r="3" fill="#15191d" opacity="0.5800000000000001"/><circle cx="668" cy="215" r="2" fill="#15191d" opacity="0.5900000000000001"/><circle cx="157" cy="141" r="3" fill="#15191d" opacity="0.56"/><circle cx="566" cy="51" r="3" fill="#15191d" opacity="0.5700000000000001"/><circle cx="55" cy="319" r="3" fill="#15191d" opacity="0.54"/><circle cx="464" cy="230" r="3" fill="#15191d" opacity="0.55"/><circle cx="53" cy="97" r="2" fill="#15191d" opacity="0.68"/>
  <rect x="76" y="58" width="648" height="304" rx="30" fill="#d95a35"/><path d="M100 210h600M400 58v304" stroke="#fffaf4" stroke-width="8" opacity=".8"/><circle cx="400" cy="210" r="59" fill="none" stroke="#fffaf4" stroke-width="8" opacity=".8"/><circle cx="264" cy="174" r="42" fill="#15191d"/><path d="M222 174h84M264 132v84" stroke="#f6bc42" stroke-width="5" fill="none"/>
</svg>
