<svg xmlns="http://www.w3.org/2000/svg" viewBox="0 0 800 420" role="img" aria-label="Ilustracion propia de historia y archivo para esta pregunta">
  <defs>
    <linearGradient id="bg" x1="0" x2="1" y1="0" y2="1">
      <stop stop-color="#fff4e4"/>
      <stop offset="1" stop-color="#d9cec1" stop-opacity="0.22"/>
    </linearGradient>
  </defs>
  <rect width="800" height="420" fill="url(#bg)"/>
  <circle cx="142" cy="137" r="67" fill="#15191d" opacity="0.13"/>
  <circle cx="326" cy="71" r="84" fill="#d9cec1" opacity="0.16"/>
  <circle cx="604" cy="116" r="5" fill="#f6bc42" opacity="0.43000000000000005"/><circle cx="195" cy="205" r="5" fill="#f6bc42" opacity="0.42000000000000004"/><circle cx="706" cy="280" r="5" fill="#f6bc42" opacity="0.45000000000000007"/><circle cx="297" cy="369" r="5" fill="#f6bc42" opacity="0.44000000000000006"/><circle cx="400" cy="131" r="5" fill="#f6bc42" opacity="0.39"/><circle cx="707" cy="220" r="5" fill="#f6bc42" opacity="0.38"/><circle cx="502" cy="294" r="5" fill="#f6bc42" opacity="0.41000000000000003"/><circle cx="93" cy="41" r="5" fill="#f6bc42" opacity="0.4"/><circle cx="296" cy="87" r="5" fill="#f6bc42" opacity="0.51"/>
  <rect x="148" y="130" width="220" height="210" rx="18" fill="#fffaf4" stroke="#f6bc42" stroke-width="5"/><rect x="182" y="172" width="152" height="12" rx="6" fill="#15191d" opacity=".2"/><rect x="182" y="212" width="120" height="12" rx="6" fill="#15191d" opacity=".2"/><path d="M470 170h210L575 94z" fill="#15191d"/><rect x="500" y="190" width="32" height="120" rx="6" fill="#15191d"/><rect x="560" y="190" width="32" height="120" rx="6" fill="#15191d"/><rect x="620" y="190" width="32" height="120" rx="6" fill="#15191d"/>
</svg>
