<svg xmlns="http://www.w3.org/2000/svg" viewBox="0 0 800 420" role="img" aria-label="Ilustracion propia de oceano y olas para esta pregunta">
  <defs>
    <linearGradient id="bg" x1="0" x2="1" y1="0" y2="1">
      <stop stop-color="#dff8ff"/>
      <stop offset="1" stop-color="#fffaf4" stop-opacity="0.22"/>
    </linearGradient>
  </defs>
  <rect width="800" height="420" fill="url(#bg)"/>
  <circle cx="193" cy="96" r="115" fill="#12b7a6" opacity="0.13"/>
  <circle cx="633" cy="280" r="130" fill="#315be8" opacity="0.16"/>
  <circle cx="419" cy="44" r="3" fill="#fffaf4" opacity="0.64"/><circle cx="112" cy="297" r="3" fill="#fffaf4" opacity="0.65"/><circle cx="521" cy="207" r="3" fill="#fffaf4" opacity="0.66"/><circle cx="214" cy="118" r="3" fill="#fffaf4" opacity="0.67"/><circle cx="623" cy="371" r="3" fill="#fffaf4" opacity="0.68"/><circle cx="316" cy="282" r="3" fill="#fffaf4" opacity="0.69"/><circle cx="725" cy="193" r="3" fill="#fffaf4" opacity="0.7"/><circle cx="418" cy="104" r="3" fill="#fffaf4" opacity="0.71"/><circle cx="111" cy="357" r="3" fill="#fffaf4" opacity="0.72"/>
  <path d="M0 240c88-42 144 42 232 0s144 42 232 0 144 42 232 0 144 42 232 0v180H0z" fill="#fff" opacity=".34"/><path d="M0 306c88-42 144 42 232 0s144 42 232 0 144 42 232 0 144 42 232 0" fill="none" stroke="#fff" stroke-width="18" opacity=".62"/><path d="M142 174c82-44 170-44 252 0" fill="none" stroke="#fff" stroke-width="10" opacity=".45" stroke-linecap="round"/>
</svg>
