<svg xmlns="http://www.w3.org/2000/svg" viewBox="0 0 800 420" role="img" aria-label="Ilustracion propia de historia y archivo para esta pregunta">
  <defs>
    <linearGradient id="bg" x1="0" x2="1" y1="0" y2="1">
      <stop stop-color="#fff4e4"/>
      <stop offset="1" stop-color="#d9cec1" stop-opacity="0.22"/>
    </linearGradient>
  </defs>
  <rect width="800" height="420" fill="url(#bg)"/>
  <circle cx="396" cy="253" r="119" fill="#15191d" opacity="0.13"/>
  <circle cx="508" cy="300" r="120" fill="#d9cec1" opacity="0.16"/>
  <circle cx="376" cy="263" r="5" fill="#f6bc42" opacity="0.7"/><circle cx="683" cy="352" r="2" fill="#f6bc42" opacity="0.69"/><circle cx="478" cy="85" r="5" fill="#f6bc42" opacity="0.72"/><circle cx="69" cy="174" r="5" fill="#f6bc42" opacity="0.71"/><circle cx="172" cy="277" r="2" fill="#f6bc42" opacity="0.66"/><circle cx="479" cy="367" r="2" fill="#f6bc42" opacity="0.65"/><circle cx="274" cy="99" r="2" fill="#f6bc42" opacity="0.68"/><circle cx="581" cy="188" r="2" fill="#f6bc42" opacity="0.67"/><circle cx="684" cy="292" r="2" fill="#f6bc42" opacity="0.6200000000000001"/>
  <rect x="130" y="130" width="220" height="210" rx="18" fill="#fffaf4" stroke="#f6bc42" stroke-width="5"/><rect x="164" y="172" width="152" height="12" rx="6" fill="#15191d" opacity=".2"/><rect x="164" y="212" width="120" height="12" rx="6" fill="#15191d" opacity=".2"/><path d="M470 170h210L575 94z" fill="#15191d"/><rect x="500" y="190" width="32" height="120" rx="6" fill="#15191d"/><rect x="560" y="190" width="32" height="120" rx="6" fill="#15191d"/><rect x="620" y="190" width="32" height="120" rx="6" fill="#15191d"/>
</svg>
