<svg xmlns="http://www.w3.org/2000/svg" viewBox="0 0 800 420" role="img" aria-label="Ilustracion propia de historia y archivo para esta pregunta">
  <defs>
    <linearGradient id="bg" x1="0" x2="1" y1="0" y2="1">
      <stop stop-color="#fff4e4"/>
      <stop offset="1" stop-color="#fff4e4" stop-opacity="0.22"/>
    </linearGradient>
  </defs>
  <rect width="800" height="420" fill="url(#bg)"/>
  <circle cx="319" cy="246" r="74" fill="#15191d" opacity="0.13"/>
  <circle cx="273" cy="263" r="115" fill="#d9cec1" opacity="0.16"/>
  <circle cx="182" cy="101" r="5" fill="#f6bc42" opacity="0.42000000000000004"/><circle cx="489" cy="190" r="5" fill="#f6bc42" opacity="0.41000000000000003"/><circle cx="80" cy="280" r="5" fill="#f6bc42" opacity="0.4"/><circle cx="619" cy="241" r="5" fill="#f6bc42" opacity="0.53"/><circle cx="386" cy="87" r="5" fill="#f6bc42" opacity="0.46"/><circle cx="693" cy="176" r="5" fill="#f6bc42" opacity="0.45000000000000007"/><circle cx="284" cy="265" r="5" fill="#f6bc42" opacity="0.44000000000000006"/><circle cx="591" cy="354" r="5" fill="#f6bc42" opacity="0.43000000000000005"/><circle cx="590" cy="72" r="5" fill="#f6bc42" opacity="0.5"/>
  <rect x="184" y="130" width="220" height="210" rx="18" fill="#fffaf4" stroke="#f6bc42" stroke-width="5"/><rect x="218" y="172" width="152" height="12" rx="6" fill="#15191d" opacity=".2"/><rect x="218" y="212" width="120" height="12" rx="6" fill="#15191d" opacity=".2"/><path d="M470 170h210L575 94z" fill="#15191d"/><rect x="500" y="190" width="32" height="120" rx="6" fill="#15191d"/><rect x="560" y="190" width="32" height="120" rx="6" fill="#15191d"/><rect x="620" y="190" width="32" height="120" rx="6" fill="#15191d"/>
</svg>
