<svg xmlns="http://www.w3.org/2000/svg" viewBox="0 0 800 420" role="img" aria-label="Ilustracion propia de anatomia humana para esta pregunta">
  <defs>
    <linearGradient id="bg" x1="0" x2="1" y1="0" y2="1">
      <stop stop-color="#fff0f3"/>
      <stop offset="1" stop-color="#15191d" stop-opacity="0.22"/>
    </linearGradient>
  </defs>
  <rect width="800" height="420" fill="url(#bg)"/>
  <circle cx="595" cy="189" r="141" fill="#ffb99c" opacity="0.13"/>
  <circle cx="158" cy="77" r="83" fill="#ff4f6d" opacity="0.16"/>
  <circle cx="364" cy="247" r="5" fill="#15191d" opacity="0.51"/><circle cx="671" cy="336" r="5" fill="#15191d" opacity="0.5"/><circle cx="466" cy="69" r="5" fill="#15191d" opacity="0.53"/><circle cx="57" cy="158" r="5" fill="#15191d" opacity="0.52"/><circle cx="160" cy="262" r="5" fill="#15191d" opacity="0.47000000000000003"/><circle cx="467" cy="351" r="5" fill="#15191d" opacity="0.46"/><circle cx="262" cy="83" r="5" fill="#15191d" opacity="0.49"/><circle cx="569" cy="173" r="5" fill="#15191d" opacity="0.48000000000000004"/><circle cx="56" cy="218" r="4" fill="#15191d" opacity="0.5900000000000001"/>
  <circle cx="400" cy="104" r="46" fill="#ff4f6d"/><path d="M322 352c10-122 28-184 78-184s68 62 78 184z" fill="#fffaf4" stroke="#15191d" stroke-width="8"/><path d="M400 168v184M330 230h140" stroke="#15191d" stroke-width="12" stroke-linecap="round" opacity=".72"/><path d="M316 208c-58 26-90 70-98 134M484 208c58 26 90 70 98 134" stroke="#15191d" stroke-width="18" stroke-linecap="round" opacity=".62"/>
</svg>
