<svg xmlns="http://www.w3.org/2000/svg" viewBox="0 0 800 420" role="img" aria-label="Ilustracion propia de arte y museo para esta pregunta">
  <defs>
    <linearGradient id="bg" x1="0" x2="1" y1="0" y2="1">
      <stop stop-color="#fff2df"/>
      <stop offset="1" stop-color="#6f4a2d" stop-opacity="0.22"/>
    </linearGradient>
  </defs>
  <rect width="800" height="420" fill="url(#bg)"/>
  <circle cx="310" cy="128" r="66" fill="#6f4a2d" opacity="0.13"/>
  <circle cx="272" cy="320" r="104" fill="#12b7a6" opacity="0.16"/>
  <circle cx="94" cy="324" r="3" fill="#ff4f6d" opacity="0.6000000000000001"/><circle cx="401" cy="71" r="3" fill="#ff4f6d" opacity="0.5900000000000001"/><circle cx="708" cy="160" r="3" fill="#ff4f6d" opacity="0.5800000000000001"/><circle cx="299" cy="249" r="3" fill="#ff4f6d" opacity="0.5700000000000001"/><circle cx="606" cy="338" r="3" fill="#ff4f6d" opacity="0.56"/><circle cx="197" cy="85" r="3" fill="#ff4f6d" opacity="0.55"/><circle cx="504" cy="175" r="3" fill="#ff4f6d" opacity="0.54"/><circle cx="95" cy="264" r="3" fill="#ff4f6d" opacity="0.53"/><circle cx="402" cy="353" r="3" fill="#ff4f6d" opacity="0.52"/>
  <rect x="294" y="54" width="304" height="312" rx="24" fill="#6f4a2d"/><rect x="324" y="84" width="244" height="252" rx="16" fill="#d9c092"/><circle cx="446" cy="178" r="54" fill="#f0c7a5"/><path d="M376 318c12-82 42-120 70-120s58 38 70 120z" fill="#ff4f6d"/><path d="M390 154c36-72 116-46 122 10-36-18-74-18-122-10z" fill="#4a2d22"/>
</svg>
