<svg xmlns="http://www.w3.org/2000/svg" viewBox="0 0 800 420" role="img" aria-label="Ilustracion propia de anatomia humana para esta pregunta">
  <defs>
    <linearGradient id="bg" x1="0" x2="1" y1="0" y2="1">
      <stop stop-color="#fff0f3"/>
      <stop offset="1" stop-color="#ff4f6d" stop-opacity="0.22"/>
    </linearGradient>
  </defs>
  <rect width="800" height="420" fill="url(#bg)"/>
  <circle cx="494" cy="98" r="131" fill="#ffb99c" opacity="0.13"/>
  <circle cx="520" cy="209" r="82" fill="#ff4f6d" opacity="0.16"/>
  <circle cx="635" cy="183" r="4" fill="#15191d" opacity="0.67"/><circle cx="328" cy="94" r="4" fill="#15191d" opacity="0.68"/><circle cx="737" cy="347" r="4" fill="#15191d" opacity="0.69"/><circle cx="430" cy="258" r="4" fill="#15191d" opacity="0.7"/><circle cx="123" cy="168" r="4" fill="#15191d" opacity="0.71"/><circle cx="532" cy="79" r="4" fill="#15191d" opacity="0.72"/><circle cx="225" cy="332" r="4" fill="#15191d" opacity="0.28"/><circle cx="634" cy="243" r="4" fill="#15191d" opacity="0.29000000000000004"/><circle cx="227" cy="212" r="4" fill="#15191d" opacity="0.5900000000000001"/>
  <circle cx="400" cy="104" r="46" fill="#ff4f6d"/><path d="M322 352c10-122 28-184 78-184s68 62 78 184z" fill="#fffaf4" stroke="#15191d" stroke-width="8"/><path d="M400 168v184M330 230h140" stroke="#15191d" stroke-width="12" stroke-linecap="round" opacity=".72"/><path d="M316 208c-58 26-90 70-98 134M484 208c58 26 90 70 98 134" stroke="#15191d" stroke-width="18" stroke-linecap="round" opacity=".62"/>
</svg>
