<svg xmlns="http://www.w3.org/2000/svg" viewBox="0 0 800 420" role="img" aria-label="Ilustracion propia de anatomia humana para esta pregunta">
  <defs>
    <linearGradient id="bg" x1="0" x2="1" y1="0" y2="1">
      <stop stop-color="#fff0f3"/>
      <stop offset="1" stop-color="#fff0f3" stop-opacity="0.22"/>
    </linearGradient>
  </defs>
  <rect width="800" height="420" fill="url(#bg)"/>
  <circle cx="271" cy="347" r="136" fill="#ffb99c" opacity="0.13"/>
  <circle cx="567" cy="276" r="103" fill="#ff4f6d" opacity="0.16"/>
  <circle cx="488" cy="140" r="3" fill="#15191d" opacity="0.43000000000000005"/><circle cx="79" cy="229" r="3" fill="#15191d" opacity="0.42000000000000004"/><circle cx="590" cy="304" r="3" fill="#15191d" opacity="0.45000000000000007"/><circle cx="181" cy="51" r="3" fill="#15191d" opacity="0.44000000000000006"/><circle cx="692" cy="125" r="3" fill="#15191d" opacity="0.47000000000000003"/><circle cx="283" cy="214" r="3" fill="#15191d" opacity="0.46"/><circle cx="78" cy="289" r="3" fill="#15191d" opacity="0.49"/><circle cx="385" cy="36" r="3" fill="#15191d" opacity="0.48000000000000004"/><circle cx="80" cy="169" r="3" fill="#15191d" opacity="0.35000000000000003"/>
  <circle cx="400" cy="104" r="46" fill="#ff4f6d"/><path d="M322 352c10-122 28-184 78-184s68 62 78 184z" fill="#fffaf4" stroke="#15191d" stroke-width="8"/><path d="M400 168v184M330 230h140" stroke="#15191d" stroke-width="12" stroke-linecap="round" opacity=".72"/><path d="M316 208c-58 26-90 70-98 134M484 208c58 26 90 70 98 134" stroke="#15191d" stroke-width="18" stroke-linecap="round" opacity=".62"/>
</svg>
