<svg xmlns="http://www.w3.org/2000/svg" viewBox="0 0 800 420" role="img" aria-label="Ilustracion propia de naturaleza para esta pregunta">
  <defs>
    <linearGradient id="bg" x1="0" x2="1" y1="0" y2="1">
      <stop stop-color="#ecfbef"/>
      <stop offset="1" stop-color="#12b7a6" stop-opacity="0.22"/>
    </linearGradient>
  </defs>
  <rect width="800" height="420" fill="url(#bg)"/>
  <circle cx="181" cy="310" r="110" fill="#12b7a6" opacity="0.13"/>
  <circle cx="256" cy="200" r="79" fill="#315be8" opacity="0.16"/>
  <circle cx="100" cy="192" r="3" fill="#f6bc42" opacity="0.37"/><circle cx="407" cy="281" r="3" fill="#f6bc42" opacity="0.36000000000000004"/><circle cx="202" cy="355" r="3" fill="#f6bc42" opacity="0.39"/><circle cx="509" cy="103" r="3" fill="#f6bc42" opacity="0.38"/><circle cx="612" cy="206" r="3" fill="#f6bc42" opacity="0.33"/><circle cx="203" cy="295" r="4" fill="#f6bc42" opacity="0.32"/><circle cx="714" cy="370" r="3" fill="#f6bc42" opacity="0.35000000000000003"/><circle cx="305" cy="117" r="3" fill="#f6bc42" opacity="0.34"/><circle cx="508" cy="163" r="3" fill="#f6bc42" opacity="0.45000000000000007"/>
  <path d="M164 322c172-20 120-184 278-208 118-18 172 78 194 158-152 42-298 74-472 50z" fill="#315be8"/><path d="M214 300c138-68 244-104 390-118" stroke="#fff" stroke-width="14" stroke-linecap="round" opacity=".72"/><path d="M314 254c-28-52-20-104 24-156 72 30 102 82 84 150z" fill="#f6bc42" opacity=".88"/>
</svg>
