<svg xmlns="http://www.w3.org/2000/svg" viewBox="0 0 800 420" role="img" aria-label="Ilustracion propia de arte y museo para esta pregunta">
  <defs>
    <linearGradient id="bg" x1="0" x2="1" y1="0" y2="1">
      <stop stop-color="#fff2df"/>
      <stop offset="1" stop-color="#12b7a6" stop-opacity="0.22"/>
    </linearGradient>
  </defs>
  <rect width="800" height="420" fill="url(#bg)"/>
  <circle cx="280" cy="130" r="129" fill="#6f4a2d" opacity="0.13"/>
  <circle cx="194" cy="70" r="72" fill="#12b7a6" opacity="0.16"/>
  <circle cx="442" cy="58" r="2" fill="#ff4f6d" opacity="0.6100000000000001"/><circle cx="749" cy="147" r="2" fill="#ff4f6d" opacity="0.6000000000000001"/><circle cx="340" cy="236" r="2" fill="#ff4f6d" opacity="0.5900000000000001"/><circle cx="647" cy="325" r="2" fill="#ff4f6d" opacity="0.5800000000000001"/><circle cx="238" cy="72" r="2" fill="#ff4f6d" opacity="0.5700000000000001"/><circle cx="545" cy="161" r="2" fill="#ff4f6d" opacity="0.56"/><circle cx="136" cy="251" r="2" fill="#ff4f6d" opacity="0.55"/><circle cx="443" cy="340" r="2" fill="#ff4f6d" opacity="0.54"/><circle cx="750" cy="87" r="2" fill="#ff4f6d" opacity="0.53"/>
  <rect x="294" y="54" width="304" height="312" rx="24" fill="#6f4a2d"/><rect x="324" y="84" width="244" height="252" rx="16" fill="#d9c092"/><circle cx="446" cy="178" r="54" fill="#f0c7a5"/><path d="M376 318c12-82 42-120 70-120s58 38 70 120z" fill="#ff4f6d"/><path d="M390 154c36-72 116-46 122 10-36-18-74-18-122-10z" fill="#4a2d22"/>
</svg>
