<svg xmlns="http://www.w3.org/2000/svg" viewBox="0 0 800 420" role="img" aria-label="Ilustracion propia de anatomia humana para esta pregunta">
  <defs>
    <linearGradient id="bg" x1="0" x2="1" y1="0" y2="1">
      <stop stop-color="#fff0f3"/>
      <stop offset="1" stop-color="#fff0f3" stop-opacity="0.22"/>
    </linearGradient>
  </defs>
  <rect width="800" height="420" fill="url(#bg)"/>
  <circle cx="586" cy="257" r="122" fill="#ffb99c" opacity="0.13"/>
  <circle cx="157" cy="265" r="101" fill="#ff4f6d" opacity="0.16"/>
  <circle cx="177" cy="134" r="4" fill="#15191d" opacity="0.47000000000000003"/><circle cx="586" cy="45" r="4" fill="#15191d" opacity="0.48000000000000004"/><circle cx="75" cy="313" r="4" fill="#15191d" opacity="0.45000000000000007"/><circle cx="484" cy="224" r="4" fill="#15191d" opacity="0.46"/><circle cx="381" cy="120" r="4" fill="#15191d" opacity="0.51"/><circle cx="74" cy="373" r="4" fill="#15191d" opacity="0.52"/><circle cx="279" cy="298" r="4" fill="#15191d" opacity="0.49"/><circle cx="688" cy="209" r="4" fill="#15191d" opacity="0.5"/><circle cx="485" cy="164" r="4" fill="#15191d" opacity="0.39"/>
  <circle cx="400" cy="104" r="46" fill="#ff4f6d"/><path d="M322 352c10-122 28-184 78-184s68 62 78 184z" fill="#fffaf4" stroke="#15191d" stroke-width="8"/><path d="M400 168v184M330 230h140" stroke="#15191d" stroke-width="12" stroke-linecap="round" opacity=".72"/><path d="M316 208c-58 26-90 70-98 134M484 208c58 26 90 70 98 134" stroke="#15191d" stroke-width="18" stroke-linecap="round" opacity=".62"/>
</svg>
