<svg xmlns="http://www.w3.org/2000/svg" viewBox="0 0 800 420" role="img" aria-label="Ilustracion propia de naturaleza para esta pregunta">
  <defs>
    <linearGradient id="bg" x1="0" x2="1" y1="0" y2="1">
      <stop stop-color="#ecfbef"/>
      <stop offset="1" stop-color="#ecfbef" stop-opacity="0.22"/>
    </linearGradient>
  </defs>
  <rect width="800" height="420" fill="url(#bg)"/>
  <circle cx="370" cy="287" r="106" fill="#12b7a6" opacity="0.13"/>
  <circle cx="430" cy="233" r="79" fill="#315be8" opacity="0.16"/>
  <circle cx="356" cy="134" r="4" fill="#f6bc42" opacity="0.4"/><circle cx="663" cy="223" r="4" fill="#f6bc42" opacity="0.39"/><circle cx="458" cy="298" r="4" fill="#f6bc42" opacity="0.42000000000000004"/><circle cx="49" cy="45" r="4" fill="#f6bc42" opacity="0.41000000000000003"/><circle cx="152" cy="149" r="4" fill="#f6bc42" opacity="0.36000000000000004"/><circle cx="459" cy="238" r="4" fill="#f6bc42" opacity="0.35000000000000003"/><circle cx="254" cy="312" r="4" fill="#f6bc42" opacity="0.38"/><circle cx="561" cy="60" r="4" fill="#f6bc42" opacity="0.37"/><circle cx="664" cy="163" r="4" fill="#f6bc42" opacity="0.32"/>
  <path d="M164 322c172-20 120-184 278-208 118-18 172 78 194 158-152 42-298 74-472 50z" fill="#315be8"/><path d="M214 300c138-68 244-104 390-118" stroke="#fff" stroke-width="14" stroke-linecap="round" opacity=".72"/><path d="M394 254c-28-52-20-104 24-156 72 30 102 82 84 150z" fill="#f6bc42" opacity=".88"/>
</svg>
