<svg xmlns="http://www.w3.org/2000/svg" viewBox="0 0 800 420" role="img" aria-label="Ilustracion propia de naturaleza para esta pregunta">
  <defs>
    <linearGradient id="bg" x1="0" x2="1" y1="0" y2="1">
      <stop stop-color="#ecfbef"/>
      <stop offset="1" stop-color="#12b7a6" stop-opacity="0.22"/>
    </linearGradient>
  </defs>
  <rect width="800" height="420" fill="url(#bg)"/>
  <circle cx="583" cy="77" r="112" fill="#12b7a6" opacity="0.13"/>
  <circle cx="381" cy="171" r="120" fill="#315be8" opacity="0.16"/>
  <circle cx="161" cy="260" r="2" fill="#f6bc42" opacity="0.48000000000000004"/><circle cx="570" cy="171" r="2" fill="#f6bc42" opacity="0.49"/><circle cx="59" cy="96" r="2" fill="#f6bc42" opacity="0.46"/><circle cx="468" cy="349" r="2" fill="#f6bc42" opacity="0.47000000000000003"/><circle cx="673" cy="275" r="2" fill="#f6bc42" opacity="0.44000000000000006"/><circle cx="366" cy="185" r="2" fill="#f6bc42" opacity="0.45000000000000007"/><circle cx="571" cy="111" r="2" fill="#f6bc42" opacity="0.42000000000000004"/><circle cx="264" cy="364" r="2" fill="#f6bc42" opacity="0.43000000000000005"/><circle cx="469" cy="289" r="2" fill="#f6bc42" opacity="0.4"/>
  <path d="M164 322c172-20 120-184 278-208 118-18 172 78 194 158-152 42-298 74-472 50z" fill="#315be8"/><path d="M214 300c138-68 244-104 390-118" stroke="#fff" stroke-width="14" stroke-linecap="round" opacity=".72"/><path d="M354 254c-28-52-20-104 24-156 72 30 102 82 84 150z" fill="#f6bc42" opacity=".88"/>
</svg>
