<svg xmlns="http://www.w3.org/2000/svg" viewBox="0 0 800 420" role="img" aria-label="Ilustracion propia de oceano y olas para esta pregunta">
  <defs>
    <linearGradient id="bg" x1="0" x2="1" y1="0" y2="1">
      <stop stop-color="#dff8ff"/>
      <stop offset="1" stop-color="#fffaf4" stop-opacity="0.22"/>
    </linearGradient>
  </defs>
  <rect width="800" height="420" fill="url(#bg)"/>
  <circle cx="202" cy="68" r="111" fill="#12b7a6" opacity="0.13"/>
  <circle cx="259" cy="170" r="69" fill="#315be8" opacity="0.16"/>
  <circle cx="617" cy="76" r="3" fill="#fffaf4" opacity="0.68"/><circle cx="310" cy="329" r="3" fill="#fffaf4" opacity="0.69"/><circle cx="515" cy="254" r="3" fill="#fffaf4" opacity="0.66"/><circle cx="208" cy="165" r="3" fill="#fffaf4" opacity="0.67"/><circle cx="413" cy="91" r="3" fill="#fffaf4" opacity="0.64"/><circle cx="106" cy="343" r="3" fill="#fffaf4" opacity="0.65"/><circle cx="311" cy="269" r="3" fill="#fffaf4" opacity="0.6200000000000001"/><circle cx="720" cy="180" r="3" fill="#fffaf4" opacity="0.63"/><circle cx="309" cy="47" r="3" fill="#fffaf4" opacity="0.31000000000000005"/>
  <path d="M0 240c88-42 144 42 232 0s144 42 232 0 144 42 232 0 144 42 232 0v180H0z" fill="#fff" opacity=".34"/><path d="M0 296c88-42 144 42 232 0s144 42 232 0 144 42 232 0 144 42 232 0" fill="none" stroke="#fff" stroke-width="18" opacity=".62"/><path d="M142 174c82-44 170-44 252 0" fill="none" stroke="#fff" stroke-width="10" opacity=".45" stroke-linecap="round"/>
</svg>
