<svg xmlns="http://www.w3.org/2000/svg" viewBox="0 0 800 420" role="img" aria-label="Ilustracion propia de laboratorio cientifico para esta pregunta">
  <defs>
    <linearGradient id="bg" x1="0" x2="1" y1="0" y2="1">
      <stop stop-color="#edf9ff"/>
      <stop offset="1" stop-color="#ff4f6d" stop-opacity="0.22"/>
    </linearGradient>
  </defs>
  <rect width="800" height="420" fill="url(#bg)"/>
  <circle cx="353" cy="191" r="91" fill="#fffaf4" opacity="0.13"/>
  <circle cx="503" cy="78" r="97" fill="#12b7a6" opacity="0.16"/>
  <circle cx="122" cy="365" r="2" fill="#ff4f6d" opacity="0.46"/><circle cx="429" cy="112" r="2" fill="#ff4f6d" opacity="0.45000000000000007"/><circle cx="736" cy="201" r="2" fill="#ff4f6d" opacity="0.44000000000000006"/><circle cx="327" cy="290" r="2" fill="#ff4f6d" opacity="0.43000000000000005"/><circle cx="326" cy="350" r="2" fill="#ff4f6d" opacity="0.5"/><circle cx="633" cy="97" r="2" fill="#ff4f6d" opacity="0.49"/><circle cx="224" cy="187" r="2" fill="#ff4f6d" opacity="0.48000000000000004"/><circle cx="531" cy="276" r="2" fill="#ff4f6d" opacity="0.47000000000000003"/><circle cx="430" cy="52" r="2" fill="#ff4f6d" opacity="0.38"/>
  <path d="M370 74h116v28l-38 76v84c0 48-39 86-86 86h-8c-47 0-86-38-86-86v-84l-38-76V74h116z" fill="#12b7a6" stroke="#15191d" stroke-width="8"/><path d="M290 230h132v38c0 31-25 56-56 56h-20c-31 0-56-25-56-56z" fill="#ff4f6d" opacity=".85"/><circle cx="366" cy="250" r="12" fill="#fff"/><circle cx="344" cy="280" r="18" fill="#fff"/><path d="M528 118l68 118 68-118" fill="none" stroke="#fffaf4" stroke-width="15" stroke-linejoin="round"/>
</svg>
