<svg xmlns="http://www.w3.org/2000/svg" viewBox="0 0 800 420" role="img" aria-label="Ilustracion propia de arte y museo para esta pregunta">
  <defs>
    <linearGradient id="bg" x1="0" x2="1" y1="0" y2="1">
      <stop stop-color="#fff2df"/>
      <stop offset="1" stop-color="#fff2df" stop-opacity="0.22"/>
    </linearGradient>
  </defs>
  <rect width="800" height="420" fill="url(#bg)"/>
  <circle cx="194" cy="135" r="140" fill="#6f4a2d" opacity="0.13"/>
  <circle cx="183" cy="71" r="133" fill="#12b7a6" opacity="0.16"/>
  <circle cx="408" cy="274" r="3" fill="#ff4f6d" opacity="0.35000000000000003"/><circle cx="715" cy="363" r="3" fill="#ff4f6d" opacity="0.34"/><circle cx="510" cy="96" r="3" fill="#ff4f6d" opacity="0.37"/><circle cx="101" cy="185" r="3" fill="#ff4f6d" opacity="0.36000000000000004"/><circle cx="204" cy="289" r="3" fill="#ff4f6d" opacity="0.31000000000000005"/><circle cx="511" cy="36" r="3" fill="#ff4f6d" opacity="0.30000000000000004"/><circle cx="306" cy="110" r="3" fill="#ff4f6d" opacity="0.33"/><circle cx="613" cy="199" r="3" fill="#ff4f6d" opacity="0.32"/><circle cx="100" cy="245" r="3" fill="#ff4f6d" opacity="0.43000000000000005"/>
  <rect x="282" y="54" width="304" height="312" rx="24" fill="#6f4a2d"/><rect x="312" y="84" width="244" height="252" rx="16" fill="#d9c092"/><circle cx="434" cy="178" r="54" fill="#f0c7a5"/><path d="M364 318c12-82 42-120 70-120s58 38 70 120z" fill="#ff4f6d"/><path d="M378 154c36-72 116-46 122 10-36-18-74-18-122-10z" fill="#4a2d22"/>
</svg>
