<svg xmlns="http://www.w3.org/2000/svg" viewBox="0 0 800 420" role="img" aria-label="Ilustracion propia de oceano y olas para esta pregunta">
  <defs>
    <linearGradient id="bg" x1="0" x2="1" y1="0" y2="1">
      <stop stop-color="#dff8ff"/>
      <stop offset="1" stop-color="#12b7a6" stop-opacity="0.22"/>
    </linearGradient>
  </defs>
  <rect width="800" height="420" fill="url(#bg)"/>
  <circle cx="110" cy="215" r="86" fill="#12b7a6" opacity="0.13"/>
  <circle cx="397" cy="152" r="126" fill="#315be8" opacity="0.16"/>
  <circle cx="712" cy="229" r="4" fill="#fffaf4" opacity="0.5900000000000001"/><circle cx="303" cy="318" r="5" fill="#fffaf4" opacity="0.5800000000000001"/><circle cx="98" cy="51" r="4" fill="#fffaf4" opacity="0.6100000000000001"/><circle cx="405" cy="140" r="4" fill="#fffaf4" opacity="0.6000000000000001"/><circle cx="200" cy="214" r="4" fill="#fffaf4" opacity="0.63"/><circle cx="507" cy="303" r="4" fill="#fffaf4" opacity="0.6200000000000001"/><circle cx="302" cy="36" r="4" fill="#fffaf4" opacity="0.65"/><circle cx="609" cy="125" r="4" fill="#fffaf4" opacity="0.64"/><circle cx="536" cy="130" r="5" fill="#fffaf4" opacity="0.65"/>
  <path d="M0 240c88-42 144 42 232 0s144 42 232 0 144 42 232 0 144 42 232 0v180H0z" fill="#fff" opacity=".34"/><path d="M0 326c88-42 144 42 232 0s144 42 232 0 144 42 232 0 144 42 232 0" fill="none" stroke="#fff" stroke-width="18" opacity=".62"/><path d="M142 174c82-44 170-44 252 0" fill="none" stroke="#fff" stroke-width="10" opacity=".45" stroke-linecap="round"/>
</svg>
