<svg xmlns="http://www.w3.org/2000/svg" viewBox="0 0 800 420" role="img" aria-label="Ilustracion propia de espacio y planetas para esta pregunta">
  <defs>
    <linearGradient id="bg" x1="0" x2="1" y1="0" y2="1">
      <stop stop-color="#12171a"/>
      <stop offset="1" stop-color="#12171a" stop-opacity="0.22"/>
    </linearGradient>
  </defs>
  <rect width="800" height="420" fill="url(#bg)"/>
  <circle cx="469" cy="329" r="74" fill="#e46b4f" opacity="0.13"/>
  <circle cx="517" cy="202" r="115" fill="#f6bc42" opacity="0.16"/>
  <circle cx="137" cy="311" r="2" fill="#315be8" opacity="0.51"/><circle cx="546" cy="222" r="2" fill="#315be8" opacity="0.52"/><circle cx="751" cy="147" r="2" fill="#315be8" opacity="0.49"/><circle cx="444" cy="58" r="2" fill="#315be8" opacity="0.5"/><circle cx="341" cy="296" r="2" fill="#315be8" opacity="0.55"/><circle cx="750" cy="207" r="2" fill="#315be8" opacity="0.56"/><circle cx="239" cy="132" r="2" fill="#315be8" opacity="0.53"/><circle cx="648" cy="43" r="2" fill="#315be8" opacity="0.54"/><circle cx="445" cy="340" r="2" fill="#315be8" opacity="0.43000000000000005"/>
  <rect width="800" height="420" fill="#e46b4f"/><circle cx="388" cy="218" r="91" fill="#f6bc42"/><path d="M230 212c36 14 66-22 112-2" stroke="#8f3327" stroke-width="12" stroke-linecap="round" opacity=".36"/><circle cx="432" cy="214" r="60" fill="#315be8"/><circle cx="600" cy="276" r="32" fill="#fffaf4"/><path d="M176 324c140 46 308 54 476 0" stroke="#fff" stroke-width="5" fill="none" opacity=".38"/>
</svg>
