<svg xmlns="http://www.w3.org/2000/svg" viewBox="0 0 800 420" role="img" aria-label="Ilustracion propia de historia y archivo para esta pregunta">
  <defs>
    <linearGradient id="bg" x1="0" x2="1" y1="0" y2="1">
      <stop stop-color="#fff4e4"/>
      <stop offset="1" stop-color="#f6bc42" stop-opacity="0.22"/>
    </linearGradient>
  </defs>
  <rect width="800" height="420" fill="url(#bg)"/>
  <circle cx="501" cy="177" r="65" fill="#15191d" opacity="0.13"/>
  <circle cx="671" cy="147" r="74" fill="#d9cec1" opacity="0.16"/>
  <circle cx="240" cy="333" r="2" fill="#f6bc42" opacity="0.46"/><circle cx="547" cy="81" r="2" fill="#f6bc42" opacity="0.45000000000000007"/><circle cx="342" cy="155" r="2" fill="#f6bc42" opacity="0.48000000000000004"/><circle cx="649" cy="244" r="2" fill="#f6bc42" opacity="0.47000000000000003"/><circle cx="752" cy="348" r="2" fill="#f6bc42" opacity="0.42000000000000004"/><circle cx="343" cy="95" r="2" fill="#f6bc42" opacity="0.41000000000000003"/><circle cx="138" cy="170" r="2" fill="#f6bc42" opacity="0.44000000000000006"/><circle cx="445" cy="259" r="2" fill="#f6bc42" opacity="0.43000000000000005"/><circle cx="648" cy="304" r="2" fill="#f6bc42" opacity="0.54"/>
  <rect x="130" y="130" width="220" height="210" rx="18" fill="#fffaf4" stroke="#f6bc42" stroke-width="5"/><rect x="164" y="172" width="152" height="12" rx="6" fill="#15191d" opacity=".2"/><rect x="164" y="212" width="120" height="12" rx="6" fill="#15191d" opacity=".2"/><path d="M470 170h210L575 94z" fill="#15191d"/><rect x="500" y="190" width="32" height="120" rx="6" fill="#15191d"/><rect x="560" y="190" width="32" height="120" rx="6" fill="#15191d"/><rect x="620" y="190" width="32" height="120" rx="6" fill="#15191d"/>
</svg>
