<svg xmlns="http://www.w3.org/2000/svg" viewBox="0 0 800 420" role="img" aria-label="Ilustracion propia de arte y museo para esta pregunta">
  <defs>
    <linearGradient id="bg" x1="0" x2="1" y1="0" y2="1">
      <stop stop-color="#fff2df"/>
      <stop offset="1" stop-color="#ff4f6d" stop-opacity="0.22"/>
    </linearGradient>
  </defs>
  <rect width="800" height="420" fill="url(#bg)"/>
  <circle cx="297" cy="119" r="87" fill="#6f4a2d" opacity="0.13"/>
  <circle cx="271" cy="319" r="66" fill="#12b7a6" opacity="0.16"/>
  <circle cx="552" cy="48" r="4" fill="#ff4f6d" opacity="0.5800000000000001"/><circle cx="143" cy="137" r="4" fill="#ff4f6d" opacity="0.5700000000000001"/><circle cx="654" cy="212" r="4" fill="#ff4f6d" opacity="0.6000000000000001"/><circle cx="245" cy="301" r="4" fill="#ff4f6d" opacity="0.5900000000000001"/><circle cx="348" cy="63" r="4" fill="#ff4f6d" opacity="0.54"/><circle cx="655" cy="152" r="4" fill="#ff4f6d" opacity="0.53"/><circle cx="450" cy="226" r="4" fill="#ff4f6d" opacity="0.56"/><circle cx="757" cy="316" r="4" fill="#ff4f6d" opacity="0.55"/><circle cx="244" cy="361" r="4" fill="#ff4f6d" opacity="0.66"/>
  <rect x="258" y="54" width="304" height="312" rx="24" fill="#6f4a2d"/><rect x="288" y="84" width="244" height="252" rx="16" fill="#d9c092"/><circle cx="410" cy="178" r="54" fill="#f0c7a5"/><path d="M340 318c12-82 42-120 70-120s58 38 70 120z" fill="#ff4f6d"/><path d="M354 154c36-72 116-46 122 10-36-18-74-18-122-10z" fill="#4a2d22"/>
</svg>
