<svg xmlns="http://www.w3.org/2000/svg" viewBox="0 0 800 420" role="img" aria-label="Ilustracion propia de escenario musical para esta pregunta">
  <defs>
    <linearGradient id="bg" x1="0" x2="1" y1="0" y2="1">
      <stop stop-color="#201525"/>
      <stop offset="1" stop-color="#12b7a6" stop-opacity="0.22"/>
    </linearGradient>
  </defs>
  <rect width="800" height="420" fill="url(#bg)"/>
  <circle cx="644" cy="120" r="91" fill="#fffaf4" opacity="0.13"/>
  <circle cx="539" cy="248" r="97" fill="#ff4f6d" opacity="0.16"/>
  <circle cx="345" cy="275" r="5" fill="#12b7a6" opacity="0.6200000000000001"/><circle cx="754" cy="185" r="5" fill="#12b7a6" opacity="0.63"/><circle cx="243" cy="111" r="5" fill="#12b7a6" opacity="0.6000000000000001"/><circle cx="652" cy="364" r="5" fill="#12b7a6" opacity="0.6100000000000001"/><circle cx="549" cy="260" r="5" fill="#12b7a6" opacity="0.66"/><circle cx="242" cy="171" r="4" fill="#12b7a6" opacity="0.67"/><circle cx="447" cy="96" r="5" fill="#12b7a6" opacity="0.64"/><circle cx="140" cy="349" r="5" fill="#12b7a6" opacity="0.65"/><circle cx="653" cy="304" r="5" fill="#12b7a6" opacity="0.54"/>
  <rect width="800" height="420" fill="#fffaf4"/><path d="M182 0l170 290M618 0L510 290" stroke="#12b7a6" stroke-width="34" opacity=".5"/><rect x="150" y="292" width="500" height="54" rx="20" fill="#ff4f6d" opacity=".9"/><path d="M280 292c26-80 214-80 240 0" fill="none" stroke="#fffaf4" stroke-width="16"/><path d="M438 98v126c0 28-24 50-58 50s-58-22-58-50 24-50 58-50c12 0 23 3 32 8V98z" fill="#ff4f6d"/>
</svg>
