<svg xmlns="http://www.w3.org/2000/svg" viewBox="0 0 800 420" role="img" aria-label="Ilustracion propia de arte y museo para esta pregunta">
  <defs>
    <linearGradient id="bg" x1="0" x2="1" y1="0" y2="1">
      <stop stop-color="#fff2df"/>
      <stop offset="1" stop-color="#6f4a2d" stop-opacity="0.22"/>
    </linearGradient>
  </defs>
  <rect width="800" height="420" fill="url(#bg)"/>
  <circle cx="180" cy="123" r="88" fill="#6f4a2d" opacity="0.13"/>
  <circle cx="631" cy="141" r="117" fill="#12b7a6" opacity="0.16"/>
  <circle cx="410" cy="116" r="4" fill="#ff4f6d" opacity="0.63"/><circle cx="717" cy="205" r="4" fill="#ff4f6d" opacity="0.6200000000000001"/><circle cx="308" cy="294" r="4" fill="#ff4f6d" opacity="0.6100000000000001"/><circle cx="615" cy="41" r="4" fill="#ff4f6d" opacity="0.6000000000000001"/><circle cx="206" cy="131" r="4" fill="#ff4f6d" opacity="0.5900000000000001"/><circle cx="513" cy="220" r="4" fill="#ff4f6d" opacity="0.5800000000000001"/><circle cx="104" cy="309" r="4" fill="#ff4f6d" opacity="0.5700000000000001"/><circle cx="411" cy="56" r="4" fill="#ff4f6d" opacity="0.56"/><circle cx="718" cy="145" r="4" fill="#ff4f6d" opacity="0.55"/>
  <rect x="294" y="54" width="304" height="312" rx="24" fill="#6f4a2d"/><rect x="324" y="84" width="244" height="252" rx="16" fill="#d9c092"/><circle cx="446" cy="178" r="54" fill="#f0c7a5"/><path d="M376 318c12-82 42-120 70-120s58 38 70 120z" fill="#ff4f6d"/><path d="M390 154c36-72 116-46 122 10-36-18-74-18-122-10z" fill="#4a2d22"/>
</svg>
