<svg xmlns="http://www.w3.org/2000/svg" viewBox="0 0 800 420" role="img" aria-label="Ilustracion propia de oceano y olas para esta pregunta">
  <defs>
    <linearGradient id="bg" x1="0" x2="1" y1="0" y2="1">
      <stop stop-color="#dff8ff"/>
      <stop offset="1" stop-color="#12b7a6" stop-opacity="0.22"/>
    </linearGradient>
  </defs>
  <rect width="800" height="420" fill="url(#bg)"/>
  <circle cx="310" cy="246" r="78" fill="#12b7a6" opacity="0.13"/>
  <circle cx="122" cy="299" r="135" fill="#315be8" opacity="0.16"/>
  <circle cx="404" cy="275" r="5" fill="#fffaf4" opacity="0.69"/><circle cx="711" cy="364" r="5" fill="#fffaf4" opacity="0.68"/><circle cx="506" cy="96" r="5" fill="#fffaf4" opacity="0.71"/><circle cx="97" cy="186" r="5" fill="#fffaf4" opacity="0.7"/><circle cx="200" cy="289" r="5" fill="#fffaf4" opacity="0.65"/><circle cx="507" cy="36" r="5" fill="#fffaf4" opacity="0.64"/><circle cx="302" cy="111" r="5" fill="#fffaf4" opacity="0.67"/><circle cx="609" cy="200" r="5" fill="#fffaf4" opacity="0.66"/><circle cx="712" cy="304" r="2" fill="#fffaf4" opacity="0.6100000000000001"/>
  <path d="M0 240c88-42 144 42 232 0s144 42 232 0 144 42 232 0 144 42 232 0v180H0z" fill="#fff" opacity=".34"/><path d="M0 326c88-42 144 42 232 0s144 42 232 0 144 42 232 0 144 42 232 0" fill="none" stroke="#fff" stroke-width="18" opacity=".62"/><path d="M142 174c82-44 170-44 252 0" fill="none" stroke="#fff" stroke-width="10" opacity=".45" stroke-linecap="round"/>
</svg>
