<svg xmlns="http://www.w3.org/2000/svg" viewBox="0 0 800 420" role="img" aria-label="Ilustracion propia de historia y archivo para esta pregunta">
  <defs>
    <linearGradient id="bg" x1="0" x2="1" y1="0" y2="1">
      <stop stop-color="#fff4e4"/>
      <stop offset="1" stop-color="#d9cec1" stop-opacity="0.22"/>
    </linearGradient>
  </defs>
  <rect width="800" height="420" fill="url(#bg)"/>
  <circle cx="399" cy="178" r="81" fill="#15191d" opacity="0.13"/>
  <circle cx="433" cy="148" r="126" fill="#d9cec1" opacity="0.16"/>
  <circle cx="422" cy="303" r="5" fill="#f6bc42" opacity="0.7"/><circle cx="729" cy="51" r="5" fill="#f6bc42" opacity="0.69"/><circle cx="320" cy="140" r="5" fill="#f6bc42" opacity="0.68"/><circle cx="627" cy="229" r="5" fill="#f6bc42" opacity="0.67"/><circle cx="218" cy="318" r="5" fill="#f6bc42" opacity="0.66"/><circle cx="525" cy="65" r="5" fill="#f6bc42" opacity="0.65"/><circle cx="116" cy="154" r="5" fill="#f6bc42" opacity="0.64"/><circle cx="423" cy="243" r="5" fill="#f6bc42" opacity="0.63"/><circle cx="114" cy="274" r="5" fill="#f6bc42" opacity="0.33"/>
  <rect x="184" y="130" width="220" height="210" rx="18" fill="#fffaf4" stroke="#f6bc42" stroke-width="5"/><rect x="218" y="172" width="152" height="12" rx="6" fill="#15191d" opacity=".2"/><rect x="218" y="212" width="120" height="12" rx="6" fill="#15191d" opacity=".2"/><path d="M470 170h210L575 94z" fill="#15191d"/><rect x="500" y="190" width="32" height="120" rx="6" fill="#15191d"/><rect x="560" y="190" width="32" height="120" rx="6" fill="#15191d"/><rect x="620" y="190" width="32" height="120" rx="6" fill="#15191d"/>
</svg>
