<svg xmlns="http://www.w3.org/2000/svg" viewBox="0 0 800 420" role="img" aria-label="Ilustracion propia de arte y museo para esta pregunta">
  <defs>
    <linearGradient id="bg" x1="0" x2="1" y1="0" y2="1">
      <stop stop-color="#fff2df"/>
      <stop offset="1" stop-color="#ff4f6d" stop-opacity="0.22"/>
    </linearGradient>
  </defs>
  <rect width="800" height="420" fill="url(#bg)"/>
  <circle cx="572" cy="278" r="83" fill="#6f4a2d" opacity="0.13"/>
  <circle cx="530" cy="267" r="106" fill="#12b7a6" opacity="0.16"/>
  <circle cx="694" cy="352" r="4" fill="#ff4f6d" opacity="0.5900000000000001"/><circle cx="285" cy="99" r="4" fill="#ff4f6d" opacity="0.5800000000000001"/><circle cx="592" cy="188" r="4" fill="#ff4f6d" opacity="0.5700000000000001"/><circle cx="183" cy="277" r="4" fill="#ff4f6d" opacity="0.56"/><circle cx="490" cy="367" r="4" fill="#ff4f6d" opacity="0.55"/><circle cx="81" cy="114" r="4" fill="#ff4f6d" opacity="0.54"/><circle cx="388" cy="203" r="4" fill="#ff4f6d" opacity="0.53"/><circle cx="695" cy="292" r="4" fill="#ff4f6d" opacity="0.52"/><circle cx="386" cy="323" r="3" fill="#ff4f6d" opacity="0.67"/>
  <rect x="258" y="54" width="304" height="312" rx="24" fill="#6f4a2d"/><rect x="288" y="84" width="244" height="252" rx="16" fill="#d9c092"/><circle cx="410" cy="178" r="54" fill="#f0c7a5"/><path d="M340 318c12-82 42-120 70-120s58 38 70 120z" fill="#ff4f6d"/><path d="M354 154c36-72 116-46 122 10-36-18-74-18-122-10z" fill="#4a2d22"/>
</svg>
