<svg xmlns="http://www.w3.org/2000/svg" viewBox="0 0 800 420" role="img" aria-label="Ilustracion propia de historia y archivo para esta pregunta">
  <defs>
    <linearGradient id="bg" x1="0" x2="1" y1="0" y2="1">
      <stop stop-color="#fff4e4"/>
      <stop offset="1" stop-color="#fff4e4" stop-opacity="0.22"/>
    </linearGradient>
  </defs>
  <rect width="800" height="420" fill="url(#bg)"/>
  <circle cx="182" cy="97" r="94" fill="#15191d" opacity="0.13"/>
  <circle cx="631" cy="173" r="87" fill="#d9cec1" opacity="0.16"/>
  <circle cx="170" cy="64" r="3" fill="#f6bc42" opacity="0.53"/><circle cx="477" cy="153" r="3" fill="#f6bc42" opacity="0.52"/><circle cx="68" cy="243" r="3" fill="#f6bc42" opacity="0.51"/><circle cx="375" cy="332" r="3" fill="#f6bc42" opacity="0.5"/><circle cx="682" cy="79" r="3" fill="#f6bc42" opacity="0.49"/><circle cx="273" cy="168" r="3" fill="#f6bc42" opacity="0.48000000000000004"/><circle cx="580" cy="257" r="3" fill="#f6bc42" opacity="0.47000000000000003"/><circle cx="171" cy="346" r="3" fill="#f6bc42" opacity="0.46"/><circle cx="578" cy="377" r="3" fill="#f6bc42" opacity="0.6100000000000001"/>
  <rect x="148" y="130" width="220" height="210" rx="18" fill="#fffaf4" stroke="#f6bc42" stroke-width="5"/><rect x="182" y="172" width="152" height="12" rx="6" fill="#15191d" opacity=".2"/><rect x="182" y="212" width="120" height="12" rx="6" fill="#15191d" opacity=".2"/><path d="M470 170h210L575 94z" fill="#15191d"/><rect x="500" y="190" width="32" height="120" rx="6" fill="#15191d"/><rect x="560" y="190" width="32" height="120" rx="6" fill="#15191d"/><rect x="620" y="190" width="32" height="120" rx="6" fill="#15191d"/>
</svg>
