<svg xmlns="http://www.w3.org/2000/svg" viewBox="0 0 800 420" role="img" aria-label="Ilustracion propia de idiomas y conversacion para esta pregunta">
  <defs>
    <linearGradient id="bg" x1="0" x2="1" y1="0" y2="1">
      <stop stop-color="#eef7ff"/>
      <stop offset="1" stop-color="#ff4f6d" stop-opacity="0.22"/>
    </linearGradient>
  </defs>
  <rect width="800" height="420" fill="url(#bg)"/>
  <circle cx="565" cy="131" r="65" fill="#315be8" opacity="0.13"/>
  <circle cx="679" cy="213" r="104" fill="#ff4f6d" opacity="0.16"/>
  <circle cx="133" cy="288" r="3" fill="#12b7a6" opacity="0.45000000000000007"/><circle cx="542" cy="199" r="3" fill="#12b7a6" opacity="0.46"/><circle cx="747" cy="124" r="3" fill="#12b7a6" opacity="0.43000000000000005"/><circle cx="440" cy="377" r="3" fill="#12b7a6" opacity="0.44000000000000006"/><circle cx="645" cy="302" r="4" fill="#12b7a6" opacity="0.41000000000000003"/><circle cx="338" cy="213" r="4" fill="#12b7a6" opacity="0.42000000000000004"/><circle cx="543" cy="139" r="4" fill="#12b7a6" opacity="0.39"/><circle cx="236" cy="50" r="4" fill="#12b7a6" opacity="0.4"/><circle cx="441" cy="317" r="4" fill="#12b7a6" opacity="0.37"/>
  <rect x="122" y="92" width="250" height="142" rx="44" fill="#fffaf4" stroke="#315be8" stroke-width="8"/><path d="M198 230l-42 54 92-52" fill="#fffaf4" stroke="#315be8" stroke-width="8" stroke-linejoin="round"/><rect x="428" y="142" width="250" height="142" rx="44" fill="#fffaf4" stroke="#12b7a6" stroke-width="8"/><path d="M602 280l42 54-92-52" fill="#fffaf4" stroke="#12b7a6" stroke-width="8" stroke-linejoin="round"/><path d="M178 158h134M178 196h86M484 208h134M484 246h86" stroke="#15191d" stroke-width="14" stroke-linecap="round" opacity=".2"/>
</svg>
