<svg xmlns="http://www.w3.org/2000/svg" viewBox="0 0 800 420" role="img" aria-label="Ilustracion propia de escenario musical para esta pregunta">
  <defs>
    <linearGradient id="bg" x1="0" x2="1" y1="0" y2="1">
      <stop stop-color="#201525"/>
      <stop offset="1" stop-color="#ff4f6d" stop-opacity="0.22"/>
    </linearGradient>
  </defs>
  <rect width="800" height="420" fill="url(#bg)"/>
  <circle cx="217" cy="71" r="127" fill="#fffaf4" opacity="0.13"/>
  <circle cx="261" cy="134" r="81" fill="#ff4f6d" opacity="0.16"/>
  <circle cx="303" cy="303" r="5" fill="#12b7a6" opacity="0.56"/><circle cx="712" cy="214" r="5" fill="#12b7a6" opacity="0.5700000000000001"/><circle cx="405" cy="124" r="5" fill="#12b7a6" opacity="0.5800000000000001"/><circle cx="98" cy="377" r="5" fill="#12b7a6" opacity="0.5900000000000001"/><circle cx="99" cy="317" r="2" fill="#12b7a6" opacity="0.52"/><circle cx="508" cy="228" r="2" fill="#12b7a6" opacity="0.53"/><circle cx="201" cy="139" r="2" fill="#12b7a6" opacity="0.54"/><circle cx="610" cy="50" r="2" fill="#12b7a6" opacity="0.55"/><circle cx="611" cy="332" r="2" fill="#12b7a6" opacity="0.48000000000000004"/>
  <rect width="800" height="420" fill="#fffaf4"/><path d="M134 0l170 290M666 0L510 290" stroke="#12b7a6" stroke-width="34" opacity=".5"/><rect x="150" y="292" width="500" height="54" rx="20" fill="#ff4f6d" opacity=".9"/><path d="M280 292c26-80 214-80 240 0" fill="none" stroke="#fffaf4" stroke-width="16"/><path d="M410 98v126c0 28-24 50-58 50s-58-22-58-50 24-50 58-50c12 0 23 3 32 8V98z" fill="#ff4f6d"/>
</svg>
