<svg xmlns="http://www.w3.org/2000/svg" viewBox="0 0 800 420" role="img" aria-label="Ilustracion propia de idiomas y conversacion para esta pregunta">
  <defs>
    <linearGradient id="bg" x1="0" x2="1" y1="0" y2="1">
      <stop stop-color="#eef7ff"/>
      <stop offset="1" stop-color="#eef7ff" stop-opacity="0.22"/>
    </linearGradient>
  </defs>
  <rect width="800" height="420" fill="url(#bg)"/>
  <circle cx="675" cy="176" r="90" fill="#315be8" opacity="0.13"/>
  <circle cx="243" cy="326" r="117" fill="#ff4f6d" opacity="0.16"/>
  <circle cx="333" cy="114" r="3" fill="#12b7a6" opacity="0.67"/><circle cx="742" cy="367" r="3" fill="#12b7a6" opacity="0.68"/><circle cx="231" cy="292" r="3" fill="#12b7a6" opacity="0.65"/><circle cx="640" cy="203" r="3" fill="#12b7a6" opacity="0.66"/><circle cx="129" cy="128" r="3" fill="#12b7a6" opacity="0.63"/><circle cx="538" cy="39" r="3" fill="#12b7a6" opacity="0.64"/><circle cx="743" cy="307" r="3" fill="#12b7a6" opacity="0.6100000000000001"/><circle cx="436" cy="217" r="3" fill="#12b7a6" opacity="0.6200000000000001"/><circle cx="741" cy="85" r="3" fill="#12b7a6" opacity="0.30000000000000004"/>
  <rect x="122" y="92" width="250" height="142" rx="44" fill="#fffaf4" stroke="#315be8" stroke-width="8"/><path d="M198 230l-42 54 92-52" fill="#fffaf4" stroke="#315be8" stroke-width="8" stroke-linejoin="round"/><rect x="428" y="142" width="250" height="142" rx="44" fill="#fffaf4" stroke="#12b7a6" stroke-width="8"/><path d="M602 280l42 54-92-52" fill="#fffaf4" stroke="#12b7a6" stroke-width="8" stroke-linejoin="round"/><path d="M178 158h134M178 196h86M484 208h134M484 246h86" stroke="#15191d" stroke-width="14" stroke-linecap="round" opacity=".2"/>
</svg>
