<svg xmlns="http://www.w3.org/2000/svg" viewBox="0 0 800 420" role="img" aria-label="Ilustracion propia de oceano y olas para esta pregunta">
  <defs>
    <linearGradient id="bg" x1="0" x2="1" y1="0" y2="1">
      <stop stop-color="#dff8ff"/>
      <stop offset="1" stop-color="#dff8ff" stop-opacity="0.22"/>
    </linearGradient>
  </defs>
  <rect width="800" height="420" fill="url(#bg)"/>
  <circle cx="452" cy="209" r="130" fill="#12b7a6" opacity="0.13"/>
  <circle cx="365" cy="151" r="122" fill="#315be8" opacity="0.16"/>
  <circle cx="463" cy="115" r="2" fill="#fffaf4" opacity="0.5900000000000001"/><circle cx="156" cy="368" r="2" fill="#fffaf4" opacity="0.6000000000000001"/><circle cx="565" cy="279" r="2" fill="#fffaf4" opacity="0.6100000000000001"/><circle cx="258" cy="190" r="2" fill="#fffaf4" opacity="0.6200000000000001"/><circle cx="667" cy="101" r="2" fill="#fffaf4" opacity="0.63"/><circle cx="360" cy="354" r="2" fill="#fffaf4" opacity="0.64"/><circle cx="53" cy="265" r="2" fill="#fffaf4" opacity="0.65"/><circle cx="462" cy="175" r="2" fill="#fffaf4" opacity="0.66"/><circle cx="155" cy="86" r="2" fill="#fffaf4" opacity="0.67"/>
  <path d="M0 240c88-42 144 42 232 0s144 42 232 0 144 42 232 0 144 42 232 0v180H0z" fill="#fff" opacity=".34"/><path d="M0 296c88-42 144 42 232 0s144 42 232 0 144 42 232 0 144 42 232 0" fill="none" stroke="#fff" stroke-width="18" opacity=".62"/><path d="M142 174c82-44 170-44 252 0" fill="none" stroke="#fff" stroke-width="10" opacity=".45" stroke-linecap="round"/>
</svg>
