<svg xmlns="http://www.w3.org/2000/svg" viewBox="0 0 800 420" role="img" aria-label="Ilustracion propia de escenario musical para esta pregunta">
  <defs>
    <linearGradient id="bg" x1="0" x2="1" y1="0" y2="1">
      <stop stop-color="#201525"/>
      <stop offset="1" stop-color="#12b7a6" stop-opacity="0.22"/>
    </linearGradient>
  </defs>
  <rect width="800" height="420" fill="url(#bg)"/>
  <circle cx="494" cy="85" r="85" fill="#fffaf4" opacity="0.13"/>
  <circle cx="295" cy="172" r="76" fill="#ff4f6d" opacity="0.16"/>
  <circle cx="421" cy="219" r="2" fill="#12b7a6" opacity="0.31000000000000005"/><circle cx="114" cy="130" r="2" fill="#12b7a6" opacity="0.32"/><circle cx="319" cy="55" r="2" fill="#12b7a6" opacity="0.29000000000000004"/><circle cx="728" cy="308" r="2" fill="#12b7a6" opacity="0.30000000000000004"/><circle cx="217" cy="233" r="2" fill="#12b7a6" opacity="0.72"/><circle cx="626" cy="144" r="2" fill="#12b7a6" opacity="0.28"/><circle cx="115" cy="70" r="2" fill="#12b7a6" opacity="0.7"/><circle cx="524" cy="323" r="2" fill="#12b7a6" opacity="0.71"/><circle cx="729" cy="248" r="2" fill="#12b7a6" opacity="0.68"/>
  <rect width="800" height="420" fill="#fffaf4"/><path d="M182 0l170 290M618 0L510 290" stroke="#12b7a6" stroke-width="34" opacity=".5"/><rect x="150" y="292" width="500" height="54" rx="20" fill="#ff4f6d" opacity=".9"/><path d="M280 292c26-80 214-80 240 0" fill="none" stroke="#fffaf4" stroke-width="16"/><path d="M438 98v126c0 28-24 50-58 50s-58-22-58-50 24-50 58-50c12 0 23 3 32 8V98z" fill="#ff4f6d"/>
</svg>
