<svg xmlns="http://www.w3.org/2000/svg" viewBox="0 0 800 420" role="img" aria-label="Ilustracion propia de arte y museo para esta pregunta">
  <defs>
    <linearGradient id="bg" x1="0" x2="1" y1="0" y2="1">
      <stop stop-color="#fff2df"/>
      <stop offset="1" stop-color="#fff2df" stop-opacity="0.22"/>
    </linearGradient>
  </defs>
  <rect width="800" height="420" fill="url(#bg)"/>
  <circle cx="464" cy="203" r="114" fill="#6f4a2d" opacity="0.13"/>
  <circle cx="517" cy="329" r="90" fill="#12b7a6" opacity="0.16"/>
  <circle cx="375" cy="62" r="5" fill="#ff4f6d" opacity="0.6100000000000001"/><circle cx="68" cy="315" r="5" fill="#ff4f6d" opacity="0.6200000000000001"/><circle cx="477" cy="226" r="5" fill="#ff4f6d" opacity="0.63"/><circle cx="170" cy="137" r="4" fill="#ff4f6d" opacity="0.64"/><circle cx="579" cy="48" r="4" fill="#ff4f6d" opacity="0.65"/><circle cx="272" cy="301" r="4" fill="#ff4f6d" opacity="0.66"/><circle cx="681" cy="212" r="4" fill="#ff4f6d" opacity="0.67"/><circle cx="374" cy="122" r="4" fill="#ff4f6d" opacity="0.68"/><circle cx="67" cy="375" r="4" fill="#ff4f6d" opacity="0.69"/>
  <rect x="282" y="54" width="304" height="312" rx="24" fill="#6f4a2d"/><rect x="312" y="84" width="244" height="252" rx="16" fill="#d9c092"/><circle cx="434" cy="178" r="54" fill="#f0c7a5"/><path d="M364 318c12-82 42-120 70-120s58 38 70 120z" fill="#ff4f6d"/><path d="M378 154c36-72 116-46 122 10-36-18-74-18-122-10z" fill="#4a2d22"/>
</svg>
