<svg xmlns="http://www.w3.org/2000/svg" viewBox="0 0 800 420" role="img" aria-label="Ilustracion propia de espacio y planetas para esta pregunta">
  <defs>
    <linearGradient id="bg" x1="0" x2="1" y1="0" y2="1">
      <stop stop-color="#12171a"/>
      <stop offset="1" stop-color="#315be8" stop-opacity="0.22"/>
    </linearGradient>
  </defs>
  <rect width="800" height="420" fill="url(#bg)"/>
  <circle cx="498" cy="172" r="97" fill="#e46b4f" opacity="0.13"/>
  <circle cx="146" cy="147" r="138" fill="#f6bc42" opacity="0.16"/>
  <circle cx="300" cy="168" r="2" fill="#315be8" opacity="0.4"/><circle cx="607" cy="257" r="2" fill="#315be8" opacity="0.39"/><circle cx="402" cy="331" r="2" fill="#315be8" opacity="0.42000000000000004"/><circle cx="709" cy="78" r="2" fill="#315be8" opacity="0.41000000000000003"/><circle cx="504" cy="153" r="2" fill="#315be8" opacity="0.44000000000000006"/><circle cx="95" cy="242" r="2" fill="#315be8" opacity="0.43000000000000005"/><circle cx="374" cy="103" r="2" fill="#315be8" opacity="0.32"/><circle cx="681" cy="192" r="2" fill="#315be8" opacity="0.31000000000000005"/><circle cx="608" cy="197" r="2" fill="#315be8" opacity="0.32"/>
  <rect width="800" height="420" fill="#e46b4f"/><circle cx="354" cy="218" r="84" fill="#f6bc42"/><path d="M230 212c36 14 66-22 112-2" stroke="#8f3327" stroke-width="12" stroke-linecap="round" opacity=".36"/><circle cx="458" cy="196" r="56" fill="#315be8"/><circle cx="580" cy="276" r="32" fill="#fffaf4"/><path d="M176 324c140 46 308 54 476 0" stroke="#fff" stroke-width="5" fill="none" opacity=".38"/>
</svg>
