<svg xmlns="http://www.w3.org/2000/svg" viewBox="0 0 800 420" role="img" aria-label="Ilustracion propia de idiomas y conversacion para esta pregunta">
  <defs>
    <linearGradient id="bg" x1="0" x2="1" y1="0" y2="1">
      <stop stop-color="#eef7ff"/>
      <stop offset="1" stop-color="#315be8" stop-opacity="0.22"/>
    </linearGradient>
  </defs>
  <rect width="800" height="420" fill="url(#bg)"/>
  <circle cx="169" cy="102" r="112" fill="#315be8" opacity="0.13"/>
  <circle cx="555" cy="174" r="90" fill="#ff4f6d" opacity="0.16"/>
  <circle cx="703" cy="359" r="3" fill="#12b7a6" opacity="0.56"/><circle cx="396" cy="270" r="3" fill="#12b7a6" opacity="0.5700000000000001"/><circle cx="89" cy="180" r="3" fill="#12b7a6" opacity="0.5800000000000001"/><circle cx="498" cy="91" r="3" fill="#12b7a6" opacity="0.5900000000000001"/><circle cx="191" cy="344" r="3" fill="#12b7a6" opacity="0.6000000000000001"/><circle cx="600" cy="255" r="3" fill="#12b7a6" opacity="0.6100000000000001"/><circle cx="293" cy="166" r="3" fill="#12b7a6" opacity="0.6200000000000001"/><circle cx="702" cy="77" r="3" fill="#12b7a6" opacity="0.63"/><circle cx="295" cy="46" r="4" fill="#12b7a6" opacity="0.48000000000000004"/>
  <rect x="122" y="92" width="250" height="142" rx="44" fill="#fffaf4" stroke="#315be8" stroke-width="8"/><path d="M198 230l-42 54 92-52" fill="#fffaf4" stroke="#315be8" stroke-width="8" stroke-linejoin="round"/><rect x="428" y="142" width="250" height="142" rx="44" fill="#fffaf4" stroke="#12b7a6" stroke-width="8"/><path d="M602 280l42 54-92-52" fill="#fffaf4" stroke="#12b7a6" stroke-width="8" stroke-linejoin="round"/><path d="M178 158h134M178 196h86M484 208h134M484 246h86" stroke="#15191d" stroke-width="14" stroke-linecap="round" opacity=".2"/>
</svg>
