<svg xmlns="http://www.w3.org/2000/svg" viewBox="0 0 800 420" role="img" aria-label="Ilustracion propia de arte y museo para esta pregunta">
  <defs>
    <linearGradient id="bg" x1="0" x2="1" y1="0" y2="1">
      <stop stop-color="#fff2df"/>
      <stop offset="1" stop-color="#12b7a6" stop-opacity="0.22"/>
    </linearGradient>
  </defs>
  <rect width="800" height="420" fill="url(#bg)"/>
  <circle cx="621" cy="128" r="127" fill="#6f4a2d" opacity="0.13"/>
  <circle cx="161" cy="213" r="101" fill="#12b7a6" opacity="0.16"/>
  <circle cx="67" cy="90" r="4" fill="#ff4f6d" opacity="0.72"/><circle cx="476" cy="342" r="4" fill="#ff4f6d" opacity="0.28"/><circle cx="169" cy="253" r="4" fill="#ff4f6d" opacity="0.29000000000000004"/><circle cx="578" cy="164" r="4" fill="#ff4f6d" opacity="0.30000000000000004"/><circle cx="579" cy="104" r="4" fill="#ff4f6d" opacity="0.68"/><circle cx="272" cy="357" r="4" fill="#ff4f6d" opacity="0.69"/><circle cx="681" cy="268" r="4" fill="#ff4f6d" opacity="0.7"/><circle cx="374" cy="179" r="4" fill="#ff4f6d" opacity="0.71"/><circle cx="475" cy="60" r="4" fill="#ff4f6d" opacity="0.35000000000000003"/>
  <rect x="246" y="54" width="304" height="312" rx="24" fill="#6f4a2d"/><rect x="276" y="84" width="244" height="252" rx="16" fill="#d9c092"/><circle cx="398" cy="178" r="54" fill="#f0c7a5"/><path d="M328 318c12-82 42-120 70-120s58 38 70 120z" fill="#ff4f6d"/><path d="M342 154c36-72 116-46 122 10-36-18-74-18-122-10z" fill="#4a2d22"/>
</svg>
