<svg xmlns="http://www.w3.org/2000/svg" viewBox="0 0 800 420" role="img" aria-label="Ilustracion propia de arte y museo para esta pregunta">
  <defs>
    <linearGradient id="bg" x1="0" x2="1" y1="0" y2="1">
      <stop stop-color="#fff2df"/>
      <stop offset="1" stop-color="#fff2df" stop-opacity="0.22"/>
    </linearGradient>
  </defs>
  <rect width="800" height="420" fill="url(#bg)"/>
  <circle cx="337" cy="338" r="102" fill="#6f4a2d" opacity="0.13"/>
  <circle cx="576" cy="203" r="88" fill="#12b7a6" opacity="0.16"/>
  <circle cx="734" cy="181" r="4" fill="#ff4f6d" opacity="0.31000000000000005"/><circle cx="325" cy="270" r="4" fill="#ff4f6d" opacity="0.30000000000000004"/><circle cx="632" cy="359" r="4" fill="#ff4f6d" opacity="0.29000000000000004"/><circle cx="223" cy="106" r="5" fill="#ff4f6d" opacity="0.28"/><circle cx="530" cy="196" r="5" fill="#ff4f6d" opacity="0.72"/><circle cx="121" cy="285" r="5" fill="#ff4f6d" opacity="0.71"/><circle cx="428" cy="374" r="5" fill="#ff4f6d" opacity="0.7"/><circle cx="735" cy="121" r="5" fill="#ff4f6d" opacity="0.69"/><circle cx="326" cy="210" r="5" fill="#ff4f6d" opacity="0.68"/>
  <rect x="258" y="54" width="304" height="312" rx="24" fill="#6f4a2d"/><rect x="288" y="84" width="244" height="252" rx="16" fill="#d9c092"/><circle cx="410" cy="178" r="54" fill="#f0c7a5"/><path d="M340 318c12-82 42-120 70-120s58 38 70 120z" fill="#ff4f6d"/><path d="M354 154c36-72 116-46 122 10-36-18-74-18-122-10z" fill="#4a2d22"/>
</svg>
