<svg xmlns="http://www.w3.org/2000/svg" viewBox="0 0 800 420" role="img" aria-label="Ilustracion propia de oceano y olas para esta pregunta">
  <defs>
    <linearGradient id="bg" x1="0" x2="1" y1="0" y2="1">
      <stop stop-color="#dff8ff"/>
      <stop offset="1" stop-color="#dff8ff" stop-opacity="0.22"/>
    </linearGradient>
  </defs>
  <rect width="800" height="420" fill="url(#bg)"/>
  <circle cx="596" cy="179" r="112" fill="#12b7a6" opacity="0.13"/>
  <circle cx="533" cy="219" r="110" fill="#315be8" opacity="0.16"/>
  <circle cx="723" cy="120" r="3" fill="#fffaf4" opacity="0.72"/><circle cx="416" cy="373" r="3" fill="#fffaf4" opacity="0.28"/><circle cx="109" cy="284" r="3" fill="#fffaf4" opacity="0.29000000000000004"/><circle cx="518" cy="195" r="3" fill="#fffaf4" opacity="0.30000000000000004"/><circle cx="211" cy="106" r="3" fill="#fffaf4" opacity="0.31000000000000005"/><circle cx="620" cy="359" r="3" fill="#fffaf4" opacity="0.32"/><circle cx="313" cy="269" r="3" fill="#fffaf4" opacity="0.33"/><circle cx="722" cy="180" r="3" fill="#fffaf4" opacity="0.34"/><circle cx="315" cy="149" r="3" fill="#fffaf4" opacity="0.64"/>
  <path d="M0 240c88-42 144 42 232 0s144 42 232 0 144 42 232 0 144 42 232 0v180H0z" fill="#fff" opacity=".34"/><path d="M0 286c88-42 144 42 232 0s144 42 232 0 144 42 232 0 144 42 232 0" fill="none" stroke="#fff" stroke-width="18" opacity=".62"/><path d="M142 174c82-44 170-44 252 0" fill="none" stroke="#fff" stroke-width="10" opacity=".45" stroke-linecap="round"/>
</svg>
