<svg xmlns="http://www.w3.org/2000/svg" viewBox="0 0 800 420" role="img" aria-label="Ilustracion propia de mapa y geografia para esta pregunta">
  <defs>
    <linearGradient id="bg" x1="0" x2="1" y1="0" y2="1">
      <stop stop-color="#eaf9f6"/>
      <stop offset="1" stop-color="#eaf9f6" stop-opacity="0.22"/>
    </linearGradient>
  </defs>
  <rect width="800" height="420" fill="url(#bg)"/>
  <circle cx="403" cy="245" r="74" fill="#fffaf4" opacity="0.13"/>
  <circle cx="134" cy="335" r="65" fill="#12b7a6" opacity="0.16"/>
  <circle cx="429" cy="107" r="3" fill="#ff4f6d" opacity="0.28"/><circle cx="122" cy="359" r="3" fill="#ff4f6d" opacity="0.29000000000000004"/><circle cx="327" cy="285" r="4" fill="#ff4f6d" opacity="0.71"/><circle cx="736" cy="196" r="4" fill="#ff4f6d" opacity="0.72"/><circle cx="225" cy="121" r="4" fill="#ff4f6d" opacity="0.69"/><circle cx="634" cy="374" r="4" fill="#ff4f6d" opacity="0.7"/><circle cx="123" cy="299" r="4" fill="#ff4f6d" opacity="0.67"/><circle cx="532" cy="210" r="4" fill="#ff4f6d" opacity="0.68"/><circle cx="121" cy="77" r="3" fill="#ff4f6d" opacity="0.36000000000000004"/>
  <path d="M100 84l170-42 160 50 170-42 100 42v244l-170 42-160-50-170 42-100-42z" fill="#12b7a6" stroke="#15191d" stroke-width="5" opacity=".94"/><path d="M270 42v286M430 92v286M600 50v286" stroke="#15191d" stroke-width="4" opacity=".16"/><path d="M126 168c80 22 106-36 176-8 72 28 94 88 182 48 86-40 128-8 184 44" fill="none" stroke="#ff4f6d" stroke-width="14" stroke-linecap="round"/><path d="M500 140c0 36-38 70-38 70s-38-34-38-70a38 38 0 0176 0z" fill="#fffaf4"/>
</svg>
