<svg xmlns="http://www.w3.org/2000/svg" viewBox="0 0 800 420" role="img" aria-label="Ilustracion propia de arte y museo para esta pregunta">
  <defs>
    <linearGradient id="bg" x1="0" x2="1" y1="0" y2="1">
      <stop stop-color="#fff2df"/>
      <stop offset="1" stop-color="#12b7a6" stop-opacity="0.22"/>
    </linearGradient>
  </defs>
  <rect width="800" height="420" fill="url(#bg)"/>
  <circle cx="98" cy="328" r="119" fill="#6f4a2d" opacity="0.13"/>
  <circle cx="546" cy="345" r="90" fill="#12b7a6" opacity="0.16"/>
  <circle cx="651" cy="70" r="5" fill="#ff4f6d" opacity="0.7"/><circle cx="344" cy="323" r="5" fill="#ff4f6d" opacity="0.71"/><circle cx="753" cy="234" r="5" fill="#ff4f6d" opacity="0.72"/><circle cx="446" cy="145" r="5" fill="#ff4f6d" opacity="0.28"/><circle cx="447" cy="85" r="5" fill="#ff4f6d" opacity="0.66"/><circle cx="140" cy="338" r="5" fill="#ff4f6d" opacity="0.67"/><circle cx="549" cy="248" r="5" fill="#ff4f6d" opacity="0.68"/><circle cx="242" cy="159" r="5" fill="#ff4f6d" opacity="0.69"/><circle cx="243" cy="99" r="5" fill="#ff4f6d" opacity="0.6200000000000001"/>
  <rect x="270" y="54" width="304" height="312" rx="24" fill="#6f4a2d"/><rect x="300" y="84" width="244" height="252" rx="16" fill="#d9c092"/><circle cx="422" cy="178" r="54" fill="#f0c7a5"/><path d="M352 318c12-82 42-120 70-120s58 38 70 120z" fill="#ff4f6d"/><path d="M366 154c36-72 116-46 122 10-36-18-74-18-122-10z" fill="#4a2d22"/>
</svg>
