<svg xmlns="http://www.w3.org/2000/svg" viewBox="0 0 800 420" role="img" aria-label="Ilustracion propia de mapa y geografia para esta pregunta">
  <defs>
    <linearGradient id="bg" x1="0" x2="1" y1="0" y2="1">
      <stop stop-color="#eaf9f6"/>
      <stop offset="1" stop-color="#12b7a6" stop-opacity="0.22"/>
    </linearGradient>
  </defs>
  <rect width="800" height="420" fill="url(#bg)"/>
  <circle cx="278" cy="298" r="75" fill="#fffaf4" opacity="0.13"/>
  <circle cx="193" cy="270" r="85" fill="#12b7a6" opacity="0.16"/>
  <circle cx="362" cy="211" r="5" fill="#ff4f6d" opacity="0.66"/><circle cx="669" cy="300" r="5" fill="#ff4f6d" opacity="0.65"/><circle cx="260" cy="47" r="5" fill="#ff4f6d" opacity="0.64"/><circle cx="567" cy="137" r="5" fill="#ff4f6d" opacity="0.63"/><circle cx="566" cy="197" r="5" fill="#ff4f6d" opacity="0.7"/><circle cx="157" cy="286" r="5" fill="#ff4f6d" opacity="0.69"/><circle cx="464" cy="375" r="5" fill="#ff4f6d" opacity="0.68"/><circle cx="55" cy="122" r="5" fill="#ff4f6d" opacity="0.67"/><circle cx="54" cy="182" r="5" fill="#ff4f6d" opacity="0.29000000000000004"/>
  <path d="M100 84l170-42 160 50 170-42 100 42v244l-170 42-160-50-170 42-100-42z" fill="#12b7a6" stroke="#15191d" stroke-width="5" opacity=".94"/><path d="M270 42v286M430 92v286M600 50v286" stroke="#15191d" stroke-width="4" opacity=".16"/><path d="M126 168c80 22 106-36 176-8 72 28 94 88 182 48 86-40 128-8 184 44" fill="none" stroke="#ff4f6d" stroke-width="14" stroke-linecap="round"/><path d="M500 140c0 36-38 70-38 70s-38-34-38-70a38 38 0 0176 0z" fill="#fffaf4"/>
</svg>
