<svg xmlns="http://www.w3.org/2000/svg" viewBox="0 0 800 420" role="img" aria-label="Ilustracion propia de espacio y planetas para esta pregunta">
  <defs>
    <linearGradient id="bg" x1="0" x2="1" y1="0" y2="1">
      <stop stop-color="#12171a"/>
      <stop offset="1" stop-color="#e46b4f" stop-opacity="0.22"/>
    </linearGradient>
  </defs>
  <rect width="800" height="420" fill="url(#bg)"/>
  <circle cx="279" cy="118" r="132" fill="#e46b4f" opacity="0.13"/>
  <circle cx="643" cy="247" r="132" fill="#f6bc42" opacity="0.16"/>
  <circle cx="392" cy="239" r="5" fill="#315be8" opacity="0.29000000000000004"/><circle cx="699" cy="329" r="5" fill="#315be8" opacity="0.28"/><circle cx="494" cy="61" r="5" fill="#315be8" opacity="0.31000000000000005"/><circle cx="85" cy="150" r="5" fill="#315be8" opacity="0.30000000000000004"/><circle cx="188" cy="254" r="2" fill="#315be8" opacity="0.7"/><circle cx="495" cy="343" r="2" fill="#315be8" opacity="0.69"/><circle cx="290" cy="76" r="2" fill="#315be8" opacity="0.72"/><circle cx="597" cy="165" r="2" fill="#315be8" opacity="0.71"/><circle cx="84" cy="210" r="5" fill="#315be8" opacity="0.37"/>
  <rect width="800" height="420" fill="#e46b4f"/><circle cx="388" cy="218" r="91" fill="#f6bc42"/><path d="M230 212c36 14 66-22 112-2" stroke="#8f3327" stroke-width="12" stroke-linecap="round" opacity=".36"/><circle cx="432" cy="214" r="60" fill="#315be8"/><circle cx="600" cy="276" r="32" fill="#fffaf4"/><path d="M176 324c140 46 308 54 476 0" stroke="#fff" stroke-width="5" fill="none" opacity=".38"/>
</svg>
