<svg xmlns="http://www.w3.org/2000/svg" viewBox="0 0 800 420" role="img" aria-label="Ilustracion propia de oceano y olas para esta pregunta">
  <defs>
    <linearGradient id="bg" x1="0" x2="1" y1="0" y2="1">
      <stop stop-color="#dff8ff"/>
      <stop offset="1" stop-color="#dff8ff" stop-opacity="0.22"/>
    </linearGradient>
  </defs>
  <rect width="800" height="420" fill="url(#bg)"/>
  <circle cx="647" cy="334" r="120" fill="#12b7a6" opacity="0.13"/>
  <circle cx="689" cy="274" r="91" fill="#315be8" opacity="0.16"/>
  <circle cx="497" cy="43" r="5" fill="#fffaf4" opacity="0.71"/><circle cx="190" cy="296" r="5" fill="#fffaf4" opacity="0.72"/><circle cx="395" cy="221" r="5" fill="#fffaf4" opacity="0.69"/><circle cx="88" cy="132" r="5" fill="#fffaf4" opacity="0.7"/><circle cx="293" cy="58" r="5" fill="#fffaf4" opacity="0.67"/><circle cx="702" cy="311" r="5" fill="#fffaf4" opacity="0.68"/><circle cx="191" cy="236" r="2" fill="#fffaf4" opacity="0.65"/><circle cx="600" cy="147" r="5" fill="#fffaf4" opacity="0.66"/><circle cx="89" cy="72" r="2" fill="#fffaf4" opacity="0.63"/>
  <path d="M0 240c88-42 144 42 232 0s144 42 232 0 144 42 232 0 144 42 232 0v180H0z" fill="#fff" opacity=".34"/><path d="M0 296c88-42 144 42 232 0s144 42 232 0 144 42 232 0 144 42 232 0" fill="none" stroke="#fff" stroke-width="18" opacity=".62"/><path d="M142 174c82-44 170-44 252 0" fill="none" stroke="#fff" stroke-width="10" opacity=".45" stroke-linecap="round"/>
</svg>
