<svg xmlns="http://www.w3.org/2000/svg" viewBox="0 0 800 420" role="img" aria-label="Ilustracion propia de tecnologia para esta pregunta">
  <defs>
    <linearGradient id="bg" x1="0" x2="1" y1="0" y2="1">
      <stop stop-color="#111820"/>
      <stop offset="1" stop-color="#111820" stop-opacity="0.22"/>
    </linearGradient>
  </defs>
  <rect width="800" height="420" fill="url(#bg)"/>
  <circle cx="209" cy="166" r="102" fill="#fffaf4" opacity="0.13"/>
  <circle cx="560" cy="218" r="118" fill="#315be8" opacity="0.16"/>
  <circle cx="573" cy="46" r="5" fill="#12b7a6" opacity="0.51"/><circle cx="266" cy="299" r="5" fill="#12b7a6" opacity="0.52"/><circle cx="471" cy="224" r="5" fill="#12b7a6" opacity="0.49"/><circle cx="164" cy="135" r="5" fill="#12b7a6" opacity="0.5"/><circle cx="61" cy="373" r="5" fill="#12b7a6" opacity="0.55"/><circle cx="470" cy="284" r="5" fill="#12b7a6" opacity="0.56"/><circle cx="675" cy="210" r="5" fill="#12b7a6" opacity="0.53"/><circle cx="368" cy="120" r="5" fill="#12b7a6" opacity="0.54"/><circle cx="265" cy="359" r="5" fill="#12b7a6" opacity="0.5900000000000001"/>
  <rect width="800" height="420" fill="#fffaf4"/><rect x="108" y="72" width="584" height="276" rx="28" fill="#315be8"/><rect x="108" y="72" width="584" height="58" rx="28" fill="#12b7a6"/><path d="M246 206l-62 44 62 44M554 206l62 44-62 44" stroke="#fffaf4" stroke-width="20" stroke-linecap="round" stroke-linejoin="round" fill="none"/><path d="M364 306l72-184" stroke="#12b7a6" stroke-width="18" stroke-linecap="round"/>
</svg>
