<svg xmlns="http://www.w3.org/2000/svg" viewBox="0 0 800 420" role="img" aria-label="Ilustracion propia de espacio y planetas para esta pregunta">
  <defs>
    <linearGradient id="bg" x1="0" x2="1" y1="0" y2="1">
      <stop stop-color="#12171a"/>
      <stop offset="1" stop-color="#f6bc42" stop-opacity="0.22"/>
    </linearGradient>
  </defs>
  <rect width="800" height="420" fill="url(#bg)"/>
  <circle cx="657" cy="264" r="93" fill="#e46b4f" opacity="0.13"/>
  <circle cx="241" cy="123" r="97" fill="#f6bc42" opacity="0.16"/>
  <circle cx="173" cy="103" r="5" fill="#315be8" opacity="0.56"/><circle cx="582" cy="355" r="5" fill="#315be8" opacity="0.5700000000000001"/><circle cx="71" cy="281" r="5" fill="#315be8" opacity="0.54"/><circle cx="480" cy="192" r="5" fill="#315be8" opacity="0.55"/><circle cx="685" cy="117" r="5" fill="#315be8" opacity="0.52"/><circle cx="378" cy="370" r="5" fill="#315be8" opacity="0.53"/><circle cx="583" cy="295" r="2" fill="#315be8" opacity="0.5"/><circle cx="276" cy="206" r="2" fill="#315be8" opacity="0.51"/><circle cx="581" cy="73" r="5" fill="#315be8" opacity="0.64"/>
  <rect width="800" height="420" fill="#e46b4f"/><circle cx="320" cy="218" r="77" fill="#f6bc42"/><path d="M230 212c36 14 66-22 112-2" stroke="#8f3327" stroke-width="12" stroke-linecap="round" opacity=".36"/><circle cx="484" cy="178" r="52" fill="#315be8"/><circle cx="560" cy="276" r="32" fill="#fffaf4"/><path d="M176 324c140 46 308 54 476 0" stroke="#fff" stroke-width="5" fill="none" opacity=".38"/>
</svg>
