<svg xmlns="http://www.w3.org/2000/svg" viewBox="0 0 800 420" role="img" aria-label="Ilustracion propia de estadio y futbol generico para esta pregunta">
  <defs>
    <linearGradient id="bg" x1="0" x2="1" y1="0" y2="1">
      <stop stop-color="#eaf8f5"/>
      <stop offset="1" stop-color="#15191d" stop-opacity="0.22"/>
    </linearGradient>
  </defs>
  <rect width="800" height="420" fill="url(#bg)"/>
  <circle cx="105" cy="262" r="69" fill="#26b99f" opacity="0.13"/>
  <circle cx="472" cy="87" r="74" fill="#f6bc42" opacity="0.16"/>
  <circle cx="414" cy="46" r="3" fill="#15191d" opacity="0.7"/><circle cx="721" cy="135" r="3" fill="#15191d" opacity="0.69"/><circle cx="312" cy="224" r="3" fill="#15191d" opacity="0.68"/><circle cx="619" cy="313" r="3" fill="#15191d" opacity="0.67"/><circle cx="618" cy="373" r="3" fill="#15191d" opacity="0.29000000000000004"/><circle cx="209" cy="120" r="3" fill="#15191d" opacity="0.28"/><circle cx="516" cy="209" r="3" fill="#15191d" opacity="0.72"/><circle cx="107" cy="298" r="3" fill="#15191d" opacity="0.71"/><circle cx="106" cy="358" r="3" fill="#15191d" opacity="0.33"/>
  <path d="M92 270c130-94 486-94 616 0v92H92z" fill="#26b99f" opacity=".9"/><path d="M150 270c102-54 398-54 500 0" fill="none" stroke="#fff" stroke-width="14" opacity=".64"/><rect x="165" y="304" width="470" height="62" rx="16" fill="#f6bc42"/><path d="M400 304v62M165 335h470" stroke="#fff" stroke-width="4" opacity=".65"/><path d="M400 110l18 45h48l-38 29 14 48-42-28-42 28 14-48-38-29h48z" fill="#15191d"/>
</svg>
