<svg xmlns="http://www.w3.org/2000/svg" viewBox="0 0 800 420" role="img" aria-label="Ilustracion propia de estadio y futbol generico para esta pregunta">
  <defs>
    <linearGradient id="bg" x1="0" x2="1" y1="0" y2="1">
      <stop stop-color="#eaf8f5"/>
      <stop offset="1" stop-color="#f6bc42" stop-opacity="0.22"/>
    </linearGradient>
  </defs>
  <rect width="800" height="420" fill="url(#bg)"/>
  <circle cx="560" cy="312" r="79" fill="#26b99f" opacity="0.13"/>
  <circle cx="529" cy="129" r="85" fill="#f6bc42" opacity="0.16"/>
  <circle cx="175" cy="92" r="2" fill="#15191d" opacity="0.68"/><circle cx="584" cy="345" r="2" fill="#15191d" opacity="0.69"/><circle cx="277" cy="256" r="2" fill="#15191d" opacity="0.7"/><circle cx="686" cy="166" r="2" fill="#15191d" opacity="0.71"/><circle cx="379" cy="77" r="2" fill="#15191d" opacity="0.72"/><circle cx="72" cy="330" r="2" fill="#15191d" opacity="0.28"/><circle cx="481" cy="241" r="2" fill="#15191d" opacity="0.29000000000000004"/><circle cx="174" cy="152" r="2" fill="#15191d" opacity="0.30000000000000004"/><circle cx="583" cy="63" r="2" fill="#15191d" opacity="0.31000000000000005"/>
  <rect x="118" y="78" width="564" height="264" rx="26" fill="#f6bc42"/><path d="M400 78v264M118 210h564" stroke="#fff" stroke-width="7" opacity=".76"/><circle cx="400" cy="210" r="58" fill="none" stroke="#fff" stroke-width="7" opacity=".76"/><circle cx="372" cy="236" r="32" fill="#fff"/><path d="M340 236h64M372 204v64" stroke="#26b99f" stroke-width="5" opacity=".5"/>
</svg>
