<svg xmlns="http://www.w3.org/2000/svg" viewBox="0 0 800 420" role="img" aria-label="Ilustracion propia de circuito de velocidad para esta pregunta">
  <defs>
    <linearGradient id="bg" x1="0" x2="1" y1="0" y2="1">
      <stop stop-color="#e7f8ff"/>
      <stop offset="1" stop-color="#315be8" stop-opacity="0.22"/>
    </linearGradient>
  </defs>
  <rect width="800" height="420" fill="url(#bg)"/>
  <circle cx="446" cy="80" r="99" fill="#15191d" opacity="0.13"/>
  <circle cx="289" cy="171" r="88" fill="#ff4f6d" opacity="0.16"/>
  <circle cx="438" cy="55" r="5" fill="#315be8" opacity="0.7"/><circle cx="745" cy="144" r="5" fill="#315be8" opacity="0.69"/><circle cx="336" cy="233" r="5" fill="#315be8" opacity="0.68"/><circle cx="643" cy="322" r="5" fill="#315be8" opacity="0.67"/><circle cx="642" cy="40" r="5" fill="#315be8" opacity="0.29000000000000004"/><circle cx="233" cy="129" r="5" fill="#315be8" opacity="0.28"/><circle cx="540" cy="218" r="5" fill="#315be8" opacity="0.72"/><circle cx="131" cy="307" r="5" fill="#315be8" opacity="0.71"/><circle cx="130" cy="367" r="5" fill="#315be8" opacity="0.33"/>
  <path d="M98 300c110-170 248-42 350-120 60-46 118-84 210-28 66 40 54 132-26 152-96 24-160-50-246-24-100 30-152 94-288 20z" fill="none" stroke="#15191d" stroke-width="40" stroke-linecap="round"/><path d="M98 300c110-170 248-42 350-120 60-46 118-84 210-28 66 40 54 132-26 152-96 24-160-50-246-24-100 30-152 94-288 20z" fill="none" stroke="#fff" stroke-width="7" stroke-dasharray="24 22" stroke-linecap="round"/><rect x="280" y="250" width="150" height="42" rx="18" fill="#315be8"/><path d="M308 250l34-34h52l24 34z" fill="#fffaf4"/>
</svg>
