<svg xmlns="http://www.w3.org/2000/svg" viewBox="0 0 800 420" role="img" aria-label="Ilustracion propia de circuito de velocidad para esta pregunta">
  <defs>
    <linearGradient id="bg" x1="0" x2="1" y1="0" y2="1">
      <stop stop-color="#e7f8ff"/>
      <stop offset="1" stop-color="#15191d" stop-opacity="0.22"/>
    </linearGradient>
  </defs>
  <rect width="800" height="420" fill="url(#bg)"/>
  <circle cx="352" cy="268" r="74" fill="#15191d" opacity="0.13"/>
  <circle cx="203" cy="159" r="75" fill="#ff4f6d" opacity="0.16"/>
  <circle cx="624" cy="91" r="4" fill="#315be8" opacity="0.38"/><circle cx="215" cy="180" r="4" fill="#315be8" opacity="0.37"/><circle cx="726" cy="255" r="4" fill="#315be8" opacity="0.4"/><circle cx="317" cy="344" r="4" fill="#315be8" opacity="0.39"/><circle cx="420" cy="106" r="4" fill="#315be8" opacity="0.34"/><circle cx="727" cy="195" r="4" fill="#315be8" opacity="0.33"/><circle cx="522" cy="269" r="4" fill="#315be8" opacity="0.36000000000000004"/><circle cx="113" cy="358" r="4" fill="#315be8" opacity="0.35000000000000003"/><circle cx="316" cy="62" r="4" fill="#315be8" opacity="0.46"/>
  <path d="M98 300c110-170 248-42 350-120 60-46 118-84 210-28 66 40 54 132-26 152-96 24-160-50-246-24-100 30-152 94-288 20z" fill="none" stroke="#15191d" stroke-width="43" stroke-linecap="round"/><path d="M98 300c110-170 248-42 350-120 60-46 118-84 210-28 66 40 54 132-26 152-96 24-160-50-246-24-100 30-152 94-288 20z" fill="none" stroke="#fff" stroke-width="7" stroke-dasharray="24 22" stroke-linecap="round"/><rect x="304" y="250" width="150" height="42" rx="18" fill="#315be8"/><path d="M332 250l34-34h52l24 34z" fill="#fffaf4"/>
</svg>
