<svg xmlns="http://www.w3.org/2000/svg" viewBox="0 0 800 420" role="img" aria-label="Ilustracion propia de circuito de velocidad para esta pregunta">
  <defs>
    <linearGradient id="bg" x1="0" x2="1" y1="0" y2="1">
      <stop stop-color="#e7f8ff"/>
      <stop offset="1" stop-color="#e7f8ff" stop-opacity="0.22"/>
    </linearGradient>
  </defs>
  <rect width="800" height="420" fill="url(#bg)"/>
  <circle cx="147" cy="116" r="118" fill="#15191d" opacity="0.13"/>
  <circle cx="177" cy="140" r="90" fill="#ff4f6d" opacity="0.16"/>
  <circle cx="160" cy="335" r="5" fill="#315be8" opacity="0.53"/><circle cx="467" cy="82" r="5" fill="#315be8" opacity="0.52"/><circle cx="262" cy="157" r="5" fill="#315be8" opacity="0.55"/><circle cx="569" cy="246" r="5" fill="#315be8" opacity="0.54"/><circle cx="364" cy="320" r="5" fill="#315be8" opacity="0.5700000000000001"/><circle cx="671" cy="68" r="5" fill="#315be8" opacity="0.56"/><circle cx="466" cy="142" r="5" fill="#315be8" opacity="0.5900000000000001"/><circle cx="57" cy="231" r="5" fill="#315be8" opacity="0.5800000000000001"/><circle cx="468" cy="364" r="2" fill="#315be8" opacity="0.45000000000000007"/>
  <path d="M98 300c110-170 248-42 350-120 60-46 118-84 210-28 66 40 54 132-26 152-96 24-160-50-246-24-100 30-152 94-288 20z" fill="none" stroke="#15191d" stroke-width="43" stroke-linecap="round"/><path d="M98 300c110-170 248-42 350-120 60-46 118-84 210-28 66 40 54 132-26 152-96 24-160-50-246-24-100 30-152 94-288 20z" fill="none" stroke="#fff" stroke-width="7" stroke-dasharray="24 22" stroke-linecap="round"/><rect x="304" y="250" width="150" height="42" rx="18" fill="#315be8"/><path d="M332 250l34-34h52l24 34z" fill="#fffaf4"/>
</svg>
