<svg xmlns="http://www.w3.org/2000/svg" viewBox="0 0 800 420" role="img" aria-label="Ilustracion propia de arte y museo para esta pregunta">
  <defs>
    <linearGradient id="bg" x1="0" x2="1" y1="0" y2="1">
      <stop stop-color="#fff2df"/>
      <stop offset="1" stop-color="#ff4f6d" stop-opacity="0.22"/>
    </linearGradient>
  </defs>
  <rect width="800" height="420" fill="url(#bg)"/>
  <circle cx="569" cy="247" r="67" fill="#6f4a2d" opacity="0.13"/>
  <circle cx="455" cy="120" r="94" fill="#12b7a6" opacity="0.16"/>
  <circle cx="608" cy="257" r="3" fill="#ff4f6d" opacity="0.6200000000000001"/><circle cx="199" cy="346" r="3" fill="#ff4f6d" opacity="0.6100000000000001"/><circle cx="710" cy="79" r="3" fill="#ff4f6d" opacity="0.64"/><circle cx="301" cy="168" r="3" fill="#ff4f6d" opacity="0.63"/><circle cx="404" cy="272" r="3" fill="#ff4f6d" opacity="0.5800000000000001"/><circle cx="711" cy="361" r="3" fill="#ff4f6d" opacity="0.5700000000000001"/><circle cx="506" cy="93" r="3" fill="#ff4f6d" opacity="0.6000000000000001"/><circle cx="97" cy="183" r="3" fill="#ff4f6d" opacity="0.5900000000000001"/><circle cx="300" cy="228" r="3" fill="#ff4f6d" opacity="0.7"/>
  <rect x="282" y="54" width="304" height="312" rx="24" fill="#6f4a2d"/><rect x="312" y="84" width="244" height="252" rx="16" fill="#d9c092"/><circle cx="434" cy="178" r="54" fill="#f0c7a5"/><path d="M364 318c12-82 42-120 70-120s58 38 70 120z" fill="#ff4f6d"/><path d="M378 154c36-72 116-46 122 10-36-18-74-18-122-10z" fill="#4a2d22"/>
</svg>
