<svg xmlns="http://www.w3.org/2000/svg" viewBox="0 0 800 420" role="img" aria-label="Ilustracion propia de cancha de baloncesto para esta pregunta">
  <defs>
    <linearGradient id="bg" x1="0" x2="1" y1="0" y2="1">
      <stop stop-color="#fff1df"/>
      <stop offset="1" stop-color="#fff1df" stop-opacity="0.22"/>
    </linearGradient>
  </defs>
  <rect width="800" height="420" fill="url(#bg)"/>
  <circle cx="268" cy="182" r="132" fill="#f6bc42" opacity="0.13"/>
  <circle cx="417" cy="255" r="102" fill="#d95a35" opacity="0.16"/>
  <circle cx="65" cy="172" r="4" fill="#15191d" opacity="0.44000000000000006"/><circle cx="474" cy="83" r="4" fill="#15191d" opacity="0.45000000000000007"/><circle cx="679" cy="350" r="4" fill="#15191d" opacity="0.42000000000000004"/><circle cx="372" cy="261" r="4" fill="#15191d" opacity="0.43000000000000005"/><circle cx="577" cy="187" r="4" fill="#15191d" opacity="0.4"/><circle cx="270" cy="97" r="4" fill="#15191d" opacity="0.41000000000000003"/><circle cx="475" cy="365" r="5" fill="#15191d" opacity="0.38"/><circle cx="168" cy="276" r="5" fill="#15191d" opacity="0.39"/><circle cx="473" cy="143" r="4" fill="#15191d" opacity="0.52"/>
  <rect x="76" y="58" width="648" height="304" rx="30" fill="#d95a35"/><path d="M100 210h600M400 58v304" stroke="#fffaf4" stroke-width="8" opacity=".8"/><circle cx="400" cy="210" r="66" fill="none" stroke="#fffaf4" stroke-width="8" opacity=".8"/><circle cx="348" cy="198" r="42" fill="#15191d"/><path d="M306 198h84M348 156v84" stroke="#f6bc42" stroke-width="5" fill="none"/>
</svg>
