<svg xmlns="http://www.w3.org/2000/svg" viewBox="0 0 800 420" role="img" aria-label="Ilustracion propia de circuito de velocidad para esta pregunta">
  <defs>
    <linearGradient id="bg" x1="0" x2="1" y1="0" y2="1">
      <stop stop-color="#e7f8ff"/>
      <stop offset="1" stop-color="#e7f8ff" stop-opacity="0.22"/>
    </linearGradient>
  </defs>
  <rect width="800" height="420" fill="url(#bg)"/>
  <circle cx="459" cy="297" r="74" fill="#15191d" opacity="0.13"/>
  <circle cx="141" cy="270" r="115" fill="#ff4f6d" opacity="0.16"/>
  <circle cx="217" cy="310" r="5" fill="#315be8" opacity="0.63"/><circle cx="626" cy="221" r="5" fill="#315be8" opacity="0.64"/><circle cx="115" cy="147" r="5" fill="#315be8" opacity="0.6100000000000001"/><circle cx="524" cy="57" r="5" fill="#315be8" opacity="0.6200000000000001"/><circle cx="729" cy="325" r="5" fill="#315be8" opacity="0.5900000000000001"/><circle cx="422" cy="236" r="5" fill="#315be8" opacity="0.6000000000000001"/><circle cx="627" cy="161" r="5" fill="#315be8" opacity="0.5700000000000001"/><circle cx="320" cy="72" r="5" fill="#315be8" opacity="0.5800000000000001"/><circle cx="525" cy="339" r="5" fill="#315be8" opacity="0.55"/>
  <path d="M98 300c110-170 248-42 350-120 60-46 118-84 210-28 66 40 54 132-26 152-96 24-160-50-246-24-100 30-152 94-288 20z" fill="none" stroke="#15191d" stroke-width="49" stroke-linecap="round"/><path d="M98 300c110-170 248-42 350-120 60-46 118-84 210-28 66 40 54 132-26 152-96 24-160-50-246-24-100 30-152 94-288 20z" fill="none" stroke="#fff" stroke-width="7" stroke-dasharray="24 22" stroke-linecap="round"/><rect x="352" y="250" width="150" height="42" rx="18" fill="#315be8"/><path d="M380 250l34-34h52l24 34z" fill="#fffaf4"/>
</svg>
