<svg xmlns="http://www.w3.org/2000/svg" viewBox="0 0 800 420" role="img" aria-label="Ilustracion propia de cancha de baloncesto para esta pregunta">
  <defs>
    <linearGradient id="bg" x1="0" x2="1" y1="0" y2="1">
      <stop stop-color="#fff1df"/>
      <stop offset="1" stop-color="#f6bc42" stop-opacity="0.22"/>
    </linearGradient>
  </defs>
  <rect width="800" height="420" fill="url(#bg)"/>
  <circle cx="252" cy="267" r="84" fill="#f6bc42" opacity="0.13"/>
  <circle cx="190" cy="194" r="66" fill="#d95a35" opacity="0.16"/>
  <circle cx="391" cy="59" r="3" fill="#15191d" opacity="0.39"/><circle cx="84" cy="312" r="3" fill="#15191d" opacity="0.4"/><circle cx="493" cy="223" r="3" fill="#15191d" opacity="0.41000000000000003"/><circle cx="186" cy="134" r="3" fill="#15191d" opacity="0.42000000000000004"/><circle cx="595" cy="45" r="3" fill="#15191d" opacity="0.43000000000000005"/><circle cx="288" cy="298" r="3" fill="#15191d" opacity="0.44000000000000006"/><circle cx="697" cy="208" r="3" fill="#15191d" opacity="0.45000000000000007"/><circle cx="390" cy="119" r="3" fill="#15191d" opacity="0.46"/><circle cx="83" cy="372" r="2" fill="#15191d" opacity="0.47000000000000003"/>
  <rect x="76" y="58" width="648" height="304" rx="30" fill="#d95a35"/><path d="M100 210h600M400 58v304" stroke="#fffaf4" stroke-width="8" opacity=".8"/><circle cx="400" cy="210" r="59" fill="none" stroke="#fffaf4" stroke-width="8" opacity=".8"/><circle cx="264" cy="174" r="42" fill="#15191d"/><path d="M222 174h84M264 132v84" stroke="#f6bc42" stroke-width="5" fill="none"/>
</svg>
