<svg xmlns="http://www.w3.org/2000/svg" viewBox="0 0 800 420" role="img" aria-label="Ilustracion propia de cancha de baloncesto para esta pregunta">
  <defs>
    <linearGradient id="bg" x1="0" x2="1" y1="0" y2="1">
      <stop stop-color="#fff1df"/>
      <stop offset="1" stop-color="#fff1df" stop-opacity="0.22"/>
    </linearGradient>
  </defs>
  <rect width="800" height="420" fill="url(#bg)"/>
  <circle cx="587" cy="124" r="78" fill="#f6bc42" opacity="0.13"/>
  <circle cx="457" cy="105" r="115" fill="#d95a35" opacity="0.16"/>
  <circle cx="102" cy="190" r="2" fill="#15191d" opacity="0.52"/><circle cx="409" cy="280" r="2" fill="#15191d" opacity="0.51"/><circle cx="716" cy="369" r="2" fill="#15191d" opacity="0.5"/><circle cx="307" cy="116" r="2" fill="#15191d" opacity="0.49"/><circle cx="614" cy="205" r="2" fill="#15191d" opacity="0.48000000000000004"/><circle cx="205" cy="294" r="2" fill="#15191d" opacity="0.47000000000000003"/><circle cx="512" cy="41" r="2" fill="#15191d" opacity="0.46"/><circle cx="103" cy="130" r="2" fill="#15191d" opacity="0.45000000000000007"/><circle cx="410" cy="220" r="2" fill="#15191d" opacity="0.44000000000000006"/>
  <rect x="76" y="58" width="648" height="304" rx="30" fill="#d95a35"/><path d="M100 210h600M400 58v304" stroke="#fffaf4" stroke-width="8" opacity=".8"/><circle cx="400" cy="210" r="59" fill="none" stroke="#fffaf4" stroke-width="8" opacity=".8"/><circle cx="264" cy="174" r="42" fill="#15191d"/><path d="M222 174h84M264 132v84" stroke="#f6bc42" stroke-width="5" fill="none"/>
</svg>
