<svg xmlns="http://www.w3.org/2000/svg" viewBox="0 0 800 420" role="img" aria-label="Ilustracion propia de estadio y futbol generico para esta pregunta">
  <defs>
    <linearGradient id="bg" x1="0" x2="1" y1="0" y2="1">
      <stop stop-color="#eaf8f5"/>
      <stop offset="1" stop-color="#26b99f" stop-opacity="0.22"/>
    </linearGradient>
  </defs>
  <rect width="800" height="420" fill="url(#bg)"/>
  <circle cx="286" cy="283" r="84" fill="#26b99f" opacity="0.13"/>
  <circle cx="494" cy="89" r="116" fill="#f6bc42" opacity="0.16"/>
  <circle cx="122" cy="212" r="4" fill="#15191d" opacity="0.51"/><circle cx="429" cy="301" r="4" fill="#15191d" opacity="0.5"/><circle cx="736" cy="48" r="4" fill="#15191d" opacity="0.49"/><circle cx="327" cy="137" r="4" fill="#15191d" opacity="0.48000000000000004"/><circle cx="634" cy="226" r="4" fill="#15191d" opacity="0.47000000000000003"/><circle cx="225" cy="316" r="4" fill="#15191d" opacity="0.46"/><circle cx="532" cy="63" r="4" fill="#15191d" opacity="0.45000000000000007"/><circle cx="123" cy="152" r="4" fill="#15191d" opacity="0.44000000000000006"/><circle cx="530" cy="183" r="4" fill="#15191d" opacity="0.5900000000000001"/>
  <rect x="118" y="78" width="564" height="264" rx="26" fill="#f6bc42"/><path d="M400 78v264M118 210h564" stroke="#fff" stroke-width="7" opacity=".76"/><circle cx="400" cy="210" r="58" fill="none" stroke="#fff" stroke-width="7" opacity=".76"/><circle cx="220" cy="164" r="32" fill="#fff"/><path d="M188 164h64M220 132v64" stroke="#26b99f" stroke-width="5" opacity=".5"/>
</svg>
