<svg xmlns="http://www.w3.org/2000/svg" viewBox="0 0 800 420" role="img" aria-label="Ilustracion propia de cancha de baloncesto para esta pregunta">
  <defs>
    <linearGradient id="bg" x1="0" x2="1" y1="0" y2="1">
      <stop stop-color="#fff1df"/>
      <stop offset="1" stop-color="#15191d" stop-opacity="0.22"/>
    </linearGradient>
  </defs>
  <rect width="800" height="420" fill="url(#bg)"/>
  <circle cx="347" cy="182" r="119" fill="#f6bc42" opacity="0.13"/>
  <circle cx="202" cy="220" r="80" fill="#d95a35" opacity="0.16"/>
  <circle cx="238" cy="90" r="5" fill="#15191d" opacity="0.68"/><circle cx="545" cy="179" r="5" fill="#15191d" opacity="0.67"/><circle cx="136" cy="268" r="5" fill="#15191d" opacity="0.66"/><circle cx="443" cy="357" r="5" fill="#15191d" opacity="0.65"/><circle cx="442" cy="75" r="5" fill="#15191d" opacity="0.72"/><circle cx="749" cy="164" r="5" fill="#15191d" opacity="0.71"/><circle cx="340" cy="253" r="5" fill="#15191d" opacity="0.7"/><circle cx="647" cy="342" r="5" fill="#15191d" opacity="0.69"/><circle cx="646" cy="60" r="5" fill="#15191d" opacity="0.31000000000000005"/>
  <rect x="76" y="58" width="648" height="304" rx="30" fill="#d95a35"/><path d="M100 210h600M400 58v304" stroke="#fffaf4" stroke-width="8" opacity=".8"/><circle cx="400" cy="210" r="59" fill="none" stroke="#fffaf4" stroke-width="8" opacity=".8"/><circle cx="264" cy="174" r="42" fill="#15191d"/><path d="M222 174h84M264 132v84" stroke="#f6bc42" stroke-width="5" fill="none"/>
</svg>
