<svg xmlns="http://www.w3.org/2000/svg" viewBox="0 0 800 420" role="img" aria-label="Ilustracion propia de estadio y futbol generico para esta pregunta">
  <defs>
    <linearGradient id="bg" x1="0" x2="1" y1="0" y2="1">
      <stop stop-color="#eaf8f5"/>
      <stop offset="1" stop-color="#15191d" stop-opacity="0.22"/>
    </linearGradient>
  </defs>
  <rect width="800" height="420" fill="url(#bg)"/>
  <circle cx="465" cy="70" r="95" fill="#26b99f" opacity="0.13"/>
  <circle cx="217" cy="170" r="117" fill="#f6bc42" opacity="0.16"/>
  <circle cx="61" cy="69" r="4" fill="#15191d" opacity="0.68"/><circle cx="470" cy="322" r="4" fill="#15191d" opacity="0.69"/><circle cx="675" cy="247" r="4" fill="#15191d" opacity="0.66"/><circle cx="368" cy="158" r="4" fill="#15191d" opacity="0.67"/><circle cx="265" cy="54" r="4" fill="#15191d" opacity="0.72"/><circle cx="674" cy="307" r="4" fill="#15191d" opacity="0.28"/><circle cx="163" cy="233" r="4" fill="#15191d" opacity="0.7"/><circle cx="572" cy="143" r="4" fill="#15191d" opacity="0.71"/><circle cx="469" cy="40" r="4" fill="#15191d" opacity="0.31000000000000005"/>
  <rect x="118" y="78" width="564" height="264" rx="26" fill="#f6bc42"/><path d="M400 78v264M118 210h564" stroke="#fff" stroke-width="7" opacity=".76"/><circle cx="400" cy="210" r="58" fill="none" stroke="#fff" stroke-width="7" opacity=".76"/><circle cx="372" cy="236" r="32" fill="#fff"/><path d="M340 236h64M372 204v64" stroke="#26b99f" stroke-width="5" opacity=".5"/>
</svg>
