<svg xmlns="http://www.w3.org/2000/svg" viewBox="0 0 800 420" role="img" aria-label="Ilustracion propia de estadio y futbol generico para esta pregunta">
  <defs>
    <linearGradient id="bg" x1="0" x2="1" y1="0" y2="1">
      <stop stop-color="#eaf8f5"/>
      <stop offset="1" stop-color="#eaf8f5" stop-opacity="0.22"/>
    </linearGradient>
  </defs>
  <rect width="800" height="420" fill="url(#bg)"/>
  <circle cx="309" cy="65" r="76" fill="#26b99f" opacity="0.13"/>
  <circle cx="197" cy="98" r="85" fill="#f6bc42" opacity="0.16"/>
  <circle cx="667" cy="202" r="2" fill="#15191d" opacity="0.5"/><circle cx="360" cy="113" r="2" fill="#15191d" opacity="0.51"/><circle cx="53" cy="366" r="2" fill="#15191d" opacity="0.52"/><circle cx="462" cy="277" r="2" fill="#15191d" opacity="0.53"/><circle cx="695" cy="89" r="2" fill="#15191d" opacity="0.6000000000000001"/><circle cx="388" cy="342" r="2" fill="#15191d" opacity="0.6100000000000001"/><circle cx="81" cy="253" r="2" fill="#15191d" opacity="0.6200000000000001"/><circle cx="490" cy="164" r="2" fill="#15191d" opacity="0.63"/><circle cx="359" cy="173" r="2" fill="#15191d" opacity="0.5800000000000001"/>
  <rect x="118" y="78" width="564" height="264" rx="26" fill="#f6bc42"/><path d="M400 78v264M118 210h564" stroke="#fff" stroke-width="7" opacity=".76"/><circle cx="400" cy="210" r="58" fill="none" stroke="#fff" stroke-width="7" opacity=".76"/><circle cx="334" cy="218" r="32" fill="#fff"/><path d="M302 218h64M334 186v64" stroke="#26b99f" stroke-width="5" opacity=".5"/>
</svg>
