<svg xmlns="http://www.w3.org/2000/svg" viewBox="0 0 800 420" role="img" aria-label="Ilustracion propia de cancha de baloncesto para esta pregunta">
  <defs>
    <linearGradient id="bg" x1="0" x2="1" y1="0" y2="1">
      <stop stop-color="#fff1df"/>
      <stop offset="1" stop-color="#15191d" stop-opacity="0.22"/>
    </linearGradient>
  </defs>
  <rect width="800" height="420" fill="url(#bg)"/>
  <circle cx="251" cy="219" r="69" fill="#f6bc42" opacity="0.13"/>
  <circle cx="415" cy="81" r="134" fill="#d95a35" opacity="0.16"/>
  <circle cx="612" cy="374" r="5" fill="#15191d" opacity="0.48000000000000004"/><circle cx="203" cy="121" r="5" fill="#15191d" opacity="0.47000000000000003"/><circle cx="714" cy="196" r="5" fill="#15191d" opacity="0.5"/><circle cx="305" cy="285" r="5" fill="#15191d" opacity="0.49"/><circle cx="100" cy="360" r="5" fill="#15191d" opacity="0.52"/><circle cx="407" cy="107" r="5" fill="#15191d" opacity="0.51"/><circle cx="202" cy="181" r="5" fill="#15191d" opacity="0.54"/><circle cx="509" cy="270" r="5" fill="#15191d" opacity="0.53"/><circle cx="204" cy="61" r="5" fill="#15191d" opacity="0.4"/>
  <rect x="76" y="58" width="648" height="304" rx="30" fill="#d95a35"/><path d="M100 210h600M400 58v304" stroke="#fffaf4" stroke-width="8" opacity=".8"/><circle cx="400" cy="210" r="52" fill="none" stroke="#fffaf4" stroke-width="8" opacity=".8"/><circle cx="180" cy="150" r="42" fill="#15191d"/><path d="M138 150h84M180 108v84" stroke="#f6bc42" stroke-width="5" fill="none"/>
</svg>
