<svg xmlns="http://www.w3.org/2000/svg" viewBox="0 0 800 420" role="img" aria-label="Ilustracion propia de estadio y futbol generico para esta pregunta">
  <defs>
    <linearGradient id="bg" x1="0" x2="1" y1="0" y2="1">
      <stop stop-color="#eaf8f5"/>
      <stop offset="1" stop-color="#eaf8f5" stop-opacity="0.22"/>
    </linearGradient>
  </defs>
  <rect width="800" height="420" fill="url(#bg)"/>
  <circle cx="312" cy="95" r="94" fill="#26b99f" opacity="0.13"/>
  <circle cx="198" cy="280" r="137" fill="#f6bc42" opacity="0.16"/>
  <circle cx="440" cy="335" r="5" fill="#15191d" opacity="0.37"/><circle cx="747" cy="83" r="5" fill="#15191d" opacity="0.36000000000000004"/><circle cx="542" cy="157" r="5" fill="#15191d" opacity="0.39"/><circle cx="133" cy="246" r="5" fill="#15191d" opacity="0.38"/><circle cx="644" cy="321" r="5" fill="#15191d" opacity="0.41000000000000003"/><circle cx="235" cy="68" r="5" fill="#15191d" opacity="0.4"/><circle cx="746" cy="143" r="5" fill="#15191d" opacity="0.43000000000000005"/><circle cx="337" cy="232" r="5" fill="#15191d" opacity="0.42000000000000004"/><circle cx="132" cy="306" r="5" fill="#15191d" opacity="0.45000000000000007"/>
  <path d="M92 270c130-94 486-94 616 0v92H92z" fill="#26b99f" opacity=".9"/><path d="M150 270c102-54 398-54 500 0" fill="none" stroke="#fff" stroke-width="14" opacity=".64"/><rect x="165" y="304" width="470" height="62" rx="16" fill="#f6bc42"/><path d="M400 304v62M165 335h470" stroke="#fff" stroke-width="4" opacity=".65"/><path d="M400 92l18 45h48l-38 29 14 48-42-28-42 28 14-48-38-29h48z" fill="#15191d"/>
</svg>
