<svg xmlns="http://www.w3.org/2000/svg" viewBox="0 0 800 420" role="img" aria-label="Ilustracion propia de estadio y futbol generico para esta pregunta">
  <defs>
    <linearGradient id="bg" x1="0" x2="1" y1="0" y2="1">
      <stop stop-color="#eaf8f5"/>
      <stop offset="1" stop-color="#f6bc42" stop-opacity="0.22"/>
    </linearGradient>
  </defs>
  <rect width="800" height="420" fill="url(#bg)"/>
  <circle cx="660" cy="326" r="121" fill="#26b99f" opacity="0.13"/>
  <circle cx="466" cy="95" r="111" fill="#f6bc42" opacity="0.16"/>
  <circle cx="646" cy="307" r="4" fill="#15191d" opacity="0.38"/><circle cx="237" cy="54" r="4" fill="#15191d" opacity="0.37"/><circle cx="544" cy="143" r="4" fill="#15191d" opacity="0.36000000000000004"/><circle cx="135" cy="232" r="4" fill="#15191d" opacity="0.35000000000000003"/><circle cx="134" cy="292" r="4" fill="#15191d" opacity="0.42000000000000004"/><circle cx="441" cy="39" r="4" fill="#15191d" opacity="0.41000000000000003"/><circle cx="748" cy="129" r="4" fill="#15191d" opacity="0.4"/><circle cx="339" cy="218" r="4" fill="#15191d" opacity="0.39"/><circle cx="238" cy="336" r="4" fill="#15191d" opacity="0.30000000000000004"/>
  <path d="M92 270c130-94 486-94 616 0v92H92z" fill="#26b99f" opacity=".9"/><path d="M150 270c102-54 398-54 500 0" fill="none" stroke="#fff" stroke-width="14" opacity=".64"/><rect x="165" y="304" width="470" height="62" rx="16" fill="#f6bc42"/><path d="M400 304v62M165 335h470" stroke="#fff" stroke-width="4" opacity=".65"/><path d="M400 110l18 45h48l-38 29 14 48-42-28-42 28 14-48-38-29h48z" fill="#15191d"/>
</svg>
