<svg xmlns="http://www.w3.org/2000/svg" viewBox="0 0 800 420" role="img" aria-label="Ilustracion propia de estadio y futbol generico para esta pregunta">
  <defs>
    <linearGradient id="bg" x1="0" x2="1" y1="0" y2="1">
      <stop stop-color="#eaf8f5"/>
      <stop offset="1" stop-color="#f6bc42" stop-opacity="0.22"/>
    </linearGradient>
  </defs>
  <rect width="800" height="420" fill="url(#bg)"/>
  <circle cx="493" cy="203" r="125" fill="#26b99f" opacity="0.13"/>
  <circle cx="670" cy="115" r="121" fill="#f6bc42" opacity="0.16"/>
  <circle cx="559" cy="126" r="5" fill="#15191d" opacity="0.37"/><circle cx="252" cy="36" r="5" fill="#15191d" opacity="0.38"/><circle cx="661" cy="289" r="5" fill="#15191d" opacity="0.39"/><circle cx="354" cy="200" r="5" fill="#15191d" opacity="0.4"/><circle cx="355" cy="140" r="5" fill="#15191d" opacity="0.33"/><circle cx="48" cy="51" r="5" fill="#15191d" opacity="0.34"/><circle cx="457" cy="304" r="5" fill="#15191d" opacity="0.35000000000000003"/><circle cx="150" cy="215" r="5" fill="#15191d" opacity="0.36000000000000004"/><circle cx="151" cy="155" r="5" fill="#15191d" opacity="0.29000000000000004"/>
  <path d="M92 270c130-94 486-94 616 0v92H92z" fill="#26b99f" opacity=".9"/><path d="M150 270c102-54 398-54 500 0" fill="none" stroke="#fff" stroke-width="14" opacity=".64"/><rect x="165" y="304" width="470" height="62" rx="16" fill="#f6bc42"/><path d="M400 304v62M165 335h470" stroke="#fff" stroke-width="4" opacity=".65"/><path d="M400 98l18 45h48l-38 29 14 48-42-28-42 28 14-48-38-29h48z" fill="#15191d"/>
</svg>
