<svg xmlns="http://www.w3.org/2000/svg" viewBox="0 0 800 420" role="img" aria-label="Ilustracion propia de pista de tenis para esta pregunta">
  <defs>
    <linearGradient id="bg" x1="0" x2="1" y1="0" y2="1">
      <stop stop-color="#e8fbf5"/>
      <stop offset="1" stop-color="#315be8" stop-opacity="0.22"/>
    </linearGradient>
  </defs>
  <rect width="800" height="420" fill="url(#bg)"/>
  <circle cx="507" cy="136" r="75" fill="#12b7a6" opacity="0.13"/>
  <circle cx="147" cy="285" r="95" fill="#f6bc42" opacity="0.16"/>
  <circle cx="600" cy="246" r="5" fill="#315be8" opacity="0.52"/><circle cx="191" cy="335" r="5" fill="#315be8" opacity="0.51"/><circle cx="702" cy="67" r="5" fill="#315be8" opacity="0.54"/><circle cx="293" cy="156" r="5" fill="#315be8" opacity="0.53"/><circle cx="88" cy="231" r="5" fill="#315be8" opacity="0.56"/><circle cx="395" cy="320" r="5" fill="#315be8" opacity="0.55"/><circle cx="190" cy="53" r="5" fill="#315be8" opacity="0.5800000000000001"/><circle cx="497" cy="142" r="5" fill="#315be8" opacity="0.5700000000000001"/><circle cx="192" cy="275" r="5" fill="#315be8" opacity="0.44000000000000006"/>
  <rect x="96" y="52" width="608" height="316" rx="28" fill="#f6bc42"/><path d="M400 52v316M96 210h608M170 110h460M170 310h460M170 110v200M630 110v200" stroke="#fff" stroke-width="7" opacity=".88"/><circle cx="502" cy="160" r="18" fill="#315be8"/><ellipse cx="226" cy="242" rx="36" ry="50" fill="none" stroke="#fffaf4" stroke-width="9" transform="rotate(-18 226 242)"/>
</svg>
