<svg xmlns="http://www.w3.org/2000/svg" viewBox="0 0 800 420" role="img" aria-label="Ilustracion propia de cancha de baloncesto para esta pregunta">
  <defs>
    <linearGradient id="bg" x1="0" x2="1" y1="0" y2="1">
      <stop stop-color="#fff1df"/>
      <stop offset="1" stop-color="#15191d" stop-opacity="0.22"/>
    </linearGradient>
  </defs>
  <rect width="800" height="420" fill="url(#bg)"/>
  <circle cx="527" cy="68" r="91" fill="#f6bc42" opacity="0.13"/>
  <circle cx="224" cy="134" r="77" fill="#d95a35" opacity="0.16"/>
  <circle cx="47" cy="320" r="5" fill="#15191d" opacity="0.34"/><circle cx="456" cy="231" r="5" fill="#15191d" opacity="0.35000000000000003"/><circle cx="149" cy="142" r="5" fill="#15191d" opacity="0.36000000000000004"/><circle cx="558" cy="53" r="5" fill="#15191d" opacity="0.37"/><circle cx="251" cy="306" r="5" fill="#15191d" opacity="0.38"/><circle cx="660" cy="216" r="5" fill="#15191d" opacity="0.39"/><circle cx="353" cy="127" r="5" fill="#15191d" opacity="0.4"/><circle cx="46" cy="38" r="5" fill="#15191d" opacity="0.41000000000000003"/><circle cx="455" cy="291" r="5" fill="#15191d" opacity="0.42000000000000004"/>
  <rect x="76" y="58" width="648" height="304" rx="30" fill="#d95a35"/><path d="M100 210h600M400 58v304" stroke="#fffaf4" stroke-width="8" opacity=".8"/><circle cx="400" cy="210" r="59" fill="none" stroke="#fffaf4" stroke-width="8" opacity=".8"/><circle cx="264" cy="174" r="42" fill="#15191d"/><path d="M222 174h84M264 132v84" stroke="#f6bc42" stroke-width="5" fill="none"/>
</svg>
