<svg xmlns="http://www.w3.org/2000/svg" viewBox="0 0 800 420" role="img" aria-label="Ilustracion propia de cancha de baloncesto para esta pregunta">
  <defs>
    <linearGradient id="bg" x1="0" x2="1" y1="0" y2="1">
      <stop stop-color="#fff1df"/>
      <stop offset="1" stop-color="#fff1df" stop-opacity="0.22"/>
    </linearGradient>
  </defs>
  <rect width="800" height="420" fill="url(#bg)"/>
  <circle cx="199" cy="73" r="98" fill="#f6bc42" opacity="0.13"/>
  <circle cx="558" cy="134" r="98" fill="#d95a35" opacity="0.16"/>
  <circle cx="699" cy="79" r="5" fill="#15191d" opacity="0.5"/><circle cx="392" cy="332" r="5" fill="#15191d" opacity="0.51"/><circle cx="85" cy="243" r="5" fill="#15191d" opacity="0.52"/><circle cx="494" cy="153" r="5" fill="#15191d" opacity="0.53"/><circle cx="187" cy="64" r="5" fill="#15191d" opacity="0.54"/><circle cx="596" cy="317" r="5" fill="#15191d" opacity="0.55"/><circle cx="289" cy="228" r="5" fill="#15191d" opacity="0.56"/><circle cx="698" cy="139" r="5" fill="#15191d" opacity="0.5700000000000001"/><circle cx="291" cy="108" r="5" fill="#15191d" opacity="0.42000000000000004"/>
  <rect x="76" y="58" width="648" height="304" rx="30" fill="#d95a35"/><path d="M100 210h600M400 58v304" stroke="#fffaf4" stroke-width="8" opacity=".8"/><circle cx="400" cy="210" r="73" fill="none" stroke="#fffaf4" stroke-width="8" opacity=".8"/><circle cx="432" cy="222" r="42" fill="#15191d"/><path d="M390 222h84M432 180v84" stroke="#f6bc42" stroke-width="5" fill="none"/>
</svg>
