<svg xmlns="http://www.w3.org/2000/svg" viewBox="0 0 800 420" role="img" aria-label="Ilustracion propia de arte y museo para esta pregunta">
  <defs>
    <linearGradient id="bg" x1="0" x2="1" y1="0" y2="1">
      <stop stop-color="#fff2df"/>
      <stop offset="1" stop-color="#12b7a6" stop-opacity="0.22"/>
    </linearGradient>
  </defs>
  <rect width="800" height="420" fill="url(#bg)"/>
  <circle cx="215" cy="206" r="139" fill="#6f4a2d" opacity="0.13"/>
  <circle cx="635" cy="294" r="143" fill="#12b7a6" opacity="0.16"/>
  <circle cx="700" cy="364" r="5" fill="#ff4f6d" opacity="0.47000000000000003"/><circle cx="291" cy="111" r="5" fill="#ff4f6d" opacity="0.46"/><circle cx="86" cy="185" r="5" fill="#ff4f6d" opacity="0.49"/><circle cx="393" cy="274" r="5" fill="#ff4f6d" opacity="0.48000000000000004"/><circle cx="188" cy="349" r="5" fill="#ff4f6d" opacity="0.51"/><circle cx="495" cy="96" r="5" fill="#ff4f6d" opacity="0.5"/><circle cx="290" cy="171" r="5" fill="#ff4f6d" opacity="0.53"/><circle cx="597" cy="260" r="5" fill="#ff4f6d" opacity="0.52"/><circle cx="292" cy="51" r="2" fill="#ff4f6d" opacity="0.39"/>
  <rect x="294" y="54" width="304" height="312" rx="24" fill="#6f4a2d"/><rect x="324" y="84" width="244" height="252" rx="16" fill="#d9c092"/><circle cx="446" cy="178" r="54" fill="#f0c7a5"/><path d="M376 318c12-82 42-120 70-120s58 38 70 120z" fill="#ff4f6d"/><path d="M390 154c36-72 116-46 122 10-36-18-74-18-122-10z" fill="#4a2d22"/>
</svg>
