<svg xmlns="http://www.w3.org/2000/svg" viewBox="0 0 800 420" role="img" aria-label="Ilustracion propia de oceano y olas para esta pregunta">
  <defs>
    <linearGradient id="bg" x1="0" x2="1" y1="0" y2="1">
      <stop stop-color="#dff8ff"/>
      <stop offset="1" stop-color="#315be8" stop-opacity="0.22"/>
    </linearGradient>
  </defs>
  <rect width="800" height="420" fill="url(#bg)"/>
  <circle cx="438" cy="304" r="125" fill="#12b7a6" opacity="0.13"/>
  <circle cx="513" cy="92" r="81" fill="#315be8" opacity="0.16"/>
  <circle cx="540" cy="213" r="3" fill="#fffaf4" opacity="0.49"/><circle cx="131" cy="302" r="3" fill="#fffaf4" opacity="0.48000000000000004"/><circle cx="642" cy="377" r="3" fill="#fffaf4" opacity="0.51"/><circle cx="233" cy="124" r="3" fill="#fffaf4" opacity="0.5"/><circle cx="744" cy="199" r="3" fill="#fffaf4" opacity="0.53"/><circle cx="335" cy="288" r="3" fill="#fffaf4" opacity="0.52"/><circle cx="130" cy="362" r="3" fill="#fffaf4" opacity="0.55"/><circle cx="437" cy="109" r="3" fill="#fffaf4" opacity="0.54"/><circle cx="232" cy="184" r="3" fill="#fffaf4" opacity="0.5700000000000001"/>
  <path d="M0 240c88-42 144 42 232 0s144 42 232 0 144 42 232 0 144 42 232 0v180H0z" fill="#fff" opacity=".34"/><path d="M0 306c88-42 144 42 232 0s144 42 232 0 144 42 232 0 144 42 232 0" fill="none" stroke="#fff" stroke-width="18" opacity=".62"/><path d="M142 174c82-44 170-44 252 0" fill="none" stroke="#fff" stroke-width="10" opacity=".45" stroke-linecap="round"/>
</svg>
