<svg xmlns="http://www.w3.org/2000/svg" viewBox="0 0 800 420" role="img" aria-label="Ilustracion propia de oceano y olas para esta pregunta">
  <defs>
    <linearGradient id="bg" x1="0" x2="1" y1="0" y2="1">
      <stop stop-color="#dff8ff"/>
      <stop offset="1" stop-color="#fffaf4" stop-opacity="0.22"/>
    </linearGradient>
  </defs>
  <rect width="800" height="420" fill="url(#bg)"/>
  <circle cx="337" cy="99" r="95" fill="#12b7a6" opacity="0.13"/>
  <circle cx="126" cy="281" r="87" fill="#315be8" opacity="0.16"/>
  <circle cx="534" cy="229" r="4" fill="#fffaf4" opacity="0.67"/><circle cx="125" cy="318" r="4" fill="#fffaf4" opacity="0.66"/><circle cx="432" cy="65" r="4" fill="#fffaf4" opacity="0.65"/><circle cx="739" cy="154" r="4" fill="#fffaf4" opacity="0.64"/><circle cx="330" cy="243" r="4" fill="#fffaf4" opacity="0.63"/><circle cx="637" cy="333" r="4" fill="#fffaf4" opacity="0.6200000000000001"/><circle cx="228" cy="80" r="4" fill="#fffaf4" opacity="0.6100000000000001"/><circle cx="535" cy="169" r="4" fill="#fffaf4" opacity="0.6000000000000001"/><circle cx="226" cy="200" r="4" fill="#fffaf4" opacity="0.30000000000000004"/>
  <path d="M0 240c88-42 144 42 232 0s144 42 232 0 144 42 232 0 144 42 232 0v180H0z" fill="#fff" opacity=".34"/><path d="M0 296c88-42 144 42 232 0s144 42 232 0 144 42 232 0 144 42 232 0" fill="none" stroke="#fff" stroke-width="18" opacity=".62"/><path d="M142 174c82-44 170-44 252 0" fill="none" stroke="#fff" stroke-width="10" opacity=".45" stroke-linecap="round"/>
</svg>
