<svg xmlns="http://www.w3.org/2000/svg" viewBox="0 0 800 420" role="img" aria-label="Ilustracion propia de naturaleza para esta pregunta">
  <defs>
    <linearGradient id="bg" x1="0" x2="1" y1="0" y2="1">
      <stop stop-color="#ecfbef"/>
      <stop offset="1" stop-color="#315be8" stop-opacity="0.22"/>
    </linearGradient>
  </defs>
  <rect width="800" height="420" fill="url(#bg)"/>
  <circle cx="611" cy="296" r="69" fill="#12b7a6" opacity="0.13"/>
  <circle cx="385" cy="341" r="114" fill="#315be8" opacity="0.16"/>
  <circle cx="371" cy="141" r="4" fill="#f6bc42" opacity="0.56"/><circle cx="64" cy="52" r="4" fill="#f6bc42" opacity="0.5700000000000001"/><circle cx="473" cy="304" r="4" fill="#f6bc42" opacity="0.5800000000000001"/><circle cx="166" cy="215" r="4" fill="#f6bc42" opacity="0.5900000000000001"/><circle cx="167" cy="155" r="4" fill="#f6bc42" opacity="0.52"/><circle cx="576" cy="66" r="4" fill="#f6bc42" opacity="0.53"/><circle cx="269" cy="319" r="4" fill="#f6bc42" opacity="0.54"/><circle cx="678" cy="230" r="4" fill="#f6bc42" opacity="0.55"/><circle cx="679" cy="170" r="5" fill="#f6bc42" opacity="0.48000000000000004"/>
  <path d="M164 322c172-20 120-184 278-208 118-18 172 78 194 158-152 42-298 74-472 50z" fill="#315be8"/><path d="M214 300c138-68 244-104 390-118" stroke="#fff" stroke-width="14" stroke-linecap="round" opacity=".72"/><path d="M314 254c-28-52-20-104 24-156 72 30 102 82 84 150z" fill="#f6bc42" opacity=".88"/>
</svg>
