<svg xmlns="http://www.w3.org/2000/svg" viewBox="0 0 800 420" role="img" aria-label="Ilustracion propia de naturaleza para esta pregunta">
  <defs>
    <linearGradient id="bg" x1="0" x2="1" y1="0" y2="1">
      <stop stop-color="#ecfbef"/>
      <stop offset="1" stop-color="#ecfbef" stop-opacity="0.22"/>
    </linearGradient>
  </defs>
  <rect width="800" height="420" fill="url(#bg)"/>
  <circle cx="277" cy="235" r="142" fill="#12b7a6" opacity="0.13"/>
  <circle cx="343" cy="226" r="93" fill="#315be8" opacity="0.16"/>
  <circle cx="94" cy="313" r="3" fill="#f6bc42" opacity="0.55"/><circle cx="401" cy="61" r="3" fill="#f6bc42" opacity="0.54"/><circle cx="708" cy="150" r="3" fill="#f6bc42" opacity="0.53"/><circle cx="299" cy="239" r="3" fill="#f6bc42" opacity="0.52"/><circle cx="606" cy="328" r="3" fill="#f6bc42" opacity="0.51"/><circle cx="197" cy="75" r="3" fill="#f6bc42" opacity="0.5"/><circle cx="504" cy="164" r="3" fill="#f6bc42" opacity="0.49"/><circle cx="95" cy="253" r="3" fill="#f6bc42" opacity="0.48000000000000004"/><circle cx="402" cy="343" r="3" fill="#f6bc42" opacity="0.47000000000000003"/>
  <path d="M164 322c172-20 120-184 278-208 118-18 172 78 194 158-152 42-298 74-472 50z" fill="#315be8"/><path d="M214 300c138-68 244-104 390-118" stroke="#fff" stroke-width="14" stroke-linecap="round" opacity=".72"/><path d="M334 254c-28-52-20-104 24-156 72 30 102 82 84 150z" fill="#f6bc42" opacity=".88"/>
</svg>
