<svg xmlns="http://www.w3.org/2000/svg" viewBox="0 0 800 420" role="img" aria-label="Ilustracion propia de naturaleza para esta pregunta">
  <defs>
    <linearGradient id="bg" x1="0" x2="1" y1="0" y2="1">
      <stop stop-color="#ecfbef"/>
      <stop offset="1" stop-color="#315be8" stop-opacity="0.22"/>
    </linearGradient>
  </defs>
  <rect width="800" height="420" fill="url(#bg)"/>
  <circle cx="678" cy="242" r="139" fill="#12b7a6" opacity="0.13"/>
  <circle cx="393" cy="84" r="103" fill="#315be8" opacity="0.16"/>
  <circle cx="644" cy="335" r="2" fill="#f6bc42" opacity="0.68"/><circle cx="235" cy="82" r="2" fill="#f6bc42" opacity="0.67"/><circle cx="746" cy="157" r="2" fill="#f6bc42" opacity="0.7"/><circle cx="337" cy="246" r="2" fill="#f6bc42" opacity="0.69"/><circle cx="132" cy="321" r="2" fill="#f6bc42" opacity="0.72"/><circle cx="439" cy="68" r="2" fill="#f6bc42" opacity="0.71"/><circle cx="234" cy="142" r="2" fill="#f6bc42" opacity="0.29000000000000004"/><circle cx="541" cy="231" r="2" fill="#f6bc42" opacity="0.28"/><circle cx="336" cy="306" r="2" fill="#f6bc42" opacity="0.31000000000000005"/>
  <path d="M164 322c172-20 120-184 278-208 118-18 172 78 194 158-152 42-298 74-472 50z" fill="#315be8"/><path d="M214 300c138-68 244-104 390-118" stroke="#fff" stroke-width="14" stroke-linecap="round" opacity=".72"/><path d="M354 254c-28-52-20-104 24-156 72 30 102 82 84 150z" fill="#f6bc42" opacity=".88"/>
</svg>
