<svg xmlns="http://www.w3.org/2000/svg" viewBox="0 0 800 420" role="img" aria-label="Ilustracion propia de naturaleza para esta pregunta">
  <defs>
    <linearGradient id="bg" x1="0" x2="1" y1="0" y2="1">
      <stop stop-color="#ecfbef"/>
      <stop offset="1" stop-color="#ecfbef" stop-opacity="0.22"/>
    </linearGradient>
  </defs>
  <rect width="800" height="420" fill="url(#bg)"/>
  <circle cx="342" cy="213" r="112" fill="#12b7a6" opacity="0.13"/>
  <circle cx="276" cy="331" r="110" fill="#315be8" opacity="0.16"/>
  <circle cx="647" cy="177" r="4" fill="#f6bc42" opacity="0.48000000000000004"/><circle cx="340" cy="88" r="4" fill="#f6bc42" opacity="0.49"/><circle cx="749" cy="341" r="4" fill="#f6bc42" opacity="0.5"/><circle cx="442" cy="252" r="4" fill="#f6bc42" opacity="0.51"/><circle cx="135" cy="163" r="4" fill="#f6bc42" opacity="0.52"/><circle cx="544" cy="74" r="4" fill="#f6bc42" opacity="0.53"/><circle cx="237" cy="327" r="4" fill="#f6bc42" opacity="0.54"/><circle cx="646" cy="237" r="4" fill="#f6bc42" opacity="0.55"/><circle cx="339" cy="148" r="4" fill="#f6bc42" opacity="0.56"/>
  <path d="M164 322c172-20 120-184 278-208 118-18 172 78 194 158-152 42-298 74-472 50z" fill="#315be8"/><path d="M214 300c138-68 244-104 390-118" stroke="#fff" stroke-width="14" stroke-linecap="round" opacity=".72"/><path d="M334 254c-28-52-20-104 24-156 72 30 102 82 84 150z" fill="#f6bc42" opacity=".88"/>
</svg>
