<svg xmlns="http://www.w3.org/2000/svg" viewBox="0 0 800 420" role="img" aria-label="Ilustracion propia de naturaleza para esta pregunta">
  <defs>
    <linearGradient id="bg" x1="0" x2="1" y1="0" y2="1">
      <stop stop-color="#ecfbef"/>
      <stop offset="1" stop-color="#f6bc42" stop-opacity="0.22"/>
    </linearGradient>
  </defs>
  <rect width="800" height="420" fill="url(#bg)"/>
  <circle cx="633" cy="322" r="127" fill="#12b7a6" opacity="0.13"/>
  <circle cx="313" cy="237" r="121" fill="#315be8" opacity="0.16"/>
  <circle cx="447" cy="280" r="2" fill="#f6bc42" opacity="0.68"/><circle cx="140" cy="191" r="2" fill="#f6bc42" opacity="0.69"/><circle cx="549" cy="101" r="2" fill="#f6bc42" opacity="0.7"/><circle cx="242" cy="354" r="2" fill="#f6bc42" opacity="0.71"/><circle cx="651" cy="265" r="2" fill="#f6bc42" opacity="0.72"/><circle cx="344" cy="176" r="2" fill="#f6bc42" opacity="0.28"/><circle cx="753" cy="87" r="2" fill="#f6bc42" opacity="0.29000000000000004"/><circle cx="446" cy="340" r="2" fill="#f6bc42" opacity="0.30000000000000004"/><circle cx="139" cy="251" r="2" fill="#f6bc42" opacity="0.31000000000000005"/>
  <path d="M164 322c172-20 120-184 278-208 118-18 172 78 194 158-152 42-298 74-472 50z" fill="#315be8"/><path d="M214 300c138-68 244-104 390-118" stroke="#fff" stroke-width="14" stroke-linecap="round" opacity=".72"/><path d="M354 254c-28-52-20-104 24-156 72 30 102 82 84 150z" fill="#f6bc42" opacity=".88"/>
</svg>
