<svg xmlns="http://www.w3.org/2000/svg" viewBox="0 0 800 420" role="img" aria-label="Ilustracion propia de oceano y olas para esta pregunta">
  <defs>
    <linearGradient id="bg" x1="0" x2="1" y1="0" y2="1">
      <stop stop-color="#dff8ff"/>
      <stop offset="1" stop-color="#12b7a6" stop-opacity="0.22"/>
    </linearGradient>
  </defs>
  <rect width="800" height="420" fill="url(#bg)"/>
  <circle cx="489" cy="138" r="124" fill="#12b7a6" opacity="0.13"/>
  <circle cx="145" cy="178" r="111" fill="#315be8" opacity="0.16"/>
  <circle cx="658" cy="365" r="3" fill="#fffaf4" opacity="0.72"/><circle cx="249" cy="112" r="3" fill="#fffaf4" opacity="0.71"/><circle cx="556" cy="201" r="3" fill="#fffaf4" opacity="0.7"/><circle cx="147" cy="290" r="3" fill="#fffaf4" opacity="0.69"/><circle cx="146" cy="350" r="3" fill="#fffaf4" opacity="0.31000000000000005"/><circle cx="453" cy="97" r="3" fill="#fffaf4" opacity="0.30000000000000004"/><circle cx="44" cy="187" r="3" fill="#fffaf4" opacity="0.29000000000000004"/><circle cx="351" cy="276" r="3" fill="#fffaf4" opacity="0.28"/><circle cx="350" cy="336" r="3" fill="#fffaf4" opacity="0.35000000000000003"/>
  <path d="M0 240c88-42 144 42 232 0s144 42 232 0 144 42 232 0 144 42 232 0v180H0z" fill="#fff" opacity=".34"/><path d="M0 316c88-42 144 42 232 0s144 42 232 0 144 42 232 0 144 42 232 0" fill="none" stroke="#fff" stroke-width="18" opacity=".62"/><path d="M142 174c82-44 170-44 252 0" fill="none" stroke="#fff" stroke-width="10" opacity=".45" stroke-linecap="round"/>
</svg>
