<svg xmlns="http://www.w3.org/2000/svg" viewBox="0 0 800 420" role="img" aria-label="Ilustracion propia de cine y rodaje para esta pregunta">
  <defs>
    <linearGradient id="bg" x1="0" x2="1" y1="0" y2="1">
      <stop stop-color="#15191d"/>
      <stop offset="1" stop-color="#f6bc42" stop-opacity="0.22"/>
    </linearGradient>
  </defs>
  <rect width="800" height="420" fill="url(#bg)"/>
  <circle cx="412" cy="72" r="109" fill="#fffaf4" opacity="0.13"/>
  <circle cx="585" cy="313" r="69" fill="#f6bc42" opacity="0.16"/>
  <circle cx="502" cy="301" r="5" fill="#ff4f6d" opacity="0.49"/><circle cx="93" cy="49" r="5" fill="#ff4f6d" opacity="0.48000000000000004"/><circle cx="400" cy="138" r="5" fill="#ff4f6d" opacity="0.47000000000000003"/><circle cx="707" cy="227" r="5" fill="#ff4f6d" opacity="0.46"/><circle cx="298" cy="316" r="5" fill="#ff4f6d" opacity="0.45000000000000007"/><circle cx="605" cy="63" r="5" fill="#ff4f6d" opacity="0.44000000000000006"/><circle cx="196" cy="152" r="5" fill="#ff4f6d" opacity="0.43000000000000005"/><circle cx="503" cy="241" r="5" fill="#ff4f6d" opacity="0.42000000000000004"/><circle cx="94" cy="331" r="5" fill="#ff4f6d" opacity="0.41000000000000003"/>
  <rect width="800" height="420" fill="#fffaf4"/><circle cx="580" cy="116" r="120" fill="#ff4f6d" opacity=".42"/><rect x="190" y="182" width="420" height="198" rx="22" fill="#f6bc42"/><rect x="190" y="116" width="420" height="70" rx="18" fill="#fffaf4"/><path d="M228 116l58 70M330 116l58 70M432 116l58 70M534 116l58 70" stroke="#fffaf4" stroke-width="20"/><rect x="244" y="254" width="312" height="18" rx="9" fill="#fffaf4" opacity=".16"/>
</svg>
