<svg xmlns="http://www.w3.org/2000/svg" viewBox="0 0 800 420" role="img" aria-label="Ilustracion propia de cine y rodaje para esta pregunta">
  <defs>
    <linearGradient id="bg" x1="0" x2="1" y1="0" y2="1">
      <stop stop-color="#15191d"/>
      <stop offset="1" stop-color="#ff4f6d" stop-opacity="0.22"/>
    </linearGradient>
  </defs>
  <rect width="800" height="420" fill="url(#bg)"/>
  <circle cx="584" cy="72" r="133" fill="#fffaf4" opacity="0.13"/>
  <circle cx="457" cy="134" r="132" fill="#f6bc42" opacity="0.16"/>
  <circle cx="200" cy="81" r="4" fill="#ff4f6d" opacity="0.48000000000000004"/><circle cx="507" cy="170" r="4" fill="#ff4f6d" opacity="0.47000000000000003"/><circle cx="302" cy="244" r="4" fill="#ff4f6d" opacity="0.5"/><circle cx="609" cy="333" r="4" fill="#ff4f6d" opacity="0.49"/><circle cx="404" cy="66" r="4" fill="#ff4f6d" opacity="0.52"/><circle cx="711" cy="155" r="4" fill="#ff4f6d" opacity="0.51"/><circle cx="506" cy="230" r="4" fill="#ff4f6d" opacity="0.54"/><circle cx="97" cy="319" r="4" fill="#ff4f6d" opacity="0.53"/><circle cx="508" cy="110" r="4" fill="#ff4f6d" opacity="0.4"/>
  <rect width="800" height="420" fill="#fffaf4"/><circle cx="500" cy="168" r="120" fill="#ff4f6d" opacity=".42"/><rect x="190" y="182" width="420" height="198" rx="22" fill="#f6bc42"/><rect x="190" y="132" width="420" height="70" rx="18" fill="#fffaf4"/><path d="M228 132l58 70M330 132l58 70M432 132l58 70M534 132l58 70" stroke="#fffaf4" stroke-width="20"/><rect x="244" y="254" width="312" height="18" rx="9" fill="#fffaf4" opacity=".16"/>
</svg>
