<svg xmlns="http://www.w3.org/2000/svg" viewBox="0 0 800 420" role="img" aria-label="Ilustracion propia de cine y rodaje para esta pregunta">
  <defs>
    <linearGradient id="bg" x1="0" x2="1" y1="0" y2="1">
      <stop stop-color="#15191d"/>
      <stop offset="1" stop-color="#15191d" stop-opacity="0.22"/>
    </linearGradient>
  </defs>
  <rect width="800" height="420" fill="url(#bg)"/>
  <circle cx="454" cy="297" r="122" fill="#fffaf4" opacity="0.13"/>
  <circle cx="140" cy="305" r="101" fill="#f6bc42" opacity="0.16"/>
  <circle cx="437" cy="258" r="5" fill="#ff4f6d" opacity="0.68"/><circle cx="130" cy="169" r="5" fill="#ff4f6d" opacity="0.69"/><circle cx="335" cy="95" r="5" fill="#ff4f6d" opacity="0.66"/><circle cx="744" cy="347" r="5" fill="#ff4f6d" opacity="0.67"/><circle cx="233" cy="273" r="5" fill="#ff4f6d" opacity="0.64"/><circle cx="642" cy="184" r="5" fill="#ff4f6d" opacity="0.65"/><circle cx="131" cy="109" r="5" fill="#ff4f6d" opacity="0.6200000000000001"/><circle cx="540" cy="362" r="5" fill="#ff4f6d" opacity="0.63"/><circle cx="129" cy="229" r="5" fill="#ff4f6d" opacity="0.31000000000000005"/>
  <rect width="800" height="420" fill="#fffaf4"/><circle cx="500" cy="168" r="120" fill="#ff4f6d" opacity=".42"/><rect x="190" y="182" width="420" height="198" rx="22" fill="#f6bc42"/><rect x="190" y="132" width="420" height="70" rx="18" fill="#fffaf4"/><path d="M228 132l58 70M330 132l58 70M432 132l58 70M534 132l58 70" stroke="#fffaf4" stroke-width="20"/><rect x="244" y="254" width="312" height="18" rx="9" fill="#fffaf4" opacity=".16"/>
</svg>
