<svg xmlns="http://www.w3.org/2000/svg" viewBox="0 0 800 420" role="img" aria-label="Ilustracion propia de cine y rodaje para esta pregunta">
  <defs>
    <linearGradient id="bg" x1="0" x2="1" y1="0" y2="1">
      <stop stop-color="#15191d"/>
      <stop offset="1" stop-color="#ff4f6d" stop-opacity="0.22"/>
    </linearGradient>
  </defs>
  <rect width="800" height="420" fill="url(#bg)"/>
  <circle cx="668" cy="127" r="117" fill="#fffaf4" opacity="0.13"/>
  <circle cx="317" cy="141" r="110" fill="#f6bc42" opacity="0.16"/>
  <circle cx="345" cy="79" r="3" fill="#ff4f6d" opacity="0.36000000000000004"/><circle cx="754" cy="332" r="3" fill="#ff4f6d" opacity="0.37"/><circle cx="243" cy="257" r="3" fill="#ff4f6d" opacity="0.34"/><circle cx="652" cy="168" r="3" fill="#ff4f6d" opacity="0.35000000000000003"/><circle cx="549" cy="64" r="3" fill="#ff4f6d" opacity="0.4"/><circle cx="242" cy="317" r="3" fill="#ff4f6d" opacity="0.41000000000000003"/><circle cx="447" cy="243" r="3" fill="#ff4f6d" opacity="0.38"/><circle cx="140" cy="153" r="3" fill="#ff4f6d" opacity="0.39"/><circle cx="753" cy="50" r="2" fill="#ff4f6d" opacity="0.44000000000000006"/>
  <rect width="800" height="420" fill="#fffaf4"/><circle cx="540" cy="142" r="120" fill="#ff4f6d" opacity=".42"/><rect x="190" y="182" width="420" height="198" rx="22" fill="#f6bc42"/><rect x="190" y="124" width="420" height="70" rx="18" fill="#fffaf4"/><path d="M228 124l58 70M330 124l58 70M432 124l58 70M534 124l58 70" stroke="#fffaf4" stroke-width="20"/><rect x="244" y="254" width="312" height="18" rx="9" fill="#fffaf4" opacity=".16"/>
</svg>
