<svg xmlns="http://www.w3.org/2000/svg" viewBox="0 0 800 420" role="img" aria-label="Ilustracion propia de cine y rodaje para esta pregunta">
  <defs>
    <linearGradient id="bg" x1="0" x2="1" y1="0" y2="1">
      <stop stop-color="#15191d"/>
      <stop offset="1" stop-color="#fffaf4" stop-opacity="0.22"/>
    </linearGradient>
  </defs>
  <rect width="800" height="420" fill="url(#bg)"/>
  <circle cx="253" cy="316" r="100" fill="#fffaf4" opacity="0.13"/>
  <circle cx="115" cy="236" r="118" fill="#f6bc42" opacity="0.16"/>
  <circle cx="718" cy="39" r="5" fill="#ff4f6d" opacity="0.38"/><circle cx="309" cy="129" r="2" fill="#ff4f6d" opacity="0.37"/><circle cx="616" cy="218" r="2" fill="#ff4f6d" opacity="0.36000000000000004"/><circle cx="207" cy="307" r="2" fill="#ff4f6d" opacity="0.35000000000000003"/><circle cx="514" cy="54" r="2" fill="#ff4f6d" opacity="0.34"/><circle cx="105" cy="143" r="2" fill="#ff4f6d" opacity="0.33"/><circle cx="412" cy="232" r="2" fill="#ff4f6d" opacity="0.32"/><circle cx="719" cy="321" r="2" fill="#ff4f6d" opacity="0.31000000000000005"/><circle cx="310" cy="69" r="2" fill="#ff4f6d" opacity="0.30000000000000004"/>
  <rect width="800" height="420" fill="#fffaf4"/><circle cx="540" cy="142" r="120" fill="#ff4f6d" opacity=".42"/><rect x="190" y="182" width="420" height="198" rx="22" fill="#f6bc42"/><rect x="190" y="124" width="420" height="70" rx="18" fill="#fffaf4"/><path d="M228 124l58 70M330 124l58 70M432 124l58 70M534 124l58 70" stroke="#fffaf4" stroke-width="20"/><rect x="244" y="254" width="312" height="18" rx="9" fill="#fffaf4" opacity=".16"/>
</svg>
