<svg xmlns="http://www.w3.org/2000/svg" viewBox="0 0 800 420" role="img" aria-label="Ilustracion propia de oceano y olas para esta pregunta">
  <defs>
    <linearGradient id="bg" x1="0" x2="1" y1="0" y2="1">
      <stop stop-color="#dff8ff"/>
      <stop offset="1" stop-color="#dff8ff" stop-opacity="0.22"/>
    </linearGradient>
  </defs>
  <rect width="800" height="420" fill="url(#bg)"/>
  <circle cx="622" cy="109" r="96" fill="#12b7a6" opacity="0.13"/>
  <circle cx="311" cy="175" r="98" fill="#315be8" opacity="0.16"/>
  <circle cx="421" cy="291" r="2" fill="#fffaf4" opacity="0.6100000000000001"/><circle cx="114" cy="202" r="2" fill="#fffaf4" opacity="0.6200000000000001"/><circle cx="319" cy="128" r="2" fill="#fffaf4" opacity="0.5900000000000001"/><circle cx="728" cy="38" r="2" fill="#fffaf4" opacity="0.6000000000000001"/><circle cx="217" cy="306" r="2" fill="#fffaf4" opacity="0.5700000000000001"/><circle cx="626" cy="217" r="2" fill="#fffaf4" opacity="0.5800000000000001"/><circle cx="115" cy="142" r="2" fill="#fffaf4" opacity="0.55"/><circle cx="524" cy="53" r="2" fill="#fffaf4" opacity="0.56"/><circle cx="729" cy="320" r="2" fill="#fffaf4" opacity="0.53"/>
  <path d="M0 240c88-42 144 42 232 0s144 42 232 0 144 42 232 0 144 42 232 0v180H0z" fill="#fff" opacity=".34"/><path d="M0 296c88-42 144 42 232 0s144 42 232 0 144 42 232 0 144 42 232 0" fill="none" stroke="#fff" stroke-width="18" opacity=".62"/><path d="M142 174c82-44 170-44 252 0" fill="none" stroke="#fff" stroke-width="10" opacity=".45" stroke-linecap="round"/>
</svg>
