<svg xmlns="http://www.w3.org/2000/svg" viewBox="0 0 800 420" role="img" aria-label="Ilustracion propia de tecnologia para esta pregunta">
  <defs>
    <linearGradient id="bg" x1="0" x2="1" y1="0" y2="1">
      <stop stop-color="#111820"/>
      <stop offset="1" stop-color="#315be8" stop-opacity="0.22"/>
    </linearGradient>
  </defs>
  <rect width="800" height="420" fill="url(#bg)"/>
  <circle cx="531" cy="155" r="77" fill="#fffaf4" opacity="0.13"/>
  <circle cx="300" cy="323" r="85" fill="#315be8" opacity="0.16"/>
  <circle cx="285" cy="216" r="2" fill="#12b7a6" opacity="0.35000000000000003"/><circle cx="694" cy="127" r="2" fill="#12b7a6" opacity="0.36000000000000004"/><circle cx="183" cy="53" r="2" fill="#12b7a6" opacity="0.33"/><circle cx="592" cy="306" r="2" fill="#12b7a6" opacity="0.34"/><circle cx="81" cy="231" r="2" fill="#12b7a6" opacity="0.31000000000000005"/><circle cx="490" cy="142" r="2" fill="#12b7a6" opacity="0.32"/><circle cx="695" cy="67" r="2" fill="#12b7a6" opacity="0.29000000000000004"/><circle cx="388" cy="320" r="2" fill="#12b7a6" opacity="0.30000000000000004"/><circle cx="593" cy="246" r="2" fill="#12b7a6" opacity="0.72"/>
  <rect width="800" height="420" fill="#fffaf4"/><rect x="108" y="72" width="584" height="276" rx="28" fill="#315be8"/><rect x="108" y="72" width="584" height="58" rx="28" fill="#12b7a6"/><path d="M210 206l-62 44 62 44M590 206l62 44-62 44" stroke="#fffaf4" stroke-width="20" stroke-linecap="round" stroke-linejoin="round" fill="none"/><path d="M364 306l72-184" stroke="#12b7a6" stroke-width="18" stroke-linecap="round"/>
</svg>
