<svg xmlns="http://www.w3.org/2000/svg" viewBox="0 0 800 420" role="img" aria-label="Ilustracion propia de tecnologia para esta pregunta">
  <defs>
    <linearGradient id="bg" x1="0" x2="1" y1="0" y2="1">
      <stop stop-color="#111820"/>
      <stop offset="1" stop-color="#fffaf4" stop-opacity="0.22"/>
    </linearGradient>
  </defs>
  <rect width="800" height="420" fill="url(#bg)"/>
  <circle cx="329" cy="268" r="76" fill="#fffaf4" opacity="0.13"/>
  <circle cx="275" cy="266" r="65" fill="#315be8" opacity="0.16"/>
  <circle cx="613" cy="370" r="3" fill="#12b7a6" opacity="0.67"/><circle cx="306" cy="281" r="3" fill="#12b7a6" opacity="0.68"/><circle cx="511" cy="207" r="3" fill="#12b7a6" opacity="0.65"/><circle cx="204" cy="118" r="3" fill="#12b7a6" opacity="0.66"/><circle cx="101" cy="356" r="3" fill="#12b7a6" opacity="0.71"/><circle cx="510" cy="267" r="3" fill="#12b7a6" opacity="0.72"/><circle cx="715" cy="192" r="3" fill="#12b7a6" opacity="0.69"/><circle cx="408" cy="103" r="3" fill="#12b7a6" opacity="0.7"/><circle cx="205" cy="58" r="3" fill="#12b7a6" opacity="0.5900000000000001"/>
  <rect width="800" height="420" fill="#fffaf4"/><rect x="108" y="72" width="584" height="276" rx="28" fill="#315be8"/><rect x="108" y="72" width="584" height="58" rx="28" fill="#12b7a6"/><path d="M246 206l-62 44 62 44M554 206l62 44-62 44" stroke="#fffaf4" stroke-width="20" stroke-linecap="round" stroke-linejoin="round" fill="none"/><path d="M364 306l72-184" stroke="#12b7a6" stroke-width="18" stroke-linecap="round"/>
</svg>
