<svg xmlns="http://www.w3.org/2000/svg" viewBox="0 0 800 420" role="img" aria-label="Ilustracion propia de tecnologia para esta pregunta">
  <defs>
    <linearGradient id="bg" x1="0" x2="1" y1="0" y2="1">
      <stop stop-color="#111820"/>
      <stop offset="1" stop-color="#111820" stop-opacity="0.22"/>
    </linearGradient>
  </defs>
  <rect width="800" height="420" fill="url(#bg)"/>
  <circle cx="539" cy="84" r="92" fill="#fffaf4" opacity="0.13"/>
  <circle cx="451" cy="136" r="127" fill="#315be8" opacity="0.16"/>
  <circle cx="341" cy="291" r="5" fill="#12b7a6" opacity="0.51"/><circle cx="750" cy="202" r="5" fill="#12b7a6" opacity="0.52"/><circle cx="239" cy="127" r="5" fill="#12b7a6" opacity="0.49"/><circle cx="648" cy="38" r="5" fill="#12b7a6" opacity="0.5"/><circle cx="137" cy="305" r="5" fill="#12b7a6" opacity="0.47000000000000003"/><circle cx="546" cy="216" r="5" fill="#12b7a6" opacity="0.48000000000000004"/><circle cx="751" cy="142" r="5" fill="#12b7a6" opacity="0.45000000000000007"/><circle cx="444" cy="53" r="5" fill="#12b7a6" opacity="0.46"/><circle cx="649" cy="320" r="5" fill="#12b7a6" opacity="0.43000000000000005"/>
  <rect width="800" height="420" fill="#fffaf4"/><rect x="108" y="72" width="584" height="276" rx="28" fill="#315be8"/><rect x="108" y="72" width="584" height="58" rx="28" fill="#12b7a6"/><path d="M246 206l-62 44 62 44M554 206l62 44-62 44" stroke="#fffaf4" stroke-width="20" stroke-linecap="round" stroke-linejoin="round" fill="none"/><path d="M364 306l72-184" stroke="#12b7a6" stroke-width="18" stroke-linecap="round"/>
</svg>
