<svg xmlns="http://www.w3.org/2000/svg" viewBox="0 0 800 420" role="img" aria-label="Ilustracion propia de oceano y olas para esta pregunta">
  <defs>
    <linearGradient id="bg" x1="0" x2="1" y1="0" y2="1">
      <stop stop-color="#dff8ff"/>
      <stop offset="1" stop-color="#315be8" stop-opacity="0.22"/>
    </linearGradient>
  </defs>
  <rect width="800" height="420" fill="url(#bg)"/>
  <circle cx="599" cy="274" r="65" fill="#12b7a6" opacity="0.13"/>
  <circle cx="233" cy="124" r="124" fill="#315be8" opacity="0.16"/>
  <circle cx="741" cy="269" r="4" fill="#fffaf4" opacity="0.63"/><circle cx="434" cy="180" r="4" fill="#fffaf4" opacity="0.64"/><circle cx="639" cy="106" r="5" fill="#fffaf4" opacity="0.6100000000000001"/><circle cx="332" cy="358" r="5" fill="#fffaf4" opacity="0.6200000000000001"/><circle cx="537" cy="284" r="5" fill="#fffaf4" opacity="0.5900000000000001"/><circle cx="230" cy="195" r="5" fill="#fffaf4" opacity="0.6000000000000001"/><circle cx="435" cy="120" r="5" fill="#fffaf4" opacity="0.5700000000000001"/><circle cx="128" cy="373" r="5" fill="#fffaf4" opacity="0.5800000000000001"/><circle cx="201" cy="368" r="4" fill="#fffaf4" opacity="0.5700000000000001"/>
  <path d="M0 240c88-42 144 42 232 0s144 42 232 0 144 42 232 0 144 42 232 0v180H0z" fill="#fff" opacity=".34"/><path d="M0 316c88-42 144 42 232 0s144 42 232 0 144 42 232 0 144 42 232 0" fill="none" stroke="#fff" stroke-width="18" opacity=".62"/><path d="M142 174c82-44 170-44 252 0" fill="none" stroke="#fff" stroke-width="10" opacity=".45" stroke-linecap="round"/>
</svg>
