<svg xmlns="http://www.w3.org/2000/svg" viewBox="0 0 800 420" role="img" aria-label="Ilustracion propia de naturaleza para esta pregunta">
  <defs>
    <linearGradient id="bg" x1="0" x2="1" y1="0" y2="1">
      <stop stop-color="#ecfbef"/>
      <stop offset="1" stop-color="#315be8" stop-opacity="0.22"/>
    </linearGradient>
  </defs>
  <rect width="800" height="420" fill="url(#bg)"/>
  <circle cx="437" cy="212" r="85" fill="#12b7a6" opacity="0.13"/>
  <circle cx="363" cy="223" r="66" fill="#315be8" opacity="0.16"/>
  <circle cx="560" cy="78" r="4" fill="#f6bc42" opacity="0.7"/><circle cx="151" cy="167" r="4" fill="#f6bc42" opacity="0.69"/><circle cx="662" cy="242" r="4" fill="#f6bc42" opacity="0.72"/><circle cx="253" cy="331" r="4" fill="#f6bc42" opacity="0.71"/><circle cx="356" cy="93" r="4" fill="#f6bc42" opacity="0.66"/><circle cx="663" cy="182" r="4" fill="#f6bc42" opacity="0.65"/><circle cx="458" cy="257" r="4" fill="#f6bc42" opacity="0.68"/><circle cx="49" cy="346" r="4" fill="#f6bc42" opacity="0.67"/><circle cx="152" cy="107" r="4" fill="#f6bc42" opacity="0.6200000000000001"/>
  <path d="M164 322c172-20 120-184 278-208 118-18 172 78 194 158-152 42-298 74-472 50z" fill="#315be8"/><path d="M214 300c138-68 244-104 390-118" stroke="#fff" stroke-width="14" stroke-linecap="round" opacity=".72"/><path d="M334 254c-28-52-20-104 24-156 72 30 102 82 84 150z" fill="#f6bc42" opacity=".88"/>
</svg>
