<svg xmlns="http://www.w3.org/2000/svg" viewBox="0 0 800 420" role="img" aria-label="Ilustracion propia de arte y museo para esta pregunta">
  <defs>
    <linearGradient id="bg" x1="0" x2="1" y1="0" y2="1">
      <stop stop-color="#fff2df"/>
      <stop offset="1" stop-color="#ff4f6d" stop-opacity="0.22"/>
    </linearGradient>
  </defs>
  <rect width="800" height="420" fill="url(#bg)"/>
  <circle cx="502" cy="190" r="141" fill="#6f4a2d" opacity="0.13"/>
  <circle cx="521" cy="256" r="143" fill="#12b7a6" opacity="0.16"/>
  <circle cx="283" cy="110" r="3" fill="#ff4f6d" opacity="0.35000000000000003"/><circle cx="692" cy="363" r="3" fill="#ff4f6d" opacity="0.36000000000000004"/><circle cx="385" cy="273" r="3" fill="#ff4f6d" opacity="0.37"/><circle cx="78" cy="184" r="3" fill="#ff4f6d" opacity="0.38"/><circle cx="487" cy="95" r="3" fill="#ff4f6d" opacity="0.39"/><circle cx="180" cy="348" r="3" fill="#ff4f6d" opacity="0.4"/><circle cx="589" cy="259" r="3" fill="#ff4f6d" opacity="0.41000000000000003"/><circle cx="282" cy="170" r="3" fill="#ff4f6d" opacity="0.42000000000000004"/><circle cx="591" cy="139" r="3" fill="#ff4f6d" opacity="0.72"/>
  <rect x="258" y="54" width="304" height="312" rx="24" fill="#6f4a2d"/><rect x="288" y="84" width="244" height="252" rx="16" fill="#d9c092"/><circle cx="410" cy="178" r="54" fill="#f0c7a5"/><path d="M340 318c12-82 42-120 70-120s58 38 70 120z" fill="#ff4f6d"/><path d="M354 154c36-72 116-46 122 10-36-18-74-18-122-10z" fill="#4a2d22"/>
</svg>
