<svg xmlns="http://www.w3.org/2000/svg" viewBox="0 0 800 420" role="img" aria-label="Ilustracion propia de oceano y olas para esta pregunta">
  <defs>
    <linearGradient id="bg" x1="0" x2="1" y1="0" y2="1">
      <stop stop-color="#dff8ff"/>
      <stop offset="1" stop-color="#12b7a6" stop-opacity="0.22"/>
    </linearGradient>
  </defs>
  <rect width="800" height="420" fill="url(#bg)"/>
  <circle cx="296" cy="167" r="70" fill="#12b7a6" opacity="0.13"/>
  <circle cx="271" cy="253" r="64" fill="#315be8" opacity="0.16"/>
  <circle cx="698" cy="56" r="4" fill="#fffaf4" opacity="0.44000000000000006"/><circle cx="289" cy="145" r="4" fill="#fffaf4" opacity="0.43000000000000005"/><circle cx="596" cy="234" r="4" fill="#fffaf4" opacity="0.42000000000000004"/><circle cx="187" cy="324" r="4" fill="#fffaf4" opacity="0.41000000000000003"/><circle cx="186" cy="42" r="4" fill="#fffaf4" opacity="0.48000000000000004"/><circle cx="493" cy="131" r="4" fill="#fffaf4" opacity="0.47000000000000003"/><circle cx="84" cy="220" r="4" fill="#fffaf4" opacity="0.46"/><circle cx="391" cy="309" r="4" fill="#fffaf4" opacity="0.45000000000000007"/><circle cx="390" cy="369" r="4" fill="#fffaf4" opacity="0.52"/>
  <path d="M0 240c88-42 144 42 232 0s144 42 232 0 144 42 232 0 144 42 232 0v180H0z" fill="#fff" opacity=".34"/><path d="M0 286c88-42 144 42 232 0s144 42 232 0 144 42 232 0 144 42 232 0" fill="none" stroke="#fff" stroke-width="18" opacity=".62"/><path d="M142 174c82-44 170-44 252 0" fill="none" stroke="#fff" stroke-width="10" opacity=".45" stroke-linecap="round"/>
</svg>
