<svg xmlns="http://www.w3.org/2000/svg" viewBox="0 0 800 420" role="img" aria-label="Ilustracion propia de historia y archivo para esta pregunta">
  <defs>
    <linearGradient id="bg" x1="0" x2="1" y1="0" y2="1">
      <stop stop-color="#fff4e4"/>
      <stop offset="1" stop-color="#fff4e4" stop-opacity="0.22"/>
    </linearGradient>
  </defs>
  <rect width="800" height="420" fill="url(#bg)"/>
  <circle cx="662" cy="234" r="84" fill="#15191d" opacity="0.13"/>
  <circle cx="616" cy="298" r="76" fill="#d9cec1" opacity="0.16"/>
  <circle cx="367" cy="67" r="3" fill="#f6bc42" opacity="0.55"/><circle cx="60" cy="319" r="3" fill="#f6bc42" opacity="0.56"/><circle cx="469" cy="230" r="3" fill="#f6bc42" opacity="0.5700000000000001"/><circle cx="162" cy="141" r="3" fill="#f6bc42" opacity="0.5800000000000001"/><circle cx="163" cy="81" r="3" fill="#f6bc42" opacity="0.51"/><circle cx="572" cy="334" r="3" fill="#f6bc42" opacity="0.52"/><circle cx="265" cy="245" r="3" fill="#f6bc42" opacity="0.53"/><circle cx="674" cy="156" r="3" fill="#f6bc42" opacity="0.54"/><circle cx="59" cy="37" r="3" fill="#f6bc42" opacity="0.63"/>
  <rect x="148" y="130" width="220" height="210" rx="18" fill="#fffaf4" stroke="#f6bc42" stroke-width="5"/><rect x="182" y="172" width="152" height="12" rx="6" fill="#15191d" opacity=".2"/><rect x="182" y="212" width="120" height="12" rx="6" fill="#15191d" opacity=".2"/><path d="M470 170h210L575 94z" fill="#15191d"/><rect x="500" y="190" width="32" height="120" rx="6" fill="#15191d"/><rect x="560" y="190" width="32" height="120" rx="6" fill="#15191d"/><rect x="620" y="190" width="32" height="120" rx="6" fill="#15191d"/>
</svg>
