<svg xmlns="http://www.w3.org/2000/svg" viewBox="0 0 800 420" role="img" aria-label="Ilustracion propia de historia y archivo para esta pregunta">
  <defs>
    <linearGradient id="bg" x1="0" x2="1" y1="0" y2="1">
      <stop stop-color="#fff4e4"/>
      <stop offset="1" stop-color="#f6bc42" stop-opacity="0.22"/>
    </linearGradient>
  </defs>
  <rect width="800" height="420" fill="url(#bg)"/>
  <circle cx="505" cy="238" r="111" fill="#15191d" opacity="0.13"/>
  <circle cx="297" cy="191" r="109" fill="#d9cec1" opacity="0.16"/>
  <circle cx="649" cy="314" r="4" fill="#f6bc42" opacity="0.34"/><circle cx="342" cy="225" r="4" fill="#f6bc42" opacity="0.35000000000000003"/><circle cx="547" cy="151" r="4" fill="#f6bc42" opacity="0.32"/><circle cx="240" cy="61" r="4" fill="#f6bc42" opacity="0.33"/><circle cx="445" cy="329" r="4" fill="#f6bc42" opacity="0.30000000000000004"/><circle cx="138" cy="240" r="4" fill="#f6bc42" opacity="0.31000000000000005"/><circle cx="343" cy="165" r="4" fill="#f6bc42" opacity="0.28"/><circle cx="752" cy="76" r="4" fill="#f6bc42" opacity="0.29000000000000004"/><circle cx="341" cy="285" r="4" fill="#f6bc42" opacity="0.42000000000000004"/>
  <rect x="202" y="130" width="220" height="210" rx="18" fill="#fffaf4" stroke="#f6bc42" stroke-width="5"/><rect x="236" y="172" width="152" height="12" rx="6" fill="#15191d" opacity=".2"/><rect x="236" y="212" width="120" height="12" rx="6" fill="#15191d" opacity=".2"/><path d="M470 170h210L575 94z" fill="#15191d"/><rect x="500" y="190" width="32" height="120" rx="6" fill="#15191d"/><rect x="560" y="190" width="32" height="120" rx="6" fill="#15191d"/><rect x="620" y="190" width="32" height="120" rx="6" fill="#15191d"/>
</svg>
