<svg xmlns="http://www.w3.org/2000/svg" viewBox="0 0 800 420" role="img" aria-label="Ilustracion propia de mapa y geografia para esta pregunta">
  <defs>
    <linearGradient id="bg" x1="0" x2="1" y1="0" y2="1">
      <stop stop-color="#eaf9f6"/>
      <stop offset="1" stop-color="#eaf9f6" stop-opacity="0.22"/>
    </linearGradient>
  </defs>
  <rect width="800" height="420" fill="url(#bg)"/>
  <circle cx="144" cy="132" r="80" fill="#fffaf4" opacity="0.13"/>
  <circle cx="552" cy="142" r="66" fill="#12b7a6" opacity="0.16"/>
  <circle cx="528" cy="258" r="5" fill="#ff4f6d" opacity="0.7"/><circle cx="119" cy="347" r="5" fill="#ff4f6d" opacity="0.69"/><circle cx="630" cy="79" r="5" fill="#ff4f6d" opacity="0.72"/><circle cx="221" cy="169" r="5" fill="#ff4f6d" opacity="0.71"/><circle cx="324" cy="272" r="5" fill="#ff4f6d" opacity="0.66"/><circle cx="631" cy="361" r="5" fill="#ff4f6d" opacity="0.65"/><circle cx="426" cy="94" r="5" fill="#ff4f6d" opacity="0.68"/><circle cx="733" cy="183" r="5" fill="#ff4f6d" opacity="0.67"/><circle cx="220" cy="229" r="5" fill="#ff4f6d" opacity="0.33"/>
  <path d="M100 84l170-42 160 50 170-42 100 42v244l-170 42-160-50-170 42-100-42z" fill="#12b7a6" stroke="#15191d" stroke-width="5" opacity=".94"/><path d="M270 42v286M430 92v286M600 50v286" stroke="#15191d" stroke-width="4" opacity=".16"/><path d="M126 184c80 22 106-36 176-8 72 28 94 88 182 48 86-40 128-8 184 44" fill="none" stroke="#ff4f6d" stroke-width="14" stroke-linecap="round"/><path d="M530 154c0 36-38 70-38 70s-38-34-38-70a38 38 0 0176 0z" fill="#fffaf4"/>
</svg>
