<svg xmlns="http://www.w3.org/2000/svg" viewBox="0 0 800 420" role="img" aria-label="Ilustracion propia de historia y archivo para esta pregunta">
  <defs>
    <linearGradient id="bg" x1="0" x2="1" y1="0" y2="1">
      <stop stop-color="#fff4e4"/>
      <stop offset="1" stop-color="#f6bc42" stop-opacity="0.22"/>
    </linearGradient>
  </defs>
  <rect width="800" height="420" fill="url(#bg)"/>
  <circle cx="279" cy="261" r="67" fill="#15191d" opacity="0.13"/>
  <circle cx="118" cy="158" r="64" fill="#d9cec1" opacity="0.16"/>
  <circle cx="539" cy="310" r="5" fill="#f6bc42" opacity="0.68"/><circle cx="232" cy="221" r="5" fill="#f6bc42" opacity="0.69"/><circle cx="641" cy="132" r="5" fill="#f6bc42" opacity="0.7"/><circle cx="334" cy="43" r="5" fill="#f6bc42" opacity="0.71"/><circle cx="335" cy="325" r="5" fill="#f6bc42" opacity="0.64"/><circle cx="744" cy="236" r="5" fill="#f6bc42" opacity="0.65"/><circle cx="437" cy="147" r="5" fill="#f6bc42" opacity="0.66"/><circle cx="130" cy="58" r="5" fill="#f6bc42" opacity="0.67"/><circle cx="231" cy="281" r="5" fill="#f6bc42" opacity="0.31000000000000005"/>
  <rect x="184" y="130" width="220" height="210" rx="18" fill="#fffaf4" stroke="#f6bc42" stroke-width="5"/><rect x="218" y="172" width="152" height="12" rx="6" fill="#15191d" opacity=".2"/><rect x="218" y="212" width="120" height="12" rx="6" fill="#15191d" opacity=".2"/><path d="M470 170h210L575 94z" fill="#15191d"/><rect x="500" y="190" width="32" height="120" rx="6" fill="#15191d"/><rect x="560" y="190" width="32" height="120" rx="6" fill="#15191d"/><rect x="620" y="190" width="32" height="120" rx="6" fill="#15191d"/>
</svg>
