<svg xmlns="http://www.w3.org/2000/svg" viewBox="0 0 800 420" role="img" aria-label="Ilustracion propia de videojuegos para esta pregunta">
  <defs>
    <linearGradient id="bg" x1="0" x2="1" y1="0" y2="1">
      <stop stop-color="#f4efff"/>
      <stop offset="1" stop-color="#15191d" stop-opacity="0.22"/>
    </linearGradient>
  </defs>
  <rect width="800" height="420" fill="url(#bg)"/>
  <circle cx="103" cy="238" r="130" fill="#15191d" opacity="0.13"/>
  <circle cx="171" cy="84" r="92" fill="#9b5cff" opacity="0.16"/>
  <circle cx="239" cy="187" r="3" fill="#12b7a6" opacity="0.51"/><circle cx="648" cy="98" r="3" fill="#12b7a6" opacity="0.52"/><circle cx="341" cy="351" r="3" fill="#12b7a6" opacity="0.53"/><circle cx="750" cy="262" r="3" fill="#12b7a6" opacity="0.54"/><circle cx="751" cy="202" r="3" fill="#12b7a6" opacity="0.47000000000000003"/><circle cx="444" cy="113" r="3" fill="#12b7a6" opacity="0.48000000000000004"/><circle cx="137" cy="365" r="3" fill="#12b7a6" opacity="0.49"/><circle cx="546" cy="276" r="3" fill="#12b7a6" opacity="0.5"/><circle cx="647" cy="158" r="3" fill="#12b7a6" opacity="0.5900000000000001"/>
  <path d="M226 160c40-54 310-54 348 0l58 104c24 44-12 86-58 64l-74-36H300l-74 36c-46 22-82-20-58-64z" fill="#15191d"/><path d="M284 232h82M325 191v82" stroke="#fff" stroke-width="20" stroke-linecap="round"/><circle cx="518" cy="218" r="20" fill="#12b7a6"/><circle cx="568" cy="252" r="20" fill="#fffaf4"/><circle cx="456" cy="252" r="20" fill="#12b7a6"/>
</svg>
