<svg xmlns="http://www.w3.org/2000/svg" viewBox="0 0 800 420" role="img" aria-label="Ilustracion propia de idiomas y conversacion para esta pregunta">
  <defs>
    <linearGradient id="bg" x1="0" x2="1" y1="0" y2="1">
      <stop stop-color="#eef7ff"/>
      <stop offset="1" stop-color="#ff4f6d" stop-opacity="0.22"/>
    </linearGradient>
  </defs>
  <rect width="800" height="420" fill="url(#bg)"/>
  <circle cx="681" cy="332" r="81" fill="#315be8" opacity="0.13"/>
  <circle cx="619" cy="238" r="76" fill="#ff4f6d" opacity="0.16"/>
  <circle cx="546" cy="79" r="5" fill="#12b7a6" opacity="0.6100000000000001"/><circle cx="137" cy="168" r="5" fill="#12b7a6" opacity="0.6000000000000001"/><circle cx="444" cy="258" r="2" fill="#12b7a6" opacity="0.5900000000000001"/><circle cx="751" cy="347" r="2" fill="#12b7a6" opacity="0.5800000000000001"/><circle cx="750" cy="65" r="5" fill="#12b7a6" opacity="0.65"/><circle cx="341" cy="154" r="5" fill="#12b7a6" opacity="0.64"/><circle cx="648" cy="243" r="5" fill="#12b7a6" opacity="0.63"/><circle cx="239" cy="332" r="5" fill="#12b7a6" opacity="0.6200000000000001"/><circle cx="238" cy="50" r="5" fill="#12b7a6" opacity="0.69"/>
  <rect x="122" y="92" width="250" height="142" rx="44" fill="#fffaf4" stroke="#315be8" stroke-width="8"/><path d="M198 230l-42 54 92-52" fill="#fffaf4" stroke="#315be8" stroke-width="8" stroke-linejoin="round"/><rect x="428" y="142" width="250" height="142" rx="44" fill="#fffaf4" stroke="#12b7a6" stroke-width="8"/><path d="M602 280l42 54-92-52" fill="#fffaf4" stroke="#12b7a6" stroke-width="8" stroke-linejoin="round"/><path d="M178 158h134M178 196h86M484 208h134M484 246h86" stroke="#15191d" stroke-width="14" stroke-linecap="round" opacity=".2"/>
</svg>
