<svg xmlns="http://www.w3.org/2000/svg" viewBox="0 0 800 420" role="img" aria-label="Ilustracion propia de idiomas y conversacion para esta pregunta">
  <defs>
    <linearGradient id="bg" x1="0" x2="1" y1="0" y2="1">
      <stop stop-color="#eef7ff"/>
      <stop offset="1" stop-color="#ff4f6d" stop-opacity="0.22"/>
    </linearGradient>
  </defs>
  <rect width="800" height="420" fill="url(#bg)"/>
  <circle cx="661" cy="99" r="127" fill="#315be8" opacity="0.13"/>
  <circle cx="166" cy="245" r="131" fill="#ff4f6d" opacity="0.16"/>
  <circle cx="144" cy="376" r="4" fill="#12b7a6" opacity="0.6200000000000001"/><circle cx="451" cy="123" r="4" fill="#12b7a6" opacity="0.6100000000000001"/><circle cx="246" cy="197" r="4" fill="#12b7a6" opacity="0.64"/><circle cx="553" cy="286" r="4" fill="#12b7a6" opacity="0.63"/><circle cx="348" cy="361" r="3" fill="#12b7a6" opacity="0.66"/><circle cx="655" cy="108" r="3" fill="#12b7a6" opacity="0.65"/><circle cx="450" cy="183" r="3" fill="#12b7a6" opacity="0.68"/><circle cx="757" cy="272" r="3" fill="#12b7a6" opacity="0.67"/><circle cx="452" cy="63" r="4" fill="#12b7a6" opacity="0.54"/>
  <rect x="122" y="92" width="250" height="142" rx="44" fill="#fffaf4" stroke="#315be8" stroke-width="8"/><path d="M198 230l-42 54 92-52" fill="#fffaf4" stroke="#315be8" stroke-width="8" stroke-linejoin="round"/><rect x="428" y="142" width="250" height="142" rx="44" fill="#fffaf4" stroke="#12b7a6" stroke-width="8"/><path d="M602 280l42 54-92-52" fill="#fffaf4" stroke="#12b7a6" stroke-width="8" stroke-linejoin="round"/><path d="M178 158h134M178 196h86M484 208h134M484 246h86" stroke="#15191d" stroke-width="14" stroke-linecap="round" opacity=".2"/>
</svg>
