<svg xmlns="http://www.w3.org/2000/svg" viewBox="0 0 800 420" role="img" aria-label="Ilustracion propia de idiomas y conversacion para esta pregunta">
  <defs>
    <linearGradient id="bg" x1="0" x2="1" y1="0" y2="1">
      <stop stop-color="#eef7ff"/>
      <stop offset="1" stop-color="#ff4f6d" stop-opacity="0.22"/>
    </linearGradient>
  </defs>
  <rect width="800" height="420" fill="url(#bg)"/>
  <circle cx="231" cy="178" r="83" fill="#315be8" opacity="0.13"/>
  <circle cx="112" cy="326" r="96" fill="#ff4f6d" opacity="0.16"/>
  <circle cx="588" cy="357" r="5" fill="#12b7a6" opacity="0.5700000000000001"/><circle cx="179" cy="104" r="5" fill="#12b7a6" opacity="0.56"/><circle cx="690" cy="179" r="5" fill="#12b7a6" opacity="0.5900000000000001"/><circle cx="281" cy="268" r="5" fill="#12b7a6" opacity="0.5800000000000001"/><circle cx="384" cy="372" r="5" fill="#12b7a6" opacity="0.53"/><circle cx="691" cy="119" r="5" fill="#12b7a6" opacity="0.52"/><circle cx="486" cy="193" r="5" fill="#12b7a6" opacity="0.55"/><circle cx="77" cy="282" r="5" fill="#12b7a6" opacity="0.54"/><circle cx="280" cy="328" r="5" fill="#12b7a6" opacity="0.65"/>
  <rect x="122" y="92" width="250" height="142" rx="44" fill="#fffaf4" stroke="#315be8" stroke-width="8"/><path d="M198 230l-42 54 92-52" fill="#fffaf4" stroke="#315be8" stroke-width="8" stroke-linejoin="round"/><rect x="428" y="142" width="250" height="142" rx="44" fill="#fffaf4" stroke="#12b7a6" stroke-width="8"/><path d="M602 280l42 54-92-52" fill="#fffaf4" stroke="#12b7a6" stroke-width="8" stroke-linejoin="round"/><path d="M178 158h134M178 196h86M484 208h134M484 246h86" stroke="#15191d" stroke-width="14" stroke-linecap="round" opacity=".2"/>
</svg>
