<svg xmlns="http://www.w3.org/2000/svg" viewBox="0 0 800 420" role="img" aria-label="Ilustracion propia de arte y museo para esta pregunta">
  <defs>
    <linearGradient id="bg" x1="0" x2="1" y1="0" y2="1">
      <stop stop-color="#fff2df"/>
      <stop offset="1" stop-color="#12b7a6" stop-opacity="0.22"/>
    </linearGradient>
  </defs>
  <rect width="800" height="420" fill="url(#bg)"/>
  <circle cx="426" cy="303" r="93" fill="#6f4a2d" opacity="0.13"/>
  <circle cx="662" cy="342" r="97" fill="#12b7a6" opacity="0.16"/>
  <circle cx="626" cy="44" r="5" fill="#ff4f6d" opacity="0.49"/><circle cx="217" cy="133" r="5" fill="#ff4f6d" opacity="0.48000000000000004"/><circle cx="524" cy="222" r="5" fill="#ff4f6d" opacity="0.47000000000000003"/><circle cx="115" cy="311" r="5" fill="#ff4f6d" opacity="0.46"/><circle cx="114" cy="371" r="5" fill="#ff4f6d" opacity="0.53"/><circle cx="421" cy="119" r="5" fill="#ff4f6d" opacity="0.52"/><circle cx="728" cy="208" r="5" fill="#ff4f6d" opacity="0.51"/><circle cx="319" cy="297" r="5" fill="#ff4f6d" opacity="0.5"/><circle cx="318" cy="357" r="4" fill="#ff4f6d" opacity="0.5700000000000001"/>
  <rect x="246" y="54" width="304" height="312" rx="24" fill="#6f4a2d"/><rect x="276" y="84" width="244" height="252" rx="16" fill="#d9c092"/><circle cx="398" cy="178" r="54" fill="#f0c7a5"/><path d="M328 318c12-82 42-120 70-120s58 38 70 120z" fill="#ff4f6d"/><path d="M342 154c36-72 116-46 122 10-36-18-74-18-122-10z" fill="#4a2d22"/>
</svg>
