<svg xmlns="http://www.w3.org/2000/svg" viewBox="0 0 800 420" role="img" aria-label="Ilustracion propia de oceano y olas para esta pregunta">
  <defs>
    <linearGradient id="bg" x1="0" x2="1" y1="0" y2="1">
      <stop stop-color="#dff8ff"/>
      <stop offset="1" stop-color="#315be8" stop-opacity="0.22"/>
    </linearGradient>
  </defs>
  <rect width="800" height="420" fill="url(#bg)"/>
  <circle cx="178" cy="172" r="111" fill="#12b7a6" opacity="0.13"/>
  <circle cx="481" cy="290" r="99" fill="#315be8" opacity="0.16"/>
  <circle cx="303" cy="135" r="3" fill="#fffaf4" opacity="0.7"/><circle cx="712" cy="46" r="3" fill="#fffaf4" opacity="0.71"/><circle cx="405" cy="298" r="3" fill="#fffaf4" opacity="0.72"/><circle cx="98" cy="209" r="3" fill="#fffaf4" opacity="0.28"/><circle cx="99" cy="149" r="3" fill="#fffaf4" opacity="0.66"/><circle cx="508" cy="60" r="3" fill="#fffaf4" opacity="0.67"/><circle cx="201" cy="313" r="3" fill="#fffaf4" opacity="0.68"/><circle cx="610" cy="224" r="3" fill="#fffaf4" opacity="0.69"/><circle cx="711" cy="106" r="3" fill="#fffaf4" opacity="0.33"/>
  <path d="M0 240c88-42 144 42 232 0s144 42 232 0 144 42 232 0 144 42 232 0v180H0z" fill="#fff" opacity=".34"/><path d="M0 306c88-42 144 42 232 0s144 42 232 0 144 42 232 0 144 42 232 0" fill="none" stroke="#fff" stroke-width="18" opacity=".62"/><path d="M142 174c82-44 170-44 252 0" fill="none" stroke="#fff" stroke-width="10" opacity=".45" stroke-linecap="round"/>
</svg>
