<svg xmlns="http://www.w3.org/2000/svg" viewBox="0 0 800 420" role="img" aria-label="Ilustracion propia de idiomas y conversacion para esta pregunta">
  <defs>
    <linearGradient id="bg" x1="0" x2="1" y1="0" y2="1">
      <stop stop-color="#eef7ff"/>
      <stop offset="1" stop-color="#eef7ff" stop-opacity="0.22"/>
    </linearGradient>
  </defs>
  <rect width="800" height="420" fill="url(#bg)"/>
  <circle cx="310" cy="96" r="124" fill="#315be8" opacity="0.13"/>
  <circle cx="347" cy="173" r="101" fill="#ff4f6d" opacity="0.16"/>
  <circle cx="408" cy="44" r="4" fill="#12b7a6" opacity="0.41000000000000003"/><circle cx="715" cy="133" r="4" fill="#12b7a6" opacity="0.4"/><circle cx="510" cy="208" r="4" fill="#12b7a6" opacity="0.43000000000000005"/><circle cx="101" cy="297" r="4" fill="#12b7a6" opacity="0.42000000000000004"/><circle cx="612" cy="371" r="4" fill="#12b7a6" opacity="0.45000000000000007"/><circle cx="203" cy="118" r="4" fill="#12b7a6" opacity="0.44000000000000006"/><circle cx="714" cy="193" r="4" fill="#12b7a6" opacity="0.47000000000000003"/><circle cx="305" cy="282" r="4" fill="#12b7a6" opacity="0.46"/><circle cx="100" cy="357" r="4" fill="#12b7a6" opacity="0.49"/>
  <rect x="122" y="92" width="250" height="142" rx="44" fill="#fffaf4" stroke="#315be8" stroke-width="8"/><path d="M198 230l-42 54 92-52" fill="#fffaf4" stroke="#315be8" stroke-width="8" stroke-linejoin="round"/><rect x="428" y="142" width="250" height="142" rx="44" fill="#fffaf4" stroke="#12b7a6" stroke-width="8"/><path d="M602 280l42 54-92-52" fill="#fffaf4" stroke="#12b7a6" stroke-width="8" stroke-linejoin="round"/><path d="M178 158h134M178 196h86M484 208h134M484 246h86" stroke="#15191d" stroke-width="14" stroke-linecap="round" opacity=".2"/>
</svg>
