<svg xmlns="http://www.w3.org/2000/svg" viewBox="0 0 800 420" role="img" aria-label="Ilustracion propia de oceano y olas para esta pregunta">
  <defs>
    <linearGradient id="bg" x1="0" x2="1" y1="0" y2="1">
      <stop stop-color="#dff8ff"/>
      <stop offset="1" stop-color="#315be8" stop-opacity="0.22"/>
    </linearGradient>
  </defs>
  <rect width="800" height="420" fill="url(#bg)"/>
  <circle cx="674" cy="327" r="139" fill="#12b7a6" opacity="0.13"/>
  <circle cx="693" cy="95" r="83" fill="#315be8" opacity="0.16"/>
  <circle cx="154" cy="174" r="3" fill="#fffaf4" opacity="0.41000000000000003"/><circle cx="461" cy="263" r="3" fill="#fffaf4" opacity="0.4"/><circle cx="52" cy="352" r="3" fill="#fffaf4" opacity="0.39"/><circle cx="359" cy="100" r="3" fill="#fffaf4" opacity="0.38"/><circle cx="666" cy="189" r="3" fill="#fffaf4" opacity="0.37"/><circle cx="257" cy="278" r="3" fill="#fffaf4" opacity="0.36000000000000004"/><circle cx="564" cy="367" r="3" fill="#fffaf4" opacity="0.35000000000000003"/><circle cx="155" cy="114" r="3" fill="#fffaf4" opacity="0.34"/><circle cx="562" cy="145" r="2" fill="#fffaf4" opacity="0.49"/>
  <path d="M0 240c88-42 144 42 232 0s144 42 232 0 144 42 232 0 144 42 232 0v180H0z" fill="#fff" opacity=".34"/><path d="M0 316c88-42 144 42 232 0s144 42 232 0 144 42 232 0 144 42 232 0" fill="none" stroke="#fff" stroke-width="18" opacity=".62"/><path d="M142 174c82-44 170-44 252 0" fill="none" stroke="#fff" stroke-width="10" opacity=".45" stroke-linecap="round"/>
</svg>
