<svg xmlns="http://www.w3.org/2000/svg" viewBox="0 0 800 420" role="img" aria-label="Ilustracion propia de naturaleza para esta pregunta">
  <defs>
    <linearGradient id="bg" x1="0" x2="1" y1="0" y2="1">
      <stop stop-color="#ecfbef"/>
      <stop offset="1" stop-color="#f6bc42" stop-opacity="0.22"/>
    </linearGradient>
  </defs>
  <rect width="800" height="420" fill="url(#bg)"/>
  <circle cx="159" cy="218" r="125" fill="#12b7a6" opacity="0.13"/>
  <circle cx="178" cy="81" r="111" fill="#315be8" opacity="0.16"/>
  <circle cx="59" cy="282" r="2" fill="#f6bc42" opacity="0.71"/><circle cx="468" cy="193" r="2" fill="#f6bc42" opacity="0.72"/><circle cx="161" cy="104" r="2" fill="#f6bc42" opacity="0.28"/><circle cx="570" cy="357" r="2" fill="#f6bc42" opacity="0.29000000000000004"/><circle cx="571" cy="297" r="2" fill="#f6bc42" opacity="0.67"/><circle cx="264" cy="208" r="2" fill="#f6bc42" opacity="0.68"/><circle cx="673" cy="118" r="2" fill="#f6bc42" opacity="0.69"/><circle cx="366" cy="371" r="2" fill="#f6bc42" opacity="0.7"/><circle cx="367" cy="311" r="2" fill="#f6bc42" opacity="0.63"/>
  <path d="M164 322c172-20 120-184 278-208 118-18 172 78 194 158-152 42-298 74-472 50z" fill="#315be8"/><path d="M214 300c138-68 244-104 390-118" stroke="#fff" stroke-width="14" stroke-linecap="round" opacity=".72"/><path d="M374 254c-28-52-20-104 24-156 72 30 102 82 84 150z" fill="#f6bc42" opacity=".88"/>
</svg>
