<svg xmlns="http://www.w3.org/2000/svg" viewBox="0 0 800 420" role="img" aria-label="Ilustracion propia de arte y museo para esta pregunta">
  <defs>
    <linearGradient id="bg" x1="0" x2="1" y1="0" y2="1">
      <stop stop-color="#fff2df"/>
      <stop offset="1" stop-color="#ff4f6d" stop-opacity="0.22"/>
    </linearGradient>
  </defs>
  <rect width="800" height="420" fill="url(#bg)"/>
  <circle cx="462" cy="99" r="117" fill="#6f4a2d" opacity="0.13"/>
  <circle cx="591" cy="138" r="120" fill="#12b7a6" opacity="0.16"/>
  <circle cx="54" cy="345" r="2" fill="#ff4f6d" opacity="0.53"/><circle cx="361" cy="92" r="2" fill="#ff4f6d" opacity="0.52"/><circle cx="668" cy="182" r="2" fill="#ff4f6d" opacity="0.51"/><circle cx="259" cy="271" r="2" fill="#ff4f6d" opacity="0.5"/><circle cx="258" cy="331" r="2" fill="#ff4f6d" opacity="0.5700000000000001"/><circle cx="565" cy="78" r="2" fill="#ff4f6d" opacity="0.56"/><circle cx="156" cy="167" r="2" fill="#ff4f6d" opacity="0.55"/><circle cx="463" cy="256" r="2" fill="#ff4f6d" opacity="0.54"/><circle cx="462" cy="316" r="2" fill="#ff4f6d" opacity="0.6100000000000001"/>
  <rect x="258" y="54" width="304" height="312" rx="24" fill="#6f4a2d"/><rect x="288" y="84" width="244" height="252" rx="16" fill="#d9c092"/><circle cx="410" cy="178" r="54" fill="#f0c7a5"/><path d="M340 318c12-82 42-120 70-120s58 38 70 120z" fill="#ff4f6d"/><path d="M354 154c36-72 116-46 122 10-36-18-74-18-122-10z" fill="#4a2d22"/>
</svg>
