<svg xmlns="http://www.w3.org/2000/svg" viewBox="0 0 800 420" role="img" aria-label="Ilustracion propia de estadio y futbol generico para esta pregunta">
  <defs>
    <linearGradient id="bg" x1="0" x2="1" y1="0" y2="1">
      <stop stop-color="#eaf8f5"/>
      <stop offset="1" stop-color="#15191d" stop-opacity="0.22"/>
    </linearGradient>
  </defs>
  <rect width="800" height="420" fill="url(#bg)"/>
  <circle cx="143" cy="76" r="127" fill="#26b99f" opacity="0.13"/>
  <circle cx="626" cy="314" r="91" fill="#f6bc42" opacity="0.16"/>
  <circle cx="65" cy="340" r="4" fill="#15191d" opacity="0.42000000000000004"/><circle cx="474" cy="251" r="4" fill="#15191d" opacity="0.43000000000000005"/><circle cx="679" cy="176" r="5" fill="#15191d" opacity="0.4"/><circle cx="372" cy="87" r="4" fill="#15191d" opacity="0.41000000000000003"/><circle cx="577" cy="354" r="5" fill="#15191d" opacity="0.38"/><circle cx="270" cy="265" r="5" fill="#15191d" opacity="0.39"/><circle cx="475" cy="191" r="5" fill="#15191d" opacity="0.36000000000000004"/><circle cx="168" cy="101" r="5" fill="#15191d" opacity="0.37"/><circle cx="473" cy="311" r="4" fill="#15191d" opacity="0.5"/>
  <rect x="118" y="78" width="564" height="264" rx="26" fill="#f6bc42"/><path d="M400 78v264M118 210h564" stroke="#fff" stroke-width="7" opacity=".76"/><circle cx="400" cy="210" r="58" fill="none" stroke="#fff" stroke-width="7" opacity=".76"/><circle cx="296" cy="200" r="32" fill="#fff"/><path d="M264 200h64M296 168v64" stroke="#26b99f" stroke-width="5" opacity=".5"/>
</svg>
