<svg xmlns="http://www.w3.org/2000/svg" viewBox="0 0 800 420" role="img" aria-label="Ilustracion propia de estadio y futbol generico para esta pregunta">
  <defs>
    <linearGradient id="bg" x1="0" x2="1" y1="0" y2="1">
      <stop stop-color="#eaf8f5"/>
      <stop offset="1" stop-color="#f6bc42" stop-opacity="0.22"/>
    </linearGradient>
  </defs>
  <rect width="800" height="420" fill="url(#bg)"/>
  <circle cx="490" cy="167" r="97" fill="#26b99f" opacity="0.13"/>
  <circle cx="445" cy="218" r="128" fill="#f6bc42" opacity="0.16"/>
  <circle cx="118" cy="359" r="2" fill="#15191d" opacity="0.43000000000000005"/><circle cx="425" cy="106" r="2" fill="#15191d" opacity="0.42000000000000004"/><circle cx="732" cy="195" r="2" fill="#15191d" opacity="0.41000000000000003"/><circle cx="323" cy="284" r="2" fill="#15191d" opacity="0.4"/><circle cx="630" cy="373" r="2" fill="#15191d" opacity="0.39"/><circle cx="221" cy="120" r="2" fill="#15191d" opacity="0.38"/><circle cx="528" cy="209" r="2" fill="#15191d" opacity="0.37"/><circle cx="119" cy="299" r="2" fill="#15191d" opacity="0.36000000000000004"/><circle cx="526" cy="329" r="2" fill="#15191d" opacity="0.51"/>
  <rect x="118" y="78" width="564" height="264" rx="26" fill="#f6bc42"/><path d="M400 78v264M118 210h564" stroke="#fff" stroke-width="7" opacity=".76"/><circle cx="400" cy="210" r="58" fill="none" stroke="#fff" stroke-width="7" opacity=".76"/><circle cx="372" cy="236" r="32" fill="#fff"/><path d="M340 236h64M372 204v64" stroke="#26b99f" stroke-width="5" opacity=".5"/>
</svg>
