<svg xmlns="http://www.w3.org/2000/svg" viewBox="0 0 800 420" role="img" aria-label="Ilustracion propia de estadio y futbol generico para esta pregunta">
  <defs>
    <linearGradient id="bg" x1="0" x2="1" y1="0" y2="1">
      <stop stop-color="#eaf8f5"/>
      <stop offset="1" stop-color="#f6bc42" stop-opacity="0.22"/>
    </linearGradient>
  </defs>
  <rect width="800" height="420" fill="url(#bg)"/>
  <circle cx="242" cy="87" r="81" fill="#26b99f" opacity="0.13"/>
  <circle cx="189" cy="65" r="136" fill="#f6bc42" opacity="0.16"/>
  <circle cx="271" cy="305" r="4" fill="#15191d" opacity="0.37"/><circle cx="680" cy="216" r="4" fill="#15191d" opacity="0.38"/><circle cx="373" cy="127" r="4" fill="#15191d" opacity="0.39"/><circle cx="66" cy="38" r="4" fill="#15191d" opacity="0.4"/><circle cx="67" cy="320" r="4" fill="#15191d" opacity="0.33"/><circle cx="476" cy="230" r="4" fill="#15191d" opacity="0.34"/><circle cx="169" cy="141" r="4" fill="#15191d" opacity="0.35000000000000003"/><circle cx="578" cy="52" r="4" fill="#15191d" opacity="0.36000000000000004"/><circle cx="679" cy="276" r="3" fill="#15191d" opacity="0.45000000000000007"/>
  <rect x="118" y="78" width="564" height="264" rx="26" fill="#f6bc42"/><path d="M400 78v264M118 210h564" stroke="#fff" stroke-width="7" opacity=".76"/><circle cx="400" cy="210" r="58" fill="none" stroke="#fff" stroke-width="7" opacity=".76"/><circle cx="258" cy="182" r="32" fill="#fff"/><path d="M226 182h64M258 150v64" stroke="#26b99f" stroke-width="5" opacity=".5"/>
</svg>
