<svg xmlns="http://www.w3.org/2000/svg" viewBox="0 0 800 420" role="img" aria-label="Ilustracion propia de estadio y futbol generico para esta pregunta">
  <defs>
    <linearGradient id="bg" x1="0" x2="1" y1="0" y2="1">
      <stop stop-color="#eaf8f5"/>
      <stop offset="1" stop-color="#eaf8f5" stop-opacity="0.22"/>
    </linearGradient>
  </defs>
  <rect width="800" height="420" fill="url(#bg)"/>
  <circle cx="532" cy="77" r="118" fill="#26b99f" opacity="0.13"/>
  <circle cx="150" cy="63" r="140" fill="#f6bc42" opacity="0.16"/>
  <circle cx="499" cy="263" r="3" fill="#15191d" opacity="0.63"/><circle cx="192" cy="174" r="3" fill="#15191d" opacity="0.64"/><circle cx="601" cy="85" r="3" fill="#15191d" opacity="0.65"/><circle cx="294" cy="337" r="3" fill="#15191d" opacity="0.66"/><circle cx="295" cy="277" r="3" fill="#15191d" opacity="0.5900000000000001"/><circle cx="704" cy="188" r="3" fill="#15191d" opacity="0.6000000000000001"/><circle cx="397" cy="99" r="3" fill="#15191d" opacity="0.6100000000000001"/><circle cx="90" cy="352" r="3" fill="#15191d" opacity="0.6200000000000001"/><circle cx="191" cy="234" r="3" fill="#15191d" opacity="0.71"/>
  <rect x="118" y="78" width="564" height="264" rx="26" fill="#f6bc42"/><path d="M400 78v264M118 210h564" stroke="#fff" stroke-width="7" opacity=".76"/><circle cx="400" cy="210" r="58" fill="none" stroke="#fff" stroke-width="7" opacity=".76"/><circle cx="258" cy="182" r="32" fill="#fff"/><path d="M226 182h64M258 150v64" stroke="#26b99f" stroke-width="5" opacity=".5"/>
</svg>
