<svg xmlns="http://www.w3.org/2000/svg" viewBox="0 0 800 420" role="img" aria-label="Ilustracion propia de oceano y olas para esta pregunta">
  <defs>
    <linearGradient id="bg" x1="0" x2="1" y1="0" y2="1">
      <stop stop-color="#dff8ff"/>
      <stop offset="1" stop-color="#fffaf4" stop-opacity="0.22"/>
    </linearGradient>
  </defs>
  <rect width="800" height="420" fill="url(#bg)"/>
  <circle cx="200" cy="187" r="129" fill="#12b7a6" opacity="0.13"/>
  <circle cx="484" cy="292" r="102" fill="#315be8" opacity="0.16"/>
  <circle cx="545" cy="90" r="4" fill="#fffaf4" opacity="0.5700000000000001"/><circle cx="238" cy="342" r="4" fill="#fffaf4" opacity="0.5800000000000001"/><circle cx="443" cy="268" r="4" fill="#fffaf4" opacity="0.55"/><circle cx="136" cy="179" r="4" fill="#fffaf4" opacity="0.56"/><circle cx="341" cy="104" r="4" fill="#fffaf4" opacity="0.53"/><circle cx="750" cy="357" r="4" fill="#fffaf4" opacity="0.54"/><circle cx="239" cy="282" r="4" fill="#fffaf4" opacity="0.51"/><circle cx="648" cy="193" r="4" fill="#fffaf4" opacity="0.52"/><circle cx="237" cy="60" r="4" fill="#fffaf4" opacity="0.65"/>
  <path d="M0 240c88-42 144 42 232 0s144 42 232 0 144 42 232 0 144 42 232 0v180H0z" fill="#fff" opacity=".34"/><path d="M0 326c88-42 144 42 232 0s144 42 232 0 144 42 232 0 144 42 232 0" fill="none" stroke="#fff" stroke-width="18" opacity=".62"/><path d="M142 174c82-44 170-44 252 0" fill="none" stroke="#fff" stroke-width="10" opacity=".45" stroke-linecap="round"/>
</svg>
