<svg xmlns="http://www.w3.org/2000/svg" viewBox="0 0 800 420" role="img" aria-label="Ilustracion propia de estadio y futbol generico para esta pregunta">
  <defs>
    <linearGradient id="bg" x1="0" x2="1" y1="0" y2="1">
      <stop stop-color="#eaf8f5"/>
      <stop offset="1" stop-color="#26b99f" stop-opacity="0.22"/>
    </linearGradient>
  </defs>
  <rect width="800" height="420" fill="url(#bg)"/>
  <circle cx="528" cy="134" r="84" fill="#26b99f" opacity="0.13"/>
  <circle cx="600" cy="321" r="106" fill="#f6bc42" opacity="0.16"/>
  <circle cx="592" cy="88" r="3" fill="#15191d" opacity="0.56"/><circle cx="183" cy="177" r="3" fill="#15191d" opacity="0.55"/><circle cx="694" cy="251" r="3" fill="#15191d" opacity="0.5800000000000001"/><circle cx="285" cy="340" r="3" fill="#15191d" opacity="0.5700000000000001"/><circle cx="388" cy="102" r="3" fill="#15191d" opacity="0.52"/><circle cx="695" cy="191" r="3" fill="#15191d" opacity="0.51"/><circle cx="490" cy="266" r="3" fill="#15191d" opacity="0.54"/><circle cx="81" cy="355" r="3" fill="#15191d" opacity="0.53"/><circle cx="284" cy="58" r="3" fill="#15191d" opacity="0.64"/>
  <rect x="118" y="78" width="564" height="264" rx="26" fill="#f6bc42"/><path d="M400 78v264M118 210h564" stroke="#fff" stroke-width="7" opacity=".76"/><circle cx="400" cy="210" r="58" fill="none" stroke="#fff" stroke-width="7" opacity=".76"/><circle cx="296" cy="200" r="32" fill="#fff"/><path d="M264 200h64M296 168v64" stroke="#26b99f" stroke-width="5" opacity=".5"/>
</svg>
