<svg xmlns="http://www.w3.org/2000/svg" viewBox="0 0 800 420" role="img" aria-label="Ilustracion propia de estadio y futbol generico para esta pregunta">
  <defs>
    <linearGradient id="bg" x1="0" x2="1" y1="0" y2="1">
      <stop stop-color="#eaf8f5"/>
      <stop offset="1" stop-color="#26b99f" stop-opacity="0.22"/>
    </linearGradient>
  </defs>
  <rect width="800" height="420" fill="url(#bg)"/>
  <circle cx="328" cy="208" r="100" fill="#26b99f" opacity="0.13"/>
  <circle cx="425" cy="330" r="78" fill="#f6bc42" opacity="0.16"/>
  <circle cx="444" cy="79" r="4" fill="#15191d" opacity="0.51"/><circle cx="751" cy="168" r="4" fill="#15191d" opacity="0.5"/><circle cx="546" cy="242" r="4" fill="#15191d" opacity="0.53"/><circle cx="137" cy="331" r="4" fill="#15191d" opacity="0.52"/><circle cx="648" cy="64" r="4" fill="#15191d" opacity="0.55"/><circle cx="239" cy="153" r="4" fill="#15191d" opacity="0.54"/><circle cx="750" cy="228" r="4" fill="#15191d" opacity="0.5700000000000001"/><circle cx="341" cy="317" r="4" fill="#15191d" opacity="0.56"/><circle cx="752" cy="108" r="5" fill="#15191d" opacity="0.43000000000000005"/>
  <rect x="118" y="78" width="564" height="264" rx="26" fill="#f6bc42"/><path d="M400 78v264M118 210h564" stroke="#fff" stroke-width="7" opacity=".76"/><circle cx="400" cy="210" r="58" fill="none" stroke="#fff" stroke-width="7" opacity=".76"/><circle cx="296" cy="200" r="32" fill="#fff"/><path d="M264 200h64M296 168v64" stroke="#26b99f" stroke-width="5" opacity=".5"/>
</svg>
