<svg xmlns="http://www.w3.org/2000/svg" viewBox="0 0 800 420" role="img" aria-label="Ilustracion propia de historia y archivo para esta pregunta">
  <defs>
    <linearGradient id="bg" x1="0" x2="1" y1="0" y2="1">
      <stop stop-color="#fff4e4"/>
      <stop offset="1" stop-color="#15191d" stop-opacity="0.22"/>
    </linearGradient>
  </defs>
  <rect width="800" height="420" fill="url(#bg)"/>
  <circle cx="223" cy="106" r="128" fill="#15191d" opacity="0.13"/>
  <circle cx="186" cy="139" r="142" fill="#d9cec1" opacity="0.16"/>
  <circle cx="195" cy="110" r="4" fill="#f6bc42" opacity="0.32"/><circle cx="604" cy="363" r="4" fill="#f6bc42" opacity="0.33"/><circle cx="297" cy="274" r="4" fill="#f6bc42" opacity="0.34"/><circle cx="706" cy="185" r="4" fill="#f6bc42" opacity="0.35000000000000003"/><circle cx="707" cy="125" r="4" fill="#f6bc42" opacity="0.28"/><circle cx="400" cy="36" r="4" fill="#f6bc42" opacity="0.29000000000000004"/><circle cx="93" cy="288" r="4" fill="#f6bc42" opacity="0.30000000000000004"/><circle cx="502" cy="199" r="4" fill="#f6bc42" opacity="0.31000000000000005"/><circle cx="603" cy="81" r="4" fill="#f6bc42" opacity="0.4"/>
  <rect x="166" y="130" width="220" height="210" rx="18" fill="#fffaf4" stroke="#f6bc42" stroke-width="5"/><rect x="200" y="172" width="152" height="12" rx="6" fill="#15191d" opacity=".2"/><rect x="200" y="212" width="120" height="12" rx="6" fill="#15191d" opacity=".2"/><path d="M470 170h210L575 94z" fill="#15191d"/><rect x="500" y="190" width="32" height="120" rx="6" fill="#15191d"/><rect x="560" y="190" width="32" height="120" rx="6" fill="#15191d"/><rect x="620" y="190" width="32" height="120" rx="6" fill="#15191d"/>
</svg>
