<svg xmlns="http://www.w3.org/2000/svg" viewBox="0 0 800 420" role="img" aria-label="Ilustracion propia de oceano y olas para esta pregunta">
  <defs>
    <linearGradient id="bg" x1="0" x2="1" y1="0" y2="1">
      <stop stop-color="#dff8ff"/>
      <stop offset="1" stop-color="#dff8ff" stop-opacity="0.22"/>
    </linearGradient>
  </defs>
  <rect width="800" height="420" fill="url(#bg)"/>
  <circle cx="507" cy="335" r="134" fill="#12b7a6" opacity="0.13"/>
  <circle cx="222" cy="203" r="92" fill="#315be8" opacity="0.16"/>
  <circle cx="162" cy="223" r="2" fill="#fffaf4" opacity="0.53"/><circle cx="469" cy="312" r="2" fill="#fffaf4" opacity="0.52"/><circle cx="60" cy="60" r="2" fill="#fffaf4" opacity="0.51"/><circle cx="367" cy="149" r="2" fill="#fffaf4" opacity="0.5"/><circle cx="366" cy="209" r="2" fill="#fffaf4" opacity="0.5700000000000001"/><circle cx="673" cy="298" r="2" fill="#fffaf4" opacity="0.56"/><circle cx="264" cy="45" r="2" fill="#fffaf4" opacity="0.55"/><circle cx="571" cy="134" r="2" fill="#fffaf4" opacity="0.54"/><circle cx="470" cy="252" r="2" fill="#fffaf4" opacity="0.45000000000000007"/>
  <path d="M0 240c88-42 144 42 232 0s144 42 232 0 144 42 232 0 144 42 232 0v180H0z" fill="#fff" opacity=".34"/><path d="M0 296c88-42 144 42 232 0s144 42 232 0 144 42 232 0 144 42 232 0" fill="none" stroke="#fff" stroke-width="18" opacity=".62"/><path d="M142 174c82-44 170-44 252 0" fill="none" stroke="#fff" stroke-width="10" opacity=".45" stroke-linecap="round"/>
</svg>
