<svg xmlns="http://www.w3.org/2000/svg" viewBox="0 0 800 420" role="img" aria-label="Ilustracion propia de historia y archivo para esta pregunta">
  <defs>
    <linearGradient id="bg" x1="0" x2="1" y1="0" y2="1">
      <stop stop-color="#fff4e4"/>
      <stop offset="1" stop-color="#d9cec1" stop-opacity="0.22"/>
    </linearGradient>
  </defs>
  <rect width="800" height="420" fill="url(#bg)"/>
  <circle cx="365" cy="257" r="109" fill="#15191d" opacity="0.13"/>
  <circle cx="279" cy="157" r="89" fill="#d9cec1" opacity="0.16"/>
  <circle cx="378" cy="99" r="3" fill="#f6bc42" opacity="0.42000000000000004"/><circle cx="685" cy="188" r="3" fill="#f6bc42" opacity="0.41000000000000003"/><circle cx="276" cy="277" r="3" fill="#f6bc42" opacity="0.4"/><circle cx="583" cy="366" r="3" fill="#f6bc42" opacity="0.39"/><circle cx="174" cy="113" r="3" fill="#f6bc42" opacity="0.38"/><circle cx="481" cy="202" r="3" fill="#f6bc42" opacity="0.37"/><circle cx="72" cy="292" r="3" fill="#f6bc42" opacity="0.36000000000000004"/><circle cx="379" cy="39" r="3" fill="#f6bc42" opacity="0.35000000000000003"/><circle cx="686" cy="128" r="3" fill="#f6bc42" opacity="0.34"/>
  <rect x="202" y="130" width="220" height="210" rx="18" fill="#fffaf4" stroke="#f6bc42" stroke-width="5"/><rect x="236" y="172" width="152" height="12" rx="6" fill="#15191d" opacity=".2"/><rect x="236" y="212" width="120" height="12" rx="6" fill="#15191d" opacity=".2"/><path d="M470 170h210L575 94z" fill="#15191d"/><rect x="500" y="190" width="32" height="120" rx="6" fill="#15191d"/><rect x="560" y="190" width="32" height="120" rx="6" fill="#15191d"/><rect x="620" y="190" width="32" height="120" rx="6" fill="#15191d"/>
</svg>
