<svg xmlns="http://www.w3.org/2000/svg" viewBox="0 0 800 420" role="img" aria-label="Ilustracion propia de historia y archivo para esta pregunta">
  <defs>
    <linearGradient id="bg" x1="0" x2="1" y1="0" y2="1">
      <stop stop-color="#fff4e4"/>
      <stop offset="1" stop-color="#f6bc42" stop-opacity="0.22"/>
    </linearGradient>
  </defs>
  <rect width="800" height="420" fill="url(#bg)"/>
  <circle cx="306" cy="332" r="103" fill="#15191d" opacity="0.13"/>
  <circle cx="122" cy="131" r="98" fill="#d9cec1" opacity="0.16"/>
  <circle cx="296" cy="225" r="4" fill="#f6bc42" opacity="0.5900000000000001"/><circle cx="603" cy="314" r="4" fill="#f6bc42" opacity="0.5800000000000001"/><circle cx="398" cy="46" r="4" fill="#f6bc42" opacity="0.6100000000000001"/><circle cx="705" cy="136" r="4" fill="#f6bc42" opacity="0.6000000000000001"/><circle cx="92" cy="239" r="4" fill="#f6bc42" opacity="0.55"/><circle cx="399" cy="328" r="4" fill="#f6bc42" opacity="0.54"/><circle cx="194" cy="61" r="4" fill="#f6bc42" opacity="0.5700000000000001"/><circle cx="501" cy="150" r="4" fill="#f6bc42" opacity="0.56"/><circle cx="604" cy="254" r="4" fill="#f6bc42" opacity="0.51"/>
  <rect x="130" y="130" width="220" height="210" rx="18" fill="#fffaf4" stroke="#f6bc42" stroke-width="5"/><rect x="164" y="172" width="152" height="12" rx="6" fill="#15191d" opacity=".2"/><rect x="164" y="212" width="120" height="12" rx="6" fill="#15191d" opacity=".2"/><path d="M470 170h210L575 94z" fill="#15191d"/><rect x="500" y="190" width="32" height="120" rx="6" fill="#15191d"/><rect x="560" y="190" width="32" height="120" rx="6" fill="#15191d"/><rect x="620" y="190" width="32" height="120" rx="6" fill="#15191d"/>
</svg>
