<svg xmlns="http://www.w3.org/2000/svg" viewBox="0 0 800 420" role="img" aria-label="Ilustracion propia de historia y archivo para esta pregunta">
  <defs>
    <linearGradient id="bg" x1="0" x2="1" y1="0" y2="1">
      <stop stop-color="#fff4e4"/>
      <stop offset="1" stop-color="#fff4e4" stop-opacity="0.22"/>
    </linearGradient>
  </defs>
  <rect width="800" height="420" fill="url(#bg)"/>
  <circle cx="367" cy="158" r="118" fill="#15191d" opacity="0.13"/>
  <circle cx="129" cy="74" r="70" fill="#d9cec1" opacity="0.16"/>
  <circle cx="312" cy="189" r="5" fill="#f6bc42" opacity="0.52"/><circle cx="619" cy="279" r="2" fill="#f6bc42" opacity="0.51"/><circle cx="414" cy="353" r="5" fill="#f6bc42" opacity="0.54"/><circle cx="721" cy="100" r="5" fill="#f6bc42" opacity="0.53"/><circle cx="516" cy="175" r="5" fill="#f6bc42" opacity="0.56"/><circle cx="107" cy="264" r="5" fill="#f6bc42" opacity="0.55"/><circle cx="618" cy="339" r="5" fill="#f6bc42" opacity="0.5800000000000001"/><circle cx="209" cy="86" r="5" fill="#f6bc42" opacity="0.5700000000000001"/><circle cx="620" cy="219" r="2" fill="#f6bc42" opacity="0.44000000000000006"/>
  <rect x="148" y="130" width="220" height="210" rx="18" fill="#fffaf4" stroke="#f6bc42" stroke-width="5"/><rect x="182" y="172" width="152" height="12" rx="6" fill="#15191d" opacity=".2"/><rect x="182" y="212" width="120" height="12" rx="6" fill="#15191d" opacity=".2"/><path d="M470 170h210L575 94z" fill="#15191d"/><rect x="500" y="190" width="32" height="120" rx="6" fill="#15191d"/><rect x="560" y="190" width="32" height="120" rx="6" fill="#15191d"/><rect x="620" y="190" width="32" height="120" rx="6" fill="#15191d"/>
</svg>
