<svg xmlns="http://www.w3.org/2000/svg" viewBox="0 0 800 420" role="img" aria-label="Ilustracion propia de idiomas y conversacion para esta pregunta">
  <defs>
    <linearGradient id="bg" x1="0" x2="1" y1="0" y2="1">
      <stop stop-color="#eef7ff"/>
      <stop offset="1" stop-color="#315be8" stop-opacity="0.22"/>
    </linearGradient>
  </defs>
  <rect width="800" height="420" fill="url(#bg)"/>
  <circle cx="98" cy="280" r="74" fill="#315be8" opacity="0.13"/>
  <circle cx="321" cy="268" r="125" fill="#ff4f6d" opacity="0.16"/>
  <circle cx="561" cy="290" r="3" fill="#12b7a6" opacity="0.56"/><circle cx="254" cy="201" r="3" fill="#12b7a6" opacity="0.5700000000000001"/><circle cx="459" cy="126" r="3" fill="#12b7a6" opacity="0.54"/><circle cx="152" cy="37" r="3" fill="#12b7a6" opacity="0.55"/><circle cx="357" cy="304" r="3" fill="#12b7a6" opacity="0.52"/><circle cx="50" cy="215" r="3" fill="#12b7a6" opacity="0.53"/><circle cx="255" cy="141" r="3" fill="#12b7a6" opacity="0.5"/><circle cx="664" cy="52" r="3" fill="#12b7a6" opacity="0.51"/><circle cx="153" cy="319" r="3" fill="#12b7a6" opacity="0.48000000000000004"/>
  <rect x="122" y="92" width="250" height="142" rx="44" fill="#fffaf4" stroke="#315be8" stroke-width="8"/><path d="M198 230l-42 54 92-52" fill="#fffaf4" stroke="#315be8" stroke-width="8" stroke-linejoin="round"/><rect x="428" y="142" width="250" height="142" rx="44" fill="#fffaf4" stroke="#12b7a6" stroke-width="8"/><path d="M602 280l42 54-92-52" fill="#fffaf4" stroke="#12b7a6" stroke-width="8" stroke-linejoin="round"/><path d="M178 158h134M178 196h86M484 208h134M484 246h86" stroke="#15191d" stroke-width="14" stroke-linecap="round" opacity=".2"/>
</svg>
