<svg xmlns="http://www.w3.org/2000/svg" viewBox="0 0 800 420" role="img" aria-label="Ilustracion propia de oceano y olas para esta pregunta">
  <defs>
    <linearGradient id="bg" x1="0" x2="1" y1="0" y2="1">
      <stop stop-color="#dff8ff"/>
      <stop offset="1" stop-color="#315be8" stop-opacity="0.22"/>
    </linearGradient>
  </defs>
  <rect width="800" height="420" fill="url(#bg)"/>
  <circle cx="530" cy="238" r="119" fill="#12b7a6" opacity="0.13"/>
  <circle cx="225" cy="155" r="130" fill="#315be8" opacity="0.16"/>
  <circle cx="125" cy="121" r="5" fill="#fffaf4" opacity="0.36000000000000004"/><circle cx="534" cy="374" r="5" fill="#fffaf4" opacity="0.37"/><circle cx="739" cy="299" r="5" fill="#fffaf4" opacity="0.34"/><circle cx="432" cy="210" r="5" fill="#fffaf4" opacity="0.35000000000000003"/><circle cx="329" cy="106" r="5" fill="#fffaf4" opacity="0.4"/><circle cx="738" cy="359" r="5" fill="#fffaf4" opacity="0.41000000000000003"/><circle cx="227" cy="285" r="5" fill="#fffaf4" opacity="0.38"/><circle cx="636" cy="196" r="5" fill="#fffaf4" opacity="0.39"/><circle cx="433" cy="150" r="5" fill="#fffaf4" opacity="0.28"/>
  <path d="M0 240c88-42 144 42 232 0s144 42 232 0 144 42 232 0 144 42 232 0v180H0z" fill="#fff" opacity=".34"/><path d="M0 326c88-42 144 42 232 0s144 42 232 0 144 42 232 0 144 42 232 0" fill="none" stroke="#fff" stroke-width="18" opacity=".62"/><path d="M142 174c82-44 170-44 252 0" fill="none" stroke="#fff" stroke-width="10" opacity=".45" stroke-linecap="round"/>
</svg>
