<svg xmlns="http://www.w3.org/2000/svg" viewBox="0 0 800 420" role="img" aria-label="Ilustracion propia de cine y rodaje para esta pregunta">
  <defs>
    <linearGradient id="bg" x1="0" x2="1" y1="0" y2="1">
      <stop stop-color="#15191d"/>
      <stop offset="1" stop-color="#ff4f6d" stop-opacity="0.22"/>
    </linearGradient>
  </defs>
  <rect width="800" height="420" fill="url(#bg)"/>
  <circle cx="391" cy="92" r="107" fill="#fffaf4" opacity="0.13"/>
  <circle cx="507" cy="137" r="79" fill="#f6bc42" opacity="0.16"/>
  <circle cx="638" cy="103" r="2" fill="#ff4f6d" opacity="0.5700000000000001"/><circle cx="229" cy="192" r="2" fill="#ff4f6d" opacity="0.56"/><circle cx="536" cy="281" r="2" fill="#ff4f6d" opacity="0.55"/><circle cx="127" cy="370" r="2" fill="#ff4f6d" opacity="0.54"/><circle cx="126" cy="88" r="2" fill="#ff4f6d" opacity="0.6100000000000001"/><circle cx="433" cy="177" r="2" fill="#ff4f6d" opacity="0.6000000000000001"/><circle cx="740" cy="266" r="2" fill="#ff4f6d" opacity="0.5900000000000001"/><circle cx="331" cy="355" r="2" fill="#ff4f6d" opacity="0.5800000000000001"/><circle cx="230" cy="132" r="2" fill="#ff4f6d" opacity="0.49"/>
  <rect width="800" height="420" fill="#fffaf4"/><circle cx="620" cy="90" r="120" fill="#ff4f6d" opacity=".42"/><rect x="190" y="182" width="420" height="198" rx="22" fill="#f6bc42"/><rect x="190" y="108" width="420" height="70" rx="18" fill="#fffaf4"/><path d="M228 108l58 70M330 108l58 70M432 108l58 70M534 108l58 70" stroke="#fffaf4" stroke-width="20"/><rect x="244" y="254" width="312" height="18" rx="9" fill="#fffaf4" opacity=".16"/>
</svg>
