<svg xmlns="http://www.w3.org/2000/svg" viewBox="0 0 800 420" role="img" aria-label="Ilustracion propia de cine y rodaje para esta pregunta">
  <defs>
    <linearGradient id="bg" x1="0" x2="1" y1="0" y2="1">
      <stop stop-color="#15191d"/>
      <stop offset="1" stop-color="#15191d" stop-opacity="0.22"/>
    </linearGradient>
  </defs>
  <rect width="800" height="420" fill="url(#bg)"/>
  <circle cx="676" cy="250" r="116" fill="#fffaf4" opacity="0.13"/>
  <circle cx="243" cy="85" r="70" fill="#f6bc42" opacity="0.16"/>
  <circle cx="283" cy="71" r="5" fill="#ff4f6d" opacity="0.7"/><circle cx="692" cy="323" r="5" fill="#ff4f6d" opacity="0.71"/><circle cx="385" cy="234" r="5" fill="#ff4f6d" opacity="0.72"/><circle cx="78" cy="145" r="5" fill="#ff4f6d" opacity="0.28"/><circle cx="79" cy="85" r="5" fill="#ff4f6d" opacity="0.66"/><circle cx="488" cy="338" r="5" fill="#ff4f6d" opacity="0.67"/><circle cx="181" cy="249" r="5" fill="#ff4f6d" opacity="0.68"/><circle cx="590" cy="160" r="5" fill="#ff4f6d" opacity="0.69"/><circle cx="691" cy="41" r="5" fill="#ff4f6d" opacity="0.33"/>
  <rect width="800" height="420" fill="#fffaf4"/><circle cx="620" cy="90" r="120" fill="#ff4f6d" opacity=".42"/><rect x="190" y="182" width="420" height="198" rx="22" fill="#f6bc42"/><rect x="190" y="108" width="420" height="70" rx="18" fill="#fffaf4"/><path d="M228 108l58 70M330 108l58 70M432 108l58 70M534 108l58 70" stroke="#fffaf4" stroke-width="20"/><rect x="244" y="254" width="312" height="18" rx="9" fill="#fffaf4" opacity=".16"/>
</svg>
