<svg xmlns="http://www.w3.org/2000/svg" viewBox="0 0 800 420" role="img" aria-label="Ilustracion propia de cine y rodaje para esta pregunta">
  <defs>
    <linearGradient id="bg" x1="0" x2="1" y1="0" y2="1">
      <stop stop-color="#15191d"/>
      <stop offset="1" stop-color="#ff4f6d" stop-opacity="0.22"/>
    </linearGradient>
  </defs>
  <rect width="800" height="420" fill="url(#bg)"/>
  <circle cx="284" cy="311" r="131" fill="#fffaf4" opacity="0.13"/>
  <circle cx="269" cy="200" r="72" fill="#f6bc42" opacity="0.16"/>
  <circle cx="70" cy="267" r="5" fill="#ff4f6d" opacity="0.64"/><circle cx="377" cy="356" r="5" fill="#ff4f6d" opacity="0.63"/><circle cx="684" cy="103" r="5" fill="#ff4f6d" opacity="0.6200000000000001"/><circle cx="275" cy="192" r="5" fill="#ff4f6d" opacity="0.6100000000000001"/><circle cx="274" cy="252" r="4" fill="#ff4f6d" opacity="0.68"/><circle cx="581" cy="342" r="4" fill="#ff4f6d" opacity="0.67"/><circle cx="172" cy="89" r="5" fill="#ff4f6d" opacity="0.66"/><circle cx="479" cy="178" r="5" fill="#ff4f6d" opacity="0.65"/><circle cx="378" cy="296" r="5" fill="#ff4f6d" opacity="0.56"/>
  <rect width="800" height="420" fill="#fffaf4"/><circle cx="500" cy="168" r="120" fill="#ff4f6d" opacity=".42"/><rect x="190" y="182" width="420" height="198" rx="22" fill="#f6bc42"/><rect x="190" y="132" width="420" height="70" rx="18" fill="#fffaf4"/><path d="M228 132l58 70M330 132l58 70M432 132l58 70M534 132l58 70" stroke="#fffaf4" stroke-width="20"/><rect x="244" y="254" width="312" height="18" rx="9" fill="#fffaf4" opacity=".16"/>
</svg>
