<svg xmlns="http://www.w3.org/2000/svg" viewBox="0 0 800 420" role="img" aria-label="Ilustracion propia de cine y rodaje para esta pregunta">
  <defs>
    <linearGradient id="bg" x1="0" x2="1" y1="0" y2="1">
      <stop stop-color="#15191d"/>
      <stop offset="1" stop-color="#f6bc42" stop-opacity="0.22"/>
    </linearGradient>
  </defs>
  <rect width="800" height="420" fill="url(#bg)"/>
  <circle cx="250" cy="178" r="107" fill="#fffaf4" opacity="0.13"/>
  <circle cx="490" cy="112" r="89" fill="#f6bc42" opacity="0.16"/>
  <circle cx="290" cy="141" r="2" fill="#ff4f6d" opacity="0.6200000000000001"/><circle cx="597" cy="230" r="2" fill="#ff4f6d" opacity="0.6100000000000001"/><circle cx="188" cy="319" r="2" fill="#ff4f6d" opacity="0.6000000000000001"/><circle cx="495" cy="66" r="2" fill="#ff4f6d" opacity="0.5900000000000001"/><circle cx="86" cy="155" r="2" fill="#ff4f6d" opacity="0.5800000000000001"/><circle cx="393" cy="245" r="2" fill="#ff4f6d" opacity="0.5700000000000001"/><circle cx="700" cy="334" r="2" fill="#ff4f6d" opacity="0.56"/><circle cx="291" cy="81" r="2" fill="#ff4f6d" opacity="0.55"/><circle cx="698" cy="112" r="2" fill="#ff4f6d" opacity="0.7"/>
  <rect width="800" height="420" fill="#fffaf4"/><circle cx="460" cy="194" r="120" fill="#ff4f6d" opacity=".42"/><rect x="190" y="182" width="420" height="198" rx="22" fill="#f6bc42"/><rect x="190" y="140" width="420" height="70" rx="18" fill="#fffaf4"/><path d="M228 140l58 70M330 140l58 70M432 140l58 70M534 140l58 70" stroke="#fffaf4" stroke-width="20"/><rect x="244" y="254" width="312" height="18" rx="9" fill="#fffaf4" opacity=".16"/>
</svg>
