<svg xmlns="http://www.w3.org/2000/svg" viewBox="0 0 800 420" role="img" aria-label="Ilustracion propia de arte y museo para esta pregunta">
  <defs>
    <linearGradient id="bg" x1="0" x2="1" y1="0" y2="1">
      <stop stop-color="#fff2df"/>
      <stop offset="1" stop-color="#12b7a6" stop-opacity="0.22"/>
    </linearGradient>
  </defs>
  <rect width="800" height="420" fill="url(#bg)"/>
  <circle cx="557" cy="298" r="75" fill="#6f4a2d" opacity="0.13"/>
  <circle cx="528" cy="198" r="95" fill="#12b7a6" opacity="0.16"/>
  <circle cx="462" cy="285" r="3" fill="#ff4f6d" opacity="0.53"/><circle cx="53" cy="375" r="3" fill="#ff4f6d" opacity="0.52"/><circle cx="360" cy="122" r="3" fill="#ff4f6d" opacity="0.51"/><circle cx="667" cy="211" r="3" fill="#ff4f6d" opacity="0.5"/><circle cx="258" cy="300" r="3" fill="#ff4f6d" opacity="0.49"/><circle cx="565" cy="47" r="3" fill="#ff4f6d" opacity="0.48000000000000004"/><circle cx="156" cy="136" r="4" fill="#ff4f6d" opacity="0.47000000000000003"/><circle cx="463" cy="225" r="4" fill="#ff4f6d" opacity="0.46"/><circle cx="54" cy="315" r="4" fill="#ff4f6d" opacity="0.45000000000000007"/>
  <rect x="258" y="54" width="304" height="312" rx="24" fill="#6f4a2d"/><rect x="288" y="84" width="244" height="252" rx="16" fill="#d9c092"/><circle cx="410" cy="178" r="54" fill="#f0c7a5"/><path d="M340 318c12-82 42-120 70-120s58 38 70 120z" fill="#ff4f6d"/><path d="M354 154c36-72 116-46 122 10-36-18-74-18-122-10z" fill="#4a2d22"/>
</svg>
