<svg xmlns="http://www.w3.org/2000/svg" viewBox="0 0 800 420" role="img" aria-label="Ilustracion propia de espacio y planetas para esta pregunta">
  <defs>
    <linearGradient id="bg" x1="0" x2="1" y1="0" y2="1">
      <stop stop-color="#12171a"/>
      <stop offset="1" stop-color="#e46b4f" stop-opacity="0.22"/>
    </linearGradient>
  </defs>
  <rect width="800" height="420" fill="url(#bg)"/>
  <circle cx="137" cy="236" r="92" fill="#e46b4f" opacity="0.13"/>
  <circle cx="401" cy="262" r="77" fill="#f6bc42" opacity="0.16"/>
  <circle cx="222" cy="305" r="3" fill="#315be8" opacity="0.56"/><circle cx="529" cy="52" r="3" fill="#315be8" opacity="0.55"/><circle cx="120" cy="141" r="3" fill="#315be8" opacity="0.54"/><circle cx="427" cy="230" r="3" fill="#315be8" opacity="0.53"/><circle cx="734" cy="319" r="3" fill="#315be8" opacity="0.52"/><circle cx="325" cy="67" r="3" fill="#315be8" opacity="0.51"/><circle cx="632" cy="156" r="3" fill="#315be8" opacity="0.5"/><circle cx="223" cy="245" r="3" fill="#315be8" opacity="0.49"/><circle cx="530" cy="334" r="3" fill="#315be8" opacity="0.48000000000000004"/>
  <rect width="800" height="420" fill="#e46b4f"/><circle cx="320" cy="218" r="77" fill="#f6bc42"/><path d="M230 212c36 14 66-22 112-2" stroke="#8f3327" stroke-width="12" stroke-linecap="round" opacity=".36"/><circle cx="484" cy="178" r="52" fill="#315be8"/><circle cx="560" cy="276" r="32" fill="#fffaf4"/><path d="M176 324c140 46 308 54 476 0" stroke="#fff" stroke-width="5" fill="none" opacity=".38"/>
</svg>
