<svg xmlns="http://www.w3.org/2000/svg" viewBox="0 0 800 420" role="img" aria-label="Ilustracion propia de naturaleza para esta pregunta">
  <defs>
    <linearGradient id="bg" x1="0" x2="1" y1="0" y2="1">
      <stop stop-color="#ecfbef"/>
      <stop offset="1" stop-color="#ecfbef" stop-opacity="0.22"/>
    </linearGradient>
  </defs>
  <rect width="800" height="420" fill="url(#bg)"/>
  <circle cx="627" cy="109" r="96" fill="#12b7a6" opacity="0.13"/>
  <circle cx="462" cy="210" r="98" fill="#315be8" opacity="0.16"/>
  <circle cx="673" cy="216" r="4" fill="#f6bc42" opacity="0.63"/><circle cx="366" cy="127" r="4" fill="#f6bc42" opacity="0.64"/><circle cx="571" cy="53" r="4" fill="#f6bc42" opacity="0.6100000000000001"/><circle cx="264" cy="305" r="4" fill="#f6bc42" opacity="0.6200000000000001"/><circle cx="469" cy="231" r="4" fill="#f6bc42" opacity="0.5900000000000001"/><circle cx="162" cy="142" r="4" fill="#f6bc42" opacity="0.6000000000000001"/><circle cx="367" cy="67" r="4" fill="#f6bc42" opacity="0.5700000000000001"/><circle cx="60" cy="320" r="4" fill="#f6bc42" opacity="0.5800000000000001"/><circle cx="365" cy="187" r="4" fill="#f6bc42" opacity="0.71"/>
  <path d="M164 322c172-20 120-184 278-208 118-18 172 78 194 158-152 42-298 74-472 50z" fill="#315be8"/><path d="M214 300c138-68 244-104 390-118" stroke="#fff" stroke-width="14" stroke-linecap="round" opacity=".72"/><path d="M334 254c-28-52-20-104 24-156 72 30 102 82 84 150z" fill="#f6bc42" opacity=".88"/>
</svg>
