<svg xmlns="http://www.w3.org/2000/svg" viewBox="0 0 800 420" role="img" aria-label="Ilustracion propia de laboratorio cientifico para esta pregunta">
  <defs>
    <linearGradient id="bg" x1="0" x2="1" y1="0" y2="1">
      <stop stop-color="#edf9ff"/>
      <stop offset="1" stop-color="#12b7a6" stop-opacity="0.22"/>
    </linearGradient>
  </defs>
  <rect width="800" height="420" fill="url(#bg)"/>
  <circle cx="335" cy="217" r="133" fill="#fffaf4" opacity="0.13"/>
  <circle cx="350" cy="188" r="122" fill="#12b7a6" opacity="0.16"/>
  <circle cx="693" cy="349" r="3" fill="#ff4f6d" opacity="0.72"/><circle cx="386" cy="260" r="3" fill="#ff4f6d" opacity="0.28"/><circle cx="591" cy="185" r="3" fill="#ff4f6d" opacity="0.7"/><circle cx="284" cy="96" r="3" fill="#ff4f6d" opacity="0.71"/><circle cx="489" cy="364" r="3" fill="#ff4f6d" opacity="0.68"/><circle cx="182" cy="275" r="3" fill="#ff4f6d" opacity="0.69"/><circle cx="387" cy="200" r="3" fill="#ff4f6d" opacity="0.66"/><circle cx="80" cy="111" r="3" fill="#ff4f6d" opacity="0.67"/><circle cx="385" cy="320" r="3" fill="#ff4f6d" opacity="0.35000000000000003"/>
  <path d="M390 74h116v28l-38 76v84c0 48-39 86-86 86h-8c-47 0-86-38-86-86v-84l-38-76V74h116z" fill="#12b7a6" stroke="#15191d" stroke-width="8"/><path d="M290 230h132v38c0 31-25 56-56 56h-20c-31 0-56-25-56-56z" fill="#ff4f6d" opacity=".85"/><circle cx="406" cy="250" r="12" fill="#fff"/><circle cx="308" cy="280" r="18" fill="#fff"/><path d="M528 118l68 118 68-118" fill="none" stroke="#fffaf4" stroke-width="15" stroke-linejoin="round"/>
</svg>
