<svg xmlns="http://www.w3.org/2000/svg" viewBox="0 0 800 420" role="img" aria-label="Ilustracion propia de laboratorio cientifico para esta pregunta">
  <defs>
    <linearGradient id="bg" x1="0" x2="1" y1="0" y2="1">
      <stop stop-color="#edf9ff"/>
      <stop offset="1" stop-color="#ff4f6d" stop-opacity="0.22"/>
    </linearGradient>
  </defs>
  <rect width="800" height="420" fill="url(#bg)"/>
  <circle cx="246" cy="179" r="93" fill="#fffaf4" opacity="0.13"/>
  <circle cx="639" cy="255" r="87" fill="#12b7a6" opacity="0.16"/>
  <circle cx="523" cy="250" r="3" fill="#ff4f6d" opacity="0.65"/><circle cx="216" cy="161" r="3" fill="#ff4f6d" opacity="0.66"/><circle cx="625" cy="72" r="3" fill="#ff4f6d" opacity="0.67"/><circle cx="318" cy="324" r="3" fill="#ff4f6d" opacity="0.68"/><circle cx="319" cy="264" r="3" fill="#ff4f6d" opacity="0.6100000000000001"/><circle cx="728" cy="175" r="3" fill="#ff4f6d" opacity="0.6200000000000001"/><circle cx="421" cy="86" r="3" fill="#ff4f6d" opacity="0.63"/><circle cx="114" cy="339" r="3" fill="#ff4f6d" opacity="0.64"/><circle cx="115" cy="279" r="3" fill="#ff4f6d" opacity="0.5700000000000001"/>
  <path d="M350 74h116v28l-38 76v84c0 48-39 86-86 86h-8c-47 0-86-38-86-86v-84l-38-76V74h116z" fill="#12b7a6" stroke="#15191d" stroke-width="8"/><path d="M290 230h132v38c0 31-25 56-56 56h-20c-31 0-56-25-56-56z" fill="#ff4f6d" opacity=".85"/><circle cx="326" cy="250" r="12" fill="#fff"/><circle cx="380" cy="280" r="18" fill="#fff"/><path d="M528 118l68 118 68-118" fill="none" stroke="#fffaf4" stroke-width="15" stroke-linejoin="round"/>
</svg>
