<svg xmlns="http://www.w3.org/2000/svg" viewBox="0 0 800 420" role="img" aria-label="Ilustracion propia de laboratorio cientifico para esta pregunta">
  <defs>
    <linearGradient id="bg" x1="0" x2="1" y1="0" y2="1">
      <stop stop-color="#edf9ff"/>
      <stop offset="1" stop-color="#12b7a6" stop-opacity="0.22"/>
    </linearGradient>
  </defs>
  <rect width="800" height="420" fill="url(#bg)"/>
  <circle cx="473" cy="183" r="103" fill="#fffaf4" opacity="0.13"/>
  <circle cx="668" cy="255" r="128" fill="#12b7a6" opacity="0.16"/>
  <circle cx="241" cy="318" r="2" fill="#ff4f6d" opacity="0.31000000000000005"/><circle cx="650" cy="228" r="2" fill="#ff4f6d" opacity="0.32"/><circle cx="139" cy="154" r="2" fill="#ff4f6d" opacity="0.29000000000000004"/><circle cx="548" cy="65" r="2" fill="#ff4f6d" opacity="0.30000000000000004"/><circle cx="445" cy="303" r="2" fill="#ff4f6d" opacity="0.35000000000000003"/><circle cx="138" cy="214" r="2" fill="#ff4f6d" opacity="0.36000000000000004"/><circle cx="343" cy="139" r="2" fill="#ff4f6d" opacity="0.33"/><circle cx="752" cy="50" r="2" fill="#ff4f6d" opacity="0.34"/><circle cx="549" cy="347" r="2" fill="#ff4f6d" opacity="0.68"/>
  <path d="M370 74h116v28l-38 76v84c0 48-39 86-86 86h-8c-47 0-86-38-86-86v-84l-38-76V74h116z" fill="#12b7a6" stroke="#15191d" stroke-width="8"/><path d="M290 230h132v38c0 31-25 56-56 56h-20c-31 0-56-25-56-56z" fill="#ff4f6d" opacity=".85"/><circle cx="366" cy="250" r="12" fill="#fff"/><circle cx="344" cy="280" r="18" fill="#fff"/><path d="M528 118l68 118 68-118" fill="none" stroke="#fffaf4" stroke-width="15" stroke-linejoin="round"/>
</svg>
