<svg xmlns="http://www.w3.org/2000/svg" viewBox="0 0 800 420" role="img" aria-label="Ilustracion propia de oceano y olas para esta pregunta">
  <defs>
    <linearGradient id="bg" x1="0" x2="1" y1="0" y2="1">
      <stop stop-color="#dff8ff"/>
      <stop offset="1" stop-color="#dff8ff" stop-opacity="0.22"/>
    </linearGradient>
  </defs>
  <rect width="800" height="420" fill="url(#bg)"/>
  <circle cx="99" cy="190" r="72" fill="#12b7a6" opacity="0.13"/>
  <circle cx="171" cy="328" r="115" fill="#315be8" opacity="0.16"/>
  <circle cx="366" cy="303" r="4" fill="#fffaf4" opacity="0.42000000000000004"/><circle cx="673" cy="50" r="4" fill="#fffaf4" opacity="0.41000000000000003"/><circle cx="264" cy="139" r="4" fill="#fffaf4" opacity="0.4"/><circle cx="571" cy="228" r="4" fill="#fffaf4" opacity="0.39"/><circle cx="570" cy="288" r="3" fill="#fffaf4" opacity="0.46"/><circle cx="161" cy="377" r="3" fill="#fffaf4" opacity="0.45000000000000007"/><circle cx="468" cy="124" r="3" fill="#fffaf4" opacity="0.44000000000000006"/><circle cx="59" cy="214" r="3" fill="#fffaf4" opacity="0.43000000000000005"/><circle cx="58" cy="273" r="3" fill="#fffaf4" opacity="0.5"/>
  <path d="M0 240c88-42 144 42 232 0s144 42 232 0 144 42 232 0 144 42 232 0v180H0z" fill="#fff" opacity=".34"/><path d="M0 316c88-42 144 42 232 0s144 42 232 0 144 42 232 0 144 42 232 0" fill="none" stroke="#fff" stroke-width="18" opacity=".62"/><path d="M142 174c82-44 170-44 252 0" fill="none" stroke="#fff" stroke-width="10" opacity=".45" stroke-linecap="round"/>
</svg>
