<svg xmlns="http://www.w3.org/2000/svg" viewBox="0 0 800 420" role="img" aria-label="Ilustracion propia de laboratorio cientifico para esta pregunta">
  <defs>
    <linearGradient id="bg" x1="0" x2="1" y1="0" y2="1">
      <stop stop-color="#edf9ff"/>
      <stop offset="1" stop-color="#fffaf4" stop-opacity="0.22"/>
    </linearGradient>
  </defs>
  <rect width="800" height="420" fill="url(#bg)"/>
  <circle cx="485" cy="96" r="116" fill="#fffaf4" opacity="0.13"/>
  <circle cx="144" cy="66" r="120" fill="#12b7a6" opacity="0.16"/>
  <circle cx="201" cy="141" r="5" fill="#ff4f6d" opacity="0.7"/><circle cx="610" cy="52" r="5" fill="#ff4f6d" opacity="0.71"/><circle cx="99" cy="319" r="2" fill="#ff4f6d" opacity="0.68"/><circle cx="508" cy="230" r="2" fill="#ff4f6d" opacity="0.69"/><circle cx="405" cy="126" r="5" fill="#ff4f6d" opacity="0.29000000000000004"/><circle cx="98" cy="37" r="5" fill="#ff4f6d" opacity="0.30000000000000004"/><circle cx="303" cy="305" r="5" fill="#ff4f6d" opacity="0.72"/><circle cx="712" cy="215" r="5" fill="#ff4f6d" opacity="0.28"/><circle cx="609" cy="112" r="5" fill="#ff4f6d" opacity="0.33"/>
  <path d="M390 74h116v28l-38 76v84c0 48-39 86-86 86h-8c-47 0-86-38-86-86v-84l-38-76V74h116z" fill="#12b7a6" stroke="#15191d" stroke-width="8"/><path d="M290 230h132v38c0 31-25 56-56 56h-20c-31 0-56-25-56-56z" fill="#ff4f6d" opacity=".85"/><circle cx="406" cy="250" r="12" fill="#fff"/><circle cx="308" cy="280" r="18" fill="#fff"/><path d="M528 118l68 118 68-118" fill="none" stroke="#fffaf4" stroke-width="15" stroke-linejoin="round"/>
</svg>
