<svg xmlns="http://www.w3.org/2000/svg" viewBox="0 0 800 420" role="img" aria-label="Ilustracion propia de naturaleza para esta pregunta">
  <defs>
    <linearGradient id="bg" x1="0" x2="1" y1="0" y2="1">
      <stop stop-color="#ecfbef"/>
      <stop offset="1" stop-color="#315be8" stop-opacity="0.22"/>
    </linearGradient>
  </defs>
  <rect width="800" height="420" fill="url(#bg)"/>
  <circle cx="405" cy="75" r="137" fill="#12b7a6" opacity="0.13"/>
  <circle cx="359" cy="135" r="133" fill="#315be8" opacity="0.16"/>
  <circle cx="395" cy="320" r="5" fill="#f6bc42" opacity="0.6100000000000001"/><circle cx="88" cy="231" r="5" fill="#f6bc42" opacity="0.6200000000000001"/><circle cx="497" cy="142" r="5" fill="#f6bc42" opacity="0.63"/><circle cx="190" cy="52" r="5" fill="#f6bc42" opacity="0.64"/><circle cx="191" cy="334" r="5" fill="#f6bc42" opacity="0.5700000000000001"/><circle cx="600" cy="245" r="5" fill="#f6bc42" opacity="0.5800000000000001"/><circle cx="293" cy="156" r="5" fill="#f6bc42" opacity="0.5900000000000001"/><circle cx="702" cy="67" r="5" fill="#f6bc42" opacity="0.6000000000000001"/><circle cx="703" cy="349" r="5" fill="#f6bc42" opacity="0.53"/>
  <path d="M164 322c172-20 120-184 278-208 118-18 172 78 194 158-152 42-298 74-472 50z" fill="#315be8"/><path d="M214 300c138-68 244-104 390-118" stroke="#fff" stroke-width="14" stroke-linecap="round" opacity=".72"/><path d="M394 254c-28-52-20-104 24-156 72 30 102 82 84 150z" fill="#f6bc42" opacity=".88"/>
</svg>
