<svg xmlns="http://www.w3.org/2000/svg" viewBox="0 0 800 420" role="img" aria-label="Ilustracion propia de laboratorio cientifico para esta pregunta">
  <defs>
    <linearGradient id="bg" x1="0" x2="1" y1="0" y2="1">
      <stop stop-color="#edf9ff"/>
      <stop offset="1" stop-color="#ff4f6d" stop-opacity="0.22"/>
    </linearGradient>
  </defs>
  <rect width="800" height="420" fill="url(#bg)"/>
  <circle cx="550" cy="195" r="65" fill="#fffaf4" opacity="0.13"/>
  <circle cx="452" cy="150" r="134" fill="#12b7a6" opacity="0.16"/>
  <circle cx="324" cy="163" r="5" fill="#ff4f6d" opacity="0.63"/><circle cx="631" cy="253" r="5" fill="#ff4f6d" opacity="0.6200000000000001"/><circle cx="426" cy="327" r="5" fill="#ff4f6d" opacity="0.65"/><circle cx="733" cy="74" r="5" fill="#ff4f6d" opacity="0.64"/><circle cx="528" cy="149" r="5" fill="#ff4f6d" opacity="0.67"/><circle cx="119" cy="238" r="5" fill="#ff4f6d" opacity="0.66"/><circle cx="630" cy="313" r="5" fill="#ff4f6d" opacity="0.69"/><circle cx="221" cy="60" r="5" fill="#ff4f6d" opacity="0.68"/><circle cx="632" cy="193" r="5" fill="#ff4f6d" opacity="0.55"/>
  <path d="M390 74h116v28l-38 76v84c0 48-39 86-86 86h-8c-47 0-86-38-86-86v-84l-38-76V74h116z" fill="#12b7a6" stroke="#15191d" stroke-width="8"/><path d="M290 230h132v38c0 31-25 56-56 56h-20c-31 0-56-25-56-56z" fill="#ff4f6d" opacity=".85"/><circle cx="406" cy="250" r="12" fill="#fff"/><circle cx="308" cy="280" r="18" fill="#fff"/><path d="M528 118l68 118 68-118" fill="none" stroke="#fffaf4" stroke-width="15" stroke-linejoin="round"/>
</svg>
