<svg xmlns="http://www.w3.org/2000/svg" viewBox="0 0 800 420" role="img" aria-label="Ilustracion propia de laboratorio cientifico para esta pregunta">
  <defs>
    <linearGradient id="bg" x1="0" x2="1" y1="0" y2="1">
      <stop stop-color="#edf9ff"/>
      <stop offset="1" stop-color="#edf9ff" stop-opacity="0.22"/>
    </linearGradient>
  </defs>
  <rect width="800" height="420" fill="url(#bg)"/>
  <circle cx="195" cy="209" r="68" fill="#fffaf4" opacity="0.13"/>
  <circle cx="108" cy="330" r="114" fill="#12b7a6" opacity="0.16"/>
  <circle cx="757" cy="346" r="5" fill="#ff4f6d" opacity="0.37"/><circle cx="450" cy="257" r="5" fill="#ff4f6d" opacity="0.38"/><circle cx="655" cy="183" r="5" fill="#ff4f6d" opacity="0.35000000000000003"/><circle cx="348" cy="94" r="5" fill="#ff4f6d" opacity="0.36000000000000004"/><circle cx="245" cy="332" r="5" fill="#ff4f6d" opacity="0.41000000000000003"/><circle cx="654" cy="243" r="5" fill="#ff4f6d" opacity="0.42000000000000004"/><circle cx="143" cy="168" r="5" fill="#ff4f6d" opacity="0.39"/><circle cx="552" cy="79" r="5" fill="#ff4f6d" opacity="0.4"/><circle cx="349" cy="376" r="5" fill="#ff4f6d" opacity="0.29000000000000004"/>
  <path d="M390 74h116v28l-38 76v84c0 48-39 86-86 86h-8c-47 0-86-38-86-86v-84l-38-76V74h116z" fill="#12b7a6" stroke="#15191d" stroke-width="8"/><path d="M290 230h132v38c0 31-25 56-56 56h-20c-31 0-56-25-56-56z" fill="#ff4f6d" opacity=".85"/><circle cx="406" cy="250" r="12" fill="#fff"/><circle cx="308" cy="280" r="18" fill="#fff"/><path d="M528 118l68 118 68-118" fill="none" stroke="#fffaf4" stroke-width="15" stroke-linejoin="round"/>
</svg>
