<svg xmlns="http://www.w3.org/2000/svg" viewBox="0 0 800 420" role="img" aria-label="Ilustracion propia de anatomia humana para esta pregunta">
  <defs>
    <linearGradient id="bg" x1="0" x2="1" y1="0" y2="1">
      <stop stop-color="#fff0f3"/>
      <stop offset="1" stop-color="#fff0f3" stop-opacity="0.22"/>
    </linearGradient>
  </defs>
  <rect width="800" height="420" fill="url(#bg)"/>
  <circle cx="239" cy="139" r="94" fill="#ffb99c" opacity="0.13"/>
  <circle cx="638" cy="214" r="117" fill="#ff4f6d" opacity="0.16"/>
  <circle cx="692" cy="300" r="3" fill="#15191d" opacity="0.63"/><circle cx="283" cy="48" r="3" fill="#15191d" opacity="0.6200000000000001"/><circle cx="78" cy="122" r="3" fill="#15191d" opacity="0.65"/><circle cx="385" cy="211" r="3" fill="#15191d" opacity="0.64"/><circle cx="488" cy="315" r="3" fill="#15191d" opacity="0.5900000000000001"/><circle cx="79" cy="62" r="3" fill="#15191d" opacity="0.5800000000000001"/><circle cx="590" cy="137" r="3" fill="#15191d" opacity="0.6100000000000001"/><circle cx="181" cy="226" r="3" fill="#15191d" opacity="0.6000000000000001"/><circle cx="384" cy="271" r="3" fill="#15191d" opacity="0.71"/>
  <circle cx="400" cy="104" r="46" fill="#ff4f6d"/><path d="M322 352c10-122 28-184 78-184s68 62 78 184z" fill="#fffaf4" stroke="#15191d" stroke-width="8"/><path d="M400 168v184M330 230h140" stroke="#15191d" stroke-width="12" stroke-linecap="round" opacity=".72"/><path d="M316 208c-58 26-90 70-98 134M484 208c58 26 90 70 98 134" stroke="#15191d" stroke-width="18" stroke-linecap="round" opacity=".62"/>
</svg>
