<svg xmlns="http://www.w3.org/2000/svg" viewBox="0 0 800 420" role="img" aria-label="Ilustracion propia de laboratorio cientifico para esta pregunta">
  <defs>
    <linearGradient id="bg" x1="0" x2="1" y1="0" y2="1">
      <stop stop-color="#edf9ff"/>
      <stop offset="1" stop-color="#ff4f6d" stop-opacity="0.22"/>
    </linearGradient>
  </defs>
  <rect width="800" height="420" fill="url(#bg)"/>
  <circle cx="470" cy="203" r="71" fill="#fffaf4" opacity="0.13"/>
  <circle cx="142" cy="115" r="64" fill="#12b7a6" opacity="0.16"/>
  <circle cx="65" cy="197" r="3" fill="#ff4f6d" opacity="0.64"/><circle cx="474" cy="108" r="3" fill="#ff4f6d" opacity="0.65"/><circle cx="679" cy="375" r="3" fill="#ff4f6d" opacity="0.6200000000000001"/><circle cx="372" cy="286" r="3" fill="#ff4f6d" opacity="0.63"/><circle cx="269" cy="182" r="3" fill="#ff4f6d" opacity="0.68"/><circle cx="678" cy="93" r="3" fill="#ff4f6d" opacity="0.69"/><circle cx="167" cy="361" r="3" fill="#ff4f6d" opacity="0.66"/><circle cx="576" cy="271" r="3" fill="#ff4f6d" opacity="0.67"/><circle cx="373" cy="226" r="4" fill="#ff4f6d" opacity="0.56"/>
  <path d="M390 74h116v28l-38 76v84c0 48-39 86-86 86h-8c-47 0-86-38-86-86v-84l-38-76V74h116z" fill="#12b7a6" stroke="#15191d" stroke-width="8"/><path d="M290 230h132v38c0 31-25 56-56 56h-20c-31 0-56-25-56-56z" fill="#ff4f6d" opacity=".85"/><circle cx="406" cy="250" r="12" fill="#fff"/><circle cx="308" cy="280" r="18" fill="#fff"/><path d="M528 118l68 118 68-118" fill="none" stroke="#fffaf4" stroke-width="15" stroke-linejoin="round"/>
</svg>
