<svg xmlns="http://www.w3.org/2000/svg" viewBox="0 0 800 420" role="img" aria-label="Ilustracion propia de espacio y planetas para esta pregunta">
  <defs>
    <linearGradient id="bg" x1="0" x2="1" y1="0" y2="1">
      <stop stop-color="#12171a"/>
      <stop offset="1" stop-color="#e46b4f" stop-opacity="0.22"/>
    </linearGradient>
  </defs>
  <rect width="800" height="420" fill="url(#bg)"/>
  <circle cx="328" cy="303" r="78" fill="#e46b4f" opacity="0.13"/>
  <circle cx="575" cy="127" r="75" fill="#f6bc42" opacity="0.16"/>
  <circle cx="295" cy="270" r="4" fill="#315be8" opacity="0.69"/><circle cx="704" cy="181" r="4" fill="#315be8" opacity="0.7"/><circle cx="397" cy="92" r="4" fill="#315be8" opacity="0.71"/><circle cx="90" cy="345" r="4" fill="#315be8" opacity="0.72"/><circle cx="499" cy="256" r="4" fill="#315be8" opacity="0.28"/><circle cx="192" cy="166" r="4" fill="#315be8" opacity="0.29000000000000004"/><circle cx="601" cy="77" r="4" fill="#315be8" opacity="0.30000000000000004"/><circle cx="294" cy="330" r="4" fill="#315be8" opacity="0.31000000000000005"/><circle cx="703" cy="241" r="4" fill="#315be8" opacity="0.32"/>
  <rect width="800" height="420" fill="#e46b4f"/><circle cx="354" cy="218" r="84" fill="#f6bc42"/><path d="M230 212c36 14 66-22 112-2" stroke="#8f3327" stroke-width="12" stroke-linecap="round" opacity=".36"/><circle cx="458" cy="196" r="56" fill="#315be8"/><circle cx="580" cy="276" r="32" fill="#fffaf4"/><path d="M176 324c140 46 308 54 476 0" stroke="#fff" stroke-width="5" fill="none" opacity=".38"/>
</svg>
