<svg xmlns="http://www.w3.org/2000/svg" viewBox="0 0 800 420" role="img" aria-label="Ilustracion propia de laboratorio cientifico para esta pregunta">
  <defs>
    <linearGradient id="bg" x1="0" x2="1" y1="0" y2="1">
      <stop stop-color="#edf9ff"/>
      <stop offset="1" stop-color="#ff4f6d" stop-opacity="0.22"/>
    </linearGradient>
  </defs>
  <rect width="800" height="420" fill="url(#bg)"/>
  <circle cx="627" cy="142" r="69" fill="#fffaf4" opacity="0.13"/>
  <circle cx="162" cy="179" r="94" fill="#12b7a6" opacity="0.16"/>
  <circle cx="652" cy="274" r="5" fill="#ff4f6d" opacity="0.65"/><circle cx="243" cy="364" r="5" fill="#ff4f6d" opacity="0.64"/><circle cx="754" cy="96" r="5" fill="#ff4f6d" opacity="0.67"/><circle cx="345" cy="185" r="5" fill="#ff4f6d" opacity="0.66"/><circle cx="448" cy="289" r="5" fill="#ff4f6d" opacity="0.6100000000000001"/><circle cx="755" cy="36" r="5" fill="#ff4f6d" opacity="0.6000000000000001"/><circle cx="550" cy="111" r="5" fill="#ff4f6d" opacity="0.63"/><circle cx="141" cy="200" r="5" fill="#ff4f6d" opacity="0.6200000000000001"/><circle cx="344" cy="245" r="5" fill="#ff4f6d" opacity="0.28"/>
  <path d="M360 74h116v28l-38 76v84c0 48-39 86-86 86h-8c-47 0-86-38-86-86v-84l-38-76V74h116z" fill="#12b7a6" stroke="#15191d" stroke-width="8"/><path d="M290 230h132v38c0 31-25 56-56 56h-20c-31 0-56-25-56-56z" fill="#ff4f6d" opacity=".85"/><circle cx="346" cy="250" r="12" fill="#fff"/><circle cx="362" cy="280" r="18" fill="#fff"/><path d="M528 118l68 118 68-118" fill="none" stroke="#fffaf4" stroke-width="15" stroke-linejoin="round"/>
</svg>
