<svg xmlns="http://www.w3.org/2000/svg" viewBox="0 0 800 420" role="img" aria-label="Ilustracion propia de laboratorio cientifico para esta pregunta">
  <defs>
    <linearGradient id="bg" x1="0" x2="1" y1="0" y2="1">
      <stop stop-color="#edf9ff"/>
      <stop offset="1" stop-color="#fffaf4" stop-opacity="0.22"/>
    </linearGradient>
  </defs>
  <rect width="800" height="420" fill="url(#bg)"/>
  <circle cx="632" cy="188" r="74" fill="#fffaf4" opacity="0.13"/>
  <circle cx="688" cy="113" r="85" fill="#12b7a6" opacity="0.16"/>
  <circle cx="475" cy="102" r="2" fill="#ff4f6d" opacity="0.71"/><circle cx="168" cy="355" r="2" fill="#ff4f6d" opacity="0.72"/><circle cx="577" cy="266" r="2" fill="#ff4f6d" opacity="0.28"/><circle cx="270" cy="177" r="2" fill="#ff4f6d" opacity="0.29000000000000004"/><circle cx="271" cy="117" r="2" fill="#ff4f6d" opacity="0.67"/><circle cx="680" cy="370" r="2" fill="#ff4f6d" opacity="0.68"/><circle cx="373" cy="280" r="2" fill="#ff4f6d" opacity="0.69"/><circle cx="66" cy="191" r="2" fill="#ff4f6d" opacity="0.7"/><circle cx="67" cy="131" r="2" fill="#ff4f6d" opacity="0.63"/>
  <path d="M360 74h116v28l-38 76v84c0 48-39 86-86 86h-8c-47 0-86-38-86-86v-84l-38-76V74h116z" fill="#12b7a6" stroke="#15191d" stroke-width="8"/><path d="M290 230h132v38c0 31-25 56-56 56h-20c-31 0-56-25-56-56z" fill="#ff4f6d" opacity=".85"/><circle cx="346" cy="250" r="12" fill="#fff"/><circle cx="362" cy="280" r="18" fill="#fff"/><path d="M528 118l68 118 68-118" fill="none" stroke="#fffaf4" stroke-width="15" stroke-linejoin="round"/>
</svg>
