<svg xmlns="http://www.w3.org/2000/svg" viewBox="0 0 800 420" role="img" aria-label="Ilustracion propia de circuito de velocidad para esta pregunta">
  <defs>
    <linearGradient id="bg" x1="0" x2="1" y1="0" y2="1">
      <stop stop-color="#e7f8ff"/>
      <stop offset="1" stop-color="#315be8" stop-opacity="0.22"/>
    </linearGradient>
  </defs>
  <rect width="800" height="420" fill="url(#bg)"/>
  <circle cx="301" cy="171" r="91" fill="#15191d" opacity="0.13"/>
  <circle cx="196" cy="218" r="87" fill="#ff4f6d" opacity="0.16"/>
  <circle cx="541" cy="168" r="5" fill="#315be8" opacity="0.65"/><circle cx="234" cy="79" r="5" fill="#315be8" opacity="0.66"/><circle cx="439" cy="347" r="5" fill="#315be8" opacity="0.63"/><circle cx="132" cy="258" r="5" fill="#315be8" opacity="0.64"/><circle cx="337" cy="183" r="5" fill="#315be8" opacity="0.6100000000000001"/><circle cx="746" cy="94" r="5" fill="#315be8" opacity="0.6200000000000001"/><circle cx="235" cy="361" r="5" fill="#315be8" opacity="0.5900000000000001"/><circle cx="644" cy="272" r="5" fill="#315be8" opacity="0.6000000000000001"/><circle cx="133" cy="198" r="5" fill="#315be8" opacity="0.5700000000000001"/>
  <path d="M98 300c110-170 248-42 350-120 60-46 118-84 210-28 66 40 54 132-26 152-96 24-160-50-246-24-100 30-152 94-288 20z" fill="none" stroke="#15191d" stroke-width="40" stroke-linecap="round"/><path d="M98 300c110-170 248-42 350-120 60-46 118-84 210-28 66 40 54 132-26 152-96 24-160-50-246-24-100 30-152 94-288 20z" fill="none" stroke="#fff" stroke-width="7" stroke-dasharray="24 22" stroke-linecap="round"/><rect x="280" y="250" width="150" height="42" rx="18" fill="#315be8"/><path d="M308 250l34-34h52l24 34z" fill="#fffaf4"/>
</svg>
