<svg xmlns="http://www.w3.org/2000/svg" viewBox="0 0 800 420" role="img" aria-label="Ilustracion propia de cancha de baloncesto para esta pregunta">
  <defs>
    <linearGradient id="bg" x1="0" x2="1" y1="0" y2="1">
      <stop stop-color="#fff1df"/>
      <stop offset="1" stop-color="#d95a35" stop-opacity="0.22"/>
    </linearGradient>
  </defs>
  <rect width="800" height="420" fill="url(#bg)"/>
  <circle cx="659" cy="297" r="129" fill="#f6bc42" opacity="0.13"/>
  <circle cx="316" cy="198" r="102" fill="#d95a35" opacity="0.16"/>
  <circle cx="599" cy="368" r="4" fill="#15191d" opacity="0.53"/><circle cx="292" cy="278" r="4" fill="#15191d" opacity="0.54"/><circle cx="701" cy="189" r="4" fill="#15191d" opacity="0.55"/><circle cx="394" cy="100" r="4" fill="#15191d" opacity="0.56"/><circle cx="395" cy="40" r="4" fill="#15191d" opacity="0.49"/><circle cx="88" cy="293" r="4" fill="#15191d" opacity="0.5"/><circle cx="497" cy="204" r="4" fill="#15191d" opacity="0.51"/><circle cx="190" cy="115" r="4" fill="#15191d" opacity="0.52"/><circle cx="191" cy="55" r="4" fill="#15191d" opacity="0.45000000000000007"/>
  <rect x="76" y="58" width="648" height="304" rx="30" fill="#d95a35"/><path d="M100 210h600M400 58v304" stroke="#fffaf4" stroke-width="8" opacity=".8"/><circle cx="400" cy="210" r="73" fill="none" stroke="#fffaf4" stroke-width="8" opacity=".8"/><circle cx="432" cy="222" r="42" fill="#15191d"/><path d="M390 222h84M432 180v84" stroke="#f6bc42" stroke-width="5" fill="none"/>
</svg>
