<svg xmlns="http://www.w3.org/2000/svg" viewBox="0 0 800 420" role="img" aria-label="Ilustracion propia de circuito de velocidad para esta pregunta">
  <defs>
    <linearGradient id="bg" x1="0" x2="1" y1="0" y2="1">
      <stop stop-color="#e7f8ff"/>
      <stop offset="1" stop-color="#e7f8ff" stop-opacity="0.22"/>
    </linearGradient>
  </defs>
  <rect width="800" height="420" fill="url(#bg)"/>
  <circle cx="517" cy="124" r="140" fill="#15191d" opacity="0.13"/>
  <circle cx="298" cy="177" r="123" fill="#ff4f6d" opacity="0.16"/>
  <circle cx="577" cy="224" r="3" fill="#315be8" opacity="0.65"/><circle cx="270" cy="135" r="3" fill="#315be8" opacity="0.66"/><circle cx="475" cy="60" r="3" fill="#315be8" opacity="0.63"/><circle cx="168" cy="313" r="3" fill="#315be8" opacity="0.64"/><circle cx="65" cy="209" r="2" fill="#315be8" opacity="0.69"/><circle cx="474" cy="120" r="2" fill="#315be8" opacity="0.7"/><circle cx="679" cy="46" r="3" fill="#315be8" opacity="0.67"/><circle cx="372" cy="298" r="2" fill="#315be8" opacity="0.68"/><circle cx="269" cy="195" r="2" fill="#315be8" opacity="0.28"/>
  <path d="M98 300c110-170 248-42 350-120 60-46 118-84 210-28 66 40 54 132-26 152-96 24-160-50-246-24-100 30-152 94-288 20z" fill="none" stroke="#15191d" stroke-width="43" stroke-linecap="round"/><path d="M98 300c110-170 248-42 350-120 60-46 118-84 210-28 66 40 54 132-26 152-96 24-160-50-246-24-100 30-152 94-288 20z" fill="none" stroke="#fff" stroke-width="7" stroke-dasharray="24 22" stroke-linecap="round"/><rect x="304" y="250" width="150" height="42" rx="18" fill="#315be8"/><path d="M332 250l34-34h52l24 34z" fill="#fffaf4"/>
</svg>
