<svg xmlns="http://www.w3.org/2000/svg" viewBox="0 0 800 420" role="img" aria-label="Ilustracion propia de circuito de velocidad para esta pregunta">
  <defs>
    <linearGradient id="bg" x1="0" x2="1" y1="0" y2="1">
      <stop stop-color="#e7f8ff"/>
      <stop offset="1" stop-color="#ff4f6d" stop-opacity="0.22"/>
    </linearGradient>
  </defs>
  <rect width="800" height="420" fill="url(#bg)"/>
  <circle cx="392" cy="92" r="117" fill="#15191d" opacity="0.13"/>
  <circle cx="208" cy="101" r="120" fill="#ff4f6d" opacity="0.16"/>
  <circle cx="374" cy="249" r="4" fill="#315be8" opacity="0.6200000000000001"/><circle cx="681" cy="338" r="4" fill="#315be8" opacity="0.6100000000000001"/><circle cx="272" cy="85" r="5" fill="#315be8" opacity="0.6000000000000001"/><circle cx="579" cy="175" r="5" fill="#315be8" opacity="0.5900000000000001"/><circle cx="578" cy="235" r="4" fill="#315be8" opacity="0.66"/><circle cx="169" cy="324" r="4" fill="#315be8" opacity="0.65"/><circle cx="476" cy="71" r="4" fill="#315be8" opacity="0.64"/><circle cx="67" cy="160" r="4" fill="#315be8" opacity="0.63"/><circle cx="682" cy="278" r="5" fill="#315be8" opacity="0.54"/>
  <path d="M98 300c110-170 248-42 350-120 60-46 118-84 210-28 66 40 54 132-26 152-96 24-160-50-246-24-100 30-152 94-288 20z" fill="none" stroke="#15191d" stroke-width="43" stroke-linecap="round"/><path d="M98 300c110-170 248-42 350-120 60-46 118-84 210-28 66 40 54 132-26 152-96 24-160-50-246-24-100 30-152 94-288 20z" fill="none" stroke="#fff" stroke-width="7" stroke-dasharray="24 22" stroke-linecap="round"/><rect x="304" y="250" width="150" height="42" rx="18" fill="#315be8"/><path d="M332 250l34-34h52l24 34z" fill="#fffaf4"/>
</svg>
