<svg xmlns="http://www.w3.org/2000/svg" viewBox="0 0 800 420" role="img" aria-label="Ilustracion propia de circuito de velocidad para esta pregunta">
  <defs>
    <linearGradient id="bg" x1="0" x2="1" y1="0" y2="1">
      <stop stop-color="#e7f8ff"/>
      <stop offset="1" stop-color="#ff4f6d" stop-opacity="0.22"/>
    </linearGradient>
  </defs>
  <rect width="800" height="420" fill="url(#bg)"/>
  <circle cx="278" cy="326" r="95" fill="#15191d" opacity="0.13"/>
  <circle cx="568" cy="130" r="127" fill="#ff4f6d" opacity="0.16"/>
  <circle cx="721" cy="270" r="3" fill="#315be8" opacity="0.46"/><circle cx="414" cy="181" r="3" fill="#315be8" opacity="0.47000000000000003"/><circle cx="619" cy="106" r="3" fill="#315be8" opacity="0.44000000000000006"/><circle cx="312" cy="359" r="3" fill="#315be8" opacity="0.45000000000000007"/><circle cx="749" cy="156" r="3" fill="#315be8" opacity="0.56"/><circle cx="210" cy="195" r="3" fill="#315be8" opacity="0.43000000000000005"/><circle cx="647" cy="335" r="3" fill="#315be8" opacity="0.54"/><circle cx="340" cy="245" r="3" fill="#315be8" opacity="0.55"/><circle cx="413" cy="241" r="3" fill="#315be8" opacity="0.54"/>
  <path d="M98 300c110-170 248-42 350-120 60-46 118-84 210-28 66 40 54 132-26 152-96 24-160-50-246-24-100 30-152 94-288 20z" fill="none" stroke="#15191d" stroke-width="46" stroke-linecap="round"/><path d="M98 300c110-170 248-42 350-120 60-46 118-84 210-28 66 40 54 132-26 152-96 24-160-50-246-24-100 30-152 94-288 20z" fill="none" stroke="#fff" stroke-width="7" stroke-dasharray="24 22" stroke-linecap="round"/><rect x="328" y="250" width="150" height="42" rx="18" fill="#315be8"/><path d="M356 250l34-34h52l24 34z" fill="#fffaf4"/>
</svg>
