<svg xmlns="http://www.w3.org/2000/svg" viewBox="0 0 800 420" role="img" aria-label="Ilustracion propia de circuito de velocidad para esta pregunta">
  <defs>
    <linearGradient id="bg" x1="0" x2="1" y1="0" y2="1">
      <stop stop-color="#e7f8ff"/>
      <stop offset="1" stop-color="#e7f8ff" stop-opacity="0.22"/>
    </linearGradient>
  </defs>
  <rect width="800" height="420" fill="url(#bg)"/>
  <circle cx="628" cy="256" r="138" fill="#15191d" opacity="0.13"/>
  <circle cx="387" cy="336" r="133" fill="#ff4f6d" opacity="0.16"/>
  <circle cx="558" cy="248" r="2" fill="#315be8" opacity="0.56"/><circle cx="149" cy="337" r="2" fill="#315be8" opacity="0.55"/><circle cx="456" cy="85" r="2" fill="#315be8" opacity="0.54"/><circle cx="47" cy="174" r="2" fill="#315be8" opacity="0.53"/><circle cx="46" cy="234" r="2" fill="#315be8" opacity="0.6000000000000001"/><circle cx="353" cy="323" r="2" fill="#315be8" opacity="0.5900000000000001"/><circle cx="660" cy="70" r="2" fill="#315be8" opacity="0.5800000000000001"/><circle cx="251" cy="159" r="2" fill="#315be8" opacity="0.5700000000000001"/><circle cx="150" cy="278" r="3" fill="#315be8" opacity="0.48000000000000004"/>
  <path d="M98 300c110-170 248-42 350-120 60-46 118-84 210-28 66 40 54 132-26 152-96 24-160-50-246-24-100 30-152 94-288 20z" fill="none" stroke="#15191d" stroke-width="46" stroke-linecap="round"/><path d="M98 300c110-170 248-42 350-120 60-46 118-84 210-28 66 40 54 132-26 152-96 24-160-50-246-24-100 30-152 94-288 20z" fill="none" stroke="#fff" stroke-width="7" stroke-dasharray="24 22" stroke-linecap="round"/><rect x="328" y="250" width="150" height="42" rx="18" fill="#315be8"/><path d="M356 250l34-34h52l24 34z" fill="#fffaf4"/>
</svg>
