<svg xmlns="http://www.w3.org/2000/svg" viewBox="0 0 800 420" role="img" aria-label="Ilustracion propia de circuito de velocidad para esta pregunta">
  <defs>
    <linearGradient id="bg" x1="0" x2="1" y1="0" y2="1">
      <stop stop-color="#e7f8ff"/>
      <stop offset="1" stop-color="#e7f8ff" stop-opacity="0.22"/>
    </linearGradient>
  </defs>
  <rect width="800" height="420" fill="url(#bg)"/>
  <circle cx="553" cy="214" r="118" fill="#15191d" opacity="0.13"/>
  <circle cx="603" cy="81" r="110" fill="#ff4f6d" opacity="0.16"/>
  <circle cx="366" cy="152" r="4" fill="#315be8" opacity="0.36000000000000004"/><circle cx="673" cy="241" r="4" fill="#315be8" opacity="0.35000000000000003"/><circle cx="264" cy="330" r="4" fill="#315be8" opacity="0.34"/><circle cx="571" cy="77" r="4" fill="#315be8" opacity="0.33"/><circle cx="570" cy="137" r="3" fill="#315be8" opacity="0.4"/><circle cx="161" cy="226" r="3" fill="#315be8" opacity="0.39"/><circle cx="468" cy="315" r="3" fill="#315be8" opacity="0.38"/><circle cx="59" cy="63" r="3" fill="#315be8" opacity="0.37"/><circle cx="674" cy="181" r="4" fill="#315be8" opacity="0.28"/>
  <path d="M98 300c110-170 248-42 350-120 60-46 118-84 210-28 66 40 54 132-26 152-96 24-160-50-246-24-100 30-152 94-288 20z" fill="none" stroke="#15191d" stroke-width="46" stroke-linecap="round"/><path d="M98 300c110-170 248-42 350-120 60-46 118-84 210-28 66 40 54 132-26 152-96 24-160-50-246-24-100 30-152 94-288 20z" fill="none" stroke="#fff" stroke-width="7" stroke-dasharray="24 22" stroke-linecap="round"/><rect x="328" y="250" width="150" height="42" rx="18" fill="#315be8"/><path d="M356 250l34-34h52l24 34z" fill="#fffaf4"/>
</svg>
