<svg xmlns="http://www.w3.org/2000/svg" viewBox="0 0 800 420" role="img" aria-label="Ilustracion propia de circuito de velocidad para esta pregunta">
  <defs>
    <linearGradient id="bg" x1="0" x2="1" y1="0" y2="1">
      <stop stop-color="#e7f8ff"/>
      <stop offset="1" stop-color="#ff4f6d" stop-opacity="0.22"/>
    </linearGradient>
  </defs>
  <rect width="800" height="420" fill="url(#bg)"/>
  <circle cx="633" cy="129" r="85" fill="#15191d" opacity="0.13"/>
  <circle cx="463" cy="249" r="96" fill="#ff4f6d" opacity="0.16"/>
  <circle cx="640" cy="140" r="4" fill="#315be8" opacity="0.30000000000000004"/><circle cx="231" cy="230" r="4" fill="#315be8" opacity="0.29000000000000004"/><circle cx="742" cy="304" r="4" fill="#315be8" opacity="0.32"/><circle cx="333" cy="51" r="4" fill="#315be8" opacity="0.31000000000000005"/><circle cx="436" cy="155" r="4" fill="#315be8" opacity="0.71"/><circle cx="743" cy="244" r="4" fill="#315be8" opacity="0.7"/><circle cx="538" cy="319" r="4" fill="#315be8" opacity="0.28"/><circle cx="129" cy="66" r="4" fill="#315be8" opacity="0.72"/><circle cx="232" cy="170" r="4" fill="#315be8" opacity="0.67"/>
  <path d="M98 300c110-170 248-42 350-120 60-46 118-84 210-28 66 40 54 132-26 152-96 24-160-50-246-24-100 30-152 94-288 20z" fill="none" stroke="#15191d" stroke-width="46" stroke-linecap="round"/><path d="M98 300c110-170 248-42 350-120 60-46 118-84 210-28 66 40 54 132-26 152-96 24-160-50-246-24-100 30-152 94-288 20z" fill="none" stroke="#fff" stroke-width="7" stroke-dasharray="24 22" stroke-linecap="round"/><rect x="328" y="250" width="150" height="42" rx="18" fill="#315be8"/><path d="M356 250l34-34h52l24 34z" fill="#fffaf4"/>
</svg>
