<svg xmlns="http://www.w3.org/2000/svg" viewBox="0 0 800 420" role="img" aria-label="Ilustracion propia de cancha de baloncesto para esta pregunta">
  <defs>
    <linearGradient id="bg" x1="0" x2="1" y1="0" y2="1">
      <stop stop-color="#fff1df"/>
      <stop offset="1" stop-color="#f6bc42" stop-opacity="0.22"/>
    </linearGradient>
  </defs>
  <rect width="800" height="420" fill="url(#bg)"/>
  <circle cx="184" cy="146" r="136" fill="#f6bc42" opacity="0.13"/>
  <circle cx="632" cy="72" r="113" fill="#d95a35" opacity="0.16"/>
  <circle cx="501" cy="122" r="5" fill="#15191d" opacity="0.44000000000000006"/><circle cx="194" cy="375" r="5" fill="#15191d" opacity="0.45000000000000007"/><circle cx="399" cy="300" r="5" fill="#15191d" opacity="0.42000000000000004"/><circle cx="92" cy="211" r="5" fill="#15191d" opacity="0.43000000000000005"/><circle cx="705" cy="108" r="5" fill="#15191d" opacity="0.48000000000000004"/><circle cx="398" cy="360" r="5" fill="#15191d" opacity="0.49"/><circle cx="603" cy="286" r="5" fill="#15191d" opacity="0.46"/><circle cx="296" cy="197" r="5" fill="#15191d" opacity="0.47000000000000003"/><circle cx="193" cy="93" r="5" fill="#15191d" opacity="0.52"/>
  <rect x="76" y="58" width="648" height="304" rx="30" fill="#d95a35"/><path d="M100 210h600M400 58v304" stroke="#fffaf4" stroke-width="8" opacity=".8"/><circle cx="400" cy="210" r="73" fill="none" stroke="#fffaf4" stroke-width="8" opacity=".8"/><circle cx="432" cy="222" r="42" fill="#15191d"/><path d="M390 222h84M432 180v84" stroke="#f6bc42" stroke-width="5" fill="none"/>
</svg>
