<svg xmlns="http://www.w3.org/2000/svg" viewBox="0 0 800 420" role="img" aria-label="Ilustracion propia de circuito de velocidad para esta pregunta">
  <defs>
    <linearGradient id="bg" x1="0" x2="1" y1="0" y2="1">
      <stop stop-color="#e7f8ff"/>
      <stop offset="1" stop-color="#315be8" stop-opacity="0.22"/>
    </linearGradient>
  </defs>
  <rect width="800" height="420" fill="url(#bg)"/>
  <circle cx="104" cy="71" r="97" fill="#15191d" opacity="0.13"/>
  <circle cx="172" cy="98" r="118" fill="#ff4f6d" opacity="0.16"/>
  <circle cx="207" cy="231" r="4" fill="#315be8" opacity="0.67"/><circle cx="616" cy="142" r="4" fill="#315be8" opacity="0.68"/><circle cx="309" cy="53" r="4" fill="#315be8" opacity="0.69"/><circle cx="718" cy="305" r="4" fill="#315be8" opacity="0.7"/><circle cx="411" cy="216" r="4" fill="#315be8" opacity="0.71"/><circle cx="104" cy="127" r="4" fill="#315be8" opacity="0.72"/><circle cx="513" cy="38" r="4" fill="#315be8" opacity="0.28"/><circle cx="206" cy="291" r="4" fill="#315be8" opacity="0.29000000000000004"/><circle cx="615" cy="202" r="4" fill="#315be8" opacity="0.30000000000000004"/>
  <path d="M98 300c110-170 248-42 350-120 60-46 118-84 210-28 66 40 54 132-26 152-96 24-160-50-246-24-100 30-152 94-288 20z" fill="none" stroke="#15191d" stroke-width="49" stroke-linecap="round"/><path d="M98 300c110-170 248-42 350-120 60-46 118-84 210-28 66 40 54 132-26 152-96 24-160-50-246-24-100 30-152 94-288 20z" fill="none" stroke="#fff" stroke-width="7" stroke-dasharray="24 22" stroke-linecap="round"/><rect x="352" y="250" width="150" height="42" rx="18" fill="#315be8"/><path d="M380 250l34-34h52l24 34z" fill="#fffaf4"/>
</svg>
