<svg xmlns="http://www.w3.org/2000/svg" viewBox="0 0 800 420" role="img" aria-label="Ilustracion propia de circuito de velocidad para esta pregunta">
  <defs>
    <linearGradient id="bg" x1="0" x2="1" y1="0" y2="1">
      <stop stop-color="#e7f8ff"/>
      <stop offset="1" stop-color="#e7f8ff" stop-opacity="0.22"/>
    </linearGradient>
  </defs>
  <rect width="800" height="420" fill="url(#bg)"/>
  <circle cx="660" cy="271" r="128" fill="#15191d" opacity="0.13"/>
  <circle cx="316" cy="266" r="82" fill="#ff4f6d" opacity="0.16"/>
  <circle cx="147" cy="91" r="4" fill="#315be8" opacity="0.52"/><circle cx="556" cy="344" r="4" fill="#315be8" opacity="0.53"/><circle cx="249" cy="255" r="4" fill="#315be8" opacity="0.54"/><circle cx="658" cy="166" r="4" fill="#315be8" opacity="0.55"/><circle cx="659" cy="106" r="4" fill="#315be8" opacity="0.48000000000000004"/><circle cx="352" cy="359" r="4" fill="#315be8" opacity="0.49"/><circle cx="45" cy="270" r="4" fill="#315be8" opacity="0.5"/><circle cx="454" cy="181" r="4" fill="#315be8" opacity="0.51"/><circle cx="455" cy="121" r="4" fill="#315be8" opacity="0.44000000000000006"/>
  <path d="M98 300c110-170 248-42 350-120 60-46 118-84 210-28 66 40 54 132-26 152-96 24-160-50-246-24-100 30-152 94-288 20z" fill="none" stroke="#15191d" stroke-width="52" stroke-linecap="round"/><path d="M98 300c110-170 248-42 350-120 60-46 118-84 210-28 66 40 54 132-26 152-96 24-160-50-246-24-100 30-152 94-288 20z" fill="none" stroke="#fff" stroke-width="7" stroke-dasharray="24 22" stroke-linecap="round"/><rect x="376" y="250" width="150" height="42" rx="18" fill="#315be8"/><path d="M404 250l34-34h52l24 34z" fill="#fffaf4"/>
</svg>
