<svg xmlns="http://www.w3.org/2000/svg" viewBox="0 0 800 420" role="img" aria-label="Ilustracion propia de circuito de velocidad para esta pregunta">
  <defs>
    <linearGradient id="bg" x1="0" x2="1" y1="0" y2="1">
      <stop stop-color="#e7f8ff"/>
      <stop offset="1" stop-color="#15191d" stop-opacity="0.22"/>
    </linearGradient>
  </defs>
  <rect width="800" height="420" fill="url(#bg)"/>
  <circle cx="209" cy="134" r="122" fill="#15191d" opacity="0.13"/>
  <circle cx="410" cy="106" r="121" fill="#ff4f6d" opacity="0.16"/>
  <circle cx="342" cy="93" r="4" fill="#315be8" opacity="0.47000000000000003"/><circle cx="649" cy="182" r="4" fill="#315be8" opacity="0.46"/><circle cx="240" cy="271" r="4" fill="#315be8" opacity="0.45000000000000007"/><circle cx="63" cy="232" r="4" fill="#315be8" opacity="0.5800000000000001"/><circle cx="370" cy="321" r="4" fill="#315be8" opacity="0.5700000000000001"/><circle cx="677" cy="69" r="4" fill="#315be8" opacity="0.56"/><circle cx="268" cy="158" r="4" fill="#315be8" opacity="0.55"/><circle cx="575" cy="247" r="4" fill="#315be8" opacity="0.54"/><circle cx="750" cy="64" r="3" fill="#315be8" opacity="0.55"/>
  <path d="M98 300c110-170 248-42 350-120 60-46 118-84 210-28 66 40 54 132-26 152-96 24-160-50-246-24-100 30-152 94-288 20z" fill="none" stroke="#15191d" stroke-width="49" stroke-linecap="round"/><path d="M98 300c110-170 248-42 350-120 60-46 118-84 210-28 66 40 54 132-26 152-96 24-160-50-246-24-100 30-152 94-288 20z" fill="none" stroke="#fff" stroke-width="7" stroke-dasharray="24 22" stroke-linecap="round"/><rect x="352" y="250" width="150" height="42" rx="18" fill="#315be8"/><path d="M380 250l34-34h52l24 34z" fill="#fffaf4"/>
</svg>
