<svg xmlns="http://www.w3.org/2000/svg" viewBox="0 0 800 420" role="img" aria-label="Ilustracion propia de circuito de velocidad para esta pregunta">
  <defs>
    <linearGradient id="bg" x1="0" x2="1" y1="0" y2="1">
      <stop stop-color="#e7f8ff"/>
      <stop offset="1" stop-color="#315be8" stop-opacity="0.22"/>
    </linearGradient>
  </defs>
  <rect width="800" height="420" fill="url(#bg)"/>
  <circle cx="338" cy="168" r="97" fill="#15191d" opacity="0.13"/>
  <circle cx="426" cy="75" r="108" fill="#ff4f6d" opacity="0.16"/>
  <circle cx="218" cy="44" r="5" fill="#315be8" opacity="0.66"/><circle cx="525" cy="133" r="5" fill="#315be8" opacity="0.65"/><circle cx="116" cy="222" r="5" fill="#315be8" opacity="0.64"/><circle cx="423" cy="311" r="5" fill="#315be8" opacity="0.63"/><circle cx="422" cy="371" r="5" fill="#315be8" opacity="0.7"/><circle cx="729" cy="118" r="5" fill="#315be8" opacity="0.69"/><circle cx="320" cy="207" r="5" fill="#315be8" opacity="0.68"/><circle cx="627" cy="296" r="5" fill="#315be8" opacity="0.67"/><circle cx="626" cy="356" r="5" fill="#315be8" opacity="0.29000000000000004"/>
  <path d="M98 300c110-170 248-42 350-120 60-46 118-84 210-28 66 40 54 132-26 152-96 24-160-50-246-24-100 30-152 94-288 20z" fill="none" stroke="#15191d" stroke-width="46" stroke-linecap="round"/><path d="M98 300c110-170 248-42 350-120 60-46 118-84 210-28 66 40 54 132-26 152-96 24-160-50-246-24-100 30-152 94-288 20z" fill="none" stroke="#fff" stroke-width="7" stroke-dasharray="24 22" stroke-linecap="round"/><rect x="328" y="250" width="150" height="42" rx="18" fill="#315be8"/><path d="M356 250l34-34h52l24 34z" fill="#fffaf4"/>
</svg>
