<svg xmlns="http://www.w3.org/2000/svg" viewBox="0 0 800 420" role="img" aria-label="Ilustracion propia de circuito de velocidad para esta pregunta">
  <defs>
    <linearGradient id="bg" x1="0" x2="1" y1="0" y2="1">
      <stop stop-color="#e7f8ff"/>
      <stop offset="1" stop-color="#15191d" stop-opacity="0.22"/>
    </linearGradient>
  </defs>
  <rect width="800" height="420" fill="url(#bg)"/>
  <circle cx="441" cy="211" r="128" fill="#15191d" opacity="0.13"/>
  <circle cx="589" cy="295" r="72" fill="#ff4f6d" opacity="0.16"/>
  <circle cx="63" cy="265" r="3" fill="#315be8" opacity="0.7"/><circle cx="472" cy="176" r="3" fill="#315be8" opacity="0.71"/><circle cx="165" cy="86" r="3" fill="#315be8" opacity="0.72"/><circle cx="574" cy="339" r="3" fill="#315be8" opacity="0.28"/><circle cx="575" cy="279" r="3" fill="#315be8" opacity="0.66"/><circle cx="268" cy="190" r="3" fill="#315be8" opacity="0.67"/><circle cx="677" cy="101" r="3" fill="#315be8" opacity="0.68"/><circle cx="370" cy="354" r="3" fill="#315be8" opacity="0.69"/><circle cx="371" cy="294" r="3" fill="#315be8" opacity="0.6200000000000001"/>
  <path d="M98 300c110-170 248-42 350-120 60-46 118-84 210-28 66 40 54 132-26 152-96 24-160-50-246-24-100 30-152 94-288 20z" fill="none" stroke="#15191d" stroke-width="40" stroke-linecap="round"/><path d="M98 300c110-170 248-42 350-120 60-46 118-84 210-28 66 40 54 132-26 152-96 24-160-50-246-24-100 30-152 94-288 20z" fill="none" stroke="#fff" stroke-width="7" stroke-dasharray="24 22" stroke-linecap="round"/><rect x="280" y="250" width="150" height="42" rx="18" fill="#315be8"/><path d="M308 250l34-34h52l24 34z" fill="#fffaf4"/>
</svg>
