<svg xmlns="http://www.w3.org/2000/svg" viewBox="0 0 800 420" role="img" aria-label="Ilustracion propia de circuito de velocidad para esta pregunta">
  <defs>
    <linearGradient id="bg" x1="0" x2="1" y1="0" y2="1">
      <stop stop-color="#e7f8ff"/>
      <stop offset="1" stop-color="#ff4f6d" stop-opacity="0.22"/>
    </linearGradient>
  </defs>
  <rect width="800" height="420" fill="url(#bg)"/>
  <circle cx="517" cy="285" r="111" fill="#15191d" opacity="0.13"/>
  <circle cx="598" cy="161" r="89" fill="#ff4f6d" opacity="0.16"/>
  <circle cx="468" cy="104" r="2" fill="#315be8" opacity="0.65"/><circle cx="59" cy="193" r="2" fill="#315be8" opacity="0.64"/><circle cx="570" cy="267" r="2" fill="#315be8" opacity="0.67"/><circle cx="161" cy="356" r="2" fill="#315be8" opacity="0.66"/><circle cx="672" cy="89" r="2" fill="#315be8" opacity="0.69"/><circle cx="263" cy="178" r="2" fill="#315be8" opacity="0.68"/><circle cx="58" cy="253" r="2" fill="#315be8" opacity="0.71"/><circle cx="365" cy="342" r="2" fill="#315be8" opacity="0.7"/><circle cx="60" cy="133" r="2" fill="#315be8" opacity="0.5700000000000001"/>
  <path d="M98 300c110-170 248-42 350-120 60-46 118-84 210-28 66 40 54 132-26 152-96 24-160-50-246-24-100 30-152 94-288 20z" fill="none" stroke="#15191d" stroke-width="43" stroke-linecap="round"/><path d="M98 300c110-170 248-42 350-120 60-46 118-84 210-28 66 40 54 132-26 152-96 24-160-50-246-24-100 30-152 94-288 20z" fill="none" stroke="#fff" stroke-width="7" stroke-dasharray="24 22" stroke-linecap="round"/><rect x="304" y="250" width="150" height="42" rx="18" fill="#315be8"/><path d="M332 250l34-34h52l24 34z" fill="#fffaf4"/>
</svg>
