<svg xmlns="http://www.w3.org/2000/svg" viewBox="0 0 800 420" role="img" aria-label="Ilustracion propia de circuito de velocidad para esta pregunta">
  <defs>
    <linearGradient id="bg" x1="0" x2="1" y1="0" y2="1">
      <stop stop-color="#e7f8ff"/>
      <stop offset="1" stop-color="#e7f8ff" stop-opacity="0.22"/>
    </linearGradient>
  </defs>
  <rect width="800" height="420" fill="url(#bg)"/>
  <circle cx="678" cy="338" r="140" fill="#15191d" opacity="0.13"/>
  <circle cx="393" cy="239" r="83" fill="#ff4f6d" opacity="0.16"/>
  <circle cx="672" cy="68" r="2" fill="#315be8" opacity="0.49"/><circle cx="263" cy="157" r="2" fill="#315be8" opacity="0.48000000000000004"/><circle cx="58" cy="231" r="2" fill="#315be8" opacity="0.51"/><circle cx="365" cy="320" r="2" fill="#315be8" opacity="0.5"/><circle cx="160" cy="53" r="2" fill="#315be8" opacity="0.53"/><circle cx="467" cy="142" r="2" fill="#315be8" opacity="0.52"/><circle cx="262" cy="217" r="2" fill="#315be8" opacity="0.55"/><circle cx="569" cy="306" r="2" fill="#315be8" opacity="0.54"/><circle cx="264" cy="97" r="2" fill="#315be8" opacity="0.41000000000000003"/>
  <path d="M98 300c110-170 248-42 350-120 60-46 118-84 210-28 66 40 54 132-26 152-96 24-160-50-246-24-100 30-152 94-288 20z" fill="none" stroke="#15191d" stroke-width="46" stroke-linecap="round"/><path d="M98 300c110-170 248-42 350-120 60-46 118-84 210-28 66 40 54 132-26 152-96 24-160-50-246-24-100 30-152 94-288 20z" fill="none" stroke="#fff" stroke-width="7" stroke-dasharray="24 22" stroke-linecap="round"/><rect x="328" y="250" width="150" height="42" rx="18" fill="#315be8"/><path d="M356 250l34-34h52l24 34z" fill="#fffaf4"/>
</svg>
