<svg xmlns="http://www.w3.org/2000/svg" viewBox="0 0 800 420" role="img" aria-label="Ilustracion propia de circuito de velocidad para esta pregunta">
  <defs>
    <linearGradient id="bg" x1="0" x2="1" y1="0" y2="1">
      <stop stop-color="#e7f8ff"/>
      <stop offset="1" stop-color="#e7f8ff" stop-opacity="0.22"/>
    </linearGradient>
  </defs>
  <rect width="800" height="420" fill="url(#bg)"/>
  <circle cx="426" cy="65" r="94" fill="#15191d" opacity="0.13"/>
  <circle cx="662" cy="98" r="107" fill="#ff4f6d" opacity="0.16"/>
  <circle cx="367" cy="197" r="5" fill="#315be8" opacity="0.68"/><circle cx="60" cy="108" r="5" fill="#315be8" opacity="0.69"/><circle cx="469" cy="361" r="5" fill="#315be8" opacity="0.7"/><circle cx="162" cy="272" r="5" fill="#315be8" opacity="0.71"/><circle cx="163" cy="212" r="5" fill="#315be8" opacity="0.64"/><circle cx="572" cy="123" r="5" fill="#315be8" opacity="0.65"/><circle cx="265" cy="376" r="5" fill="#315be8" opacity="0.66"/><circle cx="674" cy="286" r="5" fill="#315be8" opacity="0.67"/><circle cx="675" cy="227" r="5" fill="#315be8" opacity="0.6000000000000001"/>
  <path d="M98 300c110-170 248-42 350-120 60-46 118-84 210-28 66 40 54 132-26 152-96 24-160-50-246-24-100 30-152 94-288 20z" fill="none" stroke="#15191d" stroke-width="40" stroke-linecap="round"/><path d="M98 300c110-170 248-42 350-120 60-46 118-84 210-28 66 40 54 132-26 152-96 24-160-50-246-24-100 30-152 94-288 20z" fill="none" stroke="#fff" stroke-width="7" stroke-dasharray="24 22" stroke-linecap="round"/><rect x="280" y="250" width="150" height="42" rx="18" fill="#315be8"/><path d="M308 250l34-34h52l24 34z" fill="#fffaf4"/>
</svg>
