<svg xmlns="http://www.w3.org/2000/svg" viewBox="0 0 800 420" role="img" aria-label="Ilustracion propia de circuito de velocidad para esta pregunta">
  <defs>
    <linearGradient id="bg" x1="0" x2="1" y1="0" y2="1">
      <stop stop-color="#e7f8ff"/>
      <stop offset="1" stop-color="#15191d" stop-opacity="0.22"/>
    </linearGradient>
  </defs>
  <rect width="800" height="420" fill="url(#bg)"/>
  <circle cx="348" cy="143" r="104" fill="#15191d" opacity="0.13"/>
  <circle cx="127" cy="72" r="89" fill="#ff4f6d" opacity="0.16"/>
  <circle cx="198" cy="126" r="2" fill="#315be8" opacity="0.30000000000000004"/><circle cx="505" cy="215" r="2" fill="#315be8" opacity="0.29000000000000004"/><circle cx="96" cy="304" r="2" fill="#315be8" opacity="0.28"/><circle cx="403" cy="51" r="2" fill="#315be8" opacity="0.72"/><circle cx="402" cy="111" r="2" fill="#315be8" opacity="0.34"/><circle cx="709" cy="200" r="2" fill="#315be8" opacity="0.33"/><circle cx="300" cy="289" r="2" fill="#315be8" opacity="0.32"/><circle cx="607" cy="37" r="2" fill="#315be8" opacity="0.31000000000000005"/><circle cx="606" cy="96" r="2" fill="#315be8" opacity="0.38"/>
  <path d="M98 300c110-170 248-42 350-120 60-46 118-84 210-28 66 40 54 132-26 152-96 24-160-50-246-24-100 30-152 94-288 20z" fill="none" stroke="#15191d" stroke-width="46" stroke-linecap="round"/><path d="M98 300c110-170 248-42 350-120 60-46 118-84 210-28 66 40 54 132-26 152-96 24-160-50-246-24-100 30-152 94-288 20z" fill="none" stroke="#fff" stroke-width="7" stroke-dasharray="24 22" stroke-linecap="round"/><rect x="328" y="250" width="150" height="42" rx="18" fill="#315be8"/><path d="M356 250l34-34h52l24 34z" fill="#fffaf4"/>
</svg>
