<svg xmlns="http://www.w3.org/2000/svg" viewBox="0 0 800 420" role="img" aria-label="Ilustracion propia de circuito de velocidad para esta pregunta">
  <defs>
    <linearGradient id="bg" x1="0" x2="1" y1="0" y2="1">
      <stop stop-color="#e7f8ff"/>
      <stop offset="1" stop-color="#ff4f6d" stop-opacity="0.22"/>
    </linearGradient>
  </defs>
  <rect width="800" height="420" fill="url(#bg)"/>
  <circle cx="506" cy="125" r="109" fill="#15191d" opacity="0.13"/>
  <circle cx="447" cy="212" r="109" fill="#ff4f6d" opacity="0.16"/>
  <circle cx="314" cy="308" r="5" fill="#315be8" opacity="0.47000000000000003"/><circle cx="621" cy="55" r="5" fill="#315be8" opacity="0.46"/><circle cx="212" cy="144" r="5" fill="#315be8" opacity="0.45000000000000007"/><circle cx="519" cy="233" r="5" fill="#315be8" opacity="0.44000000000000006"/><circle cx="518" cy="293" r="5" fill="#315be8" opacity="0.51"/><circle cx="109" cy="41" r="5" fill="#315be8" opacity="0.5"/><circle cx="416" cy="130" r="5" fill="#315be8" opacity="0.49"/><circle cx="723" cy="219" r="5" fill="#315be8" opacity="0.48000000000000004"/><circle cx="622" cy="337" r="5" fill="#315be8" opacity="0.39"/>
  <path d="M98 300c110-170 248-42 350-120 60-46 118-84 210-28 66 40 54 132-26 152-96 24-160-50-246-24-100 30-152 94-288 20z" fill="none" stroke="#15191d" stroke-width="40" stroke-linecap="round"/><path d="M98 300c110-170 248-42 350-120 60-46 118-84 210-28 66 40 54 132-26 152-96 24-160-50-246-24-100 30-152 94-288 20z" fill="none" stroke="#fff" stroke-width="7" stroke-dasharray="24 22" stroke-linecap="round"/><rect x="280" y="250" width="150" height="42" rx="18" fill="#315be8"/><path d="M308 250l34-34h52l24 34z" fill="#fffaf4"/>
</svg>
