<svg xmlns="http://www.w3.org/2000/svg" viewBox="0 0 800 420" role="img" aria-label="Ilustracion propia de cancha de baloncesto para esta pregunta">
  <defs>
    <linearGradient id="bg" x1="0" x2="1" y1="0" y2="1">
      <stop stop-color="#fff1df"/>
      <stop offset="1" stop-color="#fff1df" stop-opacity="0.22"/>
    </linearGradient>
  </defs>
  <rect width="800" height="420" fill="url(#bg)"/>
  <circle cx="538" cy="328" r="78" fill="#f6bc42" opacity="0.13"/>
  <circle cx="601" cy="131" r="95" fill="#d95a35" opacity="0.16"/>
  <circle cx="453" cy="212" r="5" fill="#15191d" opacity="0.31000000000000005"/><circle cx="146" cy="123" r="5" fill="#15191d" opacity="0.32"/><circle cx="351" cy="49" r="2" fill="#15191d" opacity="0.29000000000000004"/><circle cx="44" cy="302" r="2" fill="#15191d" opacity="0.30000000000000004"/><circle cx="657" cy="198" r="5" fill="#15191d" opacity="0.35000000000000003"/><circle cx="350" cy="109" r="5" fill="#15191d" opacity="0.36000000000000004"/><circle cx="555" cy="376" r="5" fill="#15191d" opacity="0.33"/><circle cx="248" cy="287" r="5" fill="#15191d" opacity="0.34"/><circle cx="145" cy="183" r="5" fill="#15191d" opacity="0.39"/>
  <rect x="76" y="58" width="648" height="304" rx="30" fill="#d95a35"/><path d="M100 210h600M400 58v304" stroke="#fffaf4" stroke-width="8" opacity=".8"/><circle cx="400" cy="210" r="66" fill="none" stroke="#fffaf4" stroke-width="8" opacity=".8"/><circle cx="348" cy="198" r="42" fill="#15191d"/><path d="M306 198h84M348 156v84" stroke="#f6bc42" stroke-width="5" fill="none"/>
</svg>
