<svg xmlns="http://www.w3.org/2000/svg" viewBox="0 0 800 420" role="img" aria-label="Ilustracion propia de cancha de baloncesto para esta pregunta">
  <defs>
    <linearGradient id="bg" x1="0" x2="1" y1="0" y2="1">
      <stop stop-color="#fff1df"/>
      <stop offset="1" stop-color="#f6bc42" stop-opacity="0.22"/>
    </linearGradient>
  </defs>
  <rect width="800" height="420" fill="url(#bg)"/>
  <circle cx="170" cy="117" r="96" fill="#f6bc42" opacity="0.13"/>
  <circle cx="255" cy="319" r="138" fill="#d95a35" opacity="0.16"/>
  <circle cx="392" cy="140" r="2" fill="#15191d" opacity="0.72"/><circle cx="699" cy="229" r="2" fill="#15191d" opacity="0.71"/><circle cx="494" cy="303" r="2" fill="#15191d" opacity="0.29000000000000004"/><circle cx="85" cy="51" r="2" fill="#15191d" opacity="0.28"/><circle cx="596" cy="125" r="2" fill="#15191d" opacity="0.31000000000000005"/><circle cx="187" cy="214" r="2" fill="#15191d" opacity="0.30000000000000004"/><circle cx="698" cy="289" r="2" fill="#15191d" opacity="0.33"/><circle cx="289" cy="36" r="2" fill="#15191d" opacity="0.32"/><circle cx="700" cy="169" r="2" fill="#15191d" opacity="0.64"/>
  <rect x="76" y="58" width="648" height="304" rx="30" fill="#d95a35"/><path d="M100 210h600M400 58v304" stroke="#fffaf4" stroke-width="8" opacity=".8"/><circle cx="400" cy="210" r="80" fill="none" stroke="#fffaf4" stroke-width="8" opacity=".8"/><circle cx="516" cy="246" r="42" fill="#15191d"/><path d="M474 246h84M516 204v84" stroke="#f6bc42" stroke-width="5" fill="none"/>
</svg>
