<svg xmlns="http://www.w3.org/2000/svg" viewBox="0 0 800 420" role="img" aria-label="Ilustracion propia de circuito de velocidad para esta pregunta">
  <defs>
    <linearGradient id="bg" x1="0" x2="1" y1="0" y2="1">
      <stop stop-color="#e7f8ff"/>
      <stop offset="1" stop-color="#15191d" stop-opacity="0.22"/>
    </linearGradient>
  </defs>
  <rect width="800" height="420" fill="url(#bg)"/>
  <circle cx="684" cy="277" r="112" fill="#15191d" opacity="0.13"/>
  <circle cx="244" cy="124" r="80" fill="#ff4f6d" opacity="0.16"/>
  <circle cx="226" cy="371" r="4" fill="#315be8" opacity="0.53"/><circle cx="533" cy="118" r="4" fill="#315be8" opacity="0.52"/><circle cx="124" cy="207" r="4" fill="#315be8" opacity="0.51"/><circle cx="431" cy="297" r="4" fill="#315be8" opacity="0.5"/><circle cx="430" cy="357" r="4" fill="#315be8" opacity="0.5700000000000001"/><circle cx="737" cy="104" r="4" fill="#315be8" opacity="0.56"/><circle cx="328" cy="193" r="4" fill="#315be8" opacity="0.55"/><circle cx="635" cy="282" r="4" fill="#315be8" opacity="0.54"/><circle cx="634" cy="342" r="4" fill="#315be8" opacity="0.6100000000000001"/>
  <path d="M98 300c110-170 248-42 350-120 60-46 118-84 210-28 66 40 54 132-26 152-96 24-160-50-246-24-100 30-152 94-288 20z" fill="none" stroke="#15191d" stroke-width="49" stroke-linecap="round"/><path d="M98 300c110-170 248-42 350-120 60-46 118-84 210-28 66 40 54 132-26 152-96 24-160-50-246-24-100 30-152 94-288 20z" fill="none" stroke="#fff" stroke-width="7" stroke-dasharray="24 22" stroke-linecap="round"/><rect x="352" y="250" width="150" height="42" rx="18" fill="#315be8"/><path d="M380 250l34-34h52l24 34z" fill="#fffaf4"/>
</svg>
