<svg xmlns="http://www.w3.org/2000/svg" viewBox="0 0 800 420" role="img" aria-label="Ilustracion propia de circuito de velocidad para esta pregunta">
  <defs>
    <linearGradient id="bg" x1="0" x2="1" y1="0" y2="1">
      <stop stop-color="#e7f8ff"/>
      <stop offset="1" stop-color="#315be8" stop-opacity="0.22"/>
    </linearGradient>
  </defs>
  <rect width="800" height="420" fill="url(#bg)"/>
  <circle cx="120" cy="219" r="137" fill="#15191d" opacity="0.13"/>
  <circle cx="399" cy="81" r="93" fill="#ff4f6d" opacity="0.16"/>
  <circle cx="625" cy="246" r="3" fill="#315be8" opacity="0.72"/><circle cx="318" cy="157" r="3" fill="#315be8" opacity="0.28"/><circle cx="755" cy="296" r="3" fill="#315be8" opacity="0.39"/><circle cx="216" cy="335" r="3" fill="#315be8" opacity="0.71"/><circle cx="653" cy="133" r="3" fill="#315be8" opacity="0.37"/><circle cx="346" cy="44" r="3" fill="#315be8" opacity="0.38"/><circle cx="551" cy="311" r="3" fill="#315be8" opacity="0.35000000000000003"/><circle cx="244" cy="222" r="3" fill="#315be8" opacity="0.36000000000000004"/><circle cx="449" cy="147" r="3" fill="#315be8" opacity="0.33"/>
  <path d="M98 300c110-170 248-42 350-120 60-46 118-84 210-28 66 40 54 132-26 152-96 24-160-50-246-24-100 30-152 94-288 20z" fill="none" stroke="#15191d" stroke-width="52" stroke-linecap="round"/><path d="M98 300c110-170 248-42 350-120 60-46 118-84 210-28 66 40 54 132-26 152-96 24-160-50-246-24-100 30-152 94-288 20z" fill="none" stroke="#fff" stroke-width="7" stroke-dasharray="24 22" stroke-linecap="round"/><rect x="376" y="250" width="150" height="42" rx="18" fill="#315be8"/><path d="M404 250l34-34h52l24 34z" fill="#fffaf4"/>
</svg>
