<svg xmlns="http://www.w3.org/2000/svg" viewBox="0 0 800 420" role="img" aria-label="Ilustracion propia de circuito de velocidad para esta pregunta">
  <defs>
    <linearGradient id="bg" x1="0" x2="1" y1="0" y2="1">
      <stop stop-color="#e7f8ff"/>
      <stop offset="1" stop-color="#315be8" stop-opacity="0.22"/>
    </linearGradient>
  </defs>
  <rect width="800" height="420" fill="url(#bg)"/>
  <circle cx="196" cy="195" r="121" fill="#15191d" opacity="0.13"/>
  <circle cx="183" cy="257" r="71" fill="#ff4f6d" opacity="0.16"/>
  <circle cx="706" cy="288" r="5" fill="#315be8" opacity="0.36000000000000004"/><circle cx="297" cy="377" r="5" fill="#315be8" opacity="0.35000000000000003"/><circle cx="604" cy="124" r="5" fill="#315be8" opacity="0.34"/><circle cx="195" cy="213" r="5" fill="#315be8" opacity="0.33"/><circle cx="502" cy="302" r="5" fill="#315be8" opacity="0.32"/><circle cx="93" cy="49" r="5" fill="#315be8" opacity="0.31000000000000005"/><circle cx="400" cy="138" r="5" fill="#315be8" opacity="0.30000000000000004"/><circle cx="707" cy="228" r="5" fill="#315be8" opacity="0.29000000000000004"/><circle cx="166" cy="44" r="5" fill="#315be8" opacity="0.30000000000000004"/>
  <path d="M98 300c110-170 248-42 350-120 60-46 118-84 210-28 66 40 54 132-26 152-96 24-160-50-246-24-100 30-152 94-288 20z" fill="none" stroke="#15191d" stroke-width="40" stroke-linecap="round"/><path d="M98 300c110-170 248-42 350-120 60-46 118-84 210-28 66 40 54 132-26 152-96 24-160-50-246-24-100 30-152 94-288 20z" fill="none" stroke="#fff" stroke-width="7" stroke-dasharray="24 22" stroke-linecap="round"/><rect x="280" y="250" width="150" height="42" rx="18" fill="#315be8"/><path d="M308 250l34-34h52l24 34z" fill="#fffaf4"/>
</svg>
