<svg xmlns="http://www.w3.org/2000/svg" viewBox="0 0 800 420" role="img" aria-label="Ilustracion propia de estadio y futbol generico para esta pregunta">
  <defs>
    <linearGradient id="bg" x1="0" x2="1" y1="0" y2="1">
      <stop stop-color="#eaf8f5"/>
      <stop offset="1" stop-color="#26b99f" stop-opacity="0.22"/>
    </linearGradient>
  </defs>
  <rect width="800" height="420" fill="url(#bg)"/>
  <circle cx="319" cy="323" r="82" fill="#26b99f" opacity="0.13"/>
  <circle cx="348" cy="273" r="136" fill="#f6bc42" opacity="0.16"/>
  <circle cx="601" cy="41" r="5" fill="#15191d" opacity="0.48000000000000004"/><circle cx="294" cy="294" r="5" fill="#15191d" opacity="0.49"/><circle cx="499" cy="220" r="5" fill="#15191d" opacity="0.46"/><circle cx="192" cy="130" r="5" fill="#15191d" opacity="0.47000000000000003"/><circle cx="397" cy="56" r="5" fill="#15191d" opacity="0.44000000000000006"/><circle cx="90" cy="309" r="5" fill="#15191d" opacity="0.45000000000000007"/><circle cx="295" cy="234" r="5" fill="#15191d" opacity="0.42000000000000004"/><circle cx="704" cy="145" r="5" fill="#15191d" opacity="0.43000000000000005"/><circle cx="293" cy="354" r="5" fill="#15191d" opacity="0.56"/>
  <path d="M92 270c130-94 486-94 616 0v92H92z" fill="#26b99f" opacity=".9"/><path d="M150 270c102-54 398-54 500 0" fill="none" stroke="#fff" stroke-width="14" opacity=".64"/><rect x="165" y="304" width="470" height="62" rx="16" fill="#f6bc42"/><path d="M400 304v62M165 335h470" stroke="#fff" stroke-width="4" opacity=".65"/><path d="M400 104l18 45h48l-38 29 14 48-42-28-42 28 14-48-38-29h48z" fill="#15191d"/>
</svg>
