<svg xmlns="http://www.w3.org/2000/svg" viewBox="0 0 800 420" role="img" aria-label="Ilustracion propia de estadio y futbol generico para esta pregunta">
  <defs>
    <linearGradient id="bg" x1="0" x2="1" y1="0" y2="1">
      <stop stop-color="#eaf8f5"/>
      <stop offset="1" stop-color="#26b99f" stop-opacity="0.22"/>
    </linearGradient>
  </defs>
  <rect width="800" height="420" fill="url(#bg)"/>
  <circle cx="354" cy="324" r="80" fill="#26b99f" opacity="0.13"/>
  <circle cx="128" cy="202" r="96" fill="#f6bc42" opacity="0.16"/>
  <circle cx="137" cy="103" r="2" fill="#15191d" opacity="0.6000000000000001"/><circle cx="546" cy="356" r="2" fill="#15191d" opacity="0.6100000000000001"/><circle cx="751" cy="281" r="2" fill="#15191d" opacity="0.5800000000000001"/><circle cx="444" cy="192" r="2" fill="#15191d" opacity="0.5900000000000001"/><circle cx="341" cy="89" r="2" fill="#15191d" opacity="0.64"/><circle cx="750" cy="341" r="2" fill="#15191d" opacity="0.65"/><circle cx="239" cy="267" r="2" fill="#15191d" opacity="0.6200000000000001"/><circle cx="648" cy="178" r="2" fill="#15191d" opacity="0.63"/><circle cx="545" cy="74" r="2" fill="#15191d" opacity="0.68"/>
  <rect x="118" y="78" width="564" height="264" rx="26" fill="#f6bc42"/><path d="M400 78v264M118 210h564" stroke="#fff" stroke-width="7" opacity=".76"/><circle cx="400" cy="210" r="58" fill="none" stroke="#fff" stroke-width="7" opacity=".76"/><circle cx="334" cy="218" r="32" fill="#fff"/><path d="M302 218h64M334 186v64" stroke="#26b99f" stroke-width="5" opacity=".5"/>
</svg>
