<svg xmlns="http://www.w3.org/2000/svg" viewBox="0 0 800 420" role="img" aria-label="Ilustracion propia de estadio y futbol generico para esta pregunta">
  <defs>
    <linearGradient id="bg" x1="0" x2="1" y1="0" y2="1">
      <stop stop-color="#eaf8f5"/>
      <stop offset="1" stop-color="#f6bc42" stop-opacity="0.22"/>
    </linearGradient>
  </defs>
  <rect width="800" height="420" fill="url(#bg)"/>
  <circle cx="674" cy="346" r="101" fill="#26b99f" opacity="0.13"/>
  <circle cx="243" cy="97" r="118" fill="#f6bc42" opacity="0.16"/>
  <circle cx="484" cy="258" r="2" fill="#15191d" opacity="0.63"/><circle cx="75" cy="347" r="2" fill="#15191d" opacity="0.6200000000000001"/><circle cx="586" cy="79" r="2" fill="#15191d" opacity="0.65"/><circle cx="177" cy="168" r="2" fill="#15191d" opacity="0.64"/><circle cx="280" cy="272" r="2" fill="#15191d" opacity="0.5900000000000001"/><circle cx="587" cy="361" r="2" fill="#15191d" opacity="0.5800000000000001"/><circle cx="382" cy="94" r="2" fill="#15191d" opacity="0.6100000000000001"/><circle cx="689" cy="183" r="2" fill="#15191d" opacity="0.6000000000000001"/><circle cx="176" cy="228" r="2" fill="#15191d" opacity="0.71"/>
  <path d="M92 270c130-94 486-94 616 0v92H92z" fill="#26b99f" opacity=".9"/><path d="M150 270c102-54 398-54 500 0" fill="none" stroke="#fff" stroke-width="14" opacity=".64"/><rect x="165" y="304" width="470" height="62" rx="16" fill="#f6bc42"/><path d="M400 304v62M165 335h470" stroke="#fff" stroke-width="4" opacity=".65"/><path d="M400 104l18 45h48l-38 29 14 48-42-28-42 28 14-48-38-29h48z" fill="#15191d"/>
</svg>
