<svg xmlns="http://www.w3.org/2000/svg" viewBox="0 0 800 420" role="img" aria-label="Ilustracion propia de estadio y futbol generico para esta pregunta">
  <defs>
    <linearGradient id="bg" x1="0" x2="1" y1="0" y2="1">
      <stop stop-color="#eaf8f5"/>
      <stop offset="1" stop-color="#26b99f" stop-opacity="0.22"/>
    </linearGradient>
  </defs>
  <rect width="800" height="420" fill="url(#bg)"/>
  <circle cx="442" cy="118" r="88" fill="#26b99f" opacity="0.13"/>
  <circle cx="664" cy="69" r="77" fill="#f6bc42" opacity="0.16"/>
  <circle cx="332" cy="302" r="2" fill="#15191d" opacity="0.52"/><circle cx="639" cy="49" r="2" fill="#15191d" opacity="0.51"/><circle cx="434" cy="124" r="2" fill="#15191d" opacity="0.54"/><circle cx="741" cy="213" r="2" fill="#15191d" opacity="0.53"/><circle cx="128" cy="317" r="2" fill="#15191d" opacity="0.48000000000000004"/><circle cx="435" cy="64" r="2" fill="#15191d" opacity="0.47000000000000003"/><circle cx="230" cy="138" r="2" fill="#15191d" opacity="0.5"/><circle cx="537" cy="228" r="2" fill="#15191d" opacity="0.49"/><circle cx="640" cy="331" r="2" fill="#15191d" opacity="0.44000000000000006"/>
  <rect x="118" y="78" width="564" height="264" rx="26" fill="#f6bc42"/><path d="M400 78v264M118 210h564" stroke="#fff" stroke-width="7" opacity=".76"/><circle cx="400" cy="210" r="58" fill="none" stroke="#fff" stroke-width="7" opacity=".76"/><circle cx="258" cy="182" r="32" fill="#fff"/><path d="M226 182h64M258 150v64" stroke="#26b99f" stroke-width="5" opacity=".5"/>
</svg>
