<svg xmlns="http://www.w3.org/2000/svg" viewBox="0 0 800 420" role="img" aria-label="Ilustracion propia de estadio y futbol generico para esta pregunta">
  <defs>
    <linearGradient id="bg" x1="0" x2="1" y1="0" y2="1">
      <stop stop-color="#eaf8f5"/>
      <stop offset="1" stop-color="#f6bc42" stop-opacity="0.22"/>
    </linearGradient>
  </defs>
  <rect width="800" height="420" fill="url(#bg)"/>
  <circle cx="234" cy="69" r="111" fill="#26b99f" opacity="0.13"/>
  <circle cx="638" cy="277" r="119" fill="#f6bc42" opacity="0.16"/>
  <circle cx="412" cy="300" r="4" fill="#15191d" opacity="0.44000000000000006"/><circle cx="719" cy="48" r="4" fill="#15191d" opacity="0.43000000000000005"/><circle cx="514" cy="122" r="4" fill="#15191d" opacity="0.46"/><circle cx="105" cy="211" r="4" fill="#15191d" opacity="0.45000000000000007"/><circle cx="208" cy="315" r="4" fill="#15191d" opacity="0.4"/><circle cx="515" cy="62" r="4" fill="#15191d" opacity="0.39"/><circle cx="310" cy="137" r="4" fill="#15191d" opacity="0.42000000000000004"/><circle cx="617" cy="226" r="4" fill="#15191d" opacity="0.41000000000000003"/><circle cx="720" cy="330" r="4" fill="#15191d" opacity="0.36000000000000004"/>
  <rect x="118" y="78" width="564" height="264" rx="26" fill="#f6bc42"/><path d="M400 78v264M118 210h564" stroke="#fff" stroke-width="7" opacity=".76"/><circle cx="400" cy="210" r="58" fill="none" stroke="#fff" stroke-width="7" opacity=".76"/><circle cx="334" cy="218" r="32" fill="#fff"/><path d="M302 218h64M334 186v64" stroke="#26b99f" stroke-width="5" opacity=".5"/>
</svg>
