<svg xmlns="http://www.w3.org/2000/svg" viewBox="0 0 800 420" role="img" aria-label="Ilustracion propia de cancha de baloncesto para esta pregunta">
  <defs>
    <linearGradient id="bg" x1="0" x2="1" y1="0" y2="1">
      <stop stop-color="#fff1df"/>
      <stop offset="1" stop-color="#f6bc42" stop-opacity="0.22"/>
    </linearGradient>
  </defs>
  <rect width="800" height="420" fill="url(#bg)"/>
  <circle cx="501" cy="150" r="98" fill="#f6bc42" opacity="0.13"/>
  <circle cx="371" cy="144" r="78" fill="#d95a35" opacity="0.16"/>
  <circle cx="64" cy="338" r="3" fill="#15191d" opacity="0.28"/><circle cx="371" cy="85" r="3" fill="#15191d" opacity="0.72"/><circle cx="166" cy="160" r="3" fill="#15191d" opacity="0.30000000000000004"/><circle cx="473" cy="249" r="3" fill="#15191d" opacity="0.29000000000000004"/><circle cx="576" cy="353" r="3" fill="#15191d" opacity="0.69"/><circle cx="167" cy="100" r="3" fill="#15191d" opacity="0.68"/><circle cx="678" cy="174" r="3" fill="#15191d" opacity="0.71"/><circle cx="269" cy="263" r="3" fill="#15191d" opacity="0.7"/><circle cx="472" cy="309" r="3" fill="#15191d" opacity="0.36000000000000004"/>
  <rect x="76" y="58" width="648" height="304" rx="30" fill="#d95a35"/><path d="M100 210h600M400 58v304" stroke="#fffaf4" stroke-width="8" opacity=".8"/><circle cx="400" cy="210" r="52" fill="none" stroke="#fffaf4" stroke-width="8" opacity=".8"/><circle cx="180" cy="150" r="42" fill="#15191d"/><path d="M138 150h84M180 108v84" stroke="#f6bc42" stroke-width="5" fill="none"/>
</svg>
