<svg xmlns="http://www.w3.org/2000/svg" viewBox="0 0 800 420" role="img" aria-label="Ilustracion propia de estadio y futbol generico para esta pregunta">
  <defs>
    <linearGradient id="bg" x1="0" x2="1" y1="0" y2="1">
      <stop stop-color="#eaf8f5"/>
      <stop offset="1" stop-color="#15191d" stop-opacity="0.22"/>
    </linearGradient>
  </defs>
  <rect width="800" height="420" fill="url(#bg)"/>
  <circle cx="365" cy="88" r="91" fill="#26b99f" opacity="0.13"/>
  <circle cx="129" cy="101" r="87" fill="#f6bc42" opacity="0.16"/>
  <circle cx="206" cy="282" r="3" fill="#15191d" opacity="0.65"/><circle cx="513" cy="371" r="3" fill="#15191d" opacity="0.64"/><circle cx="104" cy="118" r="3" fill="#15191d" opacity="0.63"/><circle cx="411" cy="207" r="3" fill="#15191d" opacity="0.6200000000000001"/><circle cx="410" cy="267" r="3" fill="#15191d" opacity="0.69"/><circle cx="717" cy="356" r="3" fill="#15191d" opacity="0.68"/><circle cx="308" cy="103" r="3" fill="#15191d" opacity="0.67"/><circle cx="615" cy="192" r="3" fill="#15191d" opacity="0.66"/><circle cx="614" cy="252" r="3" fill="#15191d" opacity="0.28"/>
  <path d="M92 270c130-94 486-94 616 0v92H92z" fill="#26b99f" opacity=".9"/><path d="M150 270c102-54 398-54 500 0" fill="none" stroke="#fff" stroke-width="14" opacity=".64"/><rect x="165" y="304" width="470" height="62" rx="16" fill="#f6bc42"/><path d="M400 304v62M165 335h470" stroke="#fff" stroke-width="4" opacity=".65"/><path d="M400 110l18 45h48l-38 29 14 48-42-28-42 28 14-48-38-29h48z" fill="#15191d"/>
</svg>
