<svg xmlns="http://www.w3.org/2000/svg" viewBox="0 0 800 420" role="img" aria-label="Ilustracion propia de estadio y futbol generico para esta pregunta">
  <defs>
    <linearGradient id="bg" x1="0" x2="1" y1="0" y2="1">
      <stop stop-color="#eaf8f5"/>
      <stop offset="1" stop-color="#eaf8f5" stop-opacity="0.22"/>
    </linearGradient>
  </defs>
  <rect width="800" height="420" fill="url(#bg)"/>
  <circle cx="509" cy="323" r="94" fill="#26b99f" opacity="0.13"/>
  <circle cx="222" cy="166" r="137" fill="#f6bc42" opacity="0.16"/>
  <circle cx="607" cy="304" r="4" fill="#15191d" opacity="0.5"/><circle cx="300" cy="215" r="4" fill="#15191d" opacity="0.51"/><circle cx="709" cy="126" r="4" fill="#15191d" opacity="0.52"/><circle cx="402" cy="36" r="4" fill="#15191d" opacity="0.53"/><circle cx="95" cy="289" r="4" fill="#15191d" opacity="0.54"/><circle cx="504" cy="200" r="4" fill="#15191d" opacity="0.55"/><circle cx="197" cy="111" r="4" fill="#15191d" opacity="0.56"/><circle cx="606" cy="364" r="4" fill="#15191d" opacity="0.5700000000000001"/><circle cx="199" cy="333" r="4" fill="#15191d" opacity="0.42000000000000004"/>
  <rect x="118" y="78" width="564" height="264" rx="26" fill="#f6bc42"/><path d="M400 78v264M118 210h564" stroke="#fff" stroke-width="7" opacity=".76"/><circle cx="400" cy="210" r="58" fill="none" stroke="#fff" stroke-width="7" opacity=".76"/><circle cx="334" cy="218" r="32" fill="#fff"/><path d="M302 218h64M334 186v64" stroke="#26b99f" stroke-width="5" opacity=".5"/>
</svg>
