<svg xmlns="http://www.w3.org/2000/svg" viewBox="0 0 800 420" role="img" aria-label="Ilustracion propia de estadio y futbol generico para esta pregunta">
  <defs>
    <linearGradient id="bg" x1="0" x2="1" y1="0" y2="1">
      <stop stop-color="#eaf8f5"/>
      <stop offset="1" stop-color="#26b99f" stop-opacity="0.22"/>
    </linearGradient>
  </defs>
  <rect width="800" height="420" fill="url(#bg)"/>
  <circle cx="419" cy="280" r="104" fill="#26b99f" opacity="0.13"/>
  <circle cx="586" cy="160" r="89" fill="#f6bc42" opacity="0.16"/>
  <circle cx="112" cy="216" r="3" fill="#15191d" opacity="0.28"/><circle cx="419" cy="305" r="3" fill="#15191d" opacity="0.72"/><circle cx="214" cy="38" r="3" fill="#15191d" opacity="0.30000000000000004"/><circle cx="521" cy="127" r="3" fill="#15191d" opacity="0.29000000000000004"/><circle cx="316" cy="202" r="3" fill="#15191d" opacity="0.32"/><circle cx="623" cy="291" r="3" fill="#15191d" opacity="0.31000000000000005"/><circle cx="418" cy="365" r="3" fill="#15191d" opacity="0.34"/><circle cx="725" cy="112" r="3" fill="#15191d" opacity="0.33"/><circle cx="520" cy="187" r="3" fill="#15191d" opacity="0.36000000000000004"/>
  <rect x="118" y="78" width="564" height="264" rx="26" fill="#f6bc42"/><path d="M400 78v264M118 210h564" stroke="#fff" stroke-width="7" opacity=".76"/><circle cx="400" cy="210" r="58" fill="none" stroke="#fff" stroke-width="7" opacity=".76"/><circle cx="334" cy="218" r="32" fill="#fff"/><path d="M302 218h64M334 186v64" stroke="#26b99f" stroke-width="5" opacity=".5"/>
</svg>
