<svg xmlns="http://www.w3.org/2000/svg" viewBox="0 0 800 420" role="img" aria-label="Ilustracion propia de estadio y futbol generico para esta pregunta">
  <defs>
    <linearGradient id="bg" x1="0" x2="1" y1="0" y2="1">
      <stop stop-color="#eaf8f5"/>
      <stop offset="1" stop-color="#eaf8f5" stop-opacity="0.22"/>
    </linearGradient>
  </defs>
  <rect width="800" height="420" fill="url(#bg)"/>
  <circle cx="601" cy="93" r="102" fill="#26b99f" opacity="0.13"/>
  <circle cx="684" cy="316" r="138" fill="#f6bc42" opacity="0.16"/>
  <circle cx="120" cy="45" r="5" fill="#15191d" opacity="0.6000000000000001"/><circle cx="427" cy="134" r="5" fill="#15191d" opacity="0.5900000000000001"/><circle cx="222" cy="209" r="5" fill="#15191d" opacity="0.6200000000000001"/><circle cx="529" cy="298" r="5" fill="#15191d" opacity="0.6100000000000001"/><circle cx="324" cy="372" r="5" fill="#15191d" opacity="0.64"/><circle cx="631" cy="119" r="5" fill="#15191d" opacity="0.63"/><circle cx="426" cy="194" r="5" fill="#15191d" opacity="0.66"/><circle cx="733" cy="283" r="5" fill="#15191d" opacity="0.65"/><circle cx="428" cy="74" r="2" fill="#15191d" opacity="0.52"/>
  <rect x="118" y="78" width="564" height="264" rx="26" fill="#f6bc42"/><path d="M400 78v264M118 210h564" stroke="#fff" stroke-width="7" opacity=".76"/><circle cx="400" cy="210" r="58" fill="none" stroke="#fff" stroke-width="7" opacity=".76"/><circle cx="220" cy="164" r="32" fill="#fff"/><path d="M188 164h64M220 132v64" stroke="#26b99f" stroke-width="5" opacity=".5"/>
</svg>
