<svg xmlns="http://www.w3.org/2000/svg" viewBox="0 0 800 420" role="img" aria-label="Ilustracion propia de estadio y futbol generico para esta pregunta">
  <defs>
    <linearGradient id="bg" x1="0" x2="1" y1="0" y2="1">
      <stop stop-color="#eaf8f5"/>
      <stop offset="1" stop-color="#eaf8f5" stop-opacity="0.22"/>
    </linearGradient>
  </defs>
  <rect width="800" height="420" fill="url(#bg)"/>
  <circle cx="102" cy="136" r="98" fill="#26b99f" opacity="0.13"/>
  <circle cx="546" cy="178" r="88" fill="#f6bc42" opacity="0.16"/>
  <circle cx="306" cy="85" r="4" fill="#15191d" opacity="0.71"/><circle cx="613" cy="174" r="4" fill="#15191d" opacity="0.7"/><circle cx="204" cy="263" r="4" fill="#15191d" opacity="0.69"/><circle cx="511" cy="353" r="4" fill="#15191d" opacity="0.68"/><circle cx="102" cy="100" r="4" fill="#15191d" opacity="0.67"/><circle cx="409" cy="189" r="4" fill="#15191d" opacity="0.66"/><circle cx="716" cy="278" r="4" fill="#15191d" opacity="0.65"/><circle cx="307" cy="367" r="4" fill="#15191d" opacity="0.64"/><circle cx="614" cy="114" r="4" fill="#15191d" opacity="0.63"/>
  <rect x="118" y="78" width="564" height="264" rx="26" fill="#f6bc42"/><path d="M400 78v264M118 210h564" stroke="#fff" stroke-width="7" opacity=".76"/><circle cx="400" cy="210" r="58" fill="none" stroke="#fff" stroke-width="7" opacity=".76"/><circle cx="258" cy="182" r="32" fill="#fff"/><path d="M226 182h64M258 150v64" stroke="#26b99f" stroke-width="5" opacity=".5"/>
</svg>
