<svg xmlns="http://www.w3.org/2000/svg" viewBox="0 0 800 420" role="img" aria-label="Ilustracion propia de estadio y futbol generico para esta pregunta">
  <defs>
    <linearGradient id="bg" x1="0" x2="1" y1="0" y2="1">
      <stop stop-color="#eaf8f5"/>
      <stop offset="1" stop-color="#f6bc42" stop-opacity="0.22"/>
    </linearGradient>
  </defs>
  <rect width="800" height="420" fill="url(#bg)"/>
  <circle cx="415" cy="132" r="89" fill="#26b99f" opacity="0.13"/>
  <circle cx="435" cy="106" r="97" fill="#f6bc42" opacity="0.16"/>
  <circle cx="305" cy="237" r="2" fill="#15191d" opacity="0.51"/><circle cx="714" cy="148" r="2" fill="#15191d" opacity="0.52"/><circle cx="203" cy="73" r="2" fill="#15191d" opacity="0.49"/><circle cx="612" cy="326" r="2" fill="#15191d" opacity="0.5"/><circle cx="509" cy="222" r="2" fill="#15191d" opacity="0.55"/><circle cx="202" cy="133" r="2" fill="#15191d" opacity="0.56"/><circle cx="407" cy="59" r="2" fill="#15191d" opacity="0.53"/><circle cx="100" cy="312" r="2" fill="#15191d" opacity="0.54"/><circle cx="713" cy="208" r="2" fill="#15191d" opacity="0.5900000000000001"/>
  <rect x="118" y="78" width="564" height="264" rx="26" fill="#f6bc42"/><path d="M400 78v264M118 210h564" stroke="#fff" stroke-width="7" opacity=".76"/><circle cx="400" cy="210" r="58" fill="none" stroke="#fff" stroke-width="7" opacity=".76"/><circle cx="372" cy="236" r="32" fill="#fff"/><path d="M340 236h64M372 204v64" stroke="#26b99f" stroke-width="5" opacity=".5"/>
</svg>
