<svg xmlns="http://www.w3.org/2000/svg" viewBox="0 0 800 420" role="img" aria-label="Ilustracion propia de cancha de baloncesto para esta pregunta">
  <defs>
    <linearGradient id="bg" x1="0" x2="1" y1="0" y2="1">
      <stop stop-color="#fff1df"/>
      <stop offset="1" stop-color="#d95a35" stop-opacity="0.22"/>
    </linearGradient>
  </defs>
  <rect width="800" height="420" fill="url(#bg)"/>
  <circle cx="286" cy="148" r="101" fill="#f6bc42" opacity="0.13"/>
  <circle cx="569" cy="108" r="98" fill="#d95a35" opacity="0.16"/>
  <circle cx="232" cy="214" r="3" fill="#15191d" opacity="0.64"/><circle cx="539" cy="303" r="3" fill="#15191d" opacity="0.63"/><circle cx="334" cy="36" r="3" fill="#15191d" opacity="0.66"/><circle cx="641" cy="125" r="3" fill="#15191d" opacity="0.65"/><circle cx="436" cy="199" r="3" fill="#15191d" opacity="0.68"/><circle cx="743" cy="289" r="3" fill="#15191d" opacity="0.67"/><circle cx="538" cy="363" r="3" fill="#15191d" opacity="0.7"/><circle cx="129" cy="110" r="3" fill="#15191d" opacity="0.69"/><circle cx="640" cy="185" r="3" fill="#15191d" opacity="0.72"/>
  <rect x="76" y="58" width="648" height="304" rx="30" fill="#d95a35"/><path d="M100 210h600M400 58v304" stroke="#fffaf4" stroke-width="8" opacity=".8"/><circle cx="400" cy="210" r="52" fill="none" stroke="#fffaf4" stroke-width="8" opacity=".8"/><circle cx="180" cy="150" r="42" fill="#15191d"/><path d="M138 150h84M180 108v84" stroke="#f6bc42" stroke-width="5" fill="none"/>
</svg>
