<svg xmlns="http://www.w3.org/2000/svg" viewBox="0 0 800 420" role="img" aria-label="Ilustracion propia de estadio y futbol generico para esta pregunta">
  <defs>
    <linearGradient id="bg" x1="0" x2="1" y1="0" y2="1">
      <stop stop-color="#eaf8f5"/>
      <stop offset="1" stop-color="#f6bc42" stop-opacity="0.22"/>
    </linearGradient>
  </defs>
  <rect width="800" height="420" fill="url(#bg)"/>
  <circle cx="693" cy="94" r="133" fill="#26b99f" opacity="0.13"/>
  <circle cx="545" cy="280" r="112" fill="#f6bc42" opacity="0.16"/>
  <circle cx="370" cy="163" r="5" fill="#15191d" opacity="0.45000000000000007"/><circle cx="193" cy="124" r="5" fill="#15191d" opacity="0.5800000000000001"/><circle cx="500" cy="213" r="5" fill="#15191d" opacity="0.5700000000000001"/><circle cx="91" cy="302" r="5" fill="#15191d" opacity="0.56"/><circle cx="574" cy="148" r="5" fill="#15191d" opacity="0.49"/><circle cx="165" cy="238" r="5" fill="#15191d" opacity="0.48000000000000004"/><circle cx="472" cy="327" r="5" fill="#15191d" opacity="0.47000000000000003"/><circle cx="63" cy="74" r="5" fill="#15191d" opacity="0.46"/><circle cx="194" cy="64" r="5" fill="#15191d" opacity="0.51"/>
  <path d="M92 270c130-94 486-94 616 0v92H92z" fill="#26b99f" opacity=".9"/><path d="M150 270c102-54 398-54 500 0" fill="none" stroke="#fff" stroke-width="14" opacity=".64"/><rect x="165" y="304" width="470" height="62" rx="16" fill="#f6bc42"/><path d="M400 304v62M165 335h470" stroke="#fff" stroke-width="4" opacity=".65"/><path d="M400 98l18 45h48l-38 29 14 48-42-28-42 28 14-48-38-29h48z" fill="#15191d"/>
</svg>
