<svg xmlns="http://www.w3.org/2000/svg" viewBox="0 0 800 420" role="img" aria-label="Ilustracion propia de estadio y futbol generico para esta pregunta">
  <defs>
    <linearGradient id="bg" x1="0" x2="1" y1="0" y2="1">
      <stop stop-color="#eaf8f5"/>
      <stop offset="1" stop-color="#15191d" stop-opacity="0.22"/>
    </linearGradient>
  </defs>
  <rect width="800" height="420" fill="url(#bg)"/>
  <circle cx="119" cy="223" r="97" fill="#26b99f" opacity="0.13"/>
  <circle cx="548" cy="189" r="78" fill="#f6bc42" opacity="0.16"/>
  <circle cx="451" cy="102" r="3" fill="#15191d" opacity="0.49"/><circle cx="144" cy="355" r="3" fill="#15191d" opacity="0.5"/><circle cx="553" cy="266" r="3" fill="#15191d" opacity="0.51"/><circle cx="246" cy="177" r="3" fill="#15191d" opacity="0.52"/><circle cx="655" cy="87" r="3" fill="#15191d" opacity="0.53"/><circle cx="348" cy="340" r="3" fill="#15191d" opacity="0.54"/><circle cx="757" cy="251" r="3" fill="#15191d" opacity="0.55"/><circle cx="450" cy="162" r="3" fill="#15191d" opacity="0.56"/><circle cx="43" cy="131" r="4" fill="#15191d" opacity="0.41000000000000003"/>
  <rect x="118" y="78" width="564" height="264" rx="26" fill="#f6bc42"/><path d="M400 78v264M118 210h564" stroke="#fff" stroke-width="7" opacity=".76"/><circle cx="400" cy="210" r="58" fill="none" stroke="#fff" stroke-width="7" opacity=".76"/><circle cx="334" cy="218" r="32" fill="#fff"/><path d="M302 218h64M334 186v64" stroke="#26b99f" stroke-width="5" opacity=".5"/>
</svg>
