<svg xmlns="http://www.w3.org/2000/svg" viewBox="0 0 800 420" role="img" aria-label="Ilustracion propia de estadio y futbol generico para esta pregunta">
  <defs>
    <linearGradient id="bg" x1="0" x2="1" y1="0" y2="1">
      <stop stop-color="#eaf8f5"/>
      <stop offset="1" stop-color="#f6bc42" stop-opacity="0.22"/>
    </linearGradient>
  </defs>
  <rect width="800" height="420" fill="url(#bg)"/>
  <circle cx="468" cy="305" r="65" fill="#26b99f" opacity="0.13"/>
  <circle cx="367" cy="163" r="104" fill="#f6bc42" opacity="0.16"/>
  <circle cx="519" cy="188" r="2" fill="#15191d" opacity="0.52"/><circle cx="212" cy="99" r="2" fill="#15191d" opacity="0.53"/><circle cx="621" cy="352" r="2" fill="#15191d" opacity="0.54"/><circle cx="314" cy="263" r="2" fill="#15191d" opacity="0.55"/><circle cx="315" cy="203" r="2" fill="#15191d" opacity="0.48000000000000004"/><circle cx="724" cy="114" r="2" fill="#15191d" opacity="0.49"/><circle cx="417" cy="366" r="2" fill="#15191d" opacity="0.5"/><circle cx="110" cy="277" r="2" fill="#15191d" opacity="0.51"/><circle cx="111" cy="217" r="2" fill="#15191d" opacity="0.44000000000000006"/>
  <rect x="118" y="78" width="564" height="264" rx="26" fill="#f6bc42"/><path d="M400 78v264M118 210h564" stroke="#fff" stroke-width="7" opacity=".76"/><circle cx="400" cy="210" r="58" fill="none" stroke="#fff" stroke-width="7" opacity=".76"/><circle cx="296" cy="200" r="32" fill="#fff"/><path d="M264 200h64M296 168v64" stroke="#26b99f" stroke-width="5" opacity=".5"/>
</svg>
