<svg xmlns="http://www.w3.org/2000/svg" viewBox="0 0 800 420" role="img" aria-label="Ilustracion propia de estadio y futbol generico para esta pregunta">
  <defs>
    <linearGradient id="bg" x1="0" x2="1" y1="0" y2="1">
      <stop stop-color="#eaf8f5"/>
      <stop offset="1" stop-color="#26b99f" stop-opacity="0.22"/>
    </linearGradient>
  </defs>
  <rect width="800" height="420" fill="url(#bg)"/>
  <circle cx="232" cy="220" r="86" fill="#26b99f" opacity="0.13"/>
  <circle cx="113" cy="81" r="66" fill="#f6bc42" opacity="0.16"/>
  <circle cx="628" cy="126" r="4" fill="#15191d" opacity="0.41000000000000003"/><circle cx="219" cy="215" r="4" fill="#15191d" opacity="0.4"/><circle cx="730" cy="290" r="4" fill="#15191d" opacity="0.43000000000000005"/><circle cx="321" cy="37" r="4" fill="#15191d" opacity="0.42000000000000004"/><circle cx="424" cy="141" r="4" fill="#15191d" opacity="0.37"/><circle cx="731" cy="230" r="4" fill="#15191d" opacity="0.36000000000000004"/><circle cx="526" cy="305" r="4" fill="#15191d" opacity="0.39"/><circle cx="117" cy="52" r="4" fill="#15191d" opacity="0.38"/><circle cx="320" cy="97" r="4" fill="#15191d" opacity="0.49"/>
  <rect x="118" y="78" width="564" height="264" rx="26" fill="#f6bc42"/><path d="M400 78v264M118 210h564" stroke="#fff" stroke-width="7" opacity=".76"/><circle cx="400" cy="210" r="58" fill="none" stroke="#fff" stroke-width="7" opacity=".76"/><circle cx="258" cy="182" r="32" fill="#fff"/><path d="M226 182h64M258 150v64" stroke="#26b99f" stroke-width="5" opacity=".5"/>
</svg>
