<svg xmlns="http://www.w3.org/2000/svg" viewBox="0 0 800 420" role="img" aria-label="Ilustracion propia de arte y museo para esta pregunta">
  <defs>
    <linearGradient id="bg" x1="0" x2="1" y1="0" y2="1">
      <stop stop-color="#fff2df"/>
      <stop offset="1" stop-color="#ff4f6d" stop-opacity="0.22"/>
    </linearGradient>
  </defs>
  <rect width="800" height="420" fill="url(#bg)"/>
  <circle cx="391" cy="76" r="103" fill="#6f4a2d" opacity="0.13"/>
  <circle cx="507" cy="171" r="78" fill="#12b7a6" opacity="0.16"/>
  <circle cx="269" cy="62" r="4" fill="#ff4f6d" opacity="0.53"/><circle cx="678" cy="315" r="4" fill="#ff4f6d" opacity="0.54"/><circle cx="167" cy="241" r="4" fill="#ff4f6d" opacity="0.51"/><circle cx="576" cy="151" r="4" fill="#ff4f6d" opacity="0.52"/><circle cx="65" cy="77" r="4" fill="#ff4f6d" opacity="0.49"/><circle cx="474" cy="330" r="4" fill="#ff4f6d" opacity="0.5"/><circle cx="679" cy="255" r="5" fill="#ff4f6d" opacity="0.47000000000000003"/><circle cx="372" cy="166" r="5" fill="#ff4f6d" opacity="0.48000000000000004"/><circle cx="577" cy="91" r="5" fill="#ff4f6d" opacity="0.45000000000000007"/>
  <rect x="246" y="54" width="304" height="312" rx="24" fill="#6f4a2d"/><rect x="276" y="84" width="244" height="252" rx="16" fill="#d9c092"/><circle cx="398" cy="178" r="54" fill="#f0c7a5"/><path d="M328 318c12-82 42-120 70-120s58 38 70 120z" fill="#ff4f6d"/><path d="M342 154c36-72 116-46 122 10-36-18-74-18-122-10z" fill="#4a2d22"/>
</svg>
