<svg xmlns="http://www.w3.org/2000/svg" viewBox="0 0 800 420" role="img" aria-label="Ilustracion propia de estadio y futbol generico para esta pregunta">
  <defs>
    <linearGradient id="bg" x1="0" x2="1" y1="0" y2="1">
      <stop stop-color="#eaf8f5"/>
      <stop offset="1" stop-color="#eaf8f5" stop-opacity="0.22"/>
    </linearGradient>
  </defs>
  <rect width="800" height="420" fill="url(#bg)"/>
  <circle cx="163" cy="283" r="100" fill="#26b99f" opacity="0.13"/>
  <circle cx="404" cy="339" r="138" fill="#f6bc42" opacity="0.16"/>
  <circle cx="329" cy="199" r="4" fill="#15191d" opacity="0.5800000000000001"/><circle cx="738" cy="110" r="4" fill="#15191d" opacity="0.5900000000000001"/><circle cx="227" cy="36" r="4" fill="#15191d" opacity="0.56"/><circle cx="636" cy="289" r="4" fill="#15191d" opacity="0.5700000000000001"/><circle cx="533" cy="185" r="4" fill="#15191d" opacity="0.6200000000000001"/><circle cx="226" cy="96" r="4" fill="#15191d" opacity="0.63"/><circle cx="431" cy="363" r="4" fill="#15191d" opacity="0.6000000000000001"/><circle cx="124" cy="274" r="4" fill="#15191d" opacity="0.6100000000000001"/><circle cx="637" cy="229" r="4" fill="#15191d" opacity="0.5"/>
  <rect x="118" y="78" width="564" height="264" rx="26" fill="#f6bc42"/><path d="M400 78v264M118 210h564" stroke="#fff" stroke-width="7" opacity=".76"/><circle cx="400" cy="210" r="58" fill="none" stroke="#fff" stroke-width="7" opacity=".76"/><circle cx="296" cy="200" r="32" fill="#fff"/><path d="M264 200h64M296 168v64" stroke="#26b99f" stroke-width="5" opacity=".5"/>
</svg>
