<svg xmlns="http://www.w3.org/2000/svg" viewBox="0 0 800 420" role="img" aria-label="Ilustracion propia de estadio y futbol generico para esta pregunta">
  <defs>
    <linearGradient id="bg" x1="0" x2="1" y1="0" y2="1">
      <stop stop-color="#eaf8f5"/>
      <stop offset="1" stop-color="#15191d" stop-opacity="0.22"/>
    </linearGradient>
  </defs>
  <rect width="800" height="420" fill="url(#bg)"/>
  <circle cx="206" cy="255" r="69" fill="#26b99f" opacity="0.13"/>
  <circle cx="109" cy="264" r="104" fill="#f6bc42" opacity="0.16"/>
  <circle cx="574" cy="104" r="4" fill="#15191d" opacity="0.35000000000000003"/><circle cx="165" cy="193" r="4" fill="#15191d" opacity="0.34"/><circle cx="472" cy="282" r="4" fill="#15191d" opacity="0.33"/><circle cx="63" cy="371" r="4" fill="#15191d" opacity="0.32"/><circle cx="62" cy="89" r="4" fill="#15191d" opacity="0.39"/><circle cx="369" cy="179" r="4" fill="#15191d" opacity="0.38"/><circle cx="676" cy="268" r="4" fill="#15191d" opacity="0.37"/><circle cx="267" cy="357" r="4" fill="#15191d" opacity="0.36000000000000004"/><circle cx="166" cy="133" r="4" fill="#15191d" opacity="0.72"/>
  <rect x="118" y="78" width="564" height="264" rx="26" fill="#f6bc42"/><path d="M400 78v264M118 210h564" stroke="#fff" stroke-width="7" opacity=".76"/><circle cx="400" cy="210" r="58" fill="none" stroke="#fff" stroke-width="7" opacity=".76"/><circle cx="220" cy="164" r="32" fill="#fff"/><path d="M188 164h64M220 132v64" stroke="#26b99f" stroke-width="5" opacity=".5"/>
</svg>
