<svg xmlns="http://www.w3.org/2000/svg" viewBox="0 0 800 420" role="img" aria-label="Ilustracion propia de estadio y futbol generico para esta pregunta">
  <defs>
    <linearGradient id="bg" x1="0" x2="1" y1="0" y2="1">
      <stop stop-color="#eaf8f5"/>
      <stop offset="1" stop-color="#26b99f" stop-opacity="0.22"/>
    </linearGradient>
  </defs>
  <rect width="800" height="420" fill="url(#bg)"/>
  <circle cx="353" cy="282" r="136" fill="#26b99f" opacity="0.13"/>
  <circle cx="578" cy="125" r="133" fill="#f6bc42" opacity="0.16"/>
  <circle cx="690" cy="44" r="4" fill="#15191d" opacity="0.35000000000000003"/><circle cx="281" cy="133" r="4" fill="#15191d" opacity="0.34"/><circle cx="588" cy="222" r="4" fill="#15191d" opacity="0.33"/><circle cx="179" cy="311" r="4" fill="#15191d" opacity="0.32"/><circle cx="486" cy="58" r="4" fill="#15191d" opacity="0.31000000000000005"/><circle cx="77" cy="147" r="4" fill="#15191d" opacity="0.30000000000000004"/><circle cx="384" cy="236" r="4" fill="#15191d" opacity="0.29000000000000004"/><circle cx="691" cy="326" r="4" fill="#15191d" opacity="0.28"/><circle cx="282" cy="73" r="4" fill="#15191d" opacity="0.72"/>
  <path d="M92 270c130-94 486-94 616 0v92H92z" fill="#26b99f" opacity=".9"/><path d="M150 270c102-54 398-54 500 0" fill="none" stroke="#fff" stroke-width="14" opacity=".64"/><rect x="165" y="304" width="470" height="62" rx="16" fill="#f6bc42"/><path d="M400 304v62M165 335h470" stroke="#fff" stroke-width="4" opacity=".65"/><path d="M400 98l18 45h48l-38 29 14 48-42-28-42 28 14-48-38-29h48z" fill="#15191d"/>
</svg>
