<svg xmlns="http://www.w3.org/2000/svg" viewBox="0 0 800 420" role="img" aria-label="Ilustracion propia de estadio y futbol generico para esta pregunta">
  <defs>
    <linearGradient id="bg" x1="0" x2="1" y1="0" y2="1">
      <stop stop-color="#eaf8f5"/>
      <stop offset="1" stop-color="#eaf8f5" stop-opacity="0.22"/>
    </linearGradient>
  </defs>
  <rect width="800" height="420" fill="url(#bg)"/>
  <circle cx="507" cy="181" r="112" fill="#26b99f" opacity="0.13"/>
  <circle cx="447" cy="291" r="90" fill="#f6bc42" opacity="0.16"/>
  <circle cx="524" cy="338" r="5" fill="#15191d" opacity="0.63"/><circle cx="115" cy="85" r="5" fill="#15191d" opacity="0.6200000000000001"/><circle cx="626" cy="159" r="5" fill="#15191d" opacity="0.65"/><circle cx="217" cy="249" r="5" fill="#15191d" opacity="0.64"/><circle cx="728" cy="323" r="5" fill="#15191d" opacity="0.67"/><circle cx="319" cy="70" r="5" fill="#15191d" opacity="0.66"/><circle cx="114" cy="145" r="5" fill="#15191d" opacity="0.69"/><circle cx="421" cy="234" r="5" fill="#15191d" opacity="0.68"/><circle cx="116" cy="367" r="5" fill="#15191d" opacity="0.55"/>
  <rect x="118" y="78" width="564" height="264" rx="26" fill="#f6bc42"/><path d="M400 78v264M118 210h564" stroke="#fff" stroke-width="7" opacity=".76"/><circle cx="400" cy="210" r="58" fill="none" stroke="#fff" stroke-width="7" opacity=".76"/><circle cx="258" cy="182" r="32" fill="#fff"/><path d="M226 182h64M258 150v64" stroke="#26b99f" stroke-width="5" opacity=".5"/>
</svg>
