<svg xmlns="http://www.w3.org/2000/svg" viewBox="0 0 800 420" role="img" aria-label="Ilustracion propia de cancha de baloncesto para esta pregunta">
  <defs>
    <linearGradient id="bg" x1="0" x2="1" y1="0" y2="1">
      <stop stop-color="#fff1df"/>
      <stop offset="1" stop-color="#15191d" stop-opacity="0.22"/>
    </linearGradient>
  </defs>
  <rect width="800" height="420" fill="url(#bg)"/>
  <circle cx="481" cy="199" r="65" fill="#f6bc42" opacity="0.13"/>
  <circle cx="294" cy="222" r="64" fill="#d95a35" opacity="0.16"/>
  <circle cx="225" cy="200" r="2" fill="#15191d" opacity="0.56"/><circle cx="634" cy="111" r="2" fill="#15191d" opacity="0.5700000000000001"/><circle cx="123" cy="36" r="2" fill="#15191d" opacity="0.54"/><circle cx="532" cy="289" r="2" fill="#15191d" opacity="0.55"/><circle cx="737" cy="214" r="2" fill="#15191d" opacity="0.52"/><circle cx="430" cy="125" r="2" fill="#15191d" opacity="0.53"/><circle cx="635" cy="51" r="2" fill="#15191d" opacity="0.5"/><circle cx="328" cy="304" r="2" fill="#15191d" opacity="0.51"/><circle cx="533" cy="229" r="2" fill="#15191d" opacity="0.48000000000000004"/>
  <rect x="76" y="58" width="648" height="304" rx="30" fill="#d95a35"/><path d="M100 210h600M400 58v304" stroke="#fffaf4" stroke-width="8" opacity=".8"/><circle cx="400" cy="210" r="52" fill="none" stroke="#fffaf4" stroke-width="8" opacity=".8"/><circle cx="180" cy="150" r="42" fill="#15191d"/><path d="M138 150h84M180 108v84" stroke="#f6bc42" stroke-width="5" fill="none"/>
</svg>
