<svg xmlns="http://www.w3.org/2000/svg" viewBox="0 0 800 420" role="img" aria-label="Ilustracion propia de cancha de baloncesto para esta pregunta">
  <defs>
    <linearGradient id="bg" x1="0" x2="1" y1="0" y2="1">
      <stop stop-color="#fff1df"/>
      <stop offset="1" stop-color="#f6bc42" stop-opacity="0.22"/>
    </linearGradient>
  </defs>
  <rect width="800" height="420" fill="url(#bg)"/>
  <circle cx="157" cy="189" r="78" fill="#f6bc42" opacity="0.13"/>
  <circle cx="103" cy="220" r="65" fill="#d95a35" opacity="0.16"/>
  <circle cx="251" cy="215" r="4" fill="#15191d" opacity="0.66"/><circle cx="660" cy="126" r="4" fill="#15191d" opacity="0.67"/><circle cx="353" cy="37" r="4" fill="#15191d" opacity="0.68"/><circle cx="46" cy="289" r="4" fill="#15191d" opacity="0.69"/><circle cx="47" cy="229" r="4" fill="#15191d" opacity="0.6200000000000001"/><circle cx="456" cy="140" r="4" fill="#15191d" opacity="0.63"/><circle cx="149" cy="51" r="4" fill="#15191d" opacity="0.64"/><circle cx="558" cy="304" r="4" fill="#15191d" opacity="0.65"/><circle cx="659" cy="186" r="4" fill="#15191d" opacity="0.29000000000000004"/>
  <rect x="76" y="58" width="648" height="304" rx="30" fill="#d95a35"/><path d="M100 210h600M400 58v304" stroke="#fffaf4" stroke-width="8" opacity=".8"/><circle cx="400" cy="210" r="59" fill="none" stroke="#fffaf4" stroke-width="8" opacity=".8"/><circle cx="264" cy="174" r="42" fill="#15191d"/><path d="M222 174h84M264 132v84" stroke="#f6bc42" stroke-width="5" fill="none"/>
</svg>
