<svg xmlns="http://www.w3.org/2000/svg" viewBox="0 0 800 420" role="img" aria-label="Ilustracion propia de estadio y futbol generico para esta pregunta">
  <defs>
    <linearGradient id="bg" x1="0" x2="1" y1="0" y2="1">
      <stop stop-color="#eaf8f5"/>
      <stop offset="1" stop-color="#15191d" stop-opacity="0.22"/>
    </linearGradient>
  </defs>
  <rect width="800" height="420" fill="url(#bg)"/>
  <circle cx="370" cy="335" r="127" fill="#26b99f" opacity="0.13"/>
  <circle cx="655" cy="274" r="101" fill="#f6bc42" opacity="0.16"/>
  <circle cx="414" cy="177" r="2" fill="#15191d" opacity="0.64"/><circle cx="721" cy="266" r="2" fill="#15191d" opacity="0.63"/><circle cx="312" cy="355" r="2" fill="#15191d" opacity="0.6200000000000001"/><circle cx="619" cy="102" r="2" fill="#15191d" opacity="0.6100000000000001"/><circle cx="618" cy="162" r="2" fill="#15191d" opacity="0.68"/><circle cx="209" cy="252" r="2" fill="#15191d" opacity="0.67"/><circle cx="516" cy="341" r="2" fill="#15191d" opacity="0.66"/><circle cx="107" cy="88" r="2" fill="#15191d" opacity="0.65"/><circle cx="722" cy="206" r="2" fill="#15191d" opacity="0.56"/>
  <rect x="118" y="78" width="564" height="264" rx="26" fill="#f6bc42"/><path d="M400 78v264M118 210h564" stroke="#fff" stroke-width="7" opacity=".76"/><circle cx="400" cy="210" r="58" fill="none" stroke="#fff" stroke-width="7" opacity=".76"/><circle cx="372" cy="236" r="32" fill="#fff"/><path d="M340 236h64M372 204v64" stroke="#26b99f" stroke-width="5" opacity=".5"/>
</svg>
