<svg xmlns="http://www.w3.org/2000/svg" viewBox="0 0 800 420" role="img" aria-label="Ilustracion propia de cancha de baloncesto para esta pregunta">
  <defs>
    <linearGradient id="bg" x1="0" x2="1" y1="0" y2="1">
      <stop stop-color="#fff1df"/>
      <stop offset="1" stop-color="#15191d" stop-opacity="0.22"/>
    </linearGradient>
  </defs>
  <rect width="800" height="420" fill="url(#bg)"/>
  <circle cx="290" cy="126" r="81" fill="#f6bc42" opacity="0.13"/>
  <circle cx="345" cy="141" r="76" fill="#d95a35" opacity="0.16"/>
  <circle cx="206" cy="356" r="3" fill="#15191d" opacity="0.29000000000000004"/><circle cx="513" cy="103" r="3" fill="#15191d" opacity="0.28"/><circle cx="104" cy="192" r="3" fill="#15191d" opacity="0.72"/><circle cx="411" cy="281" r="3" fill="#15191d" opacity="0.71"/><circle cx="718" cy="370" r="3" fill="#15191d" opacity="0.7"/><circle cx="309" cy="117" r="3" fill="#15191d" opacity="0.69"/><circle cx="616" cy="206" r="3" fill="#15191d" opacity="0.68"/><circle cx="207" cy="296" r="3" fill="#15191d" opacity="0.67"/><circle cx="514" cy="43" r="3" fill="#15191d" opacity="0.66"/>
  <rect x="76" y="58" width="648" height="304" rx="30" fill="#d95a35"/><path d="M100 210h600M400 58v304" stroke="#fffaf4" stroke-width="8" opacity=".8"/><circle cx="400" cy="210" r="80" fill="none" stroke="#fffaf4" stroke-width="8" opacity=".8"/><circle cx="516" cy="246" r="42" fill="#15191d"/><path d="M474 246h84M516 204v84" stroke="#f6bc42" stroke-width="5" fill="none"/>
</svg>
