<svg xmlns="http://www.w3.org/2000/svg" viewBox="0 0 800 420" role="img" aria-label="Ilustracion propia de cancha de baloncesto para esta pregunta">
  <defs>
    <linearGradient id="bg" x1="0" x2="1" y1="0" y2="1">
      <stop stop-color="#fff1df"/>
      <stop offset="1" stop-color="#d95a35" stop-opacity="0.22"/>
    </linearGradient>
  </defs>
  <rect width="800" height="420" fill="url(#bg)"/>
  <circle cx="400" cy="295" r="129" fill="#f6bc42" opacity="0.13"/>
  <circle cx="134" cy="91" r="122" fill="#d95a35" opacity="0.16"/>
  <circle cx="131" cy="313" r="4" fill="#15191d" opacity="0.6000000000000001"/><circle cx="540" cy="224" r="4" fill="#15191d" opacity="0.6100000000000001"/><circle cx="233" cy="135" r="4" fill="#15191d" opacity="0.6200000000000001"/><circle cx="642" cy="45" r="4" fill="#15191d" opacity="0.63"/><circle cx="335" cy="298" r="4" fill="#15191d" opacity="0.64"/><circle cx="744" cy="209" r="4" fill="#15191d" opacity="0.65"/><circle cx="437" cy="120" r="4" fill="#15191d" opacity="0.66"/><circle cx="130" cy="373" r="4" fill="#15191d" opacity="0.67"/><circle cx="539" cy="284" r="4" fill="#15191d" opacity="0.68"/>
  <rect x="76" y="58" width="648" height="304" rx="30" fill="#d95a35"/><path d="M100 210h600M400 58v304" stroke="#fffaf4" stroke-width="8" opacity=".8"/><circle cx="400" cy="210" r="80" fill="none" stroke="#fffaf4" stroke-width="8" opacity=".8"/><circle cx="516" cy="246" r="42" fill="#15191d"/><path d="M474 246h84M516 204v84" stroke="#f6bc42" stroke-width="5" fill="none"/>
</svg>
