<svg xmlns="http://www.w3.org/2000/svg" viewBox="0 0 800 420" role="img" aria-label="Ilustracion propia de estadio y futbol generico para esta pregunta">
  <defs>
    <linearGradient id="bg" x1="0" x2="1" y1="0" y2="1">
      <stop stop-color="#eaf8f5"/>
      <stop offset="1" stop-color="#f6bc42" stop-opacity="0.22"/>
    </linearGradient>
  </defs>
  <rect width="800" height="420" fill="url(#bg)"/>
  <circle cx="429" cy="206" r="121" fill="#26b99f" opacity="0.13"/>
  <circle cx="362" cy="151" r="131" fill="#f6bc42" opacity="0.16"/>
  <circle cx="670" cy="46" r="3" fill="#15191d" opacity="0.54"/><circle cx="261" cy="135" r="3" fill="#15191d" opacity="0.53"/><circle cx="568" cy="225" r="3" fill="#15191d" opacity="0.52"/><circle cx="159" cy="314" r="3" fill="#15191d" opacity="0.51"/><circle cx="466" cy="61" r="3" fill="#15191d" opacity="0.5"/><circle cx="57" cy="150" r="4" fill="#15191d" opacity="0.49"/><circle cx="364" cy="239" r="4" fill="#15191d" opacity="0.48000000000000004"/><circle cx="671" cy="328" r="4" fill="#15191d" opacity="0.47000000000000003"/><circle cx="262" cy="75" r="4" fill="#15191d" opacity="0.46"/>
  <rect x="118" y="78" width="564" height="264" rx="26" fill="#f6bc42"/><path d="M400 78v264M118 210h564" stroke="#fff" stroke-width="7" opacity=".76"/><circle cx="400" cy="210" r="58" fill="none" stroke="#fff" stroke-width="7" opacity=".76"/><circle cx="334" cy="218" r="32" fill="#fff"/><path d="M302 218h64M334 186v64" stroke="#26b99f" stroke-width="5" opacity=".5"/>
</svg>
