<svg xmlns="http://www.w3.org/2000/svg" viewBox="0 0 800 420" role="img" aria-label="Ilustracion propia de circuito de velocidad para esta pregunta">
  <defs>
    <linearGradient id="bg" x1="0" x2="1" y1="0" y2="1">
      <stop stop-color="#e7f8ff"/>
      <stop offset="1" stop-color="#15191d" stop-opacity="0.22"/>
    </linearGradient>
  </defs>
  <rect width="800" height="420" fill="url(#bg)"/>
  <circle cx="682" cy="195" r="110" fill="#15191d" opacity="0.13"/>
  <circle cx="244" cy="293" r="129" fill="#ff4f6d" opacity="0.16"/>
  <circle cx="449" cy="55" r="5" fill="#315be8" opacity="0.53"/><circle cx="142" cy="308" r="5" fill="#315be8" opacity="0.54"/><circle cx="347" cy="233" r="5" fill="#315be8" opacity="0.51"/><circle cx="756" cy="144" r="5" fill="#315be8" opacity="0.52"/><circle cx="245" cy="70" r="5" fill="#315be8" opacity="0.49"/><circle cx="654" cy="322" r="5" fill="#315be8" opacity="0.5"/><circle cx="143" cy="248" r="5" fill="#315be8" opacity="0.47000000000000003"/><circle cx="552" cy="159" r="5" fill="#315be8" opacity="0.48000000000000004"/><circle cx="141" cy="368" r="5" fill="#315be8" opacity="0.6100000000000001"/>
  <path d="M98 300c110-170 248-42 350-120 60-46 118-84 210-28 66 40 54 132-26 152-96 24-160-50-246-24-100 30-152 94-288 20z" fill="none" stroke="#15191d" stroke-width="43" stroke-linecap="round"/><path d="M98 300c110-170 248-42 350-120 60-46 118-84 210-28 66 40 54 132-26 152-96 24-160-50-246-24-100 30-152 94-288 20z" fill="none" stroke="#fff" stroke-width="7" stroke-dasharray="24 22" stroke-linecap="round"/><rect x="304" y="250" width="150" height="42" rx="18" fill="#315be8"/><path d="M332 250l34-34h52l24 34z" fill="#fffaf4"/>
</svg>
