<svg xmlns="http://www.w3.org/2000/svg" viewBox="0 0 800 420" role="img" aria-label="Ilustracion propia de estadio y futbol generico para esta pregunta">
  <defs>
    <linearGradient id="bg" x1="0" x2="1" y1="0" y2="1">
      <stop stop-color="#eaf8f5"/>
      <stop offset="1" stop-color="#f6bc42" stop-opacity="0.22"/>
    </linearGradient>
  </defs>
  <rect width="800" height="420" fill="url(#bg)"/>
  <circle cx="557" cy="256" r="101" fill="#26b99f" opacity="0.13"/>
  <circle cx="378" cy="300" r="88" fill="#f6bc42" opacity="0.16"/>
  <circle cx="270" cy="47" r="4" fill="#15191d" opacity="0.6200000000000001"/><circle cx="577" cy="137" r="4" fill="#15191d" opacity="0.6100000000000001"/><circle cx="168" cy="226" r="4" fill="#15191d" opacity="0.6000000000000001"/><circle cx="475" cy="315" r="4" fill="#15191d" opacity="0.5900000000000001"/><circle cx="66" cy="62" r="4" fill="#15191d" opacity="0.5800000000000001"/><circle cx="373" cy="151" r="4" fill="#15191d" opacity="0.5700000000000001"/><circle cx="680" cy="240" r="4" fill="#15191d" opacity="0.56"/><circle cx="271" cy="329" r="4" fill="#15191d" opacity="0.55"/><circle cx="678" cy="360" r="4" fill="#15191d" opacity="0.7"/>
  <rect x="118" y="78" width="564" height="264" rx="26" fill="#f6bc42"/><path d="M400 78v264M118 210h564" stroke="#fff" stroke-width="7" opacity=".76"/><circle cx="400" cy="210" r="58" fill="none" stroke="#fff" stroke-width="7" opacity=".76"/><circle cx="258" cy="182" r="32" fill="#fff"/><path d="M226 182h64M258 150v64" stroke="#26b99f" stroke-width="5" opacity=".5"/>
</svg>
