<svg xmlns="http://www.w3.org/2000/svg" viewBox="0 0 800 420" role="img" aria-label="Ilustracion propia de videojuegos para esta pregunta">
  <defs>
    <linearGradient id="bg" x1="0" x2="1" y1="0" y2="1">
      <stop stop-color="#f4efff"/>
      <stop offset="1" stop-color="#12b7a6" stop-opacity="0.22"/>
    </linearGradient>
  </defs>
  <rect width="800" height="420" fill="url(#bg)"/>
  <circle cx="109" cy="98" r="87" fill="#15191d" opacity="0.13"/>
  <circle cx="472" cy="209" r="106" fill="#9b5cff" opacity="0.16"/>
  <circle cx="638" cy="148" r="2" fill="#12b7a6" opacity="0.37"/><circle cx="229" cy="237" r="2" fill="#12b7a6" opacity="0.36000000000000004"/><circle cx="536" cy="327" r="2" fill="#12b7a6" opacity="0.35000000000000003"/><circle cx="127" cy="74" r="2" fill="#12b7a6" opacity="0.34"/><circle cx="126" cy="134" r="2" fill="#12b7a6" opacity="0.41000000000000003"/><circle cx="433" cy="223" r="2" fill="#12b7a6" opacity="0.4"/><circle cx="740" cy="312" r="2" fill="#12b7a6" opacity="0.39"/><circle cx="331" cy="59" r="2" fill="#12b7a6" opacity="0.38"/><circle cx="330" cy="119" r="2" fill="#12b7a6" opacity="0.45000000000000007"/>
  <path d="M226 160c40-54 310-54 348 0l58 104c24 44-12 86-58 64l-74-36H300l-74 36c-46 22-82-20-58-64z" fill="#15191d"/><path d="M284 232h82M325 191v82" stroke="#fff" stroke-width="20" stroke-linecap="round"/><circle cx="530" cy="218" r="20" fill="#12b7a6"/><circle cx="578" cy="252" r="20" fill="#fffaf4"/><circle cx="456" cy="252" r="20" fill="#12b7a6"/>
</svg>
