<svg xmlns="http://www.w3.org/2000/svg" viewBox="0 0 800 420" role="img" aria-label="Ilustracion propia de videojuegos para esta pregunta">
  <defs>
    <linearGradient id="bg" x1="0" x2="1" y1="0" y2="1">
      <stop stop-color="#f4efff"/>
      <stop offset="1" stop-color="#15191d" stop-opacity="0.22"/>
    </linearGradient>
  </defs>
  <rect width="800" height="420" fill="url(#bg)"/>
  <circle cx="266" cy="254" r="142" fill="#15191d" opacity="0.13"/>
  <circle cx="192" cy="157" r="133" fill="#9b5cff" opacity="0.16"/>
  <circle cx="491" cy="158" r="5" fill="#12b7a6" opacity="0.5800000000000001"/><circle cx="184" cy="69" r="5" fill="#12b7a6" opacity="0.5900000000000001"/><circle cx="593" cy="322" r="5" fill="#12b7a6" opacity="0.6000000000000001"/><circle cx="286" cy="233" r="5" fill="#12b7a6" opacity="0.6100000000000001"/><circle cx="695" cy="144" r="5" fill="#12b7a6" opacity="0.6200000000000001"/><circle cx="388" cy="55" r="5" fill="#12b7a6" opacity="0.63"/><circle cx="81" cy="307" r="5" fill="#12b7a6" opacity="0.64"/><circle cx="490" cy="218" r="5" fill="#12b7a6" opacity="0.65"/><circle cx="83" cy="187" r="5" fill="#12b7a6" opacity="0.5"/>
  <path d="M226 160c40-54 310-54 348 0l58 104c24 44-12 86-58 64l-74-36H300l-74 36c-46 22-82-20-58-64z" fill="#15191d"/><path d="M284 232h82M325 191v82" stroke="#fff" stroke-width="20" stroke-linecap="round"/><circle cx="494" cy="218" r="20" fill="#12b7a6"/><circle cx="548" cy="252" r="20" fill="#fffaf4"/><circle cx="456" cy="252" r="20" fill="#12b7a6"/>
</svg>
