<svg xmlns="http://www.w3.org/2000/svg" viewBox="0 0 800 420" role="img" aria-label="Ilustracion propia de cine y rodaje para esta pregunta">
  <defs>
    <linearGradient id="bg" x1="0" x2="1" y1="0" y2="1">
      <stop stop-color="#15191d"/>
      <stop offset="1" stop-color="#15191d" stop-opacity="0.22"/>
    </linearGradient>
  </defs>
  <rect width="800" height="420" fill="url(#bg)"/>
  <circle cx="279" cy="166" r="102" fill="#fffaf4" opacity="0.13"/>
  <circle cx="568" cy="289" r="108" fill="#f6bc42" opacity="0.16"/>
  <circle cx="283" cy="256" r="5" fill="#ff4f6d" opacity="0.53"/><circle cx="692" cy="167" r="5" fill="#ff4f6d" opacity="0.54"/><circle cx="385" cy="78" r="5" fill="#ff4f6d" opacity="0.55"/><circle cx="78" cy="330" r="5" fill="#ff4f6d" opacity="0.56"/><circle cx="487" cy="241" r="5" fill="#ff4f6d" opacity="0.5700000000000001"/><circle cx="180" cy="152" r="5" fill="#ff4f6d" opacity="0.5800000000000001"/><circle cx="589" cy="63" r="5" fill="#ff4f6d" opacity="0.5900000000000001"/><circle cx="282" cy="316" r="5" fill="#ff4f6d" opacity="0.6000000000000001"/><circle cx="591" cy="285" r="5" fill="#ff4f6d" opacity="0.45000000000000007"/>
  <rect width="800" height="420" fill="#fffaf4"/><circle cx="500" cy="168" r="120" fill="#ff4f6d" opacity=".42"/><rect x="190" y="182" width="420" height="198" rx="22" fill="#f6bc42"/><rect x="190" y="132" width="420" height="70" rx="18" fill="#fffaf4"/><path d="M228 132l58 70M330 132l58 70M432 132l58 70M534 132l58 70" stroke="#fffaf4" stroke-width="20"/><rect x="244" y="254" width="312" height="18" rx="9" fill="#fffaf4" opacity=".16"/>
</svg>
