<svg xmlns="http://www.w3.org/2000/svg" viewBox="0 0 800 420" role="img" aria-label="Ilustracion propia de videojuegos para esta pregunta">
  <defs>
    <linearGradient id="bg" x1="0" x2="1" y1="0" y2="1">
      <stop stop-color="#f4efff"/>
      <stop offset="1" stop-color="#9b5cff" stop-opacity="0.22"/>
    </linearGradient>
  </defs>
  <rect width="800" height="420" fill="url(#bg)"/>
  <circle cx="567" cy="178" r="137" fill="#15191d" opacity="0.13"/>
  <circle cx="529" cy="219" r="143" fill="#9b5cff" opacity="0.16"/>
  <circle cx="444" cy="134" r="4" fill="#12b7a6" opacity="0.68"/><circle cx="751" cy="223" r="4" fill="#12b7a6" opacity="0.67"/><circle cx="546" cy="298" r="4" fill="#12b7a6" opacity="0.7"/><circle cx="137" cy="45" r="4" fill="#12b7a6" opacity="0.69"/><circle cx="240" cy="149" r="4" fill="#12b7a6" opacity="0.64"/><circle cx="547" cy="238" r="4" fill="#12b7a6" opacity="0.63"/><circle cx="342" cy="312" r="4" fill="#12b7a6" opacity="0.66"/><circle cx="649" cy="60" r="4" fill="#12b7a6" opacity="0.65"/><circle cx="136" cy="105" r="4" fill="#12b7a6" opacity="0.31000000000000005"/>
  <path d="M226 160c40-54 310-54 348 0l58 104c24 44-12 86-58 64l-74-36H300l-74 36c-46 22-82-20-58-64z" fill="#15191d"/><path d="M284 232h82M325 191v82" stroke="#fff" stroke-width="20" stroke-linecap="round"/><circle cx="506" cy="218" r="20" fill="#12b7a6"/><circle cx="558" cy="252" r="20" fill="#fffaf4"/><circle cx="456" cy="252" r="20" fill="#12b7a6"/>
</svg>
