<svg xmlns="http://www.w3.org/2000/svg" viewBox="0 0 800 420" role="img" aria-label="Ilustracion propia de videojuegos para esta pregunta">
  <defs>
    <linearGradient id="bg" x1="0" x2="1" y1="0" y2="1">
      <stop stop-color="#f4efff"/>
      <stop offset="1" stop-color="#15191d" stop-opacity="0.22"/>
    </linearGradient>
  </defs>
  <rect width="800" height="420" fill="url(#bg)"/>
  <circle cx="567" cy="342" r="72" fill="#15191d" opacity="0.13"/>
  <circle cx="304" cy="240" r="85" fill="#9b5cff" opacity="0.16"/>
  <circle cx="676" cy="130" r="2" fill="#12b7a6" opacity="0.4"/><circle cx="267" cy="219" r="2" fill="#12b7a6" opacity="0.39"/><circle cx="62" cy="293" r="2" fill="#12b7a6" opacity="0.42000000000000004"/><circle cx="369" cy="41" r="2" fill="#12b7a6" opacity="0.41000000000000003"/><circle cx="472" cy="144" r="2" fill="#12b7a6" opacity="0.36000000000000004"/><circle cx="63" cy="233" r="2" fill="#12b7a6" opacity="0.35000000000000003"/><circle cx="574" cy="308" r="2" fill="#12b7a6" opacity="0.38"/><circle cx="165" cy="55" r="2" fill="#12b7a6" opacity="0.37"/><circle cx="268" cy="159" r="2" fill="#12b7a6" opacity="0.32"/>
  <path d="M226 160c40-54 310-54 348 0l58 104c24 44-12 86-58 64l-74-36H300l-74 36c-46 22-82-20-58-64z" fill="#15191d"/><path d="M284 232h82M325 191v82" stroke="#fff" stroke-width="20" stroke-linecap="round"/><circle cx="506" cy="218" r="20" fill="#12b7a6"/><circle cx="558" cy="252" r="20" fill="#fffaf4"/><circle cx="456" cy="252" r="20" fill="#12b7a6"/>
</svg>
