<svg xmlns="http://www.w3.org/2000/svg" viewBox="0 0 800 420" role="img" aria-label="Ilustracion propia de oceano y olas para esta pregunta">
  <defs>
    <linearGradient id="bg" x1="0" x2="1" y1="0" y2="1">
      <stop stop-color="#dff8ff"/>
      <stop offset="1" stop-color="#315be8" stop-opacity="0.22"/>
    </linearGradient>
  </defs>
  <rect width="800" height="420" fill="url(#bg)"/>
  <circle cx="405" cy="100" r="137" fill="#12b7a6" opacity="0.13"/>
  <circle cx="584" cy="66" r="113" fill="#315be8" opacity="0.16"/>
  <circle cx="103" cy="358" r="2" fill="#fffaf4" opacity="0.30000000000000004"/><circle cx="512" cy="269" r="2" fill="#fffaf4" opacity="0.31000000000000005"/><circle cx="205" cy="180" r="2" fill="#fffaf4" opacity="0.32"/><circle cx="614" cy="91" r="2" fill="#fffaf4" opacity="0.33"/><circle cx="307" cy="343" r="2" fill="#fffaf4" opacity="0.34"/><circle cx="716" cy="254" r="2" fill="#fffaf4" opacity="0.35000000000000003"/><circle cx="409" cy="165" r="2" fill="#fffaf4" opacity="0.36000000000000004"/><circle cx="102" cy="76" r="2" fill="#fffaf4" opacity="0.37"/><circle cx="411" cy="45" r="2" fill="#fffaf4" opacity="0.67"/>
  <path d="M0 240c88-42 144 42 232 0s144 42 232 0 144 42 232 0 144 42 232 0v180H0z" fill="#fff" opacity=".34"/><path d="M0 326c88-42 144 42 232 0s144 42 232 0 144 42 232 0 144 42 232 0" fill="none" stroke="#fff" stroke-width="18" opacity=".62"/><path d="M142 174c82-44 170-44 252 0" fill="none" stroke="#fff" stroke-width="10" opacity=".45" stroke-linecap="round"/>
</svg>
