<svg xmlns="http://www.w3.org/2000/svg" viewBox="0 0 800 420" role="img" aria-label="Ilustracion propia de videojuegos para esta pregunta">
  <defs>
    <linearGradient id="bg" x1="0" x2="1" y1="0" y2="1">
      <stop stop-color="#f4efff"/>
      <stop offset="1" stop-color="#12b7a6" stop-opacity="0.22"/>
    </linearGradient>
  </defs>
  <rect width="800" height="420" fill="url(#bg)"/>
  <circle cx="578" cy="342" r="125" fill="#15191d" opacity="0.13"/>
  <circle cx="306" cy="275" r="91" fill="#9b5cff" opacity="0.16"/>
  <circle cx="371" cy="188" r="5" fill="#12b7a6" opacity="0.55"/><circle cx="64" cy="99" r="5" fill="#12b7a6" opacity="0.56"/><circle cx="473" cy="352" r="5" fill="#12b7a6" opacity="0.5700000000000001"/><circle cx="166" cy="263" r="5" fill="#12b7a6" opacity="0.5800000000000001"/><circle cx="167" cy="203" r="5" fill="#12b7a6" opacity="0.51"/><circle cx="576" cy="113" r="5" fill="#12b7a6" opacity="0.52"/><circle cx="269" cy="366" r="5" fill="#12b7a6" opacity="0.53"/><circle cx="678" cy="277" r="5" fill="#12b7a6" opacity="0.54"/><circle cx="63" cy="159" r="5" fill="#12b7a6" opacity="0.63"/>
  <path d="M226 160c40-54 310-54 348 0l58 104c24 44-12 86-58 64l-74-36H300l-74 36c-46 22-82-20-58-64z" fill="#15191d"/><path d="M284 232h82M325 191v82" stroke="#fff" stroke-width="20" stroke-linecap="round"/><circle cx="518" cy="218" r="20" fill="#12b7a6"/><circle cx="568" cy="252" r="20" fill="#fffaf4"/><circle cx="456" cy="252" r="20" fill="#12b7a6"/>
</svg>
