<svg xmlns="http://www.w3.org/2000/svg" viewBox="0 0 800 420" role="img" aria-label="Ilustracion propia de videojuegos para esta pregunta">
  <defs>
    <linearGradient id="bg" x1="0" x2="1" y1="0" y2="1">
      <stop stop-color="#f4efff"/>
      <stop offset="1" stop-color="#f4efff" stop-opacity="0.22"/>
    </linearGradient>
  </defs>
  <rect width="800" height="420" fill="url(#bg)"/>
  <circle cx="478" cy="311" r="114" fill="#15191d" opacity="0.13"/>
  <circle cx="668" cy="307" r="80" fill="#9b5cff" opacity="0.16"/>
  <circle cx="721" cy="57" r="5" fill="#12b7a6" opacity="0.30000000000000004"/><circle cx="414" cy="310" r="5" fill="#12b7a6" opacity="0.31000000000000005"/><circle cx="619" cy="235" r="5" fill="#12b7a6" opacity="0.28"/><circle cx="312" cy="146" r="5" fill="#12b7a6" opacity="0.29000000000000004"/><circle cx="517" cy="72" r="5" fill="#12b7a6" opacity="0.71"/><circle cx="210" cy="324" r="5" fill="#12b7a6" opacity="0.72"/><circle cx="415" cy="250" r="5" fill="#12b7a6" opacity="0.69"/><circle cx="108" cy="161" r="5" fill="#12b7a6" opacity="0.7"/><circle cx="413" cy="370" r="5" fill="#12b7a6" opacity="0.38"/>
  <path d="M226 160c40-54 310-54 348 0l58 104c24 44-12 86-58 64l-74-36H300l-74 36c-46 22-82-20-58-64z" fill="#15191d"/><path d="M284 232h82M325 191v82" stroke="#fff" stroke-width="20" stroke-linecap="round"/><circle cx="518" cy="218" r="20" fill="#12b7a6"/><circle cx="568" cy="252" r="20" fill="#fffaf4"/><circle cx="456" cy="252" r="20" fill="#12b7a6"/>
</svg>
