<svg xmlns="http://www.w3.org/2000/svg" viewBox="0 0 800 420" role="img" aria-label="Ilustracion propia de oceano y olas para esta pregunta">
  <defs>
    <linearGradient id="bg" x1="0" x2="1" y1="0" y2="1">
      <stop stop-color="#dff8ff"/>
      <stop offset="1" stop-color="#315be8" stop-opacity="0.22"/>
    </linearGradient>
  </defs>
  <rect width="800" height="420" fill="url(#bg)"/>
  <circle cx="318" cy="229" r="113" fill="#12b7a6" opacity="0.13"/>
  <circle cx="573" cy="297" r="100" fill="#315be8" opacity="0.16"/>
  <circle cx="93" cy="247" r="2" fill="#fffaf4" opacity="0.28"/><circle cx="502" cy="158" r="5" fill="#fffaf4" opacity="0.29000000000000004"/><circle cx="707" cy="84" r="2" fill="#fffaf4" opacity="0.71"/><circle cx="400" cy="336" r="2" fill="#fffaf4" opacity="0.72"/><circle cx="605" cy="262" r="2" fill="#fffaf4" opacity="0.69"/><circle cx="298" cy="173" r="2" fill="#fffaf4" opacity="0.7"/><circle cx="503" cy="98" r="2" fill="#fffaf4" opacity="0.67"/><circle cx="196" cy="351" r="2" fill="#fffaf4" opacity="0.68"/><circle cx="501" cy="218" r="5" fill="#fffaf4" opacity="0.36000000000000004"/>
  <path d="M0 240c88-42 144 42 232 0s144 42 232 0 144 42 232 0 144 42 232 0v180H0z" fill="#fff" opacity=".34"/><path d="M0 306c88-42 144 42 232 0s144 42 232 0 144 42 232 0 144 42 232 0" fill="none" stroke="#fff" stroke-width="18" opacity=".62"/><path d="M142 174c82-44 170-44 252 0" fill="none" stroke="#fff" stroke-width="10" opacity=".45" stroke-linecap="round"/>
</svg>
