<svg xmlns="http://www.w3.org/2000/svg" viewBox="0 0 800 420" role="img" aria-label="Ilustracion propia de videojuegos para esta pregunta">
  <defs>
    <linearGradient id="bg" x1="0" x2="1" y1="0" y2="1">
      <stop stop-color="#f4efff"/>
      <stop offset="1" stop-color="#9b5cff" stop-opacity="0.22"/>
    </linearGradient>
  </defs>
  <rect width="800" height="420" fill="url(#bg)"/>
  <circle cx="465" cy="338" r="119" fill="#15191d" opacity="0.13"/>
  <circle cx="592" cy="96" r="120" fill="#9b5cff" opacity="0.16"/>
  <circle cx="521" cy="160" r="3" fill="#12b7a6" opacity="0.37"/><circle cx="214" cy="71" r="3" fill="#12b7a6" opacity="0.38"/><circle cx="419" cy="339" r="3" fill="#12b7a6" opacity="0.35000000000000003"/><circle cx="112" cy="249" r="3" fill="#12b7a6" opacity="0.36000000000000004"/><circle cx="725" cy="146" r="3" fill="#12b7a6" opacity="0.41000000000000003"/><circle cx="418" cy="57" r="3" fill="#12b7a6" opacity="0.42000000000000004"/><circle cx="623" cy="324" r="3" fill="#12b7a6" opacity="0.39"/><circle cx="316" cy="235" r="3" fill="#12b7a6" opacity="0.4"/><circle cx="213" cy="131" r="3" fill="#12b7a6" opacity="0.45000000000000007"/>
  <path d="M226 160c40-54 310-54 348 0l58 104c24 44-12 86-58 64l-74-36H300l-74 36c-46 22-82-20-58-64z" fill="#15191d"/><path d="M284 232h82M325 191v82" stroke="#fff" stroke-width="20" stroke-linecap="round"/><circle cx="542" cy="218" r="20" fill="#12b7a6"/><circle cx="588" cy="252" r="20" fill="#fffaf4"/><circle cx="456" cy="252" r="20" fill="#12b7a6"/>
</svg>
