<svg xmlns="http://www.w3.org/2000/svg" viewBox="0 0 800 420" role="img" aria-label="Ilustracion propia de videojuegos para esta pregunta">
  <defs>
    <linearGradient id="bg" x1="0" x2="1" y1="0" y2="1">
      <stop stop-color="#f4efff"/>
      <stop offset="1" stop-color="#12b7a6" stop-opacity="0.22"/>
    </linearGradient>
  </defs>
  <rect width="800" height="420" fill="url(#bg)"/>
  <circle cx="262" cy="84" r="129" fill="#15191d" opacity="0.13"/>
  <circle cx="641" cy="172" r="72" fill="#9b5cff" opacity="0.16"/>
  <circle cx="616" cy="207" r="5" fill="#12b7a6" opacity="0.6200000000000001"/><circle cx="207" cy="296" r="5" fill="#12b7a6" opacity="0.6100000000000001"/><circle cx="718" cy="371" r="5" fill="#12b7a6" opacity="0.64"/><circle cx="309" cy="118" r="5" fill="#12b7a6" opacity="0.63"/><circle cx="104" cy="193" r="5" fill="#12b7a6" opacity="0.66"/><circle cx="411" cy="282" r="5" fill="#12b7a6" opacity="0.65"/><circle cx="206" cy="356" r="5" fill="#12b7a6" opacity="0.68"/><circle cx="513" cy="104" r="5" fill="#12b7a6" opacity="0.67"/><circle cx="308" cy="178" r="5" fill="#12b7a6" opacity="0.7"/>
  <path d="M226 160c40-54 310-54 348 0l58 104c24 44-12 86-58 64l-74-36H300l-74 36c-46 22-82-20-58-64z" fill="#15191d"/><path d="M284 232h82M325 191v82" stroke="#fff" stroke-width="20" stroke-linecap="round"/><circle cx="506" cy="218" r="20" fill="#12b7a6"/><circle cx="558" cy="252" r="20" fill="#fffaf4"/><circle cx="456" cy="252" r="20" fill="#12b7a6"/>
</svg>
