<svg xmlns="http://www.w3.org/2000/svg" viewBox="0 0 800 420" role="img" aria-label="Ilustracion propia de videojuegos para esta pregunta">
  <defs>
    <linearGradient id="bg" x1="0" x2="1" y1="0" y2="1">
      <stop stop-color="#f4efff"/>
      <stop offset="1" stop-color="#15191d" stop-opacity="0.22"/>
    </linearGradient>
  </defs>
  <rect width="800" height="420" fill="url(#bg)"/>
  <circle cx="226" cy="174" r="130" fill="#15191d" opacity="0.13"/>
  <circle cx="187" cy="290" r="102" fill="#9b5cff" opacity="0.16"/>
  <circle cx="744" cy="295" r="2" fill="#12b7a6" opacity="0.5700000000000001"/><circle cx="567" cy="256" r="2" fill="#12b7a6" opacity="0.7"/><circle cx="130" cy="116" r="2" fill="#12b7a6" opacity="0.5900000000000001"/><circle cx="437" cy="205" r="2" fill="#12b7a6" opacity="0.5800000000000001"/><circle cx="56" cy="181" r="2" fill="#12b7a6" opacity="0.67"/><circle cx="363" cy="270" r="2" fill="#12b7a6" opacity="0.66"/><circle cx="158" cy="345" r="2" fill="#12b7a6" opacity="0.69"/><circle cx="465" cy="92" r="2" fill="#12b7a6" opacity="0.68"/><circle cx="568" cy="196" r="2" fill="#12b7a6" opacity="0.63"/>
  <path d="M226 160c40-54 310-54 348 0l58 104c24 44-12 86-58 64l-74-36H300l-74 36c-46 22-82-20-58-64z" fill="#15191d"/><path d="M284 232h82M325 191v82" stroke="#fff" stroke-width="20" stroke-linecap="round"/><circle cx="494" cy="218" r="20" fill="#12b7a6"/><circle cx="548" cy="252" r="20" fill="#fffaf4"/><circle cx="456" cy="252" r="20" fill="#12b7a6"/>
</svg>
