<svg xmlns="http://www.w3.org/2000/svg" viewBox="0 0 800 420" role="img" aria-label="Ilustracion propia de oceano y olas para esta pregunta">
  <defs>
    <linearGradient id="bg" x1="0" x2="1" y1="0" y2="1">
      <stop stop-color="#dff8ff"/>
      <stop offset="1" stop-color="#12b7a6" stop-opacity="0.22"/>
    </linearGradient>
  </defs>
  <rect width="800" height="420" fill="url(#bg)"/>
  <circle cx="550" cy="210" r="106" fill="#12b7a6" opacity="0.13"/>
  <circle cx="152" cy="187" r="129" fill="#315be8" opacity="0.16"/>
  <circle cx="657" cy="351" r="4" fill="#fffaf4" opacity="0.6000000000000001"/><circle cx="350" cy="262" r="4" fill="#fffaf4" opacity="0.6100000000000001"/><circle cx="555" cy="187" r="4" fill="#fffaf4" opacity="0.5800000000000001"/><circle cx="248" cy="98" r="4" fill="#fffaf4" opacity="0.5900000000000001"/><circle cx="453" cy="366" r="5" fill="#fffaf4" opacity="0.56"/><circle cx="146" cy="276" r="5" fill="#fffaf4" opacity="0.5700000000000001"/><circle cx="351" cy="202" r="5" fill="#fffaf4" opacity="0.54"/><circle cx="44" cy="113" r="5" fill="#fffaf4" opacity="0.55"/><circle cx="349" cy="322" r="4" fill="#fffaf4" opacity="0.68"/>
  <path d="M0 240c88-42 144 42 232 0s144 42 232 0 144 42 232 0 144 42 232 0v180H0z" fill="#fff" opacity=".34"/><path d="M0 326c88-42 144 42 232 0s144 42 232 0 144 42 232 0 144 42 232 0" fill="none" stroke="#fff" stroke-width="18" opacity=".62"/><path d="M142 174c82-44 170-44 252 0" fill="none" stroke="#fff" stroke-width="10" opacity=".45" stroke-linecap="round"/>
</svg>
