<svg xmlns="http://www.w3.org/2000/svg" viewBox="0 0 800 420" role="img" aria-label="Ilustracion propia de videojuegos para esta pregunta">
  <defs>
    <linearGradient id="bg" x1="0" x2="1" y1="0" y2="1">
      <stop stop-color="#f4efff"/>
      <stop offset="1" stop-color="#12b7a6" stop-opacity="0.22"/>
    </linearGradient>
  </defs>
  <rect width="800" height="420" fill="url(#bg)"/>
  <circle cx="509" cy="130" r="65" fill="#15191d" opacity="0.13"/>
  <circle cx="297" cy="213" r="74" fill="#9b5cff" opacity="0.16"/>
  <circle cx="347" cy="354" r="3" fill="#12b7a6" opacity="0.30000000000000004"/><circle cx="756" cy="265" r="3" fill="#12b7a6" opacity="0.31000000000000005"/><circle cx="449" cy="176" r="3" fill="#12b7a6" opacity="0.32"/><circle cx="142" cy="86" r="2" fill="#12b7a6" opacity="0.33"/><circle cx="143" cy="368" r="3" fill="#12b7a6" opacity="0.71"/><circle cx="552" cy="279" r="3" fill="#12b7a6" opacity="0.72"/><circle cx="245" cy="190" r="3" fill="#12b7a6" opacity="0.28"/><circle cx="654" cy="101" r="3" fill="#12b7a6" opacity="0.29000000000000004"/><circle cx="655" cy="41" r="3" fill="#12b7a6" opacity="0.67"/>
  <path d="M226 160c40-54 310-54 348 0l58 104c24 44-12 86-58 64l-74-36H300l-74 36c-46 22-82-20-58-64z" fill="#15191d"/><path d="M284 232h82M325 191v82" stroke="#fff" stroke-width="20" stroke-linecap="round"/><circle cx="530" cy="218" r="20" fill="#12b7a6"/><circle cx="578" cy="252" r="20" fill="#fffaf4"/><circle cx="456" cy="252" r="20" fill="#12b7a6"/>
</svg>
