<svg xmlns="http://www.w3.org/2000/svg" viewBox="0 0 800 420" role="img" aria-label="Ilustracion propia de videojuegos para esta pregunta">
  <defs>
    <linearGradient id="bg" x1="0" x2="1" y1="0" y2="1">
      <stop stop-color="#f4efff"/>
      <stop offset="1" stop-color="#15191d" stop-opacity="0.22"/>
    </linearGradient>
  </defs>
  <rect width="800" height="420" fill="url(#bg)"/>
  <circle cx="318" cy="97" r="100" fill="#15191d" opacity="0.13"/>
  <circle cx="423" cy="173" r="68" fill="#9b5cff" opacity="0.16"/>
  <circle cx="132" cy="45" r="3" fill="#12b7a6" opacity="0.5900000000000001"/><circle cx="439" cy="134" r="3" fill="#12b7a6" opacity="0.5800000000000001"/><circle cx="234" cy="209" r="3" fill="#12b7a6" opacity="0.6100000000000001"/><circle cx="541" cy="298" r="3" fill="#12b7a6" opacity="0.6000000000000001"/><circle cx="336" cy="372" r="3" fill="#12b7a6" opacity="0.63"/><circle cx="643" cy="120" r="3" fill="#12b7a6" opacity="0.6200000000000001"/><circle cx="438" cy="194" r="3" fill="#12b7a6" opacity="0.65"/><circle cx="745" cy="283" r="3" fill="#12b7a6" opacity="0.64"/><circle cx="540" cy="358" r="3" fill="#12b7a6" opacity="0.67"/>
  <path d="M226 160c40-54 310-54 348 0l58 104c24 44-12 86-58 64l-74-36H300l-74 36c-46 22-82-20-58-64z" fill="#15191d"/><path d="M284 232h82M325 191v82" stroke="#fff" stroke-width="20" stroke-linecap="round"/><circle cx="518" cy="218" r="20" fill="#12b7a6"/><circle cx="568" cy="252" r="20" fill="#fffaf4"/><circle cx="456" cy="252" r="20" fill="#12b7a6"/>
</svg>
