<svg xmlns="http://www.w3.org/2000/svg" viewBox="0 0 800 420" role="img" aria-label="Ilustracion propia de videojuegos para esta pregunta">
  <defs>
    <linearGradient id="bg" x1="0" x2="1" y1="0" y2="1">
      <stop stop-color="#f4efff"/>
      <stop offset="1" stop-color="#9b5cff" stop-opacity="0.22"/>
    </linearGradient>
  </defs>
  <rect width="800" height="420" fill="url(#bg)"/>
  <circle cx="223" cy="288" r="81" fill="#15191d" opacity="0.13"/>
  <circle cx="561" cy="197" r="86" fill="#9b5cff" opacity="0.16"/>
  <circle cx="458" cy="107" r="5" fill="#12b7a6" opacity="0.33"/><circle cx="49" cy="196" r="5" fill="#12b7a6" opacity="0.32"/><circle cx="356" cy="285" r="5" fill="#12b7a6" opacity="0.31000000000000005"/><circle cx="663" cy="374" r="5" fill="#12b7a6" opacity="0.30000000000000004"/><circle cx="662" cy="92" r="5" fill="#12b7a6" opacity="0.37"/><circle cx="253" cy="181" r="5" fill="#12b7a6" opacity="0.36000000000000004"/><circle cx="560" cy="271" r="5" fill="#12b7a6" opacity="0.35000000000000003"/><circle cx="151" cy="360" r="5" fill="#12b7a6" opacity="0.34"/><circle cx="150" cy="78" r="5" fill="#12b7a6" opacity="0.41000000000000003"/>
  <path d="M226 160c40-54 310-54 348 0l58 104c24 44-12 86-58 64l-74-36H300l-74 36c-46 22-82-20-58-64z" fill="#15191d"/><path d="M284 232h82M325 191v82" stroke="#fff" stroke-width="20" stroke-linecap="round"/><circle cx="518" cy="218" r="20" fill="#12b7a6"/><circle cx="568" cy="252" r="20" fill="#fffaf4"/><circle cx="456" cy="252" r="20" fill="#12b7a6"/>
</svg>
