<svg xmlns="http://www.w3.org/2000/svg" viewBox="0 0 800 420" role="img" aria-label="Ilustracion propia de circuito de velocidad para esta pregunta">
  <defs>
    <linearGradient id="bg" x1="0" x2="1" y1="0" y2="1">
      <stop stop-color="#e7f8ff"/>
      <stop offset="1" stop-color="#e7f8ff" stop-opacity="0.22"/>
    </linearGradient>
  </defs>
  <rect width="800" height="420" fill="url(#bg)"/>
  <circle cx="514" cy="116" r="118" fill="#15191d" opacity="0.13"/>
  <circle cx="673" cy="68" r="120" fill="#ff4f6d" opacity="0.16"/>
  <circle cx="309" cy="189" r="5" fill="#315be8" opacity="0.48000000000000004"/><circle cx="718" cy="99" r="5" fill="#315be8" opacity="0.49"/><circle cx="207" cy="367" r="5" fill="#315be8" opacity="0.46"/><circle cx="616" cy="278" r="5" fill="#315be8" opacity="0.47000000000000003"/><circle cx="105" cy="203" r="5" fill="#315be8" opacity="0.44000000000000006"/><circle cx="514" cy="114" r="5" fill="#315be8" opacity="0.45000000000000007"/><circle cx="719" cy="39" r="5" fill="#315be8" opacity="0.42000000000000004"/><circle cx="412" cy="292" r="5" fill="#315be8" opacity="0.43000000000000005"/><circle cx="717" cy="159" r="5" fill="#315be8" opacity="0.56"/>
  <path d="M98 300c110-170 248-42 350-120 60-46 118-84 210-28 66 40 54 132-26 152-96 24-160-50-246-24-100 30-152 94-288 20z" fill="none" stroke="#15191d" stroke-width="49" stroke-linecap="round"/><path d="M98 300c110-170 248-42 350-120 60-46 118-84 210-28 66 40 54 132-26 152-96 24-160-50-246-24-100 30-152 94-288 20z" fill="none" stroke="#fff" stroke-width="7" stroke-dasharray="24 22" stroke-linecap="round"/><rect x="352" y="250" width="150" height="42" rx="18" fill="#315be8"/><path d="M380 250l34-34h52l24 34z" fill="#fffaf4"/>
</svg>
