<svg xmlns="http://www.w3.org/2000/svg" viewBox="0 0 800 420" role="img" aria-label="Ilustracion propia de videojuegos para esta pregunta">
  <defs>
    <linearGradient id="bg" x1="0" x2="1" y1="0" y2="1">
      <stop stop-color="#f4efff"/>
      <stop offset="1" stop-color="#12b7a6" stop-opacity="0.22"/>
    </linearGradient>
  </defs>
  <rect width="800" height="420" fill="url(#bg)"/>
  <circle cx="375" cy="147" r="127" fill="#15191d" opacity="0.13"/>
  <circle cx="580" cy="287" r="91" fill="#9b5cff" opacity="0.16"/>
  <circle cx="502" cy="129" r="3" fill="#12b7a6" opacity="0.51"/><circle cx="93" cy="219" r="3" fill="#12b7a6" opacity="0.5"/><circle cx="400" cy="308" r="3" fill="#12b7a6" opacity="0.49"/><circle cx="707" cy="55" r="3" fill="#12b7a6" opacity="0.48000000000000004"/><circle cx="706" cy="115" r="3" fill="#12b7a6" opacity="0.55"/><circle cx="297" cy="204" r="3" fill="#12b7a6" opacity="0.54"/><circle cx="604" cy="293" r="3" fill="#12b7a6" opacity="0.53"/><circle cx="195" cy="40" r="3" fill="#12b7a6" opacity="0.52"/><circle cx="194" cy="100" r="3" fill="#12b7a6" opacity="0.5900000000000001"/>
  <path d="M226 160c40-54 310-54 348 0l58 104c24 44-12 86-58 64l-74-36H300l-74 36c-46 22-82-20-58-64z" fill="#15191d"/><path d="M284 232h82M325 191v82" stroke="#fff" stroke-width="20" stroke-linecap="round"/><circle cx="542" cy="218" r="20" fill="#12b7a6"/><circle cx="588" cy="252" r="20" fill="#fffaf4"/><circle cx="456" cy="252" r="20" fill="#12b7a6"/>
</svg>
