<svg xmlns="http://www.w3.org/2000/svg" viewBox="0 0 800 420" role="img" aria-label="Ilustracion propia de videojuegos para esta pregunta">
  <defs>
    <linearGradient id="bg" x1="0" x2="1" y1="0" y2="1">
      <stop stop-color="#f4efff"/>
      <stop offset="1" stop-color="#15191d" stop-opacity="0.22"/>
    </linearGradient>
  </defs>
  <rect width="800" height="420" fill="url(#bg)"/>
  <circle cx="121" cy="66" r="106" fill="#15191d" opacity="0.13"/>
  <circle cx="624" cy="205" r="69" fill="#9b5cff" opacity="0.16"/>
  <circle cx="736" cy="63" r="3" fill="#12b7a6" opacity="0.28"/><circle cx="327" cy="152" r="4" fill="#12b7a6" opacity="0.72"/><circle cx="122" cy="227" r="3" fill="#12b7a6" opacity="0.30000000000000004"/><circle cx="429" cy="316" r="3" fill="#12b7a6" opacity="0.29000000000000004"/><circle cx="532" cy="78" r="4" fill="#12b7a6" opacity="0.69"/><circle cx="123" cy="167" r="4" fill="#12b7a6" opacity="0.68"/><circle cx="634" cy="241" r="4" fill="#12b7a6" opacity="0.71"/><circle cx="225" cy="330" r="4" fill="#12b7a6" opacity="0.7"/><circle cx="328" cy="92" r="4" fill="#12b7a6" opacity="0.65"/>
  <path d="M226 160c40-54 310-54 348 0l58 104c24 44-12 86-58 64l-74-36H300l-74 36c-46 22-82-20-58-64z" fill="#15191d"/><path d="M284 232h82M325 191v82" stroke="#fff" stroke-width="20" stroke-linecap="round"/><circle cx="494" cy="218" r="20" fill="#12b7a6"/><circle cx="548" cy="252" r="20" fill="#fffaf4"/><circle cx="456" cy="252" r="20" fill="#12b7a6"/>
</svg>
