<svg xmlns="http://www.w3.org/2000/svg" viewBox="0 0 800 420" role="img" aria-label="Ilustracion propia de espacio y planetas para esta pregunta">
  <defs>
    <linearGradient id="bg" x1="0" x2="1" y1="0" y2="1">
      <stop stop-color="#12171a"/>
      <stop offset="1" stop-color="#315be8" stop-opacity="0.22"/>
    </linearGradient>
  </defs>
  <rect width="800" height="420" fill="url(#bg)"/>
  <circle cx="150" cy="297" r="99" fill="#e46b4f" opacity="0.13"/>
  <circle cx="327" cy="270" r="68" fill="#f6bc42" opacity="0.16"/>
  <circle cx="373" cy="216" r="4" fill="#315be8" opacity="0.6000000000000001"/><circle cx="66" cy="127" r="4" fill="#315be8" opacity="0.6100000000000001"/><circle cx="271" cy="53" r="4" fill="#315be8" opacity="0.5800000000000001"/><circle cx="680" cy="305" r="4" fill="#315be8" opacity="0.5900000000000001"/><circle cx="577" cy="202" r="4" fill="#315be8" opacity="0.64"/><circle cx="270" cy="113" r="4" fill="#315be8" opacity="0.65"/><circle cx="475" cy="38" r="4" fill="#315be8" opacity="0.6200000000000001"/><circle cx="168" cy="291" r="4" fill="#315be8" opacity="0.63"/><circle cx="681" cy="245" r="5" fill="#315be8" opacity="0.52"/>
  <rect width="800" height="420" fill="#e46b4f"/><circle cx="422" cy="218" r="98" fill="#f6bc42"/><path d="M230 212c36 14 66-22 112-2" stroke="#8f3327" stroke-width="12" stroke-linecap="round" opacity=".36"/><circle cx="406" cy="232" r="64" fill="#315be8"/><circle cx="620" cy="276" r="32" fill="#fffaf4"/><path d="M176 324c140 46 308 54 476 0" stroke="#fff" stroke-width="5" fill="none" opacity=".38"/>
</svg>
