<svg xmlns="http://www.w3.org/2000/svg" viewBox="0 0 800 420" role="img" aria-label="Ilustracion propia de espacio y planetas para esta pregunta">
  <defs>
    <linearGradient id="bg" x1="0" x2="1" y1="0" y2="1">
      <stop stop-color="#12171a"/>
      <stop offset="1" stop-color="#f6bc42" stop-opacity="0.22"/>
    </linearGradient>
  </defs>
  <rect width="800" height="420" fill="url(#bg)"/>
  <circle cx="676" cy="287" r="99" fill="#e46b4f" opacity="0.13"/>
  <circle cx="318" cy="304" r="98" fill="#f6bc42" opacity="0.16"/>
  <circle cx="492" cy="251" r="5" fill="#315be8" opacity="0.31000000000000005"/><circle cx="83" cy="341" r="5" fill="#315be8" opacity="0.30000000000000004"/><circle cx="594" cy="73" r="5" fill="#315be8" opacity="0.33"/><circle cx="185" cy="162" r="5" fill="#315be8" opacity="0.32"/><circle cx="696" cy="237" r="5" fill="#315be8" opacity="0.35000000000000003"/><circle cx="287" cy="326" r="5" fill="#315be8" opacity="0.34"/><circle cx="82" cy="59" r="5" fill="#315be8" opacity="0.37"/><circle cx="389" cy="148" r="5" fill="#315be8" opacity="0.36000000000000004"/><circle cx="184" cy="222" r="5" fill="#315be8" opacity="0.39"/>
  <rect width="800" height="420" fill="#e46b4f"/><circle cx="286" cy="218" r="70" fill="#f6bc42"/><path d="M230 212c36 14 66-22 112-2" stroke="#8f3327" stroke-width="12" stroke-linecap="round" opacity=".36"/><circle cx="510" cy="160" r="48" fill="#315be8"/><circle cx="540" cy="276" r="32" fill="#fffaf4"/><path d="M176 324c140 46 308 54 476 0" stroke="#fff" stroke-width="5" fill="none" opacity=".38"/>
</svg>
