<svg xmlns="http://www.w3.org/2000/svg" viewBox="0 0 800 420" role="img" aria-label="Ilustracion propia de espacio y planetas para esta pregunta">
  <defs>
    <linearGradient id="bg" x1="0" x2="1" y1="0" y2="1">
      <stop stop-color="#12171a"/>
      <stop offset="1" stop-color="#e46b4f" stop-opacity="0.22"/>
    </linearGradient>
  </defs>
  <rect width="800" height="420" fill="url(#bg)"/>
  <circle cx="127" cy="228" r="68" fill="#e46b4f" opacity="0.13"/>
  <circle cx="99" cy="82" r="114" fill="#f6bc42" opacity="0.16"/>
  <circle cx="364" cy="230" r="3" fill="#315be8" opacity="0.52"/><circle cx="671" cy="319" r="3" fill="#315be8" opacity="0.51"/><circle cx="466" cy="52" r="3" fill="#315be8" opacity="0.54"/><circle cx="57" cy="141" r="3" fill="#315be8" opacity="0.53"/><circle cx="568" cy="215" r="3" fill="#315be8" opacity="0.56"/><circle cx="159" cy="304" r="3" fill="#315be8" opacity="0.55"/><circle cx="670" cy="37" r="3" fill="#315be8" opacity="0.5800000000000001"/><circle cx="261" cy="126" r="3" fill="#315be8" opacity="0.5700000000000001"/><circle cx="672" cy="259" r="4" fill="#315be8" opacity="0.44000000000000006"/>
  <rect width="800" height="420" fill="#e46b4f"/><circle cx="320" cy="218" r="77" fill="#f6bc42"/><path d="M230 212c36 14 66-22 112-2" stroke="#8f3327" stroke-width="12" stroke-linecap="round" opacity=".36"/><circle cx="484" cy="178" r="52" fill="#315be8"/><circle cx="560" cy="276" r="32" fill="#fffaf4"/><path d="M176 324c140 46 308 54 476 0" stroke="#fff" stroke-width="5" fill="none" opacity=".38"/>
</svg>
