<svg xmlns="http://www.w3.org/2000/svg" viewBox="0 0 800 420" role="img" aria-label="Ilustracion propia de espacio y planetas para esta pregunta">
  <defs>
    <linearGradient id="bg" x1="0" x2="1" y1="0" y2="1">
      <stop stop-color="#12171a"/>
      <stop offset="1" stop-color="#f6bc42" stop-opacity="0.22"/>
    </linearGradient>
  </defs>
  <rect width="800" height="420" fill="url(#bg)"/>
  <circle cx="587" cy="101" r="117" fill="#e46b4f" opacity="0.13"/>
  <circle cx="382" cy="102" r="70" fill="#f6bc42" opacity="0.16"/>
  <circle cx="410" cy="269" r="5" fill="#315be8" opacity="0.5900000000000001"/><circle cx="717" cy="358" r="5" fill="#315be8" opacity="0.5800000000000001"/><circle cx="308" cy="105" r="5" fill="#315be8" opacity="0.5700000000000001"/><circle cx="615" cy="194" r="5" fill="#315be8" opacity="0.56"/><circle cx="614" cy="254" r="5" fill="#315be8" opacity="0.63"/><circle cx="205" cy="344" r="5" fill="#315be8" opacity="0.6200000000000001"/><circle cx="512" cy="91" r="5" fill="#315be8" opacity="0.6100000000000001"/><circle cx="103" cy="180" r="5" fill="#315be8" opacity="0.6000000000000001"/><circle cx="718" cy="298" r="5" fill="#315be8" opacity="0.51"/>
  <rect width="800" height="420" fill="#e46b4f"/><circle cx="320" cy="218" r="77" fill="#f6bc42"/><path d="M230 212c36 14 66-22 112-2" stroke="#8f3327" stroke-width="12" stroke-linecap="round" opacity=".36"/><circle cx="484" cy="178" r="52" fill="#315be8"/><circle cx="560" cy="276" r="32" fill="#fffaf4"/><path d="M176 324c140 46 308 54 476 0" stroke="#fff" stroke-width="5" fill="none" opacity=".38"/>
</svg>
