<svg xmlns="http://www.w3.org/2000/svg" viewBox="0 0 800 420" role="img" aria-label="Ilustracion propia de espacio y planetas para esta pregunta">
  <defs>
    <linearGradient id="bg" x1="0" x2="1" y1="0" y2="1">
      <stop stop-color="#12171a"/>
      <stop offset="1" stop-color="#f6bc42" stop-opacity="0.22"/>
    </linearGradient>
  </defs>
  <rect width="800" height="420" fill="url(#bg)"/>
  <circle cx="690" cy="153" r="107" fill="#e46b4f" opacity="0.13"/>
  <circle cx="695" cy="323" r="69" fill="#f6bc42" opacity="0.16"/>
  <circle cx="733" cy="129" r="2" fill="#315be8" opacity="0.5800000000000001"/><circle cx="426" cy="40" r="2" fill="#315be8" opacity="0.5900000000000001"/><circle cx="631" cy="308" r="2" fill="#315be8" opacity="0.56"/><circle cx="324" cy="219" r="2" fill="#315be8" opacity="0.5700000000000001"/><circle cx="529" cy="144" r="2" fill="#315be8" opacity="0.54"/><circle cx="222" cy="55" r="2" fill="#315be8" opacity="0.55"/><circle cx="427" cy="322" r="2" fill="#315be8" opacity="0.52"/><circle cx="120" cy="233" r="2" fill="#315be8" opacity="0.53"/><circle cx="425" cy="100" r="5" fill="#315be8" opacity="0.66"/>
  <rect width="800" height="420" fill="#e46b4f"/><circle cx="422" cy="218" r="98" fill="#f6bc42"/><path d="M230 212c36 14 66-22 112-2" stroke="#8f3327" stroke-width="12" stroke-linecap="round" opacity=".36"/><circle cx="406" cy="232" r="64" fill="#315be8"/><circle cx="620" cy="276" r="32" fill="#fffaf4"/><path d="M176 324c140 46 308 54 476 0" stroke="#fff" stroke-width="5" fill="none" opacity=".38"/>
</svg>
