<svg xmlns="http://www.w3.org/2000/svg" viewBox="0 0 800 420" role="img" aria-label="Ilustracion propia de espacio y planetas para esta pregunta">
  <defs>
    <linearGradient id="bg" x1="0" x2="1" y1="0" y2="1">
      <stop stop-color="#12171a"/>
      <stop offset="1" stop-color="#f6bc42" stop-opacity="0.22"/>
    </linearGradient>
  </defs>
  <rect width="800" height="420" fill="url(#bg)"/>
  <circle cx="206" cy="258" r="141" fill="#e46b4f" opacity="0.13"/>
  <circle cx="409" cy="193" r="123" fill="#f6bc42" opacity="0.16"/>
  <circle cx="749" cy="347" r="3" fill="#315be8" opacity="0.52"/><circle cx="442" cy="258" r="3" fill="#315be8" opacity="0.53"/><circle cx="647" cy="183" r="3" fill="#315be8" opacity="0.5"/><circle cx="340" cy="94" r="3" fill="#315be8" opacity="0.51"/><circle cx="545" cy="362" r="3" fill="#315be8" opacity="0.48000000000000004"/><circle cx="238" cy="272" r="3" fill="#315be8" opacity="0.49"/><circle cx="443" cy="198" r="3" fill="#315be8" opacity="0.46"/><circle cx="136" cy="109" r="3" fill="#315be8" opacity="0.47000000000000003"/><circle cx="441" cy="318" r="3" fill="#315be8" opacity="0.6000000000000001"/>
  <rect width="800" height="420" fill="#e46b4f"/><circle cx="286" cy="218" r="70" fill="#f6bc42"/><path d="M230 212c36 14 66-22 112-2" stroke="#8f3327" stroke-width="12" stroke-linecap="round" opacity=".36"/><circle cx="510" cy="160" r="48" fill="#315be8"/><circle cx="540" cy="276" r="32" fill="#fffaf4"/><path d="M176 324c140 46 308 54 476 0" stroke="#fff" stroke-width="5" fill="none" opacity=".38"/>
</svg>
