<svg xmlns="http://www.w3.org/2000/svg" viewBox="0 0 800 420" role="img" aria-label="Ilustracion propia de espacio y planetas para esta pregunta">
  <defs>
    <linearGradient id="bg" x1="0" x2="1" y1="0" y2="1">
      <stop stop-color="#12171a"/>
      <stop offset="1" stop-color="#e46b4f" stop-opacity="0.22"/>
    </linearGradient>
  </defs>
  <rect width="800" height="420" fill="url(#bg)"/>
  <circle cx="614" cy="239" r="90" fill="#e46b4f" opacity="0.13"/>
  <circle cx="460" cy="334" r="137" fill="#f6bc42" opacity="0.16"/>
  <circle cx="192" cy="328" r="3" fill="#315be8" opacity="0.5800000000000001"/><circle cx="499" cy="75" r="3" fill="#315be8" opacity="0.5700000000000001"/><circle cx="294" cy="149" r="3" fill="#315be8" opacity="0.6000000000000001"/><circle cx="601" cy="239" r="3" fill="#315be8" opacity="0.5900000000000001"/><circle cx="704" cy="342" r="3" fill="#315be8" opacity="0.54"/><circle cx="295" cy="89" r="3" fill="#315be8" opacity="0.53"/><circle cx="90" cy="164" r="3" fill="#315be8" opacity="0.56"/><circle cx="397" cy="253" r="3" fill="#315be8" opacity="0.55"/><circle cx="500" cy="357" r="4" fill="#315be8" opacity="0.5"/>
  <rect width="800" height="420" fill="#e46b4f"/><circle cx="388" cy="218" r="91" fill="#f6bc42"/><path d="M230 212c36 14 66-22 112-2" stroke="#8f3327" stroke-width="12" stroke-linecap="round" opacity=".36"/><circle cx="432" cy="214" r="60" fill="#315be8"/><circle cx="600" cy="276" r="32" fill="#fffaf4"/><path d="M176 324c140 46 308 54 476 0" stroke="#fff" stroke-width="5" fill="none" opacity=".38"/>
</svg>
