<svg xmlns="http://www.w3.org/2000/svg" viewBox="0 0 800 420" role="img" aria-label="Ilustracion propia de espacio y planetas para esta pregunta">
  <defs>
    <linearGradient id="bg" x1="0" x2="1" y1="0" y2="1">
      <stop stop-color="#12171a"/>
      <stop offset="1" stop-color="#315be8" stop-opacity="0.22"/>
    </linearGradient>
  </defs>
  <rect width="800" height="420" fill="url(#bg)"/>
  <circle cx="348" cy="302" r="67" fill="#e46b4f" opacity="0.13"/>
  <circle cx="202" cy="127" r="134" fill="#f6bc42" opacity="0.16"/>
  <circle cx="167" cy="79" r="2" fill="#315be8" opacity="0.66"/><circle cx="576" cy="332" r="2" fill="#315be8" opacity="0.67"/><circle cx="269" cy="242" r="2" fill="#315be8" opacity="0.68"/><circle cx="678" cy="153" r="2" fill="#315be8" opacity="0.69"/><circle cx="679" cy="93" r="2" fill="#315be8" opacity="0.6200000000000001"/><circle cx="372" cy="346" r="2" fill="#315be8" opacity="0.63"/><circle cx="65" cy="257" r="2" fill="#315be8" opacity="0.64"/><circle cx="474" cy="168" r="2" fill="#315be8" opacity="0.65"/><circle cx="575" cy="50" r="2" fill="#315be8" opacity="0.29000000000000004"/>
  <rect width="800" height="420" fill="#e46b4f"/><circle cx="354" cy="218" r="84" fill="#f6bc42"/><path d="M230 212c36 14 66-22 112-2" stroke="#8f3327" stroke-width="12" stroke-linecap="round" opacity=".36"/><circle cx="458" cy="196" r="56" fill="#315be8"/><circle cx="580" cy="276" r="32" fill="#fffaf4"/><path d="M176 324c140 46 308 54 476 0" stroke="#fff" stroke-width="5" fill="none" opacity=".38"/>
</svg>
