<svg xmlns="http://www.w3.org/2000/svg" viewBox="0 0 800 420" role="img" aria-label="Ilustracion propia de espacio y planetas para esta pregunta">
  <defs>
    <linearGradient id="bg" x1="0" x2="1" y1="0" y2="1">
      <stop stop-color="#12171a"/>
      <stop offset="1" stop-color="#315be8" stop-opacity="0.22"/>
    </linearGradient>
  </defs>
  <rect width="800" height="420" fill="url(#bg)"/>
  <circle cx="660" cy="181" r="127" fill="#e46b4f" opacity="0.13"/>
  <circle cx="166" cy="219" r="101" fill="#f6bc42" opacity="0.16"/>
  <circle cx="598" cy="66" r="5" fill="#315be8" opacity="0.5"/><circle cx="189" cy="156" r="5" fill="#315be8" opacity="0.49"/><circle cx="496" cy="245" r="5" fill="#315be8" opacity="0.48000000000000004"/><circle cx="87" cy="334" r="5" fill="#315be8" opacity="0.47000000000000003"/><circle cx="570" cy="180" r="5" fill="#315be8" opacity="0.4"/><circle cx="161" cy="269" r="5" fill="#315be8" opacity="0.39"/><circle cx="700" cy="230" r="5" fill="#315be8" opacity="0.52"/><circle cx="291" cy="319" r="5" fill="#315be8" opacity="0.51"/><circle cx="190" cy="96" r="5" fill="#315be8" opacity="0.42000000000000004"/>
  <rect width="800" height="420" fill="#e46b4f"/><circle cx="422" cy="218" r="98" fill="#f6bc42"/><path d="M230 212c36 14 66-22 112-2" stroke="#8f3327" stroke-width="12" stroke-linecap="round" opacity=".36"/><circle cx="406" cy="232" r="64" fill="#315be8"/><circle cx="620" cy="276" r="32" fill="#fffaf4"/><path d="M176 324c140 46 308 54 476 0" stroke="#fff" stroke-width="5" fill="none" opacity=".38"/>
</svg>
