<svg xmlns="http://www.w3.org/2000/svg" viewBox="0 0 800 420" role="img" aria-label="Ilustracion propia de espacio y planetas para esta pregunta">
  <defs>
    <linearGradient id="bg" x1="0" x2="1" y1="0" y2="1">
      <stop stop-color="#12171a"/>
      <stop offset="1" stop-color="#e46b4f" stop-opacity="0.22"/>
    </linearGradient>
  </defs>
  <rect width="800" height="420" fill="url(#bg)"/>
  <circle cx="183" cy="131" r="84" fill="#e46b4f" opacity="0.13"/>
  <circle cx="406" cy="249" r="136" fill="#f6bc42" opacity="0.16"/>
  <circle cx="606" cy="76" r="4" fill="#315be8" opacity="0.71"/><circle cx="197" cy="166" r="4" fill="#315be8" opacity="0.7"/><circle cx="504" cy="255" r="4" fill="#315be8" opacity="0.69"/><circle cx="95" cy="344" r="4" fill="#315be8" opacity="0.68"/><circle cx="94" cy="62" r="4" fill="#315be8" opacity="0.30000000000000004"/><circle cx="401" cy="151" r="4" fill="#315be8" opacity="0.29000000000000004"/><circle cx="708" cy="240" r="4" fill="#315be8" opacity="0.28"/><circle cx="299" cy="329" r="4" fill="#315be8" opacity="0.72"/><circle cx="298" cy="47" r="4" fill="#315be8" opacity="0.34"/>
  <rect width="800" height="420" fill="#e46b4f"/><circle cx="354" cy="218" r="84" fill="#f6bc42"/><path d="M230 212c36 14 66-22 112-2" stroke="#8f3327" stroke-width="12" stroke-linecap="round" opacity=".36"/><circle cx="458" cy="196" r="56" fill="#315be8"/><circle cx="580" cy="276" r="32" fill="#fffaf4"/><path d="M176 324c140 46 308 54 476 0" stroke="#fff" stroke-width="5" fill="none" opacity=".38"/>
</svg>
