<svg xmlns="http://www.w3.org/2000/svg" viewBox="0 0 800 420" role="img" aria-label="Ilustracion propia de espacio y planetas para esta pregunta">
  <defs>
    <linearGradient id="bg" x1="0" x2="1" y1="0" y2="1">
      <stop stop-color="#12171a"/>
      <stop offset="1" stop-color="#12171a" stop-opacity="0.22"/>
    </linearGradient>
  </defs>
  <rect width="800" height="420" fill="url(#bg)"/>
  <circle cx="599" cy="64" r="122" fill="#e46b4f" opacity="0.13"/>
  <circle cx="683" cy="205" r="131" fill="#f6bc42" opacity="0.16"/>
  <circle cx="566" cy="202" r="2" fill="#315be8" opacity="0.47000000000000003"/><circle cx="157" cy="291" r="2" fill="#315be8" opacity="0.46"/><circle cx="464" cy="39" r="2" fill="#315be8" opacity="0.45000000000000007"/><circle cx="55" cy="128" r="2" fill="#315be8" opacity="0.44000000000000006"/><circle cx="54" cy="188" r="2" fill="#315be8" opacity="0.51"/><circle cx="361" cy="277" r="2" fill="#315be8" opacity="0.5"/><circle cx="668" cy="366" r="2" fill="#315be8" opacity="0.49"/><circle cx="259" cy="113" r="2" fill="#315be8" opacity="0.48000000000000004"/><circle cx="158" cy="231" r="2" fill="#315be8" opacity="0.39"/>
  <rect width="800" height="420" fill="#e46b4f"/><circle cx="388" cy="218" r="91" fill="#f6bc42"/><path d="M230 212c36 14 66-22 112-2" stroke="#8f3327" stroke-width="12" stroke-linecap="round" opacity=".36"/><circle cx="432" cy="214" r="60" fill="#315be8"/><circle cx="600" cy="276" r="32" fill="#fffaf4"/><path d="M176 324c140 46 308 54 476 0" stroke="#fff" stroke-width="5" fill="none" opacity=".38"/>
</svg>
