<svg xmlns="http://www.w3.org/2000/svg" viewBox="0 0 800 420" role="img" aria-label="Ilustracion propia de espacio y planetas para esta pregunta">
  <defs>
    <linearGradient id="bg" x1="0" x2="1" y1="0" y2="1">
      <stop stop-color="#12171a"/>
      <stop offset="1" stop-color="#12171a" stop-opacity="0.22"/>
    </linearGradient>
  </defs>
  <rect width="800" height="420" fill="url(#bg)"/>
  <circle cx="632" cy="200" r="142" fill="#e46b4f" opacity="0.13"/>
  <circle cx="163" cy="258" r="83" fill="#f6bc42" opacity="0.16"/>
  <circle cx="314" cy="275" r="3" fill="#315be8" opacity="0.36000000000000004"/><circle cx="621" cy="364" r="3" fill="#315be8" opacity="0.35000000000000003"/><circle cx="212" cy="111" r="3" fill="#315be8" opacity="0.34"/><circle cx="519" cy="200" r="3" fill="#315be8" opacity="0.33"/><circle cx="110" cy="289" r="3" fill="#315be8" opacity="0.32"/><circle cx="417" cy="36" r="3" fill="#315be8" opacity="0.31000000000000005"/><circle cx="724" cy="126" r="3" fill="#315be8" opacity="0.30000000000000004"/><circle cx="315" cy="215" r="3" fill="#315be8" opacity="0.29000000000000004"/><circle cx="622" cy="304" r="3" fill="#315be8" opacity="0.28"/>
  <rect width="800" height="420" fill="#e46b4f"/><circle cx="320" cy="218" r="77" fill="#f6bc42"/><path d="M230 212c36 14 66-22 112-2" stroke="#8f3327" stroke-width="12" stroke-linecap="round" opacity=".36"/><circle cx="484" cy="178" r="52" fill="#315be8"/><circle cx="560" cy="276" r="32" fill="#fffaf4"/><path d="M176 324c140 46 308 54 476 0" stroke="#fff" stroke-width="5" fill="none" opacity=".38"/>
</svg>
