<svg xmlns="http://www.w3.org/2000/svg" viewBox="0 0 800 420" role="img" aria-label="Ilustracion propia de espacio y planetas para esta pregunta">
  <defs>
    <linearGradient id="bg" x1="0" x2="1" y1="0" y2="1">
      <stop stop-color="#12171a"/>
      <stop offset="1" stop-color="#f6bc42" stop-opacity="0.22"/>
    </linearGradient>
  </defs>
  <rect width="800" height="420" fill="url(#bg)"/>
  <circle cx="307" cy="340" r="79" fill="#e46b4f" opacity="0.13"/>
  <circle cx="122" cy="96" r="65" fill="#f6bc42" opacity="0.16"/>
  <circle cx="53" cy="288" r="4" fill="#315be8" opacity="0.28"/><circle cx="462" cy="199" r="4" fill="#315be8" opacity="0.29000000000000004"/><circle cx="667" cy="124" r="4" fill="#315be8" opacity="0.71"/><circle cx="360" cy="377" r="4" fill="#315be8" opacity="0.72"/><circle cx="565" cy="302" r="4" fill="#315be8" opacity="0.69"/><circle cx="258" cy="213" r="4" fill="#315be8" opacity="0.7"/><circle cx="463" cy="139" r="4" fill="#315be8" opacity="0.67"/><circle cx="156" cy="49" r="4" fill="#315be8" opacity="0.68"/><circle cx="461" cy="259" r="4" fill="#315be8" opacity="0.36000000000000004"/>
  <rect width="800" height="420" fill="#e46b4f"/><circle cx="320" cy="218" r="77" fill="#f6bc42"/><path d="M230 212c36 14 66-22 112-2" stroke="#8f3327" stroke-width="12" stroke-linecap="round" opacity=".36"/><circle cx="484" cy="178" r="52" fill="#315be8"/><circle cx="560" cy="276" r="32" fill="#fffaf4"/><path d="M176 324c140 46 308 54 476 0" stroke="#fff" stroke-width="5" fill="none" opacity=".38"/>
</svg>
