<svg xmlns="http://www.w3.org/2000/svg" viewBox="0 0 800 420" role="img" aria-label="Ilustracion propia de espacio y planetas para esta pregunta">
  <defs>
    <linearGradient id="bg" x1="0" x2="1" y1="0" y2="1">
      <stop stop-color="#12171a"/>
      <stop offset="1" stop-color="#f6bc42" stop-opacity="0.22"/>
    </linearGradient>
  </defs>
  <rect width="800" height="420" fill="url(#bg)"/>
  <circle cx="603" cy="203" r="133" fill="#e46b4f" opacity="0.13"/>
  <circle cx="534" cy="115" r="112" fill="#f6bc42" opacity="0.16"/>
  <circle cx="374" cy="44" r="5" fill="#315be8" opacity="0.5700000000000001"/><circle cx="681" cy="133" r="5" fill="#315be8" opacity="0.56"/><circle cx="272" cy="222" r="5" fill="#315be8" opacity="0.55"/><circle cx="579" cy="311" r="5" fill="#315be8" opacity="0.54"/><circle cx="578" cy="371" r="5" fill="#315be8" opacity="0.6100000000000001"/><circle cx="169" cy="118" r="5" fill="#315be8" opacity="0.6000000000000001"/><circle cx="476" cy="207" r="5" fill="#315be8" opacity="0.5900000000000001"/><circle cx="67" cy="296" r="5" fill="#315be8" opacity="0.5800000000000001"/><circle cx="66" cy="356" r="5" fill="#315be8" opacity="0.65"/>
  <rect width="800" height="420" fill="#e46b4f"/><circle cx="354" cy="218" r="84" fill="#f6bc42"/><path d="M230 212c36 14 66-22 112-2" stroke="#8f3327" stroke-width="12" stroke-linecap="round" opacity=".36"/><circle cx="458" cy="196" r="56" fill="#315be8"/><circle cx="580" cy="276" r="32" fill="#fffaf4"/><path d="M176 324c140 46 308 54 476 0" stroke="#fff" stroke-width="5" fill="none" opacity=".38"/>
</svg>
