<svg xmlns="http://www.w3.org/2000/svg" viewBox="0 0 800 420" role="img" aria-label="Ilustracion propia de espacio y planetas para esta pregunta">
  <defs>
    <linearGradient id="bg" x1="0" x2="1" y1="0" y2="1">
      <stop stop-color="#12171a"/>
      <stop offset="1" stop-color="#e46b4f" stop-opacity="0.22"/>
    </linearGradient>
  </defs>
  <rect width="800" height="420" fill="url(#bg)"/>
  <circle cx="122" cy="325" r="118" fill="#e46b4f" opacity="0.13"/>
  <circle cx="324" cy="273" r="130" fill="#f6bc42" opacity="0.16"/>
  <circle cx="503" cy="184" r="4" fill="#315be8" opacity="0.36000000000000004"/><circle cx="196" cy="95" r="4" fill="#315be8" opacity="0.37"/><circle cx="605" cy="348" r="4" fill="#315be8" opacity="0.38"/><circle cx="298" cy="259" r="4" fill="#315be8" opacity="0.39"/><circle cx="299" cy="199" r="4" fill="#315be8" opacity="0.32"/><circle cx="708" cy="110" r="4" fill="#315be8" opacity="0.33"/><circle cx="401" cy="362" r="4" fill="#315be8" opacity="0.34"/><circle cx="94" cy="273" r="4" fill="#315be8" opacity="0.35000000000000003"/><circle cx="195" cy="155" r="4" fill="#315be8" opacity="0.44000000000000006"/>
  <rect width="800" height="420" fill="#e46b4f"/><circle cx="320" cy="218" r="77" fill="#f6bc42"/><path d="M230 212c36 14 66-22 112-2" stroke="#8f3327" stroke-width="12" stroke-linecap="round" opacity=".36"/><circle cx="484" cy="178" r="52" fill="#315be8"/><circle cx="560" cy="276" r="32" fill="#fffaf4"/><path d="M176 324c140 46 308 54 476 0" stroke="#fff" stroke-width="5" fill="none" opacity=".38"/>
</svg>
