<svg xmlns="http://www.w3.org/2000/svg" viewBox="0 0 800 420" role="img" aria-label="Ilustracion propia de espacio y planetas para esta pregunta">
  <defs>
    <linearGradient id="bg" x1="0" x2="1" y1="0" y2="1">
      <stop stop-color="#12171a"/>
      <stop offset="1" stop-color="#f6bc42" stop-opacity="0.22"/>
    </linearGradient>
  </defs>
  <rect width="800" height="420" fill="url(#bg)"/>
  <circle cx="569" cy="149" r="75" fill="#e46b4f" opacity="0.13"/>
  <circle cx="605" cy="108" r="115" fill="#f6bc42" opacity="0.16"/>
  <circle cx="288" cy="160" r="5" fill="#315be8" opacity="0.31000000000000005"/><circle cx="595" cy="249" r="5" fill="#315be8" opacity="0.30000000000000004"/><circle cx="390" cy="324" r="5" fill="#315be8" opacity="0.33"/><circle cx="697" cy="71" r="5" fill="#315be8" opacity="0.32"/><circle cx="84" cy="175" r="5" fill="#315be8" opacity="0.72"/><circle cx="391" cy="264" r="5" fill="#315be8" opacity="0.71"/><circle cx="186" cy="338" r="5" fill="#315be8" opacity="0.29000000000000004"/><circle cx="493" cy="85" r="5" fill="#315be8" opacity="0.28"/><circle cx="596" cy="189" r="5" fill="#315be8" opacity="0.68"/>
  <rect width="800" height="420" fill="#e46b4f"/><circle cx="388" cy="218" r="91" fill="#f6bc42"/><path d="M230 212c36 14 66-22 112-2" stroke="#8f3327" stroke-width="12" stroke-linecap="round" opacity=".36"/><circle cx="432" cy="214" r="60" fill="#315be8"/><circle cx="600" cy="276" r="32" fill="#fffaf4"/><path d="M176 324c140 46 308 54 476 0" stroke="#fff" stroke-width="5" fill="none" opacity=".38"/>
</svg>
