<svg xmlns="http://www.w3.org/2000/svg" viewBox="0 0 800 420" role="img" aria-label="Ilustracion propia de espacio y planetas para esta pregunta">
  <defs>
    <linearGradient id="bg" x1="0" x2="1" y1="0" y2="1">
      <stop stop-color="#12171a"/>
      <stop offset="1" stop-color="#e46b4f" stop-opacity="0.22"/>
    </linearGradient>
  </defs>
  <rect width="800" height="420" fill="url(#bg)"/>
  <circle cx="348" cy="193" r="92" fill="#e46b4f" opacity="0.13"/>
  <circle cx="127" cy="149" r="77" fill="#f6bc42" opacity="0.16"/>
  <circle cx="514" cy="46" r="5" fill="#315be8" opacity="0.6100000000000001"/><circle cx="105" cy="136" r="5" fill="#315be8" opacity="0.6000000000000001"/><circle cx="412" cy="225" r="5" fill="#315be8" opacity="0.5900000000000001"/><circle cx="719" cy="314" r="5" fill="#315be8" opacity="0.5800000000000001"/><circle cx="310" cy="61" r="5" fill="#315be8" opacity="0.5700000000000001"/><circle cx="617" cy="150" r="5" fill="#315be8" opacity="0.56"/><circle cx="208" cy="239" r="5" fill="#315be8" opacity="0.55"/><circle cx="515" cy="328" r="5" fill="#315be8" opacity="0.54"/><circle cx="106" cy="76" r="5" fill="#315be8" opacity="0.53"/>
  <rect width="800" height="420" fill="#e46b4f"/><circle cx="354" cy="218" r="84" fill="#f6bc42"/><path d="M230 212c36 14 66-22 112-2" stroke="#8f3327" stroke-width="12" stroke-linecap="round" opacity=".36"/><circle cx="458" cy="196" r="56" fill="#315be8"/><circle cx="580" cy="276" r="32" fill="#fffaf4"/><path d="M176 324c140 46 308 54 476 0" stroke="#fff" stroke-width="5" fill="none" opacity=".38"/>
</svg>
