<svg xmlns="http://www.w3.org/2000/svg" viewBox="0 0 800 420" role="img" aria-label="Ilustracion propia de espacio y planetas para esta pregunta">
  <defs>
    <linearGradient id="bg" x1="0" x2="1" y1="0" y2="1">
      <stop stop-color="#12171a"/>
      <stop offset="1" stop-color="#315be8" stop-opacity="0.22"/>
    </linearGradient>
  </defs>
  <rect width="800" height="420" fill="url(#bg)"/>
  <circle cx="390" cy="165" r="67" fill="#e46b4f" opacity="0.13"/>
  <circle cx="582" cy="325" r="124" fill="#f6bc42" opacity="0.16"/>
  <circle cx="136" cy="283" r="2" fill="#315be8" opacity="0.34"/><circle cx="443" cy="372" r="2" fill="#315be8" opacity="0.33"/><circle cx="238" cy="105" r="2" fill="#315be8" opacity="0.36000000000000004"/><circle cx="545" cy="194" r="2" fill="#315be8" opacity="0.35000000000000003"/><circle cx="648" cy="298" r="2" fill="#315be8" opacity="0.30000000000000004"/><circle cx="239" cy="45" r="2" fill="#315be8" opacity="0.29000000000000004"/><circle cx="750" cy="119" r="2" fill="#315be8" opacity="0.32"/><circle cx="341" cy="208" r="2" fill="#315be8" opacity="0.31000000000000005"/><circle cx="444" cy="312" r="3" fill="#315be8" opacity="0.71"/>
  <rect width="800" height="420" fill="#e46b4f"/><circle cx="422" cy="218" r="98" fill="#f6bc42"/><path d="M230 212c36 14 66-22 112-2" stroke="#8f3327" stroke-width="12" stroke-linecap="round" opacity=".36"/><circle cx="406" cy="232" r="64" fill="#315be8"/><circle cx="620" cy="276" r="32" fill="#fffaf4"/><path d="M176 324c140 46 308 54 476 0" stroke="#fff" stroke-width="5" fill="none" opacity=".38"/>
</svg>
