<svg xmlns="http://www.w3.org/2000/svg" viewBox="0 0 800 420" role="img" aria-label="Ilustracion propia de espacio y planetas para esta pregunta">
  <defs>
    <linearGradient id="bg" x1="0" x2="1" y1="0" y2="1">
      <stop stop-color="#12171a"/>
      <stop offset="1" stop-color="#f6bc42" stop-opacity="0.22"/>
    </linearGradient>
  </defs>
  <rect width="800" height="420" fill="url(#bg)"/>
  <circle cx="566" cy="140" r="77" fill="#e46b4f" opacity="0.13"/>
  <circle cx="529" cy="107" r="105" fill="#f6bc42" opacity="0.16"/>
  <circle cx="154" cy="247" r="5" fill="#315be8" opacity="0.6000000000000001"/><circle cx="461" cy="336" r="5" fill="#315be8" opacity="0.5900000000000001"/><circle cx="52" cy="84" r="5" fill="#315be8" opacity="0.5800000000000001"/><circle cx="359" cy="173" r="5" fill="#315be8" opacity="0.5700000000000001"/><circle cx="666" cy="262" r="2" fill="#315be8" opacity="0.56"/><circle cx="257" cy="351" r="2" fill="#315be8" opacity="0.55"/><circle cx="564" cy="98" r="2" fill="#315be8" opacity="0.54"/><circle cx="155" cy="187" r="2" fill="#315be8" opacity="0.53"/><circle cx="462" cy="276" r="2" fill="#315be8" opacity="0.52"/>
  <rect width="800" height="420" fill="#e46b4f"/><circle cx="286" cy="218" r="70" fill="#f6bc42"/><path d="M230 212c36 14 66-22 112-2" stroke="#8f3327" stroke-width="12" stroke-linecap="round" opacity=".36"/><circle cx="510" cy="160" r="48" fill="#315be8"/><circle cx="540" cy="276" r="32" fill="#fffaf4"/><path d="M176 324c140 46 308 54 476 0" stroke="#fff" stroke-width="5" fill="none" opacity=".38"/>
</svg>
