<svg xmlns="http://www.w3.org/2000/svg" viewBox="0 0 800 420" role="img" aria-label="Ilustracion propia de arte y museo para esta pregunta">
  <defs>
    <linearGradient id="bg" x1="0" x2="1" y1="0" y2="1">
      <stop stop-color="#fff2df"/>
      <stop offset="1" stop-color="#ff4f6d" stop-opacity="0.22"/>
    </linearGradient>
  </defs>
  <rect width="800" height="420" fill="url(#bg)"/>
  <circle cx="489" cy="252" r="105" fill="#6f4a2d" opacity="0.13"/>
  <circle cx="370" cy="157" r="139" fill="#12b7a6" opacity="0.16"/>
  <circle cx="321" cy="261" r="2" fill="#ff4f6d" opacity="0.31000000000000005"/><circle cx="730" cy="172" r="2" fill="#ff4f6d" opacity="0.32"/><circle cx="219" cy="97" r="2" fill="#ff4f6d" opacity="0.29000000000000004"/><circle cx="628" cy="350" r="2" fill="#ff4f6d" opacity="0.30000000000000004"/><circle cx="525" cy="246" r="2" fill="#ff4f6d" opacity="0.35000000000000003"/><circle cx="218" cy="157" r="2" fill="#ff4f6d" opacity="0.36000000000000004"/><circle cx="423" cy="83" r="2" fill="#ff4f6d" opacity="0.33"/><circle cx="116" cy="335" r="2" fill="#ff4f6d" opacity="0.34"/><circle cx="729" cy="232" r="2" fill="#ff4f6d" opacity="0.39"/>
  <rect x="282" y="54" width="304" height="312" rx="24" fill="#6f4a2d"/><rect x="312" y="84" width="244" height="252" rx="16" fill="#d9c092"/><circle cx="434" cy="178" r="54" fill="#f0c7a5"/><path d="M364 318c12-82 42-120 70-120s58 38 70 120z" fill="#ff4f6d"/><path d="M378 154c36-72 116-46 122 10-36-18-74-18-122-10z" fill="#4a2d22"/>
</svg>
