<svg xmlns="http://www.w3.org/2000/svg" viewBox="0 0 800 420" role="img" aria-label="Ilustracion propia de escenario musical para esta pregunta">
  <defs>
    <linearGradient id="bg" x1="0" x2="1" y1="0" y2="1">
      <stop stop-color="#201525"/>
      <stop offset="1" stop-color="#12b7a6" stop-opacity="0.22"/>
    </linearGradient>
  </defs>
  <rect width="800" height="420" fill="url(#bg)"/>
  <circle cx="443" cy="320" r="103" fill="#fffaf4" opacity="0.13"/>
  <circle cx="514" cy="130" r="118" fill="#ff4f6d" opacity="0.16"/>
  <circle cx="184" cy="154" r="3" fill="#12b7a6" opacity="0.51"/><circle cx="491" cy="243" r="3" fill="#12b7a6" opacity="0.5"/><circle cx="286" cy="318" r="3" fill="#12b7a6" opacity="0.53"/><circle cx="593" cy="65" r="3" fill="#12b7a6" opacity="0.52"/><circle cx="696" cy="169" r="3" fill="#12b7a6" opacity="0.47000000000000003"/><circle cx="287" cy="258" r="3" fill="#12b7a6" opacity="0.46"/><circle cx="82" cy="333" r="3" fill="#12b7a6" opacity="0.49"/><circle cx="389" cy="80" r="3" fill="#12b7a6" opacity="0.48000000000000004"/><circle cx="492" cy="183" r="4" fill="#12b7a6" opacity="0.43000000000000005"/>
  <rect width="800" height="420" fill="#fffaf4"/><path d="M158 0l170 290M642 0L510 290" stroke="#12b7a6" stroke-width="34" opacity=".5"/><rect x="150" y="292" width="500" height="54" rx="20" fill="#ff4f6d" opacity=".9"/><path d="M280 292c26-80 214-80 240 0" fill="none" stroke="#fffaf4" stroke-width="16"/><path d="M424 98v126c0 28-24 50-58 50s-58-22-58-50 24-50 58-50c12 0 23 3 32 8V98z" fill="#ff4f6d"/>
</svg>
