<svg xmlns="http://www.w3.org/2000/svg" viewBox="0 0 800 420" role="img" aria-label="Ilustracion propia de escenario musical para esta pregunta">
  <defs>
    <linearGradient id="bg" x1="0" x2="1" y1="0" y2="1">
      <stop stop-color="#201525"/>
      <stop offset="1" stop-color="#12b7a6" stop-opacity="0.22"/>
    </linearGradient>
  </defs>
  <rect width="800" height="420" fill="url(#bg)"/>
  <circle cx="599" cy="138" r="129" fill="#fffaf4" opacity="0.13"/>
  <circle cx="683" cy="107" r="122" fill="#ff4f6d" opacity="0.16"/>
  <circle cx="492" cy="49" r="3" fill="#12b7a6" opacity="0.4"/><circle cx="83" cy="138" r="3" fill="#12b7a6" opacity="0.39"/><circle cx="594" cy="213" r="3" fill="#12b7a6" opacity="0.42000000000000004"/><circle cx="185" cy="302" r="3" fill="#12b7a6" opacity="0.41000000000000003"/><circle cx="288" cy="64" r="3" fill="#12b7a6" opacity="0.36000000000000004"/><circle cx="595" cy="153" r="3" fill="#12b7a6" opacity="0.35000000000000003"/><circle cx="390" cy="228" r="3" fill="#12b7a6" opacity="0.38"/><circle cx="697" cy="317" r="3" fill="#12b7a6" opacity="0.37"/><circle cx="184" cy="362" r="3" fill="#12b7a6" opacity="0.48000000000000004"/>
  <rect width="800" height="420" fill="#fffaf4"/><path d="M182 0l170 290M618 0L510 290" stroke="#12b7a6" stroke-width="34" opacity=".5"/><rect x="150" y="292" width="500" height="54" rx="20" fill="#ff4f6d" opacity=".9"/><path d="M280 292c26-80 214-80 240 0" fill="none" stroke="#fffaf4" stroke-width="16"/><path d="M438 98v126c0 28-24 50-58 50s-58-22-58-50 24-50 58-50c12 0 23 3 32 8V98z" fill="#ff4f6d"/>
</svg>
