<svg xmlns="http://www.w3.org/2000/svg" viewBox="0 0 800 420" role="img" aria-label="Ilustracion propia de oceano y olas para esta pregunta">
  <defs>
    <linearGradient id="bg" x1="0" x2="1" y1="0" y2="1">
      <stop stop-color="#dff8ff"/>
      <stop offset="1" stop-color="#315be8" stop-opacity="0.22"/>
    </linearGradient>
  </defs>
  <rect width="800" height="420" fill="url(#bg)"/>
  <circle cx="272" cy="129" r="117" fill="#12b7a6" opacity="0.13"/>
  <circle cx="343" cy="320" r="110" fill="#315be8" opacity="0.16"/>
  <circle cx="153" cy="113" r="5" fill="#fffaf4" opacity="0.49"/><circle cx="562" cy="366" r="5" fill="#fffaf4" opacity="0.5"/><circle cx="51" cy="291" r="5" fill="#fffaf4" opacity="0.47000000000000003"/><circle cx="460" cy="202" r="5" fill="#fffaf4" opacity="0.48000000000000004"/><circle cx="357" cy="98" r="5" fill="#fffaf4" opacity="0.53"/><circle cx="50" cy="351" r="5" fill="#fffaf4" opacity="0.54"/><circle cx="255" cy="277" r="5" fill="#fffaf4" opacity="0.51"/><circle cx="664" cy="187" r="5" fill="#fffaf4" opacity="0.52"/><circle cx="461" cy="142" r="5" fill="#fffaf4" opacity="0.41000000000000003"/>
  <path d="M0 240c88-42 144 42 232 0s144 42 232 0 144 42 232 0 144 42 232 0v180H0z" fill="#fff" opacity=".34"/><path d="M0 296c88-42 144 42 232 0s144 42 232 0 144 42 232 0 144 42 232 0" fill="none" stroke="#fff" stroke-width="18" opacity=".62"/><path d="M142 174c82-44 170-44 252 0" fill="none" stroke="#fff" stroke-width="10" opacity=".45" stroke-linecap="round"/>
</svg>
