<svg xmlns="http://www.w3.org/2000/svg" viewBox="0 0 800 420" role="img" aria-label="Ilustracion propia de arte y museo para esta pregunta">
  <defs>
    <linearGradient id="bg" x1="0" x2="1" y1="0" y2="1">
      <stop stop-color="#fff2df"/>
      <stop offset="1" stop-color="#6f4a2d" stop-opacity="0.22"/>
    </linearGradient>
  </defs>
  <rect width="800" height="420" fill="url(#bg)"/>
  <circle cx="625" cy="177" r="72" fill="#6f4a2d" opacity="0.13"/>
  <circle cx="687" cy="326" r="125" fill="#12b7a6" opacity="0.16"/>
  <circle cx="619" cy="376" r="5" fill="#ff4f6d" opacity="0.35000000000000003"/><circle cx="312" cy="287" r="5" fill="#ff4f6d" opacity="0.36000000000000004"/><circle cx="721" cy="198" r="5" fill="#ff4f6d" opacity="0.37"/><circle cx="414" cy="109" r="5" fill="#ff4f6d" opacity="0.38"/><circle cx="107" cy="362" r="5" fill="#ff4f6d" opacity="0.39"/><circle cx="516" cy="273" r="5" fill="#ff4f6d" opacity="0.4"/><circle cx="209" cy="183" r="5" fill="#ff4f6d" opacity="0.41000000000000003"/><circle cx="618" cy="94" r="5" fill="#ff4f6d" opacity="0.42000000000000004"/><circle cx="211" cy="63" r="5" fill="#ff4f6d" opacity="0.72"/>
  <rect x="294" y="54" width="304" height="312" rx="24" fill="#6f4a2d"/><rect x="324" y="84" width="244" height="252" rx="16" fill="#d9c092"/><circle cx="446" cy="178" r="54" fill="#f0c7a5"/><path d="M376 318c12-82 42-120 70-120s58 38 70 120z" fill="#ff4f6d"/><path d="M390 154c36-72 116-46 122 10-36-18-74-18-122-10z" fill="#4a2d22"/>
</svg>
