<svg xmlns="http://www.w3.org/2000/svg" viewBox="0 0 800 420" role="img" aria-label="Ilustracion propia de mapa y geografia para esta pregunta">
  <defs>
    <linearGradient id="bg" x1="0" x2="1" y1="0" y2="1">
      <stop stop-color="#eaf9f6"/>
      <stop offset="1" stop-color="#12b7a6" stop-opacity="0.22"/>
    </linearGradient>
  </defs>
  <rect width="800" height="420" fill="url(#bg)"/>
  <circle cx="354" cy="235" r="135" fill="#fffaf4" opacity="0.13"/>
  <circle cx="278" cy="262" r="142" fill="#12b7a6" opacity="0.16"/>
  <circle cx="209" cy="165" r="2" fill="#ff4f6d" opacity="0.72"/><circle cx="618" cy="76" r="2" fill="#ff4f6d" opacity="0.28"/><circle cx="107" cy="343" r="2" fill="#ff4f6d" opacity="0.7"/><circle cx="516" cy="254" r="2" fill="#ff4f6d" opacity="0.71"/><circle cx="721" cy="180" r="2" fill="#ff4f6d" opacity="0.68"/><circle cx="414" cy="91" r="2" fill="#ff4f6d" opacity="0.69"/><circle cx="619" cy="358" r="2" fill="#ff4f6d" opacity="0.66"/><circle cx="312" cy="269" r="2" fill="#ff4f6d" opacity="0.67"/><circle cx="517" cy="194" r="2" fill="#ff4f6d" opacity="0.64"/>
  <path d="M100 84l170-42 160 50 170-42 100 42v244l-170 42-160-50-170 42-100-42z" fill="#12b7a6" stroke="#15191d" stroke-width="5" opacity=".94"/><path d="M270 42v286M430 92v286M600 50v286" stroke="#15191d" stroke-width="4" opacity=".16"/><path d="M126 184c80 22 106-36 176-8 72 28 94 88 182 48 86-40 128-8 184 44" fill="none" stroke="#ff4f6d" stroke-width="14" stroke-linecap="round"/><path d="M530 154c0 36-38 70-38 70s-38-34-38-70a38 38 0 0176 0z" fill="#fffaf4"/>
</svg>
