<svg xmlns="http://www.w3.org/2000/svg" viewBox="0 0 800 420" role="img" aria-label="Ilustracion propia de estadio y futbol generico para esta pregunta">
  <defs>
    <linearGradient id="bg" x1="0" x2="1" y1="0" y2="1">
      <stop stop-color="#eaf8f5"/>
      <stop offset="1" stop-color="#26b99f" stop-opacity="0.22"/>
    </linearGradient>
  </defs>
  <rect width="800" height="420" fill="url(#bg)"/>
  <circle cx="157" cy="110" r="64" fill="#26b99f" opacity="0.13"/>
  <circle cx="403" cy="175" r="114" fill="#f6bc42" opacity="0.16"/>
  <circle cx="637" cy="235" r="4" fill="#15191d" opacity="0.31000000000000005"/><circle cx="330" cy="146" r="4" fill="#15191d" opacity="0.32"/><circle cx="535" cy="72" r="4" fill="#15191d" opacity="0.29000000000000004"/><circle cx="228" cy="324" r="4" fill="#15191d" opacity="0.30000000000000004"/><circle cx="433" cy="250" r="4" fill="#15191d" opacity="0.72"/><circle cx="126" cy="161" r="4" fill="#15191d" opacity="0.28"/><circle cx="331" cy="86" r="4" fill="#15191d" opacity="0.7"/><circle cx="740" cy="339" r="4" fill="#15191d" opacity="0.71"/><circle cx="329" cy="206" r="3" fill="#15191d" opacity="0.39"/>
  <rect x="118" y="78" width="564" height="264" rx="26" fill="#f6bc42"/><path d="M400 78v264M118 210h564" stroke="#fff" stroke-width="7" opacity=".76"/><circle cx="400" cy="210" r="58" fill="none" stroke="#fff" stroke-width="7" opacity=".76"/><circle cx="258" cy="182" r="32" fill="#fff"/><path d="M226 182h64M258 150v64" stroke="#26b99f" stroke-width="5" opacity=".5"/>
</svg>
