<svg xmlns="http://www.w3.org/2000/svg" viewBox="0 0 800 420" role="img" aria-label="Ilustracion propia de laboratorio cientifico para esta pregunta">
  <defs>
    <linearGradient id="bg" x1="0" x2="1" y1="0" y2="1">
      <stop stop-color="#edf9ff"/>
      <stop offset="1" stop-color="#edf9ff" stop-opacity="0.22"/>
    </linearGradient>
  </defs>
  <rect width="800" height="420" fill="url(#bg)"/>
  <circle cx="205" cy="276" r="66" fill="#fffaf4" opacity="0.13"/>
  <circle cx="184" cy="339" r="84" fill="#12b7a6" opacity="0.16"/>
  <circle cx="75" cy="205" r="2" fill="#ff4f6d" opacity="0.6100000000000001"/><circle cx="484" cy="115" r="2" fill="#ff4f6d" opacity="0.6200000000000001"/><circle cx="177" cy="368" r="2" fill="#ff4f6d" opacity="0.63"/><circle cx="586" cy="279" r="2" fill="#ff4f6d" opacity="0.64"/><circle cx="587" cy="219" r="2" fill="#ff4f6d" opacity="0.5700000000000001"/><circle cx="280" cy="130" r="2" fill="#ff4f6d" opacity="0.5800000000000001"/><circle cx="689" cy="41" r="2" fill="#ff4f6d" opacity="0.5900000000000001"/><circle cx="382" cy="294" r="2" fill="#ff4f6d" opacity="0.6000000000000001"/><circle cx="483" cy="175" r="2" fill="#ff4f6d" opacity="0.69"/>
  <path d="M390 74h116v28l-38 76v84c0 48-39 86-86 86h-8c-47 0-86-38-86-86v-84l-38-76V74h116z" fill="#12b7a6" stroke="#15191d" stroke-width="8"/><path d="M290 230h132v38c0 31-25 56-56 56h-20c-31 0-56-25-56-56z" fill="#ff4f6d" opacity=".85"/><circle cx="406" cy="250" r="12" fill="#fff"/><circle cx="308" cy="280" r="18" fill="#fff"/><path d="M528 118l68 118 68-118" fill="none" stroke="#fffaf4" stroke-width="15" stroke-linejoin="round"/>
</svg>
