<svg xmlns="http://www.w3.org/2000/svg" viewBox="0 0 800 420" role="img" aria-label="Ilustracion propia de oceano y olas para esta pregunta">
  <defs>
    <linearGradient id="bg" x1="0" x2="1" y1="0" y2="1">
      <stop stop-color="#dff8ff"/>
      <stop offset="1" stop-color="#315be8" stop-opacity="0.22"/>
    </linearGradient>
  </defs>
  <rect width="800" height="420" fill="url(#bg)"/>
  <circle cx="324" cy="197" r="119" fill="#12b7a6" opacity="0.13"/>
  <circle cx="124" cy="78" r="120" fill="#315be8" opacity="0.16"/>
  <circle cx="494" cy="358" r="2" fill="#fffaf4" opacity="0.68"/><circle cx="85" cy="105" r="3" fill="#fffaf4" opacity="0.67"/><circle cx="392" cy="194" r="3" fill="#fffaf4" opacity="0.66"/><circle cx="699" cy="284" r="3" fill="#fffaf4" opacity="0.65"/><circle cx="290" cy="373" r="3" fill="#fffaf4" opacity="0.64"/><circle cx="597" cy="120" r="3" fill="#fffaf4" opacity="0.63"/><circle cx="188" cy="209" r="3" fill="#fffaf4" opacity="0.6200000000000001"/><circle cx="495" cy="298" r="3" fill="#fffaf4" opacity="0.6100000000000001"/><circle cx="86" cy="45" r="3" fill="#fffaf4" opacity="0.6000000000000001"/>
  <path d="M0 240c88-42 144 42 232 0s144 42 232 0 144 42 232 0 144 42 232 0v180H0z" fill="#fff" opacity=".34"/><path d="M0 316c88-42 144 42 232 0s144 42 232 0 144 42 232 0 144 42 232 0" fill="none" stroke="#fff" stroke-width="18" opacity=".62"/><path d="M142 174c82-44 170-44 252 0" fill="none" stroke="#fff" stroke-width="10" opacity=".45" stroke-linecap="round"/>
</svg>
