<svg xmlns="http://www.w3.org/2000/svg" viewBox="0 0 800 420" role="img" aria-label="Ilustracion propia de oceano y olas para esta pregunta">
  <defs>
    <linearGradient id="bg" x1="0" x2="1" y1="0" y2="1">
      <stop stop-color="#dff8ff"/>
      <stop offset="1" stop-color="#fffaf4" stop-opacity="0.22"/>
    </linearGradient>
  </defs>
  <rect width="800" height="420" fill="url(#bg)"/>
  <circle cx="119" cy="318" r="119" fill="#12b7a6" opacity="0.13"/>
  <circle cx="248" cy="344" r="80" fill="#315be8" opacity="0.16"/>
  <circle cx="129" cy="200" r="4" fill="#fffaf4" opacity="0.42000000000000004"/><circle cx="538" cy="111" r="3" fill="#fffaf4" opacity="0.43000000000000005"/><circle cx="743" cy="36" r="4" fill="#fffaf4" opacity="0.4"/><circle cx="436" cy="289" r="4" fill="#fffaf4" opacity="0.41000000000000003"/><circle cx="333" cy="185" r="3" fill="#fffaf4" opacity="0.46"/><circle cx="742" cy="96" r="3" fill="#fffaf4" opacity="0.47000000000000003"/><circle cx="231" cy="364" r="3" fill="#fffaf4" opacity="0.44000000000000006"/><circle cx="640" cy="274" r="3" fill="#fffaf4" opacity="0.45000000000000007"/><circle cx="537" cy="171" r="3" fill="#fffaf4" opacity="0.5"/>
  <path d="M0 240c88-42 144 42 232 0s144 42 232 0 144 42 232 0 144 42 232 0v180H0z" fill="#fff" opacity=".34"/><path d="M0 316c88-42 144 42 232 0s144 42 232 0 144 42 232 0 144 42 232 0" fill="none" stroke="#fff" stroke-width="18" opacity=".62"/><path d="M142 174c82-44 170-44 252 0" fill="none" stroke="#fff" stroke-width="10" opacity=".45" stroke-linecap="round"/>
</svg>
