<svg xmlns="http://www.w3.org/2000/svg" viewBox="0 0 800 420" role="img" aria-label="Ilustracion propia de oceano y olas para esta pregunta">
  <defs>
    <linearGradient id="bg" x1="0" x2="1" y1="0" y2="1">
      <stop stop-color="#dff8ff"/>
      <stop offset="1" stop-color="#dff8ff" stop-opacity="0.22"/>
    </linearGradient>
  </defs>
  <rect width="800" height="420" fill="url(#bg)"/>
  <circle cx="520" cy="167" r="128" fill="#12b7a6" opacity="0.13"/>
  <circle cx="524" cy="75" r="142" fill="#315be8" opacity="0.16"/>
  <circle cx="227" cy="75" r="2" fill="#fffaf4" opacity="0.68"/><circle cx="636" cy="328" r="2" fill="#fffaf4" opacity="0.69"/><circle cx="329" cy="239" r="2" fill="#fffaf4" opacity="0.7"/><circle cx="738" cy="150" r="2" fill="#fffaf4" opacity="0.71"/><circle cx="431" cy="60" r="2" fill="#fffaf4" opacity="0.72"/><circle cx="124" cy="313" r="2" fill="#fffaf4" opacity="0.28"/><circle cx="533" cy="224" r="2" fill="#fffaf4" opacity="0.29000000000000004"/><circle cx="226" cy="135" r="2" fill="#fffaf4" opacity="0.30000000000000004"/><circle cx="635" cy="46" r="2" fill="#fffaf4" opacity="0.31000000000000005"/>
  <path d="M0 240c88-42 144 42 232 0s144 42 232 0 144 42 232 0 144 42 232 0v180H0z" fill="#fff" opacity=".34"/><path d="M0 326c88-42 144 42 232 0s144 42 232 0 144 42 232 0 144 42 232 0" fill="none" stroke="#fff" stroke-width="18" opacity=".62"/><path d="M142 174c82-44 170-44 252 0" fill="none" stroke="#fff" stroke-width="10" opacity=".45" stroke-linecap="round"/>
</svg>
