<svg xmlns="http://www.w3.org/2000/svg" viewBox="0 0 800 420" role="img" aria-label="Ilustracion propia de oceano y olas para esta pregunta">
  <defs>
    <linearGradient id="bg" x1="0" x2="1" y1="0" y2="1">
      <stop stop-color="#dff8ff"/>
      <stop offset="1" stop-color="#dff8ff" stop-opacity="0.22"/>
    </linearGradient>
  </defs>
  <rect width="800" height="420" fill="url(#bg)"/>
  <circle cx="529" cy="198" r="86" fill="#12b7a6" opacity="0.13"/>
  <circle cx="450" cy="257" r="126" fill="#315be8" opacity="0.16"/>
  <circle cx="484" cy="332" r="5" fill="#fffaf4" opacity="0.51"/><circle cx="75" cy="79" r="5" fill="#fffaf4" opacity="0.5"/><circle cx="586" cy="153" r="5" fill="#fffaf4" opacity="0.53"/><circle cx="177" cy="243" r="5" fill="#fffaf4" opacity="0.52"/><circle cx="688" cy="317" r="5" fill="#fffaf4" opacity="0.55"/><circle cx="279" cy="64" r="5" fill="#fffaf4" opacity="0.54"/><circle cx="74" cy="139" r="5" fill="#fffaf4" opacity="0.5700000000000001"/><circle cx="381" cy="228" r="5" fill="#fffaf4" opacity="0.56"/><circle cx="308" cy="233" r="5" fill="#fffaf4" opacity="0.5700000000000001"/>
  <path d="M0 240c88-42 144 42 232 0s144 42 232 0 144 42 232 0 144 42 232 0v180H0z" fill="#fff" opacity=".34"/><path d="M0 316c88-42 144 42 232 0s144 42 232 0 144 42 232 0 144 42 232 0" fill="none" stroke="#fff" stroke-width="18" opacity=".62"/><path d="M142 174c82-44 170-44 252 0" fill="none" stroke="#fff" stroke-width="10" opacity=".45" stroke-linecap="round"/>
</svg>
