<svg xmlns="http://www.w3.org/2000/svg" viewBox="0 0 800 420" role="img" aria-label="Ilustracion propia de estadio y futbol generico para esta pregunta">
  <defs>
    <linearGradient id="bg" x1="0" x2="1" y1="0" y2="1">
      <stop stop-color="#eaf8f5"/>
      <stop offset="1" stop-color="#15191d" stop-opacity="0.22"/>
    </linearGradient>
  </defs>
  <rect width="800" height="420" fill="url(#bg)"/>
  <circle cx="302" cy="282" r="69" fill="#26b99f" opacity="0.13"/>
  <circle cx="346" cy="196" r="124" fill="#f6bc42" opacity="0.16"/>
  <circle cx="365" cy="258" r="4" fill="#15191d" opacity="0.6000000000000001"/><circle cx="58" cy="169" r="4" fill="#15191d" opacity="0.6100000000000001"/><circle cx="263" cy="95" r="4" fill="#15191d" opacity="0.5800000000000001"/><circle cx="672" cy="348" r="4" fill="#15191d" opacity="0.5900000000000001"/><circle cx="569" cy="244" r="4" fill="#15191d" opacity="0.64"/><circle cx="262" cy="155" r="4" fill="#15191d" opacity="0.65"/><circle cx="467" cy="80" r="4" fill="#15191d" opacity="0.6200000000000001"/><circle cx="160" cy="333" r="4" fill="#15191d" opacity="0.63"/><circle cx="57" cy="229" r="4" fill="#15191d" opacity="0.68"/>
  <rect x="118" y="78" width="564" height="264" rx="26" fill="#f6bc42"/><path d="M400 78v264M118 210h564" stroke="#fff" stroke-width="7" opacity=".76"/><circle cx="400" cy="210" r="58" fill="none" stroke="#fff" stroke-width="7" opacity=".76"/><circle cx="258" cy="182" r="32" fill="#fff"/><path d="M226 182h64M258 150v64" stroke="#26b99f" stroke-width="5" opacity=".5"/>
</svg>
