<svg xmlns="http://www.w3.org/2000/svg" viewBox="0 0 800 420" role="img" aria-label="Ilustracion propia de laboratorio cientifico para esta pregunta">
  <defs>
    <linearGradient id="bg" x1="0" x2="1" y1="0" y2="1">
      <stop stop-color="#edf9ff"/>
      <stop offset="1" stop-color="#12b7a6" stop-opacity="0.22"/>
    </linearGradient>
  </defs>
  <rect width="800" height="420" fill="url(#bg)"/>
  <circle cx="337" cy="306" r="77" fill="#fffaf4" opacity="0.13"/>
  <circle cx="426" cy="342" r="95" fill="#12b7a6" opacity="0.16"/>
  <circle cx="357" cy="357" r="5" fill="#ff4f6d" opacity="0.48000000000000004"/><circle cx="50" cy="268" r="5" fill="#ff4f6d" opacity="0.49"/><circle cx="255" cy="194" r="5" fill="#ff4f6d" opacity="0.46"/><circle cx="664" cy="104" r="5" fill="#ff4f6d" opacity="0.47000000000000003"/><circle cx="153" cy="372" r="5" fill="#ff4f6d" opacity="0.44000000000000006"/><circle cx="562" cy="283" r="5" fill="#ff4f6d" opacity="0.45000000000000007"/><circle cx="51" cy="208" r="5" fill="#ff4f6d" opacity="0.42000000000000004"/><circle cx="460" cy="119" r="5" fill="#ff4f6d" opacity="0.43000000000000005"/><circle cx="49" cy="328" r="5" fill="#ff4f6d" opacity="0.56"/>
  <path d="M360 74h116v28l-38 76v84c0 48-39 86-86 86h-8c-47 0-86-38-86-86v-84l-38-76V74h116z" fill="#12b7a6" stroke="#15191d" stroke-width="8"/><path d="M290 230h132v38c0 31-25 56-56 56h-20c-31 0-56-25-56-56z" fill="#ff4f6d" opacity=".85"/><circle cx="346" cy="250" r="12" fill="#fff"/><circle cx="362" cy="280" r="18" fill="#fff"/><path d="M528 118l68 118 68-118" fill="none" stroke="#fffaf4" stroke-width="15" stroke-linejoin="round"/>
</svg>
