<svg xmlns="http://www.w3.org/2000/svg" viewBox="0 0 800 420" role="img" aria-label="Ilustracion propia de laboratorio cientifico para esta pregunta">
  <defs>
    <linearGradient id="bg" x1="0" x2="1" y1="0" y2="1">
      <stop stop-color="#edf9ff"/>
      <stop offset="1" stop-color="#edf9ff" stop-opacity="0.22"/>
    </linearGradient>
  </defs>
  <rect width="800" height="420" fill="url(#bg)"/>
  <circle cx="323" cy="240" r="98" fill="#fffaf4" opacity="0.13"/>
  <circle cx="424" cy="155" r="88" fill="#12b7a6" opacity="0.16"/>
  <circle cx="660" cy="114" r="5" fill="#ff4f6d" opacity="0.37"/><circle cx="251" cy="203" r="5" fill="#ff4f6d" opacity="0.36000000000000004"/><circle cx="46" cy="278" r="5" fill="#ff4f6d" opacity="0.39"/><circle cx="353" cy="367" r="5" fill="#ff4f6d" opacity="0.38"/><circle cx="148" cy="99" r="5" fill="#ff4f6d" opacity="0.41000000000000003"/><circle cx="455" cy="188" r="5" fill="#ff4f6d" opacity="0.4"/><circle cx="250" cy="263" r="5" fill="#ff4f6d" opacity="0.43000000000000005"/><circle cx="557" cy="352" r="5" fill="#ff4f6d" opacity="0.42000000000000004"/><circle cx="352" cy="85" r="5" fill="#ff4f6d" opacity="0.45000000000000007"/>
  <path d="M370 74h116v28l-38 76v84c0 48-39 86-86 86h-8c-47 0-86-38-86-86v-84l-38-76V74h116z" fill="#12b7a6" stroke="#15191d" stroke-width="8"/><path d="M290 230h132v38c0 31-25 56-56 56h-20c-31 0-56-25-56-56z" fill="#ff4f6d" opacity=".85"/><circle cx="366" cy="250" r="12" fill="#fff"/><circle cx="344" cy="280" r="18" fill="#fff"/><path d="M528 118l68 118 68-118" fill="none" stroke="#fffaf4" stroke-width="15" stroke-linejoin="round"/>
</svg>
