<svg xmlns="http://www.w3.org/2000/svg" viewBox="0 0 800 420" role="img" aria-label="Ilustracion propia de estadio y futbol generico para esta pregunta">
  <defs>
    <linearGradient id="bg" x1="0" x2="1" y1="0" y2="1">
      <stop stop-color="#eaf8f5"/>
      <stop offset="1" stop-color="#eaf8f5" stop-opacity="0.22"/>
    </linearGradient>
  </defs>
  <rect width="800" height="420" fill="url(#bg)"/>
  <circle cx="430" cy="331" r="100" fill="#26b99f" opacity="0.13"/>
  <circle cx="287" cy="238" r="128" fill="#f6bc42" opacity="0.16"/>
  <circle cx="215" cy="362" r="4" fill="#15191d" opacity="0.67"/><circle cx="624" cy="273" r="4" fill="#15191d" opacity="0.68"/><circle cx="317" cy="184" r="4" fill="#15191d" opacity="0.69"/><circle cx="726" cy="95" r="4" fill="#15191d" opacity="0.7"/><circle cx="419" cy="348" r="4" fill="#15191d" opacity="0.71"/><circle cx="112" cy="259" r="4" fill="#15191d" opacity="0.72"/><circle cx="521" cy="170" r="4" fill="#15191d" opacity="0.28"/><circle cx="214" cy="80" r="4" fill="#15191d" opacity="0.29000000000000004"/><circle cx="623" cy="333" r="3" fill="#15191d" opacity="0.30000000000000004"/>
  <rect x="118" y="78" width="564" height="264" rx="26" fill="#f6bc42"/><path d="M400 78v264M118 210h564" stroke="#fff" stroke-width="7" opacity=".76"/><circle cx="400" cy="210" r="58" fill="none" stroke="#fff" stroke-width="7" opacity=".76"/><circle cx="372" cy="236" r="32" fill="#fff"/><path d="M340 236h64M372 204v64" stroke="#26b99f" stroke-width="5" opacity=".5"/>
</svg>
