<svg xmlns="http://www.w3.org/2000/svg" viewBox="0 0 800 420" role="img" aria-label="Ilustracion propia de oceano y olas para esta pregunta">
  <defs>
    <linearGradient id="bg" x1="0" x2="1" y1="0" y2="1">
      <stop stop-color="#dff8ff"/>
      <stop offset="1" stop-color="#315be8" stop-opacity="0.22"/>
    </linearGradient>
  </defs>
  <rect width="800" height="420" fill="url(#bg)"/>
  <circle cx="456" cy="276" r="85" fill="#12b7a6" opacity="0.13"/>
  <circle cx="666" cy="196" r="66" fill="#315be8" opacity="0.16"/>
  <circle cx="587" cy="73" r="3" fill="#fffaf4" opacity="0.71"/><circle cx="280" cy="326" r="3" fill="#fffaf4" opacity="0.72"/><circle cx="689" cy="237" r="3" fill="#fffaf4" opacity="0.28"/><circle cx="382" cy="148" r="3" fill="#fffaf4" opacity="0.29000000000000004"/><circle cx="75" cy="59" r="3" fill="#fffaf4" opacity="0.30000000000000004"/><circle cx="484" cy="311" r="3" fill="#fffaf4" opacity="0.31000000000000005"/><circle cx="177" cy="222" r="3" fill="#fffaf4" opacity="0.32"/><circle cx="586" cy="133" r="3" fill="#fffaf4" opacity="0.33"/><circle cx="279" cy="44" r="3" fill="#fffaf4" opacity="0.34"/>
  <path d="M0 240c88-42 144 42 232 0s144 42 232 0 144 42 232 0 144 42 232 0v180H0z" fill="#fff" opacity=".34"/><path d="M0 286c88-42 144 42 232 0s144 42 232 0 144 42 232 0 144 42 232 0" fill="none" stroke="#fff" stroke-width="18" opacity=".62"/><path d="M142 174c82-44 170-44 252 0" fill="none" stroke="#fff" stroke-width="10" opacity=".45" stroke-linecap="round"/>
</svg>
