<svg xmlns="http://www.w3.org/2000/svg" viewBox="0 0 800 420" role="img" aria-label="Ilustracion propia de mapa y geografia para esta pregunta">
  <defs>
    <linearGradient id="bg" x1="0" x2="1" y1="0" y2="1">
      <stop stop-color="#eaf9f6"/>
      <stop offset="1" stop-color="#fffaf4" stop-opacity="0.22"/>
    </linearGradient>
  </defs>
  <rect width="800" height="420" fill="url(#bg)"/>
  <circle cx="666" cy="224" r="124" fill="#fffaf4" opacity="0.13"/>
  <circle cx="617" cy="153" r="91" fill="#12b7a6" opacity="0.16"/>
  <circle cx="293" cy="203" r="3" fill="#ff4f6d" opacity="0.39"/><circle cx="702" cy="114" r="3" fill="#ff4f6d" opacity="0.4"/><circle cx="191" cy="39" r="3" fill="#ff4f6d" opacity="0.37"/><circle cx="600" cy="292" r="3" fill="#ff4f6d" opacity="0.38"/><circle cx="89" cy="217" r="3" fill="#ff4f6d" opacity="0.35000000000000003"/><circle cx="498" cy="128" r="3" fill="#ff4f6d" opacity="0.36000000000000004"/><circle cx="219" cy="268" r="3" fill="#ff4f6d" opacity="0.47000000000000003"/><circle cx="396" cy="306" r="3" fill="#ff4f6d" opacity="0.34"/><circle cx="117" cy="104" r="3" fill="#ff4f6d" opacity="0.45000000000000007"/>
  <path d="M100 84l170-42 160 50 170-42 100 42v244l-170 42-160-50-170 42-100-42z" fill="#12b7a6" stroke="#15191d" stroke-width="5" opacity=".94"/><path d="M270 42v286M430 92v286M600 50v286" stroke="#15191d" stroke-width="4" opacity=".16"/><path d="M126 136c80 22 106-36 176-8 72 28 94 88 182 48 86-40 128-8 184 44" fill="none" stroke="#ff4f6d" stroke-width="14" stroke-linecap="round"/><path d="M440 112c0 36-38 70-38 70s-38-34-38-70a38 38 0 0176 0z" fill="#fffaf4"/>
</svg>
