<svg xmlns="http://www.w3.org/2000/svg" viewBox="0 0 800 420" role="img" aria-label="Ilustracion propia de estadio y futbol generico para esta pregunta">
  <defs>
    <linearGradient id="bg" x1="0" x2="1" y1="0" y2="1">
      <stop stop-color="#eaf8f5"/>
      <stop offset="1" stop-color="#eaf8f5" stop-opacity="0.22"/>
    </linearGradient>
  </defs>
  <rect width="800" height="420" fill="url(#bg)"/>
  <circle cx="447" cy="133" r="116" fill="#26b99f" opacity="0.13"/>
  <circle cx="589" cy="321" r="130" fill="#f6bc42" opacity="0.16"/>
  <circle cx="299" cy="118" r="4" fill="#15191d" opacity="0.71"/><circle cx="708" cy="371" r="4" fill="#15191d" opacity="0.72"/><circle cx="401" cy="282" r="4" fill="#15191d" opacity="0.28"/><circle cx="94" cy="192" r="4" fill="#15191d" opacity="0.29000000000000004"/><circle cx="95" cy="132" r="5" fill="#15191d" opacity="0.67"/><circle cx="504" cy="43" r="5" fill="#15191d" opacity="0.68"/><circle cx="197" cy="296" r="4" fill="#15191d" opacity="0.69"/><circle cx="606" cy="207" r="4" fill="#15191d" opacity="0.7"/><circle cx="123" cy="361" r="5" fill="#15191d" opacity="0.32"/>
  <rect x="118" y="78" width="564" height="264" rx="26" fill="#f6bc42"/><path d="M400 78v264M118 210h564" stroke="#fff" stroke-width="7" opacity=".76"/><circle cx="400" cy="210" r="58" fill="none" stroke="#fff" stroke-width="7" opacity=".76"/><circle cx="258" cy="182" r="32" fill="#fff"/><path d="M226 182h64M258 150v64" stroke="#26b99f" stroke-width="5" opacity=".5"/>
</svg>
