<svg xmlns="http://www.w3.org/2000/svg" viewBox="0 0 800 420" role="img" aria-label="Ilustracion propia de oceano y olas para esta pregunta">
  <defs>
    <linearGradient id="bg" x1="0" x2="1" y1="0" y2="1">
      <stop stop-color="#dff8ff"/>
      <stop offset="1" stop-color="#dff8ff" stop-opacity="0.22"/>
    </linearGradient>
  </defs>
  <rect width="800" height="420" fill="url(#bg)"/>
  <circle cx="157" cy="281" r="104" fill="#12b7a6" opacity="0.13"/>
  <circle cx="478" cy="196" r="79" fill="#315be8" opacity="0.16"/>
  <circle cx="495" cy="131" r="4" fill="#fffaf4" opacity="0.33"/><circle cx="188" cy="41" r="4" fill="#fffaf4" opacity="0.34"/><circle cx="597" cy="294" r="4" fill="#fffaf4" opacity="0.35000000000000003"/><circle cx="290" cy="205" r="4" fill="#fffaf4" opacity="0.36000000000000004"/><circle cx="699" cy="116" r="4" fill="#fffaf4" opacity="0.37"/><circle cx="392" cy="369" r="4" fill="#fffaf4" opacity="0.38"/><circle cx="85" cy="280" r="4" fill="#fffaf4" opacity="0.39"/><circle cx="494" cy="191" r="4" fill="#fffaf4" opacity="0.4"/><circle cx="187" cy="101" r="4" fill="#fffaf4" opacity="0.41000000000000003"/>
  <path d="M0 240c88-42 144 42 232 0s144 42 232 0 144 42 232 0 144 42 232 0v180H0z" fill="#fff" opacity=".34"/><path d="M0 296c88-42 144 42 232 0s144 42 232 0 144 42 232 0 144 42 232 0" fill="none" stroke="#fff" stroke-width="18" opacity=".62"/><path d="M142 174c82-44 170-44 252 0" fill="none" stroke="#fff" stroke-width="10" opacity=".45" stroke-linecap="round"/>
</svg>
