<svg xmlns="http://www.w3.org/2000/svg" viewBox="0 0 800 420" role="img" aria-label="Ilustracion propia de oceano y olas para esta pregunta">
  <defs>
    <linearGradient id="bg" x1="0" x2="1" y1="0" y2="1">
      <stop stop-color="#dff8ff"/>
      <stop offset="1" stop-color="#fffaf4" stop-opacity="0.22"/>
    </linearGradient>
  </defs>
  <rect width="800" height="420" fill="url(#bg)"/>
  <circle cx="356" cy="344" r="141" fill="#12b7a6" opacity="0.13"/>
  <circle cx="203" cy="168" r="93" fill="#315be8" opacity="0.16"/>
  <circle cx="154" cy="162" r="3" fill="#fffaf4" opacity="0.5800000000000001"/><circle cx="461" cy="251" r="3" fill="#fffaf4" opacity="0.5700000000000001"/><circle cx="52" cy="340" r="3" fill="#fffaf4" opacity="0.56"/><circle cx="359" cy="87" r="3" fill="#fffaf4" opacity="0.55"/><circle cx="358" cy="147" r="3" fill="#fffaf4" opacity="0.6200000000000001"/><circle cx="665" cy="236" r="3" fill="#fffaf4" opacity="0.6100000000000001"/><circle cx="256" cy="325" r="3" fill="#fffaf4" opacity="0.6000000000000001"/><circle cx="563" cy="72" r="3" fill="#fffaf4" opacity="0.5900000000000001"/><circle cx="462" cy="191" r="4" fill="#fffaf4" opacity="0.5"/>
  <path d="M0 240c88-42 144 42 232 0s144 42 232 0 144 42 232 0 144 42 232 0v180H0z" fill="#fff" opacity=".34"/><path d="M0 286c88-42 144 42 232 0s144 42 232 0 144 42 232 0 144 42 232 0" fill="none" stroke="#fff" stroke-width="18" opacity=".62"/><path d="M142 174c82-44 170-44 252 0" fill="none" stroke="#fff" stroke-width="10" opacity=".45" stroke-linecap="round"/>
</svg>
