<svg xmlns="http://www.w3.org/2000/svg" viewBox="0 0 800 420" role="img" aria-label="Ilustracion propia de estadio y futbol generico para esta pregunta">
  <defs>
    <linearGradient id="bg" x1="0" x2="1" y1="0" y2="1">
      <stop stop-color="#eaf8f5"/>
      <stop offset="1" stop-color="#15191d" stop-opacity="0.22"/>
    </linearGradient>
  </defs>
  <rect width="800" height="420" fill="url(#bg)"/>
  <circle cx="146" cy="256" r="97" fill="#26b99f" opacity="0.13"/>
  <circle cx="552" cy="193" r="108" fill="#f6bc42" opacity="0.16"/>
  <circle cx="645" cy="178" r="5" fill="#15191d" opacity="0.63"/><circle cx="338" cy="88" r="5" fill="#15191d" opacity="0.64"/><circle cx="543" cy="356" r="5" fill="#15191d" opacity="0.6100000000000001"/><circle cx="236" cy="267" r="5" fill="#15191d" opacity="0.6200000000000001"/><circle cx="441" cy="192" r="5" fill="#15191d" opacity="0.5900000000000001"/><circle cx="134" cy="103" r="5" fill="#15191d" opacity="0.6000000000000001"/><circle cx="339" cy="370" r="5" fill="#15191d" opacity="0.5700000000000001"/><circle cx="748" cy="281" r="5" fill="#15191d" opacity="0.5800000000000001"/><circle cx="237" cy="207" r="5" fill="#15191d" opacity="0.55"/>
  <rect x="118" y="78" width="564" height="264" rx="26" fill="#f6bc42"/><path d="M400 78v264M118 210h564" stroke="#fff" stroke-width="7" opacity=".76"/><circle cx="400" cy="210" r="58" fill="none" stroke="#fff" stroke-width="7" opacity=".76"/><circle cx="220" cy="164" r="32" fill="#fff"/><path d="M188 164h64M220 132v64" stroke="#26b99f" stroke-width="5" opacity=".5"/>
</svg>
