<svg xmlns="http://www.w3.org/2000/svg" viewBox="0 0 800 420" role="img" aria-label="Ilustracion propia de estadio y futbol generico para esta pregunta">
  <defs>
    <linearGradient id="bg" x1="0" x2="1" y1="0" y2="1">
      <stop stop-color="#eaf8f5"/>
      <stop offset="1" stop-color="#15191d" stop-opacity="0.22"/>
    </linearGradient>
  </defs>
  <rect width="800" height="420" fill="url(#bg)"/>
  <circle cx="119" cy="138" r="129" fill="#26b99f" opacity="0.13"/>
  <circle cx="323" cy="286" r="72" fill="#f6bc42" opacity="0.16"/>
  <circle cx="664" cy="264" r="4" fill="#15191d" opacity="0.30000000000000004"/><circle cx="255" cy="353" r="4" fill="#15191d" opacity="0.29000000000000004"/><circle cx="50" cy="85" r="4" fill="#15191d" opacity="0.32"/><circle cx="357" cy="174" r="4" fill="#15191d" opacity="0.31000000000000005"/><circle cx="460" cy="278" r="4" fill="#15191d" opacity="0.71"/><circle cx="51" cy="367" r="4" fill="#15191d" opacity="0.7"/><circle cx="562" cy="100" r="4" fill="#15191d" opacity="0.28"/><circle cx="153" cy="189" r="4" fill="#15191d" opacity="0.72"/><circle cx="356" cy="234" r="4" fill="#15191d" opacity="0.38"/>
  <rect x="118" y="78" width="564" height="264" rx="26" fill="#f6bc42"/><path d="M400 78v264M118 210h564" stroke="#fff" stroke-width="7" opacity=".76"/><circle cx="400" cy="210" r="58" fill="none" stroke="#fff" stroke-width="7" opacity=".76"/><circle cx="334" cy="218" r="32" fill="#fff"/><path d="M302 218h64M334 186v64" stroke="#26b99f" stroke-width="5" opacity=".5"/>
</svg>
