<svg xmlns="http://www.w3.org/2000/svg" viewBox="0 0 800 420" role="img" aria-label="Ilustracion propia de laboratorio cientifico para esta pregunta">
  <defs>
    <linearGradient id="bg" x1="0" x2="1" y1="0" y2="1">
      <stop stop-color="#edf9ff"/>
      <stop offset="1" stop-color="#fffaf4" stop-opacity="0.22"/>
    </linearGradient>
  </defs>
  <rect width="800" height="420" fill="url(#bg)"/>
  <circle cx="589" cy="338" r="96" fill="#fffaf4" opacity="0.13"/>
  <circle cx="307" cy="132" r="138" fill="#12b7a6" opacity="0.16"/>
  <circle cx="129" cy="107" r="3" fill="#ff4f6d" opacity="0.42000000000000004"/><circle cx="538" cy="360" r="3" fill="#ff4f6d" opacity="0.43000000000000005"/><circle cx="743" cy="286" r="3" fill="#ff4f6d" opacity="0.4"/><circle cx="436" cy="197" r="3" fill="#ff4f6d" opacity="0.41000000000000003"/><circle cx="641" cy="122" r="3" fill="#ff4f6d" opacity="0.38"/><circle cx="334" cy="375" r="3" fill="#ff4f6d" opacity="0.39"/><circle cx="539" cy="300" r="3" fill="#ff4f6d" opacity="0.36000000000000004"/><circle cx="232" cy="211" r="3" fill="#ff4f6d" opacity="0.37"/><circle cx="437" cy="137" r="3" fill="#ff4f6d" opacity="0.34"/>
  <path d="M380 74h116v28l-38 76v84c0 48-39 86-86 86h-8c-47 0-86-38-86-86v-84l-38-76V74h116z" fill="#12b7a6" stroke="#15191d" stroke-width="8"/><path d="M290 230h132v38c0 31-25 56-56 56h-20c-31 0-56-25-56-56z" fill="#ff4f6d" opacity=".85"/><circle cx="386" cy="250" r="12" fill="#fff"/><circle cx="326" cy="280" r="18" fill="#fff"/><path d="M528 118l68 118 68-118" fill="none" stroke="#fffaf4" stroke-width="15" stroke-linejoin="round"/>
</svg>
