<svg xmlns="http://www.w3.org/2000/svg" viewBox="0 0 800 420" role="img" aria-label="Ilustracion propia de estadio y futbol generico para esta pregunta">
  <defs>
    <linearGradient id="bg" x1="0" x2="1" y1="0" y2="1">
      <stop stop-color="#eaf8f5"/>
      <stop offset="1" stop-color="#15191d" stop-opacity="0.22"/>
    </linearGradient>
  </defs>
  <rect width="800" height="420" fill="url(#bg)"/>
  <circle cx="112" cy="315" r="71" fill="#26b99f" opacity="0.13"/>
  <circle cx="548" cy="93" r="94" fill="#f6bc42" opacity="0.16"/>
  <circle cx="467" cy="218" r="3" fill="#15191d" opacity="0.51"/><circle cx="160" cy="129" r="3" fill="#15191d" opacity="0.52"/><circle cx="569" cy="39" r="3" fill="#15191d" opacity="0.53"/><circle cx="262" cy="292" r="3" fill="#15191d" opacity="0.54"/><circle cx="671" cy="203" r="3" fill="#15191d" opacity="0.55"/><circle cx="364" cy="114" r="3" fill="#15191d" opacity="0.56"/><circle cx="57" cy="367" r="3" fill="#15191d" opacity="0.5700000000000001"/><circle cx="466" cy="278" r="3" fill="#15191d" opacity="0.5800000000000001"/><circle cx="59" cy="247" r="3" fill="#15191d" opacity="0.43000000000000005"/>
  <rect x="118" y="78" width="564" height="264" rx="26" fill="#f6bc42"/><path d="M400 78v264M118 210h564" stroke="#fff" stroke-width="7" opacity=".76"/><circle cx="400" cy="210" r="58" fill="none" stroke="#fff" stroke-width="7" opacity=".76"/><circle cx="258" cy="182" r="32" fill="#fff"/><path d="M226 182h64M258 150v64" stroke="#26b99f" stroke-width="5" opacity=".5"/>
</svg>
