<svg xmlns="http://www.w3.org/2000/svg" viewBox="0 0 800 420" role="img" aria-label="Ilustracion propia de mapa y geografia para esta pregunta">
  <defs>
    <linearGradient id="bg" x1="0" x2="1" y1="0" y2="1">
      <stop stop-color="#eaf9f6"/>
      <stop offset="1" stop-color="#ff4f6d" stop-opacity="0.22"/>
    </linearGradient>
  </defs>
  <rect width="800" height="420" fill="url(#bg)"/>
  <circle cx="675" cy="310" r="135" fill="#fffaf4" opacity="0.13"/>
  <circle cx="393" cy="128" r="92" fill="#12b7a6" opacity="0.16"/>
  <circle cx="317" cy="261" r="2" fill="#ff4f6d" opacity="0.49"/><circle cx="726" cy="171" r="2" fill="#ff4f6d" opacity="0.5"/><circle cx="215" cy="97" r="2" fill="#ff4f6d" opacity="0.47000000000000003"/><circle cx="624" cy="350" r="2" fill="#ff4f6d" opacity="0.48000000000000004"/><circle cx="113" cy="275" r="2" fill="#ff4f6d" opacity="0.45000000000000007"/><circle cx="522" cy="186" r="2" fill="#ff4f6d" opacity="0.46"/><circle cx="727" cy="111" r="2" fill="#ff4f6d" opacity="0.43000000000000005"/><circle cx="420" cy="364" r="2" fill="#ff4f6d" opacity="0.44000000000000006"/><circle cx="625" cy="290" r="2" fill="#ff4f6d" opacity="0.41000000000000003"/>
  <path d="M100 84l170-42 160 50 170-42 100 42v244l-170 42-160-50-170 42-100-42z" fill="#12b7a6" stroke="#15191d" stroke-width="5" opacity=".94"/><path d="M270 42v286M430 92v286M600 50v286" stroke="#15191d" stroke-width="4" opacity=".16"/><path d="M126 200c80 22 106-36 176-8 72 28 94 88 182 48 86-40 128-8 184 44" fill="none" stroke="#ff4f6d" stroke-width="14" stroke-linecap="round"/><path d="M560 168c0 36-38 70-38 70s-38-34-38-70a38 38 0 0176 0z" fill="#fffaf4"/>
</svg>
