<svg xmlns="http://www.w3.org/2000/svg" viewBox="0 0 800 420" role="img" aria-label="Ilustracion propia de oceano y olas para esta pregunta">
  <defs>
    <linearGradient id="bg" x1="0" x2="1" y1="0" y2="1">
      <stop stop-color="#dff8ff"/>
      <stop offset="1" stop-color="#fffaf4" stop-opacity="0.22"/>
    </linearGradient>
  </defs>
  <rect width="800" height="420" fill="url(#bg)"/>
  <circle cx="441" cy="302" r="135" fill="#12b7a6" opacity="0.13"/>
  <circle cx="289" cy="199" r="92" fill="#315be8" opacity="0.16"/>
  <circle cx="434" cy="374" r="2" fill="#fffaf4" opacity="0.34"/><circle cx="741" cy="121" r="2" fill="#fffaf4" opacity="0.33"/><circle cx="332" cy="211" r="2" fill="#fffaf4" opacity="0.32"/><circle cx="639" cy="300" r="2" fill="#fffaf4" opacity="0.31000000000000005"/><circle cx="230" cy="47" r="2" fill="#fffaf4" opacity="0.30000000000000004"/><circle cx="537" cy="136" r="2" fill="#fffaf4" opacity="0.29000000000000004"/><circle cx="128" cy="225" r="2" fill="#fffaf4" opacity="0.28"/><circle cx="435" cy="314" r="3" fill="#fffaf4" opacity="0.72"/><circle cx="126" cy="345" r="2" fill="#fffaf4" opacity="0.42000000000000004"/>
  <path d="M0 240c88-42 144 42 232 0s144 42 232 0 144 42 232 0 144 42 232 0v180H0z" fill="#fff" opacity=".34"/><path d="M0 286c88-42 144 42 232 0s144 42 232 0 144 42 232 0 144 42 232 0" fill="none" stroke="#fff" stroke-width="18" opacity=".62"/><path d="M142 174c82-44 170-44 252 0" fill="none" stroke="#fff" stroke-width="10" opacity=".45" stroke-linecap="round"/>
</svg>
