<svg xmlns="http://www.w3.org/2000/svg" viewBox="0 0 800 420" role="img" aria-label="Ilustracion propia de estadio y futbol generico para esta pregunta">
  <defs>
    <linearGradient id="bg" x1="0" x2="1" y1="0" y2="1">
      <stop stop-color="#eaf8f5"/>
      <stop offset="1" stop-color="#15191d" stop-opacity="0.22"/>
    </linearGradient>
  </defs>
  <rect width="800" height="420" fill="url(#bg)"/>
  <circle cx="260" cy="188" r="117" fill="#26b99f" opacity="0.13"/>
  <circle cx="416" cy="185" r="110" fill="#f6bc42" opacity="0.16"/>
  <circle cx="676" cy="141" r="2" fill="#15191d" opacity="0.6100000000000001"/><circle cx="267" cy="230" r="2" fill="#15191d" opacity="0.6000000000000001"/><circle cx="62" cy="305" r="2" fill="#15191d" opacity="0.63"/><circle cx="369" cy="52" r="2" fill="#15191d" opacity="0.6200000000000001"/><circle cx="472" cy="156" r="2" fill="#15191d" opacity="0.5700000000000001"/><circle cx="63" cy="245" r="2" fill="#15191d" opacity="0.56"/><circle cx="574" cy="320" r="2" fill="#15191d" opacity="0.5900000000000001"/><circle cx="165" cy="67" r="2" fill="#15191d" opacity="0.5800000000000001"/><circle cx="268" cy="170" r="2" fill="#15191d" opacity="0.53"/>
  <rect x="118" y="78" width="564" height="264" rx="26" fill="#f6bc42"/><path d="M400 78v264M118 210h564" stroke="#fff" stroke-width="7" opacity=".76"/><circle cx="400" cy="210" r="58" fill="none" stroke="#fff" stroke-width="7" opacity=".76"/><circle cx="372" cy="236" r="32" fill="#fff"/><path d="M340 236h64M372 204v64" stroke="#26b99f" stroke-width="5" opacity=".5"/>
</svg>
