<svg xmlns="http://www.w3.org/2000/svg" viewBox="0 0 800 420" role="img" aria-label="Ilustracion propia de oceano y olas para esta pregunta">
  <defs>
    <linearGradient id="bg" x1="0" x2="1" y1="0" y2="1">
      <stop stop-color="#dff8ff"/>
      <stop offset="1" stop-color="#fffaf4" stop-opacity="0.22"/>
    </linearGradient>
  </defs>
  <rect width="800" height="420" fill="url(#bg)"/>
  <circle cx="650" cy="224" r="65" fill="#12b7a6" opacity="0.13"/>
  <circle cx="465" cy="332" r="124" fill="#315be8" opacity="0.16"/>
  <circle cx="183" cy="184" r="2" fill="#fffaf4" opacity="0.4"/><circle cx="592" cy="95" r="2" fill="#fffaf4" opacity="0.41000000000000003"/><circle cx="285" cy="348" r="2" fill="#fffaf4" opacity="0.42000000000000004"/><circle cx="694" cy="259" r="2" fill="#fffaf4" opacity="0.43000000000000005"/><circle cx="695" cy="199" r="2" fill="#fffaf4" opacity="0.36000000000000004"/><circle cx="388" cy="110" r="2" fill="#fffaf4" opacity="0.37"/><circle cx="81" cy="363" r="2" fill="#fffaf4" opacity="0.38"/><circle cx="490" cy="274" r="2" fill="#fffaf4" opacity="0.39"/><circle cx="491" cy="214" r="3" fill="#fffaf4" opacity="0.32"/>
  <path d="M0 240c88-42 144 42 232 0s144 42 232 0 144 42 232 0 144 42 232 0v180H0z" fill="#fff" opacity=".34"/><path d="M0 326c88-42 144 42 232 0s144 42 232 0 144 42 232 0 144 42 232 0" fill="none" stroke="#fff" stroke-width="18" opacity=".62"/><path d="M142 174c82-44 170-44 252 0" fill="none" stroke="#fff" stroke-width="10" opacity=".45" stroke-linecap="round"/>
</svg>
