<svg xmlns="http://www.w3.org/2000/svg" viewBox="0 0 800 420" role="img" aria-label="Ilustracion propia de oceano y olas para esta pregunta">
  <defs>
    <linearGradient id="bg" x1="0" x2="1" y1="0" y2="1">
      <stop stop-color="#dff8ff"/>
      <stop offset="1" stop-color="#12b7a6" stop-opacity="0.22"/>
    </linearGradient>
  </defs>
  <rect width="800" height="420" fill="url(#bg)"/>
  <circle cx="511" cy="261" r="136" fill="#12b7a6" opacity="0.13"/>
  <circle cx="597" cy="229" r="123" fill="#315be8" opacity="0.16"/>
  <circle cx="217" cy="76" r="5" fill="#fffaf4" opacity="0.33"/><circle cx="626" cy="329" r="5" fill="#fffaf4" opacity="0.34"/><circle cx="115" cy="254" r="5" fill="#fffaf4" opacity="0.31000000000000005"/><circle cx="524" cy="165" r="5" fill="#fffaf4" opacity="0.32"/><circle cx="729" cy="90" r="5" fill="#fffaf4" opacity="0.29000000000000004"/><circle cx="422" cy="343" r="5" fill="#fffaf4" opacity="0.30000000000000004"/><circle cx="627" cy="269" r="5" fill="#fffaf4" opacity="0.72"/><circle cx="320" cy="180" r="5" fill="#fffaf4" opacity="0.28"/><circle cx="525" cy="105" r="5" fill="#fffaf4" opacity="0.7"/>
  <path d="M0 240c88-42 144 42 232 0s144 42 232 0 144 42 232 0 144 42 232 0v180H0z" fill="#fff" opacity=".34"/><path d="M0 286c88-42 144 42 232 0s144 42 232 0 144 42 232 0 144 42 232 0" fill="none" stroke="#fff" stroke-width="18" opacity=".62"/><path d="M142 174c82-44 170-44 252 0" fill="none" stroke="#fff" stroke-width="10" opacity=".45" stroke-linecap="round"/>
</svg>
