<svg xmlns="http://www.w3.org/2000/svg" viewBox="0 0 800 420" role="img" aria-label="Ilustracion propia de oceano y olas para esta pregunta">
  <defs>
    <linearGradient id="bg" x1="0" x2="1" y1="0" y2="1">
      <stop stop-color="#dff8ff"/>
      <stop offset="1" stop-color="#315be8" stop-opacity="0.22"/>
    </linearGradient>
  </defs>
  <rect width="800" height="420" fill="url(#bg)"/>
  <circle cx="413" cy="72" r="71" fill="#12b7a6" opacity="0.13"/>
  <circle cx="210" cy="170" r="104" fill="#315be8" opacity="0.16"/>
  <circle cx="171" cy="216" r="4" fill="#fffaf4" opacity="0.5900000000000001"/><circle cx="580" cy="126" r="4" fill="#fffaf4" opacity="0.6000000000000001"/><circle cx="273" cy="37" r="4" fill="#fffaf4" opacity="0.6100000000000001"/><circle cx="682" cy="290" r="4" fill="#fffaf4" opacity="0.6200000000000001"/><circle cx="375" cy="201" r="4" fill="#fffaf4" opacity="0.63"/><circle cx="68" cy="112" r="4" fill="#fffaf4" opacity="0.64"/><circle cx="477" cy="365" r="4" fill="#fffaf4" opacity="0.65"/><circle cx="170" cy="276" r="4" fill="#fffaf4" opacity="0.66"/><circle cx="579" cy="186" r="4" fill="#fffaf4" opacity="0.67"/>
  <path d="M0 240c88-42 144 42 232 0s144 42 232 0 144 42 232 0 144 42 232 0v180H0z" fill="#fff" opacity=".34"/><path d="M0 306c88-42 144 42 232 0s144 42 232 0 144 42 232 0 144 42 232 0" fill="none" stroke="#fff" stroke-width="18" opacity=".62"/><path d="M142 174c82-44 170-44 252 0" fill="none" stroke="#fff" stroke-width="10" opacity=".45" stroke-linecap="round"/>
</svg>
