<svg xmlns="http://www.w3.org/2000/svg" viewBox="0 0 800 420" role="img" aria-label="Ilustracion propia de oceano y olas para esta pregunta">
  <defs>
    <linearGradient id="bg" x1="0" x2="1" y1="0" y2="1">
      <stop stop-color="#dff8ff"/>
      <stop offset="1" stop-color="#315be8" stop-opacity="0.22"/>
    </linearGradient>
  </defs>
  <rect width="800" height="420" fill="url(#bg)"/>
  <circle cx="586" cy="93" r="113" fill="#12b7a6" opacity="0.13"/>
  <circle cx="532" cy="316" r="140" fill="#315be8" opacity="0.16"/>
  <circle cx="636" cy="136" r="5" fill="#fffaf4" opacity="0.63"/><circle cx="227" cy="225" r="5" fill="#fffaf4" opacity="0.6200000000000001"/><circle cx="738" cy="300" r="5" fill="#fffaf4" opacity="0.65"/><circle cx="329" cy="47" r="5" fill="#fffaf4" opacity="0.64"/><circle cx="124" cy="121" r="5" fill="#fffaf4" opacity="0.67"/><circle cx="431" cy="210" r="5" fill="#fffaf4" opacity="0.66"/><circle cx="226" cy="285" r="4" fill="#fffaf4" opacity="0.69"/><circle cx="533" cy="374" r="4" fill="#fffaf4" opacity="0.68"/><circle cx="328" cy="107" r="4" fill="#fffaf4" opacity="0.71"/>
  <path d="M0 240c88-42 144 42 232 0s144 42 232 0 144 42 232 0 144 42 232 0v180H0z" fill="#fff" opacity=".34"/><path d="M0 286c88-42 144 42 232 0s144 42 232 0 144 42 232 0 144 42 232 0" fill="none" stroke="#fff" stroke-width="18" opacity=".62"/><path d="M142 174c82-44 170-44 252 0" fill="none" stroke="#fff" stroke-width="10" opacity=".45" stroke-linecap="round"/>
</svg>
