<svg xmlns="http://www.w3.org/2000/svg" viewBox="0 0 800 420" role="img" aria-label="Ilustracion propia de arte y museo para esta pregunta">
  <defs>
    <linearGradient id="bg" x1="0" x2="1" y1="0" y2="1">
      <stop stop-color="#fff2df"/>
      <stop offset="1" stop-color="#ff4f6d" stop-opacity="0.22"/>
    </linearGradient>
  </defs>
  <rect width="800" height="420" fill="url(#bg)"/>
  <circle cx="234" cy="182" r="65" fill="#6f4a2d" opacity="0.13"/>
  <circle cx="488" cy="327" r="84" fill="#12b7a6" opacity="0.16"/>
  <circle cx="209" cy="308" r="5" fill="#ff4f6d" opacity="0.30000000000000004"/><circle cx="618" cy="219" r="5" fill="#ff4f6d" opacity="0.31000000000000005"/><circle cx="107" cy="144" r="5" fill="#ff4f6d" opacity="0.28"/><circle cx="516" cy="55" r="5" fill="#ff4f6d" opacity="0.29000000000000004"/><circle cx="721" cy="322" r="5" fill="#ff4f6d" opacity="0.71"/><circle cx="414" cy="233" r="5" fill="#ff4f6d" opacity="0.72"/><circle cx="619" cy="159" r="5" fill="#ff4f6d" opacity="0.69"/><circle cx="312" cy="70" r="5" fill="#ff4f6d" opacity="0.7"/><circle cx="617" cy="279" r="5" fill="#ff4f6d" opacity="0.38"/>
  <rect x="282" y="54" width="304" height="312" rx="24" fill="#6f4a2d"/><rect x="312" y="84" width="244" height="252" rx="16" fill="#d9c092"/><circle cx="434" cy="178" r="54" fill="#f0c7a5"/><path d="M364 318c12-82 42-120 70-120s58 38 70 120z" fill="#ff4f6d"/><path d="M378 154c36-72 116-46 122 10-36-18-74-18-122-10z" fill="#4a2d22"/>
</svg>
