<svg xmlns="http://www.w3.org/2000/svg" viewBox="0 0 800 420" role="img" aria-label="Ilustracion propia de videojuegos para esta pregunta">
  <defs>
    <linearGradient id="bg" x1="0" x2="1" y1="0" y2="1">
      <stop stop-color="#f4efff"/>
      <stop offset="1" stop-color="#9b5cff" stop-opacity="0.22"/>
    </linearGradient>
  </defs>
  <rect width="800" height="420" fill="url(#bg)"/>
  <circle cx="306" cy="278" r="141" fill="#15191d" opacity="0.13"/>
  <circle cx="497" cy="124" r="83" fill="#9b5cff" opacity="0.16"/>
  <circle cx="483" cy="84" r="4" fill="#12b7a6" opacity="0.7"/><circle cx="176" cy="336" r="4" fill="#12b7a6" opacity="0.71"/><circle cx="585" cy="247" r="4" fill="#12b7a6" opacity="0.72"/><circle cx="278" cy="158" r="4" fill="#12b7a6" opacity="0.28"/><circle cx="279" cy="98" r="4" fill="#12b7a6" opacity="0.66"/><circle cx="688" cy="351" r="4" fill="#12b7a6" opacity="0.67"/><circle cx="381" cy="262" r="4" fill="#12b7a6" opacity="0.68"/><circle cx="74" cy="173" r="4" fill="#12b7a6" opacity="0.69"/><circle cx="75" cy="113" r="4" fill="#12b7a6" opacity="0.6200000000000001"/>
  <path d="M226 160c40-54 310-54 348 0l58 104c24 44-12 86-58 64l-74-36H300l-74 36c-46 22-82-20-58-64z" fill="#15191d"/><path d="M284 232h82M325 191v82" stroke="#fff" stroke-width="20" stroke-linecap="round"/><circle cx="494" cy="218" r="20" fill="#12b7a6"/><circle cx="548" cy="252" r="20" fill="#fffaf4"/><circle cx="456" cy="252" r="20" fill="#12b7a6"/>
</svg>
