<svg xmlns="http://www.w3.org/2000/svg" viewBox="0 0 800 420" role="img" aria-label="Ilustracion propia de oceano y olas para esta pregunta">
  <defs>
    <linearGradient id="bg" x1="0" x2="1" y1="0" y2="1">
      <stop stop-color="#dff8ff"/>
      <stop offset="1" stop-color="#dff8ff" stop-opacity="0.22"/>
    </linearGradient>
  </defs>
  <rect width="800" height="420" fill="url(#bg)"/>
  <circle cx="492" cy="188" r="126" fill="#12b7a6" opacity="0.13"/>
  <circle cx="520" cy="292" r="121" fill="#315be8" opacity="0.16"/>
  <circle cx="549" cy="125" r="3" fill="#fffaf4" opacity="0.54"/><circle cx="242" cy="36" r="2" fill="#fffaf4" opacity="0.55"/><circle cx="447" cy="304" r="3" fill="#fffaf4" opacity="0.52"/><circle cx="140" cy="215" r="3" fill="#fffaf4" opacity="0.53"/><circle cx="753" cy="111" r="2" fill="#fffaf4" opacity="0.5800000000000001"/><circle cx="446" cy="364" r="2" fill="#fffaf4" opacity="0.5900000000000001"/><circle cx="651" cy="289" r="2" fill="#fffaf4" opacity="0.56"/><circle cx="344" cy="200" r="2" fill="#fffaf4" opacity="0.5700000000000001"/><circle cx="141" cy="155" r="3" fill="#fffaf4" opacity="0.46"/>
  <path d="M0 240c88-42 144 42 232 0s144 42 232 0 144 42 232 0 144 42 232 0v180H0z" fill="#fff" opacity=".34"/><path d="M0 296c88-42 144 42 232 0s144 42 232 0 144 42 232 0 144 42 232 0" fill="none" stroke="#fff" stroke-width="18" opacity=".62"/><path d="M142 174c82-44 170-44 252 0" fill="none" stroke="#fff" stroke-width="10" opacity=".45" stroke-linecap="round"/>
</svg>
