<svg xmlns="http://www.w3.org/2000/svg" viewBox="0 0 800 420" role="img" aria-label="Ilustracion propia de videojuegos para esta pregunta">
  <defs>
    <linearGradient id="bg" x1="0" x2="1" y1="0" y2="1">
      <stop stop-color="#f4efff"/>
      <stop offset="1" stop-color="#f4efff" stop-opacity="0.22"/>
    </linearGradient>
  </defs>
  <rect width="800" height="420" fill="url(#bg)"/>
  <circle cx="236" cy="274" r="70" fill="#15191d" opacity="0.13"/>
  <circle cx="113" cy="231" r="114" fill="#9b5cff" opacity="0.16"/>
  <circle cx="153" cy="122" r="4" fill="#12b7a6" opacity="0.5800000000000001"/><circle cx="562" cy="375" r="4" fill="#12b7a6" opacity="0.5900000000000001"/><circle cx="51" cy="300" r="4" fill="#12b7a6" opacity="0.56"/><circle cx="460" cy="211" r="4" fill="#12b7a6" opacity="0.5700000000000001"/><circle cx="665" cy="137" r="4" fill="#12b7a6" opacity="0.54"/><circle cx="358" cy="48" r="4" fill="#12b7a6" opacity="0.55"/><circle cx="563" cy="315" r="4" fill="#12b7a6" opacity="0.52"/><circle cx="256" cy="226" r="4" fill="#12b7a6" opacity="0.53"/><circle cx="461" cy="151" r="4" fill="#12b7a6" opacity="0.5"/>
  <path d="M226 160c40-54 310-54 348 0l58 104c24 44-12 86-58 64l-74-36H300l-74 36c-46 22-82-20-58-64z" fill="#15191d"/><path d="M284 232h82M325 191v82" stroke="#fff" stroke-width="20" stroke-linecap="round"/><circle cx="494" cy="218" r="20" fill="#12b7a6"/><circle cx="548" cy="252" r="20" fill="#fffaf4"/><circle cx="456" cy="252" r="20" fill="#12b7a6"/>
</svg>
