<svg xmlns="http://www.w3.org/2000/svg" viewBox="0 0 800 420" role="img" aria-label="Ilustracion propia de oceano y olas para esta pregunta">
  <defs>
    <linearGradient id="bg" x1="0" x2="1" y1="0" y2="1">
      <stop stop-color="#dff8ff"/>
      <stop offset="1" stop-color="#dff8ff" stop-opacity="0.22"/>
    </linearGradient>
  </defs>
  <rect width="800" height="420" fill="url(#bg)"/>
  <circle cx="316" cy="167" r="118" fill="#12b7a6" opacity="0.13"/>
  <circle cx="573" cy="218" r="70" fill="#315be8" opacity="0.16"/>
  <circle cx="300" cy="90" r="4" fill="#fffaf4" opacity="0.56"/><circle cx="607" cy="179" r="4" fill="#fffaf4" opacity="0.55"/><circle cx="402" cy="254" r="4" fill="#fffaf4" opacity="0.5800000000000001"/><circle cx="709" cy="343" r="4" fill="#fffaf4" opacity="0.5700000000000001"/><circle cx="504" cy="76" r="4" fill="#fffaf4" opacity="0.6000000000000001"/><circle cx="95" cy="165" r="4" fill="#fffaf4" opacity="0.5900000000000001"/><circle cx="374" cy="367" r="4" fill="#fffaf4" opacity="0.48000000000000004"/><circle cx="681" cy="114" r="4" fill="#fffaf4" opacity="0.47000000000000003"/><circle cx="608" cy="119" r="4" fill="#fffaf4" opacity="0.48000000000000004"/>
  <path d="M0 240c88-42 144 42 232 0s144 42 232 0 144 42 232 0 144 42 232 0v180H0z" fill="#fff" opacity=".34"/><path d="M0 286c88-42 144 42 232 0s144 42 232 0 144 42 232 0 144 42 232 0" fill="none" stroke="#fff" stroke-width="18" opacity=".62"/><path d="M142 174c82-44 170-44 252 0" fill="none" stroke="#fff" stroke-width="10" opacity=".45" stroke-linecap="round"/>
</svg>
