<svg xmlns="http://www.w3.org/2000/svg" viewBox="0 0 800 420" role="img" aria-label="Ilustracion propia de videojuegos para esta pregunta">
  <defs>
    <linearGradient id="bg" x1="0" x2="1" y1="0" y2="1">
      <stop stop-color="#f4efff"/>
      <stop offset="1" stop-color="#9b5cff" stop-opacity="0.22"/>
    </linearGradient>
  </defs>
  <rect width="800" height="420" fill="url(#bg)"/>
  <circle cx="258" cy="195" r="129" fill="#15191d" opacity="0.13"/>
  <circle cx="191" cy="221" r="142" fill="#9b5cff" opacity="0.16"/>
  <circle cx="739" cy="250" r="5" fill="#12b7a6" opacity="0.68"/><circle cx="432" cy="161" r="5" fill="#12b7a6" opacity="0.69"/><circle cx="125" cy="72" r="4" fill="#12b7a6" opacity="0.7"/><circle cx="534" cy="324" r="4" fill="#12b7a6" opacity="0.71"/><circle cx="227" cy="235" r="4" fill="#12b7a6" opacity="0.72"/><circle cx="636" cy="146" r="4" fill="#12b7a6" opacity="0.28"/><circle cx="329" cy="57" r="4" fill="#12b7a6" opacity="0.29000000000000004"/><circle cx="738" cy="310" r="4" fill="#12b7a6" opacity="0.30000000000000004"/><circle cx="331" cy="279" r="5" fill="#12b7a6" opacity="0.6000000000000001"/>
  <path d="M226 160c40-54 310-54 348 0l58 104c24 44-12 86-58 64l-74-36H300l-74 36c-46 22-82-20-58-64z" fill="#15191d"/><path d="M284 232h82M325 191v82" stroke="#fff" stroke-width="20" stroke-linecap="round"/><circle cx="518" cy="218" r="20" fill="#12b7a6"/><circle cx="568" cy="252" r="20" fill="#fffaf4"/><circle cx="456" cy="252" r="20" fill="#12b7a6"/>
</svg>
