<svg xmlns="http://www.w3.org/2000/svg" viewBox="0 0 800 420" role="img" aria-label="Ilustracion propia de oceano y olas para esta pregunta">
  <defs>
    <linearGradient id="bg" x1="0" x2="1" y1="0" y2="1">
      <stop stop-color="#dff8ff"/>
      <stop offset="1" stop-color="#fffaf4" stop-opacity="0.22"/>
    </linearGradient>
  </defs>
  <rect width="800" height="420" fill="url(#bg)"/>
  <circle cx="353" cy="269" r="117" fill="#12b7a6" opacity="0.13"/>
  <circle cx="653" cy="230" r="100" fill="#315be8" opacity="0.16"/>
  <circle cx="560" cy="197" r="2" fill="#fffaf4" opacity="0.47000000000000003"/><circle cx="151" cy="286" r="2" fill="#fffaf4" opacity="0.46"/><circle cx="662" cy="361" r="2" fill="#fffaf4" opacity="0.49"/><circle cx="253" cy="108" r="2" fill="#fffaf4" opacity="0.48000000000000004"/><circle cx="48" cy="182" r="2" fill="#fffaf4" opacity="0.51"/><circle cx="355" cy="272" r="2" fill="#fffaf4" opacity="0.5"/><circle cx="150" cy="346" r="2" fill="#fffaf4" opacity="0.53"/><circle cx="457" cy="93" r="2" fill="#fffaf4" opacity="0.52"/><circle cx="152" cy="226" r="2" fill="#fffaf4" opacity="0.39"/>
  <path d="M0 240c88-42 144 42 232 0s144 42 232 0 144 42 232 0 144 42 232 0v180H0z" fill="#fff" opacity=".34"/><path d="M0 306c88-42 144 42 232 0s144 42 232 0 144 42 232 0 144 42 232 0" fill="none" stroke="#fff" stroke-width="18" opacity=".62"/><path d="M142 174c82-44 170-44 252 0" fill="none" stroke="#fff" stroke-width="10" opacity=".45" stroke-linecap="round"/>
</svg>
