<svg xmlns="http://www.w3.org/2000/svg" viewBox="0 0 800 420" role="img" aria-label="Ilustracion propia de oceano y olas para esta pregunta">
  <defs>
    <linearGradient id="bg" x1="0" x2="1" y1="0" y2="1">
      <stop stop-color="#dff8ff"/>
      <stop offset="1" stop-color="#dff8ff" stop-opacity="0.22"/>
    </linearGradient>
  </defs>
  <rect width="800" height="420" fill="url(#bg)"/>
  <circle cx="638" cy="154" r="132" fill="#12b7a6" opacity="0.13"/>
  <circle cx="538" cy="323" r="102" fill="#315be8" opacity="0.16"/>
  <circle cx="341" cy="309" r="2" fill="#fffaf4" opacity="0.46"/><circle cx="750" cy="220" r="2" fill="#fffaf4" opacity="0.47000000000000003"/><circle cx="239" cy="146" r="2" fill="#fffaf4" opacity="0.44000000000000006"/><circle cx="648" cy="57" r="2" fill="#fffaf4" opacity="0.45000000000000007"/><circle cx="545" cy="295" r="2" fill="#fffaf4" opacity="0.5"/><circle cx="238" cy="206" r="2" fill="#fffaf4" opacity="0.51"/><circle cx="443" cy="131" r="2" fill="#fffaf4" opacity="0.48000000000000004"/><circle cx="136" cy="42" r="2" fill="#fffaf4" opacity="0.49"/><circle cx="649" cy="339" r="2" fill="#fffaf4" opacity="0.38"/>
  <path d="M0 240c88-42 144 42 232 0s144 42 232 0 144 42 232 0 144 42 232 0v180H0z" fill="#fff" opacity=".34"/><path d="M0 306c88-42 144 42 232 0s144 42 232 0 144 42 232 0 144 42 232 0" fill="none" stroke="#fff" stroke-width="18" opacity=".62"/><path d="M142 174c82-44 170-44 252 0" fill="none" stroke="#fff" stroke-width="10" opacity=".45" stroke-linecap="round"/>
</svg>
