<svg xmlns="http://www.w3.org/2000/svg" viewBox="0 0 800 420" role="img" aria-label="Ilustracion propia de videojuegos para esta pregunta">
  <defs>
    <linearGradient id="bg" x1="0" x2="1" y1="0" y2="1">
      <stop stop-color="#f4efff"/>
      <stop offset="1" stop-color="#15191d" stop-opacity="0.22"/>
    </linearGradient>
  </defs>
  <rect width="800" height="420" fill="url(#bg)"/>
  <circle cx="336" cy="114" r="68" fill="#15191d" opacity="0.13"/>
  <circle cx="651" cy="175" r="134" fill="#9b5cff" opacity="0.16"/>
  <circle cx="433" cy="280" r="3" fill="#12b7a6" opacity="0.39"/><circle cx="126" cy="191" r="3" fill="#12b7a6" opacity="0.4"/><circle cx="331" cy="116" r="3" fill="#12b7a6" opacity="0.37"/><circle cx="740" cy="369" r="3" fill="#12b7a6" opacity="0.38"/><circle cx="637" cy="265" r="3" fill="#12b7a6" opacity="0.43000000000000005"/><circle cx="330" cy="176" r="3" fill="#12b7a6" opacity="0.44000000000000006"/><circle cx="535" cy="102" r="3" fill="#12b7a6" opacity="0.41000000000000003"/><circle cx="228" cy="355" r="3" fill="#12b7a6" opacity="0.42000000000000004"/><circle cx="741" cy="309" r="4" fill="#12b7a6" opacity="0.31000000000000005"/>
  <path d="M226 160c40-54 310-54 348 0l58 104c24 44-12 86-58 64l-74-36H300l-74 36c-46 22-82-20-58-64z" fill="#15191d"/><path d="M284 232h82M325 191v82" stroke="#fff" stroke-width="20" stroke-linecap="round"/><circle cx="494" cy="218" r="20" fill="#12b7a6"/><circle cx="548" cy="252" r="20" fill="#fffaf4"/><circle cx="456" cy="252" r="20" fill="#12b7a6"/>
</svg>
