<svg xmlns="http://www.w3.org/2000/svg" viewBox="0 0 800 420" role="img" aria-label="Ilustracion propia de historia y archivo para esta pregunta">
  <defs>
    <linearGradient id="bg" x1="0" x2="1" y1="0" y2="1">
      <stop stop-color="#fff4e4"/>
      <stop offset="1" stop-color="#f6bc42" stop-opacity="0.22"/>
    </linearGradient>
  </defs>
  <rect width="800" height="420" fill="url(#bg)"/>
  <circle cx="474" cy="141" r="115" fill="#15191d" opacity="0.13"/>
  <circle cx="143" cy="107" r="120" fill="#d9cec1" opacity="0.16"/>
  <circle cx="587" cy="42" r="4" fill="#f6bc42" opacity="0.71"/><circle cx="280" cy="295" r="4" fill="#f6bc42" opacity="0.72"/><circle cx="689" cy="206" r="4" fill="#f6bc42" opacity="0.28"/><circle cx="382" cy="117" r="4" fill="#f6bc42" opacity="0.29000000000000004"/><circle cx="615" cy="271" r="4" fill="#f6bc42" opacity="0.36000000000000004"/><circle cx="308" cy="182" r="4" fill="#f6bc42" opacity="0.37"/><circle cx="717" cy="93" r="4" fill="#f6bc42" opacity="0.38"/><circle cx="410" cy="346" r="4" fill="#f6bc42" opacity="0.39"/><circle cx="411" cy="286" r="4" fill="#f6bc42" opacity="0.32"/>
  <rect x="184" y="130" width="220" height="210" rx="18" fill="#fffaf4" stroke="#f6bc42" stroke-width="5"/><rect x="218" y="172" width="152" height="12" rx="6" fill="#15191d" opacity=".2"/><rect x="218" y="212" width="120" height="12" rx="6" fill="#15191d" opacity=".2"/><path d="M470 170h210L575 94z" fill="#15191d"/><rect x="500" y="190" width="32" height="120" rx="6" fill="#15191d"/><rect x="560" y="190" width="32" height="120" rx="6" fill="#15191d"/><rect x="620" y="190" width="32" height="120" rx="6" fill="#15191d"/>
</svg>
