<svg xmlns="http://www.w3.org/2000/svg" viewBox="0 0 800 420" role="img" aria-label="Ilustracion propia de historia y archivo para esta pregunta">
  <defs>
    <linearGradient id="bg" x1="0" x2="1" y1="0" y2="1">
      <stop stop-color="#fff4e4"/>
      <stop offset="1" stop-color="#f6bc42" stop-opacity="0.22"/>
    </linearGradient>
  </defs>
  <rect width="800" height="420" fill="url(#bg)"/>
  <circle cx="606" cy="111" r="113" fill="#15191d" opacity="0.13"/>
  <circle cx="534" cy="282" r="110" fill="#d9cec1" opacity="0.16"/>
  <circle cx="71" cy="39" r="4" fill="#f6bc42" opacity="0.5"/><circle cx="480" cy="292" r="4" fill="#f6bc42" opacity="0.51"/><circle cx="173" cy="202" r="4" fill="#f6bc42" opacity="0.52"/><circle cx="582" cy="113" r="4" fill="#f6bc42" opacity="0.53"/><circle cx="583" cy="53" r="4" fill="#f6bc42" opacity="0.46"/><circle cx="276" cy="306" r="4" fill="#f6bc42" opacity="0.47000000000000003"/><circle cx="685" cy="217" r="4" fill="#f6bc42" opacity="0.48000000000000004"/><circle cx="378" cy="128" r="4" fill="#f6bc42" opacity="0.49"/><circle cx="379" cy="68" r="4" fill="#f6bc42" opacity="0.42000000000000004"/>
  <rect x="130" y="130" width="220" height="210" rx="18" fill="#fffaf4" stroke="#f6bc42" stroke-width="5"/><rect x="164" y="172" width="152" height="12" rx="6" fill="#15191d" opacity=".2"/><rect x="164" y="212" width="120" height="12" rx="6" fill="#15191d" opacity=".2"/><path d="M470 170h210L575 94z" fill="#15191d"/><rect x="500" y="190" width="32" height="120" rx="6" fill="#15191d"/><rect x="560" y="190" width="32" height="120" rx="6" fill="#15191d"/><rect x="620" y="190" width="32" height="120" rx="6" fill="#15191d"/>
</svg>
