<svg xmlns="http://www.w3.org/2000/svg" viewBox="0 0 800 420" role="img" aria-label="Ilustracion propia de historia y archivo para esta pregunta">
  <defs>
    <linearGradient id="bg" x1="0" x2="1" y1="0" y2="1">
      <stop stop-color="#fff4e4"/>
      <stop offset="1" stop-color="#fff4e4" stop-opacity="0.22"/>
    </linearGradient>
  </defs>
  <rect width="800" height="420" fill="url(#bg)"/>
  <circle cx="317" cy="323" r="102" fill="#15191d" opacity="0.13"/>
  <circle cx="198" cy="309" r="68" fill="#d9cec1" opacity="0.16"/>
  <circle cx="745" cy="240" r="2" fill="#f6bc42" opacity="0.56"/><circle cx="438" cy="150" r="2" fill="#f6bc42" opacity="0.5700000000000001"/><circle cx="643" cy="76" r="2" fill="#f6bc42" opacity="0.54"/><circle cx="336" cy="329" r="2" fill="#f6bc42" opacity="0.55"/><circle cx="233" cy="225" r="2" fill="#f6bc42" opacity="0.6000000000000001"/><circle cx="642" cy="136" r="2" fill="#f6bc42" opacity="0.6100000000000001"/><circle cx="131" cy="61" r="2" fill="#f6bc42" opacity="0.5800000000000001"/><circle cx="540" cy="314" r="2" fill="#f6bc42" opacity="0.5900000000000001"/><circle cx="437" cy="210" r="2" fill="#f6bc42" opacity="0.64"/>
  <rect x="148" y="130" width="220" height="210" rx="18" fill="#fffaf4" stroke="#f6bc42" stroke-width="5"/><rect x="182" y="172" width="152" height="12" rx="6" fill="#15191d" opacity=".2"/><rect x="182" y="212" width="120" height="12" rx="6" fill="#15191d" opacity=".2"/><path d="M470 170h210L575 94z" fill="#15191d"/><rect x="500" y="190" width="32" height="120" rx="6" fill="#15191d"/><rect x="560" y="190" width="32" height="120" rx="6" fill="#15191d"/><rect x="620" y="190" width="32" height="120" rx="6" fill="#15191d"/>
</svg>
