<svg xmlns="http://www.w3.org/2000/svg" viewBox="0 0 800 420" role="img" aria-label="Ilustracion propia de historia y archivo para esta pregunta">
  <defs>
    <linearGradient id="bg" x1="0" x2="1" y1="0" y2="1">
      <stop stop-color="#fff4e4"/>
      <stop offset="1" stop-color="#15191d" stop-opacity="0.22"/>
    </linearGradient>
  </defs>
  <rect width="800" height="420" fill="url(#bg)"/>
  <circle cx="138" cy="230" r="108" fill="#15191d" opacity="0.13"/>
  <circle cx="401" cy="297" r="79" fill="#d9cec1" opacity="0.16"/>
  <circle cx="237" cy="343" r="4" fill="#f6bc42" opacity="0.67"/><circle cx="646" cy="254" r="4" fill="#f6bc42" opacity="0.68"/><circle cx="135" cy="180" r="4" fill="#f6bc42" opacity="0.65"/><circle cx="544" cy="90" r="4" fill="#f6bc42" opacity="0.66"/><circle cx="749" cy="358" r="4" fill="#f6bc42" opacity="0.63"/><circle cx="442" cy="269" r="4" fill="#f6bc42" opacity="0.64"/><circle cx="647" cy="194" r="4" fill="#f6bc42" opacity="0.6100000000000001"/><circle cx="340" cy="105" r="4" fill="#f6bc42" opacity="0.6200000000000001"/><circle cx="645" cy="314" r="4" fill="#f6bc42" opacity="0.30000000000000004"/>
  <rect x="166" y="130" width="220" height="210" rx="18" fill="#fffaf4" stroke="#f6bc42" stroke-width="5"/><rect x="200" y="172" width="152" height="12" rx="6" fill="#15191d" opacity=".2"/><rect x="200" y="212" width="120" height="12" rx="6" fill="#15191d" opacity=".2"/><path d="M470 170h210L575 94z" fill="#15191d"/><rect x="500" y="190" width="32" height="120" rx="6" fill="#15191d"/><rect x="560" y="190" width="32" height="120" rx="6" fill="#15191d"/><rect x="620" y="190" width="32" height="120" rx="6" fill="#15191d"/>
</svg>
