<svg xmlns="http://www.w3.org/2000/svg" viewBox="0 0 800 420" role="img" aria-label="Ilustracion propia de oceano y olas para esta pregunta">
  <defs>
    <linearGradient id="bg" x1="0" x2="1" y1="0" y2="1">
      <stop stop-color="#dff8ff"/>
      <stop offset="1" stop-color="#dff8ff" stop-opacity="0.22"/>
    </linearGradient>
  </defs>
  <rect width="800" height="420" fill="url(#bg)"/>
  <circle cx="352" cy="125" r="114" fill="#12b7a6" opacity="0.13"/>
  <circle cx="503" cy="141" r="100" fill="#315be8" opacity="0.16"/>
  <circle cx="52" cy="314" r="3" fill="#fffaf4" opacity="0.5"/><circle cx="359" cy="61" r="3" fill="#fffaf4" opacity="0.49"/><circle cx="154" cy="136" r="3" fill="#fffaf4" opacity="0.52"/><circle cx="461" cy="225" r="3" fill="#fffaf4" opacity="0.51"/><circle cx="564" cy="329" r="3" fill="#fffaf4" opacity="0.46"/><circle cx="155" cy="76" r="3" fill="#fffaf4" opacity="0.45000000000000007"/><circle cx="666" cy="150" r="3" fill="#fffaf4" opacity="0.48000000000000004"/><circle cx="257" cy="240" r="3" fill="#fffaf4" opacity="0.47000000000000003"/><circle cx="460" cy="285" r="3" fill="#fffaf4" opacity="0.5800000000000001"/>
  <path d="M0 240c88-42 144 42 232 0s144 42 232 0 144 42 232 0 144 42 232 0v180H0z" fill="#fff" opacity=".34"/><path d="M0 296c88-42 144 42 232 0s144 42 232 0 144 42 232 0 144 42 232 0" fill="none" stroke="#fff" stroke-width="18" opacity=".62"/><path d="M142 174c82-44 170-44 252 0" fill="none" stroke="#fff" stroke-width="10" opacity=".45" stroke-linecap="round"/>
</svg>
