<svg xmlns="http://www.w3.org/2000/svg" viewBox="0 0 800 420" role="img" aria-label="Ilustracion propia de oceano y olas para esta pregunta">
  <defs>
    <linearGradient id="bg" x1="0" x2="1" y1="0" y2="1">
      <stop stop-color="#dff8ff"/>
      <stop offset="1" stop-color="#12b7a6" stop-opacity="0.22"/>
    </linearGradient>
  </defs>
  <rect width="800" height="420" fill="url(#bg)"/>
  <circle cx="109" cy="318" r="64" fill="#12b7a6" opacity="0.13"/>
  <circle cx="97" cy="129" r="74" fill="#315be8" opacity="0.16"/>
  <circle cx="86" cy="143" r="3" fill="#fffaf4" opacity="0.47000000000000003"/><circle cx="393" cy="233" r="3" fill="#fffaf4" opacity="0.46"/><circle cx="700" cy="322" r="3" fill="#fffaf4" opacity="0.45000000000000007"/><circle cx="291" cy="69" r="3" fill="#fffaf4" opacity="0.44000000000000006"/><circle cx="598" cy="158" r="3" fill="#fffaf4" opacity="0.43000000000000005"/><circle cx="189" cy="247" r="3" fill="#fffaf4" opacity="0.42000000000000004"/><circle cx="496" cy="336" r="3" fill="#fffaf4" opacity="0.41000000000000003"/><circle cx="87" cy="83" r="3" fill="#fffaf4" opacity="0.4"/><circle cx="494" cy="114" r="3" fill="#fffaf4" opacity="0.55"/>
  <path d="M0 240c88-42 144 42 232 0s144 42 232 0 144 42 232 0 144 42 232 0v180H0z" fill="#fff" opacity=".34"/><path d="M0 316c88-42 144 42 232 0s144 42 232 0 144 42 232 0 144 42 232 0" fill="none" stroke="#fff" stroke-width="18" opacity=".62"/><path d="M142 174c82-44 170-44 252 0" fill="none" stroke="#fff" stroke-width="10" opacity=".45" stroke-linecap="round"/>
</svg>
