<svg xmlns="http://www.w3.org/2000/svg" viewBox="0 0 800 420" role="img" aria-label="Ilustracion propia de historia y archivo para esta pregunta">
  <defs>
    <linearGradient id="bg" x1="0" x2="1" y1="0" y2="1">
      <stop stop-color="#fff4e4"/>
      <stop offset="1" stop-color="#d9cec1" stop-opacity="0.22"/>
    </linearGradient>
  </defs>
  <rect width="800" height="420" fill="url(#bg)"/>
  <circle cx="685" cy="116" r="121" fill="#15191d" opacity="0.13"/>
  <circle cx="169" cy="104" r="111" fill="#d9cec1" opacity="0.16"/>
  <circle cx="553" cy="82" r="4" fill="#f6bc42" opacity="0.68"/><circle cx="246" cy="334" r="4" fill="#f6bc42" opacity="0.69"/><circle cx="451" cy="260" r="4" fill="#f6bc42" opacity="0.66"/><circle cx="144" cy="171" r="4" fill="#f6bc42" opacity="0.67"/><circle cx="349" cy="96" r="4" fill="#f6bc42" opacity="0.64"/><circle cx="42" cy="349" r="4" fill="#f6bc42" opacity="0.65"/><circle cx="247" cy="274" r="4" fill="#f6bc42" opacity="0.6200000000000001"/><circle cx="656" cy="185" r="4" fill="#f6bc42" opacity="0.63"/><circle cx="245" cy="52" r="4" fill="#f6bc42" opacity="0.31000000000000005"/>
  <rect x="202" y="130" width="220" height="210" rx="18" fill="#fffaf4" stroke="#f6bc42" stroke-width="5"/><rect x="236" y="172" width="152" height="12" rx="6" fill="#15191d" opacity=".2"/><rect x="236" y="212" width="120" height="12" rx="6" fill="#15191d" opacity=".2"/><path d="M470 170h210L575 94z" fill="#15191d"/><rect x="500" y="190" width="32" height="120" rx="6" fill="#15191d"/><rect x="560" y="190" width="32" height="120" rx="6" fill="#15191d"/><rect x="620" y="190" width="32" height="120" rx="6" fill="#15191d"/>
</svg>
