<svg xmlns="http://www.w3.org/2000/svg" viewBox="0 0 800 420" role="img" aria-label="Ilustracion propia de tecnologia para esta pregunta">
  <defs>
    <linearGradient id="bg" x1="0" x2="1" y1="0" y2="1">
      <stop stop-color="#111820"/>
      <stop offset="1" stop-color="#111820" stop-opacity="0.22"/>
    </linearGradient>
  </defs>
  <rect width="800" height="420" fill="url(#bg)"/>
  <circle cx="501" cy="131" r="118" fill="#fffaf4" opacity="0.13"/>
  <circle cx="221" cy="106" r="90" fill="#315be8" opacity="0.16"/>
  <circle cx="88" cy="247" r="5" fill="#12b7a6" opacity="0.48000000000000004"/><circle cx="395" cy="336" r="5" fill="#12b7a6" opacity="0.47000000000000003"/><circle cx="190" cy="68" r="5" fill="#12b7a6" opacity="0.5"/><circle cx="497" cy="158" r="5" fill="#12b7a6" opacity="0.49"/><circle cx="600" cy="261" r="5" fill="#12b7a6" opacity="0.44000000000000006"/><circle cx="191" cy="350" r="5" fill="#12b7a6" opacity="0.43000000000000005"/><circle cx="702" cy="83" r="5" fill="#12b7a6" opacity="0.46"/><circle cx="293" cy="172" r="5" fill="#12b7a6" opacity="0.45000000000000007"/><circle cx="496" cy="218" r="5" fill="#12b7a6" opacity="0.56"/>
  <rect width="800" height="420" fill="#fffaf4"/><rect x="108" y="72" width="584" height="276" rx="28" fill="#315be8"/><rect x="108" y="72" width="584" height="58" rx="28" fill="#12b7a6"/><path d="M210 206l-62 44 62 44M590 206l62 44-62 44" stroke="#fffaf4" stroke-width="20" stroke-linecap="round" stroke-linejoin="round" fill="none"/><path d="M364 306l72-184" stroke="#12b7a6" stroke-width="18" stroke-linecap="round"/>
</svg>
