<svg xmlns="http://www.w3.org/2000/svg" viewBox="0 0 800 420" role="img" aria-label="Ilustracion propia de tecnologia para esta pregunta">
  <defs>
    <linearGradient id="bg" x1="0" x2="1" y1="0" y2="1">
      <stop stop-color="#111820"/>
      <stop offset="1" stop-color="#12b7a6" stop-opacity="0.22"/>
    </linearGradient>
  </defs>
  <rect width="800" height="420" fill="url(#bg)"/>
  <circle cx="567" cy="303" r="123" fill="#fffaf4" opacity="0.13"/>
  <circle cx="604" cy="163" r="91" fill="#315be8" opacity="0.16"/>
  <circle cx="488" cy="312" r="2" fill="#12b7a6" opacity="0.5800000000000001"/><circle cx="79" cy="59" r="2" fill="#12b7a6" opacity="0.5700000000000001"/><circle cx="590" cy="134" r="2" fill="#12b7a6" opacity="0.6000000000000001"/><circle cx="181" cy="223" r="2" fill="#12b7a6" opacity="0.5900000000000001"/><circle cx="284" cy="327" r="2" fill="#12b7a6" opacity="0.54"/><circle cx="591" cy="74" r="2" fill="#12b7a6" opacity="0.53"/><circle cx="386" cy="148" r="2" fill="#12b7a6" opacity="0.56"/><circle cx="693" cy="237" r="2" fill="#12b7a6" opacity="0.55"/><circle cx="80" cy="341" r="2" fill="#12b7a6" opacity="0.5"/>
  <rect width="800" height="420" fill="#fffaf4"/><rect x="108" y="72" width="584" height="276" rx="28" fill="#315be8"/><rect x="108" y="72" width="584" height="58" rx="28" fill="#12b7a6"/><path d="M222 206l-62 44 62 44M578 206l62 44-62 44" stroke="#fffaf4" stroke-width="20" stroke-linecap="round" stroke-linejoin="round" fill="none"/><path d="M364 306l72-184" stroke="#12b7a6" stroke-width="18" stroke-linecap="round"/>
</svg>
