<svg xmlns="http://www.w3.org/2000/svg" viewBox="0 0 800 420" role="img" aria-label="Ilustracion propia de tecnologia para esta pregunta">
  <defs>
    <linearGradient id="bg" x1="0" x2="1" y1="0" y2="1">
      <stop stop-color="#111820"/>
      <stop offset="1" stop-color="#12b7a6" stop-opacity="0.22"/>
    </linearGradient>
  </defs>
  <rect width="800" height="420" fill="url(#bg)"/>
  <circle cx="283" cy="194" r="111" fill="#fffaf4" opacity="0.13"/>
  <circle cx="194" cy="78" r="89" fill="#315be8" opacity="0.16"/>
  <circle cx="321" cy="113" r="5" fill="#12b7a6" opacity="0.52"/><circle cx="730" cy="366" r="5" fill="#12b7a6" opacity="0.53"/><circle cx="219" cy="291" r="5" fill="#12b7a6" opacity="0.5"/><circle cx="628" cy="202" r="5" fill="#12b7a6" opacity="0.51"/><circle cx="525" cy="98" r="5" fill="#12b7a6" opacity="0.56"/><circle cx="218" cy="351" r="5" fill="#12b7a6" opacity="0.5700000000000001"/><circle cx="423" cy="276" r="5" fill="#12b7a6" opacity="0.54"/><circle cx="116" cy="187" r="5" fill="#12b7a6" opacity="0.55"/><circle cx="497" cy="211" r="5" fill="#12b7a6" opacity="0.46"/>
  <rect width="800" height="420" fill="#fffaf4"/><rect x="108" y="72" width="584" height="276" rx="28" fill="#315be8"/><rect x="108" y="72" width="584" height="58" rx="28" fill="#12b7a6"/><path d="M234 206l-62 44 62 44M566 206l62 44-62 44" stroke="#fffaf4" stroke-width="20" stroke-linecap="round" stroke-linejoin="round" fill="none"/><path d="M364 306l72-184" stroke="#12b7a6" stroke-width="18" stroke-linecap="round"/>
</svg>
