<svg xmlns="http://www.w3.org/2000/svg" viewBox="0 0 800 420" role="img" aria-label="Ilustracion propia de tecnologia para esta pregunta">
  <defs>
    <linearGradient id="bg" x1="0" x2="1" y1="0" y2="1">
      <stop stop-color="#111820"/>
      <stop offset="1" stop-color="#315be8" stop-opacity="0.22"/>
    </linearGradient>
  </defs>
  <rect width="800" height="420" fill="url(#bg)"/>
  <circle cx="594" cy="94" r="65" fill="#fffaf4" opacity="0.13"/>
  <circle cx="233" cy="137" r="94" fill="#315be8" opacity="0.16"/>
  <circle cx="632" cy="230" r="4" fill="#12b7a6" opacity="0.6200000000000001"/><circle cx="223" cy="320" r="4" fill="#12b7a6" opacity="0.6100000000000001"/><circle cx="734" cy="52" r="4" fill="#12b7a6" opacity="0.64"/><circle cx="325" cy="141" r="4" fill="#12b7a6" opacity="0.63"/><circle cx="120" cy="216" r="4" fill="#12b7a6" opacity="0.66"/><circle cx="427" cy="305" r="4" fill="#12b7a6" opacity="0.65"/><circle cx="222" cy="38" r="4" fill="#12b7a6" opacity="0.68"/><circle cx="529" cy="127" r="4" fill="#12b7a6" opacity="0.67"/><circle cx="224" cy="260" r="5" fill="#12b7a6" opacity="0.54"/>
  <rect width="800" height="420" fill="#fffaf4"/><rect x="108" y="72" width="584" height="276" rx="28" fill="#315be8"/><rect x="108" y="72" width="584" height="58" rx="28" fill="#12b7a6"/><path d="M246 206l-62 44 62 44M554 206l62 44-62 44" stroke="#fffaf4" stroke-width="20" stroke-linecap="round" stroke-linejoin="round" fill="none"/><path d="M364 306l72-184" stroke="#12b7a6" stroke-width="18" stroke-linecap="round"/>
</svg>
