<svg xmlns="http://www.w3.org/2000/svg" viewBox="0 0 800 420" role="img" aria-label="Ilustracion propia de tecnologia para esta pregunta">
  <defs>
    <linearGradient id="bg" x1="0" x2="1" y1="0" y2="1">
      <stop stop-color="#111820"/>
      <stop offset="1" stop-color="#12b7a6" stop-opacity="0.22"/>
    </linearGradient>
  </defs>
  <rect width="800" height="420" fill="url(#bg)"/>
  <circle cx="182" cy="256" r="73" fill="#fffaf4" opacity="0.13"/>
  <circle cx="481" cy="86" r="85" fill="#315be8" opacity="0.16"/>
  <circle cx="129" cy="153" r="5" fill="#12b7a6" opacity="0.4"/><circle cx="538" cy="64" r="5" fill="#12b7a6" opacity="0.41000000000000003"/><circle cx="743" cy="331" r="5" fill="#12b7a6" opacity="0.38"/><circle cx="436" cy="242" r="5" fill="#12b7a6" opacity="0.39"/><circle cx="333" cy="138" r="5" fill="#12b7a6" opacity="0.44000000000000006"/><circle cx="742" cy="49" r="5" fill="#12b7a6" opacity="0.45000000000000007"/><circle cx="231" cy="317" r="5" fill="#12b7a6" opacity="0.42000000000000004"/><circle cx="640" cy="227" r="5" fill="#12b7a6" opacity="0.43000000000000005"/><circle cx="537" cy="124" r="5" fill="#12b7a6" opacity="0.48000000000000004"/>
  <rect width="800" height="420" fill="#fffaf4"/><rect x="108" y="72" width="584" height="276" rx="28" fill="#315be8"/><rect x="108" y="72" width="584" height="58" rx="28" fill="#12b7a6"/><path d="M222 206l-62 44 62 44M578 206l62 44-62 44" stroke="#fffaf4" stroke-width="20" stroke-linecap="round" stroke-linejoin="round" fill="none"/><path d="M364 306l72-184" stroke="#12b7a6" stroke-width="18" stroke-linecap="round"/>
</svg>
