<svg xmlns="http://www.w3.org/2000/svg" viewBox="0 0 800 420" role="img" aria-label="Ilustracion propia de tecnologia para esta pregunta">
  <defs>
    <linearGradient id="bg" x1="0" x2="1" y1="0" y2="1">
      <stop stop-color="#111820"/>
      <stop offset="1" stop-color="#315be8" stop-opacity="0.22"/>
    </linearGradient>
  </defs>
  <rect width="800" height="420" fill="url(#bg)"/>
  <circle cx="651" cy="176" r="75" fill="#fffaf4" opacity="0.13"/>
  <circle cx="240" cy="147" r="65" fill="#315be8" opacity="0.16"/>
  <circle cx="323" cy="172" r="3" fill="#12b7a6" opacity="0.5800000000000001"/><circle cx="732" cy="83" r="3" fill="#12b7a6" opacity="0.5900000000000001"/><circle cx="425" cy="336" r="3" fill="#12b7a6" opacity="0.6000000000000001"/><circle cx="118" cy="247" r="3" fill="#12b7a6" opacity="0.6100000000000001"/><circle cx="527" cy="158" r="3" fill="#12b7a6" opacity="0.6200000000000001"/><circle cx="220" cy="69" r="3" fill="#12b7a6" opacity="0.63"/><circle cx="629" cy="321" r="3" fill="#12b7a6" opacity="0.64"/><circle cx="322" cy="232" r="3" fill="#12b7a6" opacity="0.65"/><circle cx="731" cy="143" r="3" fill="#12b7a6" opacity="0.66"/>
  <rect width="800" height="420" fill="#fffaf4"/><rect x="108" y="72" width="584" height="276" rx="28" fill="#315be8"/><rect x="108" y="72" width="584" height="58" rx="28" fill="#12b7a6"/><path d="M210 206l-62 44 62 44M590 206l62 44-62 44" stroke="#fffaf4" stroke-width="20" stroke-linecap="round" stroke-linejoin="round" fill="none"/><path d="M364 306l72-184" stroke="#12b7a6" stroke-width="18" stroke-linecap="round"/>
</svg>
