<svg xmlns="http://www.w3.org/2000/svg" viewBox="0 0 800 420" role="img" aria-label="Ilustracion propia de tecnologia para esta pregunta">
  <defs>
    <linearGradient id="bg" x1="0" x2="1" y1="0" y2="1">
      <stop stop-color="#111820"/>
      <stop offset="1" stop-color="#111820" stop-opacity="0.22"/>
    </linearGradient>
  </defs>
  <rect width="800" height="420" fill="url(#bg)"/>
  <circle cx="96" cy="130" r="122" fill="#fffaf4" opacity="0.13"/>
  <circle cx="171" cy="213" r="71" fill="#315be8" opacity="0.16"/>
  <circle cx="606" cy="50" r="2" fill="#12b7a6" opacity="0.28"/><circle cx="197" cy="139" r="2" fill="#12b7a6" opacity="0.72"/><circle cx="504" cy="228" r="2" fill="#12b7a6" opacity="0.71"/><circle cx="95" cy="318" r="2" fill="#12b7a6" opacity="0.7"/><circle cx="402" cy="65" r="2" fill="#12b7a6" opacity="0.69"/><circle cx="709" cy="154" r="2" fill="#12b7a6" opacity="0.68"/><circle cx="300" cy="243" r="2" fill="#12b7a6" opacity="0.67"/><circle cx="607" cy="332" r="2" fill="#12b7a6" opacity="0.66"/><circle cx="198" cy="79" r="2" fill="#12b7a6" opacity="0.65"/>
  <rect width="800" height="420" fill="#fffaf4"/><rect x="108" y="72" width="584" height="276" rx="28" fill="#315be8"/><rect x="108" y="72" width="584" height="58" rx="28" fill="#12b7a6"/><path d="M210 206l-62 44 62 44M590 206l62 44-62 44" stroke="#fffaf4" stroke-width="20" stroke-linecap="round" stroke-linejoin="round" fill="none"/><path d="M364 306l72-184" stroke="#12b7a6" stroke-width="18" stroke-linecap="round"/>
</svg>
