<svg xmlns="http://www.w3.org/2000/svg" viewBox="0 0 800 420" role="img" aria-label="Ilustracion propia de tecnologia para esta pregunta">
  <defs>
    <linearGradient id="bg" x1="0" x2="1" y1="0" y2="1">
      <stop stop-color="#111820"/>
      <stop offset="1" stop-color="#315be8" stop-opacity="0.22"/>
    </linearGradient>
  </defs>
  <rect width="800" height="420" fill="url(#bg)"/>
  <circle cx="263" cy="242" r="141" fill="#fffaf4" opacity="0.13"/>
  <circle cx="641" cy="227" r="123" fill="#315be8" opacity="0.16"/>
  <circle cx="719" cy="216" r="2" fill="#12b7a6" opacity="0.54"/><circle cx="412" cy="127" r="2" fill="#12b7a6" opacity="0.55"/><circle cx="105" cy="38" r="2" fill="#12b7a6" opacity="0.56"/><circle cx="514" cy="290" r="2" fill="#12b7a6" opacity="0.5700000000000001"/><circle cx="207" cy="201" r="2" fill="#12b7a6" opacity="0.5800000000000001"/><circle cx="616" cy="112" r="2" fill="#12b7a6" opacity="0.5900000000000001"/><circle cx="309" cy="365" r="2" fill="#12b7a6" opacity="0.6000000000000001"/><circle cx="718" cy="276" r="2" fill="#12b7a6" opacity="0.6100000000000001"/><circle cx="311" cy="245" r="2" fill="#12b7a6" opacity="0.46"/>
  <rect width="800" height="420" fill="#fffaf4"/><rect x="108" y="72" width="584" height="276" rx="28" fill="#315be8"/><rect x="108" y="72" width="584" height="58" rx="28" fill="#12b7a6"/><path d="M234 206l-62 44 62 44M566 206l62 44-62 44" stroke="#fffaf4" stroke-width="20" stroke-linecap="round" stroke-linejoin="round" fill="none"/><path d="M364 306l72-184" stroke="#12b7a6" stroke-width="18" stroke-linecap="round"/>
</svg>
