<svg xmlns="http://www.w3.org/2000/svg" viewBox="0 0 800 420" role="img" aria-label="Ilustracion propia de tecnologia para esta pregunta">
  <defs>
    <linearGradient id="bg" x1="0" x2="1" y1="0" y2="1">
      <stop stop-color="#111820"/>
      <stop offset="1" stop-color="#111820" stop-opacity="0.22"/>
    </linearGradient>
  </defs>
  <rect width="800" height="420" fill="url(#bg)"/>
  <circle cx="565" cy="311" r="76" fill="#fffaf4" opacity="0.13"/>
  <circle cx="679" cy="343" r="105" fill="#315be8" opacity="0.16"/>
  <circle cx="471" cy="338" r="5" fill="#12b7a6" opacity="0.5"/><circle cx="164" cy="249" r="5" fill="#12b7a6" opacity="0.51"/><circle cx="573" cy="160" r="5" fill="#12b7a6" opacity="0.52"/><circle cx="266" cy="71" r="5" fill="#12b7a6" opacity="0.53"/><circle cx="675" cy="324" r="5" fill="#12b7a6" opacity="0.54"/><circle cx="368" cy="234" r="5" fill="#12b7a6" opacity="0.55"/><circle cx="61" cy="145" r="5" fill="#12b7a6" opacity="0.56"/><circle cx="470" cy="56" r="5" fill="#12b7a6" opacity="0.5700000000000001"/><circle cx="647" cy="95" r="5" fill="#12b7a6" opacity="0.44000000000000006"/>
  <rect width="800" height="420" fill="#fffaf4"/><rect x="108" y="72" width="584" height="276" rx="28" fill="#315be8"/><rect x="108" y="72" width="584" height="58" rx="28" fill="#12b7a6"/><path d="M258 206l-62 44 62 44M542 206l62 44-62 44" stroke="#fffaf4" stroke-width="20" stroke-linecap="round" stroke-linejoin="round" fill="none"/><path d="M364 306l72-184" stroke="#12b7a6" stroke-width="18" stroke-linecap="round"/>
</svg>
