<svg xmlns="http://www.w3.org/2000/svg" viewBox="0 0 800 420" role="img" aria-label="Ilustracion propia de tecnologia para esta pregunta">
  <defs>
    <linearGradient id="bg" x1="0" x2="1" y1="0" y2="1">
      <stop stop-color="#111820"/>
      <stop offset="1" stop-color="#111820" stop-opacity="0.22"/>
    </linearGradient>
  </defs>
  <rect width="800" height="420" fill="url(#bg)"/>
  <circle cx="611" cy="300" r="120" fill="#fffaf4" opacity="0.13"/>
  <circle cx="385" cy="342" r="81" fill="#315be8" opacity="0.16"/>
  <circle cx="77" cy="345" r="3" fill="#12b7a6" opacity="0.53"/><circle cx="486" cy="256" r="3" fill="#12b7a6" opacity="0.54"/><circle cx="691" cy="182" r="3" fill="#12b7a6" opacity="0.51"/><circle cx="384" cy="93" r="3" fill="#12b7a6" opacity="0.52"/><circle cx="281" cy="331" r="3" fill="#12b7a6" opacity="0.5700000000000001"/><circle cx="690" cy="242" r="3" fill="#12b7a6" opacity="0.5800000000000001"/><circle cx="179" cy="167" r="3" fill="#12b7a6" opacity="0.55"/><circle cx="588" cy="78" r="3" fill="#12b7a6" opacity="0.56"/><circle cx="385" cy="375" r="3" fill="#12b7a6" opacity="0.45000000000000007"/>
  <rect width="800" height="420" fill="#fffaf4"/><rect x="108" y="72" width="584" height="276" rx="28" fill="#315be8"/><rect x="108" y="72" width="584" height="58" rx="28" fill="#12b7a6"/><path d="M210 206l-62 44 62 44M590 206l62 44-62 44" stroke="#fffaf4" stroke-width="20" stroke-linecap="round" stroke-linejoin="round" fill="none"/><path d="M364 306l72-184" stroke="#12b7a6" stroke-width="18" stroke-linecap="round"/>
</svg>
