<svg xmlns="http://www.w3.org/2000/svg" viewBox="0 0 800 420" role="img" aria-label="Ilustracion propia de tecnologia para esta pregunta">
  <defs>
    <linearGradient id="bg" x1="0" x2="1" y1="0" y2="1">
      <stop stop-color="#111820"/>
      <stop offset="1" stop-color="#12b7a6" stop-opacity="0.22"/>
    </linearGradient>
  </defs>
  <rect width="800" height="420" fill="url(#bg)"/>
  <circle cx="225" cy="308" r="77" fill="#fffaf4" opacity="0.13"/>
  <circle cx="337" cy="343" r="95" fill="#315be8" opacity="0.16"/>
  <circle cx="502" cy="135" r="2" fill="#12b7a6" opacity="0.28"/><circle cx="93" cy="224" r="2" fill="#12b7a6" opacity="0.72"/><circle cx="400" cy="313" r="2" fill="#12b7a6" opacity="0.71"/><circle cx="707" cy="60" r="2" fill="#12b7a6" opacity="0.7"/><circle cx="298" cy="149" r="2" fill="#12b7a6" opacity="0.69"/><circle cx="605" cy="238" r="2" fill="#12b7a6" opacity="0.68"/><circle cx="196" cy="327" r="2" fill="#12b7a6" opacity="0.67"/><circle cx="503" cy="75" r="2" fill="#12b7a6" opacity="0.66"/><circle cx="94" cy="164" r="2" fill="#12b7a6" opacity="0.65"/>
  <rect width="800" height="420" fill="#fffaf4"/><rect x="108" y="72" width="584" height="276" rx="28" fill="#315be8"/><rect x="108" y="72" width="584" height="58" rx="28" fill="#12b7a6"/><path d="M258 206l-62 44 62 44M542 206l62 44-62 44" stroke="#fffaf4" stroke-width="20" stroke-linecap="round" stroke-linejoin="round" fill="none"/><path d="M364 306l72-184" stroke="#12b7a6" stroke-width="18" stroke-linecap="round"/>
</svg>
