<svg xmlns="http://www.w3.org/2000/svg" viewBox="0 0 800 420" role="img" aria-label="Ilustracion propia de tecnologia para esta pregunta">
  <defs>
    <linearGradient id="bg" x1="0" x2="1" y1="0" y2="1">
      <stop stop-color="#111820"/>
      <stop offset="1" stop-color="#315be8" stop-opacity="0.22"/>
    </linearGradient>
  </defs>
  <rect width="800" height="420" fill="url(#bg)"/>
  <circle cx="607" cy="175" r="133" fill="#fffaf4" opacity="0.13"/>
  <circle cx="534" cy="183" r="142" fill="#315be8" opacity="0.16"/>
  <circle cx="64" cy="164" r="5" fill="#12b7a6" opacity="0.69"/><circle cx="371" cy="253" r="5" fill="#12b7a6" opacity="0.68"/><circle cx="166" cy="327" r="5" fill="#12b7a6" opacity="0.71"/><circle cx="473" cy="74" r="5" fill="#12b7a6" opacity="0.7"/><circle cx="268" cy="149" r="5" fill="#12b7a6" opacity="0.28"/><circle cx="575" cy="238" r="5" fill="#12b7a6" opacity="0.72"/><circle cx="370" cy="313" r="5" fill="#12b7a6" opacity="0.30000000000000004"/><circle cx="677" cy="60" r="5" fill="#12b7a6" opacity="0.29000000000000004"/><circle cx="472" cy="134" r="5" fill="#12b7a6" opacity="0.32"/>
  <rect width="800" height="420" fill="#fffaf4"/><rect x="108" y="72" width="584" height="276" rx="28" fill="#315be8"/><rect x="108" y="72" width="584" height="58" rx="28" fill="#12b7a6"/><path d="M222 206l-62 44 62 44M578 206l62 44-62 44" stroke="#fffaf4" stroke-width="20" stroke-linecap="round" stroke-linejoin="round" fill="none"/><path d="M364 306l72-184" stroke="#12b7a6" stroke-width="18" stroke-linecap="round"/>
</svg>
