<svg xmlns="http://www.w3.org/2000/svg" viewBox="0 0 800 420" role="img" aria-label="Ilustracion propia de tecnologia para esta pregunta">
  <defs>
    <linearGradient id="bg" x1="0" x2="1" y1="0" y2="1">
      <stop stop-color="#111820"/>
      <stop offset="1" stop-color="#12b7a6" stop-opacity="0.22"/>
    </linearGradient>
  </defs>
  <rect width="800" height="420" fill="url(#bg)"/>
  <circle cx="674" cy="230" r="87" fill="#fffaf4" opacity="0.13"/>
  <circle cx="243" cy="261" r="86" fill="#315be8" opacity="0.16"/>
  <circle cx="325" cy="145" r="2" fill="#12b7a6" opacity="0.64"/><circle cx="734" cy="56" r="2" fill="#12b7a6" opacity="0.65"/><circle cx="223" cy="324" r="2" fill="#12b7a6" opacity="0.6200000000000001"/><circle cx="632" cy="235" r="2" fill="#12b7a6" opacity="0.63"/><circle cx="121" cy="160" r="2" fill="#12b7a6" opacity="0.6000000000000001"/><circle cx="530" cy="71" r="2" fill="#12b7a6" opacity="0.6100000000000001"/><circle cx="735" cy="338" r="2" fill="#12b7a6" opacity="0.5800000000000001"/><circle cx="428" cy="249" r="2" fill="#12b7a6" opacity="0.5900000000000001"/><circle cx="633" cy="175" r="2" fill="#12b7a6" opacity="0.56"/>
  <rect width="800" height="420" fill="#fffaf4"/><rect x="108" y="72" width="584" height="276" rx="28" fill="#315be8"/><rect x="108" y="72" width="584" height="58" rx="28" fill="#12b7a6"/><path d="M246 206l-62 44 62 44M554 206l62 44-62 44" stroke="#fffaf4" stroke-width="20" stroke-linecap="round" stroke-linejoin="round" fill="none"/><path d="M364 306l72-184" stroke="#12b7a6" stroke-width="18" stroke-linecap="round"/>
</svg>
