<svg xmlns="http://www.w3.org/2000/svg" viewBox="0 0 800 420" role="img" aria-label="Ilustracion propia de tecnologia para esta pregunta">
  <defs>
    <linearGradient id="bg" x1="0" x2="1" y1="0" y2="1">
      <stop stop-color="#111820"/>
      <stop offset="1" stop-color="#315be8" stop-opacity="0.22"/>
    </linearGradient>
  </defs>
  <rect width="800" height="420" fill="url(#bg)"/>
  <circle cx="491" cy="280" r="101" fill="#fffaf4" opacity="0.13"/>
  <circle cx="370" cy="196" r="98" fill="#315be8" opacity="0.16"/>
  <circle cx="154" cy="268" r="5" fill="#12b7a6" opacity="0.51"/><circle cx="461" cy="357" r="5" fill="#12b7a6" opacity="0.5"/><circle cx="52" cy="104" r="5" fill="#12b7a6" opacity="0.49"/><circle cx="359" cy="193" r="5" fill="#12b7a6" opacity="0.48000000000000004"/><circle cx="666" cy="282" r="5" fill="#12b7a6" opacity="0.47000000000000003"/><circle cx="257" cy="371" r="5" fill="#12b7a6" opacity="0.46"/><circle cx="564" cy="118" r="5" fill="#12b7a6" opacity="0.45000000000000007"/><circle cx="155" cy="208" r="5" fill="#12b7a6" opacity="0.44000000000000006"/><circle cx="462" cy="297" r="5" fill="#12b7a6" opacity="0.43000000000000005"/>
  <rect width="800" height="420" fill="#fffaf4"/><rect x="108" y="72" width="584" height="276" rx="28" fill="#315be8"/><rect x="108" y="72" width="584" height="58" rx="28" fill="#12b7a6"/><path d="M210 206l-62 44 62 44M590 206l62 44-62 44" stroke="#fffaf4" stroke-width="20" stroke-linecap="round" stroke-linejoin="round" fill="none"/><path d="M364 306l72-184" stroke="#12b7a6" stroke-width="18" stroke-linecap="round"/>
</svg>
