<svg xmlns="http://www.w3.org/2000/svg" viewBox="0 0 800 420" role="img" aria-label="Ilustracion propia de tecnologia para esta pregunta">
  <defs>
    <linearGradient id="bg" x1="0" x2="1" y1="0" y2="1">
      <stop stop-color="#111820"/>
      <stop offset="1" stop-color="#12b7a6" stop-opacity="0.22"/>
    </linearGradient>
  </defs>
  <rect width="800" height="420" fill="url(#bg)"/>
  <circle cx="645" cy="87" r="111" fill="#fffaf4" opacity="0.13"/>
  <circle cx="164" cy="100" r="129" fill="#315be8" opacity="0.16"/>
  <circle cx="354" cy="108" r="5" fill="#12b7a6" opacity="0.56"/><circle cx="661" cy="197" r="5" fill="#12b7a6" opacity="0.55"/><circle cx="252" cy="287" r="5" fill="#12b7a6" opacity="0.54"/><circle cx="559" cy="376" r="5" fill="#12b7a6" opacity="0.53"/><circle cx="558" cy="94" r="4" fill="#12b7a6" opacity="0.6000000000000001"/><circle cx="149" cy="183" r="4" fill="#12b7a6" opacity="0.5900000000000001"/><circle cx="456" cy="272" r="5" fill="#12b7a6" opacity="0.5800000000000001"/><circle cx="47" cy="361" r="5" fill="#12b7a6" opacity="0.5700000000000001"/><circle cx="46" cy="79" r="4" fill="#12b7a6" opacity="0.64"/>
  <rect width="800" height="420" fill="#fffaf4"/><rect x="108" y="72" width="584" height="276" rx="28" fill="#315be8"/><rect x="108" y="72" width="584" height="58" rx="28" fill="#12b7a6"/><path d="M258 206l-62 44 62 44M542 206l62 44-62 44" stroke="#fffaf4" stroke-width="20" stroke-linecap="round" stroke-linejoin="round" fill="none"/><path d="M364 306l72-184" stroke="#12b7a6" stroke-width="18" stroke-linecap="round"/>
</svg>
