<svg xmlns="http://www.w3.org/2000/svg" viewBox="0 0 800 420" role="img" aria-label="Ilustracion propia de tecnologia para esta pregunta">
  <defs>
    <linearGradient id="bg" x1="0" x2="1" y1="0" y2="1">
      <stop stop-color="#111820"/>
      <stop offset="1" stop-color="#111820" stop-opacity="0.22"/>
    </linearGradient>
  </defs>
  <rect width="800" height="420" fill="url(#bg)"/>
  <circle cx="134" cy="101" r="108" fill="#fffaf4" opacity="0.13"/>
  <circle cx="550" cy="102" r="129" fill="#315be8" opacity="0.16"/>
  <circle cx="178" cy="205" r="3" fill="#12b7a6" opacity="0.53"/><circle cx="485" cy="294" r="3" fill="#12b7a6" opacity="0.52"/><circle cx="76" cy="41" r="3" fill="#12b7a6" opacity="0.51"/><circle cx="383" cy="130" r="3" fill="#12b7a6" opacity="0.5"/><circle cx="690" cy="220" r="4" fill="#12b7a6" opacity="0.49"/><circle cx="281" cy="309" r="4" fill="#12b7a6" opacity="0.48000000000000004"/><circle cx="588" cy="56" r="4" fill="#12b7a6" opacity="0.47000000000000003"/><circle cx="179" cy="145" r="4" fill="#12b7a6" opacity="0.46"/><circle cx="586" cy="176" r="3" fill="#12b7a6" opacity="0.6100000000000001"/>
  <rect width="800" height="420" fill="#fffaf4"/><rect x="108" y="72" width="584" height="276" rx="28" fill="#315be8"/><rect x="108" y="72" width="584" height="58" rx="28" fill="#12b7a6"/><path d="M246 206l-62 44 62 44M554 206l62 44-62 44" stroke="#fffaf4" stroke-width="20" stroke-linecap="round" stroke-linejoin="round" fill="none"/><path d="M364 306l72-184" stroke="#12b7a6" stroke-width="18" stroke-linecap="round"/>
</svg>
