<svg xmlns="http://www.w3.org/2000/svg" viewBox="0 0 800 420" role="img" aria-label="Ilustracion propia de historia y archivo para esta pregunta">
  <defs>
    <linearGradient id="bg" x1="0" x2="1" y1="0" y2="1">
      <stop stop-color="#fff4e4"/>
      <stop offset="1" stop-color="#15191d" stop-opacity="0.22"/>
    </linearGradient>
  </defs>
  <rect width="800" height="420" fill="url(#bg)"/>
  <circle cx="338" cy="104" r="90" fill="#15191d" opacity="0.13"/>
  <circle cx="576" cy="210" r="97" fill="#d9cec1" opacity="0.16"/>
  <circle cx="406" cy="347" r="4" fill="#f6bc42" opacity="0.6000000000000001"/><circle cx="713" cy="94" r="4" fill="#f6bc42" opacity="0.5900000000000001"/><circle cx="304" cy="183" r="4" fill="#f6bc42" opacity="0.5800000000000001"/><circle cx="611" cy="272" r="4" fill="#f6bc42" opacity="0.5700000000000001"/><circle cx="610" cy="332" r="4" fill="#f6bc42" opacity="0.64"/><circle cx="201" cy="79" r="4" fill="#f6bc42" opacity="0.63"/><circle cx="508" cy="168" r="4" fill="#f6bc42" opacity="0.6200000000000001"/><circle cx="99" cy="257" r="4" fill="#f6bc42" opacity="0.6100000000000001"/><circle cx="98" cy="317" r="3" fill="#f6bc42" opacity="0.68"/>
  <rect x="166" y="130" width="220" height="210" rx="18" fill="#fffaf4" stroke="#f6bc42" stroke-width="5"/><rect x="200" y="172" width="152" height="12" rx="6" fill="#15191d" opacity=".2"/><rect x="200" y="212" width="120" height="12" rx="6" fill="#15191d" opacity=".2"/><path d="M470 170h210L575 94z" fill="#15191d"/><rect x="500" y="190" width="32" height="120" rx="6" fill="#15191d"/><rect x="560" y="190" width="32" height="120" rx="6" fill="#15191d"/><rect x="620" y="190" width="32" height="120" rx="6" fill="#15191d"/>
</svg>
