<svg xmlns="http://www.w3.org/2000/svg" viewBox="0 0 800 420" role="img" aria-label="Ilustracion propia de espacio y planetas para esta pregunta">
  <defs>
    <linearGradient id="bg" x1="0" x2="1" y1="0" y2="1">
      <stop stop-color="#12171a"/>
      <stop offset="1" stop-color="#12171a" stop-opacity="0.22"/>
    </linearGradient>
  </defs>
  <rect width="800" height="420" fill="url(#bg)"/>
  <circle cx="532" cy="73" r="116" fill="#e46b4f" opacity="0.13"/>
  <circle cx="300" cy="134" r="110" fill="#f6bc42" opacity="0.16"/>
  <circle cx="318" cy="262" r="2" fill="#315be8" opacity="0.44000000000000006"/><circle cx="625" cy="351" r="2" fill="#315be8" opacity="0.43000000000000005"/><circle cx="216" cy="98" r="2" fill="#315be8" opacity="0.42000000000000004"/><circle cx="523" cy="187" r="2" fill="#315be8" opacity="0.41000000000000003"/><circle cx="114" cy="276" r="2" fill="#315be8" opacity="0.4"/><circle cx="421" cy="365" r="2" fill="#315be8" opacity="0.39"/><circle cx="728" cy="113" r="2" fill="#315be8" opacity="0.38"/><circle cx="319" cy="202" r="2" fill="#315be8" opacity="0.37"/><circle cx="626" cy="291" r="2" fill="#315be8" opacity="0.36000000000000004"/>
  <rect width="800" height="420" fill="#e46b4f"/><circle cx="320" cy="218" r="77" fill="#f6bc42"/><path d="M230 212c36 14 66-22 112-2" stroke="#8f3327" stroke-width="12" stroke-linecap="round" opacity=".36"/><circle cx="484" cy="178" r="52" fill="#315be8"/><circle cx="560" cy="276" r="32" fill="#fffaf4"/><path d="M176 324c140 46 308 54 476 0" stroke="#fff" stroke-width="5" fill="none" opacity=".38"/>
</svg>
