<svg xmlns="http://www.w3.org/2000/svg" viewBox="0 0 800 420" role="img" aria-label="Ilustracion propia de historia y archivo para esta pregunta">
  <defs>
    <linearGradient id="bg" x1="0" x2="1" y1="0" y2="1">
      <stop stop-color="#fff4e4"/>
      <stop offset="1" stop-color="#15191d" stop-opacity="0.22"/>
    </linearGradient>
  </defs>
  <rect width="800" height="420" fill="url(#bg)"/>
  <circle cx="162" cy="229" r="130" fill="#15191d" opacity="0.13"/>
  <circle cx="479" cy="82" r="82" fill="#d9cec1" opacity="0.16"/>
  <circle cx="708" cy="333" r="2" fill="#f6bc42" opacity="0.34"/><circle cx="299" cy="80" r="3" fill="#f6bc42" opacity="0.33"/><circle cx="94" cy="155" r="2" fill="#f6bc42" opacity="0.36000000000000004"/><circle cx="401" cy="244" r="2" fill="#f6bc42" opacity="0.35000000000000003"/><circle cx="196" cy="318" r="2" fill="#f6bc42" opacity="0.38"/><circle cx="503" cy="65" r="2" fill="#f6bc42" opacity="0.37"/><circle cx="298" cy="140" r="2" fill="#f6bc42" opacity="0.4"/><circle cx="605" cy="229" r="2" fill="#f6bc42" opacity="0.39"/><circle cx="400" cy="304" r="2" fill="#f6bc42" opacity="0.42000000000000004"/>
  <rect x="148" y="130" width="220" height="210" rx="18" fill="#fffaf4" stroke="#f6bc42" stroke-width="5"/><rect x="182" y="172" width="152" height="12" rx="6" fill="#15191d" opacity=".2"/><rect x="182" y="212" width="120" height="12" rx="6" fill="#15191d" opacity=".2"/><path d="M470 170h210L575 94z" fill="#15191d"/><rect x="500" y="190" width="32" height="120" rx="6" fill="#15191d"/><rect x="560" y="190" width="32" height="120" rx="6" fill="#15191d"/><rect x="620" y="190" width="32" height="120" rx="6" fill="#15191d"/>
</svg>
