<svg xmlns="http://www.w3.org/2000/svg" viewBox="0 0 800 420" role="img" aria-label="Ilustracion propia de historia y archivo para esta pregunta">
  <defs>
    <linearGradient id="bg" x1="0" x2="1" y1="0" y2="1">
      <stop stop-color="#fff4e4"/>
      <stop offset="1" stop-color="#fff4e4" stop-opacity="0.22"/>
    </linearGradient>
  </defs>
  <rect width="800" height="420" fill="url(#bg)"/>
  <circle cx="128" cy="272" r="82" fill="#15191d" opacity="0.13"/>
  <circle cx="625" cy="302" r="66" fill="#d9cec1" opacity="0.16"/>
  <circle cx="526" cy="250" r="3" fill="#f6bc42" opacity="0.7"/><circle cx="117" cy="339" r="3" fill="#f6bc42" opacity="0.69"/><circle cx="424" cy="86" r="3" fill="#f6bc42" opacity="0.68"/><circle cx="731" cy="175" r="3" fill="#f6bc42" opacity="0.67"/><circle cx="730" cy="235" r="3" fill="#f6bc42" opacity="0.29000000000000004"/><circle cx="321" cy="324" r="3" fill="#f6bc42" opacity="0.28"/><circle cx="628" cy="71" r="3" fill="#f6bc42" opacity="0.72"/><circle cx="219" cy="161" r="3" fill="#f6bc42" opacity="0.71"/><circle cx="118" cy="279" r="3" fill="#f6bc42" opacity="0.6200000000000001"/>
  <rect x="166" y="130" width="220" height="210" rx="18" fill="#fffaf4" stroke="#f6bc42" stroke-width="5"/><rect x="200" y="172" width="152" height="12" rx="6" fill="#15191d" opacity=".2"/><rect x="200" y="212" width="120" height="12" rx="6" fill="#15191d" opacity=".2"/><path d="M470 170h210L575 94z" fill="#15191d"/><rect x="500" y="190" width="32" height="120" rx="6" fill="#15191d"/><rect x="560" y="190" width="32" height="120" rx="6" fill="#15191d"/><rect x="620" y="190" width="32" height="120" rx="6" fill="#15191d"/>
</svg>
