<svg xmlns="http://www.w3.org/2000/svg" viewBox="0 0 800 420" role="img" aria-label="Ilustracion propia de estadio y futbol generico para esta pregunta">
  <defs>
    <linearGradient id="bg" x1="0" x2="1" y1="0" y2="1">
      <stop stop-color="#eaf8f5"/>
      <stop offset="1" stop-color="#f6bc42" stop-opacity="0.22"/>
    </linearGradient>
  </defs>
  <rect width="800" height="420" fill="url(#bg)"/>
  <circle cx="120" cy="296" r="131" fill="#26b99f" opacity="0.13"/>
  <circle cx="474" cy="270" r="122" fill="#f6bc42" opacity="0.16"/>
  <circle cx="426" cy="221" r="5" fill="#15191d" opacity="0.29000000000000004"/><circle cx="733" cy="310" r="5" fill="#15191d" opacity="0.28"/><circle cx="324" cy="57" r="2" fill="#15191d" opacity="0.72"/><circle cx="631" cy="147" r="2" fill="#15191d" opacity="0.71"/><circle cx="222" cy="236" r="2" fill="#15191d" opacity="0.7"/><circle cx="529" cy="325" r="2" fill="#15191d" opacity="0.69"/><circle cx="120" cy="72" r="2" fill="#15191d" opacity="0.68"/><circle cx="427" cy="161" r="2" fill="#15191d" opacity="0.67"/><circle cx="118" cy="192" r="5" fill="#15191d" opacity="0.37"/>
  <rect x="118" y="78" width="564" height="264" rx="26" fill="#f6bc42"/><path d="M400 78v264M118 210h564" stroke="#fff" stroke-width="7" opacity=".76"/><circle cx="400" cy="210" r="58" fill="none" stroke="#fff" stroke-width="7" opacity=".76"/><circle cx="372" cy="236" r="32" fill="#fff"/><path d="M340 236h64M372 204v64" stroke="#26b99f" stroke-width="5" opacity=".5"/>
</svg>
