<svg xmlns="http://www.w3.org/2000/svg" viewBox="0 0 800 420" role="img" aria-label="Ilustracion propia de historia y archivo para esta pregunta">
  <defs>
    <linearGradient id="bg" x1="0" x2="1" y1="0" y2="1">
      <stop stop-color="#fff4e4"/>
      <stop offset="1" stop-color="#15191d" stop-opacity="0.22"/>
    </linearGradient>
  </defs>
  <rect width="800" height="420" fill="url(#bg)"/>
  <circle cx="442" cy="137" r="132" fill="#15191d" opacity="0.13"/>
  <circle cx="364" cy="178" r="102" fill="#d9cec1" opacity="0.16"/>
  <circle cx="719" cy="347" r="3" fill="#f6bc42" opacity="0.39"/><circle cx="412" cy="258" r="3" fill="#f6bc42" opacity="0.4"/><circle cx="105" cy="169" r="3" fill="#f6bc42" opacity="0.41000000000000003"/><circle cx="514" cy="80" r="3" fill="#f6bc42" opacity="0.42000000000000004"/><circle cx="207" cy="333" r="3" fill="#f6bc42" opacity="0.43000000000000005"/><circle cx="616" cy="244" r="3" fill="#f6bc42" opacity="0.44000000000000006"/><circle cx="309" cy="154" r="3" fill="#f6bc42" opacity="0.45000000000000007"/><circle cx="718" cy="65" r="3" fill="#f6bc42" opacity="0.46"/><circle cx="411" cy="318" r="3" fill="#f6bc42" opacity="0.47000000000000003"/>
  <rect x="148" y="130" width="220" height="210" rx="18" fill="#fffaf4" stroke="#f6bc42" stroke-width="5"/><rect x="182" y="172" width="152" height="12" rx="6" fill="#15191d" opacity=".2"/><rect x="182" y="212" width="120" height="12" rx="6" fill="#15191d" opacity=".2"/><path d="M470 170h210L575 94z" fill="#15191d"/><rect x="500" y="190" width="32" height="120" rx="6" fill="#15191d"/><rect x="560" y="190" width="32" height="120" rx="6" fill="#15191d"/><rect x="620" y="190" width="32" height="120" rx="6" fill="#15191d"/>
</svg>
