<svg xmlns="http://www.w3.org/2000/svg" viewBox="0 0 800 420" role="img" aria-label="Ilustracion propia de videojuegos para esta pregunta">
  <defs>
    <linearGradient id="bg" x1="0" x2="1" y1="0" y2="1">
      <stop stop-color="#f4efff"/>
      <stop offset="1" stop-color="#15191d" stop-opacity="0.22"/>
    </linearGradient>
  </defs>
  <rect width="800" height="420" fill="url(#bg)"/>
  <circle cx="576" cy="92" r="82" fill="#15191d" opacity="0.13"/>
  <circle cx="456" cy="173" r="106" fill="#9b5cff" opacity="0.16"/>
  <circle cx="282" cy="374" r="3" fill="#12b7a6" opacity="0.56"/><circle cx="589" cy="121" r="3" fill="#12b7a6" opacity="0.55"/><circle cx="180" cy="210" r="3" fill="#12b7a6" opacity="0.54"/><circle cx="487" cy="299" r="3" fill="#12b7a6" opacity="0.53"/><circle cx="78" cy="46" r="3" fill="#12b7a6" opacity="0.52"/><circle cx="385" cy="135" r="3" fill="#12b7a6" opacity="0.51"/><circle cx="692" cy="224" r="3" fill="#12b7a6" opacity="0.5"/><circle cx="283" cy="314" r="3" fill="#12b7a6" opacity="0.49"/><circle cx="590" cy="61" r="3" fill="#12b7a6" opacity="0.48000000000000004"/>
  <path d="M226 160c40-54 310-54 348 0l58 104c24 44-12 86-58 64l-74-36H300l-74 36c-46 22-82-20-58-64z" fill="#15191d"/><path d="M284 232h82M325 191v82" stroke="#fff" stroke-width="20" stroke-linecap="round"/><circle cx="494" cy="218" r="20" fill="#12b7a6"/><circle cx="548" cy="252" r="20" fill="#fffaf4"/><circle cx="456" cy="252" r="20" fill="#12b7a6"/>
</svg>
