<svg xmlns="http://www.w3.org/2000/svg" viewBox="0 0 800 420" role="img" aria-label="Ilustracion propia de videojuegos para esta pregunta">
  <defs>
    <linearGradient id="bg" x1="0" x2="1" y1="0" y2="1">
      <stop stop-color="#f4efff"/>
      <stop offset="1" stop-color="#9b5cff" stop-opacity="0.22"/>
    </linearGradient>
  </defs>
  <rect width="800" height="420" fill="url(#bg)"/>
  <circle cx="598" cy="217" r="93" fill="#15191d" opacity="0.13"/>
  <circle cx="308" cy="295" r="137" fill="#9b5cff" opacity="0.16"/>
  <circle cx="417" cy="155" r="2" fill="#12b7a6" opacity="0.63"/><circle cx="110" cy="66" r="2" fill="#12b7a6" opacity="0.64"/><circle cx="315" cy="333" r="2" fill="#12b7a6" opacity="0.6100000000000001"/><circle cx="724" cy="244" r="2" fill="#12b7a6" opacity="0.6200000000000001"/><circle cx="213" cy="170" r="3" fill="#12b7a6" opacity="0.5900000000000001"/><circle cx="622" cy="80" r="3" fill="#12b7a6" opacity="0.6000000000000001"/><circle cx="111" cy="348" r="3" fill="#12b7a6" opacity="0.5700000000000001"/><circle cx="520" cy="259" r="3" fill="#12b7a6" opacity="0.5800000000000001"/><circle cx="725" cy="184" r="3" fill="#12b7a6" opacity="0.55"/>
  <path d="M226 160c40-54 310-54 348 0l58 104c24 44-12 86-58 64l-74-36H300l-74 36c-46 22-82-20-58-64z" fill="#15191d"/><path d="M284 232h82M325 191v82" stroke="#fff" stroke-width="20" stroke-linecap="round"/><circle cx="518" cy="218" r="20" fill="#12b7a6"/><circle cx="568" cy="252" r="20" fill="#fffaf4"/><circle cx="456" cy="252" r="20" fill="#12b7a6"/>
</svg>
