<svg xmlns="http://www.w3.org/2000/svg" viewBox="0 0 800 420" role="img" aria-label="Ilustracion propia de historia y archivo para esta pregunta">
  <defs>
    <linearGradient id="bg" x1="0" x2="1" y1="0" y2="1">
      <stop stop-color="#fff4e4"/>
      <stop offset="1" stop-color="#f6bc42" stop-opacity="0.22"/>
    </linearGradient>
  </defs>
  <rect width="800" height="420" fill="url(#bg)"/>
  <circle cx="467" cy="313" r="137" fill="#15191d" opacity="0.13"/>
  <circle cx="517" cy="343" r="73" fill="#d9cec1" opacity="0.16"/>
  <circle cx="132" cy="139" r="4" fill="#f6bc42" opacity="0.65"/><circle cx="439" cy="228" r="5" fill="#f6bc42" opacity="0.64"/><circle cx="234" cy="302" r="4" fill="#f6bc42" opacity="0.67"/><circle cx="541" cy="49" r="4" fill="#f6bc42" opacity="0.66"/><circle cx="336" cy="124" r="4" fill="#f6bc42" opacity="0.69"/><circle cx="643" cy="213" r="4" fill="#f6bc42" opacity="0.68"/><circle cx="438" cy="288" r="4" fill="#f6bc42" opacity="0.71"/><circle cx="745" cy="377" r="4" fill="#f6bc42" opacity="0.7"/><circle cx="440" cy="168" r="5" fill="#f6bc42" opacity="0.5700000000000001"/>
  <rect x="148" y="130" width="220" height="210" rx="18" fill="#fffaf4" stroke="#f6bc42" stroke-width="5"/><rect x="182" y="172" width="152" height="12" rx="6" fill="#15191d" opacity=".2"/><rect x="182" y="212" width="120" height="12" rx="6" fill="#15191d" opacity=".2"/><path d="M470 170h210L575 94z" fill="#15191d"/><rect x="500" y="190" width="32" height="120" rx="6" fill="#15191d"/><rect x="560" y="190" width="32" height="120" rx="6" fill="#15191d"/><rect x="620" y="190" width="32" height="120" rx="6" fill="#15191d"/>
</svg>
