<svg xmlns="http://www.w3.org/2000/svg" viewBox="0 0 800 420" role="img" aria-label="Ilustracion propia de tecnologia para esta pregunta">
  <defs>
    <linearGradient id="bg" x1="0" x2="1" y1="0" y2="1">
      <stop stop-color="#111820"/>
      <stop offset="1" stop-color="#315be8" stop-opacity="0.22"/>
    </linearGradient>
  </defs>
  <rect width="800" height="420" fill="url(#bg)"/>
  <circle cx="122" cy="279" r="87" fill="#fffaf4" opacity="0.13"/>
  <circle cx="324" cy="232" r="76" fill="#315be8" opacity="0.16"/>
  <circle cx="705" cy="370" r="5" fill="#12b7a6" opacity="0.64"/><circle cx="398" cy="280" r="5" fill="#12b7a6" opacity="0.65"/><circle cx="603" cy="206" r="5" fill="#12b7a6" opacity="0.6200000000000001"/><circle cx="296" cy="117" r="5" fill="#12b7a6" opacity="0.63"/><circle cx="193" cy="355" r="5" fill="#12b7a6" opacity="0.68"/><circle cx="602" cy="266" r="5" fill="#12b7a6" opacity="0.69"/><circle cx="91" cy="191" r="5" fill="#12b7a6" opacity="0.66"/><circle cx="500" cy="102" r="5" fill="#12b7a6" opacity="0.67"/><circle cx="397" cy="340" r="5" fill="#12b7a6" opacity="0.72"/>
  <rect width="800" height="420" fill="#fffaf4"/><rect x="108" y="72" width="584" height="276" rx="28" fill="#315be8"/><rect x="108" y="72" width="584" height="58" rx="28" fill="#12b7a6"/><path d="M222 206l-62 44 62 44M578 206l62 44-62 44" stroke="#fffaf4" stroke-width="20" stroke-linecap="round" stroke-linejoin="round" fill="none"/><path d="M364 306l72-184" stroke="#12b7a6" stroke-width="18" stroke-linecap="round"/>
</svg>
