<svg xmlns="http://www.w3.org/2000/svg" viewBox="0 0 800 420" role="img" aria-label="Ilustracion propia de historia y archivo para esta pregunta">
  <defs>
    <linearGradient id="bg" x1="0" x2="1" y1="0" y2="1">
      <stop stop-color="#fff4e4"/>
      <stop offset="1" stop-color="#f6bc42" stop-opacity="0.22"/>
    </linearGradient>
  </defs>
  <rect width="800" height="420" fill="url(#bg)"/>
  <circle cx="337" cy="224" r="97" fill="#15191d" opacity="0.13"/>
  <circle cx="651" cy="296" r="88" fill="#d9cec1" opacity="0.16"/>
  <circle cx="318" cy="129" r="5" fill="#f6bc42" opacity="0.72"/><circle cx="625" cy="218" r="5" fill="#f6bc42" opacity="0.71"/><circle cx="216" cy="307" r="5" fill="#f6bc42" opacity="0.7"/><circle cx="523" cy="54" r="5" fill="#f6bc42" opacity="0.69"/><circle cx="522" cy="114" r="5" fill="#f6bc42" opacity="0.31000000000000005"/><circle cx="113" cy="203" r="5" fill="#f6bc42" opacity="0.30000000000000004"/><circle cx="420" cy="292" r="5" fill="#f6bc42" opacity="0.29000000000000004"/><circle cx="727" cy="40" r="5" fill="#f6bc42" opacity="0.28"/><circle cx="726" cy="99" r="5" fill="#f6bc42" opacity="0.35000000000000003"/>
  <rect x="148" y="130" width="220" height="210" rx="18" fill="#fffaf4" stroke="#f6bc42" stroke-width="5"/><rect x="182" y="172" width="152" height="12" rx="6" fill="#15191d" opacity=".2"/><rect x="182" y="212" width="120" height="12" rx="6" fill="#15191d" opacity=".2"/><path d="M470 170h210L575 94z" fill="#15191d"/><rect x="500" y="190" width="32" height="120" rx="6" fill="#15191d"/><rect x="560" y="190" width="32" height="120" rx="6" fill="#15191d"/><rect x="620" y="190" width="32" height="120" rx="6" fill="#15191d"/>
</svg>
