<svg xmlns="http://www.w3.org/2000/svg" viewBox="0 0 800 420" role="img" aria-label="Ilustracion propia de historia y archivo para esta pregunta">
  <defs>
    <linearGradient id="bg" x1="0" x2="1" y1="0" y2="1">
      <stop stop-color="#fff4e4"/>
      <stop offset="1" stop-color="#d9cec1" stop-opacity="0.22"/>
    </linearGradient>
  </defs>
  <rect width="800" height="420" fill="url(#bg)"/>
  <circle cx="362" cy="103" r="77" fill="#15191d" opacity="0.13"/>
  <circle cx="279" cy="67" r="105" fill="#d9cec1" opacity="0.16"/>
  <circle cx="270" cy="334" r="5" fill="#f6bc42" opacity="0.52"/><circle cx="577" cy="82" r="5" fill="#f6bc42" opacity="0.51"/><circle cx="168" cy="171" r="5" fill="#f6bc42" opacity="0.5"/><circle cx="475" cy="260" r="5" fill="#f6bc42" opacity="0.49"/><circle cx="66" cy="349" r="5" fill="#f6bc42" opacity="0.48000000000000004"/><circle cx="373" cy="96" r="5" fill="#f6bc42" opacity="0.47000000000000003"/><circle cx="680" cy="185" r="5" fill="#f6bc42" opacity="0.46"/><circle cx="271" cy="274" r="5" fill="#f6bc42" opacity="0.45000000000000007"/><circle cx="578" cy="364" r="5" fill="#f6bc42" opacity="0.44000000000000006"/>
  <rect x="148" y="130" width="220" height="210" rx="18" fill="#fffaf4" stroke="#f6bc42" stroke-width="5"/><rect x="182" y="172" width="152" height="12" rx="6" fill="#15191d" opacity=".2"/><rect x="182" y="212" width="120" height="12" rx="6" fill="#15191d" opacity=".2"/><path d="M470 170h210L575 94z" fill="#15191d"/><rect x="500" y="190" width="32" height="120" rx="6" fill="#15191d"/><rect x="560" y="190" width="32" height="120" rx="6" fill="#15191d"/><rect x="620" y="190" width="32" height="120" rx="6" fill="#15191d"/>
</svg>
