<svg xmlns="http://www.w3.org/2000/svg" viewBox="0 0 800 420" role="img" aria-label="Ilustracion propia de historia y archivo para esta pregunta">
  <defs>
    <linearGradient id="bg" x1="0" x2="1" y1="0" y2="1">
      <stop stop-color="#fff4e4"/>
      <stop offset="1" stop-color="#fff4e4" stop-opacity="0.22"/>
    </linearGradient>
  </defs>
  <rect width="800" height="420" fill="url(#bg)"/>
  <circle cx="604" cy="150" r="106" fill="#15191d" opacity="0.13"/>
  <circle cx="459" cy="108" r="139" fill="#d9cec1" opacity="0.16"/>
  <circle cx="321" cy="275" r="2" fill="#f6bc42" opacity="0.5700000000000001"/><circle cx="730" cy="186" r="2" fill="#f6bc42" opacity="0.5800000000000001"/><circle cx="219" cy="112" r="2" fill="#f6bc42" opacity="0.55"/><circle cx="628" cy="364" r="2" fill="#f6bc42" opacity="0.56"/><circle cx="117" cy="290" r="2" fill="#f6bc42" opacity="0.53"/><circle cx="526" cy="201" r="2" fill="#f6bc42" opacity="0.54"/><circle cx="731" cy="126" r="2" fill="#f6bc42" opacity="0.51"/><circle cx="424" cy="37" r="2" fill="#f6bc42" opacity="0.52"/><circle cx="729" cy="246" r="2" fill="#f6bc42" opacity="0.65"/>
  <rect x="184" y="130" width="220" height="210" rx="18" fill="#fffaf4" stroke="#f6bc42" stroke-width="5"/><rect x="218" y="172" width="152" height="12" rx="6" fill="#15191d" opacity=".2"/><rect x="218" y="212" width="120" height="12" rx="6" fill="#15191d" opacity=".2"/><path d="M470 170h210L575 94z" fill="#15191d"/><rect x="500" y="190" width="32" height="120" rx="6" fill="#15191d"/><rect x="560" y="190" width="32" height="120" rx="6" fill="#15191d"/><rect x="620" y="190" width="32" height="120" rx="6" fill="#15191d"/>
</svg>
