<svg xmlns="http://www.w3.org/2000/svg" viewBox="0 0 800 420" role="img" aria-label="Ilustracion propia de historia y archivo para esta pregunta">
  <defs>
    <linearGradient id="bg" x1="0" x2="1" y1="0" y2="1">
      <stop stop-color="#fff4e4"/>
      <stop offset="1" stop-color="#d9cec1" stop-opacity="0.22"/>
    </linearGradient>
  </defs>
  <rect width="800" height="420" fill="url(#bg)"/>
  <circle cx="327" cy="185" r="95" fill="#15191d" opacity="0.13"/>
  <circle cx="349" cy="256" r="67" fill="#d9cec1" opacity="0.16"/>
  <circle cx="334" cy="232" r="5" fill="#f6bc42" opacity="0.5800000000000001"/><circle cx="641" cy="322" r="5" fill="#f6bc42" opacity="0.5700000000000001"/><circle cx="232" cy="69" r="5" fill="#f6bc42" opacity="0.56"/><circle cx="539" cy="158" r="5" fill="#f6bc42" opacity="0.55"/><circle cx="538" cy="218" r="4" fill="#f6bc42" opacity="0.6200000000000001"/><circle cx="129" cy="307" r="5" fill="#f6bc42" opacity="0.6100000000000001"/><circle cx="436" cy="54" r="5" fill="#f6bc42" opacity="0.6000000000000001"/><circle cx="743" cy="143" r="5" fill="#f6bc42" opacity="0.5900000000000001"/><circle cx="642" cy="262" r="5" fill="#f6bc42" opacity="0.5"/>
  <rect x="148" y="130" width="220" height="210" rx="18" fill="#fffaf4" stroke="#f6bc42" stroke-width="5"/><rect x="182" y="172" width="152" height="12" rx="6" fill="#15191d" opacity=".2"/><rect x="182" y="212" width="120" height="12" rx="6" fill="#15191d" opacity=".2"/><path d="M470 170h210L575 94z" fill="#15191d"/><rect x="500" y="190" width="32" height="120" rx="6" fill="#15191d"/><rect x="560" y="190" width="32" height="120" rx="6" fill="#15191d"/><rect x="620" y="190" width="32" height="120" rx="6" fill="#15191d"/>
</svg>
