<svg xmlns="http://www.w3.org/2000/svg" viewBox="0 0 800 420" role="img" aria-label="Ilustracion propia de oceano y olas para esta pregunta">
  <defs>
    <linearGradient id="bg" x1="0" x2="1" y1="0" y2="1">
      <stop stop-color="#dff8ff"/>
      <stop offset="1" stop-color="#fffaf4" stop-opacity="0.22"/>
    </linearGradient>
  </defs>
  <rect width="800" height="420" fill="url(#bg)"/>
  <circle cx="318" cy="188" r="103" fill="#12b7a6" opacity="0.13"/>
  <circle cx="648" cy="256" r="78" fill="#315be8" opacity="0.16"/>
  <circle cx="129" cy="125" r="3" fill="#fffaf4" opacity="0.51"/><circle cx="538" cy="36" r="3" fill="#fffaf4" opacity="0.52"/><circle cx="743" cy="303" r="3" fill="#fffaf4" opacity="0.49"/><circle cx="436" cy="214" r="3" fill="#fffaf4" opacity="0.5"/><circle cx="641" cy="139" r="3" fill="#fffaf4" opacity="0.47000000000000003"/><circle cx="334" cy="50" r="3" fill="#fffaf4" opacity="0.48000000000000004"/><circle cx="539" cy="318" r="3" fill="#fffaf4" opacity="0.45000000000000007"/><circle cx="232" cy="229" r="3" fill="#fffaf4" opacity="0.46"/><circle cx="537" cy="96" r="3" fill="#fffaf4" opacity="0.5900000000000001"/>
  <path d="M0 240c88-42 144 42 232 0s144 42 232 0 144 42 232 0 144 42 232 0v180H0z" fill="#fff" opacity=".34"/><path d="M0 306c88-42 144 42 232 0s144 42 232 0 144 42 232 0 144 42 232 0" fill="none" stroke="#fff" stroke-width="18" opacity=".62"/><path d="M142 174c82-44 170-44 252 0" fill="none" stroke="#fff" stroke-width="10" opacity=".45" stroke-linecap="round"/>
</svg>
