<svg xmlns="http://www.w3.org/2000/svg" viewBox="0 0 800 420" role="img" aria-label="Ilustracion propia de escenario musical para esta pregunta">
  <defs>
    <linearGradient id="bg" x1="0" x2="1" y1="0" y2="1">
      <stop stop-color="#201525"/>
      <stop offset="1" stop-color="#201525" stop-opacity="0.22"/>
    </linearGradient>
  </defs>
  <rect width="800" height="420" fill="url(#bg)"/>
  <circle cx="691" cy="96" r="132" fill="#fffaf4" opacity="0.13"/>
  <circle cx="170" cy="66" r="142" fill="#ff4f6d" opacity="0.16"/>
  <circle cx="756" cy="219" r="5" fill="#12b7a6" opacity="0.51"/><circle cx="347" cy="308" r="5" fill="#12b7a6" opacity="0.5"/><circle cx="142" cy="41" r="5" fill="#12b7a6" opacity="0.53"/><circle cx="449" cy="130" r="5" fill="#12b7a6" opacity="0.52"/><circle cx="552" cy="234" r="5" fill="#12b7a6" opacity="0.47000000000000003"/><circle cx="143" cy="323" r="5" fill="#12b7a6" opacity="0.46"/><circle cx="654" cy="55" r="5" fill="#12b7a6" opacity="0.49"/><circle cx="245" cy="144" r="5" fill="#12b7a6" opacity="0.48000000000000004"/><circle cx="448" cy="190" r="5" fill="#12b7a6" opacity="0.5900000000000001"/>
  <rect width="800" height="420" fill="#fffaf4"/><path d="M110 0l170 290M690 0L510 290" stroke="#12b7a6" stroke-width="34" opacity=".5"/><rect x="150" y="292" width="500" height="54" rx="20" fill="#ff4f6d" opacity=".9"/><path d="M280 292c26-80 214-80 240 0" fill="none" stroke="#fffaf4" stroke-width="16"/><path d="M396 98v126c0 28-24 50-58 50s-58-22-58-50 24-50 58-50c12 0 23 3 32 8V98z" fill="#ff4f6d"/>
</svg>
