<svg xmlns="http://www.w3.org/2000/svg" viewBox="0 0 800 420" role="img" aria-label="Ilustracion propia de historia y archivo para esta pregunta">
  <defs>
    <linearGradient id="bg" x1="0" x2="1" y1="0" y2="1">
      <stop stop-color="#fff4e4"/>
      <stop offset="1" stop-color="#fff4e4" stop-opacity="0.22"/>
    </linearGradient>
  </defs>
  <rect width="800" height="420" fill="url(#bg)"/>
  <circle cx="282" cy="111" r="86" fill="#15191d" opacity="0.13"/>
  <circle cx="494" cy="103" r="86" fill="#d9cec1" opacity="0.16"/>
  <circle cx="525" cy="95" r="4" fill="#f6bc42" opacity="0.29000000000000004"/><circle cx="218" cy="348" r="4" fill="#f6bc42" opacity="0.30000000000000004"/><circle cx="423" cy="273" r="4" fill="#f6bc42" opacity="0.72"/><circle cx="116" cy="184" r="4" fill="#f6bc42" opacity="0.28"/><circle cx="321" cy="109" r="4" fill="#f6bc42" opacity="0.7"/><circle cx="730" cy="362" r="4" fill="#f6bc42" opacity="0.71"/><circle cx="219" cy="288" r="4" fill="#f6bc42" opacity="0.68"/><circle cx="628" cy="198" r="4" fill="#f6bc42" opacity="0.69"/><circle cx="217" cy="66" r="4" fill="#f6bc42" opacity="0.37"/>
  <rect x="148" y="130" width="220" height="210" rx="18" fill="#fffaf4" stroke="#f6bc42" stroke-width="5"/><rect x="182" y="172" width="152" height="12" rx="6" fill="#15191d" opacity=".2"/><rect x="182" y="212" width="120" height="12" rx="6" fill="#15191d" opacity=".2"/><path d="M470 170h210L575 94z" fill="#15191d"/><rect x="500" y="190" width="32" height="120" rx="6" fill="#15191d"/><rect x="560" y="190" width="32" height="120" rx="6" fill="#15191d"/><rect x="620" y="190" width="32" height="120" rx="6" fill="#15191d"/>
</svg>
