<svg xmlns="http://www.w3.org/2000/svg" viewBox="0 0 800 420" role="img" aria-label="Ilustracion propia de tecnologia para esta pregunta">
  <defs>
    <linearGradient id="bg" x1="0" x2="1" y1="0" y2="1">
      <stop stop-color="#111820"/>
      <stop offset="1" stop-color="#fffaf4" stop-opacity="0.22"/>
    </linearGradient>
  </defs>
  <rect width="800" height="420" fill="url(#bg)"/>
  <circle cx="228" cy="95" r="66" fill="#fffaf4" opacity="0.13"/>
  <circle cx="262" cy="66" r="74" fill="#315be8" opacity="0.16"/>
  <circle cx="727" cy="128" r="3" fill="#12b7a6" opacity="0.29000000000000004"/><circle cx="420" cy="39" r="3" fill="#12b7a6" opacity="0.30000000000000004"/><circle cx="113" cy="291" r="3" fill="#12b7a6" opacity="0.31000000000000005"/><circle cx="522" cy="202" r="3" fill="#12b7a6" opacity="0.32"/><circle cx="523" cy="142" r="3" fill="#12b7a6" opacity="0.7"/><circle cx="216" cy="53" r="3" fill="#12b7a6" opacity="0.71"/><circle cx="625" cy="306" r="3" fill="#12b7a6" opacity="0.72"/><circle cx="318" cy="217" r="3" fill="#12b7a6" opacity="0.28"/><circle cx="419" cy="99" r="3" fill="#12b7a6" opacity="0.37"/>
  <rect width="800" height="420" fill="#fffaf4"/><rect x="108" y="72" width="584" height="276" rx="28" fill="#315be8"/><rect x="108" y="72" width="584" height="58" rx="28" fill="#12b7a6"/><path d="M234 206l-62 44 62 44M566 206l62 44-62 44" stroke="#fffaf4" stroke-width="20" stroke-linecap="round" stroke-linejoin="round" fill="none"/><path d="M364 306l72-184" stroke="#12b7a6" stroke-width="18" stroke-linecap="round"/>
</svg>
