<svg xmlns="http://www.w3.org/2000/svg" viewBox="0 0 800 420" role="img" aria-label="Ilustracion propia de arte y museo para esta pregunta">
  <defs>
    <linearGradient id="bg" x1="0" x2="1" y1="0" y2="1">
      <stop stop-color="#fff2df"/>
      <stop offset="1" stop-color="#12b7a6" stop-opacity="0.22"/>
    </linearGradient>
  </defs>
  <rect width="800" height="420" fill="url(#bg)"/>
  <circle cx="339" cy="310" r="73" fill="#6f4a2d" opacity="0.13"/>
  <circle cx="201" cy="93" r="65" fill="#12b7a6" opacity="0.16"/>
  <circle cx="58" cy="323" r="5" fill="#ff4f6d" opacity="0.36000000000000004"/><circle cx="365" cy="70" r="5" fill="#ff4f6d" opacity="0.35000000000000003"/><circle cx="672" cy="160" r="5" fill="#ff4f6d" opacity="0.34"/><circle cx="263" cy="249" r="5" fill="#ff4f6d" opacity="0.33"/><circle cx="262" cy="309" r="5" fill="#ff4f6d" opacity="0.4"/><circle cx="569" cy="56" r="5" fill="#ff4f6d" opacity="0.39"/><circle cx="160" cy="145" r="5" fill="#ff4f6d" opacity="0.38"/><circle cx="467" cy="234" r="5" fill="#ff4f6d" opacity="0.37"/><circle cx="466" cy="294" r="5" fill="#ff4f6d" opacity="0.44000000000000006"/>
  <rect x="282" y="54" width="304" height="312" rx="24" fill="#6f4a2d"/><rect x="312" y="84" width="244" height="252" rx="16" fill="#d9c092"/><circle cx="434" cy="178" r="54" fill="#f0c7a5"/><path d="M364 318c12-82 42-120 70-120s58 38 70 120z" fill="#ff4f6d"/><path d="M378 154c36-72 116-46 122 10-36-18-74-18-122-10z" fill="#4a2d22"/>
</svg>
