<svg xmlns="http://www.w3.org/2000/svg" viewBox="0 0 800 420" role="img" aria-label="Ilustracion propia de estadio y futbol generico para esta pregunta">
  <defs>
    <linearGradient id="bg" x1="0" x2="1" y1="0" y2="1">
      <stop stop-color="#eaf8f5"/>
      <stop offset="1" stop-color="#26b99f" stop-opacity="0.22"/>
    </linearGradient>
  </defs>
  <rect width="800" height="420" fill="url(#bg)"/>
  <circle cx="488" cy="272" r="120" fill="#26b99f" opacity="0.13"/>
  <circle cx="145" cy="159" r="141" fill="#f6bc42" opacity="0.16"/>
  <circle cx="246" cy="71" r="3" fill="#15191d" opacity="0.5700000000000001"/><circle cx="553" cy="161" r="3" fill="#15191d" opacity="0.56"/><circle cx="144" cy="250" r="3" fill="#15191d" opacity="0.55"/><circle cx="451" cy="339" r="3" fill="#15191d" opacity="0.54"/><circle cx="42" cy="86" r="3" fill="#15191d" opacity="0.53"/><circle cx="349" cy="175" r="3" fill="#15191d" opacity="0.52"/><circle cx="656" cy="264" r="3" fill="#15191d" opacity="0.51"/><circle cx="247" cy="353" r="3" fill="#15191d" opacity="0.5"/><circle cx="554" cy="101" r="3" fill="#15191d" opacity="0.49"/>
  <rect x="118" y="78" width="564" height="264" rx="26" fill="#f6bc42"/><path d="M400 78v264M118 210h564" stroke="#fff" stroke-width="7" opacity=".76"/><circle cx="400" cy="210" r="58" fill="none" stroke="#fff" stroke-width="7" opacity=".76"/><circle cx="296" cy="200" r="32" fill="#fff"/><path d="M264 200h64M296 168v64" stroke="#26b99f" stroke-width="5" opacity=".5"/>
</svg>
