<svg xmlns="http://www.w3.org/2000/svg" viewBox="0 0 800 420" role="img" aria-label="Ilustracion propia de estadio y futbol generico para esta pregunta">
  <defs>
    <linearGradient id="bg" x1="0" x2="1" y1="0" y2="1">
      <stop stop-color="#eaf8f5"/>
      <stop offset="1" stop-color="#f6bc42" stop-opacity="0.22"/>
    </linearGradient>
  </defs>
  <rect width="800" height="420" fill="url(#bg)"/>
  <circle cx="317" cy="232" r="107" fill="#26b99f" opacity="0.13"/>
  <circle cx="123" cy="262" r="139" fill="#f6bc42" opacity="0.16"/>
  <circle cx="48" cy="324" r="4" fill="#15191d" opacity="0.56"/><circle cx="355" cy="71" r="4" fill="#15191d" opacity="0.55"/><circle cx="150" cy="146" r="4" fill="#15191d" opacity="0.5800000000000001"/><circle cx="457" cy="235" r="4" fill="#15191d" opacity="0.5700000000000001"/><circle cx="252" cy="310" r="4" fill="#15191d" opacity="0.6000000000000001"/><circle cx="559" cy="57" r="4" fill="#15191d" opacity="0.5900000000000001"/><circle cx="354" cy="131" r="4" fill="#15191d" opacity="0.6200000000000001"/><circle cx="661" cy="220" r="4" fill="#15191d" opacity="0.6100000000000001"/><circle cx="356" cy="353" r="5" fill="#15191d" opacity="0.48000000000000004"/>
  <rect x="118" y="78" width="564" height="264" rx="26" fill="#f6bc42"/><path d="M400 78v264M118 210h564" stroke="#fff" stroke-width="7" opacity=".76"/><circle cx="400" cy="210" r="58" fill="none" stroke="#fff" stroke-width="7" opacity=".76"/><circle cx="258" cy="182" r="32" fill="#fff"/><path d="M226 182h64M258 150v64" stroke="#26b99f" stroke-width="5" opacity=".5"/>
</svg>
