<svg xmlns="http://www.w3.org/2000/svg" viewBox="0 0 800 420" role="img" aria-label="Ilustracion propia de historia y archivo para esta pregunta">
  <defs>
    <linearGradient id="bg" x1="0" x2="1" y1="0" y2="1">
      <stop stop-color="#fff4e4"/>
      <stop offset="1" stop-color="#15191d" stop-opacity="0.22"/>
    </linearGradient>
  </defs>
  <rect width="800" height="420" fill="url(#bg)"/>
  <circle cx="257" cy="278" r="84" fill="#15191d" opacity="0.13"/>
  <circle cx="641" cy="232" r="116" fill="#d9cec1" opacity="0.16"/>
  <circle cx="102" cy="129" r="5" fill="#f6bc42" opacity="0.5700000000000001"/><circle cx="409" cy="218" r="5" fill="#f6bc42" opacity="0.56"/><circle cx="716" cy="307" r="2" fill="#f6bc42" opacity="0.55"/><circle cx="307" cy="54" r="2" fill="#f6bc42" opacity="0.54"/><circle cx="614" cy="143" r="2" fill="#f6bc42" opacity="0.53"/><circle cx="205" cy="232" r="2" fill="#f6bc42" opacity="0.52"/><circle cx="512" cy="322" r="2" fill="#f6bc42" opacity="0.51"/><circle cx="103" cy="69" r="2" fill="#f6bc42" opacity="0.5"/><circle cx="410" cy="158" r="2" fill="#f6bc42" opacity="0.49"/>
  <rect x="148" y="130" width="220" height="210" rx="18" fill="#fffaf4" stroke="#f6bc42" stroke-width="5"/><rect x="182" y="172" width="152" height="12" rx="6" fill="#15191d" opacity=".2"/><rect x="182" y="212" width="120" height="12" rx="6" fill="#15191d" opacity=".2"/><path d="M470 170h210L575 94z" fill="#15191d"/><rect x="500" y="190" width="32" height="120" rx="6" fill="#15191d"/><rect x="560" y="190" width="32" height="120" rx="6" fill="#15191d"/><rect x="620" y="190" width="32" height="120" rx="6" fill="#15191d"/>
</svg>
