<svg xmlns="http://www.w3.org/2000/svg" viewBox="0 0 800 420" role="img" aria-label="Ilustracion propia de historia y archivo para esta pregunta">
  <defs>
    <linearGradient id="bg" x1="0" x2="1" y1="0" y2="1">
      <stop stop-color="#fff4e4"/>
      <stop offset="1" stop-color="#f6bc42" stop-opacity="0.22"/>
    </linearGradient>
  </defs>
  <rect width="800" height="420" fill="url(#bg)"/>
  <circle cx="376" cy="153" r="79" fill="#15191d" opacity="0.13"/>
  <circle cx="356" cy="109" r="95" fill="#d9cec1" opacity="0.16"/>
  <circle cx="570" cy="252" r="2" fill="#f6bc42" opacity="0.71"/><circle cx="161" cy="341" r="2" fill="#f6bc42" opacity="0.7"/><circle cx="468" cy="88" r="2" fill="#f6bc42" opacity="0.69"/><circle cx="59" cy="177" r="2" fill="#f6bc42" opacity="0.68"/><circle cx="58" cy="237" r="2" fill="#f6bc42" opacity="0.30000000000000004"/><circle cx="365" cy="326" r="2" fill="#f6bc42" opacity="0.29000000000000004"/><circle cx="672" cy="74" r="2" fill="#f6bc42" opacity="0.28"/><circle cx="263" cy="163" r="2" fill="#f6bc42" opacity="0.72"/><circle cx="262" cy="223" r="2" fill="#f6bc42" opacity="0.34"/>
  <rect x="130" y="130" width="220" height="210" rx="18" fill="#fffaf4" stroke="#f6bc42" stroke-width="5"/><rect x="164" y="172" width="152" height="12" rx="6" fill="#15191d" opacity=".2"/><rect x="164" y="212" width="120" height="12" rx="6" fill="#15191d" opacity=".2"/><path d="M470 170h210L575 94z" fill="#15191d"/><rect x="500" y="190" width="32" height="120" rx="6" fill="#15191d"/><rect x="560" y="190" width="32" height="120" rx="6" fill="#15191d"/><rect x="620" y="190" width="32" height="120" rx="6" fill="#15191d"/>
</svg>
