<svg xmlns="http://www.w3.org/2000/svg" viewBox="0 0 800 420" role="img" aria-label="Ilustracion propia de estadio y futbol generico para esta pregunta">
  <defs>
    <linearGradient id="bg" x1="0" x2="1" y1="0" y2="1">
      <stop stop-color="#eaf8f5"/>
      <stop offset="1" stop-color="#eaf8f5" stop-opacity="0.22"/>
    </linearGradient>
  </defs>
  <rect width="800" height="420" fill="url(#bg)"/>
  <circle cx="129" cy="167" r="100" fill="#26b99f" opacity="0.13"/>
  <circle cx="325" cy="146" r="78" fill="#f6bc42" opacity="0.16"/>
  <circle cx="252" cy="202" r="3" fill="#15191d" opacity="0.69"/><circle cx="559" cy="291" r="3" fill="#15191d" opacity="0.68"/><circle cx="354" cy="366" r="3" fill="#15191d" opacity="0.71"/><circle cx="661" cy="113" r="3" fill="#15191d" opacity="0.7"/><circle cx="48" cy="217" r="3" fill="#15191d" opacity="0.65"/><circle cx="355" cy="306" r="3" fill="#15191d" opacity="0.64"/><circle cx="150" cy="38" r="3" fill="#15191d" opacity="0.67"/><circle cx="457" cy="128" r="3" fill="#15191d" opacity="0.66"/><circle cx="660" cy="173" r="2" fill="#15191d" opacity="0.32"/>
  <rect x="118" y="78" width="564" height="264" rx="26" fill="#f6bc42"/><path d="M400 78v264M118 210h564" stroke="#fff" stroke-width="7" opacity=".76"/><circle cx="400" cy="210" r="58" fill="none" stroke="#fff" stroke-width="7" opacity=".76"/><circle cx="334" cy="218" r="32" fill="#fff"/><path d="M302 218h64M334 186v64" stroke="#26b99f" stroke-width="5" opacity=".5"/>
</svg>
