<svg xmlns="http://www.w3.org/2000/svg" viewBox="0 0 800 420" role="img" aria-label="Ilustracion propia de tecnologia para esta pregunta">
  <defs>
    <linearGradient id="bg" x1="0" x2="1" y1="0" y2="1">
      <stop stop-color="#111820"/>
      <stop offset="1" stop-color="#12b7a6" stop-opacity="0.22"/>
    </linearGradient>
  </defs>
  <rect width="800" height="420" fill="url(#bg)"/>
  <circle cx="99" cy="179" r="91" fill="#fffaf4" opacity="0.13"/>
  <circle cx="621" cy="148" r="117" fill="#315be8" opacity="0.16"/>
  <circle cx="184" cy="121" r="4" fill="#12b7a6" opacity="0.52"/><circle cx="491" cy="210" r="4" fill="#12b7a6" opacity="0.51"/><circle cx="286" cy="285" r="4" fill="#12b7a6" opacity="0.54"/><circle cx="593" cy="374" r="4" fill="#12b7a6" opacity="0.53"/><circle cx="388" cy="107" r="4" fill="#12b7a6" opacity="0.56"/><circle cx="695" cy="196" r="4" fill="#12b7a6" opacity="0.55"/><circle cx="490" cy="270" r="4" fill="#12b7a6" opacity="0.5800000000000001"/><circle cx="81" cy="360" r="4" fill="#12b7a6" opacity="0.5700000000000001"/><circle cx="592" cy="92" r="4" fill="#12b7a6" opacity="0.6000000000000001"/>
  <rect width="800" height="420" fill="#fffaf4"/><rect x="108" y="72" width="584" height="276" rx="28" fill="#315be8"/><rect x="108" y="72" width="584" height="58" rx="28" fill="#12b7a6"/><path d="M246 206l-62 44 62 44M554 206l62 44-62 44" stroke="#fffaf4" stroke-width="20" stroke-linecap="round" stroke-linejoin="round" fill="none"/><path d="M364 306l72-184" stroke="#12b7a6" stroke-width="18" stroke-linecap="round"/>
</svg>
