<svg xmlns="http://www.w3.org/2000/svg" viewBox="0 0 800 420" role="img" aria-label="Ilustracion propia de estadio y futbol generico para esta pregunta">
  <defs>
    <linearGradient id="bg" x1="0" x2="1" y1="0" y2="1">
      <stop stop-color="#eaf8f5"/>
      <stop offset="1" stop-color="#eaf8f5" stop-opacity="0.22"/>
    </linearGradient>
  </defs>
  <rect width="800" height="420" fill="url(#bg)"/>
  <circle cx="172" cy="323" r="110" fill="#26b99f" opacity="0.13"/>
  <circle cx="180" cy="309" r="89" fill="#f6bc42" opacity="0.16"/>
  <circle cx="665" cy="242" r="3" fill="#15191d" opacity="0.5"/><circle cx="358" cy="153" r="3" fill="#15191d" opacity="0.51"/><circle cx="563" cy="78" r="3" fill="#15191d" opacity="0.48000000000000004"/><circle cx="256" cy="331" r="3" fill="#15191d" opacity="0.49"/><circle cx="461" cy="256" r="3" fill="#15191d" opacity="0.46"/><circle cx="154" cy="167" r="3" fill="#15191d" opacity="0.47000000000000003"/><circle cx="359" cy="93" r="3" fill="#15191d" opacity="0.44000000000000006"/><circle cx="52" cy="346" r="3" fill="#15191d" opacity="0.45000000000000007"/><circle cx="257" cy="271" r="3" fill="#15191d" opacity="0.42000000000000004"/>
  <rect x="118" y="78" width="564" height="264" rx="26" fill="#f6bc42"/><path d="M400 78v264M118 210h564" stroke="#fff" stroke-width="7" opacity=".76"/><circle cx="400" cy="210" r="58" fill="none" stroke="#fff" stroke-width="7" opacity=".76"/><circle cx="258" cy="182" r="32" fill="#fff"/><path d="M226 182h64M258 150v64" stroke="#26b99f" stroke-width="5" opacity=".5"/>
</svg>
