<svg xmlns="http://www.w3.org/2000/svg" viewBox="0 0 800 420" role="img" aria-label="Ilustracion propia de espacio y planetas para esta pregunta">
  <defs>
    <linearGradient id="bg" x1="0" x2="1" y1="0" y2="1">
      <stop stop-color="#12171a"/>
      <stop offset="1" stop-color="#12171a" stop-opacity="0.22"/>
    </linearGradient>
  </defs>
  <rect width="800" height="420" fill="url(#bg)"/>
  <circle cx="499" cy="95" r="116" fill="#e46b4f" opacity="0.13"/>
  <circle cx="596" cy="66" r="110" fill="#f6bc42" opacity="0.16"/>
  <circle cx="592" cy="217" r="5" fill="#315be8" opacity="0.54"/><circle cx="183" cy="306" r="5" fill="#315be8" opacity="0.53"/><circle cx="694" cy="39" r="5" fill="#315be8" opacity="0.56"/><circle cx="285" cy="128" r="5" fill="#315be8" opacity="0.55"/><circle cx="80" cy="202" r="5" fill="#315be8" opacity="0.5800000000000001"/><circle cx="387" cy="291" r="5" fill="#315be8" opacity="0.5700000000000001"/><circle cx="182" cy="366" r="5" fill="#315be8" opacity="0.6000000000000001"/><circle cx="489" cy="113" r="5" fill="#315be8" opacity="0.5900000000000001"/><circle cx="284" cy="188" r="5" fill="#315be8" opacity="0.6200000000000001"/>
  <rect width="800" height="420" fill="#e46b4f"/><circle cx="388" cy="218" r="91" fill="#f6bc42"/><path d="M230 212c36 14 66-22 112-2" stroke="#8f3327" stroke-width="12" stroke-linecap="round" opacity=".36"/><circle cx="432" cy="214" r="60" fill="#315be8"/><circle cx="600" cy="276" r="32" fill="#fffaf4"/><path d="M176 324c140 46 308 54 476 0" stroke="#fff" stroke-width="5" fill="none" opacity=".38"/>
</svg>
