<svg xmlns="http://www.w3.org/2000/svg" viewBox="0 0 800 420" role="img" aria-label="Ilustracion propia de historia y archivo para esta pregunta">
  <defs>
    <linearGradient id="bg" x1="0" x2="1" y1="0" y2="1">
      <stop stop-color="#fff4e4"/>
      <stop offset="1" stop-color="#d9cec1" stop-opacity="0.22"/>
    </linearGradient>
  </defs>
  <rect width="800" height="420" fill="url(#bg)"/>
  <circle cx="576" cy="199" r="135" fill="#15191d" opacity="0.13"/>
  <circle cx="156" cy="293" r="102" fill="#d9cec1" opacity="0.16"/>
  <circle cx="408" cy="116" r="2" fill="#f6bc42" opacity="0.6000000000000001"/><circle cx="715" cy="205" r="2" fill="#f6bc42" opacity="0.5900000000000001"/><circle cx="510" cy="280" r="2" fill="#f6bc42" opacity="0.6200000000000001"/><circle cx="101" cy="369" r="2" fill="#f6bc42" opacity="0.6100000000000001"/><circle cx="204" cy="131" r="2" fill="#f6bc42" opacity="0.56"/><circle cx="511" cy="220" r="2" fill="#f6bc42" opacity="0.55"/><circle cx="306" cy="294" r="2" fill="#f6bc42" opacity="0.5800000000000001"/><circle cx="613" cy="41" r="2" fill="#f6bc42" opacity="0.5700000000000001"/><circle cx="716" cy="145" r="3" fill="#f6bc42" opacity="0.52"/>
  <rect x="130" y="130" width="220" height="210" rx="18" fill="#fffaf4" stroke="#f6bc42" stroke-width="5"/><rect x="164" y="172" width="152" height="12" rx="6" fill="#15191d" opacity=".2"/><rect x="164" y="212" width="120" height="12" rx="6" fill="#15191d" opacity=".2"/><path d="M470 170h210L575 94z" fill="#15191d"/><rect x="500" y="190" width="32" height="120" rx="6" fill="#15191d"/><rect x="560" y="190" width="32" height="120" rx="6" fill="#15191d"/><rect x="620" y="190" width="32" height="120" rx="6" fill="#15191d"/>
</svg>
