<svg xmlns="http://www.w3.org/2000/svg" viewBox="0 0 800 420" role="img" aria-label="Ilustracion propia de oceano y olas para esta pregunta">
  <defs>
    <linearGradient id="bg" x1="0" x2="1" y1="0" y2="1">
      <stop stop-color="#dff8ff"/>
      <stop offset="1" stop-color="#fffaf4" stop-opacity="0.22"/>
    </linearGradient>
  </defs>
  <rect width="800" height="420" fill="url(#bg)"/>
  <circle cx="306" cy="320" r="67" fill="#12b7a6" opacity="0.13"/>
  <circle cx="122" cy="344" r="94" fill="#315be8" opacity="0.16"/>
  <circle cx="639" cy="184" r="5" fill="#fffaf4" opacity="0.64"/><circle cx="332" cy="95" r="5" fill="#fffaf4" opacity="0.65"/><circle cx="741" cy="348" r="5" fill="#fffaf4" opacity="0.66"/><circle cx="434" cy="259" r="5" fill="#fffaf4" opacity="0.67"/><circle cx="127" cy="170" r="5" fill="#fffaf4" opacity="0.68"/><circle cx="536" cy="81" r="5" fill="#fffaf4" opacity="0.69"/><circle cx="229" cy="333" r="5" fill="#fffaf4" opacity="0.7"/><circle cx="638" cy="244" r="5" fill="#fffaf4" opacity="0.71"/><circle cx="331" cy="155" r="5" fill="#fffaf4" opacity="0.72"/>
  <path d="M0 240c88-42 144 42 232 0s144 42 232 0 144 42 232 0 144 42 232 0v180H0z" fill="#fff" opacity=".34"/><path d="M0 286c88-42 144 42 232 0s144 42 232 0 144 42 232 0 144 42 232 0" fill="none" stroke="#fff" stroke-width="18" opacity=".62"/><path d="M142 174c82-44 170-44 252 0" fill="none" stroke="#fff" stroke-width="10" opacity=".45" stroke-linecap="round"/>
</svg>
