<svg xmlns="http://www.w3.org/2000/svg" viewBox="0 0 800 420" role="img" aria-label="Ilustracion propia de mapa y geografia para esta pregunta">
  <defs>
    <linearGradient id="bg" x1="0" x2="1" y1="0" y2="1">
      <stop stop-color="#eaf9f6"/>
      <stop offset="1" stop-color="#eaf9f6" stop-opacity="0.22"/>
    </linearGradient>
  </defs>
  <rect width="800" height="420" fill="url(#bg)"/>
  <circle cx="152" cy="343" r="128" fill="#fffaf4" opacity="0.13"/>
  <circle cx="103" cy="204" r="142" fill="#12b7a6" opacity="0.16"/>
  <circle cx="396" cy="148" r="5" fill="#ff4f6d" opacity="0.51"/><circle cx="703" cy="237" r="5" fill="#ff4f6d" opacity="0.5"/><circle cx="498" cy="312" r="5" fill="#ff4f6d" opacity="0.53"/><circle cx="89" cy="59" r="5" fill="#ff4f6d" opacity="0.52"/><circle cx="600" cy="133" r="5" fill="#ff4f6d" opacity="0.55"/><circle cx="191" cy="222" r="5" fill="#ff4f6d" opacity="0.54"/><circle cx="702" cy="297" r="5" fill="#ff4f6d" opacity="0.5700000000000001"/><circle cx="293" cy="44" r="5" fill="#ff4f6d" opacity="0.56"/><circle cx="88" cy="119" r="5" fill="#ff4f6d" opacity="0.5900000000000001"/>
  <path d="M100 84l170-42 160 50 170-42 100 42v244l-170 42-160-50-170 42-100-42z" fill="#12b7a6" stroke="#15191d" stroke-width="5" opacity=".94"/><path d="M270 42v286M430 92v286M600 50v286" stroke="#15191d" stroke-width="4" opacity=".16"/><path d="M126 152c80 22 106-36 176-8 72 28 94 88 182 48 86-40 128-8 184 44" fill="none" stroke="#ff4f6d" stroke-width="14" stroke-linecap="round"/><path d="M470 126c0 36-38 70-38 70s-38-34-38-70a38 38 0 0176 0z" fill="#fffaf4"/>
</svg>
