<svg xmlns="http://www.w3.org/2000/svg" viewBox="0 0 800 420" role="img" aria-label="Ilustracion propia de historia y archivo para esta pregunta">
  <defs>
    <linearGradient id="bg" x1="0" x2="1" y1="0" y2="1">
      <stop stop-color="#fff4e4"/>
      <stop offset="1" stop-color="#15191d" stop-opacity="0.22"/>
    </linearGradient>
  </defs>
  <rect width="800" height="420" fill="url(#bg)"/>
  <circle cx="601" cy="306" r="98" fill="#15191d" opacity="0.13"/>
  <circle cx="609" cy="92" r="108" fill="#d9cec1" opacity="0.16"/>
  <circle cx="191" cy="180" r="3" fill="#f6bc42" opacity="0.29000000000000004"/><circle cx="600" cy="90" r="3" fill="#f6bc42" opacity="0.30000000000000004"/><circle cx="293" cy="343" r="3" fill="#f6bc42" opacity="0.31000000000000005"/><circle cx="702" cy="254" r="3" fill="#f6bc42" opacity="0.32"/><circle cx="703" cy="194" r="3" fill="#f6bc42" opacity="0.7"/><circle cx="396" cy="105" r="3" fill="#f6bc42" opacity="0.71"/><circle cx="89" cy="358" r="3" fill="#f6bc42" opacity="0.72"/><circle cx="498" cy="269" r="3" fill="#f6bc42" opacity="0.28"/><circle cx="599" cy="150" r="3" fill="#f6bc42" opacity="0.37"/>
  <rect x="130" y="130" width="220" height="210" rx="18" fill="#fffaf4" stroke="#f6bc42" stroke-width="5"/><rect x="164" y="172" width="152" height="12" rx="6" fill="#15191d" opacity=".2"/><rect x="164" y="212" width="120" height="12" rx="6" fill="#15191d" opacity=".2"/><path d="M470 170h210L575 94z" fill="#15191d"/><rect x="500" y="190" width="32" height="120" rx="6" fill="#15191d"/><rect x="560" y="190" width="32" height="120" rx="6" fill="#15191d"/><rect x="620" y="190" width="32" height="120" rx="6" fill="#15191d"/>
</svg>
