<svg xmlns="http://www.w3.org/2000/svg" viewBox="0 0 800 420" role="img" aria-label="Ilustracion propia de historia y archivo para esta pregunta">
  <defs>
    <linearGradient id="bg" x1="0" x2="1" y1="0" y2="1">
      <stop stop-color="#fff4e4"/>
      <stop offset="1" stop-color="#15191d" stop-opacity="0.22"/>
    </linearGradient>
  </defs>
  <rect width="800" height="420" fill="url(#bg)"/>
  <circle cx="356" cy="99" r="76" fill="#15191d" opacity="0.13"/>
  <circle cx="428" cy="209" r="85" fill="#d9cec1" opacity="0.16"/>
  <circle cx="729" cy="225" r="5" fill="#f6bc42" opacity="0.64"/><circle cx="422" cy="136" r="5" fill="#f6bc42" opacity="0.65"/><circle cx="627" cy="61" r="5" fill="#f6bc42" opacity="0.6200000000000001"/><circle cx="320" cy="314" r="5" fill="#f6bc42" opacity="0.63"/><circle cx="525" cy="239" r="5" fill="#f6bc42" opacity="0.6000000000000001"/><circle cx="218" cy="150" r="5" fill="#f6bc42" opacity="0.6100000000000001"/><circle cx="655" cy="290" r="5" fill="#f6bc42" opacity="0.72"/><circle cx="116" cy="328" r="5" fill="#f6bc42" opacity="0.5900000000000001"/><circle cx="421" cy="196" r="5" fill="#f6bc42" opacity="0.72"/>
  <rect x="130" y="130" width="220" height="210" rx="18" fill="#fffaf4" stroke="#f6bc42" stroke-width="5"/><rect x="164" y="172" width="152" height="12" rx="6" fill="#15191d" opacity=".2"/><rect x="164" y="212" width="120" height="12" rx="6" fill="#15191d" opacity=".2"/><path d="M470 170h210L575 94z" fill="#15191d"/><rect x="500" y="190" width="32" height="120" rx="6" fill="#15191d"/><rect x="560" y="190" width="32" height="120" rx="6" fill="#15191d"/><rect x="620" y="190" width="32" height="120" rx="6" fill="#15191d"/>
</svg>
