<svg xmlns="http://www.w3.org/2000/svg" viewBox="0 0 800 420" role="img" aria-label="Ilustracion propia de historia y archivo para esta pregunta">
  <defs>
    <linearGradient id="bg" x1="0" x2="1" y1="0" y2="1">
      <stop stop-color="#fff4e4"/>
      <stop offset="1" stop-color="#f6bc42" stop-opacity="0.22"/>
    </linearGradient>
  </defs>
  <rect width="800" height="420" fill="url(#bg)"/>
  <circle cx="191" cy="85" r="81" fill="#15191d" opacity="0.13"/>
  <circle cx="182" cy="172" r="76" fill="#d9cec1" opacity="0.16"/>
  <circle cx="407" cy="188" r="4" fill="#f6bc42" opacity="0.72"/><circle cx="100" cy="99" r="4" fill="#f6bc42" opacity="0.28"/><circle cx="509" cy="352" r="4" fill="#f6bc42" opacity="0.29000000000000004"/><circle cx="202" cy="263" r="4" fill="#f6bc42" opacity="0.30000000000000004"/><circle cx="203" cy="203" r="4" fill="#f6bc42" opacity="0.68"/><circle cx="612" cy="114" r="4" fill="#f6bc42" opacity="0.69"/><circle cx="305" cy="366" r="4" fill="#f6bc42" opacity="0.7"/><circle cx="714" cy="277" r="4" fill="#f6bc42" opacity="0.71"/><circle cx="715" cy="217" r="4" fill="#f6bc42" opacity="0.64"/>
  <rect x="130" y="130" width="220" height="210" rx="18" fill="#fffaf4" stroke="#f6bc42" stroke-width="5"/><rect x="164" y="172" width="152" height="12" rx="6" fill="#15191d" opacity=".2"/><rect x="164" y="212" width="120" height="12" rx="6" fill="#15191d" opacity=".2"/><path d="M470 170h210L575 94z" fill="#15191d"/><rect x="500" y="190" width="32" height="120" rx="6" fill="#15191d"/><rect x="560" y="190" width="32" height="120" rx="6" fill="#15191d"/><rect x="620" y="190" width="32" height="120" rx="6" fill="#15191d"/>
</svg>
