<svg xmlns="http://www.w3.org/2000/svg" viewBox="0 0 800 420" role="img" aria-label="Ilustracion propia de circuito de velocidad para esta pregunta">
  <defs>
    <linearGradient id="bg" x1="0" x2="1" y1="0" y2="1">
      <stop stop-color="#e7f8ff"/>
      <stop offset="1" stop-color="#ff4f6d" stop-opacity="0.22"/>
    </linearGradient>
  </defs>
  <rect width="800" height="420" fill="url(#bg)"/>
  <circle cx="663" cy="327" r="89" fill="#15191d" opacity="0.13"/>
  <circle cx="541" cy="238" r="107" fill="#ff4f6d" opacity="0.16"/>
  <circle cx="713" cy="221" r="4" fill="#315be8" opacity="0.44000000000000006"/><circle cx="406" cy="132" r="4" fill="#315be8" opacity="0.45000000000000007"/><circle cx="611" cy="57" r="4" fill="#315be8" opacity="0.42000000000000004"/><circle cx="304" cy="310" r="4" fill="#315be8" opacity="0.43000000000000005"/><circle cx="509" cy="235" r="4" fill="#315be8" opacity="0.4"/><circle cx="202" cy="146" r="4" fill="#315be8" opacity="0.41000000000000003"/><circle cx="407" cy="72" r="4" fill="#315be8" opacity="0.38"/><circle cx="100" cy="325" r="4" fill="#315be8" opacity="0.39"/><circle cx="305" cy="250" r="4" fill="#315be8" opacity="0.36000000000000004"/>
  <path d="M98 300c110-170 248-42 350-120 60-46 118-84 210-28 66 40 54 132-26 152-96 24-160-50-246-24-100 30-152 94-288 20z" fill="none" stroke="#15191d" stroke-width="46" stroke-linecap="round"/><path d="M98 300c110-170 248-42 350-120 60-46 118-84 210-28 66 40 54 132-26 152-96 24-160-50-246-24-100 30-152 94-288 20z" fill="none" stroke="#fff" stroke-width="7" stroke-dasharray="24 22" stroke-linecap="round"/><rect x="328" y="250" width="150" height="42" rx="18" fill="#315be8"/><path d="M356 250l34-34h52l24 34z" fill="#fffaf4"/>
</svg>
