<svg xmlns="http://www.w3.org/2000/svg" viewBox="0 0 800 420" role="img" aria-label="Ilustracion propia de estadio y futbol generico para esta pregunta">
  <defs>
    <linearGradient id="bg" x1="0" x2="1" y1="0" y2="1">
      <stop stop-color="#eaf8f5"/>
      <stop offset="1" stop-color="#f6bc42" stop-opacity="0.22"/>
    </linearGradient>
  </defs>
  <rect width="800" height="420" fill="url(#bg)"/>
  <circle cx="434" cy="253" r="125" fill="#26b99f" opacity="0.13"/>
  <circle cx="588" cy="336" r="141" fill="#f6bc42" opacity="0.16"/>
  <circle cx="484" cy="259" r="2" fill="#15191d" opacity="0.52"/><circle cx="75" cy="348" r="2" fill="#15191d" opacity="0.51"/><circle cx="586" cy="80" r="5" fill="#15191d" opacity="0.54"/><circle cx="177" cy="169" r="2" fill="#15191d" opacity="0.53"/><circle cx="688" cy="244" r="5" fill="#15191d" opacity="0.56"/><circle cx="279" cy="333" r="5" fill="#15191d" opacity="0.55"/><circle cx="74" cy="66" r="5" fill="#15191d" opacity="0.5800000000000001"/><circle cx="381" cy="155" r="5" fill="#15191d" opacity="0.5700000000000001"/><circle cx="176" cy="229" r="5" fill="#15191d" opacity="0.6000000000000001"/>
  <rect x="118" y="78" width="564" height="264" rx="26" fill="#f6bc42"/><path d="M400 78v264M118 210h564" stroke="#fff" stroke-width="7" opacity=".76"/><circle cx="400" cy="210" r="58" fill="none" stroke="#fff" stroke-width="7" opacity=".76"/><circle cx="334" cy="218" r="32" fill="#fff"/><path d="M302 218h64M334 186v64" stroke="#26b99f" stroke-width="5" opacity=".5"/>
</svg>
