<svg xmlns="http://www.w3.org/2000/svg" viewBox="0 0 800 420" role="img" aria-label="Ilustracion propia de oceano y olas para esta pregunta">
  <defs>
    <linearGradient id="bg" x1="0" x2="1" y1="0" y2="1">
      <stop stop-color="#dff8ff"/>
      <stop offset="1" stop-color="#fffaf4" stop-opacity="0.22"/>
    </linearGradient>
  </defs>
  <rect width="800" height="420" fill="url(#bg)"/>
  <circle cx="599" cy="167" r="121" fill="#12b7a6" opacity="0.13"/>
  <circle cx="383" cy="325" r="71" fill="#315be8" opacity="0.16"/>
  <circle cx="436" cy="160" r="5" fill="#fffaf4" opacity="0.33"/><circle cx="743" cy="249" r="5" fill="#fffaf4" opacity="0.32"/><circle cx="538" cy="323" r="5" fill="#fffaf4" opacity="0.35000000000000003"/><circle cx="129" cy="70" r="5" fill="#fffaf4" opacity="0.34"/><circle cx="640" cy="145" r="5" fill="#fffaf4" opacity="0.37"/><circle cx="231" cy="234" r="5" fill="#fffaf4" opacity="0.36000000000000004"/><circle cx="742" cy="309" r="5" fill="#fffaf4" opacity="0.39"/><circle cx="333" cy="56" r="5" fill="#fffaf4" opacity="0.38"/><circle cx="744" cy="189" r="5" fill="#fffaf4" opacity="0.7"/>
  <path d="M0 240c88-42 144 42 232 0s144 42 232 0 144 42 232 0 144 42 232 0v180H0z" fill="#fff" opacity=".34"/><path d="M0 316c88-42 144 42 232 0s144 42 232 0 144 42 232 0 144 42 232 0" fill="none" stroke="#fff" stroke-width="18" opacity=".62"/><path d="M142 174c82-44 170-44 252 0" fill="none" stroke="#fff" stroke-width="10" opacity=".45" stroke-linecap="round"/>
</svg>
