<svg xmlns="http://www.w3.org/2000/svg" viewBox="0 0 800 420" role="img" aria-label="Ilustracion propia de historia y archivo para esta pregunta">
  <defs>
    <linearGradient id="bg" x1="0" x2="1" y1="0" y2="1">
      <stop stop-color="#fff4e4"/>
      <stop offset="1" stop-color="#d9cec1" stop-opacity="0.22"/>
    </linearGradient>
  </defs>
  <rect width="800" height="420" fill="url(#bg)"/>
  <circle cx="245" cy="167" r="67" fill="#15191d" opacity="0.13"/>
  <circle cx="189" cy="110" r="114" fill="#d9cec1" opacity="0.16"/>
  <circle cx="457" cy="368" r="3" fill="#f6bc42" opacity="0.53"/><circle cx="150" cy="279" r="3" fill="#f6bc42" opacity="0.54"/><circle cx="355" cy="205" r="3" fill="#f6bc42" opacity="0.51"/><circle cx="48" cy="115" r="3" fill="#f6bc42" opacity="0.52"/><circle cx="253" cy="41" r="3" fill="#f6bc42" opacity="0.49"/><circle cx="662" cy="294" r="3" fill="#f6bc42" opacity="0.5"/><circle cx="151" cy="219" r="3" fill="#f6bc42" opacity="0.47000000000000003"/><circle cx="560" cy="130" r="3" fill="#f6bc42" opacity="0.48000000000000004"/><circle cx="49" cy="55" r="3" fill="#f6bc42" opacity="0.45000000000000007"/>
  <rect x="202" y="130" width="220" height="210" rx="18" fill="#fffaf4" stroke="#f6bc42" stroke-width="5"/><rect x="236" y="172" width="152" height="12" rx="6" fill="#15191d" opacity=".2"/><rect x="236" y="212" width="120" height="12" rx="6" fill="#15191d" opacity=".2"/><path d="M470 170h210L575 94z" fill="#15191d"/><rect x="500" y="190" width="32" height="120" rx="6" fill="#15191d"/><rect x="560" y="190" width="32" height="120" rx="6" fill="#15191d"/><rect x="620" y="190" width="32" height="120" rx="6" fill="#15191d"/>
</svg>
