<svg xmlns="http://www.w3.org/2000/svg" viewBox="0 0 800 420" role="img" aria-label="Ilustracion propia de historia y archivo para esta pregunta">
  <defs>
    <linearGradient id="bg" x1="0" x2="1" y1="0" y2="1">
      <stop stop-color="#fff4e4"/>
      <stop offset="1" stop-color="#fff4e4" stop-opacity="0.22"/>
    </linearGradient>
  </defs>
  <rect width="800" height="420" fill="url(#bg)"/>
  <circle cx="669" cy="219" r="72" fill="#15191d" opacity="0.13"/>
  <circle cx="317" cy="153" r="65" fill="#d9cec1" opacity="0.16"/>
  <circle cx="534" cy="194" r="3" fill="#f6bc42" opacity="0.7"/><circle cx="125" cy="283" r="3" fill="#f6bc42" opacity="0.69"/><circle cx="432" cy="373" r="3" fill="#f6bc42" opacity="0.68"/><circle cx="739" cy="120" r="3" fill="#f6bc42" opacity="0.67"/><circle cx="330" cy="209" r="3" fill="#f6bc42" opacity="0.66"/><circle cx="637" cy="298" r="3" fill="#f6bc42" opacity="0.65"/><circle cx="228" cy="45" r="3" fill="#f6bc42" opacity="0.64"/><circle cx="535" cy="134" r="3" fill="#f6bc42" opacity="0.63"/><circle cx="226" cy="165" r="2" fill="#f6bc42" opacity="0.33"/>
  <rect x="184" y="130" width="220" height="210" rx="18" fill="#fffaf4" stroke="#f6bc42" stroke-width="5"/><rect x="218" y="172" width="152" height="12" rx="6" fill="#15191d" opacity=".2"/><rect x="218" y="212" width="120" height="12" rx="6" fill="#15191d" opacity=".2"/><path d="M470 170h210L575 94z" fill="#15191d"/><rect x="500" y="190" width="32" height="120" rx="6" fill="#15191d"/><rect x="560" y="190" width="32" height="120" rx="6" fill="#15191d"/><rect x="620" y="190" width="32" height="120" rx="6" fill="#15191d"/>
</svg>
