<svg xmlns="http://www.w3.org/2000/svg" viewBox="0 0 800 420" role="img" aria-label="Ilustracion propia de historia y archivo para esta pregunta">
  <defs>
    <linearGradient id="bg" x1="0" x2="1" y1="0" y2="1">
      <stop stop-color="#fff4e4"/>
      <stop offset="1" stop-color="#15191d" stop-opacity="0.22"/>
    </linearGradient>
  </defs>
  <rect width="800" height="420" fill="url(#bg)"/>
  <circle cx="392" cy="216" r="136" fill="#15191d" opacity="0.13"/>
  <circle cx="658" cy="260" r="73" fill="#d9cec1" opacity="0.16"/>
  <circle cx="398" cy="347" r="2" fill="#f6bc42" opacity="0.68"/><circle cx="705" cy="94" r="2" fill="#f6bc42" opacity="0.67"/><circle cx="296" cy="183" r="2" fill="#f6bc42" opacity="0.66"/><circle cx="603" cy="272" r="2" fill="#f6bc42" opacity="0.65"/><circle cx="602" cy="332" r="2" fill="#f6bc42" opacity="0.72"/><circle cx="193" cy="79" r="2" fill="#f6bc42" opacity="0.71"/><circle cx="500" cy="168" r="2" fill="#f6bc42" opacity="0.7"/><circle cx="91" cy="257" r="2" fill="#f6bc42" opacity="0.69"/><circle cx="706" cy="376" r="2" fill="#f6bc42" opacity="0.6000000000000001"/>
  <rect x="148" y="130" width="220" height="210" rx="18" fill="#fffaf4" stroke="#f6bc42" stroke-width="5"/><rect x="182" y="172" width="152" height="12" rx="6" fill="#15191d" opacity=".2"/><rect x="182" y="212" width="120" height="12" rx="6" fill="#15191d" opacity=".2"/><path d="M470 170h210L575 94z" fill="#15191d"/><rect x="500" y="190" width="32" height="120" rx="6" fill="#15191d"/><rect x="560" y="190" width="32" height="120" rx="6" fill="#15191d"/><rect x="620" y="190" width="32" height="120" rx="6" fill="#15191d"/>
</svg>
