<svg xmlns="http://www.w3.org/2000/svg" viewBox="0 0 800 420" role="img" aria-label="Ilustracion propia de historia y archivo para esta pregunta">
  <defs>
    <linearGradient id="bg" x1="0" x2="1" y1="0" y2="1">
      <stop stop-color="#fff4e4"/>
      <stop offset="1" stop-color="#f6bc42" stop-opacity="0.22"/>
    </linearGradient>
  </defs>
  <rect width="800" height="420" fill="url(#bg)"/>
  <circle cx="214" cy="301" r="81" fill="#15191d" opacity="0.13"/>
  <circle cx="110" cy="127" r="136" fill="#d9cec1" opacity="0.16"/>
  <circle cx="567" cy="199" r="3" fill="#f6bc42" opacity="0.36000000000000004"/><circle cx="260" cy="110" r="3" fill="#f6bc42" opacity="0.37"/><circle cx="669" cy="363" r="3" fill="#f6bc42" opacity="0.38"/><circle cx="362" cy="274" r="3" fill="#f6bc42" opacity="0.39"/><circle cx="363" cy="214" r="3" fill="#f6bc42" opacity="0.32"/><circle cx="56" cy="125" r="3" fill="#f6bc42" opacity="0.33"/><circle cx="465" cy="36" r="3" fill="#f6bc42" opacity="0.34"/><circle cx="158" cy="288" r="3" fill="#f6bc42" opacity="0.35000000000000003"/><circle cx="159" cy="229" r="3" fill="#f6bc42" opacity="0.28"/>
  <rect x="184" y="130" width="220" height="210" rx="18" fill="#fffaf4" stroke="#f6bc42" stroke-width="5"/><rect x="218" y="172" width="152" height="12" rx="6" fill="#15191d" opacity=".2"/><rect x="218" y="212" width="120" height="12" rx="6" fill="#15191d" opacity=".2"/><path d="M470 170h210L575 94z" fill="#15191d"/><rect x="500" y="190" width="32" height="120" rx="6" fill="#15191d"/><rect x="560" y="190" width="32" height="120" rx="6" fill="#15191d"/><rect x="620" y="190" width="32" height="120" rx="6" fill="#15191d"/>
</svg>
