<svg xmlns="http://www.w3.org/2000/svg" viewBox="0 0 800 420" role="img" aria-label="Ilustracion propia de historia y archivo para esta pregunta">
  <defs>
    <linearGradient id="bg" x1="0" x2="1" y1="0" y2="1">
      <stop stop-color="#fff4e4"/>
      <stop offset="1" stop-color="#15191d" stop-opacity="0.22"/>
    </linearGradient>
  </defs>
  <rect width="800" height="420" fill="url(#bg)"/>
  <circle cx="208" cy="317" r="78" fill="#15191d" opacity="0.13"/>
  <circle cx="485" cy="129" r="125" fill="#d9cec1" opacity="0.16"/>
  <circle cx="172" cy="193" r="2" fill="#f6bc42" opacity="0.53"/><circle cx="479" cy="282" r="2" fill="#f6bc42" opacity="0.52"/><circle cx="274" cy="357" r="2" fill="#f6bc42" opacity="0.55"/><circle cx="581" cy="104" r="2" fill="#f6bc42" opacity="0.54"/><circle cx="684" cy="208" r="2" fill="#f6bc42" opacity="0.49"/><circle cx="275" cy="297" r="2" fill="#f6bc42" opacity="0.48000000000000004"/><circle cx="70" cy="371" r="2" fill="#f6bc42" opacity="0.51"/><circle cx="377" cy="118" r="2" fill="#f6bc42" opacity="0.5"/><circle cx="580" cy="164" r="2" fill="#f6bc42" opacity="0.6100000000000001"/>
  <rect x="166" y="130" width="220" height="210" rx="18" fill="#fffaf4" stroke="#f6bc42" stroke-width="5"/><rect x="200" y="172" width="152" height="12" rx="6" fill="#15191d" opacity=".2"/><rect x="200" y="212" width="120" height="12" rx="6" fill="#15191d" opacity=".2"/><path d="M470 170h210L575 94z" fill="#15191d"/><rect x="500" y="190" width="32" height="120" rx="6" fill="#15191d"/><rect x="560" y="190" width="32" height="120" rx="6" fill="#15191d"/><rect x="620" y="190" width="32" height="120" rx="6" fill="#15191d"/>
</svg>
