<svg xmlns="http://www.w3.org/2000/svg" viewBox="0 0 800 420" role="img" aria-label="Ilustracion propia de oceano y olas para esta pregunta">
  <defs>
    <linearGradient id="bg" x1="0" x2="1" y1="0" y2="1">
      <stop stop-color="#dff8ff"/>
      <stop offset="1" stop-color="#12b7a6" stop-opacity="0.22"/>
    </linearGradient>
  </defs>
  <rect width="800" height="420" fill="url(#bg)"/>
  <circle cx="254" cy="186" r="108" fill="#12b7a6" opacity="0.13"/>
  <circle cx="115" cy="292" r="99" fill="#315be8" opacity="0.16"/>
  <circle cx="118" cy="305" r="5" fill="#fffaf4" opacity="0.51"/><circle cx="425" cy="52" r="5" fill="#fffaf4" opacity="0.5"/><circle cx="732" cy="141" r="5" fill="#fffaf4" opacity="0.49"/><circle cx="555" cy="102" r="5" fill="#fffaf4" opacity="0.6200000000000001"/><circle cx="146" cy="191" r="5" fill="#fffaf4" opacity="0.6100000000000001"/><circle cx="453" cy="280" r="5" fill="#fffaf4" opacity="0.6000000000000001"/><circle cx="44" cy="370" r="5" fill="#fffaf4" opacity="0.5900000000000001"/><circle cx="351" cy="117" r="5" fill="#fffaf4" opacity="0.5800000000000001"/><circle cx="658" cy="206" r="5" fill="#fffaf4" opacity="0.5700000000000001"/>
  <path d="M0 240c88-42 144 42 232 0s144 42 232 0 144 42 232 0 144 42 232 0v180H0z" fill="#fff" opacity=".34"/><path d="M0 316c88-42 144 42 232 0s144 42 232 0 144 42 232 0 144 42 232 0" fill="none" stroke="#fff" stroke-width="18" opacity=".62"/><path d="M142 174c82-44 170-44 252 0" fill="none" stroke="#fff" stroke-width="10" opacity=".45" stroke-linecap="round"/>
</svg>
