<svg xmlns="http://www.w3.org/2000/svg" viewBox="0 0 800 420" role="img" aria-label="Ilustracion propia de videojuegos para esta pregunta">
  <defs>
    <linearGradient id="bg" x1="0" x2="1" y1="0" y2="1">
      <stop stop-color="#f4efff"/>
      <stop offset="1" stop-color="#9b5cff" stop-opacity="0.22"/>
    </linearGradient>
  </defs>
  <rect width="800" height="420" fill="url(#bg)"/>
  <circle cx="105" cy="343" r="85" fill="#15191d" opacity="0.13"/>
  <circle cx="247" cy="275" r="86" fill="#9b5cff" opacity="0.16"/>
  <circle cx="276" cy="301" r="3" fill="#12b7a6" opacity="0.63"/><circle cx="583" cy="49" r="3" fill="#12b7a6" opacity="0.6200000000000001"/><circle cx="378" cy="123" r="3" fill="#12b7a6" opacity="0.65"/><circle cx="685" cy="212" r="3" fill="#12b7a6" opacity="0.64"/><circle cx="72" cy="316" r="3" fill="#12b7a6" opacity="0.5900000000000001"/><circle cx="379" cy="63" r="3" fill="#12b7a6" opacity="0.5800000000000001"/><circle cx="174" cy="138" r="3" fill="#12b7a6" opacity="0.6100000000000001"/><circle cx="481" cy="227" r="3" fill="#12b7a6" opacity="0.6000000000000001"/><circle cx="684" cy="272" r="2" fill="#12b7a6" opacity="0.71"/>
  <path d="M226 160c40-54 310-54 348 0l58 104c24 44-12 86-58 64l-74-36H300l-74 36c-46 22-82-20-58-64z" fill="#15191d"/><path d="M284 232h82M325 191v82" stroke="#fff" stroke-width="20" stroke-linecap="round"/><circle cx="542" cy="218" r="20" fill="#12b7a6"/><circle cx="588" cy="252" r="20" fill="#fffaf4"/><circle cx="456" cy="252" r="20" fill="#12b7a6"/>
</svg>
