<svg xmlns="http://www.w3.org/2000/svg" viewBox="0 0 800 420" role="img" aria-label="Ilustracion propia de historia y archivo para esta pregunta">
  <defs>
    <linearGradient id="bg" x1="0" x2="1" y1="0" y2="1">
      <stop stop-color="#fff4e4"/>
      <stop offset="1" stop-color="#f6bc42" stop-opacity="0.22"/>
    </linearGradient>
  </defs>
  <rect width="800" height="420" fill="url(#bg)"/>
  <circle cx="624" cy="285" r="95" fill="#15191d" opacity="0.13"/>
  <circle cx="462" cy="304" r="97" fill="#d9cec1" opacity="0.16"/>
  <circle cx="131" cy="37" r="3" fill="#f6bc42" opacity="0.6200000000000001"/><circle cx="540" cy="290" r="3" fill="#f6bc42" opacity="0.63"/><circle cx="233" cy="201" r="3" fill="#f6bc42" opacity="0.64"/><circle cx="642" cy="112" r="3" fill="#f6bc42" opacity="0.65"/><circle cx="335" cy="365" r="3" fill="#f6bc42" opacity="0.66"/><circle cx="744" cy="275" r="3" fill="#f6bc42" opacity="0.67"/><circle cx="437" cy="186" r="3" fill="#f6bc42" opacity="0.68"/><circle cx="130" cy="97" r="3" fill="#f6bc42" opacity="0.69"/><circle cx="539" cy="350" r="3" fill="#f6bc42" opacity="0.7"/>
  <rect x="184" y="130" width="220" height="210" rx="18" fill="#fffaf4" stroke="#f6bc42" stroke-width="5"/><rect x="218" y="172" width="152" height="12" rx="6" fill="#15191d" opacity=".2"/><rect x="218" y="212" width="120" height="12" rx="6" fill="#15191d" opacity=".2"/><path d="M470 170h210L575 94z" fill="#15191d"/><rect x="500" y="190" width="32" height="120" rx="6" fill="#15191d"/><rect x="560" y="190" width="32" height="120" rx="6" fill="#15191d"/><rect x="620" y="190" width="32" height="120" rx="6" fill="#15191d"/>
</svg>
