<svg xmlns="http://www.w3.org/2000/svg" viewBox="0 0 800 420" role="img" aria-label="Ilustracion propia de historia y archivo para esta pregunta">
  <defs>
    <linearGradient id="bg" x1="0" x2="1" y1="0" y2="1">
      <stop stop-color="#fff4e4"/>
      <stop offset="1" stop-color="#fff4e4" stop-opacity="0.22"/>
    </linearGradient>
  </defs>
  <rect width="800" height="420" fill="url(#bg)"/>
  <circle cx="314" cy="278" r="82" fill="#15191d" opacity="0.13"/>
  <circle cx="273" cy="89" r="66" fill="#d9cec1" opacity="0.16"/>
  <circle cx="554" cy="290" r="3" fill="#f6bc42" opacity="0.45000000000000007"/><circle cx="145" cy="37" r="3" fill="#f6bc42" opacity="0.44000000000000006"/><circle cx="452" cy="126" r="3" fill="#f6bc42" opacity="0.43000000000000005"/><circle cx="43" cy="215" r="3" fill="#f6bc42" opacity="0.42000000000000004"/><circle cx="350" cy="304" r="3" fill="#f6bc42" opacity="0.41000000000000003"/><circle cx="657" cy="52" r="3" fill="#f6bc42" opacity="0.4"/><circle cx="248" cy="141" r="3" fill="#f6bc42" opacity="0.39"/><circle cx="555" cy="230" r="3" fill="#f6bc42" opacity="0.38"/><circle cx="246" cy="261" r="3" fill="#f6bc42" opacity="0.53"/>
  <rect x="184" y="130" width="220" height="210" rx="18" fill="#fffaf4" stroke="#f6bc42" stroke-width="5"/><rect x="218" y="172" width="152" height="12" rx="6" fill="#15191d" opacity=".2"/><rect x="218" y="212" width="120" height="12" rx="6" fill="#15191d" opacity=".2"/><path d="M470 170h210L575 94z" fill="#15191d"/><rect x="500" y="190" width="32" height="120" rx="6" fill="#15191d"/><rect x="560" y="190" width="32" height="120" rx="6" fill="#15191d"/><rect x="620" y="190" width="32" height="120" rx="6" fill="#15191d"/>
</svg>
