<svg xmlns="http://www.w3.org/2000/svg" viewBox="0 0 800 420" role="img" aria-label="Ilustracion propia de historia y archivo para esta pregunta">
  <defs>
    <linearGradient id="bg" x1="0" x2="1" y1="0" y2="1">
      <stop stop-color="#fff4e4"/>
      <stop offset="1" stop-color="#fff4e4" stop-opacity="0.22"/>
    </linearGradient>
  </defs>
  <rect width="800" height="420" fill="url(#bg)"/>
  <circle cx="189" cy="139" r="104" fill="#15191d" opacity="0.13"/>
  <circle cx="557" cy="214" r="119" fill="#d9cec1" opacity="0.16"/>
  <circle cx="164" cy="292" r="2" fill="#f6bc42" opacity="0.54"/><circle cx="471" cy="39" r="2" fill="#f6bc42" opacity="0.53"/><circle cx="266" cy="114" r="2" fill="#f6bc42" opacity="0.56"/><circle cx="573" cy="203" r="2" fill="#f6bc42" opacity="0.55"/><circle cx="368" cy="278" r="2" fill="#f6bc42" opacity="0.5800000000000001"/><circle cx="675" cy="367" r="2" fill="#f6bc42" opacity="0.5700000000000001"/><circle cx="470" cy="99" r="2" fill="#f6bc42" opacity="0.6000000000000001"/><circle cx="61" cy="188" r="2" fill="#f6bc42" opacity="0.5900000000000001"/><circle cx="572" cy="263" r="2" fill="#f6bc42" opacity="0.6200000000000001"/>
  <rect x="184" y="130" width="220" height="210" rx="18" fill="#fffaf4" stroke="#f6bc42" stroke-width="5"/><rect x="218" y="172" width="152" height="12" rx="6" fill="#15191d" opacity=".2"/><rect x="218" y="212" width="120" height="12" rx="6" fill="#15191d" opacity=".2"/><path d="M470 170h210L575 94z" fill="#15191d"/><rect x="500" y="190" width="32" height="120" rx="6" fill="#15191d"/><rect x="560" y="190" width="32" height="120" rx="6" fill="#15191d"/><rect x="620" y="190" width="32" height="120" rx="6" fill="#15191d"/>
</svg>
