<svg xmlns="http://www.w3.org/2000/svg" viewBox="0 0 800 420" role="img" aria-label="Ilustracion propia de oceano y olas para esta pregunta">
  <defs>
    <linearGradient id="bg" x1="0" x2="1" y1="0" y2="1">
      <stop stop-color="#dff8ff"/>
      <stop offset="1" stop-color="#315be8" stop-opacity="0.22"/>
    </linearGradient>
  </defs>
  <rect width="800" height="420" fill="url(#bg)"/>
  <circle cx="561" cy="304" r="125" fill="#12b7a6" opacity="0.13"/>
  <circle cx="529" cy="306" r="141" fill="#315be8" opacity="0.16"/>
  <circle cx="326" cy="225" r="5" fill="#fffaf4" opacity="0.36000000000000004"/><circle cx="633" cy="314" r="5" fill="#fffaf4" opacity="0.35000000000000003"/><circle cx="224" cy="61" r="5" fill="#fffaf4" opacity="0.34"/><circle cx="531" cy="151" r="2" fill="#fffaf4" opacity="0.33"/><circle cx="122" cy="240" r="2" fill="#fffaf4" opacity="0.32"/><circle cx="429" cy="329" r="2" fill="#fffaf4" opacity="0.31000000000000005"/><circle cx="736" cy="76" r="2" fill="#fffaf4" opacity="0.30000000000000004"/><circle cx="327" cy="165" r="2" fill="#fffaf4" opacity="0.29000000000000004"/><circle cx="634" cy="254" r="2" fill="#fffaf4" opacity="0.28"/>
  <path d="M0 240c88-42 144 42 232 0s144 42 232 0 144 42 232 0 144 42 232 0v180H0z" fill="#fff" opacity=".34"/><path d="M0 286c88-42 144 42 232 0s144 42 232 0 144 42 232 0 144 42 232 0" fill="none" stroke="#fff" stroke-width="18" opacity=".62"/><path d="M142 174c82-44 170-44 252 0" fill="none" stroke="#fff" stroke-width="10" opacity=".45" stroke-linecap="round"/>
</svg>
