<svg xmlns="http://www.w3.org/2000/svg" viewBox="0 0 800 420" role="img" aria-label="Ilustracion propia de estadio y futbol generico para esta pregunta">
  <defs>
    <linearGradient id="bg" x1="0" x2="1" y1="0" y2="1">
      <stop stop-color="#eaf8f5"/>
      <stop offset="1" stop-color="#eaf8f5" stop-opacity="0.22"/>
    </linearGradient>
  </defs>
  <rect width="800" height="420" fill="url(#bg)"/>
  <circle cx="255" cy="289" r="110" fill="#26b99f" opacity="0.13"/>
  <circle cx="190" cy="126" r="69" fill="#f6bc42" opacity="0.16"/>
  <circle cx="194" cy="133" r="2" fill="#15191d" opacity="0.5900000000000001"/><circle cx="501" cy="222" r="2" fill="#15191d" opacity="0.5800000000000001"/><circle cx="92" cy="311" r="2" fill="#15191d" opacity="0.5700000000000001"/><circle cx="399" cy="58" r="2" fill="#15191d" opacity="0.56"/><circle cx="706" cy="147" r="2" fill="#15191d" opacity="0.55"/><circle cx="297" cy="236" r="2" fill="#15191d" opacity="0.54"/><circle cx="604" cy="325" r="2" fill="#15191d" opacity="0.53"/><circle cx="195" cy="73" r="2" fill="#15191d" opacity="0.52"/><circle cx="602" cy="103" r="2" fill="#15191d" opacity="0.67"/>
  <rect x="118" y="78" width="564" height="264" rx="26" fill="#f6bc42"/><path d="M400 78v264M118 210h564" stroke="#fff" stroke-width="7" opacity=".76"/><circle cx="400" cy="210" r="58" fill="none" stroke="#fff" stroke-width="7" opacity=".76"/><circle cx="372" cy="236" r="32" fill="#fff"/><path d="M340 236h64M372 204v64" stroke="#26b99f" stroke-width="5" opacity=".5"/>
</svg>
