<svg xmlns="http://www.w3.org/2000/svg" viewBox="0 0 800 420" role="img" aria-label="Ilustracion propia de historia y archivo para esta pregunta">
  <defs>
    <linearGradient id="bg" x1="0" x2="1" y1="0" y2="1">
      <stop stop-color="#fff4e4"/>
      <stop offset="1" stop-color="#d9cec1" stop-opacity="0.22"/>
    </linearGradient>
  </defs>
  <rect width="800" height="420" fill="url(#bg)"/>
  <circle cx="693" cy="285" r="133" fill="#15191d" opacity="0.13"/>
  <circle cx="470" cy="89" r="132" fill="#d9cec1" opacity="0.16"/>
  <circle cx="225" cy="284" r="4" fill="#f6bc42" opacity="0.66"/><circle cx="634" cy="195" r="4" fill="#f6bc42" opacity="0.67"/><circle cx="123" cy="121" r="5" fill="#f6bc42" opacity="0.64"/><circle cx="532" cy="374" r="4" fill="#f6bc42" opacity="0.65"/><circle cx="197" cy="56" r="4" fill="#f6bc42" opacity="0.56"/><circle cx="606" cy="309" r="4" fill="#f6bc42" opacity="0.5700000000000001"/><circle cx="95" cy="234" r="4" fill="#f6bc42" opacity="0.54"/><circle cx="504" cy="145" r="4" fill="#f6bc42" opacity="0.55"/><circle cx="533" cy="314" r="5" fill="#f6bc42" opacity="0.5800000000000001"/>
  <rect x="166" y="130" width="220" height="210" rx="18" fill="#fffaf4" stroke="#f6bc42" stroke-width="5"/><rect x="200" y="172" width="152" height="12" rx="6" fill="#15191d" opacity=".2"/><rect x="200" y="212" width="120" height="12" rx="6" fill="#15191d" opacity=".2"/><path d="M470 170h210L575 94z" fill="#15191d"/><rect x="500" y="190" width="32" height="120" rx="6" fill="#15191d"/><rect x="560" y="190" width="32" height="120" rx="6" fill="#15191d"/><rect x="620" y="190" width="32" height="120" rx="6" fill="#15191d"/>
</svg>
