<svg xmlns="http://www.w3.org/2000/svg" viewBox="0 0 800 420" role="img" aria-label="Ilustracion propia de historia y archivo para esta pregunta">
  <defs>
    <linearGradient id="bg" x1="0" x2="1" y1="0" y2="1">
      <stop stop-color="#fff4e4"/>
      <stop offset="1" stop-color="#d9cec1" stop-opacity="0.22"/>
    </linearGradient>
  </defs>
  <rect width="800" height="420" fill="url(#bg)"/>
  <circle cx="133" cy="92" r="71" fill="#15191d" opacity="0.13"/>
  <circle cx="250" cy="244" r="134" fill="#d9cec1" opacity="0.16"/>
  <circle cx="613" cy="211" r="3" fill="#f6bc42" opacity="0.43000000000000005"/><circle cx="306" cy="121" r="3" fill="#f6bc42" opacity="0.44000000000000006"/><circle cx="511" cy="47" r="3" fill="#f6bc42" opacity="0.41000000000000003"/><circle cx="204" cy="300" r="3" fill="#f6bc42" opacity="0.42000000000000004"/><circle cx="101" cy="196" r="3" fill="#f6bc42" opacity="0.47000000000000003"/><circle cx="510" cy="107" r="3" fill="#f6bc42" opacity="0.48000000000000004"/><circle cx="715" cy="374" r="3" fill="#f6bc42" opacity="0.45000000000000007"/><circle cx="408" cy="285" r="3" fill="#f6bc42" opacity="0.46"/><circle cx="305" cy="181" r="3" fill="#f6bc42" opacity="0.51"/>
  <rect x="166" y="130" width="220" height="210" rx="18" fill="#fffaf4" stroke="#f6bc42" stroke-width="5"/><rect x="200" y="172" width="152" height="12" rx="6" fill="#15191d" opacity=".2"/><rect x="200" y="212" width="120" height="12" rx="6" fill="#15191d" opacity=".2"/><path d="M470 170h210L575 94z" fill="#15191d"/><rect x="500" y="190" width="32" height="120" rx="6" fill="#15191d"/><rect x="560" y="190" width="32" height="120" rx="6" fill="#15191d"/><rect x="620" y="190" width="32" height="120" rx="6" fill="#15191d"/>
</svg>
