<svg xmlns="http://www.w3.org/2000/svg" viewBox="0 0 800 420" role="img" aria-label="Ilustracion propia de historia y archivo para esta pregunta">
  <defs>
    <linearGradient id="bg" x1="0" x2="1" y1="0" y2="1">
      <stop stop-color="#fff4e4"/>
      <stop offset="1" stop-color="#fff4e4" stop-opacity="0.22"/>
    </linearGradient>
  </defs>
  <rect width="800" height="420" fill="url(#bg)"/>
  <circle cx="353" cy="271" r="104" fill="#15191d" opacity="0.13"/>
  <circle cx="503" cy="88" r="79" fill="#d9cec1" opacity="0.16"/>
  <circle cx="164" cy="79" r="4" fill="#f6bc42" opacity="0.6100000000000001"/><circle cx="471" cy="169" r="4" fill="#f6bc42" opacity="0.6000000000000001"/><circle cx="266" cy="243" r="4" fill="#f6bc42" opacity="0.63"/><circle cx="573" cy="332" r="4" fill="#f6bc42" opacity="0.6200000000000001"/><circle cx="676" cy="94" r="4" fill="#f6bc42" opacity="0.5700000000000001"/><circle cx="267" cy="183" r="4" fill="#f6bc42" opacity="0.56"/><circle cx="62" cy="258" r="4" fill="#f6bc42" opacity="0.5900000000000001"/><circle cx="369" cy="347" r="4" fill="#f6bc42" opacity="0.5800000000000001"/><circle cx="472" cy="109" r="4" fill="#f6bc42" opacity="0.53"/>
  <rect x="166" y="130" width="220" height="210" rx="18" fill="#fffaf4" stroke="#f6bc42" stroke-width="5"/><rect x="200" y="172" width="152" height="12" rx="6" fill="#15191d" opacity=".2"/><rect x="200" y="212" width="120" height="12" rx="6" fill="#15191d" opacity=".2"/><path d="M470 170h210L575 94z" fill="#15191d"/><rect x="500" y="190" width="32" height="120" rx="6" fill="#15191d"/><rect x="560" y="190" width="32" height="120" rx="6" fill="#15191d"/><rect x="620" y="190" width="32" height="120" rx="6" fill="#15191d"/>
</svg>
