<svg xmlns="http://www.w3.org/2000/svg" viewBox="0 0 800 420" role="img" aria-label="Ilustracion propia de tecnologia para esta pregunta">
  <defs>
    <linearGradient id="bg" x1="0" x2="1" y1="0" y2="1">
      <stop stop-color="#111820"/>
      <stop offset="1" stop-color="#315be8" stop-opacity="0.22"/>
    </linearGradient>
  </defs>
  <rect width="800" height="420" fill="url(#bg)"/>
  <circle cx="290" cy="197" r="125" fill="#fffaf4" opacity="0.13"/>
  <circle cx="495" cy="78" r="121" fill="#315be8" opacity="0.16"/>
  <circle cx="676" cy="271" r="4" fill="#12b7a6" opacity="0.6000000000000001"/><circle cx="267" cy="360" r="4" fill="#12b7a6" opacity="0.5900000000000001"/><circle cx="62" cy="92" r="4" fill="#12b7a6" opacity="0.6200000000000001"/><circle cx="369" cy="182" r="4" fill="#12b7a6" opacity="0.6100000000000001"/><circle cx="472" cy="285" r="4" fill="#12b7a6" opacity="0.56"/><circle cx="63" cy="374" r="4" fill="#12b7a6" opacity="0.55"/><circle cx="574" cy="107" r="4" fill="#12b7a6" opacity="0.5800000000000001"/><circle cx="165" cy="196" r="4" fill="#12b7a6" opacity="0.5700000000000001"/><circle cx="368" cy="242" r="4" fill="#12b7a6" opacity="0.68"/>
  <rect width="800" height="420" fill="#fffaf4"/><rect x="108" y="72" width="584" height="276" rx="28" fill="#315be8"/><rect x="108" y="72" width="584" height="58" rx="28" fill="#12b7a6"/><path d="M258 206l-62 44 62 44M542 206l62 44-62 44" stroke="#fffaf4" stroke-width="20" stroke-linecap="round" stroke-linejoin="round" fill="none"/><path d="M364 306l72-184" stroke="#12b7a6" stroke-width="18" stroke-linecap="round"/>
</svg>
