<svg xmlns="http://www.w3.org/2000/svg" viewBox="0 0 800 420" role="img" aria-label="Ilustracion propia de historia y archivo para esta pregunta">
  <defs>
    <linearGradient id="bg" x1="0" x2="1" y1="0" y2="1">
      <stop stop-color="#fff4e4"/>
      <stop offset="1" stop-color="#fff4e4" stop-opacity="0.22"/>
    </linearGradient>
  </defs>
  <rect width="800" height="420" fill="url(#bg)"/>
  <circle cx="654" cy="314" r="68" fill="#15191d" opacity="0.13"/>
  <circle cx="240" cy="165" r="84" fill="#d9cec1" opacity="0.16"/>
  <circle cx="207" cy="307" r="3" fill="#f6bc42" opacity="0.49"/><circle cx="616" cy="217" r="3" fill="#f6bc42" opacity="0.5"/><circle cx="309" cy="128" r="3" fill="#f6bc42" opacity="0.51"/><circle cx="718" cy="39" r="3" fill="#f6bc42" opacity="0.52"/><circle cx="719" cy="321" r="3" fill="#f6bc42" opacity="0.45000000000000007"/><circle cx="412" cy="232" r="3" fill="#f6bc42" opacity="0.46"/><circle cx="105" cy="143" r="3" fill="#f6bc42" opacity="0.47000000000000003"/><circle cx="514" cy="54" r="3" fill="#f6bc42" opacity="0.48000000000000004"/><circle cx="615" cy="277" r="3" fill="#f6bc42" opacity="0.5700000000000001"/>
  <rect x="184" y="130" width="220" height="210" rx="18" fill="#fffaf4" stroke="#f6bc42" stroke-width="5"/><rect x="218" y="172" width="152" height="12" rx="6" fill="#15191d" opacity=".2"/><rect x="218" y="212" width="120" height="12" rx="6" fill="#15191d" opacity=".2"/><path d="M470 170h210L575 94z" fill="#15191d"/><rect x="500" y="190" width="32" height="120" rx="6" fill="#15191d"/><rect x="560" y="190" width="32" height="120" rx="6" fill="#15191d"/><rect x="620" y="190" width="32" height="120" rx="6" fill="#15191d"/>
</svg>
