<svg xmlns="http://www.w3.org/2000/svg" viewBox="0 0 800 420" role="img" aria-label="Ilustracion propia de escenario musical para esta pregunta">
  <defs>
    <linearGradient id="bg" x1="0" x2="1" y1="0" y2="1">
      <stop stop-color="#201525"/>
      <stop offset="1" stop-color="#ff4f6d" stop-opacity="0.22"/>
    </linearGradient>
  </defs>
  <rect width="800" height="420" fill="url(#bg)"/>
  <circle cx="638" cy="144" r="89" fill="#fffaf4" opacity="0.13"/>
  <circle cx="538" cy="108" r="107" fill="#ff4f6d" opacity="0.16"/>
  <circle cx="719" cy="308" r="2" fill="#12b7a6" opacity="0.64"/><circle cx="412" cy="218" r="2" fill="#12b7a6" opacity="0.65"/><circle cx="105" cy="129" r="2" fill="#12b7a6" opacity="0.66"/><circle cx="514" cy="40" r="2" fill="#12b7a6" opacity="0.67"/><circle cx="207" cy="293" r="2" fill="#12b7a6" opacity="0.68"/><circle cx="616" cy="204" r="2" fill="#12b7a6" opacity="0.69"/><circle cx="309" cy="115" r="2" fill="#12b7a6" opacity="0.7"/><circle cx="718" cy="368" r="2" fill="#12b7a6" opacity="0.71"/><circle cx="311" cy="337" r="2" fill="#12b7a6" opacity="0.56"/>
  <rect width="800" height="420" fill="#fffaf4"/><path d="M158 0l170 290M642 0L510 290" stroke="#12b7a6" stroke-width="34" opacity=".5"/><rect x="150" y="292" width="500" height="54" rx="20" fill="#ff4f6d" opacity=".9"/><path d="M280 292c26-80 214-80 240 0" fill="none" stroke="#fffaf4" stroke-width="16"/><path d="M424 98v126c0 28-24 50-58 50s-58-22-58-50 24-50 58-50c12 0 23 3 32 8V98z" fill="#ff4f6d"/>
</svg>
