<svg xmlns="http://www.w3.org/2000/svg" viewBox="0 0 800 420" role="img" aria-label="Ilustracion propia de historia y archivo para esta pregunta">
  <defs>
    <linearGradient id="bg" x1="0" x2="1" y1="0" y2="1">
      <stop stop-color="#fff4e4"/>
      <stop offset="1" stop-color="#fff4e4" stop-opacity="0.22"/>
    </linearGradient>
  </defs>
  <rect width="800" height="420" fill="url(#bg)"/>
  <circle cx="455" cy="154" r="106" fill="#15191d" opacity="0.13"/>
  <circle cx="515" cy="109" r="89" fill="#d9cec1" opacity="0.16"/>
  <circle cx="405" cy="264" r="3" fill="#f6bc42" opacity="0.35000000000000003"/><circle cx="98" cy="175" r="3" fill="#f6bc42" opacity="0.36000000000000004"/><circle cx="303" cy="100" r="3" fill="#f6bc42" opacity="0.33"/><circle cx="712" cy="353" r="3" fill="#f6bc42" opacity="0.34"/><circle cx="201" cy="278" r="3" fill="#f6bc42" opacity="0.31000000000000005"/><circle cx="610" cy="189" r="3" fill="#f6bc42" opacity="0.32"/><circle cx="99" cy="115" r="3" fill="#f6bc42" opacity="0.29000000000000004"/><circle cx="508" cy="367" r="3" fill="#f6bc42" opacity="0.30000000000000004"/><circle cx="713" cy="293" r="3" fill="#f6bc42" opacity="0.72"/>
  <rect x="202" y="130" width="220" height="210" rx="18" fill="#fffaf4" stroke="#f6bc42" stroke-width="5"/><rect x="236" y="172" width="152" height="12" rx="6" fill="#15191d" opacity=".2"/><rect x="236" y="212" width="120" height="12" rx="6" fill="#15191d" opacity=".2"/><path d="M470 170h210L575 94z" fill="#15191d"/><rect x="500" y="190" width="32" height="120" rx="6" fill="#15191d"/><rect x="560" y="190" width="32" height="120" rx="6" fill="#15191d"/><rect x="620" y="190" width="32" height="120" rx="6" fill="#15191d"/>
</svg>
