<svg xmlns="http://www.w3.org/2000/svg" viewBox="0 0 800 420" role="img" aria-label="Ilustracion propia de historia y archivo para esta pregunta">
  <defs>
    <linearGradient id="bg" x1="0" x2="1" y1="0" y2="1">
      <stop stop-color="#fff4e4"/>
      <stop offset="1" stop-color="#f6bc42" stop-opacity="0.22"/>
    </linearGradient>
  </defs>
  <rect width="800" height="420" fill="url(#bg)"/>
  <circle cx="463" cy="73" r="65" fill="#15191d" opacity="0.13"/>
  <circle cx="591" cy="170" r="124" fill="#d9cec1" opacity="0.16"/>
  <circle cx="646" cy="83" r="3" fill="#f6bc42" opacity="0.71"/><circle cx="237" cy="172" r="3" fill="#f6bc42" opacity="0.7"/><circle cx="544" cy="261" r="3" fill="#f6bc42" opacity="0.69"/><circle cx="135" cy="350" r="3" fill="#f6bc42" opacity="0.68"/><circle cx="442" cy="97" r="3" fill="#f6bc42" opacity="0.67"/><circle cx="749" cy="187" r="4" fill="#f6bc42" opacity="0.66"/><circle cx="340" cy="276" r="4" fill="#f6bc42" opacity="0.65"/><circle cx="647" cy="365" r="4" fill="#f6bc42" opacity="0.64"/><circle cx="238" cy="112" r="4" fill="#f6bc42" opacity="0.63"/>
  <rect x="166" y="130" width="220" height="210" rx="18" fill="#fffaf4" stroke="#f6bc42" stroke-width="5"/><rect x="200" y="172" width="152" height="12" rx="6" fill="#15191d" opacity=".2"/><rect x="200" y="212" width="120" height="12" rx="6" fill="#15191d" opacity=".2"/><path d="M470 170h210L575 94z" fill="#15191d"/><rect x="500" y="190" width="32" height="120" rx="6" fill="#15191d"/><rect x="560" y="190" width="32" height="120" rx="6" fill="#15191d"/><rect x="620" y="190" width="32" height="120" rx="6" fill="#15191d"/>
</svg>
