<svg xmlns="http://www.w3.org/2000/svg" viewBox="0 0 800 420" role="img" aria-label="Ilustracion propia de historia y archivo para esta pregunta">
  <defs>
    <linearGradient id="bg" x1="0" x2="1" y1="0" y2="1">
      <stop stop-color="#fff4e4"/>
      <stop offset="1" stop-color="#d9cec1" stop-opacity="0.22"/>
    </linearGradient>
  </defs>
  <rect width="800" height="420" fill="url(#bg)"/>
  <circle cx="577" cy="181" r="137" fill="#15191d" opacity="0.13"/>
  <circle cx="231" cy="76" r="143" fill="#d9cec1" opacity="0.16"/>
  <circle cx="595" cy="317" r="4" fill="#f6bc42" opacity="0.6100000000000001"/><circle cx="288" cy="228" r="4" fill="#f6bc42" opacity="0.6200000000000001"/><circle cx="697" cy="139" r="4" fill="#f6bc42" opacity="0.63"/><circle cx="390" cy="50" r="4" fill="#f6bc42" opacity="0.64"/><circle cx="83" cy="303" r="4" fill="#f6bc42" opacity="0.65"/><circle cx="492" cy="214" r="4" fill="#f6bc42" opacity="0.66"/><circle cx="185" cy="124" r="4" fill="#f6bc42" opacity="0.67"/><circle cx="594" cy="377" r="4" fill="#f6bc42" opacity="0.68"/><circle cx="187" cy="346" r="4" fill="#f6bc42" opacity="0.53"/>
  <rect x="148" y="130" width="220" height="210" rx="18" fill="#fffaf4" stroke="#f6bc42" stroke-width="5"/><rect x="182" y="172" width="152" height="12" rx="6" fill="#15191d" opacity=".2"/><rect x="182" y="212" width="120" height="12" rx="6" fill="#15191d" opacity=".2"/><path d="M470 170h210L575 94z" fill="#15191d"/><rect x="500" y="190" width="32" height="120" rx="6" fill="#15191d"/><rect x="560" y="190" width="32" height="120" rx="6" fill="#15191d"/><rect x="620" y="190" width="32" height="120" rx="6" fill="#15191d"/>
</svg>
