<svg xmlns="http://www.w3.org/2000/svg" viewBox="0 0 800 420" role="img" aria-label="Ilustracion propia de historia y archivo para esta pregunta">
  <defs>
    <linearGradient id="bg" x1="0" x2="1" y1="0" y2="1">
      <stop stop-color="#fff4e4"/>
      <stop offset="1" stop-color="#15191d" stop-opacity="0.22"/>
    </linearGradient>
  </defs>
  <rect width="800" height="420" fill="url(#bg)"/>
  <circle cx="425" cy="269" r="86" fill="#15191d" opacity="0.13"/>
  <circle cx="212" cy="195" r="106" fill="#d9cec1" opacity="0.16"/>
  <circle cx="699" cy="251" r="5" fill="#f6bc42" opacity="0.39"/><circle cx="392" cy="162" r="5" fill="#f6bc42" opacity="0.4"/><circle cx="85" cy="73" r="5" fill="#f6bc42" opacity="0.41000000000000003"/><circle cx="494" cy="326" r="5" fill="#f6bc42" opacity="0.42000000000000004"/><circle cx="727" cy="138" r="5" fill="#f6bc42" opacity="0.49"/><circle cx="188" cy="177" r="5" fill="#f6bc42" opacity="0.36000000000000004"/><circle cx="597" cy="88" r="5" fill="#f6bc42" opacity="0.37"/><circle cx="290" cy="341" r="5" fill="#f6bc42" opacity="0.38"/><circle cx="523" cy="153" r="2" fill="#f6bc42" opacity="0.45000000000000007"/>
  <rect x="202" y="130" width="220" height="210" rx="18" fill="#fffaf4" stroke="#f6bc42" stroke-width="5"/><rect x="236" y="172" width="152" height="12" rx="6" fill="#15191d" opacity=".2"/><rect x="236" y="212" width="120" height="12" rx="6" fill="#15191d" opacity=".2"/><path d="M470 170h210L575 94z" fill="#15191d"/><rect x="500" y="190" width="32" height="120" rx="6" fill="#15191d"/><rect x="560" y="190" width="32" height="120" rx="6" fill="#15191d"/><rect x="620" y="190" width="32" height="120" rx="6" fill="#15191d"/>
</svg>
