<svg xmlns="http://www.w3.org/2000/svg" viewBox="0 0 800 420" role="img" aria-label="Ilustracion propia de laboratorio cientifico para esta pregunta">
  <defs>
    <linearGradient id="bg" x1="0" x2="1" y1="0" y2="1">
      <stop stop-color="#edf9ff"/>
      <stop offset="1" stop-color="#edf9ff" stop-opacity="0.22"/>
    </linearGradient>
  </defs>
  <rect width="800" height="420" fill="url(#bg)"/>
  <circle cx="442" cy="246" r="120" fill="#fffaf4" opacity="0.13"/>
  <circle cx="514" cy="192" r="121" fill="#12b7a6" opacity="0.16"/>
  <circle cx="598" cy="121" r="5" fill="#ff4f6d" opacity="0.52"/><circle cx="189" cy="210" r="5" fill="#ff4f6d" opacity="0.51"/><circle cx="496" cy="299" r="2" fill="#ff4f6d" opacity="0.5"/><circle cx="87" cy="46" r="2" fill="#ff4f6d" opacity="0.49"/><circle cx="86" cy="106" r="5" fill="#ff4f6d" opacity="0.56"/><circle cx="393" cy="195" r="5" fill="#ff4f6d" opacity="0.55"/><circle cx="700" cy="285" r="5" fill="#ff4f6d" opacity="0.54"/><circle cx="291" cy="374" r="5" fill="#ff4f6d" opacity="0.53"/><circle cx="290" cy="92" r="5" fill="#ff4f6d" opacity="0.6000000000000001"/>
  <path d="M360 74h116v28l-38 76v84c0 48-39 86-86 86h-8c-47 0-86-38-86-86v-84l-38-76V74h116z" fill="#12b7a6" stroke="#15191d" stroke-width="8"/><path d="M290 230h132v38c0 31-25 56-56 56h-20c-31 0-56-25-56-56z" fill="#ff4f6d" opacity=".85"/><circle cx="346" cy="250" r="12" fill="#fff"/><circle cx="362" cy="280" r="18" fill="#fff"/><path d="M528 118l68 118 68-118" fill="none" stroke="#fffaf4" stroke-width="15" stroke-linejoin="round"/>
</svg>
