<svg xmlns="http://www.w3.org/2000/svg" viewBox="0 0 800 420" role="img" aria-label="Ilustracion propia de tecnologia para esta pregunta">
  <defs>
    <linearGradient id="bg" x1="0" x2="1" y1="0" y2="1">
      <stop stop-color="#111820"/>
      <stop offset="1" stop-color="#111820" stop-opacity="0.22"/>
    </linearGradient>
  </defs>
  <rect width="800" height="420" fill="url(#bg)"/>
  <circle cx="288" cy="212" r="84" fill="#fffaf4" opacity="0.13"/>
  <circle cx="195" cy="223" r="96" fill="#315be8" opacity="0.16"/>
  <circle cx="563" cy="255" r="5" fill="#12b7a6" opacity="0.6200000000000001"/><circle cx="256" cy="165" r="5" fill="#12b7a6" opacity="0.63"/><circle cx="665" cy="76" r="5" fill="#12b7a6" opacity="0.64"/><circle cx="358" cy="329" r="5" fill="#12b7a6" opacity="0.65"/><circle cx="359" cy="269" r="5" fill="#12b7a6" opacity="0.5800000000000001"/><circle cx="52" cy="180" r="5" fill="#12b7a6" opacity="0.5900000000000001"/><circle cx="461" cy="91" r="5" fill="#12b7a6" opacity="0.6000000000000001"/><circle cx="154" cy="344" r="5" fill="#12b7a6" opacity="0.6100000000000001"/><circle cx="255" cy="225" r="5" fill="#12b7a6" opacity="0.7"/>
  <rect width="800" height="420" fill="#fffaf4"/><rect x="108" y="72" width="584" height="276" rx="28" fill="#315be8"/><rect x="108" y="72" width="584" height="58" rx="28" fill="#12b7a6"/><path d="M234 206l-62 44 62 44M566 206l62 44-62 44" stroke="#fffaf4" stroke-width="20" stroke-linecap="round" stroke-linejoin="round" fill="none"/><path d="M364 306l72-184" stroke="#12b7a6" stroke-width="18" stroke-linecap="round"/>
</svg>
