<svg xmlns="http://www.w3.org/2000/svg" viewBox="0 0 800 420" role="img" aria-label="Ilustracion propia de tecnologia para esta pregunta">
  <defs>
    <linearGradient id="bg" x1="0" x2="1" y1="0" y2="1">
      <stop stop-color="#111820"/>
      <stop offset="1" stop-color="#315be8" stop-opacity="0.22"/>
    </linearGradient>
  </defs>
  <rect width="800" height="420" fill="url(#bg)"/>
  <circle cx="339" cy="139" r="111" fill="#fffaf4" opacity="0.13"/>
  <circle cx="276" cy="286" r="139" fill="#315be8" opacity="0.16"/>
  <circle cx="699" cy="104" r="5" fill="#12b7a6" opacity="0.6100000000000001"/><circle cx="392" cy="357" r="5" fill="#12b7a6" opacity="0.6200000000000001"/><circle cx="85" cy="268" r="5" fill="#12b7a6" opacity="0.63"/><circle cx="494" cy="179" r="5" fill="#12b7a6" opacity="0.64"/><circle cx="671" cy="218" r="5" fill="#12b7a6" opacity="0.51"/><circle cx="364" cy="128" r="5" fill="#12b7a6" opacity="0.52"/><circle cx="57" cy="39" r="5" fill="#12b7a6" opacity="0.53"/><circle cx="466" cy="292" r="4" fill="#12b7a6" opacity="0.54"/><circle cx="159" cy="203" r="4" fill="#12b7a6" opacity="0.55"/>
  <rect width="800" height="420" fill="#fffaf4"/><rect x="108" y="72" width="584" height="276" rx="28" fill="#315be8"/><rect x="108" y="72" width="584" height="58" rx="28" fill="#12b7a6"/><path d="M246 206l-62 44 62 44M554 206l62 44-62 44" stroke="#fffaf4" stroke-width="20" stroke-linecap="round" stroke-linejoin="round" fill="none"/><path d="M364 306l72-184" stroke="#12b7a6" stroke-width="18" stroke-linecap="round"/>
</svg>
