<svg xmlns="http://www.w3.org/2000/svg" viewBox="0 0 800 420" role="img" aria-label="Ilustracion propia de historia y archivo para esta pregunta">
  <defs>
    <linearGradient id="bg" x1="0" x2="1" y1="0" y2="1">
      <stop stop-color="#fff4e4"/>
      <stop offset="1" stop-color="#15191d" stop-opacity="0.22"/>
    </linearGradient>
  </defs>
  <rect width="800" height="420" fill="url(#bg)"/>
  <circle cx="473" cy="69" r="100" fill="#15191d" opacity="0.13"/>
  <circle cx="143" cy="134" r="98" fill="#d9cec1" opacity="0.16"/>
  <circle cx="549" cy="72" r="5" fill="#f6bc42" opacity="0.5700000000000001"/><circle cx="242" cy="324" r="5" fill="#f6bc42" opacity="0.5800000000000001"/><circle cx="447" cy="250" r="5" fill="#f6bc42" opacity="0.55"/><circle cx="140" cy="161" r="5" fill="#f6bc42" opacity="0.56"/><circle cx="345" cy="86" r="5" fill="#f6bc42" opacity="0.53"/><circle cx="754" cy="339" r="5" fill="#f6bc42" opacity="0.54"/><circle cx="243" cy="264" r="5" fill="#f6bc42" opacity="0.51"/><circle cx="652" cy="175" r="5" fill="#f6bc42" opacity="0.52"/><circle cx="241" cy="42" r="5" fill="#f6bc42" opacity="0.65"/>
  <rect x="166" y="130" width="220" height="210" rx="18" fill="#fffaf4" stroke="#f6bc42" stroke-width="5"/><rect x="200" y="172" width="152" height="12" rx="6" fill="#15191d" opacity=".2"/><rect x="200" y="212" width="120" height="12" rx="6" fill="#15191d" opacity=".2"/><path d="M470 170h210L575 94z" fill="#15191d"/><rect x="500" y="190" width="32" height="120" rx="6" fill="#15191d"/><rect x="560" y="190" width="32" height="120" rx="6" fill="#15191d"/><rect x="620" y="190" width="32" height="120" rx="6" fill="#15191d"/>
</svg>
