<svg xmlns="http://www.w3.org/2000/svg" viewBox="0 0 800 420" role="img" aria-label="Ilustracion propia de estadio y futbol generico para esta pregunta">
  <defs>
    <linearGradient id="bg" x1="0" x2="1" y1="0" y2="1">
      <stop stop-color="#eaf8f5"/>
      <stop offset="1" stop-color="#f6bc42" stop-opacity="0.22"/>
    </linearGradient>
  </defs>
  <rect width="800" height="420" fill="url(#bg)"/>
  <circle cx="304" cy="160" r="107" fill="#26b99f" opacity="0.13"/>
  <circle cx="347" cy="288" r="89" fill="#f6bc42" opacity="0.16"/>
  <circle cx="564" cy="293" r="4" fill="#15191d" opacity="0.49"/><circle cx="155" cy="40" r="4" fill="#15191d" opacity="0.48000000000000004"/><circle cx="666" cy="115" r="4" fill="#15191d" opacity="0.51"/><circle cx="257" cy="204" r="4" fill="#15191d" opacity="0.5"/><circle cx="360" cy="307" r="4" fill="#15191d" opacity="0.45000000000000007"/><circle cx="667" cy="55" r="4" fill="#15191d" opacity="0.44000000000000006"/><circle cx="462" cy="129" r="4" fill="#15191d" opacity="0.47000000000000003"/><circle cx="53" cy="218" r="4" fill="#15191d" opacity="0.46"/><circle cx="156" cy="322" r="4" fill="#15191d" opacity="0.41000000000000003"/>
  <rect x="118" y="78" width="564" height="264" rx="26" fill="#f6bc42"/><path d="M400 78v264M118 210h564" stroke="#fff" stroke-width="7" opacity=".76"/><circle cx="400" cy="210" r="58" fill="none" stroke="#fff" stroke-width="7" opacity=".76"/><circle cx="334" cy="218" r="32" fill="#fff"/><path d="M302 218h64M334 186v64" stroke="#26b99f" stroke-width="5" opacity=".5"/>
</svg>
