<svg xmlns="http://www.w3.org/2000/svg" viewBox="0 0 800 420" role="img" aria-label="Ilustracion propia de estadio y futbol generico para esta pregunta">
  <defs>
    <linearGradient id="bg" x1="0" x2="1" y1="0" y2="1">
      <stop stop-color="#eaf8f5"/>
      <stop offset="1" stop-color="#26b99f" stop-opacity="0.22"/>
    </linearGradient>
  </defs>
  <rect width="800" height="420" fill="url(#bg)"/>
  <circle cx="695" cy="231" r="108" fill="#26b99f" opacity="0.13"/>
  <circle cx="245" cy="297" r="109" fill="#f6bc42" opacity="0.16"/>
  <circle cx="62" cy="196" r="2" fill="#15191d" opacity="0.6200000000000001"/><circle cx="369" cy="285" r="2" fill="#15191d" opacity="0.6100000000000001"/><circle cx="676" cy="374" r="2" fill="#15191d" opacity="0.6000000000000001"/><circle cx="267" cy="121" r="2" fill="#15191d" opacity="0.5900000000000001"/><circle cx="266" cy="181" r="5" fill="#15191d" opacity="0.66"/><circle cx="573" cy="270" r="5" fill="#15191d" opacity="0.65"/><circle cx="164" cy="359" r="5" fill="#15191d" opacity="0.64"/><circle cx="471" cy="107" r="5" fill="#15191d" opacity="0.63"/><circle cx="470" cy="166" r="5" fill="#15191d" opacity="0.7"/>
  <rect x="118" y="78" width="564" height="264" rx="26" fill="#f6bc42"/><path d="M400 78v264M118 210h564" stroke="#fff" stroke-width="7" opacity=".76"/><circle cx="400" cy="210" r="58" fill="none" stroke="#fff" stroke-width="7" opacity=".76"/><circle cx="372" cy="236" r="32" fill="#fff"/><path d="M340 236h64M372 204v64" stroke="#26b99f" stroke-width="5" opacity=".5"/>
</svg>
