<svg xmlns="http://www.w3.org/2000/svg" viewBox="0 0 800 420" role="img" aria-label="Ilustracion propia de arte y museo para esta pregunta">
  <defs>
    <linearGradient id="bg" x1="0" x2="1" y1="0" y2="1">
      <stop stop-color="#fff2df"/>
      <stop offset="1" stop-color="#ff4f6d" stop-opacity="0.22"/>
    </linearGradient>
  </defs>
  <rect width="800" height="420" fill="url(#bg)"/>
  <circle cx="263" cy="249" r="123" fill="#6f4a2d" opacity="0.13"/>
  <circle cx="566" cy="228" r="131" fill="#12b7a6" opacity="0.16"/>
  <circle cx="380" cy="93" r="5" fill="#ff4f6d" opacity="0.5800000000000001"/><circle cx="687" cy="182" r="5" fill="#ff4f6d" opacity="0.5700000000000001"/><circle cx="482" cy="256" r="5" fill="#ff4f6d" opacity="0.6000000000000001"/><circle cx="73" cy="345" r="5" fill="#ff4f6d" opacity="0.5900000000000001"/><circle cx="176" cy="107" r="5" fill="#ff4f6d" opacity="0.54"/><circle cx="483" cy="196" r="5" fill="#ff4f6d" opacity="0.53"/><circle cx="278" cy="271" r="5" fill="#ff4f6d" opacity="0.56"/><circle cx="585" cy="360" r="5" fill="#ff4f6d" opacity="0.55"/><circle cx="688" cy="122" r="5" fill="#ff4f6d" opacity="0.5"/>
  <rect x="270" y="54" width="304" height="312" rx="24" fill="#6f4a2d"/><rect x="300" y="84" width="244" height="252" rx="16" fill="#d9c092"/><circle cx="422" cy="178" r="54" fill="#f0c7a5"/><path d="M352 318c12-82 42-120 70-120s58 38 70 120z" fill="#ff4f6d"/><path d="M366 154c36-72 116-46 122 10-36-18-74-18-122-10z" fill="#4a2d22"/>
</svg>
