<svg xmlns="http://www.w3.org/2000/svg" viewBox="0 0 800 420" role="img" aria-label="Ilustracion propia de historia y archivo para esta pregunta">
  <defs>
    <linearGradient id="bg" x1="0" x2="1" y1="0" y2="1">
      <stop stop-color="#fff4e4"/>
      <stop offset="1" stop-color="#d9cec1" stop-opacity="0.22"/>
    </linearGradient>
  </defs>
  <rect width="800" height="420" fill="url(#bg)"/>
  <circle cx="478" cy="324" r="67" fill="#15191d" opacity="0.13"/>
  <circle cx="443" cy="202" r="124" fill="#d9cec1" opacity="0.16"/>
  <circle cx="489" cy="157" r="2" fill="#f6bc42" opacity="0.68"/><circle cx="182" cy="68" r="2" fill="#f6bc42" opacity="0.69"/><circle cx="387" cy="335" r="2" fill="#f6bc42" opacity="0.66"/><circle cx="80" cy="246" r="2" fill="#f6bc42" opacity="0.67"/><circle cx="693" cy="142" r="2" fill="#f6bc42" opacity="0.72"/><circle cx="386" cy="53" r="2" fill="#f6bc42" opacity="0.28"/><circle cx="591" cy="320" r="2" fill="#f6bc42" opacity="0.7"/><circle cx="284" cy="231" r="2" fill="#f6bc42" opacity="0.71"/><circle cx="181" cy="127" r="2" fill="#f6bc42" opacity="0.31000000000000005"/>
  <rect x="166" y="130" width="220" height="210" rx="18" fill="#fffaf4" stroke="#f6bc42" stroke-width="5"/><rect x="200" y="172" width="152" height="12" rx="6" fill="#15191d" opacity=".2"/><rect x="200" y="212" width="120" height="12" rx="6" fill="#15191d" opacity=".2"/><path d="M470 170h210L575 94z" fill="#15191d"/><rect x="500" y="190" width="32" height="120" rx="6" fill="#15191d"/><rect x="560" y="190" width="32" height="120" rx="6" fill="#15191d"/><rect x="620" y="190" width="32" height="120" rx="6" fill="#15191d"/>
</svg>
