<svg xmlns="http://www.w3.org/2000/svg" viewBox="0 0 800 420" role="img" aria-label="Ilustracion propia de historia y archivo para esta pregunta">
  <defs>
    <linearGradient id="bg" x1="0" x2="1" y1="0" y2="1">
      <stop stop-color="#fff4e4"/>
      <stop offset="1" stop-color="#15191d" stop-opacity="0.22"/>
    </linearGradient>
  </defs>
  <rect width="800" height="420" fill="url(#bg)"/>
  <circle cx="325" cy="233" r="114" fill="#15191d" opacity="0.13"/>
  <circle cx="349" cy="154" r="110" fill="#d9cec1" opacity="0.16"/>
  <circle cx="575" cy="150" r="4" fill="#f6bc42" opacity="0.6100000000000001"/><circle cx="268" cy="61" r="4" fill="#f6bc42" opacity="0.6200000000000001"/><circle cx="677" cy="313" r="4" fill="#f6bc42" opacity="0.63"/><circle cx="370" cy="224" r="4" fill="#f6bc42" opacity="0.64"/><circle cx="63" cy="135" r="4" fill="#f6bc42" opacity="0.65"/><circle cx="472" cy="46" r="4" fill="#f6bc42" opacity="0.66"/><circle cx="165" cy="299" r="4" fill="#f6bc42" opacity="0.67"/><circle cx="574" cy="210" r="4" fill="#f6bc42" opacity="0.68"/><circle cx="167" cy="179" r="4" fill="#f6bc42" opacity="0.53"/>
  <rect x="202" y="130" width="220" height="210" rx="18" fill="#fffaf4" stroke="#f6bc42" stroke-width="5"/><rect x="236" y="172" width="152" height="12" rx="6" fill="#15191d" opacity=".2"/><rect x="236" y="212" width="120" height="12" rx="6" fill="#15191d" opacity=".2"/><path d="M470 170h210L575 94z" fill="#15191d"/><rect x="500" y="190" width="32" height="120" rx="6" fill="#15191d"/><rect x="560" y="190" width="32" height="120" rx="6" fill="#15191d"/><rect x="620" y="190" width="32" height="120" rx="6" fill="#15191d"/>
</svg>
