<svg xmlns="http://www.w3.org/2000/svg" viewBox="0 0 800 420" role="img" aria-label="Ilustracion propia de estadio y futbol generico para esta pregunta">
  <defs>
    <linearGradient id="bg" x1="0" x2="1" y1="0" y2="1">
      <stop stop-color="#eaf8f5"/>
      <stop offset="1" stop-color="#15191d" stop-opacity="0.22"/>
    </linearGradient>
  </defs>
  <rect width="800" height="420" fill="url(#bg)"/>
  <circle cx="606" cy="152" r="71" fill="#26b99f" opacity="0.13"/>
  <circle cx="459" cy="252" r="74" fill="#f6bc42" opacity="0.16"/>
  <circle cx="337" cy="332" r="4" fill="#15191d" opacity="0.6000000000000001"/><circle cx="746" cy="243" r="4" fill="#15191d" opacity="0.6100000000000001"/><circle cx="235" cy="168" r="4" fill="#15191d" opacity="0.5800000000000001"/><circle cx="644" cy="79" r="4" fill="#15191d" opacity="0.5900000000000001"/><circle cx="133" cy="346" r="4" fill="#15191d" opacity="0.56"/><circle cx="542" cy="257" r="4" fill="#15191d" opacity="0.5700000000000001"/><circle cx="747" cy="183" r="4" fill="#15191d" opacity="0.54"/><circle cx="440" cy="94" r="4" fill="#15191d" opacity="0.55"/><circle cx="745" cy="303" r="3" fill="#15191d" opacity="0.68"/>
  <path d="M92 270c130-94 486-94 616 0v92H92z" fill="#26b99f" opacity=".9"/><path d="M150 270c102-54 398-54 500 0" fill="none" stroke="#fff" stroke-width="14" opacity=".64"/><rect x="165" y="304" width="470" height="62" rx="16" fill="#f6bc42"/><path d="M400 304v62M165 335h470" stroke="#fff" stroke-width="4" opacity=".65"/><path d="M400 86l18 45h48l-38 29 14 48-42-28-42 28 14-48-38-29h48z" fill="#15191d"/>
</svg>
