<svg xmlns="http://www.w3.org/2000/svg" viewBox="0 0 800 420" role="img" aria-label="Ilustracion propia de estadio y futbol generico para esta pregunta">
  <defs>
    <linearGradient id="bg" x1="0" x2="1" y1="0" y2="1">
      <stop stop-color="#eaf8f5"/>
      <stop offset="1" stop-color="#f6bc42" stop-opacity="0.22"/>
    </linearGradient>
  </defs>
  <rect width="800" height="420" fill="url(#bg)"/>
  <circle cx="686" cy="115" r="137" fill="#26b99f" opacity="0.13"/>
  <circle cx="244" cy="140" r="93" fill="#f6bc42" opacity="0.16"/>
  <circle cx="722" cy="344" r="4" fill="#15191d" opacity="0.63"/><circle cx="313" cy="91" r="4" fill="#15191d" opacity="0.6200000000000001"/><circle cx="620" cy="180" r="4" fill="#15191d" opacity="0.6100000000000001"/><circle cx="211" cy="270" r="4" fill="#15191d" opacity="0.6000000000000001"/><circle cx="210" cy="330" r="4" fill="#15191d" opacity="0.67"/><circle cx="517" cy="77" r="4" fill="#15191d" opacity="0.66"/><circle cx="108" cy="166" r="4" fill="#15191d" opacity="0.65"/><circle cx="415" cy="255" r="4" fill="#15191d" opacity="0.64"/><circle cx="314" cy="373" r="4" fill="#15191d" opacity="0.55"/>
  <rect x="118" y="78" width="564" height="264" rx="26" fill="#f6bc42"/><path d="M400 78v264M118 210h564" stroke="#fff" stroke-width="7" opacity=".76"/><circle cx="400" cy="210" r="58" fill="none" stroke="#fff" stroke-width="7" opacity=".76"/><circle cx="220" cy="164" r="32" fill="#fff"/><path d="M188 164h64M220 132v64" stroke="#26b99f" stroke-width="5" opacity=".5"/>
</svg>
