<svg xmlns="http://www.w3.org/2000/svg" viewBox="0 0 800 420" role="img" aria-label="Ilustracion propia de historia y archivo para esta pregunta">
  <defs>
    <linearGradient id="bg" x1="0" x2="1" y1="0" y2="1">
      <stop stop-color="#fff4e4"/>
      <stop offset="1" stop-color="#fff4e4" stop-opacity="0.22"/>
    </linearGradient>
  </defs>
  <rect width="800" height="420" fill="url(#bg)"/>
  <circle cx="559" cy="286" r="64" fill="#15191d" opacity="0.13"/>
  <circle cx="378" cy="90" r="124" fill="#d9cec1" opacity="0.16"/>
  <circle cx="699" cy="86" r="2" fill="#f6bc42" opacity="0.31000000000000005"/><circle cx="392" cy="339" r="2" fill="#f6bc42" opacity="0.32"/><circle cx="85" cy="249" r="2" fill="#f6bc42" opacity="0.33"/><circle cx="494" cy="160" r="2" fill="#f6bc42" opacity="0.34"/><circle cx="187" cy="71" r="2" fill="#f6bc42" opacity="0.35000000000000003"/><circle cx="596" cy="324" r="2" fill="#f6bc42" opacity="0.36000000000000004"/><circle cx="289" cy="235" r="2" fill="#f6bc42" opacity="0.37"/><circle cx="698" cy="146" r="2" fill="#f6bc42" opacity="0.38"/><circle cx="391" cy="57" r="2" fill="#f6bc42" opacity="0.39"/>
  <rect x="184" y="130" width="220" height="210" rx="18" fill="#fffaf4" stroke="#f6bc42" stroke-width="5"/><rect x="218" y="172" width="152" height="12" rx="6" fill="#15191d" opacity=".2"/><rect x="218" y="212" width="120" height="12" rx="6" fill="#15191d" opacity=".2"/><path d="M470 170h210L575 94z" fill="#15191d"/><rect x="500" y="190" width="32" height="120" rx="6" fill="#15191d"/><rect x="560" y="190" width="32" height="120" rx="6" fill="#15191d"/><rect x="620" y="190" width="32" height="120" rx="6" fill="#15191d"/>
</svg>
