<svg xmlns="http://www.w3.org/2000/svg" viewBox="0 0 800 420" role="img" aria-label="Ilustracion propia de historia y archivo para esta pregunta">
  <defs>
    <linearGradient id="bg" x1="0" x2="1" y1="0" y2="1">
      <stop stop-color="#fff4e4"/>
      <stop offset="1" stop-color="#fff4e4" stop-opacity="0.22"/>
    </linearGradient>
  </defs>
  <rect width="800" height="420" fill="url(#bg)"/>
  <circle cx="488" cy="256" r="108" fill="#15191d" opacity="0.13"/>
  <circle cx="145" cy="157" r="79" fill="#d9cec1" opacity="0.16"/>
  <circle cx="57" cy="99" r="4" fill="#f6bc42" opacity="0.68"/><circle cx="466" cy="352" r="4" fill="#f6bc42" opacity="0.69"/><circle cx="671" cy="277" r="4" fill="#f6bc42" opacity="0.66"/><circle cx="364" cy="188" r="4" fill="#f6bc42" opacity="0.67"/><circle cx="261" cy="84" r="4" fill="#f6bc42" opacity="0.72"/><circle cx="670" cy="337" r="4" fill="#f6bc42" opacity="0.28"/><circle cx="159" cy="262" r="4" fill="#f6bc42" opacity="0.7"/><circle cx="568" cy="173" r="4" fill="#f6bc42" opacity="0.71"/><circle cx="365" cy="128" r="4" fill="#f6bc42" opacity="0.6000000000000001"/>
  <rect x="166" y="130" width="220" height="210" rx="18" fill="#fffaf4" stroke="#f6bc42" stroke-width="5"/><rect x="200" y="172" width="152" height="12" rx="6" fill="#15191d" opacity=".2"/><rect x="200" y="212" width="120" height="12" rx="6" fill="#15191d" opacity=".2"/><path d="M470 170h210L575 94z" fill="#15191d"/><rect x="500" y="190" width="32" height="120" rx="6" fill="#15191d"/><rect x="560" y="190" width="32" height="120" rx="6" fill="#15191d"/><rect x="620" y="190" width="32" height="120" rx="6" fill="#15191d"/>
</svg>
