<svg xmlns="http://www.w3.org/2000/svg" viewBox="0 0 800 420" role="img" aria-label="Ilustracion propia de historia y archivo para esta pregunta">
  <defs>
    <linearGradient id="bg" x1="0" x2="1" y1="0" y2="1">
      <stop stop-color="#fff4e4"/>
      <stop offset="1" stop-color="#fff4e4" stop-opacity="0.22"/>
    </linearGradient>
  </defs>
  <rect width="800" height="420" fill="url(#bg)"/>
  <circle cx="610" cy="180" r="108" fill="#15191d" opacity="0.13"/>
  <circle cx="610" cy="184" r="79" fill="#d9cec1" opacity="0.16"/>
  <circle cx="461" cy="199" r="4" fill="#f6bc42" opacity="0.55"/><circle cx="154" cy="109" r="3" fill="#f6bc42" opacity="0.56"/><circle cx="359" cy="377" r="4" fill="#f6bc42" opacity="0.53"/><circle cx="52" cy="288" r="4" fill="#f6bc42" opacity="0.54"/><circle cx="665" cy="184" r="3" fill="#f6bc42" opacity="0.5900000000000001"/><circle cx="358" cy="95" r="3" fill="#f6bc42" opacity="0.6000000000000001"/><circle cx="563" cy="362" r="3" fill="#f6bc42" opacity="0.5700000000000001"/><circle cx="256" cy="273" r="3" fill="#f6bc42" opacity="0.5800000000000001"/><circle cx="153" cy="169" r="3" fill="#f6bc42" opacity="0.63"/>
  <rect x="202" y="130" width="220" height="210" rx="18" fill="#fffaf4" stroke="#f6bc42" stroke-width="5"/><rect x="236" y="172" width="152" height="12" rx="6" fill="#15191d" opacity=".2"/><rect x="236" y="212" width="120" height="12" rx="6" fill="#15191d" opacity=".2"/><path d="M470 170h210L575 94z" fill="#15191d"/><rect x="500" y="190" width="32" height="120" rx="6" fill="#15191d"/><rect x="560" y="190" width="32" height="120" rx="6" fill="#15191d"/><rect x="620" y="190" width="32" height="120" rx="6" fill="#15191d"/>
</svg>
