<svg xmlns="http://www.w3.org/2000/svg" viewBox="0 0 800 420" role="img" aria-label="Ilustracion propia de historia y archivo para esta pregunta">
  <defs>
    <linearGradient id="bg" x1="0" x2="1" y1="0" y2="1">
      <stop stop-color="#fff4e4"/>
      <stop offset="1" stop-color="#f6bc42" stop-opacity="0.22"/>
    </linearGradient>
  </defs>
  <rect width="800" height="420" fill="url(#bg)"/>
  <circle cx="365" cy="242" r="137" fill="#15191d" opacity="0.13"/>
  <circle cx="354" cy="227" r="123" fill="#d9cec1" opacity="0.16"/>
  <circle cx="699" cy="67" r="2" fill="#f6bc42" opacity="0.5900000000000001"/><circle cx="392" cy="320" r="2" fill="#f6bc42" opacity="0.6000000000000001"/><circle cx="85" cy="231" r="5" fill="#f6bc42" opacity="0.6100000000000001"/><circle cx="494" cy="142" r="5" fill="#f6bc42" opacity="0.6200000000000001"/><circle cx="187" cy="53" r="5" fill="#f6bc42" opacity="0.63"/><circle cx="596" cy="305" r="5" fill="#f6bc42" opacity="0.64"/><circle cx="289" cy="216" r="5" fill="#f6bc42" opacity="0.65"/><circle cx="698" cy="127" r="5" fill="#f6bc42" opacity="0.66"/><circle cx="391" cy="38" r="5" fill="#f6bc42" opacity="0.67"/>
  <rect x="202" y="130" width="220" height="210" rx="18" fill="#fffaf4" stroke="#f6bc42" stroke-width="5"/><rect x="236" y="172" width="152" height="12" rx="6" fill="#15191d" opacity=".2"/><rect x="236" y="212" width="120" height="12" rx="6" fill="#15191d" opacity=".2"/><path d="M470 170h210L575 94z" fill="#15191d"/><rect x="500" y="190" width="32" height="120" rx="6" fill="#15191d"/><rect x="560" y="190" width="32" height="120" rx="6" fill="#15191d"/><rect x="620" y="190" width="32" height="120" rx="6" fill="#15191d"/>
</svg>
