<svg xmlns="http://www.w3.org/2000/svg" viewBox="0 0 800 420" role="img" aria-label="Ilustracion propia de historia y archivo para esta pregunta">
  <defs>
    <linearGradient id="bg" x1="0" x2="1" y1="0" y2="1">
      <stop stop-color="#fff4e4"/>
      <stop offset="1" stop-color="#15191d" stop-opacity="0.22"/>
    </linearGradient>
  </defs>
  <rect width="800" height="420" fill="url(#bg)"/>
  <circle cx="356" cy="82" r="120" fill="#15191d" opacity="0.13"/>
  <circle cx="353" cy="314" r="141" fill="#d9cec1" opacity="0.16"/>
  <circle cx="501" cy="162" r="5" fill="#f6bc42" opacity="0.55"/><circle cx="194" cy="73" r="5" fill="#f6bc42" opacity="0.56"/><circle cx="399" cy="340" r="5" fill="#f6bc42" opacity="0.53"/><circle cx="92" cy="251" r="5" fill="#f6bc42" opacity="0.54"/><circle cx="297" cy="176" r="5" fill="#f6bc42" opacity="0.51"/><circle cx="706" cy="87" r="5" fill="#f6bc42" opacity="0.52"/><circle cx="195" cy="355" r="5" fill="#f6bc42" opacity="0.49"/><circle cx="604" cy="265" r="5" fill="#f6bc42" opacity="0.5"/><circle cx="193" cy="133" r="5" fill="#f6bc42" opacity="0.63"/>
  <rect x="130" y="130" width="220" height="210" rx="18" fill="#fffaf4" stroke="#f6bc42" stroke-width="5"/><rect x="164" y="172" width="152" height="12" rx="6" fill="#15191d" opacity=".2"/><rect x="164" y="212" width="120" height="12" rx="6" fill="#15191d" opacity=".2"/><path d="M470 170h210L575 94z" fill="#15191d"/><rect x="500" y="190" width="32" height="120" rx="6" fill="#15191d"/><rect x="560" y="190" width="32" height="120" rx="6" fill="#15191d"/><rect x="620" y="190" width="32" height="120" rx="6" fill="#15191d"/>
</svg>
