<svg xmlns="http://www.w3.org/2000/svg" viewBox="0 0 800 420" role="img" aria-label="Ilustracion propia de oceano y olas para esta pregunta">
  <defs>
    <linearGradient id="bg" x1="0" x2="1" y1="0" y2="1">
      <stop stop-color="#dff8ff"/>
      <stop offset="1" stop-color="#fffaf4" stop-opacity="0.22"/>
    </linearGradient>
  </defs>
  <rect width="800" height="420" fill="url(#bg)"/>
  <circle cx="251" cy="343" r="81" fill="#12b7a6" opacity="0.13"/>
  <circle cx="415" cy="97" r="86" fill="#315be8" opacity="0.16"/>
  <circle cx="713" cy="375" r="4" fill="#fffaf4" opacity="0.6200000000000001"/><circle cx="406" cy="286" r="4" fill="#fffaf4" opacity="0.63"/><circle cx="611" cy="211" r="4" fill="#fffaf4" opacity="0.6000000000000001"/><circle cx="304" cy="122" r="4" fill="#fffaf4" opacity="0.6100000000000001"/><circle cx="201" cy="360" r="4" fill="#fffaf4" opacity="0.66"/><circle cx="610" cy="271" r="4" fill="#fffaf4" opacity="0.67"/><circle cx="99" cy="196" r="4" fill="#fffaf4" opacity="0.64"/><circle cx="508" cy="107" r="4" fill="#fffaf4" opacity="0.65"/><circle cx="537" cy="276" r="4" fill="#fffaf4" opacity="0.68"/>
  <path d="M0 240c88-42 144 42 232 0s144 42 232 0 144 42 232 0 144 42 232 0v180H0z" fill="#fff" opacity=".34"/><path d="M0 286c88-42 144 42 232 0s144 42 232 0 144 42 232 0 144 42 232 0" fill="none" stroke="#fff" stroke-width="18" opacity=".62"/><path d="M142 174c82-44 170-44 252 0" fill="none" stroke="#fff" stroke-width="10" opacity=".45" stroke-linecap="round"/>
</svg>
