<svg xmlns="http://www.w3.org/2000/svg" viewBox="0 0 800 420" role="img" aria-label="Ilustracion propia de historia y archivo para esta pregunta">
  <defs>
    <linearGradient id="bg" x1="0" x2="1" y1="0" y2="1">
      <stop stop-color="#fff4e4"/>
      <stop offset="1" stop-color="#d9cec1" stop-opacity="0.22"/>
    </linearGradient>
  </defs>
  <rect width="800" height="420" fill="url(#bg)"/>
  <circle cx="450" cy="232" r="125" fill="#15191d" opacity="0.13"/>
  <circle cx="440" cy="190" r="101" fill="#d9cec1" opacity="0.16"/>
  <circle cx="621" cy="152" r="3" fill="#f6bc42" opacity="0.7"/><circle cx="314" cy="63" r="3" fill="#f6bc42" opacity="0.71"/><circle cx="519" cy="330" r="3" fill="#f6bc42" opacity="0.68"/><circle cx="212" cy="241" r="3" fill="#f6bc42" opacity="0.69"/><circle cx="109" cy="137" r="3" fill="#f6bc42" opacity="0.29000000000000004"/><circle cx="518" cy="48" r="3" fill="#f6bc42" opacity="0.30000000000000004"/><circle cx="723" cy="316" r="3" fill="#f6bc42" opacity="0.72"/><circle cx="416" cy="227" r="3" fill="#f6bc42" opacity="0.28"/><circle cx="313" cy="123" r="3" fill="#f6bc42" opacity="0.33"/>
  <rect x="202" y="130" width="220" height="210" rx="18" fill="#fffaf4" stroke="#f6bc42" stroke-width="5"/><rect x="236" y="172" width="152" height="12" rx="6" fill="#15191d" opacity=".2"/><rect x="236" y="212" width="120" height="12" rx="6" fill="#15191d" opacity=".2"/><path d="M470 170h210L575 94z" fill="#15191d"/><rect x="500" y="190" width="32" height="120" rx="6" fill="#15191d"/><rect x="560" y="190" width="32" height="120" rx="6" fill="#15191d"/><rect x="620" y="190" width="32" height="120" rx="6" fill="#15191d"/>
</svg>
