<svg xmlns="http://www.w3.org/2000/svg" viewBox="0 0 800 420" role="img" aria-label="Ilustracion propia de historia y archivo para esta pregunta">
  <defs>
    <linearGradient id="bg" x1="0" x2="1" y1="0" y2="1">
      <stop stop-color="#fff4e4"/>
      <stop offset="1" stop-color="#fff4e4" stop-opacity="0.22"/>
    </linearGradient>
  </defs>
  <rect width="800" height="420" fill="url(#bg)"/>
  <circle cx="328" cy="229" r="108" fill="#15191d" opacity="0.13"/>
  <circle cx="500" cy="154" r="79" fill="#d9cec1" opacity="0.16"/>
  <circle cx="360" cy="335" r="2" fill="#f6bc42" opacity="0.41000000000000003"/><circle cx="667" cy="82" r="2" fill="#f6bc42" opacity="0.4"/><circle cx="462" cy="157" r="2" fill="#f6bc42" opacity="0.43000000000000005"/><circle cx="53" cy="246" r="2" fill="#f6bc42" opacity="0.42000000000000004"/><circle cx="388" cy="222" r="2" fill="#f6bc42" opacity="0.51"/><circle cx="695" cy="311" r="2" fill="#f6bc42" opacity="0.5"/><circle cx="490" cy="43" r="2" fill="#f6bc42" opacity="0.53"/><circle cx="81" cy="132" r="2" fill="#f6bc42" opacity="0.52"/><circle cx="184" cy="236" r="2" fill="#f6bc42" opacity="0.47000000000000003"/>
  <rect x="166" y="130" width="220" height="210" rx="18" fill="#fffaf4" stroke="#f6bc42" stroke-width="5"/><rect x="200" y="172" width="152" height="12" rx="6" fill="#15191d" opacity=".2"/><rect x="200" y="212" width="120" height="12" rx="6" fill="#15191d" opacity=".2"/><path d="M470 170h210L575 94z" fill="#15191d"/><rect x="500" y="190" width="32" height="120" rx="6" fill="#15191d"/><rect x="560" y="190" width="32" height="120" rx="6" fill="#15191d"/><rect x="620" y="190" width="32" height="120" rx="6" fill="#15191d"/>
</svg>
