<svg xmlns="http://www.w3.org/2000/svg" viewBox="0 0 800 420" role="img" aria-label="Ilustracion propia de historia y archivo para esta pregunta">
  <defs>
    <linearGradient id="bg" x1="0" x2="1" y1="0" y2="1">
      <stop stop-color="#fff4e4"/>
      <stop offset="1" stop-color="#fff4e4" stop-opacity="0.22"/>
    </linearGradient>
  </defs>
  <rect width="800" height="420" fill="url(#bg)"/>
  <circle cx="618" cy="115" r="70" fill="#15191d" opacity="0.13"/>
  <circle cx="686" cy="68" r="134" fill="#d9cec1" opacity="0.16"/>
  <circle cx="322" cy="104" r="2" fill="#f6bc42" opacity="0.36000000000000004"/><circle cx="629" cy="193" r="2" fill="#f6bc42" opacity="0.35000000000000003"/><circle cx="220" cy="282" r="2" fill="#f6bc42" opacity="0.34"/><circle cx="527" cy="371" r="2" fill="#f6bc42" opacity="0.33"/><circle cx="526" cy="89" r="2" fill="#f6bc42" opacity="0.4"/><circle cx="117" cy="178" r="2" fill="#f6bc42" opacity="0.39"/><circle cx="424" cy="268" r="2" fill="#f6bc42" opacity="0.38"/><circle cx="731" cy="357" r="2" fill="#f6bc42" opacity="0.37"/><circle cx="730" cy="75" r="2" fill="#f6bc42" opacity="0.44000000000000006"/>
  <rect x="166" y="130" width="220" height="210" rx="18" fill="#fffaf4" stroke="#f6bc42" stroke-width="5"/><rect x="200" y="172" width="152" height="12" rx="6" fill="#15191d" opacity=".2"/><rect x="200" y="212" width="120" height="12" rx="6" fill="#15191d" opacity=".2"/><path d="M470 170h210L575 94z" fill="#15191d"/><rect x="500" y="190" width="32" height="120" rx="6" fill="#15191d"/><rect x="560" y="190" width="32" height="120" rx="6" fill="#15191d"/><rect x="620" y="190" width="32" height="120" rx="6" fill="#15191d"/>
</svg>
