<svg xmlns="http://www.w3.org/2000/svg" viewBox="0 0 800 420" role="img" aria-label="Ilustracion propia de historia y archivo para esta pregunta">
  <defs>
    <linearGradient id="bg" x1="0" x2="1" y1="0" y2="1">
      <stop stop-color="#fff4e4"/>
      <stop offset="1" stop-color="#15191d" stop-opacity="0.22"/>
    </linearGradient>
  </defs>
  <rect width="800" height="420" fill="url(#bg)"/>
  <circle cx="375" cy="161" r="94" fill="#15191d" opacity="0.13"/>
  <circle cx="580" cy="324" r="97" fill="#d9cec1" opacity="0.16"/>
  <circle cx="282" cy="268" r="2" fill="#f6bc42" opacity="0.28"/><circle cx="589" cy="357" r="2" fill="#f6bc42" opacity="0.72"/><circle cx="180" cy="104" r="2" fill="#f6bc42" opacity="0.71"/><circle cx="487" cy="194" r="2" fill="#f6bc42" opacity="0.7"/><circle cx="486" cy="254" r="2" fill="#f6bc42" opacity="0.32"/><circle cx="77" cy="343" r="2" fill="#f6bc42" opacity="0.31000000000000005"/><circle cx="384" cy="90" r="2" fill="#f6bc42" opacity="0.30000000000000004"/><circle cx="691" cy="179" r="2" fill="#f6bc42" opacity="0.29000000000000004"/><circle cx="590" cy="297" r="2" fill="#f6bc42" opacity="0.65"/>
  <rect x="202" y="130" width="220" height="210" rx="18" fill="#fffaf4" stroke="#f6bc42" stroke-width="5"/><rect x="236" y="172" width="152" height="12" rx="6" fill="#15191d" opacity=".2"/><rect x="236" y="212" width="120" height="12" rx="6" fill="#15191d" opacity=".2"/><path d="M470 170h210L575 94z" fill="#15191d"/><rect x="500" y="190" width="32" height="120" rx="6" fill="#15191d"/><rect x="560" y="190" width="32" height="120" rx="6" fill="#15191d"/><rect x="620" y="190" width="32" height="120" rx="6" fill="#15191d"/>
</svg>
