<svg xmlns="http://www.w3.org/2000/svg" viewBox="0 0 800 420" role="img" aria-label="Ilustracion propia de estadio y futbol generico para esta pregunta">
  <defs>
    <linearGradient id="bg" x1="0" x2="1" y1="0" y2="1">
      <stop stop-color="#eaf8f5"/>
      <stop offset="1" stop-color="#26b99f" stop-opacity="0.22"/>
    </linearGradient>
  </defs>
  <rect width="800" height="420" fill="url(#bg)"/>
  <circle cx="591" cy="210" r="120" fill="#26b99f" opacity="0.13"/>
  <circle cx="307" cy="187" r="111" fill="#f6bc42" opacity="0.16"/>
  <circle cx="636" cy="243" r="3" fill="#15191d" opacity="0.7"/><circle cx="227" cy="333" r="3" fill="#15191d" opacity="0.69"/><circle cx="738" cy="65" r="3" fill="#15191d" opacity="0.72"/><circle cx="329" cy="154" r="3" fill="#15191d" opacity="0.71"/><circle cx="124" cy="229" r="3" fill="#15191d" opacity="0.29000000000000004"/><circle cx="431" cy="318" r="3" fill="#15191d" opacity="0.28"/><circle cx="226" cy="51" r="3" fill="#15191d" opacity="0.31000000000000005"/><circle cx="533" cy="140" r="3" fill="#15191d" opacity="0.30000000000000004"/><circle cx="460" cy="145" r="3" fill="#15191d" opacity="0.31000000000000005"/>
  <rect x="118" y="78" width="564" height="264" rx="26" fill="#f6bc42"/><path d="M400 78v264M118 210h564" stroke="#fff" stroke-width="7" opacity=".76"/><circle cx="400" cy="210" r="58" fill="none" stroke="#fff" stroke-width="7" opacity=".76"/><circle cx="220" cy="164" r="32" fill="#fff"/><path d="M188 164h64M220 132v64" stroke="#26b99f" stroke-width="5" opacity=".5"/>
</svg>
