<svg xmlns="http://www.w3.org/2000/svg" viewBox="0 0 800 420" role="img" aria-label="Ilustracion propia de estadio y futbol generico para esta pregunta">
  <defs>
    <linearGradient id="bg" x1="0" x2="1" y1="0" y2="1">
      <stop stop-color="#eaf8f5"/>
      <stop offset="1" stop-color="#26b99f" stop-opacity="0.22"/>
    </linearGradient>
  </defs>
  <rect width="800" height="420" fill="url(#bg)"/>
  <circle cx="145" cy="176" r="102" fill="#26b99f" opacity="0.13"/>
  <circle cx="552" cy="76" r="68" fill="#f6bc42" opacity="0.16"/>
  <circle cx="633" cy="37" r="2" fill="#15191d" opacity="0.54"/><circle cx="326" cy="290" r="2" fill="#15191d" opacity="0.55"/><circle cx="531" cy="215" r="2" fill="#15191d" opacity="0.52"/><circle cx="224" cy="126" r="2" fill="#15191d" opacity="0.53"/><circle cx="121" cy="365" r="2" fill="#15191d" opacity="0.5800000000000001"/><circle cx="530" cy="275" r="2" fill="#15191d" opacity="0.5900000000000001"/><circle cx="735" cy="201" r="2" fill="#15191d" opacity="0.56"/><circle cx="428" cy="112" r="2" fill="#15191d" opacity="0.5700000000000001"/><circle cx="325" cy="350" r="2" fill="#15191d" opacity="0.6200000000000001"/>
  <rect x="118" y="78" width="564" height="264" rx="26" fill="#f6bc42"/><path d="M400 78v264M118 210h564" stroke="#fff" stroke-width="7" opacity=".76"/><circle cx="400" cy="210" r="58" fill="none" stroke="#fff" stroke-width="7" opacity=".76"/><circle cx="372" cy="236" r="32" fill="#fff"/><path d="M340 236h64M372 204v64" stroke="#26b99f" stroke-width="5" opacity=".5"/>
</svg>
