<svg xmlns="http://www.w3.org/2000/svg" viewBox="0 0 800 420" role="img" aria-label="Ilustracion propia de laboratorio cientifico para esta pregunta">
  <defs>
    <linearGradient id="bg" x1="0" x2="1" y1="0" y2="1">
      <stop stop-color="#edf9ff"/>
      <stop offset="1" stop-color="#12b7a6" stop-opacity="0.22"/>
    </linearGradient>
  </defs>
  <rect width="800" height="420" fill="url(#bg)"/>
  <circle cx="288" cy="292" r="69" fill="#fffaf4" opacity="0.13"/>
  <circle cx="345" cy="162" r="124" fill="#12b7a6" opacity="0.16"/>
  <circle cx="542" cy="236" r="2" fill="#ff4f6d" opacity="0.64"/><circle cx="133" cy="325" r="2" fill="#ff4f6d" opacity="0.63"/><circle cx="440" cy="72" r="2" fill="#ff4f6d" opacity="0.6200000000000001"/><circle cx="747" cy="161" r="2" fill="#ff4f6d" opacity="0.6100000000000001"/><circle cx="338" cy="250" r="2" fill="#ff4f6d" opacity="0.6000000000000001"/><circle cx="645" cy="339" r="2" fill="#ff4f6d" opacity="0.5900000000000001"/><circle cx="236" cy="87" r="2" fill="#ff4f6d" opacity="0.5800000000000001"/><circle cx="543" cy="176" r="2" fill="#ff4f6d" opacity="0.5700000000000001"/><circle cx="134" cy="265" r="2" fill="#ff4f6d" opacity="0.56"/>
  <path d="M370 74h116v28l-38 76v84c0 48-39 86-86 86h-8c-47 0-86-38-86-86v-84l-38-76V74h116z" fill="#12b7a6" stroke="#15191d" stroke-width="8"/><path d="M290 230h132v38c0 31-25 56-56 56h-20c-31 0-56-25-56-56z" fill="#ff4f6d" opacity=".85"/><circle cx="366" cy="250" r="12" fill="#fff"/><circle cx="344" cy="280" r="18" fill="#fff"/><path d="M528 118l68 118 68-118" fill="none" stroke="#fffaf4" stroke-width="15" stroke-linejoin="round"/>
</svg>
