<svg xmlns="http://www.w3.org/2000/svg" viewBox="0 0 800 420" role="img" aria-label="Ilustracion propia de historia y archivo para esta pregunta">
  <defs>
    <linearGradient id="bg" x1="0" x2="1" y1="0" y2="1">
      <stop stop-color="#fff4e4"/>
      <stop offset="1" stop-color="#f6bc42" stop-opacity="0.22"/>
    </linearGradient>
  </defs>
  <rect width="800" height="420" fill="url(#bg)"/>
  <circle cx="546" cy="83" r="87" fill="#15191d" opacity="0.13"/>
  <circle cx="302" cy="279" r="66" fill="#d9cec1" opacity="0.16"/>
  <circle cx="97" cy="235" r="5" fill="#f6bc42" opacity="0.32"/><circle cx="506" cy="146" r="5" fill="#f6bc42" opacity="0.33"/><circle cx="711" cy="72" r="5" fill="#f6bc42" opacity="0.30000000000000004"/><circle cx="404" cy="325" r="5" fill="#f6bc42" opacity="0.31000000000000005"/><circle cx="301" cy="221" r="5" fill="#f6bc42" opacity="0.36000000000000004"/><circle cx="710" cy="132" r="5" fill="#f6bc42" opacity="0.37"/><circle cx="199" cy="57" r="5" fill="#f6bc42" opacity="0.34"/><circle cx="608" cy="310" r="5" fill="#f6bc42" opacity="0.35000000000000003"/><circle cx="505" cy="206" r="5" fill="#f6bc42" opacity="0.4"/>
  <rect x="130" y="130" width="220" height="210" rx="18" fill="#fffaf4" stroke="#f6bc42" stroke-width="5"/><rect x="164" y="172" width="152" height="12" rx="6" fill="#15191d" opacity=".2"/><rect x="164" y="212" width="120" height="12" rx="6" fill="#15191d" opacity=".2"/><path d="M470 170h210L575 94z" fill="#15191d"/><rect x="500" y="190" width="32" height="120" rx="6" fill="#15191d"/><rect x="560" y="190" width="32" height="120" rx="6" fill="#15191d"/><rect x="620" y="190" width="32" height="120" rx="6" fill="#15191d"/>
</svg>
