<svg xmlns="http://www.w3.org/2000/svg" viewBox="0 0 800 420" role="img" aria-label="Ilustracion propia de historia y archivo para esta pregunta">
  <defs>
    <linearGradient id="bg" x1="0" x2="1" y1="0" y2="1">
      <stop stop-color="#fff4e4"/>
      <stop offset="1" stop-color="#15191d" stop-opacity="0.22"/>
    </linearGradient>
  </defs>
  <rect width="800" height="420" fill="url(#bg)"/>
  <circle cx="127" cy="253" r="140" fill="#15191d" opacity="0.13"/>
  <circle cx="324" cy="193" r="73" fill="#d9cec1" opacity="0.16"/>
  <circle cx="474" cy="348" r="5" fill="#f6bc42" opacity="0.39"/><circle cx="65" cy="95" r="5" fill="#f6bc42" opacity="0.38"/><circle cx="372" cy="184" r="5" fill="#f6bc42" opacity="0.37"/><circle cx="679" cy="273" r="5" fill="#f6bc42" opacity="0.36000000000000004"/><circle cx="678" cy="333" r="5" fill="#f6bc42" opacity="0.43000000000000005"/><circle cx="269" cy="80" r="5" fill="#f6bc42" opacity="0.42000000000000004"/><circle cx="576" cy="170" r="5" fill="#f6bc42" opacity="0.41000000000000003"/><circle cx="167" cy="259" r="5" fill="#f6bc42" opacity="0.4"/><circle cx="66" cy="377" r="5" fill="#f6bc42" opacity="0.31000000000000005"/>
  <rect x="148" y="130" width="220" height="210" rx="18" fill="#fffaf4" stroke="#f6bc42" stroke-width="5"/><rect x="182" y="172" width="152" height="12" rx="6" fill="#15191d" opacity=".2"/><rect x="182" y="212" width="120" height="12" rx="6" fill="#15191d" opacity=".2"/><path d="M470 170h210L575 94z" fill="#15191d"/><rect x="500" y="190" width="32" height="120" rx="6" fill="#15191d"/><rect x="560" y="190" width="32" height="120" rx="6" fill="#15191d"/><rect x="620" y="190" width="32" height="120" rx="6" fill="#15191d"/>
</svg>
