<svg xmlns="http://www.w3.org/2000/svg" viewBox="0 0 800 420" role="img" aria-label="Ilustracion propia de tecnologia para esta pregunta">
  <defs>
    <linearGradient id="bg" x1="0" x2="1" y1="0" y2="1">
      <stop stop-color="#111820"/>
      <stop offset="1" stop-color="#fffaf4" stop-opacity="0.22"/>
    </linearGradient>
  </defs>
  <rect width="800" height="420" fill="url(#bg)"/>
  <circle cx="366" cy="263" r="66" fill="#fffaf4" opacity="0.13"/>
  <circle cx="429" cy="194" r="124" fill="#315be8" opacity="0.16"/>
  <circle cx="443" cy="138" r="3" fill="#12b7a6" opacity="0.38"/><circle cx="136" cy="49" r="3" fill="#12b7a6" opacity="0.39"/><circle cx="545" cy="302" r="3" fill="#12b7a6" opacity="0.4"/><circle cx="238" cy="213" r="3" fill="#12b7a6" opacity="0.41000000000000003"/><circle cx="239" cy="153" r="3" fill="#12b7a6" opacity="0.34"/><circle cx="648" cy="64" r="3" fill="#12b7a6" opacity="0.35000000000000003"/><circle cx="341" cy="317" r="3" fill="#12b7a6" opacity="0.36000000000000004"/><circle cx="750" cy="228" r="3" fill="#12b7a6" opacity="0.37"/><circle cx="751" cy="168" r="4" fill="#12b7a6" opacity="0.30000000000000004"/>
  <rect width="800" height="420" fill="#fffaf4"/><rect x="108" y="72" width="584" height="276" rx="28" fill="#315be8"/><rect x="108" y="72" width="584" height="58" rx="28" fill="#12b7a6"/><path d="M210 206l-62 44 62 44M590 206l62 44-62 44" stroke="#fffaf4" stroke-width="20" stroke-linecap="round" stroke-linejoin="round" fill="none"/><path d="M364 306l72-184" stroke="#12b7a6" stroke-width="18" stroke-linecap="round"/>
</svg>
