<svg xmlns="http://www.w3.org/2000/svg" viewBox="0 0 800 420" role="img" aria-label="Ilustracion propia de oceano y olas para esta pregunta">
  <defs>
    <linearGradient id="bg" x1="0" x2="1" y1="0" y2="1">
      <stop stop-color="#dff8ff"/>
      <stop offset="1" stop-color="#12b7a6" stop-opacity="0.22"/>
    </linearGradient>
  </defs>
  <rect width="800" height="420" fill="url(#bg)"/>
  <circle cx="238" cy="337" r="130" fill="#12b7a6" opacity="0.13"/>
  <circle cx="638" cy="310" r="82" fill="#315be8" opacity="0.16"/>
  <circle cx="742" cy="97" r="3" fill="#fffaf4" opacity="0.7"/><circle cx="333" cy="186" r="3" fill="#fffaf4" opacity="0.69"/><circle cx="640" cy="275" r="3" fill="#fffaf4" opacity="0.68"/><circle cx="231" cy="364" r="3" fill="#fffaf4" opacity="0.67"/><circle cx="538" cy="112" r="3" fill="#fffaf4" opacity="0.66"/><circle cx="129" cy="201" r="3" fill="#fffaf4" opacity="0.65"/><circle cx="436" cy="290" r="3" fill="#fffaf4" opacity="0.64"/><circle cx="743" cy="37" r="3" fill="#fffaf4" opacity="0.63"/><circle cx="334" cy="126" r="3" fill="#fffaf4" opacity="0.6200000000000001"/>
  <path d="M0 240c88-42 144 42 232 0s144 42 232 0 144 42 232 0 144 42 232 0v180H0z" fill="#fff" opacity=".34"/><path d="M0 306c88-42 144 42 232 0s144 42 232 0 144 42 232 0 144 42 232 0" fill="none" stroke="#fff" stroke-width="18" opacity=".62"/><path d="M142 174c82-44 170-44 252 0" fill="none" stroke="#fff" stroke-width="10" opacity=".45" stroke-linecap="round"/>
</svg>
