<svg xmlns="http://www.w3.org/2000/svg" viewBox="0 0 800 420" role="img" aria-label="Ilustracion propia de historia y archivo para esta pregunta">
  <defs>
    <linearGradient id="bg" x1="0" x2="1" y1="0" y2="1">
      <stop stop-color="#fff4e4"/>
      <stop offset="1" stop-color="#d9cec1" stop-opacity="0.22"/>
    </linearGradient>
  </defs>
  <rect width="800" height="420" fill="url(#bg)"/>
  <circle cx="501" cy="180" r="67" fill="#15191d" opacity="0.13"/>
  <circle cx="521" cy="184" r="94" fill="#d9cec1" opacity="0.16"/>
  <circle cx="216" cy="148" r="3" fill="#f6bc42" opacity="0.36000000000000004"/><circle cx="523" cy="237" r="3" fill="#f6bc42" opacity="0.35000000000000003"/><circle cx="318" cy="312" r="3" fill="#f6bc42" opacity="0.38"/><circle cx="625" cy="59" r="3" fill="#f6bc42" opacity="0.37"/><circle cx="420" cy="134" r="3" fill="#f6bc42" opacity="0.4"/><circle cx="727" cy="223" r="3" fill="#f6bc42" opacity="0.39"/><circle cx="522" cy="297" r="3" fill="#f6bc42" opacity="0.42000000000000004"/><circle cx="113" cy="44" r="3" fill="#f6bc42" opacity="0.41000000000000003"/><circle cx="624" cy="119" r="3" fill="#f6bc42" opacity="0.44000000000000006"/>
  <rect x="130" y="130" width="220" height="210" rx="18" fill="#fffaf4" stroke="#f6bc42" stroke-width="5"/><rect x="164" y="172" width="152" height="12" rx="6" fill="#15191d" opacity=".2"/><rect x="164" y="212" width="120" height="12" rx="6" fill="#15191d" opacity=".2"/><path d="M470 170h210L575 94z" fill="#15191d"/><rect x="500" y="190" width="32" height="120" rx="6" fill="#15191d"/><rect x="560" y="190" width="32" height="120" rx="6" fill="#15191d"/><rect x="620" y="190" width="32" height="120" rx="6" fill="#15191d"/>
</svg>
