<svg xmlns="http://www.w3.org/2000/svg" viewBox="0 0 800 420" role="img" aria-label="Ilustracion propia de estadio y futbol generico para esta pregunta">
  <defs>
    <linearGradient id="bg" x1="0" x2="1" y1="0" y2="1">
      <stop stop-color="#eaf8f5"/>
      <stop offset="1" stop-color="#eaf8f5" stop-opacity="0.22"/>
    </linearGradient>
  </defs>
  <rect width="800" height="420" fill="url(#bg)"/>
  <circle cx="298" cy="175" r="142" fill="#26b99f" opacity="0.13"/>
  <circle cx="271" cy="254" r="83" fill="#f6bc42" opacity="0.16"/>
  <circle cx="216" cy="79" r="5" fill="#15191d" opacity="0.5900000000000001"/><circle cx="523" cy="168" r="5" fill="#15191d" opacity="0.5800000000000001"/><circle cx="318" cy="243" r="5" fill="#15191d" opacity="0.6100000000000001"/><circle cx="625" cy="332" r="5" fill="#15191d" opacity="0.6000000000000001"/><circle cx="420" cy="65" r="5" fill="#15191d" opacity="0.63"/><circle cx="727" cy="154" r="5" fill="#15191d" opacity="0.6200000000000001"/><circle cx="522" cy="228" r="5" fill="#15191d" opacity="0.65"/><circle cx="113" cy="318" r="5" fill="#15191d" opacity="0.64"/><circle cx="524" cy="108" r="2" fill="#15191d" opacity="0.51"/>
  <rect x="118" y="78" width="564" height="264" rx="26" fill="#f6bc42"/><path d="M400 78v264M118 210h564" stroke="#fff" stroke-width="7" opacity=".76"/><circle cx="400" cy="210" r="58" fill="none" stroke="#fff" stroke-width="7" opacity=".76"/><circle cx="296" cy="200" r="32" fill="#fff"/><path d="M264 200h64M296 168v64" stroke="#26b99f" stroke-width="5" opacity=".5"/>
</svg>
