<svg xmlns="http://www.w3.org/2000/svg" viewBox="0 0 800 420" role="img" aria-label="Ilustracion propia de historia y archivo para esta pregunta">
  <defs>
    <linearGradient id="bg" x1="0" x2="1" y1="0" y2="1">
      <stop stop-color="#fff4e4"/>
      <stop offset="1" stop-color="#f6bc42" stop-opacity="0.22"/>
    </linearGradient>
  </defs>
  <rect width="800" height="420" fill="url(#bg)"/>
  <circle cx="539" cy="217" r="111" fill="#15191d" opacity="0.13"/>
  <circle cx="676" cy="188" r="69" fill="#d9cec1" opacity="0.16"/>
  <circle cx="167" cy="187" r="4" fill="#f6bc42" opacity="0.69"/><circle cx="576" cy="98" r="4" fill="#f6bc42" opacity="0.7"/><circle cx="269" cy="351" r="4" fill="#f6bc42" opacity="0.71"/><circle cx="678" cy="262" r="4" fill="#f6bc42" opacity="0.72"/><circle cx="679" cy="202" r="4" fill="#f6bc42" opacity="0.65"/><circle cx="372" cy="113" r="4" fill="#f6bc42" opacity="0.66"/><circle cx="65" cy="365" r="4" fill="#f6bc42" opacity="0.67"/><circle cx="474" cy="276" r="4" fill="#f6bc42" opacity="0.68"/><circle cx="575" cy="158" r="4" fill="#f6bc42" opacity="0.32"/>
  <rect x="184" y="130" width="220" height="210" rx="18" fill="#fffaf4" stroke="#f6bc42" stroke-width="5"/><rect x="218" y="172" width="152" height="12" rx="6" fill="#15191d" opacity=".2"/><rect x="218" y="212" width="120" height="12" rx="6" fill="#15191d" opacity=".2"/><path d="M470 170h210L575 94z" fill="#15191d"/><rect x="500" y="190" width="32" height="120" rx="6" fill="#15191d"/><rect x="560" y="190" width="32" height="120" rx="6" fill="#15191d"/><rect x="620" y="190" width="32" height="120" rx="6" fill="#15191d"/>
</svg>
