<svg xmlns="http://www.w3.org/2000/svg" viewBox="0 0 800 420" role="img" aria-label="Ilustracion propia de historia y archivo para esta pregunta">
  <defs>
    <linearGradient id="bg" x1="0" x2="1" y1="0" y2="1">
      <stop stop-color="#fff4e4"/>
      <stop offset="1" stop-color="#d9cec1" stop-opacity="0.22"/>
    </linearGradient>
  </defs>
  <rect width="800" height="420" fill="url(#bg)"/>
  <circle cx="675" cy="129" r="87" fill="#15191d" opacity="0.13"/>
  <circle cx="468" cy="284" r="126" fill="#d9cec1" opacity="0.16"/>
  <circle cx="469" cy="43" r="4" fill="#f6bc42" opacity="0.49"/><circle cx="162" cy="295" r="4" fill="#f6bc42" opacity="0.5"/><circle cx="599" cy="93" r="4" fill="#f6bc42" opacity="0.6100000000000001"/><circle cx="292" cy="346" r="4" fill="#f6bc42" opacity="0.6200000000000001"/><circle cx="673" cy="370" r="4" fill="#f6bc42" opacity="0.53"/><circle cx="366" cy="281" r="4" fill="#f6bc42" opacity="0.54"/><circle cx="571" cy="206" r="4" fill="#f6bc42" opacity="0.51"/><circle cx="264" cy="117" r="4" fill="#f6bc42" opacity="0.52"/><circle cx="161" cy="355" r="4" fill="#f6bc42" opacity="0.5700000000000001"/>
  <rect x="202" y="130" width="220" height="210" rx="18" fill="#fffaf4" stroke="#f6bc42" stroke-width="5"/><rect x="236" y="172" width="152" height="12" rx="6" fill="#15191d" opacity=".2"/><rect x="236" y="212" width="120" height="12" rx="6" fill="#15191d" opacity=".2"/><path d="M470 170h210L575 94z" fill="#15191d"/><rect x="500" y="190" width="32" height="120" rx="6" fill="#15191d"/><rect x="560" y="190" width="32" height="120" rx="6" fill="#15191d"/><rect x="620" y="190" width="32" height="120" rx="6" fill="#15191d"/>
</svg>
