<svg xmlns="http://www.w3.org/2000/svg" viewBox="0 0 800 420" role="img" aria-label="Ilustracion propia de videojuegos para esta pregunta">
  <defs>
    <linearGradient id="bg" x1="0" x2="1" y1="0" y2="1">
      <stop stop-color="#f4efff"/>
      <stop offset="1" stop-color="#9b5cff" stop-opacity="0.22"/>
    </linearGradient>
  </defs>
  <rect width="800" height="420" fill="url(#bg)"/>
  <circle cx="423" cy="151" r="89" fill="#15191d" opacity="0.13"/>
  <circle cx="661" cy="323" r="77" fill="#9b5cff" opacity="0.16"/>
  <circle cx="297" cy="317" r="4" fill="#12b7a6" opacity="0.6100000000000001"/><circle cx="706" cy="228" r="4" fill="#12b7a6" opacity="0.6200000000000001"/><circle cx="427" cy="367" r="4" fill="#12b7a6" opacity="0.28"/><circle cx="120" cy="278" r="4" fill="#12b7a6" opacity="0.29000000000000004"/><circle cx="325" cy="204" r="4" fill="#12b7a6" opacity="0.71"/><circle cx="734" cy="115" r="4" fill="#12b7a6" opacity="0.72"/><circle cx="223" cy="40" r="4" fill="#12b7a6" opacity="0.69"/><circle cx="632" cy="293" r="4" fill="#12b7a6" opacity="0.7"/><circle cx="121" cy="218" r="4" fill="#12b7a6" opacity="0.67"/>
  <path d="M226 160c40-54 310-54 348 0l58 104c24 44-12 86-58 64l-74-36H300l-74 36c-46 22-82-20-58-64z" fill="#15191d"/><path d="M284 232h82M325 191v82" stroke="#fff" stroke-width="20" stroke-linecap="round"/><circle cx="518" cy="218" r="20" fill="#12b7a6"/><circle cx="568" cy="252" r="20" fill="#fffaf4"/><circle cx="456" cy="252" r="20" fill="#12b7a6"/>
</svg>
