<svg xmlns="http://www.w3.org/2000/svg" viewBox="0 0 800 420" role="img" aria-label="Ilustracion propia de oceano y olas para esta pregunta">
  <defs>
    <linearGradient id="bg" x1="0" x2="1" y1="0" y2="1">
      <stop stop-color="#dff8ff"/>
      <stop offset="1" stop-color="#dff8ff" stop-opacity="0.22"/>
    </linearGradient>
  </defs>
  <rect width="800" height="420" fill="url(#bg)"/>
  <circle cx="625" cy="100" r="88" fill="#12b7a6" opacity="0.13"/>
  <circle cx="387" cy="102" r="77" fill="#315be8" opacity="0.16"/>
  <circle cx="97" cy="239" r="2" fill="#fffaf4" opacity="0.48000000000000004"/><circle cx="506" cy="150" r="5" fill="#fffaf4" opacity="0.49"/><circle cx="711" cy="76" r="2" fill="#fffaf4" opacity="0.46"/><circle cx="404" cy="329" r="2" fill="#fffaf4" opacity="0.47000000000000003"/><circle cx="301" cy="225" r="5" fill="#fffaf4" opacity="0.52"/><circle cx="710" cy="136" r="5" fill="#fffaf4" opacity="0.53"/><circle cx="199" cy="61" r="5" fill="#fffaf4" opacity="0.5"/><circle cx="608" cy="314" r="5" fill="#fffaf4" opacity="0.51"/><circle cx="405" cy="269" r="2" fill="#fffaf4" opacity="0.4"/>
  <path d="M0 240c88-42 144 42 232 0s144 42 232 0 144 42 232 0 144 42 232 0v180H0z" fill="#fff" opacity=".34"/><path d="M0 326c88-42 144 42 232 0s144 42 232 0 144 42 232 0 144 42 232 0" fill="none" stroke="#fff" stroke-width="18" opacity=".62"/><path d="M142 174c82-44 170-44 252 0" fill="none" stroke="#fff" stroke-width="10" opacity=".45" stroke-linecap="round"/>
</svg>
