<svg xmlns="http://www.w3.org/2000/svg" viewBox="0 0 800 420" role="img" aria-label="Ilustracion propia de estadio y futbol generico para esta pregunta">
  <defs>
    <linearGradient id="bg" x1="0" x2="1" y1="0" y2="1">
      <stop stop-color="#eaf8f5"/>
      <stop offset="1" stop-color="#26b99f" stop-opacity="0.22"/>
    </linearGradient>
  </defs>
  <rect width="800" height="420" fill="url(#bg)"/>
  <circle cx="515" cy="89" r="114" fill="#26b99f" opacity="0.13"/>
  <circle cx="373" cy="315" r="100" fill="#f6bc42" opacity="0.16"/>
  <circle cx="704" cy="43" r="5" fill="#15191d" opacity="0.65"/><circle cx="295" cy="132" r="5" fill="#15191d" opacity="0.64"/><circle cx="90" cy="206" r="5" fill="#15191d" opacity="0.67"/><circle cx="397" cy="295" r="5" fill="#15191d" opacity="0.66"/><circle cx="500" cy="57" r="5" fill="#15191d" opacity="0.6100000000000001"/><circle cx="91" cy="146" r="5" fill="#15191d" opacity="0.6000000000000001"/><circle cx="602" cy="221" r="5" fill="#15191d" opacity="0.63"/><circle cx="193" cy="310" r="5" fill="#15191d" opacity="0.6200000000000001"/><circle cx="396" cy="355" r="5" fill="#15191d" opacity="0.28"/>
  <rect x="118" y="78" width="564" height="264" rx="26" fill="#f6bc42"/><path d="M400 78v264M118 210h564" stroke="#fff" stroke-width="7" opacity=".76"/><circle cx="400" cy="210" r="58" fill="none" stroke="#fff" stroke-width="7" opacity=".76"/><circle cx="372" cy="236" r="32" fill="#fff"/><path d="M340 236h64M372 204v64" stroke="#26b99f" stroke-width="5" opacity=".5"/>
</svg>
