<svg xmlns="http://www.w3.org/2000/svg" viewBox="0 0 800 420" role="img" aria-label="Ilustracion propia de estadio y futbol generico para esta pregunta">
  <defs>
    <linearGradient id="bg" x1="0" x2="1" y1="0" y2="1">
      <stop stop-color="#eaf8f5"/>
      <stop offset="1" stop-color="#26b99f" stop-opacity="0.22"/>
    </linearGradient>
  </defs>
  <rect width="800" height="420" fill="url(#bg)"/>
  <circle cx="340" cy="338" r="106" fill="#26b99f" opacity="0.13"/>
  <circle cx="426" cy="132" r="79" fill="#f6bc42" opacity="0.16"/>
  <circle cx="492" cy="222" r="5" fill="#15191d" opacity="0.47000000000000003"/><circle cx="83" cy="311" r="5" fill="#15191d" opacity="0.46"/><circle cx="594" cy="43" r="4" fill="#15191d" opacity="0.49"/><circle cx="185" cy="133" r="4" fill="#15191d" opacity="0.48000000000000004"/><circle cx="696" cy="207" r="4" fill="#15191d" opacity="0.51"/><circle cx="287" cy="296" r="4" fill="#15191d" opacity="0.5"/><circle cx="82" cy="371" r="4" fill="#15191d" opacity="0.53"/><circle cx="389" cy="118" r="4" fill="#15191d" opacity="0.52"/><circle cx="84" cy="251" r="5" fill="#15191d" opacity="0.39"/>
  <rect x="118" y="78" width="564" height="264" rx="26" fill="#f6bc42"/><path d="M400 78v264M118 210h564" stroke="#fff" stroke-width="7" opacity=".76"/><circle cx="400" cy="210" r="58" fill="none" stroke="#fff" stroke-width="7" opacity=".76"/><circle cx="372" cy="236" r="32" fill="#fff"/><path d="M340 236h64M372 204v64" stroke="#26b99f" stroke-width="5" opacity=".5"/>
</svg>
