<svg xmlns="http://www.w3.org/2000/svg" viewBox="0 0 800 420" role="img" aria-label="Ilustracion propia de historia y archivo para esta pregunta">
  <defs>
    <linearGradient id="bg" x1="0" x2="1" y1="0" y2="1">
      <stop stop-color="#fff4e4"/>
      <stop offset="1" stop-color="#fff4e4" stop-opacity="0.22"/>
    </linearGradient>
  </defs>
  <rect width="800" height="420" fill="url(#bg)"/>
  <circle cx="366" cy="89" r="66" fill="#15191d" opacity="0.13"/>
  <circle cx="204" cy="315" r="84" fill="#d9cec1" opacity="0.16"/>
  <circle cx="84" cy="205" r="4" fill="#f6bc42" opacity="0.68"/><circle cx="391" cy="294" r="4" fill="#f6bc42" opacity="0.67"/><circle cx="186" cy="369" r="4" fill="#f6bc42" opacity="0.7"/><circle cx="493" cy="116" r="4" fill="#f6bc42" opacity="0.69"/><circle cx="288" cy="191" r="4" fill="#f6bc42" opacity="0.72"/><circle cx="595" cy="280" r="4" fill="#f6bc42" opacity="0.71"/><circle cx="390" cy="354" r="4" fill="#f6bc42" opacity="0.29000000000000004"/><circle cx="697" cy="102" r="4" fill="#f6bc42" opacity="0.28"/><circle cx="392" cy="234" r="4" fill="#f6bc42" opacity="0.6000000000000001"/>
  <rect x="130" y="130" width="220" height="210" rx="18" fill="#fffaf4" stroke="#f6bc42" stroke-width="5"/><rect x="164" y="172" width="152" height="12" rx="6" fill="#15191d" opacity=".2"/><rect x="164" y="212" width="120" height="12" rx="6" fill="#15191d" opacity=".2"/><path d="M470 170h210L575 94z" fill="#15191d"/><rect x="500" y="190" width="32" height="120" rx="6" fill="#15191d"/><rect x="560" y="190" width="32" height="120" rx="6" fill="#15191d"/><rect x="620" y="190" width="32" height="120" rx="6" fill="#15191d"/>
</svg>
