<svg xmlns="http://www.w3.org/2000/svg" viewBox="0 0 800 420" role="img" aria-label="Ilustracion propia de escenario musical para esta pregunta">
  <defs>
    <linearGradient id="bg" x1="0" x2="1" y1="0" y2="1">
      <stop stop-color="#201525"/>
      <stop offset="1" stop-color="#201525" stop-opacity="0.22"/>
    </linearGradient>
  </defs>
  <rect width="800" height="420" fill="url(#bg)"/>
  <circle cx="149" cy="135" r="80" fill="#fffaf4" opacity="0.13"/>
  <circle cx="477" cy="178" r="126" fill="#ff4f6d" opacity="0.16"/>
  <circle cx="329" cy="140" r="2" fill="#12b7a6" opacity="0.69"/><circle cx="738" cy="51" r="2" fill="#12b7a6" opacity="0.7"/><circle cx="227" cy="318" r="2" fill="#12b7a6" opacity="0.67"/><circle cx="636" cy="229" r="2" fill="#12b7a6" opacity="0.68"/><circle cx="533" cy="125" r="2" fill="#12b7a6" opacity="0.28"/><circle cx="226" cy="36" r="2" fill="#12b7a6" opacity="0.29000000000000004"/><circle cx="431" cy="303" r="2" fill="#12b7a6" opacity="0.71"/><circle cx="124" cy="214" r="2" fill="#12b7a6" opacity="0.72"/><circle cx="637" cy="169" r="2" fill="#12b7a6" opacity="0.6100000000000001"/>
  <rect width="800" height="420" fill="#fffaf4"/><path d="M182 0l170 290M618 0L510 290" stroke="#12b7a6" stroke-width="34" opacity=".5"/><rect x="150" y="292" width="500" height="54" rx="20" fill="#ff4f6d" opacity=".9"/><path d="M280 292c26-80 214-80 240 0" fill="none" stroke="#fffaf4" stroke-width="16"/><path d="M438 98v126c0 28-24 50-58 50s-58-22-58-50 24-50 58-50c12 0 23 3 32 8V98z" fill="#ff4f6d"/>
</svg>
