<svg xmlns="http://www.w3.org/2000/svg" viewBox="0 0 800 420" role="img" aria-label="Ilustracion propia de escenario musical para esta pregunta">
  <defs>
    <linearGradient id="bg" x1="0" x2="1" y1="0" y2="1">
      <stop stop-color="#201525"/>
      <stop offset="1" stop-color="#ff4f6d" stop-opacity="0.22"/>
    </linearGradient>
  </defs>
  <rect width="800" height="420" fill="url(#bg)"/>
  <circle cx="594" cy="235" r="135" fill="#fffaf4" opacity="0.13"/>
  <circle cx="383" cy="155" r="112" fill="#ff4f6d" opacity="0.16"/>
  <circle cx="188" cy="294" r="4" fill="#12b7a6" opacity="0.72"/><circle cx="495" cy="41" r="4" fill="#12b7a6" opacity="0.71"/><circle cx="290" cy="116" r="3" fill="#12b7a6" opacity="0.29000000000000004"/><circle cx="597" cy="205" r="3" fill="#12b7a6" opacity="0.28"/><circle cx="700" cy="309" r="4" fill="#12b7a6" opacity="0.68"/><circle cx="291" cy="56" r="4" fill="#12b7a6" opacity="0.67"/><circle cx="86" cy="130" r="4" fill="#12b7a6" opacity="0.7"/><circle cx="393" cy="220" r="4" fill="#12b7a6" opacity="0.69"/><circle cx="496" cy="323" r="4" fill="#12b7a6" opacity="0.64"/>
  <rect width="800" height="420" fill="#fffaf4"/><path d="M182 0l170 290M618 0L510 290" stroke="#12b7a6" stroke-width="34" opacity=".5"/><rect x="150" y="292" width="500" height="54" rx="20" fill="#ff4f6d" opacity=".9"/><path d="M280 292c26-80 214-80 240 0" fill="none" stroke="#fffaf4" stroke-width="16"/><path d="M438 98v126c0 28-24 50-58 50s-58-22-58-50 24-50 58-50c12 0 23 3 32 8V98z" fill="#ff4f6d"/>
</svg>
