<svg xmlns="http://www.w3.org/2000/svg" viewBox="0 0 800 420" role="img" aria-label="Ilustracion propia de idiomas y conversacion para esta pregunta">
  <defs>
    <linearGradient id="bg" x1="0" x2="1" y1="0" y2="1">
      <stop stop-color="#eef7ff"/>
      <stop offset="1" stop-color="#eef7ff" stop-opacity="0.22"/>
    </linearGradient>
  </defs>
  <rect width="800" height="420" fill="url(#bg)"/>
  <circle cx="511" cy="143" r="96" fill="#315be8" opacity="0.13"/>
  <circle cx="447" cy="322" r="108" fill="#ff4f6d" opacity="0.16"/>
  <circle cx="278" cy="265" r="5" fill="#12b7a6" opacity="0.6100000000000001"/><circle cx="585" cy="354" r="5" fill="#12b7a6" opacity="0.6000000000000001"/><circle cx="176" cy="101" r="5" fill="#12b7a6" opacity="0.5900000000000001"/><circle cx="483" cy="190" r="5" fill="#12b7a6" opacity="0.5800000000000001"/><circle cx="482" cy="250" r="5" fill="#12b7a6" opacity="0.65"/><circle cx="73" cy="339" r="5" fill="#12b7a6" opacity="0.64"/><circle cx="380" cy="87" r="5" fill="#12b7a6" opacity="0.63"/><circle cx="687" cy="176" r="5" fill="#12b7a6" opacity="0.6200000000000001"/><circle cx="686" cy="236" r="5" fill="#12b7a6" opacity="0.69"/>
  <rect x="122" y="92" width="250" height="142" rx="44" fill="#fffaf4" stroke="#315be8" stroke-width="8"/><path d="M198 230l-42 54 92-52" fill="#fffaf4" stroke="#315be8" stroke-width="8" stroke-linejoin="round"/><rect x="428" y="142" width="250" height="142" rx="44" fill="#fffaf4" stroke="#12b7a6" stroke-width="8"/><path d="M602 280l42 54-92-52" fill="#fffaf4" stroke="#12b7a6" stroke-width="8" stroke-linejoin="round"/><path d="M178 158h134M178 196h86M484 208h134M484 246h86" stroke="#15191d" stroke-width="14" stroke-linecap="round" opacity=".2"/>
</svg>
