<svg xmlns="http://www.w3.org/2000/svg" viewBox="0 0 800 420" role="img" aria-label="Ilustracion propia de idiomas y conversacion para esta pregunta">
  <defs>
    <linearGradient id="bg" x1="0" x2="1" y1="0" y2="1">
      <stop stop-color="#eef7ff"/>
      <stop offset="1" stop-color="#ff4f6d" stop-opacity="0.22"/>
    </linearGradient>
  </defs>
  <rect width="800" height="420" fill="url(#bg)"/>
  <circle cx="549" cy="140" r="137" fill="#315be8" opacity="0.13"/>
  <circle cx="602" cy="143" r="93" fill="#ff4f6d" opacity="0.16"/>
  <circle cx="604" cy="144" r="2" fill="#12b7a6" opacity="0.46"/><circle cx="195" cy="233" r="2" fill="#12b7a6" opacity="0.45000000000000007"/><circle cx="706" cy="307" r="2" fill="#12b7a6" opacity="0.48000000000000004"/><circle cx="297" cy="54" r="2" fill="#12b7a6" opacity="0.47000000000000003"/><circle cx="92" cy="129" r="2" fill="#12b7a6" opacity="0.5"/><circle cx="399" cy="218" r="2" fill="#12b7a6" opacity="0.49"/><circle cx="194" cy="293" r="2" fill="#12b7a6" opacity="0.52"/><circle cx="501" cy="40" r="2" fill="#12b7a6" opacity="0.51"/><circle cx="196" cy="173" r="2" fill="#12b7a6" opacity="0.38"/>
  <rect x="122" y="92" width="250" height="142" rx="44" fill="#fffaf4" stroke="#315be8" stroke-width="8"/><path d="M198 230l-42 54 92-52" fill="#fffaf4" stroke="#315be8" stroke-width="8" stroke-linejoin="round"/><rect x="428" y="142" width="250" height="142" rx="44" fill="#fffaf4" stroke="#12b7a6" stroke-width="8"/><path d="M602 280l42 54-92-52" fill="#fffaf4" stroke="#12b7a6" stroke-width="8" stroke-linejoin="round"/><path d="M178 158h134M178 196h86M484 208h134M484 246h86" stroke="#15191d" stroke-width="14" stroke-linecap="round" opacity=".2"/>
</svg>
