<svg xmlns="http://www.w3.org/2000/svg" viewBox="0 0 800 420" role="img" aria-label="Ilustracion propia de idiomas y conversacion para esta pregunta">
  <defs>
    <linearGradient id="bg" x1="0" x2="1" y1="0" y2="1">
      <stop stop-color="#eef7ff"/>
      <stop offset="1" stop-color="#315be8" stop-opacity="0.22"/>
    </linearGradient>
  </defs>
  <rect width="800" height="420" fill="url(#bg)"/>
  <circle cx="607" cy="313" r="116" fill="#315be8" opacity="0.13"/>
  <circle cx="309" cy="236" r="130" fill="#ff4f6d" opacity="0.16"/>
  <circle cx="359" cy="97" r="5" fill="#12b7a6" opacity="0.63"/><circle cx="52" cy="350" r="5" fill="#12b7a6" opacity="0.64"/><circle cx="461" cy="260" r="5" fill="#12b7a6" opacity="0.65"/><circle cx="154" cy="171" r="5" fill="#12b7a6" opacity="0.66"/><circle cx="563" cy="82" r="5" fill="#12b7a6" opacity="0.67"/><circle cx="256" cy="335" r="5" fill="#12b7a6" opacity="0.68"/><circle cx="665" cy="246" r="5" fill="#12b7a6" opacity="0.69"/><circle cx="358" cy="157" r="5" fill="#12b7a6" opacity="0.7"/><circle cx="667" cy="126" r="2" fill="#12b7a6" opacity="0.55"/>
  <rect x="122" y="92" width="250" height="142" rx="44" fill="#fffaf4" stroke="#315be8" stroke-width="8"/><path d="M198 230l-42 54 92-52" fill="#fffaf4" stroke="#315be8" stroke-width="8" stroke-linejoin="round"/><rect x="428" y="142" width="250" height="142" rx="44" fill="#fffaf4" stroke="#12b7a6" stroke-width="8"/><path d="M602 280l42 54-92-52" fill="#fffaf4" stroke="#12b7a6" stroke-width="8" stroke-linejoin="round"/><path d="M178 158h134M178 196h86M484 208h134M484 246h86" stroke="#15191d" stroke-width="14" stroke-linecap="round" opacity=".2"/>
</svg>
