<svg xmlns="http://www.w3.org/2000/svg" viewBox="0 0 800 420" role="img" aria-label="Ilustracion propia de idiomas y conversacion para esta pregunta">
  <defs>
    <linearGradient id="bg" x1="0" x2="1" y1="0" y2="1">
      <stop stop-color="#eef7ff"/>
      <stop offset="1" stop-color="#ff4f6d" stop-opacity="0.22"/>
    </linearGradient>
  </defs>
  <rect width="800" height="420" fill="url(#bg)"/>
  <circle cx="451" cy="286" r="107" fill="#315be8" opacity="0.13"/>
  <circle cx="440" cy="197" r="129" fill="#ff4f6d" opacity="0.16"/>
  <circle cx="388" cy="165" r="3" fill="#12b7a6" opacity="0.39"/><circle cx="695" cy="254" r="3" fill="#12b7a6" opacity="0.38"/><circle cx="490" cy="328" r="3" fill="#12b7a6" opacity="0.41000000000000003"/><circle cx="81" cy="75" r="3" fill="#12b7a6" opacity="0.4"/><circle cx="184" cy="179" r="3" fill="#12b7a6" opacity="0.35000000000000003"/><circle cx="491" cy="268" r="3" fill="#12b7a6" opacity="0.34"/><circle cx="286" cy="343" r="3" fill="#12b7a6" opacity="0.37"/><circle cx="593" cy="90" r="3" fill="#12b7a6" opacity="0.36000000000000004"/><circle cx="80" cy="135" r="3" fill="#12b7a6" opacity="0.47000000000000003"/>
  <rect x="122" y="92" width="250" height="142" rx="44" fill="#fffaf4" stroke="#315be8" stroke-width="8"/><path d="M198 230l-42 54 92-52" fill="#fffaf4" stroke="#315be8" stroke-width="8" stroke-linejoin="round"/><rect x="428" y="142" width="250" height="142" rx="44" fill="#fffaf4" stroke="#12b7a6" stroke-width="8"/><path d="M602 280l42 54-92-52" fill="#fffaf4" stroke="#12b7a6" stroke-width="8" stroke-linejoin="round"/><path d="M178 158h134M178 196h86M484 208h134M484 246h86" stroke="#15191d" stroke-width="14" stroke-linecap="round" opacity=".2"/>
</svg>
