<svg xmlns="http://www.w3.org/2000/svg" viewBox="0 0 800 420" role="img" aria-label="Ilustracion propia de mapa y geografia para esta pregunta">
  <defs>
    <linearGradient id="bg" x1="0" x2="1" y1="0" y2="1">
      <stop stop-color="#eaf9f6"/>
      <stop offset="1" stop-color="#eaf9f6" stop-opacity="0.22"/>
    </linearGradient>
  </defs>
  <rect width="800" height="420" fill="url(#bg)"/>
  <circle cx="413" cy="137" r="118" fill="#fffaf4" opacity="0.13"/>
  <circle cx="135" cy="71" r="130" fill="#12b7a6" opacity="0.16"/>
  <circle cx="696" cy="297" r="5" fill="#ff4f6d" opacity="0.35000000000000003"/><circle cx="287" cy="44" r="5" fill="#ff4f6d" opacity="0.34"/><circle cx="82" cy="118" r="4" fill="#ff4f6d" opacity="0.37"/><circle cx="389" cy="208" r="5" fill="#ff4f6d" opacity="0.36000000000000004"/><circle cx="184" cy="282" r="4" fill="#ff4f6d" opacity="0.39"/><circle cx="491" cy="371" r="4" fill="#ff4f6d" opacity="0.38"/><circle cx="286" cy="104" r="4" fill="#ff4f6d" opacity="0.41000000000000003"/><circle cx="593" cy="193" r="4" fill="#ff4f6d" opacity="0.4"/><circle cx="288" cy="326" r="5" fill="#ff4f6d" opacity="0.72"/>
  <path d="M100 84l170-42 160 50 170-42 100 42v244l-170 42-160-50-170 42-100-42z" fill="#12b7a6" stroke="#15191d" stroke-width="5" opacity=".94"/><path d="M270 42v286M430 92v286M600 50v286" stroke="#15191d" stroke-width="4" opacity=".16"/><path d="M126 168c80 22 106-36 176-8 72 28 94 88 182 48 86-40 128-8 184 44" fill="none" stroke="#ff4f6d" stroke-width="14" stroke-linecap="round"/><path d="M500 140c0 36-38 70-38 70s-38-34-38-70a38 38 0 0176 0z" fill="#fffaf4"/>
</svg>
