<svg xmlns="http://www.w3.org/2000/svg" viewBox="0 0 800 420" role="img" aria-label="Ilustracion propia de mapa y geografia para esta pregunta">
  <defs>
    <linearGradient id="bg" x1="0" x2="1" y1="0" y2="1">
      <stop stop-color="#eaf9f6"/>
      <stop offset="1" stop-color="#fffaf4" stop-opacity="0.22"/>
    </linearGradient>
  </defs>
  <rect width="800" height="420" fill="url(#bg)"/>
  <circle cx="605" cy="282" r="142" fill="#fffaf4" opacity="0.13"/>
  <circle cx="384" cy="304" r="73" fill="#12b7a6" opacity="0.16"/>
  <circle cx="549" cy="156" r="3" fill="#ff4f6d" opacity="0.6100000000000001"/><circle cx="242" cy="67" r="3" fill="#ff4f6d" opacity="0.6200000000000001"/><circle cx="447" cy="335" r="3" fill="#ff4f6d" opacity="0.5900000000000001"/><circle cx="140" cy="245" r="3" fill="#ff4f6d" opacity="0.6000000000000001"/><circle cx="345" cy="171" r="3" fill="#ff4f6d" opacity="0.5700000000000001"/><circle cx="754" cy="82" r="3" fill="#ff4f6d" opacity="0.5800000000000001"/><circle cx="243" cy="349" r="3" fill="#ff4f6d" opacity="0.55"/><circle cx="652" cy="260" r="3" fill="#ff4f6d" opacity="0.56"/><circle cx="141" cy="185" r="3" fill="#ff4f6d" opacity="0.53"/>
  <path d="M100 84l170-42 160 50 170-42 100 42v244l-170 42-160-50-170 42-100-42z" fill="#12b7a6" stroke="#15191d" stroke-width="5" opacity=".94"/><path d="M270 42v286M430 92v286M600 50v286" stroke="#15191d" stroke-width="4" opacity=".16"/><path d="M126 200c80 22 106-36 176-8 72 28 94 88 182 48 86-40 128-8 184 44" fill="none" stroke="#ff4f6d" stroke-width="14" stroke-linecap="round"/><path d="M560 168c0 36-38 70-38 70s-38-34-38-70a38 38 0 0176 0z" fill="#fffaf4"/>
</svg>
