<svg xmlns="http://www.w3.org/2000/svg" viewBox="0 0 800 420" role="img" aria-label="Ilustracion propia de arte y museo para esta pregunta">
  <defs>
    <linearGradient id="bg" x1="0" x2="1" y1="0" y2="1">
      <stop stop-color="#fff2df"/>
      <stop offset="1" stop-color="#fff2df" stop-opacity="0.22"/>
    </linearGradient>
  </defs>
  <rect width="800" height="420" fill="url(#bg)"/>
  <circle cx="151" cy="220" r="134" fill="#6f4a2d" opacity="0.13"/>
  <circle cx="177" cy="332" r="102" fill="#12b7a6" opacity="0.16"/>
  <circle cx="79" cy="143" r="4" fill="#ff4f6d" opacity="0.53"/><circle cx="488" cy="53" r="4" fill="#ff4f6d" opacity="0.54"/><circle cx="181" cy="306" r="4" fill="#ff4f6d" opacity="0.55"/><circle cx="590" cy="217" r="4" fill="#ff4f6d" opacity="0.56"/><circle cx="591" cy="157" r="4" fill="#ff4f6d" opacity="0.49"/><circle cx="284" cy="68" r="4" fill="#ff4f6d" opacity="0.5"/><circle cx="693" cy="321" r="4" fill="#ff4f6d" opacity="0.51"/><circle cx="386" cy="232" r="4" fill="#ff4f6d" opacity="0.52"/><circle cx="387" cy="172" r="4" fill="#ff4f6d" opacity="0.45000000000000007"/>
  <rect x="246" y="54" width="304" height="312" rx="24" fill="#6f4a2d"/><rect x="276" y="84" width="244" height="252" rx="16" fill="#d9c092"/><circle cx="398" cy="178" r="54" fill="#f0c7a5"/><path d="M328 318c12-82 42-120 70-120s58 38 70 120z" fill="#ff4f6d"/><path d="M342 154c36-72 116-46 122 10-36-18-74-18-122-10z" fill="#4a2d22"/>
</svg>
