<svg xmlns="http://www.w3.org/2000/svg" viewBox="0 0 800 420" role="img" aria-label="Ilustracion propia de oceano y olas para esta pregunta">
  <defs>
    <linearGradient id="bg" x1="0" x2="1" y1="0" y2="1">
      <stop stop-color="#dff8ff"/>
      <stop offset="1" stop-color="#12b7a6" stop-opacity="0.22"/>
    </linearGradient>
  </defs>
  <rect width="800" height="420" fill="url(#bg)"/>
  <circle cx="342" cy="127" r="132" fill="#12b7a6" opacity="0.13"/>
  <circle cx="351" cy="70" r="102" fill="#315be8" opacity="0.16"/>
  <circle cx="326" cy="266" r="2" fill="#fffaf4" opacity="0.33"/><circle cx="633" cy="355" r="2" fill="#fffaf4" opacity="0.32"/><circle cx="224" cy="102" r="2" fill="#fffaf4" opacity="0.31000000000000005"/><circle cx="531" cy="191" r="2" fill="#fffaf4" opacity="0.30000000000000004"/><circle cx="530" cy="251" r="2" fill="#fffaf4" opacity="0.37"/><circle cx="121" cy="340" r="2" fill="#fffaf4" opacity="0.36000000000000004"/><circle cx="428" cy="87" r="2" fill="#fffaf4" opacity="0.35000000000000003"/><circle cx="735" cy="176" r="2" fill="#fffaf4" opacity="0.34"/><circle cx="734" cy="236" r="2" fill="#fffaf4" opacity="0.41000000000000003"/>
  <path d="M0 240c88-42 144 42 232 0s144 42 232 0 144 42 232 0 144 42 232 0v180H0z" fill="#fff" opacity=".34"/><path d="M0 296c88-42 144 42 232 0s144 42 232 0 144 42 232 0 144 42 232 0" fill="none" stroke="#fff" stroke-width="18" opacity=".62"/><path d="M142 174c82-44 170-44 252 0" fill="none" stroke="#fff" stroke-width="10" opacity=".45" stroke-linecap="round"/>
</svg>
