<svg xmlns="http://www.w3.org/2000/svg" viewBox="0 0 800 420" role="img" aria-label="Ilustracion propia de oceano y olas para esta pregunta">
  <defs>
    <linearGradient id="bg" x1="0" x2="1" y1="0" y2="1">
      <stop stop-color="#dff8ff"/>
      <stop offset="1" stop-color="#12b7a6" stop-opacity="0.22"/>
    </linearGradient>
  </defs>
  <rect width="800" height="420" fill="url(#bg)"/>
  <circle cx="493" cy="225" r="80" fill="#12b7a6" opacity="0.13"/>
  <circle cx="670" cy="332" r="96" fill="#315be8" opacity="0.16"/>
  <circle cx="372" cy="230" r="2" fill="#fffaf4" opacity="0.47000000000000003"/><circle cx="679" cy="319" r="2" fill="#fffaf4" opacity="0.46"/><circle cx="474" cy="52" r="2" fill="#fffaf4" opacity="0.49"/><circle cx="65" cy="141" r="2" fill="#fffaf4" opacity="0.48000000000000004"/><circle cx="168" cy="245" r="2" fill="#fffaf4" opacity="0.43000000000000005"/><circle cx="475" cy="334" r="2" fill="#fffaf4" opacity="0.42000000000000004"/><circle cx="270" cy="66" r="2" fill="#fffaf4" opacity="0.45000000000000007"/><circle cx="577" cy="155" r="2" fill="#fffaf4" opacity="0.44000000000000006"/><circle cx="680" cy="259" r="2" fill="#fffaf4" opacity="0.39"/>
  <path d="M0 240c88-42 144 42 232 0s144 42 232 0 144 42 232 0 144 42 232 0v180H0z" fill="#fff" opacity=".34"/><path d="M0 306c88-42 144 42 232 0s144 42 232 0 144 42 232 0 144 42 232 0" fill="none" stroke="#fff" stroke-width="18" opacity=".62"/><path d="M142 174c82-44 170-44 252 0" fill="none" stroke="#fff" stroke-width="10" opacity=".45" stroke-linecap="round"/>
</svg>
