<svg xmlns="http://www.w3.org/2000/svg" viewBox="0 0 800 420" role="img" aria-label="Ilustracion propia de escenario musical para esta pregunta">
  <defs>
    <linearGradient id="bg" x1="0" x2="1" y1="0" y2="1">
      <stop stop-color="#201525"/>
      <stop offset="1" stop-color="#12b7a6" stop-opacity="0.22"/>
    </linearGradient>
  </defs>
  <rect width="800" height="420" fill="url(#bg)"/>
  <circle cx="322" cy="105" r="91" fill="#fffaf4" opacity="0.13"/>
  <circle cx="199" cy="174" r="87" fill="#ff4f6d" opacity="0.16"/>
  <circle cx="248" cy="172" r="5" fill="#12b7a6" opacity="0.72"/><circle cx="555" cy="261" r="5" fill="#12b7a6" opacity="0.71"/><circle cx="350" cy="336" r="5" fill="#12b7a6" opacity="0.29000000000000004"/><circle cx="657" cy="83" r="5" fill="#12b7a6" opacity="0.28"/><circle cx="44" cy="187" r="5" fill="#12b7a6" opacity="0.68"/><circle cx="351" cy="276" r="5" fill="#12b7a6" opacity="0.67"/><circle cx="146" cy="350" r="5" fill="#12b7a6" opacity="0.7"/><circle cx="453" cy="98" r="5" fill="#12b7a6" opacity="0.69"/><circle cx="656" cy="143" r="5" fill="#12b7a6" opacity="0.35000000000000003"/>
  <rect width="800" height="420" fill="#fffaf4"/><path d="M134 0l170 290M666 0L510 290" stroke="#12b7a6" stroke-width="34" opacity=".5"/><rect x="150" y="292" width="500" height="54" rx="20" fill="#ff4f6d" opacity=".9"/><path d="M280 292c26-80 214-80 240 0" fill="none" stroke="#fffaf4" stroke-width="16"/><path d="M410 98v126c0 28-24 50-58 50s-58-22-58-50 24-50 58-50c12 0 23 3 32 8V98z" fill="#ff4f6d"/>
</svg>
