<svg xmlns="http://www.w3.org/2000/svg" viewBox="0 0 800 420" role="img" aria-label="Ilustracion propia de tecnologia para esta pregunta">
  <defs>
    <linearGradient id="bg" x1="0" x2="1" y1="0" y2="1">
      <stop stop-color="#111820"/>
      <stop offset="1" stop-color="#111820" stop-opacity="0.22"/>
    </linearGradient>
  </defs>
  <rect width="800" height="420" fill="url(#bg)"/>
  <circle cx="504" cy="292" r="72" fill="#fffaf4" opacity="0.13"/>
  <circle cx="522" cy="305" r="125" fill="#315be8" opacity="0.16"/>
  <circle cx="628" cy="172" r="3" fill="#12b7a6" opacity="0.28"/><circle cx="219" cy="261" r="3" fill="#12b7a6" opacity="0.72"/><circle cx="730" cy="336" r="3" fill="#12b7a6" opacity="0.30000000000000004"/><circle cx="321" cy="83" r="3" fill="#12b7a6" opacity="0.29000000000000004"/><circle cx="116" cy="158" r="3" fill="#12b7a6" opacity="0.32"/><circle cx="423" cy="247" r="3" fill="#12b7a6" opacity="0.31000000000000005"/><circle cx="218" cy="321" r="3" fill="#12b7a6" opacity="0.34"/><circle cx="525" cy="69" r="3" fill="#12b7a6" opacity="0.33"/><circle cx="320" cy="143" r="3" fill="#12b7a6" opacity="0.36000000000000004"/>
  <rect width="800" height="420" fill="#fffaf4"/><rect x="108" y="72" width="584" height="276" rx="28" fill="#315be8"/><rect x="108" y="72" width="584" height="58" rx="28" fill="#12b7a6"/><path d="M246 206l-62 44 62 44M554 206l62 44-62 44" stroke="#fffaf4" stroke-width="20" stroke-linecap="round" stroke-linejoin="round" fill="none"/><path d="M364 306l72-184" stroke="#12b7a6" stroke-width="18" stroke-linecap="round"/>
</svg>
