<svg xmlns="http://www.w3.org/2000/svg" viewBox="0 0 800 420" role="img" aria-label="Ilustracion propia de tecnologia para esta pregunta">
  <defs>
    <linearGradient id="bg" x1="0" x2="1" y1="0" y2="1">
      <stop stop-color="#111820"/>
      <stop offset="1" stop-color="#fffaf4" stop-opacity="0.22"/>
    </linearGradient>
  </defs>
  <rect width="800" height="420" fill="url(#bg)"/>
  <circle cx="319" cy="110" r="84" fill="#fffaf4" opacity="0.13"/>
  <circle cx="123" cy="175" r="116" fill="#315be8" opacity="0.16"/>
  <circle cx="716" cy="238" r="3" fill="#12b7a6" opacity="0.53"/><circle cx="307" cy="327" r="3" fill="#12b7a6" opacity="0.52"/><circle cx="102" cy="60" r="3" fill="#12b7a6" opacity="0.55"/><circle cx="409" cy="149" r="3" fill="#12b7a6" opacity="0.54"/><circle cx="512" cy="253" r="3" fill="#12b7a6" opacity="0.49"/><circle cx="103" cy="342" r="3" fill="#12b7a6" opacity="0.48000000000000004"/><circle cx="614" cy="74" r="3" fill="#12b7a6" opacity="0.51"/><circle cx="205" cy="163" r="3" fill="#12b7a6" opacity="0.5"/><circle cx="408" cy="209" r="2" fill="#12b7a6" opacity="0.6100000000000001"/>
  <rect width="800" height="420" fill="#fffaf4"/><rect x="108" y="72" width="584" height="276" rx="28" fill="#315be8"/><rect x="108" y="72" width="584" height="58" rx="28" fill="#12b7a6"/><path d="M246 206l-62 44 62 44M554 206l62 44-62 44" stroke="#fffaf4" stroke-width="20" stroke-linecap="round" stroke-linejoin="round" fill="none"/><path d="M364 306l72-184" stroke="#12b7a6" stroke-width="18" stroke-linecap="round"/>
</svg>
