<svg xmlns="http://www.w3.org/2000/svg" viewBox="0 0 800 420" role="img" aria-label="Ilustracion propia de tecnologia para esta pregunta">
  <defs>
    <linearGradient id="bg" x1="0" x2="1" y1="0" y2="1">
      <stop stop-color="#111820"/>
      <stop offset="1" stop-color="#111820" stop-opacity="0.22"/>
    </linearGradient>
  </defs>
  <rect width="800" height="420" fill="url(#bg)"/>
  <circle cx="403" cy="130" r="104" fill="#fffaf4" opacity="0.13"/>
  <circle cx="659" cy="249" r="89" fill="#315be8" opacity="0.16"/>
  <circle cx="61" cy="230" r="3" fill="#12b7a6" opacity="0.68"/><circle cx="470" cy="140" r="3" fill="#12b7a6" opacity="0.69"/><circle cx="675" cy="66" r="3" fill="#12b7a6" opacity="0.66"/><circle cx="368" cy="319" r="3" fill="#12b7a6" opacity="0.67"/><circle cx="573" cy="244" r="3" fill="#12b7a6" opacity="0.64"/><circle cx="266" cy="155" r="3" fill="#12b7a6" opacity="0.65"/><circle cx="471" cy="80" r="4" fill="#12b7a6" opacity="0.6200000000000001"/><circle cx="164" cy="333" r="3" fill="#12b7a6" opacity="0.63"/><circle cx="369" cy="259" r="4" fill="#12b7a6" opacity="0.6000000000000001"/>
  <rect width="800" height="420" fill="#fffaf4"/><rect x="108" y="72" width="584" height="276" rx="28" fill="#315be8"/><rect x="108" y="72" width="584" height="58" rx="28" fill="#12b7a6"/><path d="M234 206l-62 44 62 44M566 206l62 44-62 44" stroke="#fffaf4" stroke-width="20" stroke-linecap="round" stroke-linejoin="round" fill="none"/><path d="M364 306l72-184" stroke="#12b7a6" stroke-width="18" stroke-linecap="round"/>
</svg>
