<svg xmlns="http://www.w3.org/2000/svg" viewBox="0 0 800 420" role="img" aria-label="Ilustracion propia de tecnologia para esta pregunta">
  <defs>
    <linearGradient id="bg" x1="0" x2="1" y1="0" y2="1">
      <stop stop-color="#111820"/>
      <stop offset="1" stop-color="#12b7a6" stop-opacity="0.22"/>
    </linearGradient>
  </defs>
  <rect width="800" height="420" fill="url(#bg)"/>
  <circle cx="600" cy="93" r="75" fill="#fffaf4" opacity="0.13"/>
  <circle cx="309" cy="65" r="65" fill="#315be8" opacity="0.16"/>
  <circle cx="344" cy="37" r="4" fill="#12b7a6" opacity="0.5700000000000001"/><circle cx="651" cy="126" r="5" fill="#12b7a6" opacity="0.56"/><circle cx="446" cy="200" r="4" fill="#12b7a6" opacity="0.5900000000000001"/><circle cx="753" cy="289" r="4" fill="#12b7a6" opacity="0.5800000000000001"/><circle cx="548" cy="364" r="4" fill="#12b7a6" opacity="0.6100000000000001"/><circle cx="139" cy="111" r="4" fill="#12b7a6" opacity="0.6000000000000001"/><circle cx="650" cy="186" r="4" fill="#12b7a6" opacity="0.63"/><circle cx="241" cy="275" r="4" fill="#12b7a6" opacity="0.6200000000000001"/><circle cx="652" cy="66" r="5" fill="#12b7a6" opacity="0.49"/>
  <rect width="800" height="420" fill="#fffaf4"/><rect x="108" y="72" width="584" height="276" rx="28" fill="#315be8"/><rect x="108" y="72" width="584" height="58" rx="28" fill="#12b7a6"/><path d="M258 206l-62 44 62 44M542 206l62 44-62 44" stroke="#fffaf4" stroke-width="20" stroke-linecap="round" stroke-linejoin="round" fill="none"/><path d="M364 306l72-184" stroke="#12b7a6" stroke-width="18" stroke-linecap="round"/>
</svg>
