<svg xmlns="http://www.w3.org/2000/svg" viewBox="0 0 800 420" role="img" aria-label="Ilustracion propia de tecnologia para esta pregunta">
  <defs>
    <linearGradient id="bg" x1="0" x2="1" y1="0" y2="1">
      <stop stop-color="#111820"/>
      <stop offset="1" stop-color="#111820" stop-opacity="0.22"/>
    </linearGradient>
  </defs>
  <rect width="800" height="420" fill="url(#bg)"/>
  <circle cx="643" cy="223" r="88" fill="#fffaf4" opacity="0.13"/>
  <circle cx="614" cy="82" r="87" fill="#315be8" opacity="0.16"/>
  <circle cx="611" cy="210" r="5" fill="#12b7a6" opacity="0.5"/><circle cx="304" cy="121" r="5" fill="#12b7a6" opacity="0.51"/><circle cx="713" cy="374" r="5" fill="#12b7a6" opacity="0.52"/><circle cx="406" cy="285" r="5" fill="#12b7a6" opacity="0.53"/><circle cx="407" cy="225" r="5" fill="#12b7a6" opacity="0.46"/><circle cx="100" cy="136" r="5" fill="#12b7a6" opacity="0.47000000000000003"/><circle cx="509" cy="47" r="5" fill="#12b7a6" opacity="0.48000000000000004"/><circle cx="202" cy="299" r="5" fill="#12b7a6" opacity="0.49"/><circle cx="303" cy="181" r="5" fill="#12b7a6" opacity="0.5800000000000001"/>
  <rect width="800" height="420" fill="#fffaf4"/><rect x="108" y="72" width="584" height="276" rx="28" fill="#315be8"/><rect x="108" y="72" width="584" height="58" rx="28" fill="#12b7a6"/><path d="M234 206l-62 44 62 44M566 206l62 44-62 44" stroke="#fffaf4" stroke-width="20" stroke-linecap="round" stroke-linejoin="round" fill="none"/><path d="M364 306l72-184" stroke="#12b7a6" stroke-width="18" stroke-linecap="round"/>
</svg>
