<svg xmlns="http://www.w3.org/2000/svg" viewBox="0 0 800 420" role="img" aria-label="Ilustracion propia de tecnologia para esta pregunta">
  <defs>
    <linearGradient id="bg" x1="0" x2="1" y1="0" y2="1">
      <stop stop-color="#111820"/>
      <stop offset="1" stop-color="#315be8" stop-opacity="0.22"/>
    </linearGradient>
  </defs>
  <rect width="800" height="420" fill="url(#bg)"/>
  <circle cx="247" cy="174" r="95" fill="#fffaf4" opacity="0.13"/>
  <circle cx="114" cy="147" r="77" fill="#315be8" opacity="0.16"/>
  <circle cx="202" cy="138" r="5" fill="#12b7a6" opacity="0.39"/><circle cx="509" cy="227" r="5" fill="#12b7a6" opacity="0.38"/><circle cx="100" cy="316" r="5" fill="#12b7a6" opacity="0.37"/><circle cx="407" cy="63" r="5" fill="#12b7a6" opacity="0.36000000000000004"/><circle cx="406" cy="123" r="4" fill="#12b7a6" opacity="0.43000000000000005"/><circle cx="713" cy="213" r="4" fill="#12b7a6" opacity="0.42000000000000004"/><circle cx="304" cy="302" r="4" fill="#12b7a6" opacity="0.41000000000000003"/><circle cx="611" cy="49" r="5" fill="#12b7a6" opacity="0.4"/><circle cx="610" cy="109" r="4" fill="#12b7a6" opacity="0.47000000000000003"/>
  <rect width="800" height="420" fill="#fffaf4"/><rect x="108" y="72" width="584" height="276" rx="28" fill="#315be8"/><rect x="108" y="72" width="584" height="58" rx="28" fill="#12b7a6"/><path d="M222 206l-62 44 62 44M578 206l62 44-62 44" stroke="#fffaf4" stroke-width="20" stroke-linecap="round" stroke-linejoin="round" fill="none"/><path d="M364 306l72-184" stroke="#12b7a6" stroke-width="18" stroke-linecap="round"/>
</svg>
