<svg xmlns="http://www.w3.org/2000/svg" viewBox="0 0 800 420" role="img" aria-label="Ilustracion propia de tecnologia para esta pregunta">
  <defs>
    <linearGradient id="bg" x1="0" x2="1" y1="0" y2="1">
      <stop stop-color="#111820"/>
      <stop offset="1" stop-color="#111820" stop-opacity="0.22"/>
    </linearGradient>
  </defs>
  <rect width="800" height="420" fill="url(#bg)"/>
  <circle cx="137" cy="159" r="108" fill="#fffaf4" opacity="0.13"/>
  <circle cx="326" cy="217" r="129" fill="#315be8" opacity="0.16"/>
  <circle cx="179" cy="131" r="2" fill="#12b7a6" opacity="0.68"/><circle cx="588" cy="42" r="2" fill="#12b7a6" opacity="0.69"/><circle cx="281" cy="295" r="2" fill="#12b7a6" opacity="0.7"/><circle cx="690" cy="206" r="2" fill="#12b7a6" opacity="0.71"/><circle cx="691" cy="146" r="2" fill="#12b7a6" opacity="0.64"/><circle cx="384" cy="56" r="2" fill="#12b7a6" opacity="0.65"/><circle cx="77" cy="309" r="2" fill="#12b7a6" opacity="0.66"/><circle cx="486" cy="220" r="2" fill="#12b7a6" opacity="0.67"/><circle cx="487" cy="160" r="2" fill="#12b7a6" opacity="0.6000000000000001"/>
  <rect width="800" height="420" fill="#fffaf4"/><rect x="108" y="72" width="584" height="276" rx="28" fill="#315be8"/><rect x="108" y="72" width="584" height="58" rx="28" fill="#12b7a6"/><path d="M222 206l-62 44 62 44M578 206l62 44-62 44" stroke="#fffaf4" stroke-width="20" stroke-linecap="round" stroke-linejoin="round" fill="none"/><path d="M364 306l72-184" stroke="#12b7a6" stroke-width="18" stroke-linecap="round"/>
</svg>
