<svg xmlns="http://www.w3.org/2000/svg" viewBox="0 0 800 420" role="img" aria-label="Ilustracion propia de tecnologia para esta pregunta">
  <defs>
    <linearGradient id="bg" x1="0" x2="1" y1="0" y2="1">
      <stop stop-color="#111820"/>
      <stop offset="1" stop-color="#12b7a6" stop-opacity="0.22"/>
    </linearGradient>
  </defs>
  <rect width="800" height="420" fill="url(#bg)"/>
  <circle cx="617" cy="213" r="91" fill="#fffaf4" opacity="0.13"/>
  <circle cx="461" cy="295" r="137" fill="#315be8" opacity="0.16"/>
  <circle cx="689" cy="122" r="3" fill="#12b7a6" opacity="0.71"/><circle cx="382" cy="375" r="3" fill="#12b7a6" opacity="0.72"/><circle cx="587" cy="300" r="3" fill="#12b7a6" opacity="0.69"/><circle cx="280" cy="211" r="3" fill="#12b7a6" opacity="0.7"/><circle cx="485" cy="136" r="3" fill="#12b7a6" opacity="0.67"/><circle cx="178" cy="47" r="3" fill="#12b7a6" opacity="0.68"/><circle cx="383" cy="315" r="3" fill="#12b7a6" opacity="0.65"/><circle cx="76" cy="226" r="3" fill="#12b7a6" opacity="0.66"/><circle cx="281" cy="151" r="3" fill="#12b7a6" opacity="0.63"/>
  <rect width="800" height="420" fill="#fffaf4"/><rect x="108" y="72" width="584" height="276" rx="28" fill="#315be8"/><rect x="108" y="72" width="584" height="58" rx="28" fill="#12b7a6"/><path d="M222 206l-62 44 62 44M578 206l62 44-62 44" stroke="#fffaf4" stroke-width="20" stroke-linecap="round" stroke-linejoin="round" fill="none"/><path d="M364 306l72-184" stroke="#12b7a6" stroke-width="18" stroke-linecap="round"/>
</svg>
