<svg xmlns="http://www.w3.org/2000/svg" viewBox="0 0 800 420" role="img" aria-label="Ilustracion propia de tecnologia para esta pregunta">
  <defs>
    <linearGradient id="bg" x1="0" x2="1" y1="0" y2="1">
      <stop stop-color="#111820"/>
      <stop offset="1" stop-color="#12b7a6" stop-opacity="0.22"/>
    </linearGradient>
  </defs>
  <rect width="800" height="420" fill="url(#bg)"/>
  <circle cx="635" cy="172" r="131" fill="#fffaf4" opacity="0.13"/>
  <circle cx="538" cy="326" r="72" fill="#315be8" opacity="0.16"/>
  <circle cx="650" cy="97" r="2" fill="#12b7a6" opacity="0.72"/><circle cx="241" cy="186" r="2" fill="#12b7a6" opacity="0.71"/><circle cx="548" cy="275" r="2" fill="#12b7a6" opacity="0.7"/><circle cx="139" cy="365" r="2" fill="#12b7a6" opacity="0.69"/><circle cx="138" cy="83" r="2" fill="#12b7a6" opacity="0.31000000000000005"/><circle cx="445" cy="172" r="2" fill="#12b7a6" opacity="0.30000000000000004"/><circle cx="752" cy="261" r="2" fill="#12b7a6" opacity="0.29000000000000004"/><circle cx="343" cy="350" r="2" fill="#12b7a6" opacity="0.28"/><circle cx="342" cy="68" r="2" fill="#12b7a6" opacity="0.35000000000000003"/>
  <rect width="800" height="420" fill="#fffaf4"/><rect x="108" y="72" width="584" height="276" rx="28" fill="#315be8"/><rect x="108" y="72" width="584" height="58" rx="28" fill="#12b7a6"/><path d="M258 206l-62 44 62 44M542 206l62 44-62 44" stroke="#fffaf4" stroke-width="20" stroke-linecap="round" stroke-linejoin="round" fill="none"/><path d="M364 306l72-184" stroke="#12b7a6" stroke-width="18" stroke-linecap="round"/>
</svg>
