<svg xmlns="http://www.w3.org/2000/svg" viewBox="0 0 800 420" role="img" aria-label="Ilustracion propia de tecnologia para esta pregunta">
  <defs>
    <linearGradient id="bg" x1="0" x2="1" y1="0" y2="1">
      <stop stop-color="#111820"/>
      <stop offset="1" stop-color="#111820" stop-opacity="0.22"/>
    </linearGradient>
  </defs>
  <rect width="800" height="420" fill="url(#bg)"/>
  <circle cx="124" cy="287" r="104" fill="#fffaf4" opacity="0.13"/>
  <circle cx="399" cy="125" r="119" fill="#315be8" opacity="0.16"/>
  <circle cx="414" cy="122" r="5" fill="#12b7a6" opacity="0.6200000000000001"/><circle cx="721" cy="211" r="5" fill="#12b7a6" opacity="0.6100000000000001"/><circle cx="312" cy="300" r="5" fill="#12b7a6" opacity="0.6000000000000001"/><circle cx="619" cy="47" r="5" fill="#12b7a6" opacity="0.5900000000000001"/><circle cx="210" cy="136" r="5" fill="#12b7a6" opacity="0.5800000000000001"/><circle cx="517" cy="225" r="5" fill="#12b7a6" opacity="0.5700000000000001"/><circle cx="108" cy="315" r="5" fill="#12b7a6" opacity="0.56"/><circle cx="415" cy="62" r="5" fill="#12b7a6" opacity="0.55"/><circle cx="106" cy="93" r="5" fill="#12b7a6" opacity="0.7"/>
  <rect width="800" height="420" fill="#fffaf4"/><rect x="108" y="72" width="584" height="276" rx="28" fill="#315be8"/><rect x="108" y="72" width="584" height="58" rx="28" fill="#12b7a6"/><path d="M246 206l-62 44 62 44M554 206l62 44-62 44" stroke="#fffaf4" stroke-width="20" stroke-linecap="round" stroke-linejoin="round" fill="none"/><path d="M364 306l72-184" stroke="#12b7a6" stroke-width="18" stroke-linecap="round"/>
</svg>
