<svg xmlns="http://www.w3.org/2000/svg" viewBox="0 0 800 420" role="img" aria-label="Ilustracion propia de tecnologia para esta pregunta">
  <defs>
    <linearGradient id="bg" x1="0" x2="1" y1="0" y2="1">
      <stop stop-color="#111820"/>
      <stop offset="1" stop-color="#111820" stop-opacity="0.22"/>
    </linearGradient>
  </defs>
  <rect width="800" height="420" fill="url(#bg)"/>
  <circle cx="397" cy="185" r="114" fill="#fffaf4" opacity="0.13"/>
  <circle cx="358" cy="184" r="130" fill="#315be8" opacity="0.16"/>
  <circle cx="344" cy="155" r="3" fill="#12b7a6" opacity="0.6000000000000001"/><circle cx="651" cy="244" r="3" fill="#12b7a6" opacity="0.5900000000000001"/><circle cx="446" cy="319" r="3" fill="#12b7a6" opacity="0.6200000000000001"/><circle cx="753" cy="66" r="3" fill="#12b7a6" opacity="0.6100000000000001"/><circle cx="140" cy="169" r="3" fill="#12b7a6" opacity="0.56"/><circle cx="447" cy="259" r="3" fill="#12b7a6" opacity="0.55"/><circle cx="242" cy="333" r="3" fill="#12b7a6" opacity="0.5800000000000001"/><circle cx="549" cy="80" r="3" fill="#12b7a6" opacity="0.5700000000000001"/><circle cx="752" cy="126" r="2" fill="#12b7a6" opacity="0.68"/>
  <rect width="800" height="420" fill="#fffaf4"/><rect x="108" y="72" width="584" height="276" rx="28" fill="#315be8"/><rect x="108" y="72" width="584" height="58" rx="28" fill="#12b7a6"/><path d="M222 206l-62 44 62 44M578 206l62 44-62 44" stroke="#fffaf4" stroke-width="20" stroke-linecap="round" stroke-linejoin="round" fill="none"/><path d="M364 306l72-184" stroke="#12b7a6" stroke-width="18" stroke-linecap="round"/>
</svg>
