<svg xmlns="http://www.w3.org/2000/svg" viewBox="0 0 800 420" role="img" aria-label="Ilustracion propia de tecnologia para esta pregunta">
  <defs>
    <linearGradient id="bg" x1="0" x2="1" y1="0" y2="1">
      <stop stop-color="#111820"/>
      <stop offset="1" stop-color="#fffaf4" stop-opacity="0.22"/>
    </linearGradient>
  </defs>
  <rect width="800" height="420" fill="url(#bg)"/>
  <circle cx="564" cy="146" r="116" fill="#fffaf4" opacity="0.13"/>
  <circle cx="379" cy="144" r="140" fill="#315be8" opacity="0.16"/>
  <circle cx="424" cy="316" r="3" fill="#12b7a6" opacity="0.35000000000000003"/><circle cx="731" cy="64" r="3" fill="#12b7a6" opacity="0.34"/><circle cx="526" cy="138" r="3" fill="#12b7a6" opacity="0.37"/><circle cx="117" cy="227" r="3" fill="#12b7a6" opacity="0.36000000000000004"/><circle cx="628" cy="302" r="3" fill="#12b7a6" opacity="0.39"/><circle cx="219" cy="49" r="3" fill="#12b7a6" opacity="0.38"/><circle cx="730" cy="124" r="3" fill="#12b7a6" opacity="0.41000000000000003"/><circle cx="321" cy="213" r="3" fill="#12b7a6" opacity="0.4"/><circle cx="116" cy="287" r="3" fill="#12b7a6" opacity="0.43000000000000005"/>
  <rect width="800" height="420" fill="#fffaf4"/><rect x="108" y="72" width="584" height="276" rx="28" fill="#315be8"/><rect x="108" y="72" width="584" height="58" rx="28" fill="#12b7a6"/><path d="M246 206l-62 44 62 44M554 206l62 44-62 44" stroke="#fffaf4" stroke-width="20" stroke-linecap="round" stroke-linejoin="round" fill="none"/><path d="M364 306l72-184" stroke="#12b7a6" stroke-width="18" stroke-linecap="round"/>
</svg>
