<svg xmlns="http://www.w3.org/2000/svg" viewBox="0 0 800 420" role="img" aria-label="Ilustracion propia de tecnologia para esta pregunta">
  <defs>
    <linearGradient id="bg" x1="0" x2="1" y1="0" y2="1">
      <stop stop-color="#111820"/>
      <stop offset="1" stop-color="#12b7a6" stop-opacity="0.22"/>
    </linearGradient>
  </defs>
  <rect width="800" height="420" fill="url(#bg)"/>
  <circle cx="365" cy="216" r="99" fill="#fffaf4" opacity="0.13"/>
  <circle cx="504" cy="152" r="88" fill="#315be8" opacity="0.16"/>
  <circle cx="695" cy="203" r="3" fill="#12b7a6" opacity="0.44000000000000006"/><circle cx="388" cy="114" r="3" fill="#12b7a6" opacity="0.45000000000000007"/><circle cx="81" cy="366" r="3" fill="#12b7a6" opacity="0.46"/><circle cx="490" cy="277" r="3" fill="#12b7a6" opacity="0.47000000000000003"/><circle cx="491" cy="217" r="3" fill="#12b7a6" opacity="0.4"/><circle cx="184" cy="128" r="3" fill="#12b7a6" opacity="0.41000000000000003"/><circle cx="593" cy="39" r="3" fill="#12b7a6" opacity="0.42000000000000004"/><circle cx="286" cy="292" r="3" fill="#12b7a6" opacity="0.43000000000000005"/><circle cx="387" cy="174" r="2" fill="#12b7a6" opacity="0.52"/>
  <rect width="800" height="420" fill="#fffaf4"/><rect x="108" y="72" width="584" height="276" rx="28" fill="#315be8"/><rect x="108" y="72" width="584" height="58" rx="28" fill="#12b7a6"/><path d="M258 206l-62 44 62 44M542 206l62 44-62 44" stroke="#fffaf4" stroke-width="20" stroke-linecap="round" stroke-linejoin="round" fill="none"/><path d="M364 306l72-184" stroke="#12b7a6" stroke-width="18" stroke-linecap="round"/>
</svg>
