<svg xmlns="http://www.w3.org/2000/svg" viewBox="0 0 800 420" role="img" aria-label="Ilustracion propia de tecnologia para esta pregunta">
  <defs>
    <linearGradient id="bg" x1="0" x2="1" y1="0" y2="1">
      <stop stop-color="#111820"/>
      <stop offset="1" stop-color="#fffaf4" stop-opacity="0.22"/>
    </linearGradient>
  </defs>
  <rect width="800" height="420" fill="url(#bg)"/>
  <circle cx="687" cy="190" r="90" fill="#fffaf4" opacity="0.13"/>
  <circle cx="169" cy="78" r="137" fill="#315be8" opacity="0.16"/>
  <circle cx="356" cy="114" r="2" fill="#12b7a6" opacity="0.71"/><circle cx="663" cy="203" r="3" fill="#12b7a6" opacity="0.7"/><circle cx="458" cy="278" r="2" fill="#12b7a6" opacity="0.28"/><circle cx="49" cy="367" r="2" fill="#12b7a6" opacity="0.72"/><circle cx="152" cy="129" r="3" fill="#12b7a6" opacity="0.67"/><circle cx="459" cy="218" r="3" fill="#12b7a6" opacity="0.66"/><circle cx="254" cy="293" r="3" fill="#12b7a6" opacity="0.69"/><circle cx="561" cy="40" r="3" fill="#12b7a6" opacity="0.68"/><circle cx="48" cy="85" r="2" fill="#12b7a6" opacity="0.34"/>
  <rect width="800" height="420" fill="#fffaf4"/><rect x="108" y="72" width="584" height="276" rx="28" fill="#315be8"/><rect x="108" y="72" width="584" height="58" rx="28" fill="#12b7a6"/><path d="M222 206l-62 44 62 44M578 206l62 44-62 44" stroke="#fffaf4" stroke-width="20" stroke-linecap="round" stroke-linejoin="round" fill="none"/><path d="M364 306l72-184" stroke="#12b7a6" stroke-width="18" stroke-linecap="round"/>
</svg>
