<svg xmlns="http://www.w3.org/2000/svg" viewBox="0 0 800 420" role="img" aria-label="Ilustracion propia de tecnologia para esta pregunta">
  <defs>
    <linearGradient id="bg" x1="0" x2="1" y1="0" y2="1">
      <stop stop-color="#111820"/>
      <stop offset="1" stop-color="#315be8" stop-opacity="0.22"/>
    </linearGradient>
  </defs>
  <rect width="800" height="420" fill="url(#bg)"/>
  <circle cx="649" cy="246" r="87" fill="#fffaf4" opacity="0.13"/>
  <circle cx="240" cy="228" r="136" fill="#315be8" opacity="0.16"/>
  <circle cx="94" cy="361" r="5" fill="#12b7a6" opacity="0.48000000000000004"/><circle cx="401" cy="108" r="5" fill="#12b7a6" opacity="0.47000000000000003"/><circle cx="708" cy="197" r="5" fill="#12b7a6" opacity="0.46"/><circle cx="299" cy="286" r="5" fill="#12b7a6" opacity="0.45000000000000007"/><circle cx="298" cy="346" r="4" fill="#12b7a6" opacity="0.52"/><circle cx="605" cy="93" r="4" fill="#12b7a6" opacity="0.51"/><circle cx="196" cy="182" r="5" fill="#12b7a6" opacity="0.5"/><circle cx="503" cy="272" r="5" fill="#12b7a6" opacity="0.49"/><circle cx="502" cy="332" r="4" fill="#12b7a6" opacity="0.56"/>
  <rect width="800" height="420" fill="#fffaf4"/><rect x="108" y="72" width="584" height="276" rx="28" fill="#315be8"/><rect x="108" y="72" width="584" height="58" rx="28" fill="#12b7a6"/><path d="M246 206l-62 44 62 44M554 206l62 44-62 44" stroke="#fffaf4" stroke-width="20" stroke-linecap="round" stroke-linejoin="round" fill="none"/><path d="M364 306l72-184" stroke="#12b7a6" stroke-width="18" stroke-linecap="round"/>
</svg>
