<svg xmlns="http://www.w3.org/2000/svg" viewBox="0 0 800 420" role="img" aria-label="Ilustracion propia de tecnologia para esta pregunta">
  <defs>
    <linearGradient id="bg" x1="0" x2="1" y1="0" y2="1">
      <stop stop-color="#111820"/>
      <stop offset="1" stop-color="#315be8" stop-opacity="0.22"/>
    </linearGradient>
  </defs>
  <rect width="800" height="420" fill="url(#bg)"/>
  <circle cx="201" cy="198" r="81" fill="#fffaf4" opacity="0.13"/>
  <circle cx="634" cy="329" r="126" fill="#315be8" opacity="0.16"/>
  <circle cx="277" cy="195" r="2" fill="#12b7a6" opacity="0.41000000000000003"/><circle cx="686" cy="106" r="2" fill="#12b7a6" opacity="0.42000000000000004"/><circle cx="175" cy="374" r="3" fill="#12b7a6" opacity="0.39"/><circle cx="584" cy="285" r="2" fill="#12b7a6" opacity="0.4"/><circle cx="481" cy="181" r="2" fill="#12b7a6" opacity="0.45000000000000007"/><circle cx="174" cy="92" r="2" fill="#12b7a6" opacity="0.46"/><circle cx="379" cy="359" r="2" fill="#12b7a6" opacity="0.43000000000000005"/><circle cx="72" cy="270" r="2" fill="#12b7a6" opacity="0.44000000000000006"/><circle cx="585" cy="225" r="3" fill="#12b7a6" opacity="0.33"/>
  <rect width="800" height="420" fill="#fffaf4"/><rect x="108" y="72" width="584" height="276" rx="28" fill="#315be8"/><rect x="108" y="72" width="584" height="58" rx="28" fill="#12b7a6"/><path d="M210 206l-62 44 62 44M590 206l62 44-62 44" stroke="#fffaf4" stroke-width="20" stroke-linecap="round" stroke-linejoin="round" fill="none"/><path d="M364 306l72-184" stroke="#12b7a6" stroke-width="18" stroke-linecap="round"/>
</svg>
