<svg xmlns="http://www.w3.org/2000/svg" viewBox="0 0 800 420" role="img" aria-label="Ilustracion propia de tecnologia para esta pregunta">
  <defs>
    <linearGradient id="bg" x1="0" x2="1" y1="0" y2="1">
      <stop stop-color="#111820"/>
      <stop offset="1" stop-color="#111820" stop-opacity="0.22"/>
    </linearGradient>
  </defs>
  <rect width="800" height="420" fill="url(#bg)"/>
  <circle cx="115" cy="282" r="114" fill="#fffaf4" opacity="0.13"/>
  <circle cx="98" cy="304" r="90" fill="#315be8" opacity="0.16"/>
  <circle cx="219" cy="245" r="5" fill="#12b7a6" opacity="0.68"/><circle cx="628" cy="156" r="5" fill="#12b7a6" opacity="0.69"/><circle cx="321" cy="67" r="5" fill="#12b7a6" opacity="0.7"/><circle cx="730" cy="320" r="5" fill="#12b7a6" opacity="0.71"/><circle cx="423" cy="231" r="5" fill="#12b7a6" opacity="0.72"/><circle cx="116" cy="142" r="5" fill="#12b7a6" opacity="0.28"/><circle cx="525" cy="53" r="5" fill="#12b7a6" opacity="0.29000000000000004"/><circle cx="218" cy="305" r="5" fill="#12b7a6" opacity="0.30000000000000004"/><circle cx="527" cy="275" r="5" fill="#12b7a6" opacity="0.6000000000000001"/>
  <rect width="800" height="420" fill="#fffaf4"/><rect x="108" y="72" width="584" height="276" rx="28" fill="#315be8"/><rect x="108" y="72" width="584" height="58" rx="28" fill="#12b7a6"/><path d="M258 206l-62 44 62 44M542 206l62 44-62 44" stroke="#fffaf4" stroke-width="20" stroke-linecap="round" stroke-linejoin="round" fill="none"/><path d="M364 306l72-184" stroke="#12b7a6" stroke-width="18" stroke-linecap="round"/>
</svg>
