<svg xmlns="http://www.w3.org/2000/svg" viewBox="0 0 800 420" role="img" aria-label="Ilustracion propia de tecnologia para esta pregunta">
  <defs>
    <linearGradient id="bg" x1="0" x2="1" y1="0" y2="1">
      <stop stop-color="#111820"/>
      <stop offset="1" stop-color="#111820" stop-opacity="0.22"/>
    </linearGradient>
  </defs>
  <rect width="800" height="420" fill="url(#bg)"/>
  <circle cx="289" cy="113" r="82" fill="#fffaf4" opacity="0.13"/>
  <circle cx="495" cy="175" r="116" fill="#315be8" opacity="0.16"/>
  <circle cx="663" cy="323" r="2" fill="#12b7a6" opacity="0.37"/><circle cx="356" cy="234" r="2" fill="#12b7a6" opacity="0.38"/><circle cx="49" cy="145" r="2" fill="#12b7a6" opacity="0.39"/><circle cx="458" cy="56" r="2" fill="#12b7a6" opacity="0.4"/><circle cx="459" cy="338" r="2" fill="#12b7a6" opacity="0.33"/><circle cx="152" cy="248" r="2" fill="#12b7a6" opacity="0.34"/><circle cx="561" cy="159" r="2" fill="#12b7a6" opacity="0.35000000000000003"/><circle cx="254" cy="70" r="2" fill="#12b7a6" opacity="0.36000000000000004"/><circle cx="355" cy="294" r="2" fill="#12b7a6" opacity="0.45000000000000007"/>
  <rect width="800" height="420" fill="#fffaf4"/><rect x="108" y="72" width="584" height="276" rx="28" fill="#315be8"/><rect x="108" y="72" width="584" height="58" rx="28" fill="#12b7a6"/><path d="M246 206l-62 44 62 44M554 206l62 44-62 44" stroke="#fffaf4" stroke-width="20" stroke-linecap="round" stroke-linejoin="round" fill="none"/><path d="M364 306l72-184" stroke="#12b7a6" stroke-width="18" stroke-linecap="round"/>
</svg>
