<svg xmlns="http://www.w3.org/2000/svg" viewBox="0 0 800 420" role="img" aria-label="Ilustracion propia de tecnologia para esta pregunta">
  <defs>
    <linearGradient id="bg" x1="0" x2="1" y1="0" y2="1">
      <stop stop-color="#111820"/>
      <stop offset="1" stop-color="#111820" stop-opacity="0.22"/>
    </linearGradient>
  </defs>
  <rect width="800" height="420" fill="url(#bg)"/>
  <circle cx="192" cy="259" r="140" fill="#fffaf4" opacity="0.13"/>
  <circle cx="108" cy="265" r="123" fill="#315be8" opacity="0.16"/>
  <circle cx="660" cy="187" r="3" fill="#12b7a6" opacity="0.63"/><circle cx="251" cy="276" r="3" fill="#12b7a6" opacity="0.6200000000000001"/><circle cx="46" cy="350" r="3" fill="#12b7a6" opacity="0.65"/><circle cx="353" cy="98" r="3" fill="#12b7a6" opacity="0.64"/><circle cx="456" cy="201" r="3" fill="#12b7a6" opacity="0.5900000000000001"/><circle cx="47" cy="290" r="3" fill="#12b7a6" opacity="0.5800000000000001"/><circle cx="558" cy="365" r="3" fill="#12b7a6" opacity="0.6100000000000001"/><circle cx="149" cy="112" r="3" fill="#12b7a6" opacity="0.6000000000000001"/><circle cx="352" cy="158" r="2" fill="#12b7a6" opacity="0.71"/>
  <rect width="800" height="420" fill="#fffaf4"/><rect x="108" y="72" width="584" height="276" rx="28" fill="#315be8"/><rect x="108" y="72" width="584" height="58" rx="28" fill="#12b7a6"/><path d="M222 206l-62 44 62 44M578 206l62 44-62 44" stroke="#fffaf4" stroke-width="20" stroke-linecap="round" stroke-linejoin="round" fill="none"/><path d="M364 306l72-184" stroke="#12b7a6" stroke-width="18" stroke-linecap="round"/>
</svg>
