<svg xmlns="http://www.w3.org/2000/svg" viewBox="0 0 800 420" role="img" aria-label="Ilustracion propia de tecnologia para esta pregunta">
  <defs>
    <linearGradient id="bg" x1="0" x2="1" y1="0" y2="1">
      <stop stop-color="#111820"/>
      <stop offset="1" stop-color="#fffaf4" stop-opacity="0.22"/>
    </linearGradient>
  </defs>
  <rect width="800" height="420" fill="url(#bg)"/>
  <circle cx="428" cy="77" r="106" fill="#fffaf4" opacity="0.13"/>
  <circle cx="212" cy="171" r="79" fill="#315be8" opacity="0.16"/>
  <circle cx="560" cy="166" r="3" fill="#12b7a6" opacity="0.37"/><circle cx="151" cy="256" r="3" fill="#12b7a6" opacity="0.36000000000000004"/><circle cx="662" cy="330" r="3" fill="#12b7a6" opacity="0.39"/><circle cx="253" cy="77" r="3" fill="#12b7a6" opacity="0.38"/><circle cx="356" cy="181" r="3" fill="#12b7a6" opacity="0.33"/><circle cx="663" cy="270" r="3" fill="#12b7a6" opacity="0.32"/><circle cx="458" cy="345" r="3" fill="#12b7a6" opacity="0.35000000000000003"/><circle cx="49" cy="92" r="3" fill="#12b7a6" opacity="0.34"/><circle cx="152" cy="196" r="3" fill="#12b7a6" opacity="0.29000000000000004"/>
  <rect width="800" height="420" fill="#fffaf4"/><rect x="108" y="72" width="584" height="276" rx="28" fill="#315be8"/><rect x="108" y="72" width="584" height="58" rx="28" fill="#12b7a6"/><path d="M234 206l-62 44 62 44M566 206l62 44-62 44" stroke="#fffaf4" stroke-width="20" stroke-linecap="round" stroke-linejoin="round" fill="none"/><path d="M364 306l72-184" stroke="#12b7a6" stroke-width="18" stroke-linecap="round"/>
</svg>
