<svg xmlns="http://www.w3.org/2000/svg" viewBox="0 0 800 420" role="img" aria-label="Ilustracion propia de tecnologia para esta pregunta">
  <defs>
    <linearGradient id="bg" x1="0" x2="1" y1="0" y2="1">
      <stop stop-color="#111820"/>
      <stop offset="1" stop-color="#12b7a6" stop-opacity="0.22"/>
    </linearGradient>
  </defs>
  <rect width="800" height="420" fill="url(#bg)"/>
  <circle cx="214" cy="201" r="83" fill="#fffaf4" opacity="0.13"/>
  <circle cx="335" cy="186" r="116" fill="#315be8" opacity="0.16"/>
  <circle cx="91" cy="92" r="5" fill="#12b7a6" opacity="0.56"/><circle cx="500" cy="345" r="5" fill="#12b7a6" opacity="0.5700000000000001"/><circle cx="193" cy="256" r="5" fill="#12b7a6" opacity="0.5800000000000001"/><circle cx="602" cy="167" r="5" fill="#12b7a6" opacity="0.5900000000000001"/><circle cx="295" cy="77" r="5" fill="#12b7a6" opacity="0.6000000000000001"/><circle cx="704" cy="330" r="5" fill="#12b7a6" opacity="0.6100000000000001"/><circle cx="397" cy="241" r="4" fill="#12b7a6" opacity="0.6200000000000001"/><circle cx="90" cy="152" r="4" fill="#12b7a6" opacity="0.63"/><circle cx="399" cy="121" r="5" fill="#12b7a6" opacity="0.48000000000000004"/>
  <rect width="800" height="420" fill="#fffaf4"/><rect x="108" y="72" width="584" height="276" rx="28" fill="#315be8"/><rect x="108" y="72" width="584" height="58" rx="28" fill="#12b7a6"/><path d="M246 206l-62 44 62 44M554 206l62 44-62 44" stroke="#fffaf4" stroke-width="20" stroke-linecap="round" stroke-linejoin="round" fill="none"/><path d="M364 306l72-184" stroke="#12b7a6" stroke-width="18" stroke-linecap="round"/>
</svg>
