<svg xmlns="http://www.w3.org/2000/svg" viewBox="0 0 800 420" role="img" aria-label="Ilustracion propia de videojuegos para esta pregunta">
  <defs>
    <linearGradient id="bg" x1="0" x2="1" y1="0" y2="1">
      <stop stop-color="#f4efff"/>
      <stop offset="1" stop-color="#f4efff" stop-opacity="0.22"/>
    </linearGradient>
  </defs>
  <rect width="800" height="420" fill="url(#bg)"/>
  <circle cx="213" cy="217" r="80" fill="#15191d" opacity="0.13"/>
  <circle cx="485" cy="295" r="136" fill="#9b5cff" opacity="0.16"/>
  <circle cx="60" cy="151" r="4" fill="#12b7a6" opacity="0.6000000000000001"/><circle cx="367" cy="240" r="4" fill="#12b7a6" opacity="0.5900000000000001"/><circle cx="162" cy="315" r="4" fill="#12b7a6" opacity="0.6200000000000001"/><circle cx="469" cy="62" r="4" fill="#12b7a6" opacity="0.6100000000000001"/><circle cx="572" cy="166" r="4" fill="#12b7a6" opacity="0.56"/><circle cx="163" cy="255" r="4" fill="#12b7a6" opacity="0.55"/><circle cx="674" cy="329" r="4" fill="#12b7a6" opacity="0.5800000000000001"/><circle cx="265" cy="76" r="4" fill="#12b7a6" opacity="0.5700000000000001"/><circle cx="368" cy="180" r="4" fill="#12b7a6" opacity="0.52"/>
  <path d="M226 160c40-54 310-54 348 0l58 104c24 44-12 86-58 64l-74-36H300l-74 36c-46 22-82-20-58-64z" fill="#15191d"/><path d="M284 232h82M325 191v82" stroke="#fff" stroke-width="20" stroke-linecap="round"/><circle cx="518" cy="218" r="20" fill="#12b7a6"/><circle cx="568" cy="252" r="20" fill="#fffaf4"/><circle cx="456" cy="252" r="20" fill="#12b7a6"/>
</svg>
