<svg xmlns="http://www.w3.org/2000/svg" viewBox="0 0 800 420" role="img" aria-label="Ilustracion propia de estadio y futbol generico para esta pregunta">
  <defs>
    <linearGradient id="bg" x1="0" x2="1" y1="0" y2="1">
      <stop stop-color="#eaf8f5"/>
      <stop offset="1" stop-color="#eaf8f5" stop-opacity="0.22"/>
    </linearGradient>
  </defs>
  <rect width="800" height="420" fill="url(#bg)"/>
  <circle cx="369" cy="138" r="122" fill="#26b99f" opacity="0.13"/>
  <circle cx="130" cy="250" r="111" fill="#f6bc42" opacity="0.16"/>
  <circle cx="467" cy="186" r="2" fill="#15191d" opacity="0.71"/><circle cx="160" cy="96" r="2" fill="#15191d" opacity="0.72"/><circle cx="569" cy="349" r="2" fill="#15191d" opacity="0.28"/><circle cx="262" cy="260" r="2" fill="#15191d" opacity="0.29000000000000004"/><circle cx="671" cy="171" r="2" fill="#15191d" opacity="0.30000000000000004"/><circle cx="364" cy="82" r="2" fill="#15191d" opacity="0.31000000000000005"/><circle cx="57" cy="335" r="2" fill="#15191d" opacity="0.32"/><circle cx="466" cy="246" r="2" fill="#15191d" opacity="0.33"/><circle cx="159" cy="156" r="2" fill="#15191d" opacity="0.34"/>
  <path d="M92 270c130-94 486-94 616 0v92H92z" fill="#26b99f" opacity=".9"/><path d="M150 270c102-54 398-54 500 0" fill="none" stroke="#fff" stroke-width="14" opacity=".64"/><rect x="165" y="304" width="470" height="62" rx="16" fill="#f6bc42"/><path d="M400 304v62M165 335h470" stroke="#fff" stroke-width="4" opacity=".65"/><path d="M400 104l18 45h48l-38 29 14 48-42-28-42 28 14-48-38-29h48z" fill="#15191d"/>
</svg>
