<svg xmlns="http://www.w3.org/2000/svg" viewBox="0 0 800 420" role="img" aria-label="Ilustracion propia de cancha de baloncesto para esta pregunta">
  <defs>
    <linearGradient id="bg" x1="0" x2="1" y1="0" y2="1">
      <stop stop-color="#fff1df"/>
      <stop offset="1" stop-color="#d95a35" stop-opacity="0.22"/>
    </linearGradient>
  </defs>
  <rect width="800" height="420" fill="url(#bg)"/>
  <circle cx="102" cy="318" r="85" fill="#f6bc42" opacity="0.13"/>
  <circle cx="546" cy="94" r="66" fill="#d95a35" opacity="0.16"/>
  <circle cx="321" cy="289" r="2" fill="#15191d" opacity="0.51"/><circle cx="730" cy="199" r="2" fill="#15191d" opacity="0.52"/><circle cx="219" cy="125" r="2" fill="#15191d" opacity="0.49"/><circle cx="628" cy="36" r="2" fill="#15191d" opacity="0.5"/><circle cx="117" cy="303" r="2" fill="#15191d" opacity="0.47000000000000003"/><circle cx="526" cy="214" r="2" fill="#15191d" opacity="0.48000000000000004"/><circle cx="731" cy="139" r="2" fill="#15191d" opacity="0.45000000000000007"/><circle cx="424" cy="50" r="2" fill="#15191d" opacity="0.46"/><circle cx="629" cy="318" r="3" fill="#15191d" opacity="0.43000000000000005"/>
  <rect x="76" y="58" width="648" height="304" rx="30" fill="#d95a35"/><path d="M100 210h600M400 58v304" stroke="#fffaf4" stroke-width="8" opacity=".8"/><circle cx="400" cy="210" r="59" fill="none" stroke="#fffaf4" stroke-width="8" opacity=".8"/><circle cx="264" cy="174" r="42" fill="#15191d"/><path d="M222 174h84M264 132v84" stroke="#f6bc42" stroke-width="5" fill="none"/>
</svg>
