<svg xmlns="http://www.w3.org/2000/svg" viewBox="0 0 800 420" role="img" aria-label="Ilustracion propia de pista de tenis para esta pregunta">
  <defs>
    <linearGradient id="bg" x1="0" x2="1" y1="0" y2="1">
      <stop stop-color="#e8fbf5"/>
      <stop offset="1" stop-color="#12b7a6" stop-opacity="0.22"/>
    </linearGradient>
  </defs>
  <rect width="800" height="420" fill="url(#bg)"/>
  <circle cx="568" cy="250" r="114" fill="#12b7a6" opacity="0.13"/>
  <circle cx="680" cy="300" r="110" fill="#f6bc42" opacity="0.16"/>
  <circle cx="656" cy="115" r="4" fill="#315be8" opacity="0.55"/><circle cx="247" cy="204" r="4" fill="#315be8" opacity="0.54"/><circle cx="42" cy="278" r="4" fill="#315be8" opacity="0.5700000000000001"/><circle cx="349" cy="368" r="4" fill="#315be8" opacity="0.56"/><circle cx="452" cy="129" r="4" fill="#315be8" opacity="0.51"/><circle cx="43" cy="218" r="4" fill="#315be8" opacity="0.5"/><circle cx="554" cy="293" r="4" fill="#315be8" opacity="0.53"/><circle cx="145" cy="40" r="4" fill="#315be8" opacity="0.52"/><circle cx="248" cy="144" r="4" fill="#315be8" opacity="0.47000000000000003"/>
  <rect x="96" y="52" width="608" height="316" rx="28" fill="#f6bc42"/><path d="M400 52v316M96 210h608M170 110h460M170 310h460M170 110v200M630 110v200" stroke="#fff" stroke-width="7" opacity=".88"/><circle cx="446" cy="194" r="18" fill="#315be8"/><ellipse cx="262" cy="224" rx="36" ry="50" fill="none" stroke="#fffaf4" stroke-width="9" transform="rotate(-18 262 224)"/>
</svg>
