<svg xmlns="http://www.w3.org/2000/svg" viewBox="0 0 800 420" role="img" aria-label="Ilustracion propia de cancha de baloncesto para esta pregunta">
  <defs>
    <linearGradient id="bg" x1="0" x2="1" y1="0" y2="1">
      <stop stop-color="#fff1df"/>
      <stop offset="1" stop-color="#f6bc42" stop-opacity="0.22"/>
    </linearGradient>
  </defs>
  <rect width="800" height="420" fill="url(#bg)"/>
  <circle cx="211" cy="209" r="96" fill="#f6bc42" opacity="0.13"/>
  <circle cx="110" cy="187" r="108" fill="#d95a35" opacity="0.16"/>
  <circle cx="403" cy="339" r="4" fill="#15191d" opacity="0.38"/><circle cx="96" cy="250" r="4" fill="#15191d" opacity="0.39"/><circle cx="505" cy="161" r="4" fill="#15191d" opacity="0.4"/><circle cx="198" cy="72" r="4" fill="#15191d" opacity="0.41000000000000003"/><circle cx="199" cy="354" r="4" fill="#15191d" opacity="0.34"/><circle cx="608" cy="265" r="4" fill="#15191d" opacity="0.35000000000000003"/><circle cx="301" cy="176" r="4" fill="#15191d" opacity="0.36000000000000004"/><circle cx="710" cy="86" r="4" fill="#15191d" opacity="0.37"/><circle cx="95" cy="310" r="4" fill="#15191d" opacity="0.46"/>
  <rect x="76" y="58" width="648" height="304" rx="30" fill="#d95a35"/><path d="M100 210h600M400 58v304" stroke="#fffaf4" stroke-width="8" opacity=".8"/><circle cx="400" cy="210" r="52" fill="none" stroke="#fffaf4" stroke-width="8" opacity=".8"/><circle cx="180" cy="150" r="42" fill="#15191d"/><path d="M138 150h84M180 108v84" stroke="#f6bc42" stroke-width="5" fill="none"/>
</svg>
