<svg xmlns="http://www.w3.org/2000/svg" viewBox="0 0 800 420" role="img" aria-label="Ilustracion propia de cancha de baloncesto para esta pregunta">
  <defs>
    <linearGradient id="bg" x1="0" x2="1" y1="0" y2="1">
      <stop stop-color="#fff1df"/>
      <stop offset="1" stop-color="#f6bc42" stop-opacity="0.22"/>
    </linearGradient>
  </defs>
  <rect width="800" height="420" fill="url(#bg)"/>
  <circle cx="674" cy="317" r="136" fill="#f6bc42" opacity="0.13"/>
  <circle cx="693" cy="201" r="103" fill="#d95a35" opacity="0.16"/>
  <circle cx="588" cy="363" r="4" fill="#15191d" opacity="0.66"/><circle cx="179" cy="110" r="4" fill="#15191d" opacity="0.65"/><circle cx="690" cy="185" r="4" fill="#15191d" opacity="0.68"/><circle cx="281" cy="274" r="4" fill="#15191d" opacity="0.67"/><circle cx="384" cy="36" r="4" fill="#15191d" opacity="0.6200000000000001"/><circle cx="691" cy="125" r="4" fill="#15191d" opacity="0.6100000000000001"/><circle cx="486" cy="199" r="4" fill="#15191d" opacity="0.64"/><circle cx="77" cy="289" r="4" fill="#15191d" opacity="0.63"/><circle cx="180" cy="50" r="4" fill="#15191d" opacity="0.5800000000000001"/>
  <rect x="76" y="58" width="648" height="304" rx="30" fill="#d95a35"/><path d="M100 210h600M400 58v304" stroke="#fffaf4" stroke-width="8" opacity=".8"/><circle cx="400" cy="210" r="73" fill="none" stroke="#fffaf4" stroke-width="8" opacity=".8"/><circle cx="432" cy="222" r="42" fill="#15191d"/><path d="M390 222h84M432 180v84" stroke="#f6bc42" stroke-width="5" fill="none"/>
</svg>
