<svg xmlns="http://www.w3.org/2000/svg" viewBox="0 0 800 420" role="img" aria-label="Ilustracion propia de estadio y futbol generico para esta pregunta">
  <defs>
    <linearGradient id="bg" x1="0" x2="1" y1="0" y2="1">
      <stop stop-color="#eaf8f5"/>
      <stop offset="1" stop-color="#15191d" stop-opacity="0.22"/>
    </linearGradient>
  </defs>
  <rect width="800" height="420" fill="url(#bg)"/>
  <circle cx="622" cy="292" r="79" fill="#26b99f" opacity="0.13"/>
  <circle cx="536" cy="126" r="75" fill="#f6bc42" opacity="0.16"/>
  <circle cx="675" cy="248" r="3" fill="#15191d" opacity="0.65"/><circle cx="368" cy="158" r="3" fill="#15191d" opacity="0.66"/><circle cx="61" cy="69" r="3" fill="#15191d" opacity="0.67"/><circle cx="470" cy="322" r="3" fill="#15191d" opacity="0.68"/><circle cx="471" cy="262" r="3" fill="#15191d" opacity="0.6100000000000001"/><circle cx="164" cy="173" r="3" fill="#15191d" opacity="0.6200000000000001"/><circle cx="573" cy="84" r="3" fill="#15191d" opacity="0.63"/><circle cx="266" cy="337" r="3" fill="#15191d" opacity="0.64"/><circle cx="267" cy="277" r="3" fill="#15191d" opacity="0.5700000000000001"/>
  <rect x="118" y="78" width="564" height="264" rx="26" fill="#f6bc42"/><path d="M400 78v264M118 210h564" stroke="#fff" stroke-width="7" opacity=".76"/><circle cx="400" cy="210" r="58" fill="none" stroke="#fff" stroke-width="7" opacity=".76"/><circle cx="258" cy="182" r="32" fill="#fff"/><path d="M226 182h64M258 150v64" stroke="#26b99f" stroke-width="5" opacity=".5"/>
</svg>
