<svg xmlns="http://www.w3.org/2000/svg" viewBox="0 0 800 420" role="img" aria-label="Ilustracion propia de cancha de baloncesto para esta pregunta">
  <defs>
    <linearGradient id="bg" x1="0" x2="1" y1="0" y2="1">
      <stop stop-color="#fff1df"/>
      <stop offset="1" stop-color="#f6bc42" stop-opacity="0.22"/>
    </linearGradient>
  </defs>
  <rect width="800" height="420" fill="url(#bg)"/>
  <circle cx="523" cy="82" r="76" fill="#f6bc42" opacity="0.13"/>
  <circle cx="674" cy="64" r="85" fill="#d95a35" opacity="0.16"/>
  <circle cx="548" cy="348" r="5" fill="#15191d" opacity="0.5800000000000001"/><circle cx="139" cy="95" r="5" fill="#15191d" opacity="0.5700000000000001"/><circle cx="650" cy="169" r="5" fill="#15191d" opacity="0.6000000000000001"/><circle cx="241" cy="258" r="5" fill="#15191d" opacity="0.5900000000000001"/><circle cx="752" cy="333" r="5" fill="#15191d" opacity="0.6200000000000001"/><circle cx="343" cy="80" r="5" fill="#15191d" opacity="0.6100000000000001"/><circle cx="138" cy="155" r="4" fill="#15191d" opacity="0.64"/><circle cx="445" cy="244" r="5" fill="#15191d" opacity="0.63"/><circle cx="140" cy="377" r="5" fill="#15191d" opacity="0.5"/>
  <rect x="76" y="58" width="648" height="304" rx="30" fill="#d95a35"/><path d="M100 210h600M400 58v304" stroke="#fffaf4" stroke-width="8" opacity=".8"/><circle cx="400" cy="210" r="66" fill="none" stroke="#fffaf4" stroke-width="8" opacity=".8"/><circle cx="348" cy="198" r="42" fill="#15191d"/><path d="M306 198h84M348 156v84" stroke="#f6bc42" stroke-width="5" fill="none"/>
</svg>
