<svg xmlns="http://www.w3.org/2000/svg" viewBox="0 0 800 420" role="img" aria-label="Ilustracion propia de estadio y futbol generico para esta pregunta">
  <defs>
    <linearGradient id="bg" x1="0" x2="1" y1="0" y2="1">
      <stop stop-color="#eaf8f5"/>
      <stop offset="1" stop-color="#eaf8f5" stop-opacity="0.22"/>
    </linearGradient>
  </defs>
  <rect width="800" height="420" fill="url(#bg)"/>
  <circle cx="496" cy="313" r="130" fill="#26b99f" opacity="0.13"/>
  <circle cx="671" cy="272" r="112" fill="#f6bc42" opacity="0.16"/>
  <circle cx="442" cy="264" r="4" fill="#15191d" opacity="0.68"/><circle cx="749" cy="353" r="4" fill="#15191d" opacity="0.67"/><circle cx="340" cy="100" r="4" fill="#15191d" opacity="0.66"/><circle cx="647" cy="189" r="4" fill="#15191d" opacity="0.65"/><circle cx="238" cy="278" r="4" fill="#15191d" opacity="0.64"/><circle cx="545" cy="367" r="4" fill="#15191d" opacity="0.63"/><circle cx="136" cy="115" r="4" fill="#15191d" opacity="0.6200000000000001"/><circle cx="443" cy="204" r="4" fill="#15191d" opacity="0.6100000000000001"/><circle cx="750" cy="293" r="4" fill="#15191d" opacity="0.6000000000000001"/>
  <path d="M92 270c130-94 486-94 616 0v92H92z" fill="#26b99f" opacity=".9"/><path d="M150 270c102-54 398-54 500 0" fill="none" stroke="#fff" stroke-width="14" opacity=".64"/><rect x="165" y="304" width="470" height="62" rx="16" fill="#f6bc42"/><path d="M400 304v62M165 335h470" stroke="#fff" stroke-width="4" opacity=".65"/><path d="M400 86l18 45h48l-38 29 14 48-42-28-42 28 14-48-38-29h48z" fill="#15191d"/>
</svg>
