<svg xmlns="http://www.w3.org/2000/svg" viewBox="0 0 800 420" role="img" aria-label="Ilustracion propia de idiomas y conversacion para esta pregunta">
  <defs>
    <linearGradient id="bg" x1="0" x2="1" y1="0" y2="1">
      <stop stop-color="#eef7ff"/>
      <stop offset="1" stop-color="#315be8" stop-opacity="0.22"/>
    </linearGradient>
  </defs>
  <rect width="800" height="420" fill="url(#bg)"/>
  <circle cx="585" cy="64" r="100" fill="#315be8" opacity="0.13"/>
  <circle cx="682" cy="241" r="78" fill="#ff4f6d" opacity="0.16"/>
  <circle cx="499" cy="135" r="3" fill="#12b7a6" opacity="0.51"/><circle cx="192" cy="46" r="3" fill="#12b7a6" opacity="0.52"/><circle cx="601" cy="299" r="3" fill="#12b7a6" opacity="0.53"/><circle cx="294" cy="209" r="3" fill="#12b7a6" opacity="0.54"/><circle cx="295" cy="149" r="3" fill="#12b7a6" opacity="0.47000000000000003"/><circle cx="704" cy="60" r="3" fill="#12b7a6" opacity="0.48000000000000004"/><circle cx="397" cy="313" r="3" fill="#12b7a6" opacity="0.49"/><circle cx="90" cy="224" r="3" fill="#12b7a6" opacity="0.5"/><circle cx="91" cy="164" r="3" fill="#12b7a6" opacity="0.43000000000000005"/>
  <rect x="122" y="92" width="250" height="142" rx="44" fill="#fffaf4" stroke="#315be8" stroke-width="8"/><path d="M198 230l-42 54 92-52" fill="#fffaf4" stroke="#315be8" stroke-width="8" stroke-linejoin="round"/><rect x="428" y="142" width="250" height="142" rx="44" fill="#fffaf4" stroke="#12b7a6" stroke-width="8"/><path d="M602 280l42 54-92-52" fill="#fffaf4" stroke="#12b7a6" stroke-width="8" stroke-linejoin="round"/><path d="M178 158h134M178 196h86M484 208h134M484 246h86" stroke="#15191d" stroke-width="14" stroke-linecap="round" opacity=".2"/>
</svg>
