<svg xmlns="http://www.w3.org/2000/svg" viewBox="0 0 800 420" role="img" aria-label="Ilustracion propia de oceano y olas para esta pregunta">
  <defs>
    <linearGradient id="bg" x1="0" x2="1" y1="0" y2="1">
      <stop stop-color="#dff8ff"/>
      <stop offset="1" stop-color="#12b7a6" stop-opacity="0.22"/>
    </linearGradient>
  </defs>
  <rect width="800" height="420" fill="url(#bg)"/>
  <circle cx="324" cy="94" r="78" fill="#12b7a6" opacity="0.13"/>
  <circle cx="499" cy="244" r="135" fill="#315be8" opacity="0.16"/>
  <circle cx="409" cy="165" r="5" fill="#fffaf4" opacity="0.5"/><circle cx="102" cy="75" r="5" fill="#fffaf4" opacity="0.51"/><circle cx="307" cy="343" r="5" fill="#fffaf4" opacity="0.48000000000000004"/><circle cx="716" cy="254" r="5" fill="#fffaf4" opacity="0.49"/><circle cx="613" cy="150" r="5" fill="#fffaf4" opacity="0.54"/><circle cx="306" cy="61" r="5" fill="#fffaf4" opacity="0.55"/><circle cx="511" cy="328" r="5" fill="#fffaf4" opacity="0.52"/><circle cx="204" cy="239" r="5" fill="#fffaf4" opacity="0.53"/><circle cx="101" cy="135" r="5" fill="#fffaf4" opacity="0.5800000000000001"/>
  <path d="M0 240c88-42 144 42 232 0s144 42 232 0 144 42 232 0 144 42 232 0v180H0z" fill="#fff" opacity=".34"/><path d="M0 316c88-42 144 42 232 0s144 42 232 0 144 42 232 0 144 42 232 0" fill="none" stroke="#fff" stroke-width="18" opacity=".62"/><path d="M142 174c82-44 170-44 252 0" fill="none" stroke="#fff" stroke-width="10" opacity=".45" stroke-linecap="round"/>
</svg>
