<svg xmlns="http://www.w3.org/2000/svg" viewBox="0 0 800 420" role="img" aria-label="Ilustracion propia de idiomas y conversacion para esta pregunta">
  <defs>
    <linearGradient id="bg" x1="0" x2="1" y1="0" y2="1">
      <stop stop-color="#eef7ff"/>
      <stop offset="1" stop-color="#ff4f6d" stop-opacity="0.22"/>
    </linearGradient>
  </defs>
  <rect width="800" height="420" fill="url(#bg)"/>
  <circle cx="130" cy="260" r="73" fill="#315be8" opacity="0.13"/>
  <circle cx="250" cy="194" r="125" fill="#ff4f6d" opacity="0.16"/>
  <circle cx="673" cy="254" r="3" fill="#12b7a6" opacity="0.31000000000000005"/><circle cx="366" cy="165" r="3" fill="#12b7a6" opacity="0.32"/><circle cx="571" cy="90" r="3" fill="#12b7a6" opacity="0.29000000000000004"/><circle cx="264" cy="343" r="3" fill="#12b7a6" opacity="0.30000000000000004"/><circle cx="161" cy="239" r="3" fill="#12b7a6" opacity="0.35000000000000003"/><circle cx="570" cy="150" r="3" fill="#12b7a6" opacity="0.36000000000000004"/><circle cx="59" cy="76" r="3" fill="#12b7a6" opacity="0.33"/><circle cx="468" cy="329" r="3" fill="#12b7a6" opacity="0.34"/><circle cx="365" cy="225" r="3" fill="#12b7a6" opacity="0.39"/>
  <rect x="122" y="92" width="250" height="142" rx="44" fill="#fffaf4" stroke="#315be8" stroke-width="8"/><path d="M198 230l-42 54 92-52" fill="#fffaf4" stroke="#315be8" stroke-width="8" stroke-linejoin="round"/><rect x="428" y="142" width="250" height="142" rx="44" fill="#fffaf4" stroke="#12b7a6" stroke-width="8"/><path d="M602 280l42 54-92-52" fill="#fffaf4" stroke="#12b7a6" stroke-width="8" stroke-linejoin="round"/><path d="M178 158h134M178 196h86M484 208h134M484 246h86" stroke="#15191d" stroke-width="14" stroke-linecap="round" opacity=".2"/>
</svg>
