<svg xmlns="http://www.w3.org/2000/svg" viewBox="0 0 800 420" role="img" aria-label="Ilustracion propia de idiomas y conversacion para esta pregunta">
  <defs>
    <linearGradient id="bg" x1="0" x2="1" y1="0" y2="1">
      <stop stop-color="#eef7ff"/>
      <stop offset="1" stop-color="#eef7ff" stop-opacity="0.22"/>
    </linearGradient>
  </defs>
  <rect width="800" height="420" fill="url(#bg)"/>
  <circle cx="653" cy="229" r="130" fill="#315be8" opacity="0.13"/>
  <circle cx="615" cy="82" r="82" fill="#ff4f6d" opacity="0.16"/>
  <circle cx="625" cy="43" r="2" fill="#12b7a6" opacity="0.6100000000000001"/><circle cx="318" cy="296" r="2" fill="#12b7a6" opacity="0.6200000000000001"/><circle cx="523" cy="221" r="2" fill="#12b7a6" opacity="0.5900000000000001"/><circle cx="216" cy="132" r="2" fill="#12b7a6" opacity="0.6000000000000001"/><circle cx="421" cy="57" r="2" fill="#12b7a6" opacity="0.5700000000000001"/><circle cx="114" cy="310" r="2" fill="#12b7a6" opacity="0.5800000000000001"/><circle cx="319" cy="236" r="2" fill="#12b7a6" opacity="0.55"/><circle cx="728" cy="146" r="2" fill="#12b7a6" opacity="0.56"/><circle cx="217" cy="72" r="2" fill="#12b7a6" opacity="0.53"/>
  <rect x="122" y="92" width="250" height="142" rx="44" fill="#fffaf4" stroke="#315be8" stroke-width="8"/><path d="M198 230l-42 54 92-52" fill="#fffaf4" stroke="#315be8" stroke-width="8" stroke-linejoin="round"/><rect x="428" y="142" width="250" height="142" rx="44" fill="#fffaf4" stroke="#12b7a6" stroke-width="8"/><path d="M602 280l42 54-92-52" fill="#fffaf4" stroke="#12b7a6" stroke-width="8" stroke-linejoin="round"/><path d="M178 158h134M178 196h86M484 208h134M484 246h86" stroke="#15191d" stroke-width="14" stroke-linecap="round" opacity=".2"/>
</svg>
