<svg xmlns="http://www.w3.org/2000/svg" viewBox="0 0 800 420" role="img" aria-label="Ilustracion propia de arte y museo para esta pregunta">
  <defs>
    <linearGradient id="bg" x1="0" x2="1" y1="0" y2="1">
      <stop stop-color="#fff2df"/>
      <stop offset="1" stop-color="#12b7a6" stop-opacity="0.22"/>
    </linearGradient>
  </defs>
  <rect width="800" height="420" fill="url(#bg)"/>
  <circle cx="429" cy="323" r="73" fill="#6f4a2d" opacity="0.13"/>
  <circle cx="662" cy="237" r="135" fill="#12b7a6" opacity="0.16"/>
  <circle cx="547" cy="364" r="4" fill="#ff4f6d" opacity="0.49"/><circle cx="240" cy="275" r="4" fill="#ff4f6d" opacity="0.5"/><circle cx="649" cy="186" r="4" fill="#ff4f6d" opacity="0.51"/><circle cx="342" cy="96" r="4" fill="#ff4f6d" opacity="0.52"/><circle cx="343" cy="36" r="4" fill="#ff4f6d" opacity="0.45000000000000007"/><circle cx="752" cy="289" r="4" fill="#ff4f6d" opacity="0.46"/><circle cx="445" cy="200" r="4" fill="#ff4f6d" opacity="0.47000000000000003"/><circle cx="138" cy="111" r="4" fill="#ff4f6d" opacity="0.48000000000000004"/><circle cx="239" cy="335" r="4" fill="#ff4f6d" opacity="0.5700000000000001"/>
  <rect x="282" y="54" width="304" height="312" rx="24" fill="#6f4a2d"/><rect x="312" y="84" width="244" height="252" rx="16" fill="#d9c092"/><circle cx="434" cy="178" r="54" fill="#f0c7a5"/><path d="M364 318c12-82 42-120 70-120s58 38 70 120z" fill="#ff4f6d"/><path d="M378 154c36-72 116-46 122 10-36-18-74-18-122-10z" fill="#4a2d22"/>
</svg>
