<svg xmlns="http://www.w3.org/2000/svg" viewBox="0 0 800 420" role="img" aria-label="Ilustracion propia de oceano y olas para esta pregunta">
  <defs>
    <linearGradient id="bg" x1="0" x2="1" y1="0" y2="1">
      <stop stop-color="#dff8ff"/>
      <stop offset="1" stop-color="#315be8" stop-opacity="0.22"/>
    </linearGradient>
  </defs>
  <rect width="800" height="420" fill="url(#bg)"/>
  <circle cx="231" cy="247" r="83" fill="#12b7a6" opacity="0.13"/>
  <circle cx="637" cy="120" r="136" fill="#315be8" opacity="0.16"/>
  <circle cx="702" cy="234" r="2" fill="#fffaf4" opacity="0.71"/><circle cx="293" cy="324" r="2" fill="#fffaf4" opacity="0.7"/><circle cx="600" cy="71" r="2" fill="#fffaf4" opacity="0.69"/><circle cx="191" cy="160" r="2" fill="#fffaf4" opacity="0.68"/><circle cx="190" cy="220" r="2" fill="#fffaf4" opacity="0.30000000000000004"/><circle cx="497" cy="309" r="2" fill="#fffaf4" opacity="0.29000000000000004"/><circle cx="88" cy="56" r="2" fill="#fffaf4" opacity="0.28"/><circle cx="395" cy="145" r="2" fill="#fffaf4" opacity="0.72"/><circle cx="294" cy="264" r="2" fill="#fffaf4" opacity="0.63"/>
  <path d="M0 240c88-42 144 42 232 0s144 42 232 0 144 42 232 0 144 42 232 0v180H0z" fill="#fff" opacity=".34"/><path d="M0 286c88-42 144 42 232 0s144 42 232 0 144 42 232 0 144 42 232 0" fill="none" stroke="#fff" stroke-width="18" opacity=".62"/><path d="M142 174c82-44 170-44 252 0" fill="none" stroke="#fff" stroke-width="10" opacity=".45" stroke-linecap="round"/>
</svg>
