<svg xmlns="http://www.w3.org/2000/svg" viewBox="0 0 800 420" role="img" aria-label="Ilustracion propia de oceano y olas para esta pregunta">
  <defs>
    <linearGradient id="bg" x1="0" x2="1" y1="0" y2="1">
      <stop stop-color="#dff8ff"/>
      <stop offset="1" stop-color="#315be8" stop-opacity="0.22"/>
    </linearGradient>
  </defs>
  <rect width="800" height="420" fill="url(#bg)"/>
  <circle cx="571" cy="226" r="93" fill="#12b7a6" opacity="0.13"/>
  <circle cx="155" cy="332" r="77" fill="#315be8" opacity="0.16"/>
  <circle cx="639" cy="344" r="4" fill="#fffaf4" opacity="0.45000000000000007"/><circle cx="332" cy="255" r="4" fill="#fffaf4" opacity="0.46"/><circle cx="741" cy="166" r="4" fill="#fffaf4" opacity="0.47000000000000003"/><circle cx="434" cy="77" r="4" fill="#fffaf4" opacity="0.48000000000000004"/><circle cx="435" cy="359" r="4" fill="#fffaf4" opacity="0.41000000000000003"/><circle cx="128" cy="270" r="4" fill="#fffaf4" opacity="0.42000000000000004"/><circle cx="537" cy="181" r="4" fill="#fffaf4" opacity="0.43000000000000005"/><circle cx="230" cy="92" r="4" fill="#fffaf4" opacity="0.44000000000000006"/><circle cx="231" cy="374" r="4" fill="#fffaf4" opacity="0.37"/>
  <path d="M0 240c88-42 144 42 232 0s144 42 232 0 144 42 232 0 144 42 232 0v180H0z" fill="#fff" opacity=".34"/><path d="M0 286c88-42 144 42 232 0s144 42 232 0 144 42 232 0 144 42 232 0" fill="none" stroke="#fff" stroke-width="18" opacity=".62"/><path d="M142 174c82-44 170-44 252 0" fill="none" stroke="#fff" stroke-width="10" opacity=".45" stroke-linecap="round"/>
</svg>
