<svg xmlns="http://www.w3.org/2000/svg" viewBox="0 0 800 420" role="img" aria-label="Ilustracion propia de estadio y futbol generico para esta pregunta">
  <defs>
    <linearGradient id="bg" x1="0" x2="1" y1="0" y2="1">
      <stop stop-color="#eaf8f5"/>
      <stop offset="1" stop-color="#eaf8f5" stop-opacity="0.22"/>
    </linearGradient>
  </defs>
  <rect width="800" height="420" fill="url(#bg)"/>
  <circle cx="644" cy="128" r="124" fill="#26b99f" opacity="0.13"/>
  <circle cx="464" cy="177" r="141" fill="#f6bc42" opacity="0.16"/>
  <circle cx="752" cy="360" r="4" fill="#15191d" opacity="0.42000000000000004"/><circle cx="343" cy="107" r="4" fill="#15191d" opacity="0.41000000000000003"/><circle cx="138" cy="182" r="4" fill="#15191d" opacity="0.44000000000000006"/><circle cx="445" cy="271" r="4" fill="#15191d" opacity="0.43000000000000005"/><circle cx="240" cy="345" r="4" fill="#15191d" opacity="0.46"/><circle cx="547" cy="92" r="4" fill="#15191d" opacity="0.45000000000000007"/><circle cx="342" cy="167" r="4" fill="#15191d" opacity="0.48000000000000004"/><circle cx="649" cy="256" r="4" fill="#15191d" opacity="0.47000000000000003"/><circle cx="344" cy="47" r="4" fill="#15191d" opacity="0.34"/>
  <rect x="118" y="78" width="564" height="264" rx="26" fill="#f6bc42"/><path d="M400 78v264M118 210h564" stroke="#fff" stroke-width="7" opacity=".76"/><circle cx="400" cy="210" r="58" fill="none" stroke="#fff" stroke-width="7" opacity=".76"/><circle cx="334" cy="218" r="32" fill="#fff"/><path d="M302 218h64M334 186v64" stroke="#26b99f" stroke-width="5" opacity=".5"/>
</svg>
