<svg xmlns="http://www.w3.org/2000/svg" viewBox="0 0 800 420" role="img" aria-label="Ilustracion propia de estadio y futbol generico para esta pregunta">
  <defs>
    <linearGradient id="bg" x1="0" x2="1" y1="0" y2="1">
      <stop stop-color="#eaf8f5"/>
      <stop offset="1" stop-color="#15191d" stop-opacity="0.22"/>
    </linearGradient>
  </defs>
  <rect width="800" height="420" fill="url(#bg)"/>
  <circle cx="159" cy="225" r="141" fill="#26b99f" opacity="0.13"/>
  <circle cx="628" cy="82" r="123" fill="#f6bc42" opacity="0.16"/>
  <circle cx="398" cy="318" r="4" fill="#15191d" opacity="0.5900000000000001"/><circle cx="705" cy="65" r="4" fill="#15191d" opacity="0.5800000000000001"/><circle cx="296" cy="154" r="4" fill="#15191d" opacity="0.5700000000000001"/><circle cx="603" cy="243" r="4" fill="#15191d" opacity="0.56"/><circle cx="602" cy="303" r="4" fill="#15191d" opacity="0.63"/><circle cx="193" cy="50" r="4" fill="#15191d" opacity="0.6200000000000001"/><circle cx="500" cy="140" r="4" fill="#15191d" opacity="0.6100000000000001"/><circle cx="91" cy="229" r="4" fill="#15191d" opacity="0.6000000000000001"/><circle cx="90" cy="289" r="4" fill="#15191d" opacity="0.67"/>
  <rect x="118" y="78" width="564" height="264" rx="26" fill="#f6bc42"/><path d="M400 78v264M118 210h564" stroke="#fff" stroke-width="7" opacity=".76"/><circle cx="400" cy="210" r="58" fill="none" stroke="#fff" stroke-width="7" opacity=".76"/><circle cx="334" cy="218" r="32" fill="#fff"/><path d="M302 218h64M334 186v64" stroke="#26b99f" stroke-width="5" opacity=".5"/>
</svg>
