<svg xmlns="http://www.w3.org/2000/svg" viewBox="0 0 800 420" role="img" aria-label="Ilustracion propia de oceano y olas para esta pregunta">
  <defs>
    <linearGradient id="bg" x1="0" x2="1" y1="0" y2="1">
      <stop stop-color="#dff8ff"/>
      <stop offset="1" stop-color="#12b7a6" stop-opacity="0.22"/>
    </linearGradient>
  </defs>
  <rect width="800" height="420" fill="url(#bg)"/>
  <circle cx="246" cy="268" r="136" fill="#12b7a6" opacity="0.13"/>
  <circle cx="339" cy="159" r="113" fill="#315be8" opacity="0.16"/>
  <circle cx="738" cy="107" r="2" fill="#fffaf4" opacity="0.63"/><circle cx="329" cy="196" r="2" fill="#fffaf4" opacity="0.6200000000000001"/><circle cx="636" cy="285" r="2" fill="#fffaf4" opacity="0.6100000000000001"/><circle cx="227" cy="374" r="3" fill="#fffaf4" opacity="0.6000000000000001"/><circle cx="534" cy="122" r="3" fill="#fffaf4" opacity="0.5900000000000001"/><circle cx="125" cy="211" r="3" fill="#fffaf4" opacity="0.5800000000000001"/><circle cx="432" cy="300" r="3" fill="#fffaf4" opacity="0.5700000000000001"/><circle cx="739" cy="47" r="3" fill="#fffaf4" opacity="0.56"/><circle cx="330" cy="136" r="3" fill="#fffaf4" opacity="0.55"/>
  <path d="M0 240c88-42 144 42 232 0s144 42 232 0 144 42 232 0 144 42 232 0v180H0z" fill="#fff" opacity=".34"/><path d="M0 286c88-42 144 42 232 0s144 42 232 0 144 42 232 0 144 42 232 0" fill="none" stroke="#fff" stroke-width="18" opacity=".62"/><path d="M142 174c82-44 170-44 252 0" fill="none" stroke="#fff" stroke-width="10" opacity=".45" stroke-linecap="round"/>
</svg>
