<svg xmlns="http://www.w3.org/2000/svg" viewBox="0 0 800 420" role="img" aria-label="Ilustracion propia de estadio y futbol generico para esta pregunta">
  <defs>
    <linearGradient id="bg" x1="0" x2="1" y1="0" y2="1">
      <stop stop-color="#eaf8f5"/>
      <stop offset="1" stop-color="#15191d" stop-opacity="0.22"/>
    </linearGradient>
  </defs>
  <rect width="800" height="420" fill="url(#bg)"/>
  <circle cx="503" cy="110" r="99" fill="#26b99f" opacity="0.13"/>
  <circle cx="371" cy="318" r="108" fill="#f6bc42" opacity="0.16"/>
  <circle cx="623" cy="162" r="5" fill="#15191d" opacity="0.63"/><circle cx="316" cy="73" r="5" fill="#15191d" opacity="0.64"/><circle cx="725" cy="326" r="5" fill="#15191d" opacity="0.65"/><circle cx="418" cy="237" r="5" fill="#15191d" opacity="0.66"/><circle cx="419" cy="177" r="5" fill="#15191d" opacity="0.5900000000000001"/><circle cx="112" cy="88" r="5" fill="#15191d" opacity="0.6000000000000001"/><circle cx="521" cy="340" r="5" fill="#15191d" opacity="0.6100000000000001"/><circle cx="214" cy="251" r="5" fill="#15191d" opacity="0.6200000000000001"/><circle cx="215" cy="191" r="5" fill="#15191d" opacity="0.55"/>
  <rect x="118" y="78" width="564" height="264" rx="26" fill="#f6bc42"/><path d="M400 78v264M118 210h564" stroke="#fff" stroke-width="7" opacity=".76"/><circle cx="400" cy="210" r="58" fill="none" stroke="#fff" stroke-width="7" opacity=".76"/><circle cx="296" cy="200" r="32" fill="#fff"/><path d="M264 200h64M296 168v64" stroke="#26b99f" stroke-width="5" opacity=".5"/>
</svg>
