<svg xmlns="http://www.w3.org/2000/svg" viewBox="0 0 800 420" role="img" aria-label="Ilustracion propia de estadio y futbol generico para esta pregunta">
  <defs>
    <linearGradient id="bg" x1="0" x2="1" y1="0" y2="1">
      <stop stop-color="#eaf8f5"/>
      <stop offset="1" stop-color="#f6bc42" stop-opacity="0.22"/>
    </linearGradient>
  </defs>
  <rect width="800" height="420" fill="url(#bg)"/>
  <circle cx="519" cy="342" r="93" fill="#26b99f" opacity="0.13"/>
  <circle cx="298" cy="204" r="137" fill="#f6bc42" opacity="0.16"/>
  <circle cx="321" cy="347" r="4" fill="#15191d" opacity="0.6000000000000001"/><circle cx="730" cy="258" r="4" fill="#15191d" opacity="0.6100000000000001"/><circle cx="219" cy="184" r="4" fill="#15191d" opacity="0.5800000000000001"/><circle cx="628" cy="94" r="4" fill="#15191d" opacity="0.5900000000000001"/><circle cx="525" cy="333" r="4" fill="#15191d" opacity="0.64"/><circle cx="218" cy="244" r="4" fill="#15191d" opacity="0.65"/><circle cx="423" cy="169" r="4" fill="#15191d" opacity="0.6200000000000001"/><circle cx="116" cy="80" r="4" fill="#15191d" opacity="0.63"/><circle cx="729" cy="318" r="4" fill="#15191d" opacity="0.68"/>
  <rect x="118" y="78" width="564" height="264" rx="26" fill="#f6bc42"/><path d="M400 78v264M118 210h564" stroke="#fff" stroke-width="7" opacity=".76"/><circle cx="400" cy="210" r="58" fill="none" stroke="#fff" stroke-width="7" opacity=".76"/><circle cx="334" cy="218" r="32" fill="#fff"/><path d="M302 218h64M334 186v64" stroke="#26b99f" stroke-width="5" opacity=".5"/>
</svg>
