<svg xmlns="http://www.w3.org/2000/svg" viewBox="0 0 800 420" role="img" aria-label="Ilustracion propia de arte y museo para esta pregunta">
  <defs>
    <linearGradient id="bg" x1="0" x2="1" y1="0" y2="1">
      <stop stop-color="#fff2df"/>
      <stop offset="1" stop-color="#ff4f6d" stop-opacity="0.22"/>
    </linearGradient>
  </defs>
  <rect width="800" height="420" fill="url(#bg)"/>
  <circle cx="170" cy="138" r="85" fill="#6f4a2d" opacity="0.13"/>
  <circle cx="330" cy="286" r="126" fill="#12b7a6" opacity="0.16"/>
  <circle cx="739" cy="38" r="4" fill="#ff4f6d" opacity="0.31000000000000005"/><circle cx="432" cy="291" r="4" fill="#ff4f6d" opacity="0.32"/><circle cx="125" cy="202" r="4" fill="#ff4f6d" opacity="0.33"/><circle cx="534" cy="113" r="4" fill="#ff4f6d" opacity="0.34"/><circle cx="535" cy="53" r="4" fill="#ff4f6d" opacity="0.72"/><circle cx="228" cy="306" r="4" fill="#ff4f6d" opacity="0.28"/><circle cx="637" cy="216" r="4" fill="#ff4f6d" opacity="0.29000000000000004"/><circle cx="330" cy="127" r="4" fill="#ff4f6d" opacity="0.30000000000000004"/><circle cx="331" cy="67" r="4" fill="#ff4f6d" opacity="0.68"/>
  <rect x="294" y="54" width="304" height="312" rx="24" fill="#6f4a2d"/><rect x="324" y="84" width="244" height="252" rx="16" fill="#d9c092"/><circle cx="446" cy="178" r="54" fill="#f0c7a5"/><path d="M376 318c12-82 42-120 70-120s58 38 70 120z" fill="#ff4f6d"/><path d="M390 154c36-72 116-46 122 10-36-18-74-18-122-10z" fill="#4a2d22"/>
</svg>
