<svg xmlns="http://www.w3.org/2000/svg" viewBox="0 0 800 420" role="img" aria-label="Ilustracion propia de estadio y futbol generico para esta pregunta">
  <defs>
    <linearGradient id="bg" x1="0" x2="1" y1="0" y2="1">
      <stop stop-color="#eaf8f5"/>
      <stop offset="1" stop-color="#f6bc42" stop-opacity="0.22"/>
    </linearGradient>
  </defs>
  <rect width="800" height="420" fill="url(#bg)"/>
  <circle cx="684" cy="249" r="117" fill="#26b99f" opacity="0.13"/>
  <circle cx="694" cy="228" r="140" fill="#f6bc42" opacity="0.16"/>
  <circle cx="193" cy="163" r="2" fill="#15191d" opacity="0.7"/><circle cx="602" cy="74" r="2" fill="#15191d" opacity="0.71"/><circle cx="91" cy="341" r="2" fill="#15191d" opacity="0.68"/><circle cx="500" cy="252" r="2" fill="#15191d" opacity="0.69"/><circle cx="397" cy="148" r="2" fill="#15191d" opacity="0.29000000000000004"/><circle cx="90" cy="59" r="2" fill="#15191d" opacity="0.30000000000000004"/><circle cx="295" cy="326" r="2" fill="#15191d" opacity="0.72"/><circle cx="704" cy="237" r="2" fill="#15191d" opacity="0.28"/><circle cx="501" cy="192" r="2" fill="#15191d" opacity="0.6200000000000001"/>
  <rect x="118" y="78" width="564" height="264" rx="26" fill="#f6bc42"/><path d="M400 78v264M118 210h564" stroke="#fff" stroke-width="7" opacity=".76"/><circle cx="400" cy="210" r="58" fill="none" stroke="#fff" stroke-width="7" opacity=".76"/><circle cx="334" cy="218" r="32" fill="#fff"/><path d="M302 218h64M334 186v64" stroke="#26b99f" stroke-width="5" opacity=".5"/>
</svg>
