<svg xmlns="http://www.w3.org/2000/svg" viewBox="0 0 800 420" role="img" aria-label="Ilustracion propia de estadio y futbol generico para esta pregunta">
  <defs>
    <linearGradient id="bg" x1="0" x2="1" y1="0" y2="1">
      <stop stop-color="#eaf8f5"/>
      <stop offset="1" stop-color="#15191d" stop-opacity="0.22"/>
    </linearGradient>
  </defs>
  <rect width="800" height="420" fill="url(#bg)"/>
  <circle cx="546" cy="245" r="113" fill="#26b99f" opacity="0.13"/>
  <circle cx="527" cy="156" r="120" fill="#f6bc42" opacity="0.16"/>
  <circle cx="388" cy="81" r="2" fill="#15191d" opacity="0.64"/><circle cx="695" cy="170" r="2" fill="#15191d" opacity="0.63"/><circle cx="490" cy="245" r="2" fill="#15191d" opacity="0.66"/><circle cx="81" cy="334" r="2" fill="#15191d" opacity="0.65"/><circle cx="592" cy="67" r="2" fill="#15191d" opacity="0.68"/><circle cx="183" cy="156" r="2" fill="#15191d" opacity="0.67"/><circle cx="694" cy="230" r="2" fill="#15191d" opacity="0.7"/><circle cx="285" cy="319" r="2" fill="#15191d" opacity="0.69"/><circle cx="80" cy="52" r="2" fill="#15191d" opacity="0.72"/>
  <rect x="118" y="78" width="564" height="264" rx="26" fill="#f6bc42"/><path d="M400 78v264M118 210h564" stroke="#fff" stroke-width="7" opacity=".76"/><circle cx="400" cy="210" r="58" fill="none" stroke="#fff" stroke-width="7" opacity=".76"/><circle cx="220" cy="164" r="32" fill="#fff"/><path d="M188 164h64M220 132v64" stroke="#26b99f" stroke-width="5" opacity=".5"/>
</svg>
