<svg xmlns="http://www.w3.org/2000/svg" viewBox="0 0 800 420" role="img" aria-label="Ilustracion propia de estadio y futbol generico para esta pregunta">
  <defs>
    <linearGradient id="bg" x1="0" x2="1" y1="0" y2="1">
      <stop stop-color="#eaf8f5"/>
      <stop offset="1" stop-color="#eaf8f5" stop-opacity="0.22"/>
    </linearGradient>
  </defs>
  <rect width="800" height="420" fill="url(#bg)"/>
  <circle cx="436" cy="195" r="134" fill="#26b99f" opacity="0.13"/>
  <circle cx="588" cy="114" r="72" fill="#f6bc42" opacity="0.16"/>
  <circle cx="546" cy="195" r="2" fill="#15191d" opacity="0.6100000000000001"/><circle cx="137" cy="285" r="2" fill="#15191d" opacity="0.6000000000000001"/><circle cx="444" cy="374" r="2" fill="#15191d" opacity="0.5900000000000001"/><circle cx="267" cy="335" r="2" fill="#15191d" opacity="0.72"/><circle cx="574" cy="82" r="2" fill="#15191d" opacity="0.71"/><circle cx="165" cy="171" r="2" fill="#15191d" opacity="0.7"/><circle cx="472" cy="260" r="2" fill="#15191d" opacity="0.69"/><circle cx="63" cy="349" r="2" fill="#15191d" opacity="0.68"/><circle cx="238" cy="166" r="2" fill="#15191d" opacity="0.69"/>
  <rect x="118" y="78" width="564" height="264" rx="26" fill="#f6bc42"/><path d="M400 78v264M118 210h564" stroke="#fff" stroke-width="7" opacity=".76"/><circle cx="400" cy="210" r="58" fill="none" stroke="#fff" stroke-width="7" opacity=".76"/><circle cx="220" cy="164" r="32" fill="#fff"/><path d="M188 164h64M220 132v64" stroke="#26b99f" stroke-width="5" opacity=".5"/>
</svg>
