<svg xmlns="http://www.w3.org/2000/svg" viewBox="0 0 800 420" role="img" aria-label="Ilustracion propia de estadio y futbol generico para esta pregunta">
  <defs>
    <linearGradient id="bg" x1="0" x2="1" y1="0" y2="1">
      <stop stop-color="#eaf8f5"/>
      <stop offset="1" stop-color="#eaf8f5" stop-opacity="0.22"/>
    </linearGradient>
  </defs>
  <rect width="800" height="420" fill="url(#bg)"/>
  <circle cx="494" cy="239" r="88" fill="#26b99f" opacity="0.13"/>
  <circle cx="295" cy="191" r="97" fill="#f6bc42" opacity="0.16"/>
  <circle cx="659" cy="96" r="5" fill="#15191d" opacity="0.47000000000000003"/><circle cx="352" cy="349" r="5" fill="#15191d" opacity="0.48000000000000004"/><circle cx="45" cy="259" r="5" fill="#15191d" opacity="0.49"/><circle cx="454" cy="170" r="5" fill="#15191d" opacity="0.5"/><circle cx="455" cy="110" r="5" fill="#15191d" opacity="0.43000000000000005"/><circle cx="148" cy="363" r="5" fill="#15191d" opacity="0.44000000000000006"/><circle cx="557" cy="274" r="5" fill="#15191d" opacity="0.45000000000000007"/><circle cx="250" cy="185" r="5" fill="#15191d" opacity="0.46"/><circle cx="251" cy="125" r="5" fill="#15191d" opacity="0.39"/>
  <rect x="118" y="78" width="564" height="264" rx="26" fill="#f6bc42"/><path d="M400 78v264M118 210h564" stroke="#fff" stroke-width="7" opacity=".76"/><circle cx="400" cy="210" r="58" fill="none" stroke="#fff" stroke-width="7" opacity=".76"/><circle cx="334" cy="218" r="32" fill="#fff"/><path d="M302 218h64M334 186v64" stroke="#26b99f" stroke-width="5" opacity=".5"/>
</svg>
