<svg xmlns="http://www.w3.org/2000/svg" viewBox="0 0 800 420" role="img" aria-label="Ilustracion propia de estadio y futbol generico para esta pregunta">
  <defs>
    <linearGradient id="bg" x1="0" x2="1" y1="0" y2="1">
      <stop stop-color="#eaf8f5"/>
      <stop offset="1" stop-color="#15191d" stop-opacity="0.22"/>
    </linearGradient>
  </defs>
  <rect width="800" height="420" fill="url(#bg)"/>
  <circle cx="676" cy="78" r="91" fill="#26b99f" opacity="0.13"/>
  <circle cx="618" cy="171" r="107" fill="#f6bc42" opacity="0.16"/>
  <circle cx="365" cy="232" r="4" fill="#15191d" opacity="0.37"/><circle cx="58" cy="143" r="4" fill="#15191d" opacity="0.38"/><circle cx="263" cy="69" r="4" fill="#15191d" opacity="0.35000000000000003"/><circle cx="672" cy="321" r="4" fill="#15191d" opacity="0.36000000000000004"/><circle cx="569" cy="218" r="4" fill="#15191d" opacity="0.41000000000000003"/><circle cx="262" cy="129" r="4" fill="#15191d" opacity="0.42000000000000004"/><circle cx="467" cy="54" r="4" fill="#15191d" opacity="0.39"/><circle cx="160" cy="307" r="4" fill="#15191d" opacity="0.4"/><circle cx="57" cy="203" r="4" fill="#15191d" opacity="0.45000000000000007"/>
  <rect x="118" y="78" width="564" height="264" rx="26" fill="#f6bc42"/><path d="M400 78v264M118 210h564" stroke="#fff" stroke-width="7" opacity=".76"/><circle cx="400" cy="210" r="58" fill="none" stroke="#fff" stroke-width="7" opacity=".76"/><circle cx="220" cy="164" r="32" fill="#fff"/><path d="M188 164h64M220 132v64" stroke="#26b99f" stroke-width="5" opacity=".5"/>
</svg>
