<svg xmlns="http://www.w3.org/2000/svg" viewBox="0 0 800 420" role="img" aria-label="Ilustracion propia de oceano y olas para esta pregunta">
  <defs>
    <linearGradient id="bg" x1="0" x2="1" y1="0" y2="1">
      <stop stop-color="#dff8ff"/>
      <stop offset="1" stop-color="#315be8" stop-opacity="0.22"/>
    </linearGradient>
  </defs>
  <rect width="800" height="420" fill="url(#bg)"/>
  <circle cx="636" cy="73" r="73" fill="#12b7a6" opacity="0.13"/>
  <circle cx="463" cy="313" r="105" fill="#315be8" opacity="0.16"/>
  <circle cx="224" cy="346" r="5" fill="#fffaf4" opacity="0.67"/><circle cx="531" cy="93" r="5" fill="#fffaf4" opacity="0.66"/><circle cx="326" cy="168" r="5" fill="#fffaf4" opacity="0.69"/><circle cx="633" cy="257" r="5" fill="#fffaf4" opacity="0.68"/><circle cx="428" cy="331" r="5" fill="#fffaf4" opacity="0.71"/><circle cx="735" cy="79" r="5" fill="#fffaf4" opacity="0.7"/><circle cx="530" cy="153" r="5" fill="#fffaf4" opacity="0.28"/><circle cx="121" cy="242" r="5" fill="#fffaf4" opacity="0.72"/><circle cx="632" cy="317" r="5" fill="#fffaf4" opacity="0.30000000000000004"/>
  <path d="M0 240c88-42 144 42 232 0s144 42 232 0 144 42 232 0 144 42 232 0v180H0z" fill="#fff" opacity=".34"/><path d="M0 286c88-42 144 42 232 0s144 42 232 0 144 42 232 0 144 42 232 0" fill="none" stroke="#fff" stroke-width="18" opacity=".62"/><path d="M142 174c82-44 170-44 252 0" fill="none" stroke="#fff" stroke-width="10" opacity=".45" stroke-linecap="round"/>
</svg>
