<svg xmlns="http://www.w3.org/2000/svg" viewBox="0 0 800 420" role="img" aria-label="Ilustracion propia de estadio y futbol generico para esta pregunta">
  <defs>
    <linearGradient id="bg" x1="0" x2="1" y1="0" y2="1">
      <stop stop-color="#eaf8f5"/>
      <stop offset="1" stop-color="#eaf8f5" stop-opacity="0.22"/>
    </linearGradient>
  </defs>
  <rect width="800" height="420" fill="url(#bg)"/>
  <circle cx="547" cy="224" r="106" fill="#26b99f" opacity="0.13"/>
  <circle cx="602" cy="189" r="129" fill="#f6bc42" opacity="0.16"/>
  <circle cx="231" cy="333" r="2" fill="#15191d" opacity="0.41000000000000003"/><circle cx="640" cy="244" r="2" fill="#15191d" opacity="0.42000000000000004"/><circle cx="101" cy="283" r="2" fill="#15191d" opacity="0.29000000000000004"/><circle cx="510" cy="194" r="2" fill="#15191d" opacity="0.30000000000000004"/><circle cx="203" cy="105" r="2" fill="#15191d" opacity="0.31000000000000005"/><circle cx="612" cy="357" r="2" fill="#15191d" opacity="0.32"/><circle cx="305" cy="268" r="2" fill="#15191d" opacity="0.33"/><circle cx="714" cy="179" r="2" fill="#15191d" opacity="0.34"/><circle cx="539" cy="362" r="2" fill="#15191d" opacity="0.33"/>
  <rect x="118" y="78" width="564" height="264" rx="26" fill="#f6bc42"/><path d="M400 78v264M118 210h564" stroke="#fff" stroke-width="7" opacity=".76"/><circle cx="400" cy="210" r="58" fill="none" stroke="#fff" stroke-width="7" opacity=".76"/><circle cx="258" cy="182" r="32" fill="#fff"/><path d="M226 182h64M258 150v64" stroke="#26b99f" stroke-width="5" opacity=".5"/>
</svg>
