<svg xmlns="http://www.w3.org/2000/svg" viewBox="0 0 800 420" role="img" aria-label="Ilustracion propia de estadio y futbol generico para esta pregunta">
  <defs>
    <linearGradient id="bg" x1="0" x2="1" y1="0" y2="1">
      <stop stop-color="#eaf8f5"/>
      <stop offset="1" stop-color="#15191d" stop-opacity="0.22"/>
    </linearGradient>
  </defs>
  <rect width="800" height="420" fill="url(#bg)"/>
  <circle cx="328" cy="219" r="129" fill="#26b99f" opacity="0.13"/>
  <circle cx="575" cy="260" r="72" fill="#f6bc42" opacity="0.16"/>
  <circle cx="215" cy="55" r="4" fill="#15191d" opacity="0.54"/><circle cx="624" cy="308" r="4" fill="#15191d" opacity="0.55"/><circle cx="317" cy="218" r="4" fill="#15191d" opacity="0.56"/><circle cx="726" cy="129" r="3" fill="#15191d" opacity="0.5700000000000001"/><circle cx="727" cy="69" r="4" fill="#15191d" opacity="0.5"/><circle cx="420" cy="322" r="4" fill="#15191d" opacity="0.51"/><circle cx="113" cy="233" r="4" fill="#15191d" opacity="0.52"/><circle cx="522" cy="144" r="4" fill="#15191d" opacity="0.53"/><circle cx="623" cy="368" r="3" fill="#15191d" opacity="0.6200000000000001"/>
  <rect x="118" y="78" width="564" height="264" rx="26" fill="#f6bc42"/><path d="M400 78v264M118 210h564" stroke="#fff" stroke-width="7" opacity=".76"/><circle cx="400" cy="210" r="58" fill="none" stroke="#fff" stroke-width="7" opacity=".76"/><circle cx="296" cy="200" r="32" fill="#fff"/><path d="M264 200h64M296 168v64" stroke="#26b99f" stroke-width="5" opacity=".5"/>
</svg>
