<svg xmlns="http://www.w3.org/2000/svg" viewBox="0 0 800 420" role="img" aria-label="Ilustracion propia de estadio y futbol generico para esta pregunta">
  <defs>
    <linearGradient id="bg" x1="0" x2="1" y1="0" y2="1">
      <stop stop-color="#eaf8f5"/>
      <stop offset="1" stop-color="#26b99f" stop-opacity="0.22"/>
    </linearGradient>
  </defs>
  <rect width="800" height="420" fill="url(#bg)"/>
  <circle cx="558" cy="280" r="110" fill="#26b99f" opacity="0.13"/>
  <circle cx="528" cy="268" r="89" fill="#f6bc42" opacity="0.16"/>
  <circle cx="85" cy="37" r="5" fill="#15191d" opacity="0.5"/><circle cx="494" cy="290" r="5" fill="#15191d" opacity="0.51"/><circle cx="699" cy="215" r="5" fill="#15191d" opacity="0.48000000000000004"/><circle cx="392" cy="126" r="5" fill="#15191d" opacity="0.49"/><circle cx="597" cy="52" r="5" fill="#15191d" opacity="0.46"/><circle cx="290" cy="305" r="5" fill="#15191d" opacity="0.47000000000000003"/><circle cx="495" cy="230" r="5" fill="#15191d" opacity="0.44000000000000006"/><circle cx="188" cy="141" r="5" fill="#15191d" opacity="0.45000000000000007"/><circle cx="393" cy="66" r="5" fill="#15191d" opacity="0.42000000000000004"/>
  <rect x="118" y="78" width="564" height="264" rx="26" fill="#f6bc42"/><path d="M400 78v264M118 210h564" stroke="#fff" stroke-width="7" opacity=".76"/><circle cx="400" cy="210" r="58" fill="none" stroke="#fff" stroke-width="7" opacity=".76"/><circle cx="296" cy="200" r="32" fill="#fff"/><path d="M264 200h64M296 168v64" stroke="#26b99f" stroke-width="5" opacity=".5"/>
</svg>
