<svg xmlns="http://www.w3.org/2000/svg" viewBox="0 0 800 420" role="img" aria-label="Ilustracion propia de oceano y olas para esta pregunta">
  <defs>
    <linearGradient id="bg" x1="0" x2="1" y1="0" y2="1">
      <stop stop-color="#dff8ff"/>
      <stop offset="1" stop-color="#12b7a6" stop-opacity="0.22"/>
    </linearGradient>
  </defs>
  <rect width="800" height="420" fill="url(#bg)"/>
  <circle cx="675" cy="231" r="120" fill="#12b7a6" opacity="0.13"/>
  <circle cx="543" cy="190" r="141" fill="#315be8" opacity="0.16"/>
  <circle cx="579" cy="192" r="3" fill="#fffaf4" opacity="0.5800000000000001"/><circle cx="272" cy="103" r="3" fill="#fffaf4" opacity="0.5900000000000001"/><circle cx="681" cy="356" r="2" fill="#fffaf4" opacity="0.6000000000000001"/><circle cx="374" cy="267" r="2" fill="#fffaf4" opacity="0.6100000000000001"/><circle cx="67" cy="177" r="2" fill="#fffaf4" opacity="0.6200000000000001"/><circle cx="476" cy="88" r="2" fill="#fffaf4" opacity="0.63"/><circle cx="169" cy="341" r="2" fill="#fffaf4" opacity="0.64"/><circle cx="578" cy="252" r="2" fill="#fffaf4" opacity="0.65"/><circle cx="171" cy="221" r="3" fill="#fffaf4" opacity="0.5"/>
  <path d="M0 240c88-42 144 42 232 0s144 42 232 0 144 42 232 0 144 42 232 0v180H0z" fill="#fff" opacity=".34"/><path d="M0 326c88-42 144 42 232 0s144 42 232 0 144 42 232 0 144 42 232 0" fill="none" stroke="#fff" stroke-width="18" opacity=".62"/><path d="M142 174c82-44 170-44 252 0" fill="none" stroke="#fff" stroke-width="10" opacity=".45" stroke-linecap="round"/>
</svg>
