<svg xmlns="http://www.w3.org/2000/svg" viewBox="0 0 800 420" role="img" aria-label="Ilustracion propia de videojuegos para esta pregunta">
  <defs>
    <linearGradient id="bg" x1="0" x2="1" y1="0" y2="1">
      <stop stop-color="#f4efff"/>
      <stop offset="1" stop-color="#15191d" stop-opacity="0.22"/>
    </linearGradient>
  </defs>
  <rect width="800" height="420" fill="url(#bg)"/>
  <circle cx="489" cy="111" r="102" fill="#15191d" opacity="0.13"/>
  <circle cx="445" cy="103" r="128" fill="#9b5cff" opacity="0.16"/>
  <circle cx="501" cy="41" r="3" fill="#12b7a6" opacity="0.33"/><circle cx="194" cy="294" r="3" fill="#12b7a6" opacity="0.34"/><circle cx="399" cy="220" r="3" fill="#12b7a6" opacity="0.31000000000000005"/><circle cx="92" cy="130" r="3" fill="#12b7a6" opacity="0.32"/><circle cx="705" cy="369" r="3" fill="#12b7a6" opacity="0.37"/><circle cx="398" cy="280" r="3" fill="#12b7a6" opacity="0.38"/><circle cx="603" cy="205" r="3" fill="#12b7a6" opacity="0.35000000000000003"/><circle cx="296" cy="116" r="3" fill="#12b7a6" opacity="0.36000000000000004"/><circle cx="193" cy="354" r="3" fill="#12b7a6" opacity="0.41000000000000003"/>
  <path d="M226 160c40-54 310-54 348 0l58 104c24 44-12 86-58 64l-74-36H300l-74 36c-46 22-82-20-58-64z" fill="#15191d"/><path d="M284 232h82M325 191v82" stroke="#fff" stroke-width="20" stroke-linecap="round"/><circle cx="530" cy="218" r="20" fill="#12b7a6"/><circle cx="578" cy="252" r="20" fill="#fffaf4"/><circle cx="456" cy="252" r="20" fill="#12b7a6"/>
</svg>
