<svg xmlns="http://www.w3.org/2000/svg" viewBox="0 0 800 420" role="img" aria-label="Ilustracion propia de videojuegos para esta pregunta">
  <defs>
    <linearGradient id="bg" x1="0" x2="1" y1="0" y2="1">
      <stop stop-color="#f4efff"/>
      <stop offset="1" stop-color="#15191d" stop-opacity="0.22"/>
    </linearGradient>
  </defs>
  <rect width="800" height="420" fill="url(#bg)"/>
  <circle cx="510" cy="343" r="70" fill="#15191d" opacity="0.13"/>
  <circle cx="222" cy="204" r="134" fill="#9b5cff" opacity="0.16"/>
  <circle cx="215" cy="178" r="5" fill="#12b7a6" opacity="0.5800000000000001"/><circle cx="624" cy="89" r="5" fill="#12b7a6" opacity="0.5900000000000001"/><circle cx="317" cy="342" r="5" fill="#12b7a6" opacity="0.6000000000000001"/><circle cx="726" cy="253" r="5" fill="#12b7a6" opacity="0.6100000000000001"/><circle cx="727" cy="193" r="2" fill="#12b7a6" opacity="0.54"/><circle cx="420" cy="104" r="2" fill="#12b7a6" opacity="0.55"/><circle cx="113" cy="357" r="5" fill="#12b7a6" opacity="0.56"/><circle cx="522" cy="267" r="5" fill="#12b7a6" opacity="0.5700000000000001"/><circle cx="623" cy="149" r="5" fill="#12b7a6" opacity="0.66"/>
  <path d="M226 160c40-54 310-54 348 0l58 104c24 44-12 86-58 64l-74-36H300l-74 36c-46 22-82-20-58-64z" fill="#15191d"/><path d="M284 232h82M325 191v82" stroke="#fff" stroke-width="20" stroke-linecap="round"/><circle cx="542" cy="218" r="20" fill="#12b7a6"/><circle cx="588" cy="252" r="20" fill="#fffaf4"/><circle cx="456" cy="252" r="20" fill="#12b7a6"/>
</svg>
