<svg xmlns="http://www.w3.org/2000/svg" viewBox="0 0 800 420" role="img" aria-label="Ilustracion propia de espacio y planetas para esta pregunta">
  <defs>
    <linearGradient id="bg" x1="0" x2="1" y1="0" y2="1">
      <stop stop-color="#12171a"/>
      <stop offset="1" stop-color="#315be8" stop-opacity="0.22"/>
    </linearGradient>
  </defs>
  <rect width="800" height="420" fill="url(#bg)"/>
  <circle cx="408" cy="334" r="113" fill="#e46b4f" opacity="0.13"/>
  <circle cx="585" cy="239" r="140" fill="#f6bc42" opacity="0.16"/>
  <circle cx="140" cy="101" r="2" fill="#315be8" opacity="0.55"/><circle cx="447" cy="190" r="2" fill="#315be8" opacity="0.54"/><circle cx="242" cy="265" r="2" fill="#315be8" opacity="0.5700000000000001"/><circle cx="549" cy="354" r="2" fill="#315be8" opacity="0.56"/><circle cx="344" cy="86" r="2" fill="#315be8" opacity="0.5900000000000001"/><circle cx="651" cy="175" r="2" fill="#315be8" opacity="0.5800000000000001"/><circle cx="446" cy="250" r="2" fill="#315be8" opacity="0.6100000000000001"/><circle cx="753" cy="339" r="2" fill="#315be8" opacity="0.6000000000000001"/><circle cx="448" cy="130" r="2" fill="#315be8" opacity="0.47000000000000003"/>
  <rect width="800" height="420" fill="#e46b4f"/><circle cx="354" cy="218" r="84" fill="#f6bc42"/><path d="M230 212c36 14 66-22 112-2" stroke="#8f3327" stroke-width="12" stroke-linecap="round" opacity=".36"/><circle cx="458" cy="196" r="56" fill="#315be8"/><circle cx="580" cy="276" r="32" fill="#fffaf4"/><path d="M176 324c140 46 308 54 476 0" stroke="#fff" stroke-width="5" fill="none" opacity=".38"/>
</svg>
