<svg xmlns="http://www.w3.org/2000/svg" viewBox="0 0 800 420" role="img" aria-label="Ilustracion propia de oceano y olas para esta pregunta">
  <defs>
    <linearGradient id="bg" x1="0" x2="1" y1="0" y2="1">
      <stop stop-color="#dff8ff"/>
      <stop offset="1" stop-color="#dff8ff" stop-opacity="0.22"/>
    </linearGradient>
  </defs>
  <rect width="800" height="420" fill="url(#bg)"/>
  <circle cx="306" cy="173" r="132" fill="#12b7a6" opacity="0.13"/>
  <circle cx="197" cy="183" r="72" fill="#315be8" opacity="0.16"/>
  <circle cx="55" cy="321" r="2" fill="#fffaf4" opacity="0.67"/><circle cx="464" cy="232" r="2" fill="#fffaf4" opacity="0.68"/><circle cx="157" cy="143" r="2" fill="#fffaf4" opacity="0.69"/><circle cx="566" cy="54" r="2" fill="#fffaf4" opacity="0.7"/><circle cx="567" cy="336" r="2" fill="#fffaf4" opacity="0.63"/><circle cx="260" cy="247" r="2" fill="#fffaf4" opacity="0.64"/><circle cx="669" cy="157" r="2" fill="#fffaf4" opacity="0.65"/><circle cx="362" cy="68" r="2" fill="#fffaf4" opacity="0.66"/><circle cx="463" cy="292" r="2" fill="#fffaf4" opacity="0.30000000000000004"/>
  <path d="M0 240c88-42 144 42 232 0s144 42 232 0 144 42 232 0 144 42 232 0v180H0z" fill="#fff" opacity=".34"/><path d="M0 286c88-42 144 42 232 0s144 42 232 0 144 42 232 0 144 42 232 0" fill="none" stroke="#fff" stroke-width="18" opacity=".62"/><path d="M142 174c82-44 170-44 252 0" fill="none" stroke="#fff" stroke-width="10" opacity=".45" stroke-linecap="round"/>
</svg>
