<svg xmlns="http://www.w3.org/2000/svg" viewBox="0 0 800 420" role="img" aria-label="Ilustracion propia de videojuegos para esta pregunta">
  <defs>
    <linearGradient id="bg" x1="0" x2="1" y1="0" y2="1">
      <stop stop-color="#f4efff"/>
      <stop offset="1" stop-color="#f4efff" stop-opacity="0.22"/>
    </linearGradient>
  </defs>
  <rect width="800" height="420" fill="url(#bg)"/>
  <circle cx="151" cy="229" r="84" fill="#15191d" opacity="0.13"/>
  <circle cx="102" cy="190" r="86" fill="#9b5cff" opacity="0.16"/>
  <circle cx="441" cy="144" r="4" fill="#12b7a6" opacity="0.54"/><circle cx="134" cy="55" r="4" fill="#12b7a6" opacity="0.55"/><circle cx="339" cy="322" r="4" fill="#12b7a6" opacity="0.52"/><circle cx="748" cy="233" r="4" fill="#12b7a6" opacity="0.53"/><circle cx="237" cy="158" r="4" fill="#12b7a6" opacity="0.5"/><circle cx="646" cy="69" r="4" fill="#12b7a6" opacity="0.51"/><circle cx="135" cy="337" r="4" fill="#12b7a6" opacity="0.48000000000000004"/><circle cx="544" cy="248" r="4" fill="#12b7a6" opacity="0.49"/><circle cx="749" cy="173" r="4" fill="#12b7a6" opacity="0.46"/>
  <path d="M226 160c40-54 310-54 348 0l58 104c24 44-12 86-58 64l-74-36H300l-74 36c-46 22-82-20-58-64z" fill="#15191d"/><path d="M284 232h82M325 191v82" stroke="#fff" stroke-width="20" stroke-linecap="round"/><circle cx="494" cy="218" r="20" fill="#12b7a6"/><circle cx="548" cy="252" r="20" fill="#fffaf4"/><circle cx="456" cy="252" r="20" fill="#12b7a6"/>
</svg>
