<svg xmlns="http://www.w3.org/2000/svg" viewBox="0 0 800 420" role="img" aria-label="Ilustracion propia de videojuegos para esta pregunta">
  <defs>
    <linearGradient id="bg" x1="0" x2="1" y1="0" y2="1">
      <stop stop-color="#f4efff"/>
      <stop offset="1" stop-color="#f4efff" stop-opacity="0.22"/>
    </linearGradient>
  </defs>
  <rect width="800" height="420" fill="url(#bg)"/>
  <circle cx="367" cy="96" r="108" fill="#15191d" opacity="0.13"/>
  <circle cx="129" cy="209" r="79" fill="#9b5cff" opacity="0.16"/>
  <circle cx="342" cy="276" r="4" fill="#12b7a6" opacity="0.5700000000000001"/><circle cx="649" cy="366" r="4" fill="#12b7a6" opacity="0.56"/><circle cx="240" cy="113" r="4" fill="#12b7a6" opacity="0.55"/><circle cx="547" cy="202" r="4" fill="#12b7a6" opacity="0.54"/><circle cx="546" cy="262" r="4" fill="#12b7a6" opacity="0.6100000000000001"/><circle cx="137" cy="351" r="4" fill="#12b7a6" opacity="0.6000000000000001"/><circle cx="444" cy="98" r="4" fill="#12b7a6" opacity="0.5900000000000001"/><circle cx="751" cy="187" r="4" fill="#12b7a6" opacity="0.5800000000000001"/><circle cx="750" cy="247" r="4" fill="#12b7a6" opacity="0.65"/>
  <path d="M226 160c40-54 310-54 348 0l58 104c24 44-12 86-58 64l-74-36H300l-74 36c-46 22-82-20-58-64z" fill="#15191d"/><path d="M284 232h82M325 191v82" stroke="#fff" stroke-width="20" stroke-linecap="round"/><circle cx="506" cy="218" r="20" fill="#12b7a6"/><circle cx="558" cy="252" r="20" fill="#fffaf4"/><circle cx="456" cy="252" r="20" fill="#12b7a6"/>
</svg>
