<svg xmlns="http://www.w3.org/2000/svg" viewBox="0 0 800 420" role="img" aria-label="Ilustracion propia de oceano y olas para esta pregunta">
  <defs>
    <linearGradient id="bg" x1="0" x2="1" y1="0" y2="1">
      <stop stop-color="#dff8ff"/>
      <stop offset="1" stop-color="#fffaf4" stop-opacity="0.22"/>
    </linearGradient>
  </defs>
  <rect width="800" height="420" fill="url(#bg)"/>
  <circle cx="205" cy="94" r="111" fill="#12b7a6" opacity="0.13"/>
  <circle cx="259" cy="173" r="69" fill="#315be8" opacity="0.16"/>
  <circle cx="94" cy="42" r="5" fill="#fffaf4" opacity="0.71"/><circle cx="401" cy="132" r="5" fill="#fffaf4" opacity="0.7"/><circle cx="708" cy="221" r="5" fill="#fffaf4" opacity="0.69"/><circle cx="299" cy="310" r="5" fill="#fffaf4" opacity="0.68"/><circle cx="606" cy="57" r="5" fill="#fffaf4" opacity="0.67"/><circle cx="197" cy="146" r="5" fill="#fffaf4" opacity="0.66"/><circle cx="504" cy="235" r="5" fill="#fffaf4" opacity="0.65"/><circle cx="95" cy="324" r="5" fill="#fffaf4" opacity="0.64"/><circle cx="402" cy="72" r="5" fill="#fffaf4" opacity="0.63"/>
  <path d="M0 240c88-42 144 42 232 0s144 42 232 0 144 42 232 0 144 42 232 0v180H0z" fill="#fff" opacity=".34"/><path d="M0 326c88-42 144 42 232 0s144 42 232 0 144 42 232 0 144 42 232 0" fill="none" stroke="#fff" stroke-width="18" opacity=".62"/><path d="M142 174c82-44 170-44 252 0" fill="none" stroke="#fff" stroke-width="10" opacity=".45" stroke-linecap="round"/>
</svg>
