<svg xmlns="http://www.w3.org/2000/svg" viewBox="0 0 800 420" role="img" aria-label="Ilustracion propia de tecnologia para esta pregunta">
  <defs>
    <linearGradient id="bg" x1="0" x2="1" y1="0" y2="1">
      <stop stop-color="#111820"/>
      <stop offset="1" stop-color="#12b7a6" stop-opacity="0.22"/>
    </linearGradient>
  </defs>
  <rect width="800" height="420" fill="url(#bg)"/>
  <circle cx="301" cy="345" r="121" fill="#fffaf4" opacity="0.13"/>
  <circle cx="646" cy="168" r="101" fill="#315be8" opacity="0.16"/>
  <circle cx="70" cy="76" r="5" fill="#12b7a6" opacity="0.72"/><circle cx="377" cy="165" r="5" fill="#12b7a6" opacity="0.71"/><circle cx="684" cy="254" r="5" fill="#12b7a6" opacity="0.7"/><circle cx="275" cy="343" r="5" fill="#12b7a6" opacity="0.69"/><circle cx="582" cy="90" r="5" fill="#12b7a6" opacity="0.68"/><circle cx="173" cy="179" r="5" fill="#12b7a6" opacity="0.67"/><circle cx="480" cy="268" r="5" fill="#12b7a6" opacity="0.66"/><circle cx="71" cy="358" r="5" fill="#12b7a6" opacity="0.65"/><circle cx="378" cy="105" r="5" fill="#12b7a6" opacity="0.64"/>
  <rect width="800" height="420" fill="#fffaf4"/><rect x="108" y="72" width="584" height="276" rx="28" fill="#315be8"/><rect x="108" y="72" width="584" height="58" rx="28" fill="#12b7a6"/><path d="M210 206l-62 44 62 44M590 206l62 44-62 44" stroke="#fffaf4" stroke-width="20" stroke-linecap="round" stroke-linejoin="round" fill="none"/><path d="M364 306l72-184" stroke="#12b7a6" stroke-width="18" stroke-linecap="round"/>
</svg>
