<svg xmlns="http://www.w3.org/2000/svg" viewBox="0 0 800 420" role="img" aria-label="Ilustracion propia de espacio y planetas para esta pregunta">
  <defs>
    <linearGradient id="bg" x1="0" x2="1" y1="0" y2="1">
      <stop stop-color="#12171a"/>
      <stop offset="1" stop-color="#12171a" stop-opacity="0.22"/>
    </linearGradient>
  </defs>
  <rect width="800" height="420" fill="url(#bg)"/>
  <circle cx="311" cy="315" r="68" fill="#e46b4f" opacity="0.13"/>
  <circle cx="572" cy="308" r="134" fill="#f6bc42" opacity="0.16"/>
  <circle cx="737" cy="237" r="2" fill="#315be8" opacity="0.43000000000000005"/><circle cx="430" cy="148" r="2" fill="#315be8" opacity="0.44000000000000006"/><circle cx="635" cy="74" r="2" fill="#315be8" opacity="0.41000000000000003"/><circle cx="328" cy="326" r="2" fill="#315be8" opacity="0.42000000000000004"/><circle cx="533" cy="252" r="2" fill="#315be8" opacity="0.39"/><circle cx="226" cy="163" r="2" fill="#315be8" opacity="0.4"/><circle cx="431" cy="88" r="2" fill="#315be8" opacity="0.37"/><circle cx="124" cy="341" r="2" fill="#315be8" opacity="0.38"/><circle cx="329" cy="266" r="2" fill="#315be8" opacity="0.35000000000000003"/>
  <rect width="800" height="420" fill="#e46b4f"/><circle cx="286" cy="218" r="70" fill="#f6bc42"/><path d="M230 212c36 14 66-22 112-2" stroke="#8f3327" stroke-width="12" stroke-linecap="round" opacity=".36"/><circle cx="510" cy="160" r="48" fill="#315be8"/><circle cx="540" cy="276" r="32" fill="#fffaf4"/><path d="M176 324c140 46 308 54 476 0" stroke="#fff" stroke-width="5" fill="none" opacity=".38"/>
</svg>
