<svg xmlns="http://www.w3.org/2000/svg" viewBox="0 0 800 420" role="img" aria-label="Ilustracion propia de arte y museo para esta pregunta">
  <defs>
    <linearGradient id="bg" x1="0" x2="1" y1="0" y2="1">
      <stop stop-color="#fff2df"/>
      <stop offset="1" stop-color="#fff2df" stop-opacity="0.22"/>
    </linearGradient>
  </defs>
  <rect width="800" height="420" fill="url(#bg)"/>
  <circle cx="305" cy="174" r="104" fill="#6f4a2d" opacity="0.13"/>
  <circle cx="497" cy="76" r="119" fill="#12b7a6" opacity="0.16"/>
  <circle cx="103" cy="167" r="3" fill="#ff4f6d" opacity="0.30000000000000004"/><circle cx="512" cy="78" r="3" fill="#ff4f6d" opacity="0.31000000000000005"/><circle cx="205" cy="331" r="3" fill="#ff4f6d" opacity="0.32"/><circle cx="614" cy="242" r="3" fill="#ff4f6d" opacity="0.33"/><circle cx="615" cy="182" r="3" fill="#ff4f6d" opacity="0.71"/><circle cx="308" cy="93" r="3" fill="#ff4f6d" opacity="0.72"/><circle cx="717" cy="345" r="3" fill="#ff4f6d" opacity="0.28"/><circle cx="410" cy="256" r="3" fill="#ff4f6d" opacity="0.29000000000000004"/><circle cx="411" cy="196" r="3" fill="#ff4f6d" opacity="0.67"/>
  <rect x="294" y="54" width="304" height="312" rx="24" fill="#6f4a2d"/><rect x="324" y="84" width="244" height="252" rx="16" fill="#d9c092"/><circle cx="446" cy="178" r="54" fill="#f0c7a5"/><path d="M376 318c12-82 42-120 70-120s58 38 70 120z" fill="#ff4f6d"/><path d="M390 154c36-72 116-46 122 10-36-18-74-18-122-10z" fill="#4a2d22"/>
</svg>
