<svg xmlns="http://www.w3.org/2000/svg" viewBox="0 0 800 420" role="img" aria-label="Ilustracion propia de naturaleza para esta pregunta">
  <defs>
    <linearGradient id="bg" x1="0" x2="1" y1="0" y2="1">
      <stop stop-color="#ecfbef"/>
      <stop offset="1" stop-color="#f6bc42" stop-opacity="0.22"/>
    </linearGradient>
  </defs>
  <rect width="800" height="420" fill="url(#bg)"/>
  <circle cx="359" cy="310" r="113" fill="#12b7a6" opacity="0.13"/>
  <circle cx="203" cy="307" r="100" fill="#315be8" opacity="0.16"/>
  <circle cx="267" cy="295" r="3" fill="#f6bc42" opacity="0.54"/><circle cx="676" cy="206" r="3" fill="#f6bc42" opacity="0.55"/><circle cx="369" cy="116" r="3" fill="#f6bc42" opacity="0.56"/><circle cx="62" cy="369" r="3" fill="#f6bc42" opacity="0.5700000000000001"/><circle cx="471" cy="280" r="3" fill="#f6bc42" opacity="0.5800000000000001"/><circle cx="164" cy="191" r="3" fill="#f6bc42" opacity="0.5900000000000001"/><circle cx="573" cy="102" r="3" fill="#f6bc42" opacity="0.6000000000000001"/><circle cx="266" cy="355" r="3" fill="#f6bc42" opacity="0.6100000000000001"/><circle cx="575" cy="324" r="4" fill="#f6bc42" opacity="0.46"/>
  <path d="M164 322c172-20 120-184 278-208 118-18 172 78 194 158-152 42-298 74-472 50z" fill="#315be8"/><path d="M214 300c138-68 244-104 390-118" stroke="#fff" stroke-width="14" stroke-linecap="round" opacity=".72"/><path d="M374 254c-28-52-20-104 24-156 72 30 102 82 84 150z" fill="#f6bc42" opacity=".88"/>
</svg>
