<svg xmlns="http://www.w3.org/2000/svg" viewBox="0 0 800 420" role="img" aria-label="Ilustracion propia de oceano y olas para esta pregunta">
  <defs>
    <linearGradient id="bg" x1="0" x2="1" y1="0" y2="1">
      <stop stop-color="#dff8ff"/>
      <stop offset="1" stop-color="#315be8" stop-opacity="0.22"/>
    </linearGradient>
  </defs>
  <rect width="800" height="420" fill="url(#bg)"/>
  <circle cx="449" cy="86" r="141" fill="#12b7a6" opacity="0.13"/>
  <circle cx="515" cy="208" r="73" fill="#315be8" opacity="0.16"/>
  <circle cx="262" cy="222" r="5" fill="#fffaf4" opacity="0.28"/><circle cx="569" cy="311" r="5" fill="#fffaf4" opacity="0.72"/><circle cx="160" cy="58" r="5" fill="#fffaf4" opacity="0.71"/><circle cx="467" cy="147" r="5" fill="#fffaf4" opacity="0.7"/><circle cx="466" cy="207" r="5" fill="#fffaf4" opacity="0.32"/><circle cx="57" cy="297" r="5" fill="#fffaf4" opacity="0.31000000000000005"/><circle cx="364" cy="44" r="5" fill="#fffaf4" opacity="0.30000000000000004"/><circle cx="671" cy="133" r="5" fill="#fffaf4" opacity="0.29000000000000004"/><circle cx="570" cy="251" r="2" fill="#fffaf4" opacity="0.65"/>
  <path d="M0 240c88-42 144 42 232 0s144 42 232 0 144 42 232 0 144 42 232 0v180H0z" fill="#fff" opacity=".34"/><path d="M0 316c88-42 144 42 232 0s144 42 232 0 144 42 232 0 144 42 232 0" fill="none" stroke="#fff" stroke-width="18" opacity=".62"/><path d="M142 174c82-44 170-44 252 0" fill="none" stroke="#fff" stroke-width="10" opacity=".45" stroke-linecap="round"/>
</svg>
