<svg xmlns="http://www.w3.org/2000/svg" viewBox="0 0 800 420" role="img" aria-label="Ilustracion propia de idiomas y conversacion para esta pregunta">
  <defs>
    <linearGradient id="bg" x1="0" x2="1" y1="0" y2="1">
      <stop stop-color="#eef7ff"/>
      <stop offset="1" stop-color="#eef7ff" stop-opacity="0.22"/>
    </linearGradient>
  </defs>
  <rect width="800" height="420" fill="url(#bg)"/>
  <circle cx="243" cy="294" r="64" fill="#315be8" opacity="0.13"/>
  <circle cx="489" cy="91" r="74" fill="#ff4f6d" opacity="0.16"/>
  <circle cx="260" cy="199" r="5" fill="#12b7a6" opacity="0.6000000000000001"/><circle cx="567" cy="288" r="5" fill="#12b7a6" opacity="0.5900000000000001"/><circle cx="362" cy="363" r="5" fill="#12b7a6" opacity="0.6200000000000001"/><circle cx="669" cy="110" r="5" fill="#12b7a6" opacity="0.6100000000000001"/><circle cx="464" cy="184" r="5" fill="#12b7a6" opacity="0.64"/><circle cx="55" cy="274" r="5" fill="#12b7a6" opacity="0.63"/><circle cx="566" cy="348" r="5" fill="#12b7a6" opacity="0.66"/><circle cx="157" cy="95" r="5" fill="#12b7a6" opacity="0.65"/><circle cx="568" cy="228" r="5" fill="#12b7a6" opacity="0.52"/>
  <rect x="122" y="92" width="250" height="142" rx="44" fill="#fffaf4" stroke="#315be8" stroke-width="8"/><path d="M198 230l-42 54 92-52" fill="#fffaf4" stroke="#315be8" stroke-width="8" stroke-linejoin="round"/><rect x="428" y="142" width="250" height="142" rx="44" fill="#fffaf4" stroke="#12b7a6" stroke-width="8"/><path d="M602 280l42 54-92-52" fill="#fffaf4" stroke="#12b7a6" stroke-width="8" stroke-linejoin="round"/><path d="M178 158h134M178 196h86M484 208h134M484 246h86" stroke="#15191d" stroke-width="14" stroke-linecap="round" opacity=".2"/>
</svg>
