<svg xmlns="http://www.w3.org/2000/svg" viewBox="0 0 800 420" role="img" aria-label="Ilustracion propia de arte y museo para esta pregunta">
  <defs>
    <linearGradient id="bg" x1="0" x2="1" y1="0" y2="1">
      <stop stop-color="#fff2df"/>
      <stop offset="1" stop-color="#ff4f6d" stop-opacity="0.22"/>
    </linearGradient>
  </defs>
  <rect width="800" height="420" fill="url(#bg)"/>
  <circle cx="244" cy="113" r="89" fill="#6f4a2d" opacity="0.13"/>
  <circle cx="564" cy="211" r="127" fill="#12b7a6" opacity="0.16"/>
  <circle cx="697" cy="220" r="3" fill="#ff4f6d" opacity="0.65"/><circle cx="390" cy="131" r="3" fill="#ff4f6d" opacity="0.66"/><circle cx="595" cy="56" r="3" fill="#ff4f6d" opacity="0.63"/><circle cx="288" cy="309" r="3" fill="#ff4f6d" opacity="0.64"/><circle cx="493" cy="235" r="3" fill="#ff4f6d" opacity="0.6100000000000001"/><circle cx="186" cy="146" r="3" fill="#ff4f6d" opacity="0.6200000000000001"/><circle cx="391" cy="71" r="3" fill="#ff4f6d" opacity="0.5900000000000001"/><circle cx="84" cy="324" r="3" fill="#ff4f6d" opacity="0.6000000000000001"/><circle cx="289" cy="249" r="3" fill="#ff4f6d" opacity="0.5700000000000001"/>
  <rect x="282" y="54" width="304" height="312" rx="24" fill="#6f4a2d"/><rect x="312" y="84" width="244" height="252" rx="16" fill="#d9c092"/><circle cx="434" cy="178" r="54" fill="#f0c7a5"/><path d="M364 318c12-82 42-120 70-120s58 38 70 120z" fill="#ff4f6d"/><path d="M378 154c36-72 116-46 122 10-36-18-74-18-122-10z" fill="#4a2d22"/>
</svg>
