<svg xmlns="http://www.w3.org/2000/svg" viewBox="0 0 800 420" role="img" aria-label="Ilustracion propia de naturaleza para esta pregunta">
  <defs>
    <linearGradient id="bg" x1="0" x2="1" y1="0" y2="1">
      <stop stop-color="#ecfbef"/>
      <stop offset="1" stop-color="#ecfbef" stop-opacity="0.22"/>
    </linearGradient>
  </defs>
  <rect width="800" height="420" fill="url(#bg)"/>
  <circle cx="692" cy="312" r="66" fill="#12b7a6" opacity="0.13"/>
  <circle cx="170" cy="307" r="74" fill="#315be8" opacity="0.16"/>
  <circle cx="89" cy="324" r="4" fill="#f6bc42" opacity="0.43000000000000005"/><circle cx="498" cy="235" r="3" fill="#f6bc42" opacity="0.44000000000000006"/><circle cx="703" cy="160" r="4" fill="#f6bc42" opacity="0.41000000000000003"/><circle cx="396" cy="71" r="4" fill="#f6bc42" opacity="0.42000000000000004"/><circle cx="601" cy="338" r="4" fill="#f6bc42" opacity="0.39"/><circle cx="294" cy="249" r="4" fill="#f6bc42" opacity="0.4"/><circle cx="499" cy="175" r="4" fill="#f6bc42" opacity="0.37"/><circle cx="192" cy="86" r="4" fill="#f6bc42" opacity="0.38"/><circle cx="397" cy="353" r="4" fill="#f6bc42" opacity="0.35000000000000003"/>
  <path d="M164 322c172-20 120-184 278-208 118-18 172 78 194 158-152 42-298 74-472 50z" fill="#315be8"/><path d="M214 300c138-68 244-104 390-118" stroke="#fff" stroke-width="14" stroke-linecap="round" opacity=".72"/><path d="M334 254c-28-52-20-104 24-156 72 30 102 82 84 150z" fill="#f6bc42" opacity=".88"/>
</svg>
