<svg xmlns="http://www.w3.org/2000/svg" viewBox="0 0 800 420" role="img" aria-label="Ilustracion propia de arte y museo para esta pregunta">
  <defs>
    <linearGradient id="bg" x1="0" x2="1" y1="0" y2="1">
      <stop stop-color="#fff2df"/>
      <stop offset="1" stop-color="#12b7a6" stop-opacity="0.22"/>
    </linearGradient>
  </defs>
  <rect width="800" height="420" fill="url(#bg)"/>
  <circle cx="518" cy="71" r="73" fill="#6f4a2d" opacity="0.13"/>
  <circle cx="148" cy="134" r="85" fill="#12b7a6" opacity="0.16"/>
  <circle cx="163" cy="364" r="5" fill="#ff4f6d" opacity="0.30000000000000004"/><circle cx="572" cy="275" r="5" fill="#ff4f6d" opacity="0.31000000000000005"/><circle cx="265" cy="185" r="5" fill="#ff4f6d" opacity="0.32"/><circle cx="674" cy="96" r="5" fill="#ff4f6d" opacity="0.33"/><circle cx="367" cy="349" r="5" fill="#ff4f6d" opacity="0.34"/><circle cx="60" cy="260" r="5" fill="#ff4f6d" opacity="0.35000000000000003"/><circle cx="469" cy="171" r="5" fill="#ff4f6d" opacity="0.36000000000000004"/><circle cx="162" cy="82" r="5" fill="#ff4f6d" opacity="0.37"/><circle cx="471" cy="51" r="5" fill="#ff4f6d" opacity="0.67"/>
  <rect x="270" y="54" width="304" height="312" rx="24" fill="#6f4a2d"/><rect x="300" y="84" width="244" height="252" rx="16" fill="#d9c092"/><circle cx="422" cy="178" r="54" fill="#f0c7a5"/><path d="M352 318c12-82 42-120 70-120s58 38 70 120z" fill="#ff4f6d"/><path d="M366 154c36-72 116-46 122 10-36-18-74-18-122-10z" fill="#4a2d22"/>
</svg>
