<svg xmlns="http://www.w3.org/2000/svg" viewBox="0 0 800 420" role="img" aria-label="Ilustracion propia de cine y rodaje para esta pregunta">
  <defs>
    <linearGradient id="bg" x1="0" x2="1" y1="0" y2="1">
      <stop stop-color="#15191d"/>
      <stop offset="1" stop-color="#fffaf4" stop-opacity="0.22"/>
    </linearGradient>
  </defs>
  <rect width="800" height="420" fill="url(#bg)"/>
  <circle cx="157" cy="270" r="84" fill="#fffaf4" opacity="0.13"/>
  <circle cx="403" cy="195" r="116" fill="#f6bc42" opacity="0.16"/>
  <circle cx="549" cy="243" r="3" fill="#ff4f6d" opacity="0.45000000000000007"/><circle cx="242" cy="154" r="3" fill="#ff4f6d" opacity="0.46"/><circle cx="447" cy="79" r="3" fill="#ff4f6d" opacity="0.43000000000000005"/><circle cx="140" cy="332" r="3" fill="#ff4f6d" opacity="0.44000000000000006"/><circle cx="753" cy="228" r="2" fill="#ff4f6d" opacity="0.49"/><circle cx="446" cy="139" r="2" fill="#ff4f6d" opacity="0.5"/><circle cx="651" cy="65" r="3" fill="#ff4f6d" opacity="0.47000000000000003"/><circle cx="344" cy="318" r="2" fill="#ff4f6d" opacity="0.48000000000000004"/><circle cx="241" cy="214" r="2" fill="#ff4f6d" opacity="0.53"/>
  <rect width="800" height="420" fill="#fffaf4"/><circle cx="580" cy="116" r="120" fill="#ff4f6d" opacity=".42"/><rect x="190" y="182" width="420" height="198" rx="22" fill="#f6bc42"/><rect x="190" y="116" width="420" height="70" rx="18" fill="#fffaf4"/><path d="M228 116l58 70M330 116l58 70M432 116l58 70M534 116l58 70" stroke="#fffaf4" stroke-width="20"/><rect x="244" y="254" width="312" height="18" rx="9" fill="#fffaf4" opacity=".16"/>
</svg>
