<svg xmlns="http://www.w3.org/2000/svg" viewBox="0 0 800 420" role="img" aria-label="Ilustracion propia de arte y museo para esta pregunta">
  <defs>
    <linearGradient id="bg" x1="0" x2="1" y1="0" y2="1">
      <stop stop-color="#fff2df"/>
      <stop offset="1" stop-color="#ff4f6d" stop-opacity="0.22"/>
    </linearGradient>
  </defs>
  <rect width="800" height="420" fill="url(#bg)"/>
  <circle cx="424" cy="88" r="71" fill="#6f4a2d" opacity="0.13"/>
  <circle cx="587" cy="208" r="74" fill="#12b7a6" opacity="0.16"/>
  <circle cx="461" cy="165" r="2" fill="#ff4f6d" opacity="0.7"/><circle cx="154" cy="76" r="2" fill="#ff4f6d" opacity="0.71"/><circle cx="359" cy="343" r="2" fill="#ff4f6d" opacity="0.68"/><circle cx="52" cy="254" r="2" fill="#ff4f6d" opacity="0.69"/><circle cx="665" cy="150" r="2" fill="#ff4f6d" opacity="0.29000000000000004"/><circle cx="358" cy="61" r="2" fill="#ff4f6d" opacity="0.30000000000000004"/><circle cx="563" cy="329" r="2" fill="#ff4f6d" opacity="0.72"/><circle cx="256" cy="240" r="2" fill="#ff4f6d" opacity="0.28"/><circle cx="53" cy="194" r="2" fill="#ff4f6d" opacity="0.6200000000000001"/>
  <rect x="282" y="54" width="304" height="312" rx="24" fill="#6f4a2d"/><rect x="312" y="84" width="244" height="252" rx="16" fill="#d9c092"/><circle cx="434" cy="178" r="54" fill="#f0c7a5"/><path d="M364 318c12-82 42-120 70-120s58 38 70 120z" fill="#ff4f6d"/><path d="M378 154c36-72 116-46 122 10-36-18-74-18-122-10z" fill="#4a2d22"/>
</svg>
