<svg xmlns="http://www.w3.org/2000/svg" viewBox="0 0 800 420" role="img" aria-label="Ilustracion propia de escenario musical para esta pregunta">
  <defs>
    <linearGradient id="bg" x1="0" x2="1" y1="0" y2="1">
      <stop stop-color="#201525"/>
      <stop offset="1" stop-color="#12b7a6" stop-opacity="0.22"/>
    </linearGradient>
  </defs>
  <rect width="800" height="420" fill="url(#bg)"/>
  <circle cx="201" cy="125" r="133" fill="#fffaf4" opacity="0.13"/>
  <circle cx="484" cy="105" r="72" fill="#ff4f6d" opacity="0.16"/>
  <circle cx="448" cy="332" r="4" fill="#12b7a6" opacity="0.64"/><circle cx="755" cy="79" r="4" fill="#12b7a6" opacity="0.63"/><circle cx="550" cy="153" r="4" fill="#12b7a6" opacity="0.66"/><circle cx="141" cy="242" r="4" fill="#12b7a6" opacity="0.65"/><circle cx="652" cy="317" r="4" fill="#12b7a6" opacity="0.68"/><circle cx="243" cy="64" r="4" fill="#12b7a6" opacity="0.67"/><circle cx="754" cy="139" r="4" fill="#12b7a6" opacity="0.7"/><circle cx="345" cy="228" r="4" fill="#12b7a6" opacity="0.69"/><circle cx="756" cy="361" r="5" fill="#12b7a6" opacity="0.56"/>
  <rect width="800" height="420" fill="#fffaf4"/><path d="M110 0l170 290M690 0L510 290" stroke="#12b7a6" stroke-width="34" opacity=".5"/><rect x="150" y="292" width="500" height="54" rx="20" fill="#ff4f6d" opacity=".9"/><path d="M280 292c26-80 214-80 240 0" fill="none" stroke="#fffaf4" stroke-width="16"/><path d="M396 98v126c0 28-24 50-58 50s-58-22-58-50 24-50 58-50c12 0 23 3 32 8V98z" fill="#ff4f6d"/>
</svg>
