<svg xmlns="http://www.w3.org/2000/svg" viewBox="0 0 800 420" role="img" aria-label="Ilustracion propia de oceano y olas para esta pregunta">
  <defs>
    <linearGradient id="bg" x1="0" x2="1" y1="0" y2="1">
      <stop stop-color="#dff8ff"/>
      <stop offset="1" stop-color="#12b7a6" stop-opacity="0.22"/>
    </linearGradient>
  </defs>
  <rect width="800" height="420" fill="url(#bg)"/>
  <circle cx="214" cy="340" r="132" fill="#12b7a6" opacity="0.13"/>
  <circle cx="560" cy="132" r="132" fill="#315be8" opacity="0.16"/>
  <circle cx="498" cy="373" r="3" fill="#fffaf4" opacity="0.41000000000000003"/><circle cx="89" cy="120" r="3" fill="#fffaf4" opacity="0.4"/><circle cx="396" cy="209" r="3" fill="#fffaf4" opacity="0.39"/><circle cx="703" cy="298" r="3" fill="#fffaf4" opacity="0.38"/><circle cx="702" cy="358" r="3" fill="#fffaf4" opacity="0.45000000000000007"/><circle cx="293" cy="106" r="3" fill="#fffaf4" opacity="0.44000000000000006"/><circle cx="600" cy="195" r="3" fill="#fffaf4" opacity="0.43000000000000005"/><circle cx="191" cy="284" r="3" fill="#fffaf4" opacity="0.42000000000000004"/><circle cx="190" cy="344" r="3" fill="#fffaf4" opacity="0.49"/>
  <path d="M0 240c88-42 144 42 232 0s144 42 232 0 144 42 232 0 144 42 232 0v180H0z" fill="#fff" opacity=".34"/><path d="M0 316c88-42 144 42 232 0s144 42 232 0 144 42 232 0 144 42 232 0" fill="none" stroke="#fff" stroke-width="18" opacity=".62"/><path d="M142 174c82-44 170-44 252 0" fill="none" stroke="#fff" stroke-width="10" opacity=".45" stroke-linecap="round"/>
</svg>
