<svg xmlns="http://www.w3.org/2000/svg" viewBox="0 0 800 420" role="img" aria-label="Ilustracion propia de espacio y planetas para esta pregunta">
  <defs>
    <linearGradient id="bg" x1="0" x2="1" y1="0" y2="1">
      <stop stop-color="#12171a"/>
      <stop offset="1" stop-color="#315be8" stop-opacity="0.22"/>
    </linearGradient>
  </defs>
  <rect width="800" height="420" fill="url(#bg)"/>
  <circle cx="221" cy="233" r="71" fill="#e46b4f" opacity="0.13"/>
  <circle cx="636" cy="297" r="114" fill="#f6bc42" opacity="0.16"/>
  <circle cx="704" cy="121" r="3" fill="#315be8" opacity="0.68"/><circle cx="295" cy="210" r="3" fill="#315be8" opacity="0.67"/><circle cx="90" cy="285" r="3" fill="#315be8" opacity="0.7"/><circle cx="397" cy="374" r="3" fill="#315be8" opacity="0.69"/><circle cx="192" cy="106" r="3" fill="#315be8" opacity="0.72"/><circle cx="499" cy="195" r="3" fill="#315be8" opacity="0.71"/><circle cx="294" cy="270" r="3" fill="#315be8" opacity="0.29000000000000004"/><circle cx="601" cy="359" r="3" fill="#315be8" opacity="0.28"/><circle cx="296" cy="150" r="3" fill="#315be8" opacity="0.6000000000000001"/>
  <rect width="800" height="420" fill="#e46b4f"/><circle cx="286" cy="218" r="70" fill="#f6bc42"/><path d="M230 212c36 14 66-22 112-2" stroke="#8f3327" stroke-width="12" stroke-linecap="round" opacity=".36"/><circle cx="510" cy="160" r="48" fill="#315be8"/><circle cx="540" cy="276" r="32" fill="#fffaf4"/><path d="M176 324c140 46 308 54 476 0" stroke="#fff" stroke-width="5" fill="none" opacity=".38"/>
</svg>
