<svg xmlns="http://www.w3.org/2000/svg" viewBox="0 0 800 420" role="img" aria-label="Ilustracion propia de escenario musical para esta pregunta">
  <defs>
    <linearGradient id="bg" x1="0" x2="1" y1="0" y2="1">
      <stop stop-color="#201525"/>
      <stop offset="1" stop-color="#12b7a6" stop-opacity="0.22"/>
    </linearGradient>
  </defs>
  <rect width="800" height="420" fill="url(#bg)"/>
  <circle cx="181" cy="235" r="95" fill="#fffaf4" opacity="0.13"/>
  <circle cx="631" cy="333" r="107" fill="#ff4f6d" opacity="0.16"/>
  <circle cx="630" cy="286" r="5" fill="#12b7a6" opacity="0.38"/><circle cx="221" cy="375" r="5" fill="#12b7a6" opacity="0.37"/><circle cx="528" cy="123" r="5" fill="#12b7a6" opacity="0.36000000000000004"/><circle cx="119" cy="212" r="5" fill="#12b7a6" opacity="0.35000000000000003"/><circle cx="426" cy="301" r="5" fill="#12b7a6" opacity="0.34"/><circle cx="733" cy="48" r="5" fill="#12b7a6" opacity="0.33"/><circle cx="324" cy="137" r="5" fill="#12b7a6" opacity="0.32"/><circle cx="631" cy="226" r="5" fill="#12b7a6" opacity="0.31000000000000005"/><circle cx="322" cy="257" r="4" fill="#12b7a6" opacity="0.46"/>
  <rect width="800" height="420" fill="#fffaf4"/><path d="M110 0l170 290M690 0L510 290" stroke="#12b7a6" stroke-width="34" opacity=".5"/><rect x="150" y="292" width="500" height="54" rx="20" fill="#ff4f6d" opacity=".9"/><path d="M280 292c26-80 214-80 240 0" fill="none" stroke="#fffaf4" stroke-width="16"/><path d="M396 98v126c0 28-24 50-58 50s-58-22-58-50 24-50 58-50c12 0 23 3 32 8V98z" fill="#ff4f6d"/>
</svg>
