<svg xmlns="http://www.w3.org/2000/svg" viewBox="0 0 800 420" role="img" aria-label="Ilustracion propia de escenario musical para esta pregunta">
  <defs>
    <linearGradient id="bg" x1="0" x2="1" y1="0" y2="1">
      <stop stop-color="#201525"/>
      <stop offset="1" stop-color="#12b7a6" stop-opacity="0.22"/>
    </linearGradient>
  </defs>
  <rect width="800" height="420" fill="url(#bg)"/>
  <circle cx="234" cy="94" r="73" fill="#fffaf4" opacity="0.13"/>
  <circle cx="488" cy="101" r="115" fill="#ff4f6d" opacity="0.16"/>
  <circle cx="445" cy="253" r="4" fill="#12b7a6" opacity="0.45000000000000007"/><circle cx="138" cy="163" r="4" fill="#12b7a6" opacity="0.46"/><circle cx="343" cy="89" r="4" fill="#12b7a6" opacity="0.43000000000000005"/><circle cx="752" cy="342" r="4" fill="#12b7a6" opacity="0.44000000000000006"/><circle cx="649" cy="238" r="4" fill="#12b7a6" opacity="0.49"/><circle cx="342" cy="149" r="4" fill="#12b7a6" opacity="0.5"/><circle cx="547" cy="74" r="4" fill="#12b7a6" opacity="0.47000000000000003"/><circle cx="240" cy="327" r="4" fill="#12b7a6" opacity="0.48000000000000004"/><circle cx="753" cy="282" r="5" fill="#12b7a6" opacity="0.37"/>
  <rect width="800" height="420" fill="#fffaf4"/><path d="M182 0l170 290M618 0L510 290" stroke="#12b7a6" stroke-width="34" opacity=".5"/><rect x="150" y="292" width="500" height="54" rx="20" fill="#ff4f6d" opacity=".9"/><path d="M280 292c26-80 214-80 240 0" fill="none" stroke="#fffaf4" stroke-width="16"/><path d="M438 98v126c0 28-24 50-58 50s-58-22-58-50 24-50 58-50c12 0 23 3 32 8V98z" fill="#ff4f6d"/>
</svg>
