<svg xmlns="http://www.w3.org/2000/svg" viewBox="0 0 800 420" role="img" aria-label="Ilustracion propia de escenario musical para esta pregunta">
  <defs>
    <linearGradient id="bg" x1="0" x2="1" y1="0" y2="1">
      <stop stop-color="#201525"/>
      <stop offset="1" stop-color="#fffaf4" stop-opacity="0.22"/>
    </linearGradient>
  </defs>
  <rect width="800" height="420" fill="url(#bg)"/>
  <circle cx="369" cy="214" r="122" fill="#fffaf4" opacity="0.13"/>
  <circle cx="505" cy="224" r="71" fill="#ff4f6d" opacity="0.16"/>
  <circle cx="331" cy="359" r="3" fill="#12b7a6" opacity="0.41000000000000003"/><circle cx="740" cy="270" r="3" fill="#12b7a6" opacity="0.42000000000000004"/><circle cx="433" cy="181" r="3" fill="#12b7a6" opacity="0.43000000000000005"/><circle cx="126" cy="92" r="3" fill="#12b7a6" opacity="0.44000000000000006"/><circle cx="535" cy="344" r="3" fill="#12b7a6" opacity="0.45000000000000007"/><circle cx="228" cy="255" r="3" fill="#12b7a6" opacity="0.46"/><circle cx="637" cy="166" r="3" fill="#12b7a6" opacity="0.47000000000000003"/><circle cx="330" cy="77" r="3" fill="#12b7a6" opacity="0.48000000000000004"/><circle cx="639" cy="46" r="3" fill="#12b7a6" opacity="0.33"/>
  <rect width="800" height="420" fill="#fffaf4"/><path d="M182 0l170 290M618 0L510 290" stroke="#12b7a6" stroke-width="34" opacity=".5"/><rect x="150" y="292" width="500" height="54" rx="20" fill="#ff4f6d" opacity=".9"/><path d="M280 292c26-80 214-80 240 0" fill="none" stroke="#fffaf4" stroke-width="16"/><path d="M438 98v126c0 28-24 50-58 50s-58-22-58-50 24-50 58-50c12 0 23 3 32 8V98z" fill="#ff4f6d"/>
</svg>
