<svg xmlns="http://www.w3.org/2000/svg" viewBox="0 0 800 420" role="img" aria-label="Ilustracion propia de arte y museo para esta pregunta">
  <defs>
    <linearGradient id="bg" x1="0" x2="1" y1="0" y2="1">
      <stop stop-color="#fff2df"/>
      <stop offset="1" stop-color="#ff4f6d" stop-opacity="0.22"/>
    </linearGradient>
  </defs>
  <rect width="800" height="420" fill="url(#bg)"/>
  <circle cx="526" cy="201" r="65" fill="#6f4a2d" opacity="0.13"/>
  <circle cx="149" cy="186" r="104" fill="#12b7a6" opacity="0.16"/>
  <circle cx="357" cy="53" r="2" fill="#ff4f6d" opacity="0.63"/><circle cx="50" cy="306" r="2" fill="#ff4f6d" opacity="0.64"/><circle cx="255" cy="231" r="2" fill="#ff4f6d" opacity="0.6100000000000001"/><circle cx="664" cy="142" r="2" fill="#ff4f6d" opacity="0.6200000000000001"/><circle cx="561" cy="38" r="2" fill="#ff4f6d" opacity="0.67"/><circle cx="254" cy="291" r="2" fill="#ff4f6d" opacity="0.68"/><circle cx="459" cy="217" r="2" fill="#ff4f6d" opacity="0.65"/><circle cx="152" cy="127" r="2" fill="#ff4f6d" opacity="0.66"/><circle cx="49" cy="366" r="5" fill="#ff4f6d" opacity="0.71"/>
  <rect x="246" y="54" width="304" height="312" rx="24" fill="#6f4a2d"/><rect x="276" y="84" width="244" height="252" rx="16" fill="#d9c092"/><circle cx="398" cy="178" r="54" fill="#f0c7a5"/><path d="M328 318c12-82 42-120 70-120s58 38 70 120z" fill="#ff4f6d"/><path d="M342 154c36-72 116-46 122 10-36-18-74-18-122-10z" fill="#4a2d22"/>
</svg>
