<svg xmlns="http://www.w3.org/2000/svg" viewBox="0 0 800 420" role="img" aria-label="Ilustracion propia de escenario musical para esta pregunta">
  <defs>
    <linearGradient id="bg" x1="0" x2="1" y1="0" y2="1">
      <stop stop-color="#201525"/>
      <stop offset="1" stop-color="#12b7a6" stop-opacity="0.22"/>
    </linearGradient>
  </defs>
  <rect width="800" height="420" fill="url(#bg)"/>
  <circle cx="199" cy="321" r="99" fill="#fffaf4" opacity="0.13"/>
  <circle cx="558" cy="273" r="98" fill="#ff4f6d" opacity="0.16"/>
  <circle cx="351" cy="107" r="4" fill="#12b7a6" opacity="0.32"/><circle cx="44" cy="360" r="4" fill="#12b7a6" opacity="0.33"/><circle cx="453" cy="271" r="4" fill="#12b7a6" opacity="0.34"/><circle cx="146" cy="182" r="4" fill="#12b7a6" opacity="0.35000000000000003"/><circle cx="147" cy="122" r="4" fill="#12b7a6" opacity="0.28"/><circle cx="556" cy="375" r="4" fill="#12b7a6" opacity="0.29000000000000004"/><circle cx="249" cy="286" r="4" fill="#12b7a6" opacity="0.30000000000000004"/><circle cx="658" cy="196" r="4" fill="#12b7a6" opacity="0.31000000000000005"/><circle cx="659" cy="137" r="4" fill="#12b7a6" opacity="0.69"/>
  <rect width="800" height="420" fill="#fffaf4"/><path d="M182 0l170 290M618 0L510 290" stroke="#12b7a6" stroke-width="34" opacity=".5"/><rect x="150" y="292" width="500" height="54" rx="20" fill="#ff4f6d" opacity=".9"/><path d="M280 292c26-80 214-80 240 0" fill="none" stroke="#fffaf4" stroke-width="16"/><path d="M438 98v126c0 28-24 50-58 50s-58-22-58-50 24-50 58-50c12 0 23 3 32 8V98z" fill="#ff4f6d"/>
</svg>
