<svg xmlns="http://www.w3.org/2000/svg" viewBox="0 0 800 420" role="img" aria-label="Ilustracion propia de escenario musical para esta pregunta">
  <defs>
    <linearGradient id="bg" x1="0" x2="1" y1="0" y2="1">
      <stop stop-color="#201525"/>
      <stop offset="1" stop-color="#fffaf4" stop-opacity="0.22"/>
    </linearGradient>
  </defs>
  <rect width="800" height="420" fill="url(#bg)"/>
  <circle cx="468" cy="295" r="126" fill="#fffaf4" opacity="0.13"/>
  <circle cx="517" cy="269" r="121" fill="#ff4f6d" opacity="0.16"/>
  <circle cx="259" cy="338" r="5" fill="#12b7a6" opacity="0.56"/><circle cx="668" cy="249" r="5" fill="#12b7a6" opacity="0.5700000000000001"/><circle cx="361" cy="160" r="5" fill="#12b7a6" opacity="0.5800000000000001"/><circle cx="54" cy="70" r="5" fill="#12b7a6" opacity="0.5900000000000001"/><circle cx="463" cy="323" r="5" fill="#12b7a6" opacity="0.6000000000000001"/><circle cx="156" cy="234" r="4" fill="#12b7a6" opacity="0.6100000000000001"/><circle cx="565" cy="145" r="4" fill="#12b7a6" opacity="0.6200000000000001"/><circle cx="258" cy="56" r="4" fill="#12b7a6" opacity="0.63"/><circle cx="667" cy="309" r="4" fill="#12b7a6" opacity="0.64"/>
  <rect width="800" height="420" fill="#fffaf4"/><path d="M158 0l170 290M642 0L510 290" stroke="#12b7a6" stroke-width="34" opacity=".5"/><rect x="150" y="292" width="500" height="54" rx="20" fill="#ff4f6d" opacity=".9"/><path d="M280 292c26-80 214-80 240 0" fill="none" stroke="#fffaf4" stroke-width="16"/><path d="M424 98v126c0 28-24 50-58 50s-58-22-58-50 24-50 58-50c12 0 23 3 32 8V98z" fill="#ff4f6d"/>
</svg>
