<svg xmlns="http://www.w3.org/2000/svg" viewBox="0 0 800 420" role="img" aria-label="Ilustracion propia de oceano y olas para esta pregunta">
  <defs>
    <linearGradient id="bg" x1="0" x2="1" y1="0" y2="1">
      <stop stop-color="#dff8ff"/>
      <stop offset="1" stop-color="#dff8ff" stop-opacity="0.22"/>
    </linearGradient>
  </defs>
  <rect width="800" height="420" fill="url(#bg)"/>
  <circle cx="441" cy="163" r="88" fill="#12b7a6" opacity="0.13"/>
  <circle cx="589" cy="181" r="87" fill="#315be8" opacity="0.16"/>
  <circle cx="471" cy="64" r="2" fill="#fffaf4" opacity="0.29000000000000004"/><circle cx="164" cy="317" r="2" fill="#fffaf4" opacity="0.30000000000000004"/><circle cx="573" cy="228" r="2" fill="#fffaf4" opacity="0.31000000000000005"/><circle cx="266" cy="138" r="2" fill="#fffaf4" opacity="0.32"/><circle cx="675" cy="49" r="2" fill="#fffaf4" opacity="0.33"/><circle cx="368" cy="302" r="2" fill="#fffaf4" opacity="0.34"/><circle cx="61" cy="213" r="2" fill="#fffaf4" opacity="0.35000000000000003"/><circle cx="470" cy="124" r="2" fill="#fffaf4" opacity="0.36000000000000004"/><circle cx="63" cy="93" r="2" fill="#fffaf4" opacity="0.66"/>
  <path d="M0 240c88-42 144 42 232 0s144 42 232 0 144 42 232 0 144 42 232 0v180H0z" fill="#fff" opacity=".34"/><path d="M0 286c88-42 144 42 232 0s144 42 232 0 144 42 232 0 144 42 232 0" fill="none" stroke="#fff" stroke-width="18" opacity=".62"/><path d="M142 174c82-44 170-44 252 0" fill="none" stroke="#fff" stroke-width="10" opacity=".45" stroke-linecap="round"/>
</svg>
