<svg xmlns="http://www.w3.org/2000/svg" viewBox="0 0 800 420" role="img" aria-label="Ilustracion propia de escenario musical para esta pregunta">
  <defs>
    <linearGradient id="bg" x1="0" x2="1" y1="0" y2="1">
      <stop stop-color="#201525"/>
      <stop offset="1" stop-color="#fffaf4" stop-opacity="0.22"/>
    </linearGradient>
  </defs>
  <rect width="800" height="420" fill="url(#bg)"/>
  <circle cx="129" cy="175" r="80" fill="#fffaf4" opacity="0.13"/>
  <circle cx="100" cy="147" r="106" fill="#ff4f6d" opacity="0.16"/>
  <circle cx="721" cy="278" r="4" fill="#12b7a6" opacity="0.34"/><circle cx="414" cy="189" r="4" fill="#12b7a6" opacity="0.35000000000000003"/><circle cx="619" cy="114" r="4" fill="#12b7a6" opacity="0.32"/><circle cx="312" cy="367" r="4" fill="#12b7a6" opacity="0.33"/><circle cx="517" cy="292" r="4" fill="#12b7a6" opacity="0.30000000000000004"/><circle cx="210" cy="203" r="4" fill="#12b7a6" opacity="0.31000000000000005"/><circle cx="415" cy="129" r="4" fill="#12b7a6" opacity="0.28"/><circle cx="108" cy="40" r="4" fill="#12b7a6" opacity="0.29000000000000004"/><circle cx="313" cy="307" r="4" fill="#12b7a6" opacity="0.71"/>
  <rect width="800" height="420" fill="#fffaf4"/><path d="M182 0l170 290M618 0L510 290" stroke="#12b7a6" stroke-width="34" opacity=".5"/><rect x="150" y="292" width="500" height="54" rx="20" fill="#ff4f6d" opacity=".9"/><path d="M280 292c26-80 214-80 240 0" fill="none" stroke="#fffaf4" stroke-width="16"/><path d="M438 98v126c0 28-24 50-58 50s-58-22-58-50 24-50 58-50c12 0 23 3 32 8V98z" fill="#ff4f6d"/>
</svg>
