<svg xmlns="http://www.w3.org/2000/svg" viewBox="0 0 800 420" role="img" aria-label="Ilustracion propia de escenario musical para esta pregunta">
  <defs>
    <linearGradient id="bg" x1="0" x2="1" y1="0" y2="1">
      <stop stop-color="#201525"/>
      <stop offset="1" stop-color="#ff4f6d" stop-opacity="0.22"/>
    </linearGradient>
  </defs>
  <rect width="800" height="420" fill="url(#bg)"/>
  <circle cx="174" cy="142" r="117" fill="#fffaf4" opacity="0.13"/>
  <circle cx="480" cy="72" r="100" fill="#ff4f6d" opacity="0.16"/>
  <circle cx="661" cy="297" r="3" fill="#12b7a6" opacity="0.67"/><circle cx="354" cy="207" r="3" fill="#12b7a6" opacity="0.68"/><circle cx="559" cy="133" r="3" fill="#12b7a6" opacity="0.65"/><circle cx="252" cy="44" r="3" fill="#12b7a6" opacity="0.66"/><circle cx="457" cy="311" r="3" fill="#12b7a6" opacity="0.63"/><circle cx="150" cy="222" r="3" fill="#12b7a6" opacity="0.64"/><circle cx="355" cy="147" r="3" fill="#12b7a6" opacity="0.6100000000000001"/><circle cx="48" cy="58" r="3" fill="#12b7a6" opacity="0.6200000000000001"/><circle cx="253" cy="326" r="3" fill="#12b7a6" opacity="0.5900000000000001"/>
  <rect width="800" height="420" fill="#fffaf4"/><path d="M182 0l170 290M618 0L510 290" stroke="#12b7a6" stroke-width="34" opacity=".5"/><rect x="150" y="292" width="500" height="54" rx="20" fill="#ff4f6d" opacity=".9"/><path d="M280 292c26-80 214-80 240 0" fill="none" stroke="#fffaf4" stroke-width="16"/><path d="M438 98v126c0 28-24 50-58 50s-58-22-58-50 24-50 58-50c12 0 23 3 32 8V98z" fill="#ff4f6d"/>
</svg>
