<svg xmlns="http://www.w3.org/2000/svg" viewBox="0 0 800 420" role="img" aria-label="Ilustracion propia de oceano y olas para esta pregunta">
  <defs>
    <linearGradient id="bg" x1="0" x2="1" y1="0" y2="1">
      <stop stop-color="#dff8ff"/>
      <stop offset="1" stop-color="#fffaf4" stop-opacity="0.22"/>
    </linearGradient>
  </defs>
  <rect width="800" height="420" fill="url(#bg)"/>
  <circle cx="187" cy="91" r="125" fill="#12b7a6" opacity="0.13"/>
  <circle cx="332" cy="101" r="81" fill="#315be8" opacity="0.16"/>
  <circle cx="371" cy="304" r="2" fill="#fffaf4" opacity="0.5"/><circle cx="64" cy="215" r="2" fill="#fffaf4" opacity="0.51"/><circle cx="473" cy="126" r="2" fill="#fffaf4" opacity="0.52"/><circle cx="166" cy="37" r="2" fill="#fffaf4" opacity="0.53"/><circle cx="575" cy="290" r="2" fill="#fffaf4" opacity="0.54"/><circle cx="268" cy="201" r="2" fill="#fffaf4" opacity="0.55"/><circle cx="677" cy="112" r="2" fill="#fffaf4" opacity="0.56"/><circle cx="370" cy="364" r="2" fill="#fffaf4" opacity="0.5700000000000001"/><circle cx="63" cy="275" r="2" fill="#fffaf4" opacity="0.5800000000000001"/>
  <path d="M0 240c88-42 144 42 232 0s144 42 232 0 144 42 232 0 144 42 232 0v180H0z" fill="#fff" opacity=".34"/><path d="M0 296c88-42 144 42 232 0s144 42 232 0 144 42 232 0 144 42 232 0" fill="none" stroke="#fff" stroke-width="18" opacity=".62"/><path d="M142 174c82-44 170-44 252 0" fill="none" stroke="#fff" stroke-width="10" opacity=".45" stroke-linecap="round"/>
</svg>
