<svg xmlns="http://www.w3.org/2000/svg" viewBox="0 0 800 420" role="img" aria-label="Ilustracion propia de naturaleza para esta pregunta">
  <defs>
    <linearGradient id="bg" x1="0" x2="1" y1="0" y2="1">
      <stop stop-color="#ecfbef"/>
      <stop offset="1" stop-color="#315be8" stop-opacity="0.22"/>
    </linearGradient>
  </defs>
  <rect width="800" height="420" fill="url(#bg)"/>
  <circle cx="574" cy="330" r="133" fill="#12b7a6" opacity="0.13"/>
  <circle cx="530" cy="310" r="72" fill="#315be8" opacity="0.16"/>
  <circle cx="644" cy="135" r="2" fill="#f6bc42" opacity="0.28"/><circle cx="235" cy="224" r="2" fill="#f6bc42" opacity="0.72"/><circle cx="746" cy="298" r="2" fill="#f6bc42" opacity="0.30000000000000004"/><circle cx="337" cy="45" r="2" fill="#f6bc42" opacity="0.29000000000000004"/><circle cx="132" cy="120" r="2" fill="#f6bc42" opacity="0.32"/><circle cx="439" cy="209" r="2" fill="#f6bc42" opacity="0.31000000000000005"/><circle cx="234" cy="284" r="2" fill="#f6bc42" opacity="0.34"/><circle cx="541" cy="373" r="2" fill="#f6bc42" opacity="0.33"/><circle cx="236" cy="164" r="2" fill="#f6bc42" opacity="0.65"/>
  <path d="M164 322c172-20 120-184 278-208 118-18 172 78 194 158-152 42-298 74-472 50z" fill="#315be8"/><path d="M214 300c138-68 244-104 390-118" stroke="#fff" stroke-width="14" stroke-linecap="round" opacity=".72"/><path d="M374 254c-28-52-20-104 24-156 72 30 102 82 84 150z" fill="#f6bc42" opacity=".88"/>
</svg>
