<svg xmlns="http://www.w3.org/2000/svg" viewBox="0 0 800 420" role="img" aria-label="Ilustracion propia de naturaleza para esta pregunta">
  <defs>
    <linearGradient id="bg" x1="0" x2="1" y1="0" y2="1">
      <stop stop-color="#ecfbef"/>
      <stop offset="1" stop-color="#ecfbef" stop-opacity="0.22"/>
    </linearGradient>
  </defs>
  <rect width="800" height="420" fill="url(#bg)"/>
  <circle cx="215" cy="173" r="102" fill="#12b7a6" opacity="0.13"/>
  <circle cx="485" cy="326" r="68" fill="#315be8" opacity="0.16"/>
  <circle cx="386" cy="376" r="3" fill="#f6bc42" opacity="0.33"/><circle cx="693" cy="123" r="3" fill="#f6bc42" opacity="0.32"/><circle cx="284" cy="213" r="3" fill="#f6bc42" opacity="0.31000000000000005"/><circle cx="591" cy="302" r="3" fill="#f6bc42" opacity="0.30000000000000004"/><circle cx="358" cy="148" r="3" fill="#f6bc42" opacity="0.68"/><circle cx="665" cy="237" r="3" fill="#f6bc42" opacity="0.67"/><circle cx="256" cy="326" r="3" fill="#f6bc42" opacity="0.66"/><circle cx="563" cy="73" r="3" fill="#f6bc42" opacity="0.65"/><circle cx="694" cy="64" r="4" fill="#f6bc42" opacity="0.7"/>
  <path d="M164 322c172-20 120-184 278-208 118-18 172 78 194 158-152 42-298 74-472 50z" fill="#315be8"/><path d="M214 300c138-68 244-104 390-118" stroke="#fff" stroke-width="14" stroke-linecap="round" opacity=".72"/><path d="M394 254c-28-52-20-104 24-156 72 30 102 82 84 150z" fill="#f6bc42" opacity=".88"/>
</svg>
