<svg xmlns="http://www.w3.org/2000/svg" viewBox="0 0 800 420" role="img" aria-label="Ilustracion propia de oceano y olas para esta pregunta">
  <defs>
    <linearGradient id="bg" x1="0" x2="1" y1="0" y2="1">
      <stop stop-color="#dff8ff"/>
      <stop offset="1" stop-color="#12b7a6" stop-opacity="0.22"/>
    </linearGradient>
  </defs>
  <rect width="800" height="420" fill="url(#bg)"/>
  <circle cx="671" cy="272" r="88" fill="#12b7a6" opacity="0.13"/>
  <circle cx="392" cy="231" r="67" fill="#315be8" opacity="0.16"/>
  <circle cx="636" cy="333" r="5" fill="#fffaf4" opacity="0.34"/><circle cx="459" cy="294" r="5" fill="#fffaf4" opacity="0.47000000000000003"/><circle cx="738" cy="154" r="5" fill="#fffaf4" opacity="0.36000000000000004"/><circle cx="329" cy="243" r="5" fill="#fffaf4" opacity="0.35000000000000003"/><circle cx="664" cy="219" r="5" fill="#fffaf4" opacity="0.44000000000000006"/><circle cx="255" cy="308" r="5" fill="#fffaf4" opacity="0.43000000000000005"/><circle cx="50" cy="41" r="5" fill="#fffaf4" opacity="0.46"/><circle cx="357" cy="130" r="5" fill="#fffaf4" opacity="0.45000000000000007"/><circle cx="460" cy="234" r="5" fill="#fffaf4" opacity="0.4"/>
  <path d="M0 240c88-42 144 42 232 0s144 42 232 0 144 42 232 0 144 42 232 0v180H0z" fill="#fff" opacity=".34"/><path d="M0 286c88-42 144 42 232 0s144 42 232 0 144 42 232 0 144 42 232 0" fill="none" stroke="#fff" stroke-width="18" opacity=".62"/><path d="M142 174c82-44 170-44 252 0" fill="none" stroke="#fff" stroke-width="10" opacity=".45" stroke-linecap="round"/>
</svg>
