<svg xmlns="http://www.w3.org/2000/svg" viewBox="0 0 800 420" role="img" aria-label="Ilustracion propia de naturaleza para esta pregunta">
  <defs>
    <linearGradient id="bg" x1="0" x2="1" y1="0" y2="1">
      <stop stop-color="#ecfbef"/>
      <stop offset="1" stop-color="#12b7a6" stop-opacity="0.22"/>
    </linearGradient>
  </defs>
  <rect width="800" height="420" fill="url(#bg)"/>
  <circle cx="531" cy="167" r="80" fill="#12b7a6" opacity="0.13"/>
  <circle cx="525" cy="75" r="126" fill="#315be8" opacity="0.16"/>
  <circle cx="534" cy="231" r="5" fill="#f6bc42" opacity="0.5900000000000001"/><circle cx="125" cy="320" r="5" fill="#f6bc42" opacity="0.5800000000000001"/><circle cx="432" cy="68" r="5" fill="#f6bc42" opacity="0.5700000000000001"/><circle cx="739" cy="157" r="5" fill="#f6bc42" opacity="0.56"/><circle cx="738" cy="217" r="5" fill="#f6bc42" opacity="0.63"/><circle cx="329" cy="306" r="5" fill="#f6bc42" opacity="0.6200000000000001"/><circle cx="636" cy="53" r="5" fill="#f6bc42" opacity="0.6100000000000001"/><circle cx="227" cy="142" r="5" fill="#f6bc42" opacity="0.6000000000000001"/><circle cx="226" cy="202" r="5" fill="#f6bc42" opacity="0.67"/>
  <path d="M164 322c172-20 120-184 278-208 118-18 172 78 194 158-152 42-298 74-472 50z" fill="#315be8"/><path d="M214 300c138-68 244-104 390-118" stroke="#fff" stroke-width="14" stroke-linecap="round" opacity=".72"/><path d="M314 254c-28-52-20-104 24-156 72 30 102 82 84 150z" fill="#f6bc42" opacity=".88"/>
</svg>
