<svg xmlns="http://www.w3.org/2000/svg" viewBox="0 0 800 420" role="img" aria-label="Ilustracion propia de oceano y olas para esta pregunta">
  <defs>
    <linearGradient id="bg" x1="0" x2="1" y1="0" y2="1">
      <stop stop-color="#dff8ff"/>
      <stop offset="1" stop-color="#fffaf4" stop-opacity="0.22"/>
    </linearGradient>
  </defs>
  <rect width="800" height="420" fill="url(#bg)"/>
  <circle cx="544" cy="102" r="67" fill="#12b7a6" opacity="0.13"/>
  <circle cx="602" cy="245" r="104" fill="#315be8" opacity="0.16"/>
  <circle cx="258" cy="50" r="5" fill="#fffaf4" opacity="0.69"/><circle cx="565" cy="139" r="5" fill="#fffaf4" opacity="0.68"/><circle cx="156" cy="228" r="5" fill="#fffaf4" opacity="0.67"/><circle cx="463" cy="317" r="5" fill="#fffaf4" opacity="0.66"/><circle cx="54" cy="64" r="5" fill="#fffaf4" opacity="0.65"/><circle cx="361" cy="154" r="5" fill="#fffaf4" opacity="0.64"/><circle cx="668" cy="243" r="5" fill="#fffaf4" opacity="0.63"/><circle cx="259" cy="332" r="5" fill="#fffaf4" opacity="0.6200000000000001"/><circle cx="666" cy="363" r="5" fill="#fffaf4" opacity="0.32"/>
  <path d="M0 240c88-42 144 42 232 0s144 42 232 0 144 42 232 0 144 42 232 0v180H0z" fill="#fff" opacity=".34"/><path d="M0 316c88-42 144 42 232 0s144 42 232 0 144 42 232 0 144 42 232 0" fill="none" stroke="#fff" stroke-width="18" opacity=".62"/><path d="M142 174c82-44 170-44 252 0" fill="none" stroke="#fff" stroke-width="10" opacity=".45" stroke-linecap="round"/>
</svg>
