<svg xmlns="http://www.w3.org/2000/svg" viewBox="0 0 800 420" role="img" aria-label="Ilustracion propia de naturaleza para esta pregunta">
  <defs>
    <linearGradient id="bg" x1="0" x2="1" y1="0" y2="1">
      <stop stop-color="#ecfbef"/>
      <stop offset="1" stop-color="#12b7a6" stop-opacity="0.22"/>
    </linearGradient>
  </defs>
  <rect width="800" height="420" fill="url(#bg)"/>
  <circle cx="142" cy="188" r="102" fill="#12b7a6" opacity="0.13"/>
  <circle cx="251" cy="220" r="68" fill="#315be8" opacity="0.16"/>
  <circle cx="559" cy="45" r="2" fill="#f6bc42" opacity="0.55"/><circle cx="252" cy="298" r="2" fill="#f6bc42" opacity="0.56"/><circle cx="661" cy="209" r="2" fill="#f6bc42" opacity="0.5700000000000001"/><circle cx="354" cy="120" r="2" fill="#f6bc42" opacity="0.5800000000000001"/><circle cx="355" cy="60" r="2" fill="#f6bc42" opacity="0.51"/><circle cx="48" cy="313" r="2" fill="#f6bc42" opacity="0.52"/><circle cx="457" cy="223" r="2" fill="#f6bc42" opacity="0.53"/><circle cx="150" cy="134" r="2" fill="#f6bc42" opacity="0.54"/><circle cx="251" cy="358" r="2" fill="#f6bc42" opacity="0.63"/>
  <path d="M164 322c172-20 120-184 278-208 118-18 172 78 194 158-152 42-298 74-472 50z" fill="#315be8"/><path d="M214 300c138-68 244-104 390-118" stroke="#fff" stroke-width="14" stroke-linecap="round" opacity=".72"/><path d="M334 254c-28-52-20-104 24-156 72 30 102 82 84 150z" fill="#f6bc42" opacity=".88"/>
</svg>
