<svg xmlns="http://www.w3.org/2000/svg" viewBox="0 0 800 420" role="img" aria-label="Ilustracion propia de naturaleza para esta pregunta">
  <defs>
    <linearGradient id="bg" x1="0" x2="1" y1="0" y2="1">
      <stop stop-color="#ecfbef"/>
      <stop offset="1" stop-color="#ecfbef" stop-opacity="0.22"/>
    </linearGradient>
  </defs>
  <rect width="800" height="420" fill="url(#bg)"/>
  <circle cx="186" cy="73" r="82" fill="#12b7a6" opacity="0.13"/>
  <circle cx="182" cy="170" r="76" fill="#315be8" opacity="0.16"/>
  <circle cx="150" cy="64" r="3" fill="#f6bc42" opacity="0.51"/><circle cx="457" cy="153" r="3" fill="#f6bc42" opacity="0.5"/><circle cx="48" cy="242" r="3" fill="#f6bc42" opacity="0.49"/><circle cx="355" cy="331" r="3" fill="#f6bc42" opacity="0.48000000000000004"/><circle cx="662" cy="78" r="3" fill="#f6bc42" opacity="0.47000000000000003"/><circle cx="253" cy="168" r="3" fill="#f6bc42" opacity="0.46"/><circle cx="560" cy="257" r="3" fill="#f6bc42" opacity="0.45000000000000007"/><circle cx="151" cy="346" r="3" fill="#f6bc42" opacity="0.44000000000000006"/><circle cx="458" cy="93" r="3" fill="#f6bc42" opacity="0.43000000000000005"/>
  <path d="M164 322c172-20 120-184 278-208 118-18 172 78 194 158-152 42-298 74-472 50z" fill="#315be8"/><path d="M214 300c138-68 244-104 390-118" stroke="#fff" stroke-width="14" stroke-linecap="round" opacity=".72"/><path d="M314 254c-28-52-20-104 24-156 72 30 102 82 84 150z" fill="#f6bc42" opacity=".88"/>
</svg>
