<svg xmlns="http://www.w3.org/2000/svg" viewBox="0 0 800 420" role="img" aria-label="Ilustracion propia de cancha de baloncesto para esta pregunta">
  <defs>
    <linearGradient id="bg" x1="0" x2="1" y1="0" y2="1">
      <stop stop-color="#fff1df"/>
      <stop offset="1" stop-color="#15191d" stop-opacity="0.22"/>
    </linearGradient>
  </defs>
  <rect width="800" height="420" fill="url(#bg)"/>
  <circle cx="601" cy="143" r="91" fill="#f6bc42" opacity="0.13"/>
  <circle cx="309" cy="322" r="97" fill="#d95a35" opacity="0.16"/>
  <circle cx="592" cy="38" r="3" fill="#15191d" opacity="0.46"/><circle cx="183" cy="127" r="3" fill="#15191d" opacity="0.45000000000000007"/><circle cx="694" cy="202" r="2" fill="#15191d" opacity="0.48000000000000004"/><circle cx="285" cy="291" r="2" fill="#15191d" opacity="0.47000000000000003"/><circle cx="80" cy="365" r="2" fill="#15191d" opacity="0.5"/><circle cx="387" cy="112" r="2" fill="#15191d" opacity="0.49"/><circle cx="182" cy="187" r="2" fill="#15191d" opacity="0.52"/><circle cx="489" cy="276" r="2" fill="#15191d" opacity="0.51"/><circle cx="184" cy="67" r="3" fill="#15191d" opacity="0.38"/>
  <rect x="76" y="58" width="648" height="304" rx="30" fill="#d95a35"/><path d="M100 210h600M400 58v304" stroke="#fffaf4" stroke-width="8" opacity=".8"/><circle cx="400" cy="210" r="52" fill="none" stroke="#fffaf4" stroke-width="8" opacity=".8"/><circle cx="180" cy="150" r="42" fill="#15191d"/><path d="M138 150h84M180 108v84" stroke="#f6bc42" stroke-width="5" fill="none"/>
</svg>
