<svg xmlns="http://www.w3.org/2000/svg" viewBox="0 0 800 420" role="img" aria-label="Ilustracion propia de cancha de baloncesto para esta pregunta">
  <defs>
    <linearGradient id="bg" x1="0" x2="1" y1="0" y2="1">
      <stop stop-color="#fff1df"/>
      <stop offset="1" stop-color="#d95a35" stop-opacity="0.22"/>
    </linearGradient>
  </defs>
  <rect width="800" height="420" fill="url(#bg)"/>
  <circle cx="386" cy="300" r="97" fill="#f6bc42" opacity="0.13"/>
  <circle cx="657" cy="91" r="118" fill="#d95a35" opacity="0.16"/>
  <circle cx="573" cy="265" r="3" fill="#15191d" opacity="0.46"/><circle cx="266" cy="176" r="3" fill="#15191d" opacity="0.47000000000000003"/><circle cx="471" cy="101" r="3" fill="#15191d" opacity="0.44000000000000006"/><circle cx="164" cy="354" r="3" fill="#15191d" opacity="0.45000000000000007"/><circle cx="369" cy="279" r="3" fill="#15191d" opacity="0.42000000000000004"/><circle cx="62" cy="190" r="3" fill="#15191d" opacity="0.43000000000000005"/><circle cx="267" cy="116" r="3" fill="#15191d" opacity="0.4"/><circle cx="676" cy="368" r="3" fill="#15191d" opacity="0.41000000000000003"/><circle cx="165" cy="294" r="3" fill="#15191d" opacity="0.38"/>
  <rect x="76" y="58" width="648" height="304" rx="30" fill="#d95a35"/><path d="M100 210h600M400 58v304" stroke="#fffaf4" stroke-width="8" opacity=".8"/><circle cx="400" cy="210" r="52" fill="none" stroke="#fffaf4" stroke-width="8" opacity=".8"/><circle cx="180" cy="150" r="42" fill="#15191d"/><path d="M138 150h84M180 108v84" stroke="#f6bc42" stroke-width="5" fill="none"/>
</svg>
