<svg xmlns="http://www.w3.org/2000/svg" viewBox="0 0 800 420" role="img" aria-label="Ilustracion propia de cancha de baloncesto para esta pregunta">
  <defs>
    <linearGradient id="bg" x1="0" x2="1" y1="0" y2="1">
      <stop stop-color="#fff1df"/>
      <stop offset="1" stop-color="#15191d" stop-opacity="0.22"/>
    </linearGradient>
  </defs>
  <rect width="800" height="420" fill="url(#bg)"/>
  <circle cx="107" cy="247" r="131" fill="#f6bc42" opacity="0.13"/>
  <circle cx="622" cy="228" r="102" fill="#d95a35" opacity="0.16"/>
  <circle cx="213" cy="217" r="5" fill="#15191d" opacity="0.69"/><circle cx="622" cy="128" r="5" fill="#15191d" opacity="0.7"/><circle cx="111" cy="54" r="5" fill="#15191d" opacity="0.67"/><circle cx="520" cy="307" r="5" fill="#15191d" opacity="0.68"/><circle cx="417" cy="203" r="4" fill="#15191d" opacity="0.28"/><circle cx="110" cy="114" r="4" fill="#15191d" opacity="0.29000000000000004"/><circle cx="315" cy="39" r="5" fill="#15191d" opacity="0.71"/><circle cx="724" cy="292" r="5" fill="#15191d" opacity="0.72"/><circle cx="521" cy="247" r="5" fill="#15191d" opacity="0.6100000000000001"/>
  <rect x="76" y="58" width="648" height="304" rx="30" fill="#d95a35"/><path d="M100 210h600M400 58v304" stroke="#fffaf4" stroke-width="8" opacity=".8"/><circle cx="400" cy="210" r="59" fill="none" stroke="#fffaf4" stroke-width="8" opacity=".8"/><circle cx="264" cy="174" r="42" fill="#15191d"/><path d="M222 174h84M264 132v84" stroke="#f6bc42" stroke-width="5" fill="none"/>
</svg>
