<svg xmlns="http://www.w3.org/2000/svg" viewBox="0 0 800 420" role="img" aria-label="Ilustracion propia de cancha de baloncesto para esta pregunta">
  <defs>
    <linearGradient id="bg" x1="0" x2="1" y1="0" y2="1">
      <stop stop-color="#fff1df"/>
      <stop offset="1" stop-color="#15191d" stop-opacity="0.22"/>
    </linearGradient>
  </defs>
  <rect width="800" height="420" fill="url(#bg)"/>
  <circle cx="164" cy="237" r="131" fill="#f6bc42" opacity="0.13"/>
  <circle cx="629" cy="298" r="82" fill="#d95a35" opacity="0.16"/>
  <circle cx="226" cy="215" r="5" fill="#15191d" opacity="0.69"/><circle cx="533" cy="304" r="5" fill="#15191d" opacity="0.68"/><circle cx="124" cy="51" r="5" fill="#15191d" opacity="0.67"/><circle cx="431" cy="140" r="5" fill="#15191d" opacity="0.66"/><circle cx="738" cy="229" r="5" fill="#15191d" opacity="0.65"/><circle cx="329" cy="318" r="2" fill="#15191d" opacity="0.64"/><circle cx="636" cy="66" r="2" fill="#15191d" opacity="0.63"/><circle cx="227" cy="155" r="2" fill="#15191d" opacity="0.6200000000000001"/><circle cx="534" cy="244" r="2" fill="#15191d" opacity="0.6100000000000001"/>
  <rect x="76" y="58" width="648" height="304" rx="30" fill="#d95a35"/><path d="M100 210h600M400 58v304" stroke="#fffaf4" stroke-width="8" opacity=".8"/><circle cx="400" cy="210" r="73" fill="none" stroke="#fffaf4" stroke-width="8" opacity=".8"/><circle cx="432" cy="222" r="42" fill="#15191d"/><path d="M390 222h84M432 180v84" stroke="#f6bc42" stroke-width="5" fill="none"/>
</svg>
