<svg xmlns="http://www.w3.org/2000/svg" viewBox="0 0 800 420" role="img" aria-label="Ilustracion propia de cancha de baloncesto para esta pregunta">
  <defs>
    <linearGradient id="bg" x1="0" x2="1" y1="0" y2="1">
      <stop stop-color="#fff1df"/>
      <stop offset="1" stop-color="#f6bc42" stop-opacity="0.22"/>
    </linearGradient>
  </defs>
  <rect width="800" height="420" fill="url(#bg)"/>
  <circle cx="275" cy="174" r="64" fill="#f6bc42" opacity="0.13"/>
  <circle cx="418" cy="290" r="124" fill="#d95a35" opacity="0.16"/>
  <circle cx="702" cy="147" r="3" fill="#15191d" opacity="0.4"/><circle cx="293" cy="236" r="3" fill="#15191d" opacity="0.39"/><circle cx="600" cy="325" r="3" fill="#15191d" opacity="0.38"/><circle cx="191" cy="72" r="3" fill="#15191d" opacity="0.37"/><circle cx="190" cy="132" r="3" fill="#15191d" opacity="0.44000000000000006"/><circle cx="497" cy="222" r="3" fill="#15191d" opacity="0.43000000000000005"/><circle cx="88" cy="311" r="3" fill="#15191d" opacity="0.42000000000000004"/><circle cx="395" cy="58" r="3" fill="#15191d" opacity="0.41000000000000003"/><circle cx="294" cy="176" r="3" fill="#15191d" opacity="0.32"/>
  <rect x="76" y="58" width="648" height="304" rx="30" fill="#d95a35"/><path d="M100 210h600M400 58v304" stroke="#fffaf4" stroke-width="8" opacity=".8"/><circle cx="400" cy="210" r="80" fill="none" stroke="#fffaf4" stroke-width="8" opacity=".8"/><circle cx="516" cy="246" r="42" fill="#15191d"/><path d="M474 246h84M516 204v84" stroke="#f6bc42" stroke-width="5" fill="none"/>
</svg>
