<svg xmlns="http://www.w3.org/2000/svg" viewBox="0 0 800 420" role="img" aria-label="Ilustracion propia de cancha de baloncesto para esta pregunta">
  <defs>
    <linearGradient id="bg" x1="0" x2="1" y1="0" y2="1">
      <stop stop-color="#fff1df"/>
      <stop offset="1" stop-color="#fff1df" stop-opacity="0.22"/>
    </linearGradient>
  </defs>
  <rect width="800" height="420" fill="url(#bg)"/>
  <circle cx="380" cy="307" r="100" fill="#f6bc42" opacity="0.13"/>
  <circle cx="581" cy="307" r="68" fill="#d95a35" opacity="0.16"/>
  <circle cx="337" cy="360" r="3" fill="#15191d" opacity="0.6000000000000001"/><circle cx="746" cy="271" r="3" fill="#15191d" opacity="0.6100000000000001"/><circle cx="235" cy="196" r="3" fill="#15191d" opacity="0.5800000000000001"/><circle cx="644" cy="107" r="3" fill="#15191d" opacity="0.5900000000000001"/><circle cx="541" cy="345" r="3" fill="#15191d" opacity="0.64"/><circle cx="234" cy="256" r="3" fill="#15191d" opacity="0.65"/><circle cx="439" cy="181" r="3" fill="#15191d" opacity="0.6200000000000001"/><circle cx="132" cy="92" r="3" fill="#15191d" opacity="0.63"/><circle cx="745" cy="330" r="3" fill="#15191d" opacity="0.68"/>
  <rect x="76" y="58" width="648" height="304" rx="30" fill="#d95a35"/><path d="M100 210h600M400 58v304" stroke="#fffaf4" stroke-width="8" opacity=".8"/><circle cx="400" cy="210" r="80" fill="none" stroke="#fffaf4" stroke-width="8" opacity=".8"/><circle cx="516" cy="246" r="42" fill="#15191d"/><path d="M474 246h84M516 204v84" stroke="#f6bc42" stroke-width="5" fill="none"/>
</svg>
