<svg xmlns="http://www.w3.org/2000/svg" viewBox="0 0 800 420" role="img" aria-label="Ilustracion propia de cancha de baloncesto para esta pregunta">
  <defs>
    <linearGradient id="bg" x1="0" x2="1" y1="0" y2="1">
      <stop stop-color="#fff1df"/>
      <stop offset="1" stop-color="#f6bc42" stop-opacity="0.22"/>
    </linearGradient>
  </defs>
  <rect width="800" height="420" fill="url(#bg)"/>
  <circle cx="371" cy="84" r="118" fill="#f6bc42" opacity="0.13"/>
  <circle cx="130" cy="207" r="70" fill="#d95a35" opacity="0.16"/>
  <circle cx="577" cy="323" r="2" fill="#15191d" opacity="0.6100000000000001"/><circle cx="270" cy="234" r="2" fill="#15191d" opacity="0.6200000000000001"/><circle cx="475" cy="159" r="2" fill="#15191d" opacity="0.5900000000000001"/><circle cx="168" cy="70" r="2" fill="#15191d" opacity="0.6000000000000001"/><circle cx="373" cy="337" r="2" fill="#15191d" opacity="0.5700000000000001"/><circle cx="66" cy="248" r="2" fill="#15191d" opacity="0.5800000000000001"/><circle cx="271" cy="174" r="2" fill="#15191d" opacity="0.55"/><circle cx="680" cy="85" r="2" fill="#15191d" opacity="0.56"/><circle cx="169" cy="352" r="2" fill="#15191d" opacity="0.53"/>
  <rect x="76" y="58" width="648" height="304" rx="30" fill="#d95a35"/><path d="M100 210h600M400 58v304" stroke="#fffaf4" stroke-width="8" opacity=".8"/><circle cx="400" cy="210" r="52" fill="none" stroke="#fffaf4" stroke-width="8" opacity=".8"/><circle cx="180" cy="150" r="42" fill="#15191d"/><path d="M138 150h84M180 108v84" stroke="#f6bc42" stroke-width="5" fill="none"/>
</svg>
