<svg xmlns="http://www.w3.org/2000/svg" viewBox="0 0 800 420" role="img" aria-label="Ilustracion propia de cancha de baloncesto para esta pregunta">
  <defs>
    <linearGradient id="bg" x1="0" x2="1" y1="0" y2="1">
      <stop stop-color="#fff1df"/>
      <stop offset="1" stop-color="#d95a35" stop-opacity="0.22"/>
    </linearGradient>
  </defs>
  <rect width="800" height="420" fill="url(#bg)"/>
  <circle cx="542" cy="326" r="131" fill="#f6bc42" opacity="0.13"/>
  <circle cx="451" cy="166" r="82" fill="#d95a35" opacity="0.16"/>
  <circle cx="477" cy="234" r="4" fill="#15191d" opacity="0.53"/><circle cx="170" cy="145" r="4" fill="#15191d" opacity="0.54"/><circle cx="375" cy="71" r="4" fill="#15191d" opacity="0.51"/><circle cx="68" cy="324" r="4" fill="#15191d" opacity="0.52"/><circle cx="273" cy="249" r="4" fill="#15191d" opacity="0.49"/><circle cx="682" cy="160" r="4" fill="#15191d" opacity="0.5"/><circle cx="171" cy="85" r="4" fill="#15191d" opacity="0.47000000000000003"/><circle cx="580" cy="338" r="4" fill="#15191d" opacity="0.48000000000000004"/><circle cx="69" cy="264" r="4" fill="#15191d" opacity="0.45000000000000007"/>
  <rect x="76" y="58" width="648" height="304" rx="30" fill="#d95a35"/><path d="M100 210h600M400 58v304" stroke="#fffaf4" stroke-width="8" opacity=".8"/><circle cx="400" cy="210" r="59" fill="none" stroke="#fffaf4" stroke-width="8" opacity=".8"/><circle cx="264" cy="174" r="42" fill="#15191d"/><path d="M222 174h84M264 132v84" stroke="#f6bc42" stroke-width="5" fill="none"/>
</svg>
