<svg xmlns="http://www.w3.org/2000/svg" viewBox="0 0 800 420" role="img" aria-label="Ilustracion propia de cancha de baloncesto para esta pregunta">
  <defs>
    <linearGradient id="bg" x1="0" x2="1" y1="0" y2="1">
      <stop stop-color="#fff1df"/>
      <stop offset="1" stop-color="#f6bc42" stop-opacity="0.22"/>
    </linearGradient>
  </defs>
  <rect width="800" height="420" fill="url(#bg)"/>
  <circle cx="464" cy="89" r="74" fill="#f6bc42" opacity="0.13"/>
  <circle cx="517" cy="101" r="105" fill="#d95a35" opacity="0.16"/>
  <circle cx="480" cy="62" r="4" fill="#15191d" opacity="0.30000000000000004"/><circle cx="71" cy="151" r="4" fill="#15191d" opacity="0.29000000000000004"/><circle cx="582" cy="226" r="4" fill="#15191d" opacity="0.32"/><circle cx="173" cy="315" r="4" fill="#15191d" opacity="0.31000000000000005"/><circle cx="684" cy="47" r="4" fill="#15191d" opacity="0.34"/><circle cx="275" cy="137" r="4" fill="#15191d" opacity="0.33"/><circle cx="70" cy="211" r="4" fill="#15191d" opacity="0.36000000000000004"/><circle cx="377" cy="300" r="4" fill="#15191d" opacity="0.35000000000000003"/><circle cx="172" cy="375" r="4" fill="#15191d" opacity="0.38"/>
  <rect x="76" y="58" width="648" height="304" rx="30" fill="#d95a35"/><path d="M100 210h600M400 58v304" stroke="#fffaf4" stroke-width="8" opacity=".8"/><circle cx="400" cy="210" r="73" fill="none" stroke="#fffaf4" stroke-width="8" opacity=".8"/><circle cx="432" cy="222" r="42" fill="#15191d"/><path d="M390 222h84M432 180v84" stroke="#f6bc42" stroke-width="5" fill="none"/>
</svg>
