<svg xmlns="http://www.w3.org/2000/svg" viewBox="0 0 800 420" role="img" aria-label="Ilustracion propia de cancha de baloncesto para esta pregunta">
  <defs>
    <linearGradient id="bg" x1="0" x2="1" y1="0" y2="1">
      <stop stop-color="#fff1df"/>
      <stop offset="1" stop-color="#fff1df" stop-opacity="0.22"/>
    </linearGradient>
  </defs>
  <rect width="800" height="420" fill="url(#bg)"/>
  <circle cx="321" cy="198" r="74" fill="#f6bc42" opacity="0.13"/>
  <circle cx="274" cy="150" r="115" fill="#d95a35" opacity="0.16"/>
  <circle cx="260" cy="190" r="3" fill="#15191d" opacity="0.72"/><circle cx="567" cy="280" r="3" fill="#15191d" opacity="0.71"/><circle cx="362" cy="354" r="3" fill="#15191d" opacity="0.29000000000000004"/><circle cx="669" cy="101" r="3" fill="#15191d" opacity="0.28"/><circle cx="464" cy="176" r="2" fill="#15191d" opacity="0.31000000000000005"/><circle cx="55" cy="265" r="2" fill="#15191d" opacity="0.30000000000000004"/><circle cx="566" cy="340" r="2" fill="#15191d" opacity="0.33"/><circle cx="157" cy="87" r="2" fill="#15191d" opacity="0.32"/><circle cx="568" cy="220" r="3" fill="#15191d" opacity="0.64"/>
  <rect x="76" y="58" width="648" height="304" rx="30" fill="#d95a35"/><path d="M100 210h600M400 58v304" stroke="#fffaf4" stroke-width="8" opacity=".8"/><circle cx="400" cy="210" r="52" fill="none" stroke="#fffaf4" stroke-width="8" opacity=".8"/><circle cx="180" cy="150" r="42" fill="#15191d"/><path d="M138 150h84M180 108v84" stroke="#f6bc42" stroke-width="5" fill="none"/>
</svg>
