<svg xmlns="http://www.w3.org/2000/svg" viewBox="0 0 800 420" role="img" aria-label="Ilustracion propia de videojuegos para esta pregunta">
  <defs>
    <linearGradient id="bg" x1="0" x2="1" y1="0" y2="1">
      <stop stop-color="#f4efff"/>
      <stop offset="1" stop-color="#f4efff" stop-opacity="0.22"/>
    </linearGradient>
  </defs>
  <rect width="800" height="420" fill="url(#bg)"/>
  <circle cx="611" cy="206" r="108" fill="#15191d" opacity="0.13"/>
  <circle cx="610" cy="80" r="89" fill="#9b5cff" opacity="0.16"/>
  <circle cx="417" cy="138" r="2" fill="#12b7a6" opacity="0.6200000000000001"/><circle cx="110" cy="49" r="2" fill="#12b7a6" opacity="0.63"/><circle cx="315" cy="316" r="2" fill="#12b7a6" opacity="0.6000000000000001"/><circle cx="724" cy="227" r="2" fill="#12b7a6" opacity="0.6100000000000001"/><circle cx="621" cy="123" r="2" fill="#12b7a6" opacity="0.66"/><circle cx="314" cy="376" r="2" fill="#12b7a6" opacity="0.67"/><circle cx="519" cy="302" r="2" fill="#12b7a6" opacity="0.64"/><circle cx="212" cy="212" r="2" fill="#12b7a6" opacity="0.65"/><circle cx="109" cy="109" r="2" fill="#12b7a6" opacity="0.7"/>
  <path d="M226 160c40-54 310-54 348 0l58 104c24 44-12 86-58 64l-74-36H300l-74 36c-46 22-82-20-58-64z" fill="#15191d"/><path d="M284 232h82M325 191v82" stroke="#fff" stroke-width="20" stroke-linecap="round"/><circle cx="494" cy="218" r="20" fill="#12b7a6"/><circle cx="548" cy="252" r="20" fill="#fffaf4"/><circle cx="456" cy="252" r="20" fill="#12b7a6"/>
</svg>
