<svg xmlns="http://www.w3.org/2000/svg" viewBox="0 0 800 420" role="img" aria-label="Ilustracion propia de videojuegos para esta pregunta">
  <defs>
    <linearGradient id="bg" x1="0" x2="1" y1="0" y2="1">
      <stop stop-color="#f4efff"/>
      <stop offset="1" stop-color="#f4efff" stop-opacity="0.22"/>
    </linearGradient>
  </defs>
  <rect width="800" height="420" fill="url(#bg)"/>
  <circle cx="257" cy="114" r="82" fill="#15191d" opacity="0.13"/>
  <circle cx="641" cy="247" r="86" fill="#9b5cff" opacity="0.16"/>
  <circle cx="644" cy="209" r="4" fill="#12b7a6" opacity="0.30000000000000004"/><circle cx="235" cy="298" r="4" fill="#12b7a6" opacity="0.29000000000000004"/><circle cx="746" cy="372" r="4" fill="#12b7a6" opacity="0.32"/><circle cx="337" cy="120" r="4" fill="#12b7a6" opacity="0.31000000000000005"/><circle cx="132" cy="194" r="4" fill="#12b7a6" opacity="0.34"/><circle cx="439" cy="283" r="4" fill="#12b7a6" opacity="0.33"/><circle cx="234" cy="358" r="4" fill="#12b7a6" opacity="0.36000000000000004"/><circle cx="541" cy="105" r="4" fill="#12b7a6" opacity="0.35000000000000003"/><circle cx="236" cy="238" r="4" fill="#12b7a6" opacity="0.67"/>
  <path d="M226 160c40-54 310-54 348 0l58 104c24 44-12 86-58 64l-74-36H300l-74 36c-46 22-82-20-58-64z" fill="#15191d"/><path d="M284 232h82M325 191v82" stroke="#fff" stroke-width="20" stroke-linecap="round"/><circle cx="506" cy="218" r="20" fill="#12b7a6"/><circle cx="558" cy="252" r="20" fill="#fffaf4"/><circle cx="456" cy="252" r="20" fill="#12b7a6"/>
</svg>
