<svg xmlns="http://www.w3.org/2000/svg" viewBox="0 0 800 420" role="img" aria-label="Ilustracion propia de oceano y olas para esta pregunta">
  <defs>
    <linearGradient id="bg" x1="0" x2="1" y1="0" y2="1">
      <stop stop-color="#dff8ff"/>
      <stop offset="1" stop-color="#315be8" stop-opacity="0.22"/>
    </linearGradient>
  </defs>
  <rect width="800" height="420" fill="url(#bg)"/>
  <circle cx="689" cy="310" r="115" fill="#12b7a6" opacity="0.13"/>
  <circle cx="170" cy="128" r="120" fill="#315be8" opacity="0.16"/>
  <circle cx="338" cy="270" r="5" fill="#fffaf4" opacity="0.65"/><circle cx="645" cy="359" r="5" fill="#fffaf4" opacity="0.64"/><circle cx="236" cy="107" r="5" fill="#fffaf4" opacity="0.63"/><circle cx="543" cy="196" r="5" fill="#fffaf4" opacity="0.6200000000000001"/><circle cx="542" cy="256" r="5" fill="#fffaf4" opacity="0.69"/><circle cx="133" cy="345" r="5" fill="#fffaf4" opacity="0.68"/><circle cx="440" cy="92" r="5" fill="#fffaf4" opacity="0.67"/><circle cx="747" cy="181" r="5" fill="#fffaf4" opacity="0.66"/><circle cx="746" cy="241" r="5" fill="#fffaf4" opacity="0.28"/>
  <path d="M0 240c88-42 144 42 232 0s144 42 232 0 144 42 232 0 144 42 232 0v180H0z" fill="#fff" opacity=".34"/><path d="M0 316c88-42 144 42 232 0s144 42 232 0 144 42 232 0 144 42 232 0" fill="none" stroke="#fff" stroke-width="18" opacity=".62"/><path d="M142 174c82-44 170-44 252 0" fill="none" stroke="#fff" stroke-width="10" opacity=".45" stroke-linecap="round"/>
</svg>
