<svg xmlns="http://www.w3.org/2000/svg" viewBox="0 0 800 420" role="img" aria-label="Ilustracion propia de oceano y olas para esta pregunta">
  <defs>
    <linearGradient id="bg" x1="0" x2="1" y1="0" y2="1">
      <stop stop-color="#dff8ff"/>
      <stop offset="1" stop-color="#fffaf4" stop-opacity="0.22"/>
    </linearGradient>
  </defs>
  <rect width="800" height="420" fill="url(#bg)"/>
  <circle cx="249" cy="209" r="115" fill="#12b7a6" opacity="0.13"/>
  <circle cx="340" cy="80" r="120" fill="#315be8" opacity="0.16"/>
  <circle cx="527" cy="340" r="4" fill="#fffaf4" opacity="0.34"/><circle cx="220" cy="250" r="4" fill="#fffaf4" opacity="0.35000000000000003"/><circle cx="629" cy="161" r="4" fill="#fffaf4" opacity="0.36000000000000004"/><circle cx="322" cy="72" r="4" fill="#fffaf4" opacity="0.37"/><circle cx="323" cy="354" r="4" fill="#fffaf4" opacity="0.30000000000000004"/><circle cx="732" cy="265" r="4" fill="#fffaf4" opacity="0.31000000000000005"/><circle cx="425" cy="176" r="4" fill="#fffaf4" opacity="0.32"/><circle cx="118" cy="87" r="4" fill="#fffaf4" opacity="0.33"/><circle cx="219" cy="310" r="4" fill="#fffaf4" opacity="0.42000000000000004"/>
  <path d="M0 240c88-42 144 42 232 0s144 42 232 0 144 42 232 0 144 42 232 0v180H0z" fill="#fff" opacity=".34"/><path d="M0 316c88-42 144 42 232 0s144 42 232 0 144 42 232 0 144 42 232 0" fill="none" stroke="#fff" stroke-width="18" opacity=".62"/><path d="M142 174c82-44 170-44 252 0" fill="none" stroke="#fff" stroke-width="10" opacity=".45" stroke-linecap="round"/>
</svg>
