<svg xmlns="http://www.w3.org/2000/svg" viewBox="0 0 800 420" role="img" aria-label="Ilustracion propia de oceano y olas para esta pregunta">
  <defs>
    <linearGradient id="bg" x1="0" x2="1" y1="0" y2="1">
      <stop stop-color="#dff8ff"/>
      <stop offset="1" stop-color="#12b7a6" stop-opacity="0.22"/>
    </linearGradient>
  </defs>
  <rect width="800" height="420" fill="url(#bg)"/>
  <circle cx="494" cy="116" r="76" fill="#12b7a6" opacity="0.13"/>
  <circle cx="145" cy="247" r="115" fill="#315be8" opacity="0.16"/>
  <circle cx="124" cy="235" r="2" fill="#fffaf4" opacity="0.5800000000000001"/><circle cx="431" cy="324" r="2" fill="#fffaf4" opacity="0.5700000000000001"/><circle cx="226" cy="56" r="2" fill="#fffaf4" opacity="0.6000000000000001"/><circle cx="533" cy="145" r="2" fill="#fffaf4" opacity="0.5900000000000001"/><circle cx="328" cy="220" r="5" fill="#fffaf4" opacity="0.6200000000000001"/><circle cx="635" cy="309" r="5" fill="#fffaf4" opacity="0.6100000000000001"/><circle cx="430" cy="42" r="5" fill="#fffaf4" opacity="0.64"/><circle cx="737" cy="131" r="5" fill="#fffaf4" opacity="0.63"/><circle cx="532" cy="205" r="5" fill="#fffaf4" opacity="0.66"/>
  <path d="M0 240c88-42 144 42 232 0s144 42 232 0 144 42 232 0 144 42 232 0v180H0z" fill="#fff" opacity=".34"/><path d="M0 316c88-42 144 42 232 0s144 42 232 0 144 42 232 0 144 42 232 0" fill="none" stroke="#fff" stroke-width="18" opacity=".62"/><path d="M142 174c82-44 170-44 252 0" fill="none" stroke="#fff" stroke-width="10" opacity=".45" stroke-linecap="round"/>
</svg>
