<svg xmlns="http://www.w3.org/2000/svg" viewBox="0 0 800 420" role="img" aria-label="Ilustracion propia de oceano y olas para esta pregunta">
  <defs>
    <linearGradient id="bg" x1="0" x2="1" y1="0" y2="1">
      <stop stop-color="#dff8ff"/>
      <stop offset="1" stop-color="#12b7a6" stop-opacity="0.22"/>
    </linearGradient>
  </defs>
  <rect width="800" height="420" fill="url(#bg)"/>
  <circle cx="592" cy="117" r="110" fill="#12b7a6" opacity="0.13"/>
  <circle cx="383" cy="140" r="69" fill="#315be8" opacity="0.16"/>
  <circle cx="686" cy="262" r="5" fill="#fffaf4" opacity="0.37"/><circle cx="277" cy="351" r="5" fill="#fffaf4" opacity="0.36000000000000004"/><circle cx="584" cy="98" r="5" fill="#fffaf4" opacity="0.35000000000000003"/><circle cx="175" cy="187" r="5" fill="#fffaf4" opacity="0.34"/><circle cx="482" cy="276" r="5" fill="#fffaf4" opacity="0.33"/><circle cx="73" cy="365" r="5" fill="#fffaf4" opacity="0.32"/><circle cx="380" cy="113" r="5" fill="#fffaf4" opacity="0.31000000000000005"/><circle cx="687" cy="202" r="5" fill="#fffaf4" opacity="0.30000000000000004"/><circle cx="278" cy="291" r="5" fill="#fffaf4" opacity="0.29000000000000004"/>
  <path d="M0 240c88-42 144 42 232 0s144 42 232 0 144 42 232 0 144 42 232 0v180H0z" fill="#fff" opacity=".34"/><path d="M0 296c88-42 144 42 232 0s144 42 232 0 144 42 232 0 144 42 232 0" fill="none" stroke="#fff" stroke-width="18" opacity=".62"/><path d="M142 174c82-44 170-44 252 0" fill="none" stroke="#fff" stroke-width="10" opacity=".45" stroke-linecap="round"/>
</svg>
