<svg xmlns="http://www.w3.org/2000/svg" viewBox="0 0 800 420" role="img" aria-label="Ilustracion propia de oceano y olas para esta pregunta">
  <defs>
    <linearGradient id="bg" x1="0" x2="1" y1="0" y2="1">
      <stop stop-color="#dff8ff"/>
      <stop offset="1" stop-color="#315be8" stop-opacity="0.22"/>
    </linearGradient>
  </defs>
  <rect width="800" height="420" fill="url(#bg)"/>
  <circle cx="676" cy="141" r="111" fill="#12b7a6" opacity="0.13"/>
  <circle cx="318" cy="143" r="79" fill="#315be8" opacity="0.16"/>
  <circle cx="436" cy="170" r="4" fill="#fffaf4" opacity="0.37"/><circle cx="743" cy="259" r="4" fill="#fffaf4" opacity="0.36000000000000004"/><circle cx="538" cy="333" r="4" fill="#fffaf4" opacity="0.39"/><circle cx="129" cy="80" r="4" fill="#fffaf4" opacity="0.38"/><circle cx="640" cy="155" r="4" fill="#fffaf4" opacity="0.41000000000000003"/><circle cx="231" cy="244" r="4" fill="#fffaf4" opacity="0.4"/><circle cx="742" cy="319" r="4" fill="#fffaf4" opacity="0.43000000000000005"/><circle cx="333" cy="66" r="4" fill="#fffaf4" opacity="0.42000000000000004"/><circle cx="744" cy="199" r="5" fill="#fffaf4" opacity="0.29000000000000004"/>
  <path d="M0 240c88-42 144 42 232 0s144 42 232 0 144 42 232 0 144 42 232 0v180H0z" fill="#fff" opacity=".34"/><path d="M0 286c88-42 144 42 232 0s144 42 232 0 144 42 232 0 144 42 232 0" fill="none" stroke="#fff" stroke-width="18" opacity=".62"/><path d="M142 174c82-44 170-44 252 0" fill="none" stroke="#fff" stroke-width="10" opacity=".45" stroke-linecap="round"/>
</svg>
