<svg xmlns="http://www.w3.org/2000/svg" viewBox="0 0 800 420" role="img" aria-label="Ilustracion propia de oceano y olas para esta pregunta">
  <defs>
    <linearGradient id="bg" x1="0" x2="1" y1="0" y2="1">
      <stop stop-color="#dff8ff"/>
      <stop offset="1" stop-color="#12b7a6" stop-opacity="0.22"/>
    </linearGradient>
  </defs>
  <rect width="800" height="420" fill="url(#bg)"/>
  <circle cx="362" cy="76" r="106" fill="#12b7a6" opacity="0.13"/>
  <circle cx="579" cy="314" r="129" fill="#315be8" opacity="0.16"/>
  <circle cx="709" cy="171" r="3" fill="#fffaf4" opacity="0.32"/><circle cx="402" cy="82" r="3" fill="#fffaf4" opacity="0.33"/><circle cx="607" cy="349" r="3" fill="#fffaf4" opacity="0.30000000000000004"/><circle cx="300" cy="260" r="3" fill="#fffaf4" opacity="0.31000000000000005"/><circle cx="197" cy="156" r="3" fill="#fffaf4" opacity="0.36000000000000004"/><circle cx="606" cy="67" r="3" fill="#fffaf4" opacity="0.37"/><circle cx="95" cy="334" r="3" fill="#fffaf4" opacity="0.34"/><circle cx="504" cy="245" r="3" fill="#fffaf4" opacity="0.35000000000000003"/><circle cx="301" cy="200" r="3" fill="#fffaf4" opacity="0.69"/>
  <path d="M0 240c88-42 144 42 232 0s144 42 232 0 144 42 232 0 144 42 232 0v180H0z" fill="#fff" opacity=".34"/><path d="M0 296c88-42 144 42 232 0s144 42 232 0 144 42 232 0 144 42 232 0" fill="none" stroke="#fff" stroke-width="18" opacity=".62"/><path d="M142 174c82-44 170-44 252 0" fill="none" stroke="#fff" stroke-width="10" opacity=".45" stroke-linecap="round"/>
</svg>
