<svg xmlns="http://www.w3.org/2000/svg" viewBox="0 0 800 420" role="img" aria-label="Ilustracion propia de oceano y olas para esta pregunta">
  <defs>
    <linearGradient id="bg" x1="0" x2="1" y1="0" y2="1">
      <stop stop-color="#dff8ff"/>
      <stop offset="1" stop-color="#315be8" stop-opacity="0.22"/>
    </linearGradient>
  </defs>
  <rect width="800" height="420" fill="url(#bg)"/>
  <circle cx="643" cy="259" r="107" fill="#12b7a6" opacity="0.13"/>
  <circle cx="614" cy="122" r="109" fill="#315be8" opacity="0.16"/>
  <circle cx="386" cy="224" r="5" fill="#fffaf4" opacity="0.33"/><circle cx="693" cy="313" r="5" fill="#fffaf4" opacity="0.32"/><circle cx="284" cy="60" r="5" fill="#fffaf4" opacity="0.31000000000000005"/><circle cx="591" cy="150" r="5" fill="#fffaf4" opacity="0.30000000000000004"/><circle cx="182" cy="239" r="5" fill="#fffaf4" opacity="0.29000000000000004"/><circle cx="489" cy="328" r="5" fill="#fffaf4" opacity="0.28"/><circle cx="80" cy="75" r="5" fill="#fffaf4" opacity="0.72"/><circle cx="387" cy="164" r="5" fill="#fffaf4" opacity="0.71"/><circle cx="78" cy="195" r="5" fill="#fffaf4" opacity="0.41000000000000003"/>
  <path d="M0 240c88-42 144 42 232 0s144 42 232 0 144 42 232 0 144 42 232 0v180H0z" fill="#fff" opacity=".34"/><path d="M0 306c88-42 144 42 232 0s144 42 232 0 144 42 232 0 144 42 232 0" fill="none" stroke="#fff" stroke-width="18" opacity=".62"/><path d="M142 174c82-44 170-44 252 0" fill="none" stroke="#fff" stroke-width="10" opacity=".45" stroke-linecap="round"/>
</svg>
