<svg xmlns="http://www.w3.org/2000/svg" viewBox="0 0 800 420" role="img" aria-label="Ilustracion propia de oceano y olas para esta pregunta">
  <defs>
    <linearGradient id="bg" x1="0" x2="1" y1="0" y2="1">
      <stop stop-color="#dff8ff"/>
      <stop offset="1" stop-color="#315be8" stop-opacity="0.22"/>
    </linearGradient>
  </defs>
  <rect width="800" height="420" fill="url(#bg)"/>
  <circle cx="268" cy="210" r="113" fill="#12b7a6" opacity="0.13"/>
  <circle cx="192" cy="330" r="110" fill="#315be8" opacity="0.16"/>
  <circle cx="731" cy="111" r="5" fill="#fffaf4" opacity="0.28"/><circle cx="424" cy="364" r="5" fill="#fffaf4" opacity="0.29000000000000004"/><circle cx="117" cy="275" r="5" fill="#fffaf4" opacity="0.30000000000000004"/><circle cx="526" cy="186" r="5" fill="#fffaf4" opacity="0.31000000000000005"/><circle cx="527" cy="126" r="2" fill="#fffaf4" opacity="0.69"/><circle cx="220" cy="36" r="2" fill="#fffaf4" opacity="0.7"/><circle cx="629" cy="289" r="2" fill="#fffaf4" opacity="0.71"/><circle cx="322" cy="200" r="2" fill="#fffaf4" opacity="0.72"/><circle cx="323" cy="140" r="2" fill="#fffaf4" opacity="0.65"/>
  <path d="M0 240c88-42 144 42 232 0s144 42 232 0 144 42 232 0 144 42 232 0v180H0z" fill="#fff" opacity=".34"/><path d="M0 306c88-42 144 42 232 0s144 42 232 0 144 42 232 0 144 42 232 0" fill="none" stroke="#fff" stroke-width="18" opacity=".62"/><path d="M142 174c82-44 170-44 252 0" fill="none" stroke="#fff" stroke-width="10" opacity=".45" stroke-linecap="round"/>
</svg>
