<svg xmlns="http://www.w3.org/2000/svg" viewBox="0 0 800 420" role="img" aria-label="Ilustracion propia de oceano y olas para esta pregunta">
  <defs>
    <linearGradient id="bg" x1="0" x2="1" y1="0" y2="1">
      <stop stop-color="#dff8ff"/>
      <stop offset="1" stop-color="#dff8ff" stop-opacity="0.22"/>
    </linearGradient>
  </defs>
  <rect width="800" height="420" fill="url(#bg)"/>
  <circle cx="612" cy="333" r="64" fill="#12b7a6" opacity="0.13"/>
  <circle cx="310" cy="131" r="134" fill="#315be8" opacity="0.16"/>
  <circle cx="118" cy="254" r="5" fill="#fffaf4" opacity="0.28"/><circle cx="425" cy="343" r="5" fill="#fffaf4" opacity="0.72"/><circle cx="732" cy="90" r="5" fill="#fffaf4" opacity="0.71"/><circle cx="323" cy="179" r="5" fill="#fffaf4" opacity="0.7"/><circle cx="322" cy="239" r="5" fill="#fffaf4" opacity="0.32"/><circle cx="629" cy="329" r="5" fill="#fffaf4" opacity="0.31000000000000005"/><circle cx="220" cy="76" r="5" fill="#fffaf4" opacity="0.30000000000000004"/><circle cx="527" cy="165" r="5" fill="#fffaf4" opacity="0.29000000000000004"/><circle cx="526" cy="225" r="5" fill="#fffaf4" opacity="0.36000000000000004"/>
  <path d="M0 240c88-42 144 42 232 0s144 42 232 0 144 42 232 0 144 42 232 0v180H0z" fill="#fff" opacity=".34"/><path d="M0 296c88-42 144 42 232 0s144 42 232 0 144 42 232 0 144 42 232 0" fill="none" stroke="#fff" stroke-width="18" opacity=".62"/><path d="M142 174c82-44 170-44 252 0" fill="none" stroke="#fff" stroke-width="10" opacity=".45" stroke-linecap="round"/>
</svg>
