<svg xmlns="http://www.w3.org/2000/svg" viewBox="0 0 800 420" role="img" aria-label="Ilustracion propia de oceano y olas para esta pregunta">
  <defs>
    <linearGradient id="bg" x1="0" x2="1" y1="0" y2="1">
      <stop stop-color="#dff8ff"/>
      <stop offset="1" stop-color="#dff8ff" stop-opacity="0.22"/>
    </linearGradient>
  </defs>
  <rect width="800" height="420" fill="url(#bg)"/>
  <circle cx="682" cy="307" r="68" fill="#12b7a6" opacity="0.13"/>
  <circle cx="694" cy="271" r="94" fill="#315be8" opacity="0.16"/>
  <circle cx="346" cy="291" r="5" fill="#fffaf4" opacity="0.52"/><circle cx="653" cy="38" r="5" fill="#fffaf4" opacity="0.51"/><circle cx="244" cy="127" r="5" fill="#fffaf4" opacity="0.5"/><circle cx="551" cy="216" r="5" fill="#fffaf4" opacity="0.49"/><circle cx="550" cy="276" r="5" fill="#fffaf4" opacity="0.56"/><circle cx="141" cy="365" r="5" fill="#fffaf4" opacity="0.55"/><circle cx="448" cy="112" r="5" fill="#fffaf4" opacity="0.54"/><circle cx="755" cy="202" r="5" fill="#fffaf4" opacity="0.53"/><circle cx="754" cy="262" r="4" fill="#fffaf4" opacity="0.6000000000000001"/>
  <path d="M0 240c88-42 144 42 232 0s144 42 232 0 144 42 232 0 144 42 232 0v180H0z" fill="#fff" opacity=".34"/><path d="M0 296c88-42 144 42 232 0s144 42 232 0 144 42 232 0 144 42 232 0" fill="none" stroke="#fff" stroke-width="18" opacity=".62"/><path d="M142 174c82-44 170-44 252 0" fill="none" stroke="#fff" stroke-width="10" opacity=".45" stroke-linecap="round"/>
</svg>
