<svg xmlns="http://www.w3.org/2000/svg" viewBox="0 0 800 420" role="img" aria-label="Ilustracion propia de oceano y olas para esta pregunta">
  <defs>
    <linearGradient id="bg" x1="0" x2="1" y1="0" y2="1">
      <stop stop-color="#dff8ff"/>
      <stop offset="1" stop-color="#315be8" stop-opacity="0.22"/>
    </linearGradient>
  </defs>
  <rect width="800" height="420" fill="url(#bg)"/>
  <circle cx="439" cy="137" r="87" fill="#12b7a6" opacity="0.13"/>
  <circle cx="438" cy="107" r="86" fill="#315be8" opacity="0.16"/>
  <circle cx="515" cy="88" r="3" fill="#fffaf4" opacity="0.52"/><circle cx="208" cy="340" r="3" fill="#fffaf4" opacity="0.53"/><circle cx="617" cy="251" r="3" fill="#fffaf4" opacity="0.54"/><circle cx="310" cy="162" r="3" fill="#fffaf4" opacity="0.55"/><circle cx="311" cy="102" r="3" fill="#fffaf4" opacity="0.48000000000000004"/><circle cx="720" cy="355" r="3" fill="#fffaf4" opacity="0.49"/><circle cx="413" cy="266" r="3" fill="#fffaf4" opacity="0.5"/><circle cx="106" cy="177" r="3" fill="#fffaf4" opacity="0.51"/><circle cx="207" cy="58" r="3" fill="#fffaf4" opacity="0.6000000000000001"/>
  <path d="M0 240c88-42 144 42 232 0s144 42 232 0 144 42 232 0 144 42 232 0v180H0z" fill="#fff" opacity=".34"/><path d="M0 316c88-42 144 42 232 0s144 42 232 0 144 42 232 0 144 42 232 0" fill="none" stroke="#fff" stroke-width="18" opacity=".62"/><path d="M142 174c82-44 170-44 252 0" fill="none" stroke="#fff" stroke-width="10" opacity=".45" stroke-linecap="round"/>
</svg>
