<svg xmlns="http://www.w3.org/2000/svg" viewBox="0 0 800 420" role="img" aria-label="Ilustracion propia de oceano y olas para esta pregunta">
  <defs>
    <linearGradient id="bg" x1="0" x2="1" y1="0" y2="1">
      <stop stop-color="#dff8ff"/>
      <stop offset="1" stop-color="#315be8" stop-opacity="0.22"/>
    </linearGradient>
  </defs>
  <rect width="800" height="420" fill="url(#bg)"/>
  <circle cx="446" cy="171" r="97" fill="#12b7a6" opacity="0.13"/>
  <circle cx="364" cy="111" r="88" fill="#315be8" opacity="0.16"/>
  <circle cx="289" cy="88" r="5" fill="#fffaf4" opacity="0.45000000000000007"/><circle cx="698" cy="341" r="5" fill="#fffaf4" opacity="0.46"/><circle cx="187" cy="267" r="5" fill="#fffaf4" opacity="0.43000000000000005"/><circle cx="596" cy="178" r="5" fill="#fffaf4" opacity="0.44000000000000006"/><circle cx="493" cy="74" r="5" fill="#fffaf4" opacity="0.49"/><circle cx="186" cy="327" r="5" fill="#fffaf4" opacity="0.5"/><circle cx="391" cy="252" r="5" fill="#fffaf4" opacity="0.47000000000000003"/><circle cx="84" cy="163" r="5" fill="#fffaf4" opacity="0.48000000000000004"/><circle cx="597" cy="118" r="5" fill="#fffaf4" opacity="0.37"/>
  <path d="M0 240c88-42 144 42 232 0s144 42 232 0 144 42 232 0 144 42 232 0v180H0z" fill="#fff" opacity=".34"/><path d="M0 286c88-42 144 42 232 0s144 42 232 0 144 42 232 0 144 42 232 0" fill="none" stroke="#fff" stroke-width="18" opacity=".62"/><path d="M142 174c82-44 170-44 252 0" fill="none" stroke="#fff" stroke-width="10" opacity=".45" stroke-linecap="round"/>
</svg>
