<svg xmlns="http://www.w3.org/2000/svg" viewBox="0 0 800 420" role="img" aria-label="Ilustracion propia de oceano y olas para esta pregunta">
  <defs>
    <linearGradient id="bg" x1="0" x2="1" y1="0" y2="1">
      <stop stop-color="#dff8ff"/>
      <stop offset="1" stop-color="#315be8" stop-opacity="0.22"/>
    </linearGradient>
  </defs>
  <rect width="800" height="420" fill="url(#bg)"/>
  <circle cx="671" cy="217" r="85" fill="#12b7a6" opacity="0.13"/>
  <circle cx="167" cy="295" r="76" fill="#315be8" opacity="0.16"/>
  <circle cx="246" cy="159" r="5" fill="#fffaf4" opacity="0.32"/><circle cx="553" cy="248" r="5" fill="#fffaf4" opacity="0.31000000000000005"/><circle cx="144" cy="337" r="5" fill="#fffaf4" opacity="0.30000000000000004"/><circle cx="451" cy="84" r="2" fill="#fffaf4" opacity="0.29000000000000004"/><circle cx="450" cy="144" r="5" fill="#fffaf4" opacity="0.36000000000000004"/><circle cx="757" cy="233" r="5" fill="#fffaf4" opacity="0.35000000000000003"/><circle cx="348" cy="322" r="5" fill="#fffaf4" opacity="0.34"/><circle cx="655" cy="70" r="5" fill="#fffaf4" opacity="0.33"/><circle cx="554" cy="188" r="2" fill="#fffaf4" opacity="0.69"/>
  <path d="M0 240c88-42 144 42 232 0s144 42 232 0 144 42 232 0 144 42 232 0v180H0z" fill="#fff" opacity=".34"/><path d="M0 286c88-42 144 42 232 0s144 42 232 0 144 42 232 0 144 42 232 0" fill="none" stroke="#fff" stroke-width="18" opacity=".62"/><path d="M142 174c82-44 170-44 252 0" fill="none" stroke="#fff" stroke-width="10" opacity=".45" stroke-linecap="round"/>
</svg>
