<svg xmlns="http://www.w3.org/2000/svg" viewBox="0 0 800 420" role="img" aria-label="Ilustracion propia de oceano y olas para esta pregunta">
  <defs>
    <linearGradient id="bg" x1="0" x2="1" y1="0" y2="1">
      <stop stop-color="#dff8ff"/>
      <stop offset="1" stop-color="#315be8" stop-opacity="0.22"/>
    </linearGradient>
  </defs>
  <rect width="800" height="420" fill="url(#bg)"/>
  <circle cx="120" cy="270" r="83" fill="#12b7a6" opacity="0.13"/>
  <circle cx="249" cy="195" r="126" fill="#315be8" opacity="0.16"/>
  <circle cx="686" cy="340" r="3" fill="#fffaf4" opacity="0.51"/><circle cx="277" cy="87" r="3" fill="#fffaf4" opacity="0.5"/><circle cx="584" cy="176" r="3" fill="#fffaf4" opacity="0.49"/><circle cx="175" cy="265" r="3" fill="#fffaf4" opacity="0.48000000000000004"/><circle cx="482" cy="354" r="3" fill="#fffaf4" opacity="0.47000000000000003"/><circle cx="73" cy="101" r="3" fill="#fffaf4" opacity="0.46"/><circle cx="380" cy="190" r="3" fill="#fffaf4" opacity="0.45000000000000007"/><circle cx="687" cy="280" r="3" fill="#fffaf4" opacity="0.44000000000000006"/><circle cx="278" cy="369" r="3" fill="#fffaf4" opacity="0.43000000000000005"/>
  <path d="M0 240c88-42 144 42 232 0s144 42 232 0 144 42 232 0 144 42 232 0v180H0z" fill="#fff" opacity=".34"/><path d="M0 326c88-42 144 42 232 0s144 42 232 0 144 42 232 0 144 42 232 0" fill="none" stroke="#fff" stroke-width="18" opacity=".62"/><path d="M142 174c82-44 170-44 252 0" fill="none" stroke="#fff" stroke-width="10" opacity=".45" stroke-linecap="round"/>
</svg>
