<svg xmlns="http://www.w3.org/2000/svg" viewBox="0 0 800 420" role="img" aria-label="Ilustracion propia de oceano y olas para esta pregunta">
  <defs>
    <linearGradient id="bg" x1="0" x2="1" y1="0" y2="1">
      <stop stop-color="#dff8ff"/>
      <stop offset="1" stop-color="#315be8" stop-opacity="0.22"/>
    </linearGradient>
  </defs>
  <rect width="800" height="420" fill="url(#bg)"/>
  <circle cx="129" cy="72" r="125" fill="#12b7a6" opacity="0.13"/>
  <circle cx="475" cy="313" r="81" fill="#315be8" opacity="0.16"/>
  <circle cx="176" cy="350" r="4" fill="#fffaf4" opacity="0.53"/><circle cx="483" cy="98" r="4" fill="#fffaf4" opacity="0.52"/><circle cx="278" cy="172" r="4" fill="#fffaf4" opacity="0.55"/><circle cx="585" cy="261" r="4" fill="#fffaf4" opacity="0.54"/><circle cx="204" cy="237" r="4" fill="#fffaf4" opacity="0.63"/><circle cx="511" cy="326" r="4" fill="#fffaf4" opacity="0.6200000000000001"/><circle cx="74" cy="187" r="4" fill="#fffaf4" opacity="0.51"/><circle cx="613" cy="148" r="4" fill="#fffaf4" opacity="0.64"/><circle cx="584" cy="321" r="3" fill="#fffaf4" opacity="0.6100000000000001"/>
  <path d="M0 240c88-42 144 42 232 0s144 42 232 0 144 42 232 0 144 42 232 0v180H0z" fill="#fff" opacity=".34"/><path d="M0 316c88-42 144 42 232 0s144 42 232 0 144 42 232 0 144 42 232 0" fill="none" stroke="#fff" stroke-width="18" opacity=".62"/><path d="M142 174c82-44 170-44 252 0" fill="none" stroke="#fff" stroke-width="10" opacity=".45" stroke-linecap="round"/>
</svg>
