<svg xmlns="http://www.w3.org/2000/svg" viewBox="0 0 800 420" role="img" aria-label="Ilustracion propia de oceano y olas para esta pregunta">
  <defs>
    <linearGradient id="bg" x1="0" x2="1" y1="0" y2="1">
      <stop stop-color="#dff8ff"/>
      <stop offset="1" stop-color="#12b7a6" stop-opacity="0.22"/>
    </linearGradient>
  </defs>
  <rect width="800" height="420" fill="url(#bg)"/>
  <circle cx="479" cy="333" r="116" fill="#12b7a6" opacity="0.13"/>
  <circle cx="668" cy="310" r="70" fill="#315be8" opacity="0.16"/>
  <circle cx="614" cy="102" r="4" fill="#fffaf4" opacity="0.53"/><circle cx="205" cy="191" r="4" fill="#fffaf4" opacity="0.52"/><circle cx="512" cy="280" r="4" fill="#fffaf4" opacity="0.51"/><circle cx="103" cy="369" r="4" fill="#fffaf4" opacity="0.5"/><circle cx="410" cy="117" r="4" fill="#fffaf4" opacity="0.49"/><circle cx="717" cy="206" r="4" fill="#fffaf4" opacity="0.48000000000000004"/><circle cx="308" cy="295" r="4" fill="#fffaf4" opacity="0.47000000000000003"/><circle cx="615" cy="42" r="4" fill="#fffaf4" opacity="0.46"/><circle cx="206" cy="131" r="4" fill="#fffaf4" opacity="0.45000000000000007"/>
  <path d="M0 240c88-42 144 42 232 0s144 42 232 0 144 42 232 0 144 42 232 0v180H0z" fill="#fff" opacity=".34"/><path d="M0 316c88-42 144 42 232 0s144 42 232 0 144 42 232 0 144 42 232 0" fill="none" stroke="#fff" stroke-width="18" opacity=".62"/><path d="M142 174c82-44 170-44 252 0" fill="none" stroke="#fff" stroke-width="10" opacity=".45" stroke-linecap="round"/>
</svg>
