<svg xmlns="http://www.w3.org/2000/svg" viewBox="0 0 800 420" role="img" aria-label="Ilustracion propia de oceano y olas para esta pregunta">
  <defs>
    <linearGradient id="bg" x1="0" x2="1" y1="0" y2="1">
      <stop stop-color="#dff8ff"/>
      <stop offset="1" stop-color="#dff8ff" stop-opacity="0.22"/>
    </linearGradient>
  </defs>
  <rect width="800" height="420" fill="url(#bg)"/>
  <circle cx="250" cy="110" r="78" fill="#12b7a6" opacity="0.13"/>
  <circle cx="490" cy="68" r="65" fill="#315be8" opacity="0.16"/>
  <circle cx="212" cy="181" r="2" fill="#fffaf4" opacity="0.32"/><circle cx="519" cy="270" r="2" fill="#fffaf4" opacity="0.31000000000000005"/><circle cx="314" cy="345" r="2" fill="#fffaf4" opacity="0.34"/><circle cx="621" cy="92" r="2" fill="#fffaf4" opacity="0.33"/><circle cx="416" cy="166" r="2" fill="#fffaf4" opacity="0.36000000000000004"/><circle cx="723" cy="256" r="2" fill="#fffaf4" opacity="0.35000000000000003"/><circle cx="518" cy="330" r="2" fill="#fffaf4" opacity="0.38"/><circle cx="109" cy="77" r="2" fill="#fffaf4" opacity="0.37"/><circle cx="620" cy="152" r="2" fill="#fffaf4" opacity="0.4"/>
  <path d="M0 240c88-42 144 42 232 0s144 42 232 0 144 42 232 0 144 42 232 0v180H0z" fill="#fff" opacity=".34"/><path d="M0 326c88-42 144 42 232 0s144 42 232 0 144 42 232 0 144 42 232 0" fill="none" stroke="#fff" stroke-width="18" opacity=".62"/><path d="M142 174c82-44 170-44 252 0" fill="none" stroke="#fff" stroke-width="10" opacity=".45" stroke-linecap="round"/>
</svg>
