<svg xmlns="http://www.w3.org/2000/svg" viewBox="0 0 800 420" role="img" aria-label="Ilustracion propia de oceano y olas para esta pregunta">
  <defs>
    <linearGradient id="bg" x1="0" x2="1" y1="0" y2="1">
      <stop stop-color="#dff8ff"/>
      <stop offset="1" stop-color="#315be8" stop-opacity="0.22"/>
    </linearGradient>
  </defs>
  <rect width="800" height="420" fill="url(#bg)"/>
  <circle cx="369" cy="345" r="79" fill="#12b7a6" opacity="0.13"/>
  <circle cx="430" cy="240" r="105" fill="#315be8" opacity="0.16"/>
  <circle cx="232" cy="190" r="2" fill="#fffaf4" opacity="0.4"/><circle cx="539" cy="279" r="2" fill="#fffaf4" opacity="0.39"/><circle cx="334" cy="354" r="2" fill="#fffaf4" opacity="0.42000000000000004"/><circle cx="641" cy="101" r="2" fill="#fffaf4" opacity="0.41000000000000003"/><circle cx="744" cy="204" r="2" fill="#fffaf4" opacity="0.36000000000000004"/><circle cx="335" cy="294" r="2" fill="#fffaf4" opacity="0.35000000000000003"/><circle cx="130" cy="368" r="2" fill="#fffaf4" opacity="0.38"/><circle cx="437" cy="115" r="2" fill="#fffaf4" opacity="0.37"/><circle cx="640" cy="161" r="2" fill="#fffaf4" opacity="0.48000000000000004"/>
  <path d="M0 240c88-42 144 42 232 0s144 42 232 0 144 42 232 0 144 42 232 0v180H0z" fill="#fff" opacity=".34"/><path d="M0 316c88-42 144 42 232 0s144 42 232 0 144 42 232 0 144 42 232 0" fill="none" stroke="#fff" stroke-width="18" opacity=".62"/><path d="M142 174c82-44 170-44 252 0" fill="none" stroke="#fff" stroke-width="10" opacity=".45" stroke-linecap="round"/>
</svg>
