<svg xmlns="http://www.w3.org/2000/svg" viewBox="0 0 800 420" role="img" aria-label="Ilustracion propia de oceano y olas para esta pregunta">
  <defs>
    <linearGradient id="bg" x1="0" x2="1" y1="0" y2="1">
      <stop stop-color="#dff8ff"/>
      <stop offset="1" stop-color="#fffaf4" stop-opacity="0.22"/>
    </linearGradient>
  </defs>
  <rect width="800" height="420" fill="url(#bg)"/>
  <circle cx="432" cy="70" r="87" fill="#12b7a6" opacity="0.13"/>
  <circle cx="363" cy="134" r="136" fill="#315be8" opacity="0.16"/>
  <circle cx="468" cy="296" r="5" fill="#fffaf4" opacity="0.37"/><circle cx="59" cy="44" r="5" fill="#fffaf4" opacity="0.36000000000000004"/><circle cx="570" cy="118" r="5" fill="#fffaf4" opacity="0.39"/><circle cx="161" cy="207" r="5" fill="#fffaf4" opacity="0.38"/><circle cx="264" cy="311" r="5" fill="#fffaf4" opacity="0.33"/><circle cx="571" cy="58" r="5" fill="#fffaf4" opacity="0.32"/><circle cx="366" cy="133" r="5" fill="#fffaf4" opacity="0.35000000000000003"/><circle cx="673" cy="222" r="5" fill="#fffaf4" opacity="0.34"/><circle cx="160" cy="267" r="5" fill="#fffaf4" opacity="0.45000000000000007"/>
  <path d="M0 240c88-42 144 42 232 0s144 42 232 0 144 42 232 0 144 42 232 0v180H0z" fill="#fff" opacity=".34"/><path d="M0 296c88-42 144 42 232 0s144 42 232 0 144 42 232 0 144 42 232 0" fill="none" stroke="#fff" stroke-width="18" opacity=".62"/><path d="M142 174c82-44 170-44 252 0" fill="none" stroke="#fff" stroke-width="10" opacity=".45" stroke-linecap="round"/>
</svg>
