<svg xmlns="http://www.w3.org/2000/svg" viewBox="0 0 800 420" role="img" aria-label="Ilustracion propia de tecnologia para esta pregunta">
  <defs>
    <linearGradient id="bg" x1="0" x2="1" y1="0" y2="1">
      <stop stop-color="#111820"/>
      <stop offset="1" stop-color="#fffaf4" stop-opacity="0.22"/>
    </linearGradient>
  </defs>
  <rect width="800" height="420" fill="url(#bg)"/>
  <circle cx="631" cy="73" r="112" fill="#fffaf4" opacity="0.13"/>
  <circle cx="237" cy="206" r="110" fill="#315be8" opacity="0.16"/>
  <circle cx="673" cy="366" r="2" fill="#12b7a6" opacity="0.69"/><circle cx="366" cy="276" r="2" fill="#12b7a6" opacity="0.7"/><circle cx="571" cy="202" r="2" fill="#12b7a6" opacity="0.67"/><circle cx="264" cy="113" r="2" fill="#12b7a6" opacity="0.68"/><circle cx="469" cy="38" r="2" fill="#12b7a6" opacity="0.65"/><circle cx="162" cy="291" r="2" fill="#12b7a6" opacity="0.66"/><circle cx="367" cy="216" r="2" fill="#12b7a6" opacity="0.63"/><circle cx="60" cy="127" r="2" fill="#12b7a6" opacity="0.64"/><circle cx="365" cy="336" r="2" fill="#12b7a6" opacity="0.32"/>
  <rect width="800" height="420" fill="#fffaf4"/><rect x="108" y="72" width="584" height="276" rx="28" fill="#315be8"/><rect x="108" y="72" width="584" height="58" rx="28" fill="#12b7a6"/><path d="M210 206l-62 44 62 44M590 206l62 44-62 44" stroke="#fffaf4" stroke-width="20" stroke-linecap="round" stroke-linejoin="round" fill="none"/><path d="M364 306l72-184" stroke="#12b7a6" stroke-width="18" stroke-linecap="round"/>
</svg>
