<svg xmlns="http://www.w3.org/2000/svg" viewBox="0 0 800 420" role="img" aria-label="Ilustracion propia de idiomas y conversacion para esta pregunta">
  <defs>
    <linearGradient id="bg" x1="0" x2="1" y1="0" y2="1">
      <stop stop-color="#eef7ff"/>
      <stop offset="1" stop-color="#315be8" stop-opacity="0.22"/>
    </linearGradient>
  </defs>
  <rect width="800" height="420" fill="url(#bg)"/>
  <circle cx="558" cy="127" r="76" fill="#315be8" opacity="0.13"/>
  <circle cx="678" cy="105" r="85" fill="#ff4f6d" opacity="0.16"/>
  <circle cx="178" cy="300" r="2" fill="#12b7a6" opacity="0.41000000000000003"/><circle cx="485" cy="47" r="2" fill="#12b7a6" opacity="0.4"/><circle cx="76" cy="136" r="2" fill="#12b7a6" opacity="0.39"/><circle cx="383" cy="226" r="2" fill="#12b7a6" opacity="0.38"/><circle cx="690" cy="315" r="2" fill="#12b7a6" opacity="0.37"/><circle cx="281" cy="62" r="2" fill="#12b7a6" opacity="0.36000000000000004"/><circle cx="588" cy="151" r="2" fill="#12b7a6" opacity="0.35000000000000003"/><circle cx="179" cy="240" r="2" fill="#12b7a6" opacity="0.34"/><circle cx="586" cy="271" r="2" fill="#12b7a6" opacity="0.49"/>
  <rect x="122" y="92" width="250" height="142" rx="44" fill="#fffaf4" stroke="#315be8" stroke-width="8"/><path d="M198 230l-42 54 92-52" fill="#fffaf4" stroke="#315be8" stroke-width="8" stroke-linejoin="round"/><rect x="428" y="142" width="250" height="142" rx="44" fill="#fffaf4" stroke="#12b7a6" stroke-width="8"/><path d="M602 280l42 54-92-52" fill="#fffaf4" stroke="#12b7a6" stroke-width="8" stroke-linejoin="round"/><path d="M178 158h134M178 196h86M484 208h134M484 246h86" stroke="#15191d" stroke-width="14" stroke-linecap="round" opacity=".2"/>
</svg>
