<svg xmlns="http://www.w3.org/2000/svg" viewBox="0 0 800 420" role="img" aria-label="Ilustracion propia de idiomas y conversacion para esta pregunta">
  <defs>
    <linearGradient id="bg" x1="0" x2="1" y1="0" y2="1">
      <stop stop-color="#eef7ff"/>
      <stop offset="1" stop-color="#ff4f6d" stop-opacity="0.22"/>
    </linearGradient>
  </defs>
  <rect width="800" height="420" fill="url(#bg)"/>
  <circle cx="655" cy="174" r="109" fill="#315be8" opacity="0.13"/>
  <circle cx="315" cy="290" r="119" fill="#ff4f6d" opacity="0.16"/>
  <circle cx="587" cy="263" r="5" fill="#12b7a6" opacity="0.7"/><circle cx="280" cy="174" r="5" fill="#12b7a6" opacity="0.71"/><circle cx="689" cy="85" r="4" fill="#12b7a6" opacity="0.72"/><circle cx="382" cy="338" r="4" fill="#12b7a6" opacity="0.28"/><circle cx="383" cy="278" r="5" fill="#12b7a6" opacity="0.66"/><circle cx="76" cy="188" r="5" fill="#12b7a6" opacity="0.67"/><circle cx="485" cy="99" r="5" fill="#12b7a6" opacity="0.68"/><circle cx="178" cy="352" r="5" fill="#12b7a6" opacity="0.69"/><circle cx="279" cy="234" r="4" fill="#12b7a6" opacity="0.33"/>
  <rect x="122" y="92" width="250" height="142" rx="44" fill="#fffaf4" stroke="#315be8" stroke-width="8"/><path d="M198 230l-42 54 92-52" fill="#fffaf4" stroke="#315be8" stroke-width="8" stroke-linejoin="round"/><rect x="428" y="142" width="250" height="142" rx="44" fill="#fffaf4" stroke="#12b7a6" stroke-width="8"/><path d="M602 280l42 54-92-52" fill="#fffaf4" stroke="#12b7a6" stroke-width="8" stroke-linejoin="round"/><path d="M178 158h134M178 196h86M484 208h134M484 246h86" stroke="#15191d" stroke-width="14" stroke-linecap="round" opacity=".2"/>
</svg>
