<svg xmlns="http://www.w3.org/2000/svg" viewBox="0 0 800 420" role="img" aria-label="Ilustracion propia de idiomas y conversacion para esta pregunta">
  <defs>
    <linearGradient id="bg" x1="0" x2="1" y1="0" y2="1">
      <stop stop-color="#eef7ff"/>
      <stop offset="1" stop-color="#315be8" stop-opacity="0.22"/>
    </linearGradient>
  </defs>
  <rect width="800" height="420" fill="url(#bg)"/>
  <circle cx="523" cy="234" r="130" fill="#315be8" opacity="0.13"/>
  <circle cx="674" cy="190" r="102" fill="#ff4f6d" opacity="0.16"/>
  <circle cx="742" cy="364" r="2" fill="#12b7a6" opacity="0.6200000000000001"/><circle cx="333" cy="111" r="2" fill="#12b7a6" opacity="0.6100000000000001"/><circle cx="640" cy="200" r="2" fill="#12b7a6" opacity="0.6000000000000001"/><circle cx="231" cy="289" r="2" fill="#12b7a6" opacity="0.5900000000000001"/><circle cx="538" cy="36" r="2" fill="#12b7a6" opacity="0.5800000000000001"/><circle cx="129" cy="125" r="2" fill="#12b7a6" opacity="0.5700000000000001"/><circle cx="436" cy="214" r="2" fill="#12b7a6" opacity="0.56"/><circle cx="743" cy="304" r="2" fill="#12b7a6" opacity="0.55"/><circle cx="434" cy="334" r="5" fill="#12b7a6" opacity="0.7"/>
  <rect x="122" y="92" width="250" height="142" rx="44" fill="#fffaf4" stroke="#315be8" stroke-width="8"/><path d="M198 230l-42 54 92-52" fill="#fffaf4" stroke="#315be8" stroke-width="8" stroke-linejoin="round"/><rect x="428" y="142" width="250" height="142" rx="44" fill="#fffaf4" stroke="#12b7a6" stroke-width="8"/><path d="M602 280l42 54-92-52" fill="#fffaf4" stroke="#12b7a6" stroke-width="8" stroke-linejoin="round"/><path d="M178 158h134M178 196h86M484 208h134M484 246h86" stroke="#15191d" stroke-width="14" stroke-linecap="round" opacity=".2"/>
</svg>
