<svg xmlns="http://www.w3.org/2000/svg" viewBox="0 0 800 420" role="img" aria-label="Ilustracion propia de idiomas y conversacion para esta pregunta">
  <defs>
    <linearGradient id="bg" x1="0" x2="1" y1="0" y2="1">
      <stop stop-color="#eef7ff"/>
      <stop offset="1" stop-color="#315be8" stop-opacity="0.22"/>
    </linearGradient>
  </defs>
  <rect width="800" height="420" fill="url(#bg)"/>
  <circle cx="688" cy="77" r="74" fill="#315be8" opacity="0.13"/>
  <circle cx="245" cy="135" r="95" fill="#ff4f6d" opacity="0.16"/>
  <circle cx="491" cy="44" r="5" fill="#12b7a6" opacity="0.66"/><circle cx="184" cy="297" r="5" fill="#12b7a6" opacity="0.67"/><circle cx="593" cy="208" r="5" fill="#12b7a6" opacity="0.68"/><circle cx="286" cy="118" r="5" fill="#12b7a6" opacity="0.69"/><circle cx="287" cy="58" r="5" fill="#12b7a6" opacity="0.6200000000000001"/><circle cx="696" cy="311" r="5" fill="#12b7a6" opacity="0.63"/><circle cx="389" cy="222" r="5" fill="#12b7a6" opacity="0.64"/><circle cx="82" cy="133" r="5" fill="#12b7a6" opacity="0.65"/><circle cx="183" cy="357" r="5" fill="#12b7a6" opacity="0.29000000000000004"/>
  <rect x="122" y="92" width="250" height="142" rx="44" fill="#fffaf4" stroke="#315be8" stroke-width="8"/><path d="M198 230l-42 54 92-52" fill="#fffaf4" stroke="#315be8" stroke-width="8" stroke-linejoin="round"/><rect x="428" y="142" width="250" height="142" rx="44" fill="#fffaf4" stroke="#12b7a6" stroke-width="8"/><path d="M602 280l42 54-92-52" fill="#fffaf4" stroke="#12b7a6" stroke-width="8" stroke-linejoin="round"/><path d="M178 158h134M178 196h86M484 208h134M484 246h86" stroke="#15191d" stroke-width="14" stroke-linecap="round" opacity=".2"/>
</svg>
