<svg xmlns="http://www.w3.org/2000/svg" viewBox="0 0 800 420" role="img" aria-label="Ilustracion propia de cine y rodaje para esta pregunta">
  <defs>
    <linearGradient id="bg" x1="0" x2="1" y1="0" y2="1">
      <stop stop-color="#15191d"/>
      <stop offset="1" stop-color="#15191d" stop-opacity="0.22"/>
    </linearGradient>
  </defs>
  <rect width="800" height="420" fill="url(#bg)"/>
  <circle cx="283" cy="218" r="114" fill="#fffaf4" opacity="0.13"/>
  <circle cx="569" cy="153" r="110" fill="#f6bc42" opacity="0.16"/>
  <circle cx="530" cy="170" r="2" fill="#ff4f6d" opacity="0.71"/><circle cx="121" cy="259" r="2" fill="#ff4f6d" opacity="0.7"/><circle cx="428" cy="348" r="2" fill="#ff4f6d" opacity="0.69"/><circle cx="735" cy="95" r="2" fill="#ff4f6d" opacity="0.68"/><circle cx="734" cy="155" r="2" fill="#ff4f6d" opacity="0.30000000000000004"/><circle cx="325" cy="244" r="2" fill="#ff4f6d" opacity="0.29000000000000004"/><circle cx="632" cy="333" r="2" fill="#ff4f6d" opacity="0.28"/><circle cx="223" cy="81" r="2" fill="#ff4f6d" opacity="0.72"/><circle cx="222" cy="141" r="2" fill="#ff4f6d" opacity="0.34"/>
  <rect width="800" height="420" fill="#fffaf4"/><circle cx="540" cy="142" r="120" fill="#ff4f6d" opacity=".42"/><rect x="190" y="182" width="420" height="198" rx="22" fill="#f6bc42"/><rect x="190" y="124" width="420" height="70" rx="18" fill="#fffaf4"/><path d="M228 124l58 70M330 124l58 70M432 124l58 70M534 124l58 70" stroke="#fffaf4" stroke-width="20"/><rect x="244" y="254" width="312" height="18" rx="9" fill="#fffaf4" opacity=".16"/>
</svg>
