<svg xmlns="http://www.w3.org/2000/svg" viewBox="0 0 800 420" role="img" aria-label="Ilustracion propia de cine y rodaje para esta pregunta">
  <defs>
    <linearGradient id="bg" x1="0" x2="1" y1="0" y2="1">
      <stop stop-color="#15191d"/>
      <stop offset="1" stop-color="#fffaf4" stop-opacity="0.22"/>
    </linearGradient>
  </defs>
  <rect width="800" height="420" fill="url(#bg)"/>
  <circle cx="261" cy="297" r="102" fill="#fffaf4" opacity="0.13"/>
  <circle cx="116" cy="341" r="78" fill="#f6bc42" opacity="0.16"/>
  <circle cx="600" cy="182" r="2" fill="#ff4f6d" opacity="0.5700000000000001"/><circle cx="191" cy="271" r="2" fill="#ff4f6d" opacity="0.56"/><circle cx="702" cy="346" r="2" fill="#ff4f6d" opacity="0.5900000000000001"/><circle cx="293" cy="93" r="2" fill="#ff4f6d" opacity="0.5800000000000001"/><circle cx="396" cy="197" r="2" fill="#ff4f6d" opacity="0.53"/><circle cx="703" cy="286" r="2" fill="#ff4f6d" opacity="0.52"/><circle cx="498" cy="360" r="2" fill="#ff4f6d" opacity="0.55"/><circle cx="89" cy="107" r="2" fill="#ff4f6d" opacity="0.54"/><circle cx="192" cy="211" r="2" fill="#ff4f6d" opacity="0.49"/>
  <rect width="800" height="420" fill="#fffaf4"/><circle cx="620" cy="90" r="120" fill="#ff4f6d" opacity=".42"/><rect x="190" y="182" width="420" height="198" rx="22" fill="#f6bc42"/><rect x="190" y="108" width="420" height="70" rx="18" fill="#fffaf4"/><path d="M228 108l58 70M330 108l58 70M432 108l58 70M534 108l58 70" stroke="#fffaf4" stroke-width="20"/><rect x="244" y="254" width="312" height="18" rx="9" fill="#fffaf4" opacity=".16"/>
</svg>
