<svg xmlns="http://www.w3.org/2000/svg" viewBox="0 0 800 420" role="img" aria-label="Ilustracion propia de cine y rodaje para esta pregunta">
  <defs>
    <linearGradient id="bg" x1="0" x2="1" y1="0" y2="1">
      <stop stop-color="#15191d"/>
      <stop offset="1" stop-color="#ff4f6d" stop-opacity="0.22"/>
    </linearGradient>
  </defs>
  <rect width="800" height="420" fill="url(#bg)"/>
  <circle cx="558" cy="249" r="97" fill="#fffaf4" opacity="0.13"/>
  <circle cx="303" cy="121" r="118" fill="#f6bc42" opacity="0.16"/>
  <circle cx="598" cy="75" r="5" fill="#ff4f6d" opacity="0.39"/><circle cx="189" cy="164" r="5" fill="#ff4f6d" opacity="0.38"/><circle cx="496" cy="253" r="5" fill="#ff4f6d" opacity="0.37"/><circle cx="87" cy="342" r="5" fill="#ff4f6d" opacity="0.36000000000000004"/><circle cx="86" cy="60" r="5" fill="#ff4f6d" opacity="0.43000000000000005"/><circle cx="393" cy="150" r="5" fill="#ff4f6d" opacity="0.42000000000000004"/><circle cx="700" cy="239" r="5" fill="#ff4f6d" opacity="0.41000000000000003"/><circle cx="291" cy="328" r="5" fill="#ff4f6d" opacity="0.4"/><circle cx="290" cy="46" r="5" fill="#ff4f6d" opacity="0.47000000000000003"/>
  <rect width="800" height="420" fill="#fffaf4"/><circle cx="540" cy="142" r="120" fill="#ff4f6d" opacity=".42"/><rect x="190" y="182" width="420" height="198" rx="22" fill="#f6bc42"/><rect x="190" y="124" width="420" height="70" rx="18" fill="#fffaf4"/><path d="M228 124l58 70M330 124l58 70M432 124l58 70M534 124l58 70" stroke="#fffaf4" stroke-width="20"/><rect x="244" y="254" width="312" height="18" rx="9" fill="#fffaf4" opacity=".16"/>
</svg>
