<svg xmlns="http://www.w3.org/2000/svg" viewBox="0 0 800 420" role="img" aria-label="Ilustracion propia de cine y rodaje para esta pregunta">
  <defs>
    <linearGradient id="bg" x1="0" x2="1" y1="0" y2="1">
      <stop stop-color="#15191d"/>
      <stop offset="1" stop-color="#15191d" stop-opacity="0.22"/>
    </linearGradient>
  </defs>
  <rect width="800" height="420" fill="url(#bg)"/>
  <circle cx="378" cy="79" r="72" fill="#fffaf4" opacity="0.13"/>
  <circle cx="356" cy="207" r="65" fill="#f6bc42" opacity="0.16"/>
  <circle cx="235" cy="44" r="5" fill="#ff4f6d" opacity="0.6000000000000001"/><circle cx="644" cy="297" r="5" fill="#ff4f6d" opacity="0.6100000000000001"/><circle cx="337" cy="207" r="5" fill="#ff4f6d" opacity="0.6200000000000001"/><circle cx="746" cy="118" r="5" fill="#ff4f6d" opacity="0.63"/><circle cx="747" cy="58" r="5" fill="#ff4f6d" opacity="0.56"/><circle cx="440" cy="311" r="5" fill="#ff4f6d" opacity="0.5700000000000001"/><circle cx="133" cy="222" r="5" fill="#ff4f6d" opacity="0.5800000000000001"/><circle cx="542" cy="133" r="5" fill="#ff4f6d" opacity="0.5900000000000001"/><circle cx="543" cy="73" r="5" fill="#ff4f6d" opacity="0.52"/>
  <rect width="800" height="420" fill="#fffaf4"/><circle cx="540" cy="142" r="120" fill="#ff4f6d" opacity=".42"/><rect x="190" y="182" width="420" height="198" rx="22" fill="#f6bc42"/><rect x="190" y="124" width="420" height="70" rx="18" fill="#fffaf4"/><path d="M228 124l58 70M330 124l58 70M432 124l58 70M534 124l58 70" stroke="#fffaf4" stroke-width="20"/><rect x="244" y="254" width="312" height="18" rx="9" fill="#fffaf4" opacity=".16"/>
</svg>
