<svg xmlns="http://www.w3.org/2000/svg" viewBox="0 0 800 420" role="img" aria-label="Ilustracion propia de cine y rodaje para esta pregunta">
  <defs>
    <linearGradient id="bg" x1="0" x2="1" y1="0" y2="1">
      <stop stop-color="#15191d"/>
      <stop offset="1" stop-color="#ff4f6d" stop-opacity="0.22"/>
    </linearGradient>
  </defs>
  <rect width="800" height="420" fill="url(#bg)"/>
  <circle cx="326" cy="217" r="129" fill="#fffaf4" opacity="0.13"/>
  <circle cx="124" cy="260" r="92" fill="#f6bc42" opacity="0.16"/>
  <circle cx="299" cy="327" r="5" fill="#ff4f6d" opacity="0.45000000000000007"/><circle cx="708" cy="238" r="5" fill="#ff4f6d" opacity="0.46"/><circle cx="401" cy="149" r="5" fill="#ff4f6d" opacity="0.47000000000000003"/><circle cx="94" cy="60" r="5" fill="#ff4f6d" opacity="0.48000000000000004"/><circle cx="503" cy="313" r="5" fill="#ff4f6d" opacity="0.49"/><circle cx="196" cy="224" r="5" fill="#ff4f6d" opacity="0.5"/><circle cx="605" cy="134" r="5" fill="#ff4f6d" opacity="0.51"/><circle cx="298" cy="45" r="5" fill="#ff4f6d" opacity="0.52"/><circle cx="607" cy="356" r="5" fill="#ff4f6d" opacity="0.37"/>
  <rect width="800" height="420" fill="#fffaf4"/><circle cx="620" cy="90" r="120" fill="#ff4f6d" opacity=".42"/><rect x="190" y="182" width="420" height="198" rx="22" fill="#f6bc42"/><rect x="190" y="108" width="420" height="70" rx="18" fill="#fffaf4"/><path d="M228 108l58 70M330 108l58 70M432 108l58 70M534 108l58 70" stroke="#fffaf4" stroke-width="20"/><rect x="244" y="254" width="312" height="18" rx="9" fill="#fffaf4" opacity=".16"/>
</svg>
