<svg xmlns="http://www.w3.org/2000/svg" viewBox="0 0 800 420" role="img" aria-label="Ilustracion propia de oceano y olas para esta pregunta">
  <defs>
    <linearGradient id="bg" x1="0" x2="1" y1="0" y2="1">
      <stop stop-color="#dff8ff"/>
      <stop offset="1" stop-color="#12b7a6" stop-opacity="0.22"/>
    </linearGradient>
  </defs>
  <rect width="800" height="420" fill="url(#bg)"/>
  <circle cx="148" cy="129" r="108" fill="#12b7a6" opacity="0.13"/>
  <circle cx="327" cy="70" r="129" fill="#315be8" opacity="0.16"/>
  <circle cx="606" cy="180" r="2" fill="#fffaf4" opacity="0.55"/><circle cx="197" cy="269" r="2" fill="#fffaf4" opacity="0.54"/><circle cx="504" cy="359" r="2" fill="#fffaf4" opacity="0.53"/><circle cx="95" cy="106" r="2" fill="#fffaf4" opacity="0.52"/><circle cx="94" cy="166" r="2" fill="#fffaf4" opacity="0.5900000000000001"/><circle cx="401" cy="255" r="2" fill="#fffaf4" opacity="0.5800000000000001"/><circle cx="708" cy="344" r="2" fill="#fffaf4" opacity="0.5700000000000001"/><circle cx="299" cy="91" r="2" fill="#fffaf4" opacity="0.56"/><circle cx="198" cy="210" r="2" fill="#fffaf4" opacity="0.47000000000000003"/>
  <path d="M0 240c88-42 144 42 232 0s144 42 232 0 144 42 232 0 144 42 232 0v180H0z" fill="#fff" opacity=".34"/><path d="M0 306c88-42 144 42 232 0s144 42 232 0 144 42 232 0 144 42 232 0" fill="none" stroke="#fff" stroke-width="18" opacity=".62"/><path d="M142 174c82-44 170-44 252 0" fill="none" stroke="#fff" stroke-width="10" opacity=".45" stroke-linecap="round"/>
</svg>
