<svg xmlns="http://www.w3.org/2000/svg" viewBox="0 0 800 420" role="img" aria-label="Ilustracion propia de cine y rodaje para esta pregunta">
  <defs>
    <linearGradient id="bg" x1="0" x2="1" y1="0" y2="1">
      <stop stop-color="#15191d"/>
      <stop offset="1" stop-color="#fffaf4" stop-opacity="0.22"/>
    </linearGradient>
  </defs>
  <rect width="800" height="420" fill="url(#bg)"/>
  <circle cx="258" cy="268" r="142" fill="#fffaf4" opacity="0.13"/>
  <circle cx="266" cy="159" r="123" fill="#f6bc42" opacity="0.16"/>
  <circle cx="650" cy="376" r="2" fill="#ff4f6d" opacity="0.4"/><circle cx="241" cy="123" r="2" fill="#ff4f6d" opacity="0.39"/><circle cx="548" cy="212" r="2" fill="#ff4f6d" opacity="0.38"/><circle cx="139" cy="301" r="2" fill="#ff4f6d" opacity="0.37"/><circle cx="622" cy="147" r="2" fill="#ff4f6d" opacity="0.30000000000000004"/><circle cx="213" cy="236" r="2" fill="#ff4f6d" opacity="0.29000000000000004"/><circle cx="520" cy="326" r="2" fill="#ff4f6d" opacity="0.28"/><circle cx="111" cy="73" r="2" fill="#ff4f6d" opacity="0.72"/><circle cx="110" cy="133" r="2" fill="#ff4f6d" opacity="0.34"/>
  <rect width="800" height="420" fill="#fffaf4"/><circle cx="540" cy="142" r="120" fill="#ff4f6d" opacity=".42"/><rect x="190" y="182" width="420" height="198" rx="22" fill="#f6bc42"/><rect x="190" y="124" width="420" height="70" rx="18" fill="#fffaf4"/><path d="M228 124l58 70M330 124l58 70M432 124l58 70M534 124l58 70" stroke="#fffaf4" stroke-width="20"/><rect x="244" y="254" width="312" height="18" rx="9" fill="#fffaf4" opacity=".16"/>
</svg>
