<svg xmlns="http://www.w3.org/2000/svg" viewBox="0 0 800 420" role="img" aria-label="Ilustracion propia de cine y rodaje para esta pregunta">
  <defs>
    <linearGradient id="bg" x1="0" x2="1" y1="0" y2="1">
      <stop stop-color="#15191d"/>
      <stop offset="1" stop-color="#fffaf4" stop-opacity="0.22"/>
    </linearGradient>
  </defs>
  <rect width="800" height="420" fill="url(#bg)"/>
  <circle cx="343" cy="241" r="116" fill="#fffaf4" opacity="0.13"/>
  <circle cx="501" cy="227" r="90" fill="#f6bc42" opacity="0.16"/>
  <circle cx="723" cy="191" r="5" fill="#ff4f6d" opacity="0.69"/><circle cx="416" cy="102" r="5" fill="#ff4f6d" opacity="0.7"/><circle cx="109" cy="354" r="5" fill="#ff4f6d" opacity="0.71"/><circle cx="518" cy="265" r="5" fill="#ff4f6d" opacity="0.72"/><circle cx="211" cy="176" r="5" fill="#ff4f6d" opacity="0.28"/><circle cx="620" cy="87" r="5" fill="#ff4f6d" opacity="0.29000000000000004"/><circle cx="313" cy="340" r="4" fill="#ff4f6d" opacity="0.30000000000000004"/><circle cx="722" cy="251" r="4" fill="#ff4f6d" opacity="0.31000000000000005"/><circle cx="315" cy="220" r="5" fill="#ff4f6d" opacity="0.6100000000000001"/>
  <rect width="800" height="420" fill="#fffaf4"/><circle cx="540" cy="142" r="120" fill="#ff4f6d" opacity=".42"/><rect x="190" y="182" width="420" height="198" rx="22" fill="#f6bc42"/><rect x="190" y="124" width="420" height="70" rx="18" fill="#fffaf4"/><path d="M228 124l58 70M330 124l58 70M432 124l58 70M534 124l58 70" stroke="#fffaf4" stroke-width="20"/><rect x="244" y="254" width="312" height="18" rx="9" fill="#fffaf4" opacity=".16"/>
</svg>
