<svg xmlns="http://www.w3.org/2000/svg" viewBox="0 0 800 420" role="img" aria-label="Ilustracion propia de cine y rodaje para esta pregunta">
  <defs>
    <linearGradient id="bg" x1="0" x2="1" y1="0" y2="1">
      <stop stop-color="#15191d"/>
      <stop offset="1" stop-color="#ff4f6d" stop-opacity="0.22"/>
    </linearGradient>
  </defs>
  <rect width="800" height="420" fill="url(#bg)"/>
  <circle cx="358" cy="266" r="133" fill="#fffaf4" opacity="0.13"/>
  <circle cx="203" cy="266" r="92" fill="#f6bc42" opacity="0.16"/>
  <circle cx="615" cy="303" r="2" fill="#ff4f6d" opacity="0.52"/><circle cx="308" cy="214" r="2" fill="#ff4f6d" opacity="0.53"/><circle cx="717" cy="125" r="2" fill="#ff4f6d" opacity="0.54"/><circle cx="410" cy="36" r="2" fill="#ff4f6d" opacity="0.55"/><circle cx="411" cy="318" r="2" fill="#ff4f6d" opacity="0.48000000000000004"/><circle cx="104" cy="228" r="2" fill="#ff4f6d" opacity="0.49"/><circle cx="513" cy="139" r="2" fill="#ff4f6d" opacity="0.5"/><circle cx="206" cy="50" r="2" fill="#ff4f6d" opacity="0.51"/><circle cx="207" cy="332" r="2" fill="#ff4f6d" opacity="0.44000000000000006"/>
  <rect width="800" height="420" fill="#fffaf4"/><circle cx="540" cy="142" r="120" fill="#ff4f6d" opacity=".42"/><rect x="190" y="182" width="420" height="198" rx="22" fill="#f6bc42"/><rect x="190" y="124" width="420" height="70" rx="18" fill="#fffaf4"/><path d="M228 124l58 70M330 124l58 70M432 124l58 70M534 124l58 70" stroke="#fffaf4" stroke-width="20"/><rect x="244" y="254" width="312" height="18" rx="9" fill="#fffaf4" opacity=".16"/>
</svg>
