<svg xmlns="http://www.w3.org/2000/svg" viewBox="0 0 800 420" role="img" aria-label="Ilustracion propia de cine y rodaje para esta pregunta">
  <defs>
    <linearGradient id="bg" x1="0" x2="1" y1="0" y2="1">
      <stop stop-color="#15191d"/>
      <stop offset="1" stop-color="#ff4f6d" stop-opacity="0.22"/>
    </linearGradient>
  </defs>
  <rect width="800" height="420" fill="url(#bg)"/>
  <circle cx="113" cy="158" r="97" fill="#fffaf4" opacity="0.13"/>
  <circle cx="98" cy="217" r="128" fill="#f6bc42" opacity="0.16"/>
  <circle cx="451" cy="201" r="4" fill="#ff4f6d" opacity="0.68"/><circle cx="144" cy="112" r="4" fill="#ff4f6d" opacity="0.69"/><circle cx="553" cy="365" r="3" fill="#ff4f6d" opacity="0.7"/><circle cx="246" cy="276" r="3" fill="#ff4f6d" opacity="0.71"/><circle cx="247" cy="216" r="4" fill="#ff4f6d" opacity="0.64"/><circle cx="656" cy="127" r="4" fill="#ff4f6d" opacity="0.65"/><circle cx="349" cy="38" r="4" fill="#ff4f6d" opacity="0.66"/><circle cx="42" cy="290" r="4" fill="#ff4f6d" opacity="0.67"/><circle cx="143" cy="172" r="3" fill="#ff4f6d" opacity="0.31000000000000005"/>
  <rect width="800" height="420" fill="#fffaf4"/><circle cx="540" cy="142" r="120" fill="#ff4f6d" opacity=".42"/><rect x="190" y="182" width="420" height="198" rx="22" fill="#f6bc42"/><rect x="190" y="124" width="420" height="70" rx="18" fill="#fffaf4"/><path d="M228 124l58 70M330 124l58 70M432 124l58 70M534 124l58 70" stroke="#fffaf4" stroke-width="20"/><rect x="244" y="254" width="312" height="18" rx="9" fill="#fffaf4" opacity=".16"/>
</svg>
