<svg xmlns="http://www.w3.org/2000/svg" viewBox="0 0 800 420" role="img" aria-label="Ilustracion propia de cine y rodaje para esta pregunta">
  <defs>
    <linearGradient id="bg" x1="0" x2="1" y1="0" y2="1">
      <stop stop-color="#15191d"/>
      <stop offset="1" stop-color="#fffaf4" stop-opacity="0.22"/>
    </linearGradient>
  </defs>
  <rect width="800" height="420" fill="url(#bg)"/>
  <circle cx="153" cy="92" r="140" fill="#fffaf4" opacity="0.13"/>
  <circle cx="328" cy="137" r="123" fill="#f6bc42" opacity="0.16"/>
  <circle cx="593" cy="294" r="4" fill="#ff4f6d" opacity="0.66"/><circle cx="286" cy="205" r="4" fill="#ff4f6d" opacity="0.67"/><circle cx="491" cy="131" r="4" fill="#ff4f6d" opacity="0.64"/><circle cx="184" cy="41" r="4" fill="#ff4f6d" opacity="0.65"/><circle cx="389" cy="309" r="4" fill="#ff4f6d" opacity="0.6200000000000001"/><circle cx="82" cy="220" r="4" fill="#ff4f6d" opacity="0.63"/><circle cx="287" cy="145" r="4" fill="#ff4f6d" opacity="0.6000000000000001"/><circle cx="696" cy="56" r="4" fill="#ff4f6d" opacity="0.6100000000000001"/><circle cx="285" cy="265" r="4" fill="#ff4f6d" opacity="0.29000000000000004"/>
  <rect width="800" height="420" fill="#fffaf4"/><circle cx="540" cy="142" r="120" fill="#ff4f6d" opacity=".42"/><rect x="190" y="182" width="420" height="198" rx="22" fill="#f6bc42"/><rect x="190" y="124" width="420" height="70" rx="18" fill="#fffaf4"/><path d="M228 124l58 70M330 124l58 70M432 124l58 70M534 124l58 70" stroke="#fffaf4" stroke-width="20"/><rect x="244" y="254" width="312" height="18" rx="9" fill="#fffaf4" opacity=".16"/>
</svg>
