<svg xmlns="http://www.w3.org/2000/svg" viewBox="0 0 800 420" role="img" aria-label="Ilustracion propia de oceano y olas para esta pregunta">
  <defs>
    <linearGradient id="bg" x1="0" x2="1" y1="0" y2="1">
      <stop stop-color="#dff8ff"/>
      <stop offset="1" stop-color="#fffaf4" stop-opacity="0.22"/>
    </linearGradient>
  </defs>
  <rect width="800" height="420" fill="url(#bg)"/>
  <circle cx="435" cy="118" r="81" fill="#12b7a6" opacity="0.13"/>
  <circle cx="513" cy="247" r="126" fill="#315be8" opacity="0.16"/>
  <circle cx="476" cy="240" r="2" fill="#fffaf4" opacity="0.5"/><circle cx="67" cy="329" r="2" fill="#fffaf4" opacity="0.49"/><circle cx="578" cy="61" r="2" fill="#fffaf4" opacity="0.52"/><circle cx="169" cy="150" r="2" fill="#fffaf4" opacity="0.51"/><circle cx="680" cy="225" r="2" fill="#fffaf4" opacity="0.54"/><circle cx="271" cy="314" r="2" fill="#fffaf4" opacity="0.53"/><circle cx="66" cy="47" r="2" fill="#fffaf4" opacity="0.56"/><circle cx="373" cy="136" r="2" fill="#fffaf4" opacity="0.55"/><circle cx="168" cy="210" r="2" fill="#fffaf4" opacity="0.5800000000000001"/>
  <path d="M0 240c88-42 144 42 232 0s144 42 232 0 144 42 232 0 144 42 232 0v180H0z" fill="#fff" opacity=".34"/><path d="M0 326c88-42 144 42 232 0s144 42 232 0 144 42 232 0 144 42 232 0" fill="none" stroke="#fff" stroke-width="18" opacity=".62"/><path d="M142 174c82-44 170-44 252 0" fill="none" stroke="#fff" stroke-width="10" opacity=".45" stroke-linecap="round"/>
</svg>
