<svg xmlns="http://www.w3.org/2000/svg" viewBox="0 0 800 420" role="img" aria-label="Ilustracion propia de mapa y geografia para esta pregunta">
  <defs>
    <linearGradient id="bg" x1="0" x2="1" y1="0" y2="1">
      <stop stop-color="#eaf9f6"/>
      <stop offset="1" stop-color="#fffaf4" stop-opacity="0.22"/>
    </linearGradient>
  </defs>
  <rect width="800" height="420" fill="url(#bg)"/>
  <circle cx="566" cy="333" r="116" fill="#fffaf4" opacity="0.13"/>
  <circle cx="229" cy="131" r="120" fill="#12b7a6" opacity="0.16"/>
  <circle cx="194" cy="361" r="2" fill="#ff4f6d" opacity="0.35000000000000003"/><circle cx="501" cy="108" r="2" fill="#ff4f6d" opacity="0.34"/><circle cx="92" cy="197" r="2" fill="#ff4f6d" opacity="0.33"/><circle cx="399" cy="286" r="2" fill="#ff4f6d" opacity="0.32"/><circle cx="398" cy="346" r="2" fill="#ff4f6d" opacity="0.39"/><circle cx="705" cy="94" r="2" fill="#ff4f6d" opacity="0.38"/><circle cx="296" cy="183" r="2" fill="#ff4f6d" opacity="0.37"/><circle cx="603" cy="272" r="2" fill="#ff4f6d" opacity="0.36000000000000004"/><circle cx="602" cy="332" r="2" fill="#ff4f6d" opacity="0.43000000000000005"/>
  <path d="M100 84l170-42 160 50 170-42 100 42v244l-170 42-160-50-170 42-100-42z" fill="#12b7a6" stroke="#15191d" stroke-width="5" opacity=".94"/><path d="M270 42v286M430 92v286M600 50v286" stroke="#15191d" stroke-width="4" opacity=".16"/><path d="M126 136c80 22 106-36 176-8 72 28 94 88 182 48 86-40 128-8 184 44" fill="none" stroke="#ff4f6d" stroke-width="14" stroke-linecap="round"/><path d="M440 112c0 36-38 70-38 70s-38-34-38-70a38 38 0 0176 0z" fill="#fffaf4"/>
</svg>
