<svg xmlns="http://www.w3.org/2000/svg" viewBox="0 0 800 420" role="img" aria-label="Ilustracion propia de mapa y geografia para esta pregunta">
  <defs>
    <linearGradient id="bg" x1="0" x2="1" y1="0" y2="1">
      <stop stop-color="#eaf9f6"/>
      <stop offset="1" stop-color="#fffaf4" stop-opacity="0.22"/>
    </linearGradient>
  </defs>
  <rect width="800" height="420" fill="url(#bg)"/>
  <circle cx="116" cy="321" r="114" fill="#fffaf4" opacity="0.13"/>
  <circle cx="173" cy="201" r="90" fill="#12b7a6" opacity="0.16"/>
  <circle cx="355" cy="310" r="5" fill="#ff4f6d" opacity="0.71"/><circle cx="48" cy="221" r="5" fill="#ff4f6d" opacity="0.72"/><circle cx="457" cy="132" r="5" fill="#ff4f6d" opacity="0.28"/><circle cx="150" cy="43" r="5" fill="#ff4f6d" opacity="0.29000000000000004"/><circle cx="151" cy="325" r="5" fill="#ff4f6d" opacity="0.67"/><circle cx="560" cy="236" r="5" fill="#ff4f6d" opacity="0.68"/><circle cx="253" cy="146" r="5" fill="#ff4f6d" opacity="0.69"/><circle cx="662" cy="57" r="5" fill="#ff4f6d" opacity="0.7"/><circle cx="663" cy="339" r="5" fill="#ff4f6d" opacity="0.63"/>
  <path d="M100 84l170-42 160 50 170-42 100 42v244l-170 42-160-50-170 42-100-42z" fill="#12b7a6" stroke="#15191d" stroke-width="5" opacity=".94"/><path d="M270 42v286M430 92v286M600 50v286" stroke="#15191d" stroke-width="4" opacity=".16"/><path d="M126 136c80 22 106-36 176-8 72 28 94 88 182 48 86-40 128-8 184 44" fill="none" stroke="#ff4f6d" stroke-width="14" stroke-linecap="round"/><path d="M440 112c0 36-38 70-38 70s-38-34-38-70a38 38 0 0176 0z" fill="#fffaf4"/>
</svg>
