<svg xmlns="http://www.w3.org/2000/svg" viewBox="0 0 800 420" role="img" aria-label="Ilustracion propia de mapa y geografia para esta pregunta">
  <defs>
    <linearGradient id="bg" x1="0" x2="1" y1="0" y2="1">
      <stop stop-color="#eaf9f6"/>
      <stop offset="1" stop-color="#ff4f6d" stop-opacity="0.22"/>
    </linearGradient>
  </defs>
  <rect width="800" height="420" fill="url(#bg)"/>
  <circle cx="593" cy="131" r="85" fill="#fffaf4" opacity="0.13"/>
  <circle cx="308" cy="177" r="96" fill="#12b7a6" opacity="0.16"/>
  <circle cx="556" cy="220" r="4" fill="#ff4f6d" opacity="0.68"/><circle cx="147" cy="309" r="4" fill="#ff4f6d" opacity="0.67"/><circle cx="658" cy="41" r="4" fill="#ff4f6d" opacity="0.7"/><circle cx="249" cy="130" r="4" fill="#ff4f6d" opacity="0.69"/><circle cx="352" cy="234" r="4" fill="#ff4f6d" opacity="0.64"/><circle cx="659" cy="323" r="4" fill="#ff4f6d" opacity="0.63"/><circle cx="454" cy="56" r="4" fill="#ff4f6d" opacity="0.66"/><circle cx="45" cy="145" r="4" fill="#ff4f6d" opacity="0.65"/><circle cx="248" cy="190" r="4" fill="#ff4f6d" opacity="0.31000000000000005"/>
  <path d="M100 84l170-42 160 50 170-42 100 42v244l-170 42-160-50-170 42-100-42z" fill="#12b7a6" stroke="#15191d" stroke-width="5" opacity=".94"/><path d="M270 42v286M430 92v286M600 50v286" stroke="#15191d" stroke-width="4" opacity=".16"/><path d="M126 168c80 22 106-36 176-8 72 28 94 88 182 48 86-40 128-8 184 44" fill="none" stroke="#ff4f6d" stroke-width="14" stroke-linecap="round"/><path d="M500 140c0 36-38 70-38 70s-38-34-38-70a38 38 0 0176 0z" fill="#fffaf4"/>
</svg>
