<svg xmlns="http://www.w3.org/2000/svg" viewBox="0 0 800 420" role="img" aria-label="Ilustracion propia de oceano y olas para esta pregunta">
  <defs>
    <linearGradient id="bg" x1="0" x2="1" y1="0" y2="1">
      <stop stop-color="#dff8ff"/>
      <stop offset="1" stop-color="#fffaf4" stop-opacity="0.22"/>
    </linearGradient>
  </defs>
  <rect width="800" height="420" fill="url(#bg)"/>
  <circle cx="361" cy="139" r="125" fill="#12b7a6" opacity="0.13"/>
  <circle cx="429" cy="321" r="101" fill="#315be8" opacity="0.16"/>
  <circle cx="384" cy="176" r="5" fill="#fffaf4" opacity="0.30000000000000004"/><circle cx="691" cy="266" r="5" fill="#fffaf4" opacity="0.29000000000000004"/><circle cx="486" cy="340" r="5" fill="#fffaf4" opacity="0.32"/><circle cx="77" cy="87" r="5" fill="#fffaf4" opacity="0.31000000000000005"/><circle cx="180" cy="191" r="5" fill="#fffaf4" opacity="0.71"/><circle cx="487" cy="280" r="5" fill="#fffaf4" opacity="0.7"/><circle cx="282" cy="355" r="5" fill="#fffaf4" opacity="0.28"/><circle cx="589" cy="102" r="5" fill="#fffaf4" opacity="0.72"/><circle cx="692" cy="206" r="5" fill="#fffaf4" opacity="0.67"/>
  <path d="M0 240c88-42 144 42 232 0s144 42 232 0 144 42 232 0 144 42 232 0v180H0z" fill="#fff" opacity=".34"/><path d="M0 286c88-42 144 42 232 0s144 42 232 0 144 42 232 0 144 42 232 0" fill="none" stroke="#fff" stroke-width="18" opacity=".62"/><path d="M142 174c82-44 170-44 252 0" fill="none" stroke="#fff" stroke-width="10" opacity=".45" stroke-linecap="round"/>
</svg>
