<svg xmlns="http://www.w3.org/2000/svg" viewBox="0 0 800 420" role="img" aria-label="Ilustracion propia de cine y rodaje para esta pregunta">
  <defs>
    <linearGradient id="bg" x1="0" x2="1" y1="0" y2="1">
      <stop stop-color="#15191d"/>
      <stop offset="1" stop-color="#f6bc42" stop-opacity="0.22"/>
    </linearGradient>
  </defs>
  <rect width="800" height="420" fill="url(#bg)"/>
  <circle cx="177" cy="301" r="103" fill="#fffaf4" opacity="0.13"/>
  <circle cx="181" cy="306" r="108" fill="#f6bc42" opacity="0.16"/>
  <circle cx="468" cy="79" r="3" fill="#ff4f6d" opacity="0.71"/><circle cx="59" cy="168" r="3" fill="#ff4f6d" opacity="0.7"/><circle cx="570" cy="243" r="3" fill="#ff4f6d" opacity="0.28"/><circle cx="161" cy="332" r="3" fill="#ff4f6d" opacity="0.72"/><circle cx="672" cy="64" r="3" fill="#ff4f6d" opacity="0.30000000000000004"/><circle cx="263" cy="154" r="3" fill="#ff4f6d" opacity="0.29000000000000004"/><circle cx="58" cy="228" r="3" fill="#ff4f6d" opacity="0.32"/><circle cx="365" cy="317" r="3" fill="#ff4f6d" opacity="0.31000000000000005"/><circle cx="160" cy="50" r="3" fill="#ff4f6d" opacity="0.34"/>
  <rect width="800" height="420" fill="#fffaf4"/><circle cx="580" cy="116" r="120" fill="#ff4f6d" opacity=".42"/><rect x="190" y="182" width="420" height="198" rx="22" fill="#f6bc42"/><rect x="190" y="116" width="420" height="70" rx="18" fill="#fffaf4"/><path d="M228 116l58 70M330 116l58 70M432 116l58 70M534 116l58 70" stroke="#fffaf4" stroke-width="20"/><rect x="244" y="254" width="312" height="18" rx="9" fill="#fffaf4" opacity=".16"/>
</svg>
