<svg xmlns="http://www.w3.org/2000/svg" viewBox="0 0 800 420" role="img" aria-label="Ilustracion propia de cine y rodaje para esta pregunta">
  <defs>
    <linearGradient id="bg" x1="0" x2="1" y1="0" y2="1">
      <stop stop-color="#15191d"/>
      <stop offset="1" stop-color="#ff4f6d" stop-opacity="0.22"/>
    </linearGradient>
  </defs>
  <rect width="800" height="420" fill="url(#bg)"/>
  <circle cx="588" cy="284" r="89" fill="#fffaf4" opacity="0.13"/>
  <circle cx="682" cy="161" r="87" fill="#f6bc42" opacity="0.16"/>
  <circle cx="205" cy="226" r="3" fill="#ff4f6d" opacity="0.41000000000000003"/><circle cx="614" cy="137" r="3" fill="#ff4f6d" opacity="0.42000000000000004"/><circle cx="103" cy="63" r="3" fill="#ff4f6d" opacity="0.39"/><circle cx="512" cy="316" r="3" fill="#ff4f6d" opacity="0.4"/><circle cx="409" cy="212" r="3" fill="#ff4f6d" opacity="0.45000000000000007"/><circle cx="102" cy="123" r="3" fill="#ff4f6d" opacity="0.46"/><circle cx="307" cy="48" r="3" fill="#ff4f6d" opacity="0.43000000000000005"/><circle cx="716" cy="301" r="3" fill="#ff4f6d" opacity="0.44000000000000006"/><circle cx="613" cy="197" r="3" fill="#ff4f6d" opacity="0.49"/>
  <rect width="800" height="420" fill="#fffaf4"/><circle cx="540" cy="142" r="120" fill="#ff4f6d" opacity=".42"/><rect x="190" y="182" width="420" height="198" rx="22" fill="#f6bc42"/><rect x="190" y="124" width="420" height="70" rx="18" fill="#fffaf4"/><path d="M228 124l58 70M330 124l58 70M432 124l58 70M534 124l58 70" stroke="#fffaf4" stroke-width="20"/><rect x="244" y="254" width="312" height="18" rx="9" fill="#fffaf4" opacity=".16"/>
</svg>
