<svg xmlns="http://www.w3.org/2000/svg" viewBox="0 0 800 420" role="img" aria-label="Ilustracion propia de cine y rodaje para esta pregunta">
  <defs>
    <linearGradient id="bg" x1="0" x2="1" y1="0" y2="1">
      <stop stop-color="#15191d"/>
      <stop offset="1" stop-color="#15191d" stop-opacity="0.22"/>
    </linearGradient>
  </defs>
  <rect width="800" height="420" fill="url(#bg)"/>
  <circle cx="380" cy="238" r="112" fill="#fffaf4" opacity="0.13"/>
  <circle cx="281" cy="84" r="100" fill="#f6bc42" opacity="0.16"/>
  <circle cx="362" cy="119" r="4" fill="#ff4f6d" opacity="0.55"/><circle cx="669" cy="208" r="4" fill="#ff4f6d" opacity="0.54"/><circle cx="260" cy="297" r="4" fill="#ff4f6d" opacity="0.53"/><circle cx="567" cy="44" r="4" fill="#ff4f6d" opacity="0.52"/><circle cx="158" cy="133" r="4" fill="#ff4f6d" opacity="0.51"/><circle cx="465" cy="222" r="4" fill="#ff4f6d" opacity="0.5"/><circle cx="56" cy="312" r="4" fill="#ff4f6d" opacity="0.49"/><circle cx="363" cy="59" r="4" fill="#ff4f6d" opacity="0.48000000000000004"/><circle cx="670" cy="148" r="5" fill="#ff4f6d" opacity="0.47000000000000003"/>
  <rect width="800" height="420" fill="#fffaf4"/><circle cx="460" cy="194" r="120" fill="#ff4f6d" opacity=".42"/><rect x="190" y="182" width="420" height="198" rx="22" fill="#f6bc42"/><rect x="190" y="140" width="420" height="70" rx="18" fill="#fffaf4"/><path d="M228 140l58 70M330 140l58 70M432 140l58 70M534 140l58 70" stroke="#fffaf4" stroke-width="20"/><rect x="244" y="254" width="312" height="18" rx="9" fill="#fffaf4" opacity=".16"/>
</svg>
