<svg xmlns="http://www.w3.org/2000/svg" viewBox="0 0 800 420" role="img" aria-label="Ilustracion propia de cine y rodaje para esta pregunta">
  <defs>
    <linearGradient id="bg" x1="0" x2="1" y1="0" y2="1">
      <stop stop-color="#15191d"/>
      <stop offset="1" stop-color="#fffaf4" stop-opacity="0.22"/>
    </linearGradient>
  </defs>
  <rect width="800" height="420" fill="url(#bg)"/>
  <circle cx="275" cy="221" r="132" fill="#fffaf4" opacity="0.13"/>
  <circle cx="343" cy="189" r="112" fill="#f6bc42" opacity="0.16"/>
  <circle cx="143" cy="344" r="5" fill="#ff4f6d" opacity="0.5"/><circle cx="552" cy="255" r="5" fill="#ff4f6d" opacity="0.51"/><circle cx="245" cy="166" r="5" fill="#ff4f6d" opacity="0.52"/><circle cx="654" cy="76" r="5" fill="#ff4f6d" opacity="0.53"/><circle cx="347" cy="329" r="4" fill="#ff4f6d" opacity="0.54"/><circle cx="756" cy="240" r="4" fill="#ff4f6d" opacity="0.55"/><circle cx="449" cy="151" r="4" fill="#ff4f6d" opacity="0.56"/><circle cx="142" cy="62" r="4" fill="#ff4f6d" opacity="0.5700000000000001"/><circle cx="551" cy="315" r="4" fill="#ff4f6d" opacity="0.5800000000000001"/>
  <rect width="800" height="420" fill="#fffaf4"/><circle cx="460" cy="194" r="120" fill="#ff4f6d" opacity=".42"/><rect x="190" y="182" width="420" height="198" rx="22" fill="#f6bc42"/><rect x="190" y="140" width="420" height="70" rx="18" fill="#fffaf4"/><path d="M228 140l58 70M330 140l58 70M432 140l58 70M534 140l58 70" stroke="#fffaf4" stroke-width="20"/><rect x="244" y="254" width="312" height="18" rx="9" fill="#fffaf4" opacity=".16"/>
</svg>
