<svg xmlns="http://www.w3.org/2000/svg" viewBox="0 0 800 420" role="img" aria-label="Ilustracion propia de cine y rodaje para esta pregunta">
  <defs>
    <linearGradient id="bg" x1="0" x2="1" y1="0" y2="1">
      <stop stop-color="#15191d"/>
      <stop offset="1" stop-color="#f6bc42" stop-opacity="0.22"/>
    </linearGradient>
  </defs>
  <rect width="800" height="420" fill="url(#bg)"/>
  <circle cx="417" cy="236" r="89" fill="#fffaf4" opacity="0.13"/>
  <circle cx="361" cy="226" r="117" fill="#f6bc42" opacity="0.16"/>
  <circle cx="682" cy="296" r="2" fill="#ff4f6d" opacity="0.5900000000000001"/><circle cx="273" cy="43" r="2" fill="#ff4f6d" opacity="0.5800000000000001"/><circle cx="580" cy="132" r="2" fill="#ff4f6d" opacity="0.5700000000000001"/><circle cx="171" cy="221" r="2" fill="#ff4f6d" opacity="0.56"/><circle cx="654" cy="67" r="2" fill="#ff4f6d" opacity="0.49"/><circle cx="245" cy="157" r="2" fill="#ff4f6d" opacity="0.48000000000000004"/><circle cx="552" cy="246" r="2" fill="#ff4f6d" opacity="0.47000000000000003"/><circle cx="143" cy="335" r="2" fill="#ff4f6d" opacity="0.46"/><circle cx="274" cy="325" r="3" fill="#ff4f6d" opacity="0.51"/>
  <rect width="800" height="420" fill="#fffaf4"/><circle cx="580" cy="116" r="120" fill="#ff4f6d" opacity=".42"/><rect x="190" y="182" width="420" height="198" rx="22" fill="#f6bc42"/><rect x="190" y="116" width="420" height="70" rx="18" fill="#fffaf4"/><path d="M228 116l58 70M330 116l58 70M432 116l58 70M534 116l58 70" stroke="#fffaf4" stroke-width="20"/><rect x="244" y="254" width="312" height="18" rx="9" fill="#fffaf4" opacity=".16"/>
</svg>
