<svg xmlns="http://www.w3.org/2000/svg" viewBox="0 0 800 420" role="img" aria-label="Ilustracion propia de cine y rodaje para esta pregunta">
  <defs>
    <linearGradient id="bg" x1="0" x2="1" y1="0" y2="1">
      <stop stop-color="#15191d"/>
      <stop offset="1" stop-color="#fffaf4" stop-opacity="0.22"/>
    </linearGradient>
  </defs>
  <rect width="800" height="420" fill="url(#bg)"/>
  <circle cx="569" cy="278" r="78" fill="#fffaf4" opacity="0.13"/>
  <circle cx="530" cy="267" r="65" fill="#f6bc42" opacity="0.16"/>
  <circle cx="297" cy="187" r="5" fill="#ff4f6d" opacity="0.30000000000000004"/><circle cx="706" cy="97" r="5" fill="#ff4f6d" opacity="0.31000000000000005"/><circle cx="195" cy="365" r="5" fill="#ff4f6d" opacity="0.28"/><circle cx="604" cy="276" r="5" fill="#ff4f6d" opacity="0.29000000000000004"/><circle cx="501" cy="172" r="5" fill="#ff4f6d" opacity="0.34"/><circle cx="194" cy="83" r="5" fill="#ff4f6d" opacity="0.35000000000000003"/><circle cx="399" cy="350" r="5" fill="#ff4f6d" opacity="0.32"/><circle cx="92" cy="261" r="5" fill="#ff4f6d" opacity="0.33"/><circle cx="605" cy="216" r="5" fill="#ff4f6d" opacity="0.67"/>
  <rect width="800" height="420" fill="#fffaf4"/><circle cx="500" cy="168" r="120" fill="#ff4f6d" opacity=".42"/><rect x="190" y="182" width="420" height="198" rx="22" fill="#f6bc42"/><rect x="190" y="132" width="420" height="70" rx="18" fill="#fffaf4"/><path d="M228 132l58 70M330 132l58 70M432 132l58 70M534 132l58 70" stroke="#fffaf4" stroke-width="20"/><rect x="244" y="254" width="312" height="18" rx="9" fill="#fffaf4" opacity=".16"/>
</svg>
