<svg xmlns="http://www.w3.org/2000/svg" viewBox="0 0 800 420" role="img" aria-label="Ilustracion propia de cine y rodaje para esta pregunta">
  <defs>
    <linearGradient id="bg" x1="0" x2="1" y1="0" y2="1">
      <stop stop-color="#15191d"/>
      <stop offset="1" stop-color="#ff4f6d" stop-opacity="0.22"/>
    </linearGradient>
  </defs>
  <rect width="800" height="420" fill="url(#bg)"/>
  <circle cx="524" cy="197" r="111" fill="#fffaf4" opacity="0.13"/>
  <circle cx="599" cy="114" r="79" fill="#f6bc42" opacity="0.16"/>
  <circle cx="175" cy="101" r="2" fill="#ff4f6d" opacity="0.64"/><circle cx="584" cy="354" r="2" fill="#ff4f6d" opacity="0.65"/><circle cx="277" cy="265" r="2" fill="#ff4f6d" opacity="0.66"/><circle cx="686" cy="175" r="2" fill="#ff4f6d" opacity="0.67"/><circle cx="687" cy="115" r="2" fill="#ff4f6d" opacity="0.6000000000000001"/><circle cx="380" cy="368" r="2" fill="#ff4f6d" opacity="0.6100000000000001"/><circle cx="73" cy="279" r="2" fill="#ff4f6d" opacity="0.6200000000000001"/><circle cx="482" cy="190" r="2" fill="#ff4f6d" opacity="0.63"/><circle cx="483" cy="130" r="3" fill="#ff4f6d" opacity="0.56"/>
  <rect width="800" height="420" fill="#fffaf4"/><circle cx="500" cy="168" r="120" fill="#ff4f6d" opacity=".42"/><rect x="190" y="182" width="420" height="198" rx="22" fill="#f6bc42"/><rect x="190" y="132" width="420" height="70" rx="18" fill="#fffaf4"/><path d="M228 132l58 70M330 132l58 70M432 132l58 70M534 132l58 70" stroke="#fffaf4" stroke-width="20"/><rect x="244" y="254" width="312" height="18" rx="9" fill="#fffaf4" opacity=".16"/>
</svg>
