<svg xmlns="http://www.w3.org/2000/svg" viewBox="0 0 800 420" role="img" aria-label="Ilustracion propia de cine y rodaje para esta pregunta">
  <defs>
    <linearGradient id="bg" x1="0" x2="1" y1="0" y2="1">
      <stop stop-color="#15191d"/>
      <stop offset="1" stop-color="#ff4f6d" stop-opacity="0.22"/>
    </linearGradient>
  </defs>
  <rect width="800" height="420" fill="url(#bg)"/>
  <circle cx="122" cy="291" r="67" fill="#fffaf4" opacity="0.13"/>
  <circle cx="399" cy="233" r="64" fill="#f6bc42" opacity="0.16"/>
  <circle cx="628" cy="345" r="2" fill="#ff4f6d" opacity="0.5900000000000001"/><circle cx="219" cy="92" r="2" fill="#ff4f6d" opacity="0.5800000000000001"/><circle cx="730" cy="167" r="2" fill="#ff4f6d" opacity="0.6100000000000001"/><circle cx="321" cy="256" r="2" fill="#ff4f6d" opacity="0.6000000000000001"/><circle cx="116" cy="331" r="2" fill="#ff4f6d" opacity="0.63"/><circle cx="423" cy="78" r="2" fill="#ff4f6d" opacity="0.6200000000000001"/><circle cx="218" cy="152" r="2" fill="#ff4f6d" opacity="0.65"/><circle cx="525" cy="242" r="2" fill="#ff4f6d" opacity="0.64"/><circle cx="320" cy="316" r="2" fill="#ff4f6d" opacity="0.67"/>
  <rect width="800" height="420" fill="#fffaf4"/><circle cx="580" cy="116" r="120" fill="#ff4f6d" opacity=".42"/><rect x="190" y="182" width="420" height="198" rx="22" fill="#f6bc42"/><rect x="190" y="116" width="420" height="70" rx="18" fill="#fffaf4"/><path d="M228 116l58 70M330 116l58 70M432 116l58 70M534 116l58 70" stroke="#fffaf4" stroke-width="20"/><rect x="244" y="254" width="312" height="18" rx="9" fill="#fffaf4" opacity=".16"/>
</svg>
