<svg xmlns="http://www.w3.org/2000/svg" viewBox="0 0 800 420" role="img" aria-label="Ilustracion propia de cine y rodaje para esta pregunta">
  <defs>
    <linearGradient id="bg" x1="0" x2="1" y1="0" y2="1">
      <stop stop-color="#15191d"/>
      <stop offset="1" stop-color="#15191d" stop-opacity="0.22"/>
    </linearGradient>
  </defs>
  <rect width="800" height="420" fill="url(#bg)"/>
  <circle cx="170" cy="133" r="72" fill="#fffaf4" opacity="0.13"/>
  <circle cx="405" cy="285" r="105" fill="#f6bc42" opacity="0.16"/>
  <circle cx="330" cy="269" r="3" fill="#ff4f6d" opacity="0.28"/><circle cx="637" cy="358" r="3" fill="#ff4f6d" opacity="0.72"/><circle cx="228" cy="105" r="3" fill="#ff4f6d" opacity="0.71"/><circle cx="535" cy="194" r="3" fill="#ff4f6d" opacity="0.7"/><circle cx="126" cy="284" r="3" fill="#ff4f6d" opacity="0.69"/><circle cx="433" cy="373" r="3" fill="#ff4f6d" opacity="0.68"/><circle cx="740" cy="120" r="3" fill="#ff4f6d" opacity="0.67"/><circle cx="331" cy="209" r="3" fill="#ff4f6d" opacity="0.66"/><circle cx="738" cy="240" r="3" fill="#ff4f6d" opacity="0.36000000000000004"/>
  <rect width="800" height="420" fill="#fffaf4"/><circle cx="460" cy="194" r="120" fill="#ff4f6d" opacity=".42"/><rect x="190" y="182" width="420" height="198" rx="22" fill="#f6bc42"/><rect x="190" y="140" width="420" height="70" rx="18" fill="#fffaf4"/><path d="M228 140l58 70M330 140l58 70M432 140l58 70M534 140l58 70" stroke="#fffaf4" stroke-width="20"/><rect x="244" y="254" width="312" height="18" rx="9" fill="#fffaf4" opacity=".16"/>
</svg>
