<svg xmlns="http://www.w3.org/2000/svg" viewBox="0 0 800 420" role="img" aria-label="Ilustracion propia de cine y rodaje para esta pregunta">
  <defs>
    <linearGradient id="bg" x1="0" x2="1" y1="0" y2="1">
      <stop stop-color="#15191d"/>
      <stop offset="1" stop-color="#f6bc42" stop-opacity="0.22"/>
    </linearGradient>
  </defs>
  <rect width="800" height="420" fill="url(#bg)"/>
  <circle cx="660" cy="149" r="65" fill="#fffaf4" opacity="0.13"/>
  <circle cx="391" cy="287" r="64" fill="#f6bc42" opacity="0.16"/>
  <circle cx="710" cy="276" r="4" fill="#ff4f6d" opacity="0.43000000000000005"/><circle cx="301" cy="365" r="4" fill="#ff4f6d" opacity="0.42000000000000004"/><circle cx="608" cy="112" r="4" fill="#ff4f6d" opacity="0.41000000000000003"/><circle cx="199" cy="201" r="4" fill="#ff4f6d" opacity="0.4"/><circle cx="506" cy="290" r="4" fill="#ff4f6d" opacity="0.39"/><circle cx="97" cy="38" r="4" fill="#ff4f6d" opacity="0.38"/><circle cx="404" cy="127" r="4" fill="#ff4f6d" opacity="0.37"/><circle cx="711" cy="216" r="4" fill="#ff4f6d" opacity="0.36000000000000004"/><circle cx="302" cy="305" r="4" fill="#ff4f6d" opacity="0.35000000000000003"/>
  <rect width="800" height="420" fill="#fffaf4"/><circle cx="460" cy="194" r="120" fill="#ff4f6d" opacity=".42"/><rect x="190" y="182" width="420" height="198" rx="22" fill="#f6bc42"/><rect x="190" y="140" width="420" height="70" rx="18" fill="#fffaf4"/><path d="M228 140l58 70M330 140l58 70M432 140l58 70M534 140l58 70" stroke="#fffaf4" stroke-width="20"/><rect x="244" y="254" width="312" height="18" rx="9" fill="#fffaf4" opacity=".16"/>
</svg>
