<svg xmlns="http://www.w3.org/2000/svg" viewBox="0 0 800 420" role="img" aria-label="Ilustracion propia de historia y archivo para esta pregunta">
  <defs>
    <linearGradient id="bg" x1="0" x2="1" y1="0" y2="1">
      <stop stop-color="#fff4e4"/>
      <stop offset="1" stop-color="#15191d" stop-opacity="0.22"/>
    </linearGradient>
  </defs>
  <rect width="800" height="420" fill="url(#bg)"/>
  <circle cx="688" cy="107" r="132" fill="#15191d" opacity="0.13"/>
  <circle cx="245" cy="210" r="142" fill="#d9cec1" opacity="0.16"/>
  <circle cx="581" cy="51" r="4" fill="#f6bc42" opacity="0.5900000000000001"/><circle cx="274" cy="304" r="4" fill="#f6bc42" opacity="0.6000000000000001"/><circle cx="479" cy="230" r="4" fill="#f6bc42" opacity="0.5700000000000001"/><circle cx="172" cy="141" r="4" fill="#f6bc42" opacity="0.5800000000000001"/><circle cx="69" cy="37" r="4" fill="#f6bc42" opacity="0.63"/><circle cx="478" cy="290" r="4" fill="#f6bc42" opacity="0.64"/><circle cx="683" cy="215" r="4" fill="#f6bc42" opacity="0.6100000000000001"/><circle cx="376" cy="126" r="4" fill="#f6bc42" opacity="0.6200000000000001"/><circle cx="173" cy="81" r="4" fill="#f6bc42" opacity="0.51"/>
  <rect x="166" y="130" width="220" height="210" rx="18" fill="#fffaf4" stroke="#f6bc42" stroke-width="5"/><rect x="200" y="172" width="152" height="12" rx="6" fill="#15191d" opacity=".2"/><rect x="200" y="212" width="120" height="12" rx="6" fill="#15191d" opacity=".2"/><path d="M470 170h210L575 94z" fill="#15191d"/><rect x="500" y="190" width="32" height="120" rx="6" fill="#15191d"/><rect x="560" y="190" width="32" height="120" rx="6" fill="#15191d"/><rect x="620" y="190" width="32" height="120" rx="6" fill="#15191d"/>
</svg>
