<svg xmlns="http://www.w3.org/2000/svg" viewBox="0 0 800 420" role="img" aria-label="Ilustracion propia de cine y rodaje para esta pregunta">
  <defs>
    <linearGradient id="bg" x1="0" x2="1" y1="0" y2="1">
      <stop stop-color="#15191d"/>
      <stop offset="1" stop-color="#ff4f6d" stop-opacity="0.22"/>
    </linearGradient>
  </defs>
  <rect width="800" height="420" fill="url(#bg)"/>
  <circle cx="253" cy="124" r="101" fill="#fffaf4" opacity="0.13"/>
  <circle cx="115" cy="69" r="138" fill="#f6bc42" opacity="0.16"/>
  <circle cx="72" cy="332" r="3" fill="#ff4f6d" opacity="0.5700000000000001"/><circle cx="379" cy="79" r="3" fill="#ff4f6d" opacity="0.56"/><circle cx="174" cy="153" r="3" fill="#ff4f6d" opacity="0.5900000000000001"/><circle cx="481" cy="243" r="3" fill="#ff4f6d" opacity="0.5800000000000001"/><circle cx="584" cy="346" r="3" fill="#ff4f6d" opacity="0.53"/><circle cx="175" cy="93" r="3" fill="#ff4f6d" opacity="0.52"/><circle cx="686" cy="168" r="3" fill="#ff4f6d" opacity="0.55"/><circle cx="277" cy="257" r="3" fill="#ff4f6d" opacity="0.54"/><circle cx="380" cy="361" r="3" fill="#ff4f6d" opacity="0.49"/>
  <rect width="800" height="420" fill="#fffaf4"/><circle cx="540" cy="142" r="120" fill="#ff4f6d" opacity=".42"/><rect x="190" y="182" width="420" height="198" rx="22" fill="#f6bc42"/><rect x="190" y="124" width="420" height="70" rx="18" fill="#fffaf4"/><path d="M228 124l58 70M330 124l58 70M432 124l58 70M534 124l58 70" stroke="#fffaf4" stroke-width="20"/><rect x="244" y="254" width="312" height="18" rx="9" fill="#fffaf4" opacity=".16"/>
</svg>
