<svg xmlns="http://www.w3.org/2000/svg" viewBox="0 0 800 420" role="img" aria-label="Ilustracion propia de cine y rodaje para esta pregunta">
  <defs>
    <linearGradient id="bg" x1="0" x2="1" y1="0" y2="1">
      <stop stop-color="#15191d"/>
      <stop offset="1" stop-color="#ff4f6d" stop-opacity="0.22"/>
    </linearGradient>
  </defs>
  <rect width="800" height="420" fill="url(#bg)"/>
  <circle cx="663" cy="186" r="75" fill="#fffaf4" opacity="0.13"/>
  <circle cx="466" cy="327" r="135" fill="#f6bc42" opacity="0.16"/>
  <circle cx="390" cy="274" r="3" fill="#ff4f6d" opacity="0.71"/><circle cx="697" cy="363" r="3" fill="#ff4f6d" opacity="0.7"/><circle cx="288" cy="110" r="3" fill="#ff4f6d" opacity="0.69"/><circle cx="595" cy="199" r="3" fill="#ff4f6d" opacity="0.68"/><circle cx="186" cy="288" r="3" fill="#ff4f6d" opacity="0.67"/><circle cx="493" cy="377" r="3" fill="#ff4f6d" opacity="0.66"/><circle cx="84" cy="124" r="3" fill="#ff4f6d" opacity="0.65"/><circle cx="391" cy="214" r="3" fill="#ff4f6d" opacity="0.64"/><circle cx="82" cy="244" r="3" fill="#ff4f6d" opacity="0.34"/>
  <rect width="800" height="420" fill="#fffaf4"/><circle cx="540" cy="142" r="120" fill="#ff4f6d" opacity=".42"/><rect x="190" y="182" width="420" height="198" rx="22" fill="#f6bc42"/><rect x="190" y="124" width="420" height="70" rx="18" fill="#fffaf4"/><path d="M228 124l58 70M330 124l58 70M432 124l58 70M534 124l58 70" stroke="#fffaf4" stroke-width="20"/><rect x="244" y="254" width="312" height="18" rx="9" fill="#fffaf4" opacity=".16"/>
</svg>
