<svg xmlns="http://www.w3.org/2000/svg" viewBox="0 0 800 420" role="img" aria-label="Ilustracion propia de cine y rodaje para esta pregunta">
  <defs>
    <linearGradient id="bg" x1="0" x2="1" y1="0" y2="1">
      <stop stop-color="#15191d"/>
      <stop offset="1" stop-color="#ff4f6d" stop-opacity="0.22"/>
    </linearGradient>
  </defs>
  <rect width="800" height="420" fill="url(#bg)"/>
  <circle cx="244" cy="174" r="87" fill="#fffaf4" opacity="0.13"/>
  <circle cx="264" cy="183" r="136" fill="#f6bc42" opacity="0.16"/>
  <circle cx="432" cy="80" r="2" fill="#ff4f6d" opacity="0.36000000000000004"/><circle cx="739" cy="170" r="2" fill="#ff4f6d" opacity="0.35000000000000003"/><circle cx="534" cy="244" r="2" fill="#ff4f6d" opacity="0.38"/><circle cx="125" cy="333" r="2" fill="#ff4f6d" opacity="0.37"/><circle cx="228" cy="95" r="2" fill="#ff4f6d" opacity="0.32"/><circle cx="535" cy="184" r="2" fill="#ff4f6d" opacity="0.31000000000000005"/><circle cx="330" cy="259" r="2" fill="#ff4f6d" opacity="0.34"/><circle cx="637" cy="348" r="2" fill="#ff4f6d" opacity="0.33"/><circle cx="740" cy="110" r="2" fill="#ff4f6d" opacity="0.28"/>
  <rect width="800" height="420" fill="#fffaf4"/><circle cx="500" cy="168" r="120" fill="#ff4f6d" opacity=".42"/><rect x="190" y="182" width="420" height="198" rx="22" fill="#f6bc42"/><rect x="190" y="132" width="420" height="70" rx="18" fill="#fffaf4"/><path d="M228 132l58 70M330 132l58 70M432 132l58 70M534 132l58 70" stroke="#fffaf4" stroke-width="20"/><rect x="244" y="254" width="312" height="18" rx="9" fill="#fffaf4" opacity=".16"/>
</svg>
