<svg xmlns="http://www.w3.org/2000/svg" viewBox="0 0 800 420" role="img" aria-label="Ilustracion propia de cine y rodaje para esta pregunta">
  <defs>
    <linearGradient id="bg" x1="0" x2="1" y1="0" y2="1">
      <stop stop-color="#15191d"/>
      <stop offset="1" stop-color="#fffaf4" stop-opacity="0.22"/>
    </linearGradient>
  </defs>
  <rect width="800" height="420" fill="url(#bg)"/>
  <circle cx="331" cy="271" r="122" fill="#fffaf4" opacity="0.13"/>
  <circle cx="575" cy="266" r="91" fill="#f6bc42" opacity="0.16"/>
  <circle cx="163" cy="320" r="4" fill="#ff4f6d" opacity="0.29000000000000004"/><circle cx="572" cy="231" r="4" fill="#ff4f6d" opacity="0.30000000000000004"/><circle cx="265" cy="142" r="4" fill="#ff4f6d" opacity="0.31000000000000005"/><circle cx="674" cy="53" r="4" fill="#ff4f6d" opacity="0.32"/><circle cx="675" cy="335" r="4" fill="#ff4f6d" opacity="0.7"/><circle cx="368" cy="246" r="4" fill="#ff4f6d" opacity="0.71"/><circle cx="61" cy="156" r="4" fill="#ff4f6d" opacity="0.72"/><circle cx="470" cy="67" r="4" fill="#ff4f6d" opacity="0.28"/><circle cx="571" cy="291" r="4" fill="#ff4f6d" opacity="0.37"/>
  <rect width="800" height="420" fill="#fffaf4"/><circle cx="620" cy="90" r="120" fill="#ff4f6d" opacity=".42"/><rect x="190" y="182" width="420" height="198" rx="22" fill="#f6bc42"/><rect x="190" y="108" width="420" height="70" rx="18" fill="#fffaf4"/><path d="M228 108l58 70M330 108l58 70M432 108l58 70M534 108l58 70" stroke="#fffaf4" stroke-width="20"/><rect x="244" y="254" width="312" height="18" rx="9" fill="#fffaf4" opacity=".16"/>
</svg>
