<svg xmlns="http://www.w3.org/2000/svg" viewBox="0 0 800 420" role="img" aria-label="Ilustracion propia de cine y rodaje para esta pregunta">
  <defs>
    <linearGradient id="bg" x1="0" x2="1" y1="0" y2="1">
      <stop stop-color="#15191d"/>
      <stop offset="1" stop-color="#fffaf4" stop-opacity="0.22"/>
    </linearGradient>
  </defs>
  <rect width="800" height="420" fill="url(#bg)"/>
  <circle cx="360" cy="77" r="116" fill="#fffaf4" opacity="0.13"/>
  <circle cx="654" cy="171" r="70" fill="#f6bc42" opacity="0.16"/>
  <circle cx="525" cy="48" r="3" fill="#ff4f6d" opacity="0.5800000000000001"/><circle cx="218" cy="301" r="3" fill="#ff4f6d" opacity="0.5900000000000001"/><circle cx="423" cy="226" r="3" fill="#ff4f6d" opacity="0.56"/><circle cx="116" cy="137" r="3" fill="#ff4f6d" opacity="0.5700000000000001"/><circle cx="729" cy="376" r="3" fill="#ff4f6d" opacity="0.6200000000000001"/><circle cx="422" cy="286" r="3" fill="#ff4f6d" opacity="0.63"/><circle cx="627" cy="212" r="3" fill="#ff4f6d" opacity="0.6000000000000001"/><circle cx="320" cy="123" r="3" fill="#ff4f6d" opacity="0.6100000000000001"/><circle cx="217" cy="361" r="3" fill="#ff4f6d" opacity="0.66"/>
  <rect width="800" height="420" fill="#fffaf4"/><circle cx="460" cy="194" r="120" fill="#ff4f6d" opacity=".42"/><rect x="190" y="182" width="420" height="198" rx="22" fill="#f6bc42"/><rect x="190" y="140" width="420" height="70" rx="18" fill="#fffaf4"/><path d="M228 140l58 70M330 140l58 70M432 140l58 70M534 140l58 70" stroke="#fffaf4" stroke-width="20"/><rect x="244" y="254" width="312" height="18" rx="9" fill="#fffaf4" opacity=".16"/>
</svg>
