<svg xmlns="http://www.w3.org/2000/svg" viewBox="0 0 800 420" role="img" aria-label="Ilustracion propia de oceano y olas para esta pregunta">
  <defs>
    <linearGradient id="bg" x1="0" x2="1" y1="0" y2="1">
      <stop stop-color="#dff8ff"/>
      <stop offset="1" stop-color="#12b7a6" stop-opacity="0.22"/>
    </linearGradient>
  </defs>
  <rect width="800" height="420" fill="url(#bg)"/>
  <circle cx="355" cy="204" r="70" fill="#12b7a6" opacity="0.13"/>
  <circle cx="203" cy="187" r="134" fill="#315be8" opacity="0.16"/>
  <circle cx="76" cy="76" r="4" fill="#fffaf4" opacity="0.41000000000000003"/><circle cx="383" cy="165" r="4" fill="#fffaf4" opacity="0.4"/><circle cx="178" cy="239" r="4" fill="#fffaf4" opacity="0.43000000000000005"/><circle cx="485" cy="328" r="4" fill="#fffaf4" opacity="0.42000000000000004"/><circle cx="104" cy="304" r="4" fill="#fffaf4" opacity="0.51"/><circle cx="411" cy="51" r="4" fill="#fffaf4" opacity="0.5"/><circle cx="206" cy="126" r="4" fill="#fffaf4" opacity="0.53"/><circle cx="513" cy="215" r="4" fill="#fffaf4" opacity="0.52"/><circle cx="484" cy="46" r="4" fill="#fffaf4" opacity="0.49"/>
  <path d="M0 240c88-42 144 42 232 0s144 42 232 0 144 42 232 0 144 42 232 0v180H0z" fill="#fff" opacity=".34"/><path d="M0 326c88-42 144 42 232 0s144 42 232 0 144 42 232 0 144 42 232 0" fill="none" stroke="#fff" stroke-width="18" opacity=".62"/><path d="M142 174c82-44 170-44 252 0" fill="none" stroke="#fff" stroke-width="10" opacity=".45" stroke-linecap="round"/>
</svg>
