<svg xmlns="http://www.w3.org/2000/svg" viewBox="0 0 800 420" role="img" aria-label="Ilustracion propia de cancha de baloncesto para esta pregunta">
  <defs>
    <linearGradient id="bg" x1="0" x2="1" y1="0" y2="1">
      <stop stop-color="#fff1df"/>
      <stop offset="1" stop-color="#f6bc42" stop-opacity="0.22"/>
    </linearGradient>
  </defs>
  <rect width="800" height="420" fill="url(#bg)"/>
  <circle cx="281" cy="125" r="90" fill="#f6bc42" opacity="0.13"/>
  <circle cx="494" cy="141" r="67" fill="#d95a35" opacity="0.16"/>
  <circle cx="729" cy="292" r="2" fill="#15191d" opacity="0.32"/><circle cx="422" cy="203" r="2" fill="#15191d" opacity="0.33"/><circle cx="627" cy="128" r="2" fill="#15191d" opacity="0.30000000000000004"/><circle cx="320" cy="39" r="2" fill="#15191d" opacity="0.31000000000000005"/><circle cx="217" cy="277" r="2" fill="#15191d" opacity="0.36000000000000004"/><circle cx="626" cy="188" r="2" fill="#15191d" opacity="0.37"/><circle cx="115" cy="113" r="2" fill="#15191d" opacity="0.34"/><circle cx="524" cy="366" r="2" fill="#15191d" opacity="0.35000000000000003"/><circle cx="421" cy="262" r="2" fill="#15191d" opacity="0.4"/>
  <rect x="76" y="58" width="648" height="304" rx="30" fill="#d95a35"/><path d="M100 210h600M400 58v304" stroke="#fffaf4" stroke-width="8" opacity=".8"/><circle cx="400" cy="210" r="52" fill="none" stroke="#fffaf4" stroke-width="8" opacity=".8"/><circle cx="180" cy="150" r="42" fill="#15191d"/><path d="M138 150h84M180 108v84" stroke="#f6bc42" stroke-width="5" fill="none"/>
</svg>
