<svg xmlns="http://www.w3.org/2000/svg" viewBox="0 0 800 420" role="img" aria-label="Ilustracion propia de cancha de baloncesto para esta pregunta">
  <defs>
    <linearGradient id="bg" x1="0" x2="1" y1="0" y2="1">
      <stop stop-color="#fff1df"/>
      <stop offset="1" stop-color="#f6bc42" stop-opacity="0.22"/>
    </linearGradient>
  </defs>
  <rect width="800" height="420" fill="url(#bg)"/>
  <circle cx="429" cy="75" r="110" fill="#f6bc42" opacity="0.13"/>
  <circle cx="212" cy="99" r="69" fill="#d95a35" opacity="0.16"/>
  <circle cx="352" cy="255" r="5" fill="#15191d" opacity="0.7"/><circle cx="659" cy="344" r="5" fill="#15191d" opacity="0.69"/><circle cx="454" cy="77" r="5" fill="#15191d" opacity="0.72"/><circle cx="45" cy="166" r="5" fill="#15191d" opacity="0.71"/><circle cx="556" cy="241" r="5" fill="#15191d" opacity="0.29000000000000004"/><circle cx="147" cy="330" r="5" fill="#15191d" opacity="0.28"/><circle cx="658" cy="62" r="5" fill="#15191d" opacity="0.31000000000000005"/><circle cx="249" cy="151" r="5" fill="#15191d" opacity="0.30000000000000004"/><circle cx="44" cy="226" r="5" fill="#15191d" opacity="0.33"/>
  <rect x="76" y="58" width="648" height="304" rx="30" fill="#d95a35"/><path d="M100 210h600M400 58v304" stroke="#fffaf4" stroke-width="8" opacity=".8"/><circle cx="400" cy="210" r="73" fill="none" stroke="#fffaf4" stroke-width="8" opacity=".8"/><circle cx="432" cy="222" r="42" fill="#15191d"/><path d="M390 222h84M432 180v84" stroke="#f6bc42" stroke-width="5" fill="none"/>
</svg>
