<svg xmlns="http://www.w3.org/2000/svg" viewBox="0 0 800 420" role="img" aria-label="Ilustracion propia de estadio y futbol generico para esta pregunta">
  <defs>
    <linearGradient id="bg" x1="0" x2="1" y1="0" y2="1">
      <stop stop-color="#eaf8f5"/>
      <stop offset="1" stop-color="#26b99f" stop-opacity="0.22"/>
    </linearGradient>
  </defs>
  <rect width="800" height="420" fill="url(#bg)"/>
  <circle cx="306" cy="223" r="78" fill="#26b99f" opacity="0.13"/>
  <circle cx="647" cy="153" r="125" fill="#f6bc42" opacity="0.16"/>
  <circle cx="256" cy="57" r="5" fill="#15191d" opacity="0.30000000000000004"/><circle cx="563" cy="146" r="5" fill="#15191d" opacity="0.29000000000000004"/><circle cx="358" cy="220" r="5" fill="#15191d" opacity="0.32"/><circle cx="665" cy="309" r="5" fill="#15191d" opacity="0.31000000000000005"/><circle cx="52" cy="71" r="5" fill="#15191d" opacity="0.71"/><circle cx="359" cy="160" r="5" fill="#15191d" opacity="0.7"/><circle cx="154" cy="235" r="5" fill="#15191d" opacity="0.28"/><circle cx="461" cy="324" r="5" fill="#15191d" opacity="0.72"/><circle cx="664" cy="369" r="5" fill="#15191d" opacity="0.38"/>
  <rect x="118" y="78" width="564" height="264" rx="26" fill="#f6bc42"/><path d="M400 78v264M118 210h564" stroke="#fff" stroke-width="7" opacity=".76"/><circle cx="400" cy="210" r="58" fill="none" stroke="#fff" stroke-width="7" opacity=".76"/><circle cx="220" cy="164" r="32" fill="#fff"/><path d="M188 164h64M220 132v64" stroke="#26b99f" stroke-width="5" opacity=".5"/>
</svg>
