<svg xmlns="http://www.w3.org/2000/svg" viewBox="0 0 800 420" role="img" aria-label="Ilustracion propia de tecnologia para esta pregunta">
  <defs>
    <linearGradient id="bg" x1="0" x2="1" y1="0" y2="1">
      <stop stop-color="#111820"/>
      <stop offset="1" stop-color="#fffaf4" stop-opacity="0.22"/>
    </linearGradient>
  </defs>
  <rect width="800" height="420" fill="url(#bg)"/>
  <circle cx="108" cy="210" r="64" fill="#fffaf4" opacity="0.13"/>
  <circle cx="322" cy="259" r="74" fill="#315be8" opacity="0.16"/>
  <circle cx="392" cy="164" r="2" fill="#12b7a6" opacity="0.32"/><circle cx="699" cy="253" r="2" fill="#12b7a6" opacity="0.31000000000000005"/><circle cx="494" cy="327" r="2" fill="#12b7a6" opacity="0.34"/><circle cx="85" cy="74" r="2" fill="#12b7a6" opacity="0.33"/><circle cx="596" cy="149" r="2" fill="#12b7a6" opacity="0.36000000000000004"/><circle cx="187" cy="238" r="2" fill="#12b7a6" opacity="0.35000000000000003"/><circle cx="698" cy="313" r="2" fill="#12b7a6" opacity="0.38"/><circle cx="289" cy="60" r="2" fill="#12b7a6" opacity="0.37"/><circle cx="700" cy="193" r="3" fill="#12b7a6" opacity="0.69"/>
  <rect width="800" height="420" fill="#fffaf4"/><rect x="108" y="72" width="584" height="276" rx="28" fill="#315be8"/><rect x="108" y="72" width="584" height="58" rx="28" fill="#12b7a6"/><path d="M234 206l-62 44 62 44M566 206l62 44-62 44" stroke="#fffaf4" stroke-width="20" stroke-linecap="round" stroke-linejoin="round" fill="none"/><path d="M364 306l72-184" stroke="#12b7a6" stroke-width="18" stroke-linecap="round"/>
</svg>
