<svg xmlns="http://www.w3.org/2000/svg" viewBox="0 0 800 420" role="img" aria-label="Ilustracion propia de cancha de baloncesto para esta pregunta">
  <defs>
    <linearGradient id="bg" x1="0" x2="1" y1="0" y2="1">
      <stop stop-color="#fff1df"/>
      <stop offset="1" stop-color="#15191d" stop-opacity="0.22"/>
    </linearGradient>
  </defs>
  <rect width="800" height="420" fill="url(#bg)"/>
  <circle cx="183" cy="75" r="69" fill="#f6bc42" opacity="0.13"/>
  <circle cx="406" cy="99" r="94" fill="#d95a35" opacity="0.16"/>
  <circle cx="485" cy="111" r="3" fill="#15191d" opacity="0.64"/><circle cx="178" cy="364" r="3" fill="#15191d" opacity="0.65"/><circle cx="383" cy="289" r="3" fill="#15191d" opacity="0.6200000000000001"/><circle cx="76" cy="200" r="3" fill="#15191d" opacity="0.63"/><circle cx="281" cy="126" r="3" fill="#15191d" opacity="0.6000000000000001"/><circle cx="690" cy="37" r="3" fill="#15191d" opacity="0.6100000000000001"/><circle cx="179" cy="304" r="3" fill="#15191d" opacity="0.5800000000000001"/><circle cx="588" cy="215" r="3" fill="#15191d" opacity="0.5900000000000001"/><circle cx="177" cy="82" r="3" fill="#15191d" opacity="0.72"/>
  <rect x="76" y="58" width="648" height="304" rx="30" fill="#d95a35"/><path d="M100 210h600M400 58v304" stroke="#fffaf4" stroke-width="8" opacity=".8"/><circle cx="400" cy="210" r="66" fill="none" stroke="#fffaf4" stroke-width="8" opacity=".8"/><circle cx="348" cy="198" r="42" fill="#15191d"/><path d="M306 198h84M348 156v84" stroke="#f6bc42" stroke-width="5" fill="none"/>
</svg>
