<svg xmlns="http://www.w3.org/2000/svg" viewBox="0 0 800 420" role="img" aria-label="Ilustracion propia de oceano y olas para esta pregunta">
  <defs>
    <linearGradient id="bg" x1="0" x2="1" y1="0" y2="1">
      <stop stop-color="#dff8ff"/>
      <stop offset="1" stop-color="#fffaf4" stop-opacity="0.22"/>
    </linearGradient>
  </defs>
  <rect width="800" height="420" fill="url(#bg)"/>
  <circle cx="143" cy="242" r="85" fill="#12b7a6" opacity="0.13"/>
  <circle cx="251" cy="156" r="116" fill="#315be8" opacity="0.16"/>
  <circle cx="499" cy="301" r="4" fill="#fffaf4" opacity="0.47000000000000003"/><circle cx="192" cy="212" r="4" fill="#fffaf4" opacity="0.48000000000000004"/><circle cx="601" cy="122" r="4" fill="#fffaf4" opacity="0.49"/><circle cx="294" cy="375" r="4" fill="#fffaf4" opacity="0.5"/><circle cx="703" cy="286" r="4" fill="#fffaf4" opacity="0.51"/><circle cx="396" cy="197" r="4" fill="#fffaf4" opacity="0.52"/><circle cx="89" cy="108" r="4" fill="#fffaf4" opacity="0.53"/><circle cx="498" cy="361" r="4" fill="#fffaf4" opacity="0.54"/><circle cx="191" cy="272" r="4" fill="#fffaf4" opacity="0.55"/>
  <path d="M0 240c88-42 144 42 232 0s144 42 232 0 144 42 232 0 144 42 232 0v180H0z" fill="#fff" opacity=".34"/><path d="M0 306c88-42 144 42 232 0s144 42 232 0 144 42 232 0 144 42 232 0" fill="none" stroke="#fff" stroke-width="18" opacity=".62"/><path d="M142 174c82-44 170-44 252 0" fill="none" stroke="#fff" stroke-width="10" opacity=".45" stroke-linecap="round"/>
</svg>
