<svg xmlns="http://www.w3.org/2000/svg" viewBox="0 0 800 420" role="img" aria-label="Ilustracion propia de oceano y olas para esta pregunta">
  <defs>
    <linearGradient id="bg" x1="0" x2="1" y1="0" y2="1">
      <stop stop-color="#dff8ff"/>
      <stop offset="1" stop-color="#fffaf4" stop-opacity="0.22"/>
    </linearGradient>
  </defs>
  <rect width="800" height="420" fill="url(#bg)"/>
  <circle cx="450" cy="286" r="95" fill="#12b7a6" opacity="0.13"/>
  <circle cx="515" cy="268" r="137" fill="#315be8" opacity="0.16"/>
  <circle cx="539" cy="222" r="5" fill="#fffaf4" opacity="0.5700000000000001"/><circle cx="232" cy="132" r="5" fill="#fffaf4" opacity="0.5800000000000001"/><circle cx="641" cy="43" r="5" fill="#fffaf4" opacity="0.5900000000000001"/><circle cx="334" cy="296" r="5" fill="#fffaf4" opacity="0.6000000000000001"/><circle cx="335" cy="236" r="5" fill="#fffaf4" opacity="0.53"/><circle cx="744" cy="147" r="5" fill="#fffaf4" opacity="0.54"/><circle cx="437" cy="58" r="5" fill="#fffaf4" opacity="0.55"/><circle cx="130" cy="311" r="5" fill="#fffaf4" opacity="0.56"/><circle cx="231" cy="192" r="5" fill="#fffaf4" opacity="0.65"/>
  <path d="M0 240c88-42 144 42 232 0s144 42 232 0 144 42 232 0 144 42 232 0v180H0z" fill="#fff" opacity=".34"/><path d="M0 326c88-42 144 42 232 0s144 42 232 0 144 42 232 0 144 42 232 0" fill="none" stroke="#fff" stroke-width="18" opacity=".62"/><path d="M142 174c82-44 170-44 252 0" fill="none" stroke="#fff" stroke-width="10" opacity=".45" stroke-linecap="round"/>
</svg>
