<svg xmlns="http://www.w3.org/2000/svg" viewBox="0 0 800 420" role="img" aria-label="Ilustracion propia de oceano y olas para esta pregunta">
  <defs>
    <linearGradient id="bg" x1="0" x2="1" y1="0" y2="1">
      <stop stop-color="#dff8ff"/>
      <stop offset="1" stop-color="#12b7a6" stop-opacity="0.22"/>
    </linearGradient>
  </defs>
  <rect width="800" height="420" fill="url(#bg)"/>
  <circle cx="322" cy="273" r="126" fill="#12b7a6" opacity="0.13"/>
  <circle cx="199" cy="338" r="71" fill="#315be8" opacity="0.16"/>
  <circle cx="652" cy="65" r="4" fill="#fffaf4" opacity="0.7"/><circle cx="243" cy="154" r="4" fill="#fffaf4" opacity="0.69"/><circle cx="754" cy="229" r="4" fill="#fffaf4" opacity="0.72"/><circle cx="345" cy="318" r="4" fill="#fffaf4" opacity="0.71"/><circle cx="448" cy="79" r="4" fill="#fffaf4" opacity="0.66"/><circle cx="755" cy="169" r="5" fill="#fffaf4" opacity="0.65"/><circle cx="550" cy="243" r="4" fill="#fffaf4" opacity="0.68"/><circle cx="141" cy="332" r="4" fill="#fffaf4" opacity="0.67"/><circle cx="244" cy="94" r="5" fill="#fffaf4" opacity="0.6200000000000001"/>
  <path d="M0 240c88-42 144 42 232 0s144 42 232 0 144 42 232 0 144 42 232 0v180H0z" fill="#fff" opacity=".34"/><path d="M0 296c88-42 144 42 232 0s144 42 232 0 144 42 232 0 144 42 232 0" fill="none" stroke="#fff" stroke-width="18" opacity=".62"/><path d="M142 174c82-44 170-44 252 0" fill="none" stroke="#fff" stroke-width="10" opacity=".45" stroke-linecap="round"/>
</svg>
