<svg xmlns="http://www.w3.org/2000/svg" viewBox="0 0 800 420" role="img" aria-label="Ilustracion propia de oceano y olas para esta pregunta">
  <defs>
    <linearGradient id="bg" x1="0" x2="1" y1="0" y2="1">
      <stop stop-color="#dff8ff"/>
      <stop offset="1" stop-color="#315be8" stop-opacity="0.22"/>
    </linearGradient>
  </defs>
  <rect width="800" height="420" fill="url(#bg)"/>
  <circle cx="407" cy="95" r="111" fill="#12b7a6" opacity="0.13"/>
  <circle cx="509" cy="209" r="79" fill="#315be8" opacity="0.16"/>
  <circle cx="224" cy="299" r="2" fill="#fffaf4" opacity="0.45000000000000007"/><circle cx="531" cy="46" r="2" fill="#fffaf4" opacity="0.44000000000000006"/><circle cx="326" cy="120" r="2" fill="#fffaf4" opacity="0.47000000000000003"/><circle cx="633" cy="210" r="2" fill="#fffaf4" opacity="0.46"/><circle cx="736" cy="313" r="2" fill="#fffaf4" opacity="0.41000000000000003"/><circle cx="327" cy="60" r="2" fill="#fffaf4" opacity="0.4"/><circle cx="122" cy="135" r="2" fill="#fffaf4" opacity="0.43000000000000005"/><circle cx="429" cy="224" r="2" fill="#fffaf4" opacity="0.42000000000000004"/><circle cx="532" cy="328" r="3" fill="#fffaf4" opacity="0.37"/>
  <path d="M0 240c88-42 144 42 232 0s144 42 232 0 144 42 232 0 144 42 232 0v180H0z" fill="#fff" opacity=".34"/><path d="M0 296c88-42 144 42 232 0s144 42 232 0 144 42 232 0 144 42 232 0" fill="none" stroke="#fff" stroke-width="18" opacity=".62"/><path d="M142 174c82-44 170-44 252 0" fill="none" stroke="#fff" stroke-width="10" opacity=".45" stroke-linecap="round"/>
</svg>
