<svg xmlns="http://www.w3.org/2000/svg" viewBox="0 0 800 420" role="img" aria-label="Ilustracion propia de oceano y olas para esta pregunta">
  <defs>
    <linearGradient id="bg" x1="0" x2="1" y1="0" y2="1">
      <stop stop-color="#dff8ff"/>
      <stop offset="1" stop-color="#dff8ff" stop-opacity="0.22"/>
    </linearGradient>
  </defs>
  <rect width="800" height="420" fill="url(#bg)"/>
  <circle cx="180" cy="143" r="104" fill="#12b7a6" opacity="0.13"/>
  <circle cx="181" cy="179" r="69" fill="#315be8" opacity="0.16"/>
  <circle cx="57" cy="299" r="2" fill="#fffaf4" opacity="0.42000000000000004"/><circle cx="466" cy="210" r="2" fill="#fffaf4" opacity="0.43000000000000005"/><circle cx="671" cy="135" r="2" fill="#fffaf4" opacity="0.4"/><circle cx="364" cy="46" r="2" fill="#fffaf4" opacity="0.41000000000000003"/><circle cx="261" cy="284" r="2" fill="#fffaf4" opacity="0.46"/><circle cx="670" cy="195" r="2" fill="#fffaf4" opacity="0.47000000000000003"/><circle cx="159" cy="121" r="2" fill="#fffaf4" opacity="0.44000000000000006"/><circle cx="568" cy="373" r="2" fill="#fffaf4" opacity="0.45000000000000007"/><circle cx="465" cy="270" r="2" fill="#fffaf4" opacity="0.5"/>
  <path d="M0 240c88-42 144 42 232 0s144 42 232 0 144 42 232 0 144 42 232 0v180H0z" fill="#fff" opacity=".34"/><path d="M0 326c88-42 144 42 232 0s144 42 232 0 144 42 232 0 144 42 232 0" fill="none" stroke="#fff" stroke-width="18" opacity=".62"/><path d="M142 174c82-44 170-44 252 0" fill="none" stroke="#fff" stroke-width="10" opacity=".45" stroke-linecap="round"/>
</svg>
