<svg xmlns="http://www.w3.org/2000/svg" viewBox="0 0 800 420" role="img" aria-label="Ilustracion propia de oceano y olas para esta pregunta">
  <defs>
    <linearGradient id="bg" x1="0" x2="1" y1="0" y2="1">
      <stop stop-color="#dff8ff"/>
      <stop offset="1" stop-color="#315be8" stop-opacity="0.22"/>
    </linearGradient>
  </defs>
  <rect width="800" height="420" fill="url(#bg)"/>
  <circle cx="488" cy="138" r="87" fill="#12b7a6" opacity="0.13"/>
  <circle cx="520" cy="107" r="86" fill="#315be8" opacity="0.16"/>
  <circle cx="90" cy="217" r="3" fill="#fffaf4" opacity="0.39"/><circle cx="397" cy="306" r="3" fill="#fffaf4" opacity="0.38"/><circle cx="704" cy="53" r="3" fill="#fffaf4" opacity="0.37"/><circle cx="295" cy="142" r="3" fill="#fffaf4" opacity="0.36000000000000004"/><circle cx="602" cy="231" r="3" fill="#fffaf4" opacity="0.35000000000000003"/><circle cx="193" cy="320" r="3" fill="#fffaf4" opacity="0.34"/><circle cx="500" cy="67" r="3" fill="#fffaf4" opacity="0.33"/><circle cx="91" cy="157" r="3" fill="#fffaf4" opacity="0.32"/><circle cx="398" cy="246" r="3" fill="#fffaf4" opacity="0.31000000000000005"/>
  <path d="M0 240c88-42 144 42 232 0s144 42 232 0 144 42 232 0 144 42 232 0v180H0z" fill="#fff" opacity=".34"/><path d="M0 306c88-42 144 42 232 0s144 42 232 0 144 42 232 0 144 42 232 0" fill="none" stroke="#fff" stroke-width="18" opacity=".62"/><path d="M142 174c82-44 170-44 252 0" fill="none" stroke="#fff" stroke-width="10" opacity=".45" stroke-linecap="round"/>
</svg>
