<svg xmlns="http://www.w3.org/2000/svg" viewBox="0 0 800 420" role="img" aria-label="Ilustracion propia de oceano y olas para esta pregunta">
  <defs>
    <linearGradient id="bg" x1="0" x2="1" y1="0" y2="1">
      <stop stop-color="#dff8ff"/>
      <stop offset="1" stop-color="#fffaf4" stop-opacity="0.22"/>
    </linearGradient>
  </defs>
  <rect width="800" height="420" fill="url(#bg)"/>
  <circle cx="189" cy="171" r="129" fill="#12b7a6" opacity="0.13"/>
  <circle cx="332" cy="75" r="112" fill="#315be8" opacity="0.16"/>
  <circle cx="257" cy="193" r="5" fill="#fffaf4" opacity="0.5"/><circle cx="666" cy="104" r="5" fill="#fffaf4" opacity="0.51"/><circle cx="155" cy="372" r="2" fill="#fffaf4" opacity="0.48000000000000004"/><circle cx="564" cy="282" r="5" fill="#fffaf4" opacity="0.49"/><circle cx="461" cy="179" r="5" fill="#fffaf4" opacity="0.54"/><circle cx="154" cy="90" r="5" fill="#fffaf4" opacity="0.55"/><circle cx="359" cy="357" r="5" fill="#fffaf4" opacity="0.52"/><circle cx="52" cy="268" r="5" fill="#fffaf4" opacity="0.53"/><circle cx="565" cy="222" r="2" fill="#fffaf4" opacity="0.42000000000000004"/>
  <path d="M0 240c88-42 144 42 232 0s144 42 232 0 144 42 232 0 144 42 232 0v180H0z" fill="#fff" opacity=".34"/><path d="M0 316c88-42 144 42 232 0s144 42 232 0 144 42 232 0 144 42 232 0" fill="none" stroke="#fff" stroke-width="18" opacity=".62"/><path d="M142 174c82-44 170-44 252 0" fill="none" stroke="#fff" stroke-width="10" opacity=".45" stroke-linecap="round"/>
</svg>
