<svg xmlns="http://www.w3.org/2000/svg" viewBox="0 0 800 420" role="img" aria-label="Ilustracion propia de oceano y olas para esta pregunta">
  <defs>
    <linearGradient id="bg" x1="0" x2="1" y1="0" y2="1">
      <stop stop-color="#dff8ff"/>
      <stop offset="1" stop-color="#fffaf4" stop-opacity="0.22"/>
    </linearGradient>
  </defs>
  <rect width="800" height="420" fill="url(#bg)"/>
  <circle cx="439" cy="65" r="113" fill="#12b7a6" opacity="0.13"/>
  <circle cx="588" cy="241" r="110" fill="#315be8" opacity="0.16"/>
  <circle cx="90" cy="118" r="5" fill="#fffaf4" opacity="0.53"/><circle cx="397" cy="207" r="5" fill="#fffaf4" opacity="0.52"/><circle cx="704" cy="297" r="5" fill="#fffaf4" opacity="0.51"/><circle cx="527" cy="258" r="5" fill="#fffaf4" opacity="0.64"/><circle cx="118" cy="347" r="5" fill="#fffaf4" opacity="0.63"/><circle cx="425" cy="94" r="5" fill="#fffaf4" opacity="0.6200000000000001"/><circle cx="732" cy="183" r="5" fill="#fffaf4" opacity="0.6100000000000001"/><circle cx="323" cy="272" r="5" fill="#fffaf4" opacity="0.6000000000000001"/><circle cx="498" cy="89" r="5" fill="#fffaf4" opacity="0.6100000000000001"/>
  <path d="M0 240c88-42 144 42 232 0s144 42 232 0 144 42 232 0 144 42 232 0v180H0z" fill="#fff" opacity=".34"/><path d="M0 316c88-42 144 42 232 0s144 42 232 0 144 42 232 0 144 42 232 0" fill="none" stroke="#fff" stroke-width="18" opacity=".62"/><path d="M142 174c82-44 170-44 252 0" fill="none" stroke="#fff" stroke-width="10" opacity=".45" stroke-linecap="round"/>
</svg>
