<svg xmlns="http://www.w3.org/2000/svg" viewBox="0 0 800 420" role="img" aria-label="Ilustracion propia de oceano y olas para esta pregunta">
  <defs>
    <linearGradient id="bg" x1="0" x2="1" y1="0" y2="1">
      <stop stop-color="#dff8ff"/>
      <stop offset="1" stop-color="#12b7a6" stop-opacity="0.22"/>
    </linearGradient>
  </defs>
  <rect width="800" height="420" fill="url(#bg)"/>
  <circle cx="154" cy="278" r="128" fill="#12b7a6" opacity="0.13"/>
  <circle cx="178" cy="124" r="72" fill="#315be8" opacity="0.16"/>
  <circle cx="748" cy="219" r="3" fill="#fffaf4" opacity="0.45000000000000007"/><circle cx="339" cy="308" r="3" fill="#fffaf4" opacity="0.44000000000000006"/><circle cx="134" cy="41" r="3" fill="#fffaf4" opacity="0.47000000000000003"/><circle cx="441" cy="130" r="3" fill="#fffaf4" opacity="0.46"/><circle cx="236" cy="204" r="3" fill="#fffaf4" opacity="0.49"/><circle cx="543" cy="294" r="3" fill="#fffaf4" opacity="0.48000000000000004"/><circle cx="338" cy="368" r="3" fill="#fffaf4" opacity="0.51"/><circle cx="645" cy="115" r="3" fill="#fffaf4" opacity="0.5"/><circle cx="440" cy="190" r="3" fill="#fffaf4" opacity="0.53"/>
  <path d="M0 240c88-42 144 42 232 0s144 42 232 0 144 42 232 0 144 42 232 0v180H0z" fill="#fff" opacity=".34"/><path d="M0 316c88-42 144 42 232 0s144 42 232 0 144 42 232 0 144 42 232 0" fill="none" stroke="#fff" stroke-width="18" opacity=".62"/><path d="M142 174c82-44 170-44 252 0" fill="none" stroke="#fff" stroke-width="10" opacity=".45" stroke-linecap="round"/>
</svg>
