<svg xmlns="http://www.w3.org/2000/svg" viewBox="0 0 800 420" role="img" aria-label="Ilustracion propia de naturaleza para esta pregunta">
  <defs>
    <linearGradient id="bg" x1="0" x2="1" y1="0" y2="1">
      <stop stop-color="#ecfbef"/>
      <stop offset="1" stop-color="#f6bc42" stop-opacity="0.22"/>
    </linearGradient>
  </defs>
  <rect width="800" height="420" fill="url(#bg)"/>
  <circle cx="526" cy="224" r="121" fill="#12b7a6" opacity="0.13"/>
  <circle cx="299" cy="118" r="111" fill="#315be8" opacity="0.16"/>
  <circle cx="232" cy="93" r="3" fill="#f6bc42" opacity="0.36000000000000004"/><circle cx="539" cy="182" r="3" fill="#f6bc42" opacity="0.35000000000000003"/><circle cx="334" cy="257" r="3" fill="#f6bc42" opacity="0.38"/><circle cx="641" cy="346" r="3" fill="#f6bc42" opacity="0.37"/><circle cx="744" cy="107" r="3" fill="#f6bc42" opacity="0.32"/><circle cx="335" cy="197" r="3" fill="#f6bc42" opacity="0.31000000000000005"/><circle cx="130" cy="271" r="3" fill="#f6bc42" opacity="0.34"/><circle cx="437" cy="360" r="3" fill="#f6bc42" opacity="0.33"/><circle cx="540" cy="122" r="3" fill="#f6bc42" opacity="0.28"/>
  <path d="M164 322c172-20 120-184 278-208 118-18 172 78 194 158-152 42-298 74-472 50z" fill="#315be8"/><path d="M214 300c138-68 244-104 390-118" stroke="#fff" stroke-width="14" stroke-linecap="round" opacity=".72"/><path d="M314 254c-28-52-20-104 24-156 72 30 102 82 84 150z" fill="#f6bc42" opacity=".88"/>
</svg>
