<svg xmlns="http://www.w3.org/2000/svg" viewBox="0 0 800 420" role="img" aria-label="Ilustracion propia de oceano y olas para esta pregunta">
  <defs>
    <linearGradient id="bg" x1="0" x2="1" y1="0" y2="1">
      <stop stop-color="#dff8ff"/>
      <stop offset="1" stop-color="#fffaf4" stop-opacity="0.22"/>
    </linearGradient>
  </defs>
  <rect width="800" height="420" fill="url(#bg)"/>
  <circle cx="175" cy="212" r="131" fill="#12b7a6" opacity="0.13"/>
  <circle cx="330" cy="331" r="132" fill="#315be8" opacity="0.16"/>
  <circle cx="487" cy="265" r="5" fill="#fffaf4" opacity="0.63"/><circle cx="180" cy="176" r="5" fill="#fffaf4" opacity="0.64"/><circle cx="589" cy="87" r="5" fill="#fffaf4" opacity="0.65"/><circle cx="282" cy="339" r="5" fill="#fffaf4" opacity="0.66"/><circle cx="691" cy="250" r="5" fill="#fffaf4" opacity="0.67"/><circle cx="384" cy="161" r="5" fill="#fffaf4" opacity="0.68"/><circle cx="77" cy="72" r="5" fill="#fffaf4" opacity="0.69"/><circle cx="486" cy="325" r="5" fill="#fffaf4" opacity="0.7"/><circle cx="179" cy="236" r="5" fill="#fffaf4" opacity="0.71"/>
  <path d="M0 240c88-42 144 42 232 0s144 42 232 0 144 42 232 0 144 42 232 0v180H0z" fill="#fff" opacity=".34"/><path d="M0 326c88-42 144 42 232 0s144 42 232 0 144 42 232 0 144 42 232 0" fill="none" stroke="#fff" stroke-width="18" opacity=".62"/><path d="M142 174c82-44 170-44 252 0" fill="none" stroke="#fff" stroke-width="10" opacity=".45" stroke-linecap="round"/>
</svg>
