<svg xmlns="http://www.w3.org/2000/svg" viewBox="0 0 800 420" role="img" aria-label="Ilustracion propia de oceano y olas para esta pregunta">
  <defs>
    <linearGradient id="bg" x1="0" x2="1" y1="0" y2="1">
      <stop stop-color="#dff8ff"/>
      <stop offset="1" stop-color="#12b7a6" stop-opacity="0.22"/>
    </linearGradient>
  </defs>
  <rect width="800" height="420" fill="url(#bg)"/>
  <circle cx="485" cy="115" r="102" fill="#12b7a6" opacity="0.13"/>
  <circle cx="669" cy="140" r="88" fill="#315be8" opacity="0.16"/>
  <circle cx="424" cy="313" r="5" fill="#fffaf4" opacity="0.46"/><circle cx="731" cy="60" r="5" fill="#fffaf4" opacity="0.45000000000000007"/><circle cx="526" cy="135" r="5" fill="#fffaf4" opacity="0.48000000000000004"/><circle cx="117" cy="224" r="5" fill="#fffaf4" opacity="0.47000000000000003"/><circle cx="628" cy="298" r="5" fill="#fffaf4" opacity="0.5"/><circle cx="219" cy="46" r="5" fill="#fffaf4" opacity="0.49"/><circle cx="730" cy="120" r="5" fill="#fffaf4" opacity="0.52"/><circle cx="321" cy="209" r="5" fill="#fffaf4" opacity="0.51"/><circle cx="116" cy="284" r="5" fill="#fffaf4" opacity="0.54"/>
  <path d="M0 240c88-42 144 42 232 0s144 42 232 0 144 42 232 0 144 42 232 0v180H0z" fill="#fff" opacity=".34"/><path d="M0 326c88-42 144 42 232 0s144 42 232 0 144 42 232 0 144 42 232 0" fill="none" stroke="#fff" stroke-width="18" opacity=".62"/><path d="M142 174c82-44 170-44 252 0" fill="none" stroke="#fff" stroke-width="10" opacity=".45" stroke-linecap="round"/>
</svg>
