<svg xmlns="http://www.w3.org/2000/svg" viewBox="0 0 800 420" role="img" aria-label="Ilustracion propia de videojuegos para esta pregunta">
  <defs>
    <linearGradient id="bg" x1="0" x2="1" y1="0" y2="1">
      <stop stop-color="#f4efff"/>
      <stop offset="1" stop-color="#15191d" stop-opacity="0.22"/>
    </linearGradient>
  </defs>
  <rect width="800" height="420" fill="url(#bg)"/>
  <circle cx="661" cy="155" r="132" fill="#15191d" opacity="0.13"/>
  <circle cx="541" cy="145" r="142" fill="#9b5cff" opacity="0.16"/>
  <circle cx="245" cy="179" r="4" fill="#12b7a6" opacity="0.5900000000000001"/><circle cx="654" cy="90" r="4" fill="#12b7a6" opacity="0.6000000000000001"/><circle cx="143" cy="357" r="4" fill="#12b7a6" opacity="0.5700000000000001"/><circle cx="552" cy="268" r="4" fill="#12b7a6" opacity="0.5800000000000001"/><circle cx="757" cy="193" r="4" fill="#12b7a6" opacity="0.55"/><circle cx="450" cy="104" r="4" fill="#12b7a6" opacity="0.56"/><circle cx="655" cy="372" r="5" fill="#12b7a6" opacity="0.53"/><circle cx="348" cy="283" r="5" fill="#12b7a6" opacity="0.54"/><circle cx="553" cy="208" r="5" fill="#12b7a6" opacity="0.51"/>
  <path d="M226 160c40-54 310-54 348 0l58 104c24 44-12 86-58 64l-74-36H300l-74 36c-46 22-82-20-58-64z" fill="#15191d"/><path d="M284 232h82M325 191v82" stroke="#fff" stroke-width="20" stroke-linecap="round"/><circle cx="494" cy="218" r="20" fill="#12b7a6"/><circle cx="548" cy="252" r="20" fill="#fffaf4"/><circle cx="456" cy="252" r="20" fill="#12b7a6"/>
</svg>
