<svg xmlns="http://www.w3.org/2000/svg" viewBox="0 0 800 420" role="img" aria-label="Ilustracion propia de videojuegos para esta pregunta">
  <defs>
    <linearGradient id="bg" x1="0" x2="1" y1="0" y2="1">
      <stop stop-color="#f4efff"/>
      <stop offset="1" stop-color="#15191d" stop-opacity="0.22"/>
    </linearGradient>
  </defs>
  <rect width="800" height="420" fill="url(#bg)"/>
  <circle cx="682" cy="120" r="136" fill="#15191d" opacity="0.13"/>
  <circle cx="394" cy="283" r="113" fill="#9b5cff" opacity="0.16"/>
  <circle cx="616" cy="103" r="4" fill="#12b7a6" opacity="0.42000000000000004"/><circle cx="207" cy="192" r="4" fill="#12b7a6" opacity="0.41000000000000003"/><circle cx="718" cy="266" r="4" fill="#12b7a6" opacity="0.44000000000000006"/><circle cx="309" cy="355" r="4" fill="#12b7a6" opacity="0.43000000000000005"/><circle cx="412" cy="117" r="4" fill="#12b7a6" opacity="0.38"/><circle cx="719" cy="206" r="4" fill="#12b7a6" opacity="0.37"/><circle cx="514" cy="281" r="4" fill="#12b7a6" opacity="0.4"/><circle cx="105" cy="370" r="4" fill="#12b7a6" opacity="0.39"/><circle cx="208" cy="132" r="4" fill="#12b7a6" opacity="0.34"/>
  <path d="M226 160c40-54 310-54 348 0l58 104c24 44-12 86-58 64l-74-36H300l-74 36c-46 22-82-20-58-64z" fill="#15191d"/><path d="M284 232h82M325 191v82" stroke="#fff" stroke-width="20" stroke-linecap="round"/><circle cx="506" cy="218" r="20" fill="#12b7a6"/><circle cx="558" cy="252" r="20" fill="#fffaf4"/><circle cx="456" cy="252" r="20" fill="#12b7a6"/>
</svg>
