<svg xmlns="http://www.w3.org/2000/svg" viewBox="0 0 800 420" role="img" aria-label="Ilustracion propia de videojuegos para esta pregunta">
  <defs>
    <linearGradient id="bg" x1="0" x2="1" y1="0" y2="1">
      <stop stop-color="#f4efff"/>
      <stop offset="1" stop-color="#f4efff" stop-opacity="0.22"/>
    </linearGradient>
  </defs>
  <rect width="800" height="420" fill="url(#bg)"/>
  <circle cx="269" cy="124" r="76" fill="#15191d" opacity="0.13"/>
  <circle cx="192" cy="320" r="115" fill="#9b5cff" opacity="0.16"/>
  <circle cx="547" cy="72" r="3" fill="#12b7a6" opacity="0.64"/><circle cx="240" cy="325" r="3" fill="#12b7a6" opacity="0.65"/><circle cx="649" cy="236" r="3" fill="#12b7a6" opacity="0.66"/><circle cx="342" cy="147" r="3" fill="#12b7a6" opacity="0.67"/><circle cx="751" cy="58" r="3" fill="#12b7a6" opacity="0.68"/><circle cx="444" cy="311" r="3" fill="#12b7a6" opacity="0.69"/><circle cx="137" cy="222" r="3" fill="#12b7a6" opacity="0.7"/><circle cx="546" cy="132" r="3" fill="#12b7a6" opacity="0.71"/><circle cx="139" cy="102" r="4" fill="#12b7a6" opacity="0.56"/>
  <path d="M226 160c40-54 310-54 348 0l58 104c24 44-12 86-58 64l-74-36H300l-74 36c-46 22-82-20-58-64z" fill="#15191d"/><path d="M284 232h82M325 191v82" stroke="#fff" stroke-width="20" stroke-linecap="round"/><circle cx="530" cy="218" r="20" fill="#12b7a6"/><circle cx="578" cy="252" r="20" fill="#fffaf4"/><circle cx="456" cy="252" r="20" fill="#12b7a6"/>
</svg>
