<svg xmlns="http://www.w3.org/2000/svg" viewBox="0 0 800 420" role="img" aria-label="Ilustracion propia de oceano y olas para esta pregunta">
  <defs>
    <linearGradient id="bg" x1="0" x2="1" y1="0" y2="1">
      <stop stop-color="#dff8ff"/>
      <stop offset="1" stop-color="#315be8" stop-opacity="0.22"/>
    </linearGradient>
  </defs>
  <rect width="800" height="420" fill="url(#bg)"/>
  <circle cx="138" cy="346" r="89" fill="#12b7a6" opacity="0.13"/>
  <circle cx="401" cy="204" r="67" fill="#315be8" opacity="0.16"/>
  <circle cx="130" cy="283" r="3" fill="#fffaf4" opacity="0.49"/><circle cx="437" cy="372" r="3" fill="#fffaf4" opacity="0.48000000000000004"/><circle cx="744" cy="119" r="3" fill="#fffaf4" opacity="0.47000000000000003"/><circle cx="335" cy="208" r="4" fill="#fffaf4" opacity="0.46"/><circle cx="642" cy="297" r="4" fill="#fffaf4" opacity="0.45000000000000007"/><circle cx="233" cy="45" r="4" fill="#fffaf4" opacity="0.44000000000000006"/><circle cx="540" cy="134" r="4" fill="#fffaf4" opacity="0.43000000000000005"/><circle cx="131" cy="223" r="4" fill="#fffaf4" opacity="0.42000000000000004"/><circle cx="538" cy="254" r="3" fill="#fffaf4" opacity="0.5700000000000001"/>
  <path d="M0 240c88-42 144 42 232 0s144 42 232 0 144 42 232 0 144 42 232 0v180H0z" fill="#fff" opacity=".34"/><path d="M0 306c88-42 144 42 232 0s144 42 232 0 144 42 232 0 144 42 232 0" fill="none" stroke="#fff" stroke-width="18" opacity=".62"/><path d="M142 174c82-44 170-44 252 0" fill="none" stroke="#fff" stroke-width="10" opacity=".45" stroke-linecap="round"/>
</svg>
