<svg xmlns="http://www.w3.org/2000/svg" viewBox="0 0 800 420" role="img" aria-label="Ilustracion propia de videojuegos para esta pregunta">
  <defs>
    <linearGradient id="bg" x1="0" x2="1" y1="0" y2="1">
      <stop stop-color="#f4efff"/>
      <stop offset="1" stop-color="#f4efff" stop-opacity="0.22"/>
    </linearGradient>
  </defs>
  <rect width="800" height="420" fill="url(#bg)"/>
  <circle cx="530" cy="314" r="110" fill="#15191d" opacity="0.13"/>
  <circle cx="600" cy="236" r="79" fill="#9b5cff" opacity="0.16"/>
  <circle cx="719" cy="292" r="3" fill="#12b7a6" opacity="0.6000000000000001"/><circle cx="412" cy="203" r="3" fill="#12b7a6" opacity="0.6100000000000001"/><circle cx="105" cy="114" r="3" fill="#12b7a6" opacity="0.6200000000000001"/><circle cx="514" cy="367" r="2" fill="#12b7a6" opacity="0.63"/><circle cx="515" cy="307" r="3" fill="#12b7a6" opacity="0.56"/><circle cx="208" cy="218" r="3" fill="#12b7a6" opacity="0.5700000000000001"/><circle cx="617" cy="129" r="3" fill="#12b7a6" opacity="0.5800000000000001"/><circle cx="310" cy="39" r="3" fill="#12b7a6" opacity="0.5900000000000001"/><circle cx="311" cy="322" r="3" fill="#12b7a6" opacity="0.52"/>
  <path d="M226 160c40-54 310-54 348 0l58 104c24 44-12 86-58 64l-74-36H300l-74 36c-46 22-82-20-58-64z" fill="#15191d"/><path d="M284 232h82M325 191v82" stroke="#fff" stroke-width="20" stroke-linecap="round"/><circle cx="542" cy="218" r="20" fill="#12b7a6"/><circle cx="588" cy="252" r="20" fill="#fffaf4"/><circle cx="456" cy="252" r="20" fill="#12b7a6"/>
</svg>
