<svg xmlns="http://www.w3.org/2000/svg" viewBox="0 0 800 420" role="img" aria-label="Ilustracion propia de videojuegos para esta pregunta">
  <defs>
    <linearGradient id="bg" x1="0" x2="1" y1="0" y2="1">
      <stop stop-color="#f4efff"/>
      <stop offset="1" stop-color="#12b7a6" stop-opacity="0.22"/>
    </linearGradient>
  </defs>
  <rect width="800" height="420" fill="url(#bg)"/>
  <circle cx="96" cy="246" r="89" fill="#15191d" opacity="0.13"/>
  <circle cx="171" cy="192" r="87" fill="#9b5cff" opacity="0.16"/>
  <circle cx="421" cy="340" r="4" fill="#12b7a6" opacity="0.66"/><circle cx="114" cy="251" r="4" fill="#12b7a6" opacity="0.67"/><circle cx="319" cy="177" r="4" fill="#12b7a6" opacity="0.64"/><circle cx="728" cy="88" r="4" fill="#12b7a6" opacity="0.65"/><circle cx="217" cy="355" r="4" fill="#12b7a6" opacity="0.6200000000000001"/><circle cx="626" cy="266" r="4" fill="#12b7a6" opacity="0.63"/><circle cx="115" cy="191" r="4" fill="#12b7a6" opacity="0.6000000000000001"/><circle cx="524" cy="102" r="4" fill="#12b7a6" opacity="0.6100000000000001"/><circle cx="113" cy="311" r="3" fill="#12b7a6" opacity="0.29000000000000004"/>
  <path d="M226 160c40-54 310-54 348 0l58 104c24 44-12 86-58 64l-74-36H300l-74 36c-46 22-82-20-58-64z" fill="#15191d"/><path d="M284 232h82M325 191v82" stroke="#fff" stroke-width="20" stroke-linecap="round"/><circle cx="494" cy="218" r="20" fill="#12b7a6"/><circle cx="548" cy="252" r="20" fill="#fffaf4"/><circle cx="456" cy="252" r="20" fill="#12b7a6"/>
</svg>
