<svg xmlns="http://www.w3.org/2000/svg" viewBox="0 0 800 420" role="img" aria-label="Ilustracion propia de videojuegos para esta pregunta">
  <defs>
    <linearGradient id="bg" x1="0" x2="1" y1="0" y2="1">
      <stop stop-color="#f4efff"/>
      <stop offset="1" stop-color="#f4efff" stop-opacity="0.22"/>
    </linearGradient>
  </defs>
  <rect width="800" height="420" fill="url(#bg)"/>
  <circle cx="428" cy="180" r="140" fill="#15191d" opacity="0.13"/>
  <circle cx="362" cy="219" r="123" fill="#9b5cff" opacity="0.16"/>
  <circle cx="298" cy="155" r="5" fill="#12b7a6" opacity="0.36000000000000004"/><circle cx="605" cy="244" r="5" fill="#12b7a6" opacity="0.35000000000000003"/><circle cx="196" cy="333" r="5" fill="#12b7a6" opacity="0.34"/><circle cx="503" cy="80" r="5" fill="#12b7a6" opacity="0.33"/><circle cx="94" cy="169" r="5" fill="#12b7a6" opacity="0.32"/><circle cx="401" cy="259" r="5" fill="#12b7a6" opacity="0.31000000000000005"/><circle cx="708" cy="348" r="5" fill="#12b7a6" opacity="0.30000000000000004"/><circle cx="299" cy="95" r="5" fill="#12b7a6" opacity="0.29000000000000004"/><circle cx="706" cy="126" r="5" fill="#12b7a6" opacity="0.44000000000000006"/>
  <path d="M226 160c40-54 310-54 348 0l58 104c24 44-12 86-58 64l-74-36H300l-74 36c-46 22-82-20-58-64z" fill="#15191d"/><path d="M284 232h82M325 191v82" stroke="#fff" stroke-width="20" stroke-linecap="round"/><circle cx="518" cy="218" r="20" fill="#12b7a6"/><circle cx="568" cy="252" r="20" fill="#fffaf4"/><circle cx="456" cy="252" r="20" fill="#12b7a6"/>
</svg>
