<svg xmlns="http://www.w3.org/2000/svg" viewBox="0 0 800 420" role="img" aria-label="Ilustracion propia de videojuegos para esta pregunta">
  <defs>
    <linearGradient id="bg" x1="0" x2="1" y1="0" y2="1">
      <stop stop-color="#f4efff"/>
      <stop offset="1" stop-color="#f4efff" stop-opacity="0.22"/>
    </linearGradient>
  </defs>
  <rect width="800" height="420" fill="url(#bg)"/>
  <circle cx="419" cy="120" r="76" fill="#15191d" opacity="0.13"/>
  <circle cx="211" cy="176" r="85" fill="#9b5cff" opacity="0.16"/>
  <circle cx="135" cy="76" r="2" fill="#12b7a6" opacity="0.65"/><circle cx="544" cy="329" r="2" fill="#12b7a6" opacity="0.66"/><circle cx="237" cy="240" r="2" fill="#12b7a6" opacity="0.67"/><circle cx="646" cy="151" r="2" fill="#12b7a6" opacity="0.68"/><circle cx="339" cy="62" r="2" fill="#12b7a6" opacity="0.69"/><circle cx="748" cy="315" r="2" fill="#12b7a6" opacity="0.7"/><circle cx="441" cy="225" r="2" fill="#12b7a6" opacity="0.71"/><circle cx="134" cy="136" r="2" fill="#12b7a6" opacity="0.72"/><circle cx="443" cy="105" r="2" fill="#12b7a6" opacity="0.5700000000000001"/>
  <path d="M226 160c40-54 310-54 348 0l58 104c24 44-12 86-58 64l-74-36H300l-74 36c-46 22-82-20-58-64z" fill="#15191d"/><path d="M284 232h82M325 191v82" stroke="#fff" stroke-width="20" stroke-linecap="round"/><circle cx="530" cy="218" r="20" fill="#12b7a6"/><circle cx="578" cy="252" r="20" fill="#fffaf4"/><circle cx="456" cy="252" r="20" fill="#12b7a6"/>
</svg>
