<svg xmlns="http://www.w3.org/2000/svg" viewBox="0 0 800 420" role="img" aria-label="Ilustracion propia de videojuegos para esta pregunta">
  <defs>
    <linearGradient id="bg" x1="0" x2="1" y1="0" y2="1">
      <stop stop-color="#f4efff"/>
      <stop offset="1" stop-color="#f4efff" stop-opacity="0.22"/>
    </linearGradient>
  </defs>
  <rect width="800" height="420" fill="url(#bg)"/>
  <circle cx="455" cy="233" r="108" fill="#15191d" opacity="0.13"/>
  <circle cx="215" cy="83" r="99" fill="#9b5cff" opacity="0.16"/>
  <circle cx="331" cy="314" r="2" fill="#12b7a6" opacity="0.4"/><circle cx="740" cy="225" r="2" fill="#12b7a6" opacity="0.41000000000000003"/><circle cx="433" cy="136" r="2" fill="#12b7a6" opacity="0.42000000000000004"/><circle cx="126" cy="46" r="2" fill="#12b7a6" opacity="0.43000000000000005"/><circle cx="127" cy="328" r="2" fill="#12b7a6" opacity="0.36000000000000004"/><circle cx="536" cy="239" r="2" fill="#12b7a6" opacity="0.37"/><circle cx="229" cy="150" r="2" fill="#12b7a6" opacity="0.38"/><circle cx="638" cy="61" r="2" fill="#12b7a6" opacity="0.39"/><circle cx="639" cy="343" r="2" fill="#12b7a6" opacity="0.32"/>
  <path d="M226 160c40-54 310-54 348 0l58 104c24 44-12 86-58 64l-74-36H300l-74 36c-46 22-82-20-58-64z" fill="#15191d"/><path d="M284 232h82M325 191v82" stroke="#fff" stroke-width="20" stroke-linecap="round"/><circle cx="542" cy="218" r="20" fill="#12b7a6"/><circle cx="588" cy="252" r="20" fill="#fffaf4"/><circle cx="456" cy="252" r="20" fill="#12b7a6"/>
</svg>
