<svg xmlns="http://www.w3.org/2000/svg" viewBox="0 0 800 420" role="img" aria-label="Ilustracion propia de videojuegos para esta pregunta">
  <defs>
    <linearGradient id="bg" x1="0" x2="1" y1="0" y2="1">
      <stop stop-color="#f4efff"/>
      <stop offset="1" stop-color="#9b5cff" stop-opacity="0.22"/>
    </linearGradient>
  </defs>
  <rect width="800" height="420" fill="url(#bg)"/>
  <circle cx="194" cy="185" r="75" fill="#15191d" opacity="0.13"/>
  <circle cx="108" cy="77" r="85" fill="#9b5cff" opacity="0.16"/>
  <circle cx="273" cy="271" r="5" fill="#12b7a6" opacity="0.54"/><circle cx="682" cy="181" r="5" fill="#12b7a6" opacity="0.55"/><circle cx="171" cy="107" r="5" fill="#12b7a6" opacity="0.52"/><circle cx="580" cy="360" r="5" fill="#12b7a6" opacity="0.53"/><circle cx="477" cy="256" r="5" fill="#12b7a6" opacity="0.5800000000000001"/><circle cx="170" cy="167" r="5" fill="#12b7a6" opacity="0.5900000000000001"/><circle cx="375" cy="92" r="5" fill="#12b7a6" opacity="0.56"/><circle cx="68" cy="345" r="5" fill="#12b7a6" opacity="0.5700000000000001"/><circle cx="581" cy="300" r="5" fill="#12b7a6" opacity="0.46"/>
  <path d="M226 160c40-54 310-54 348 0l58 104c24 44-12 86-58 64l-74-36H300l-74 36c-46 22-82-20-58-64z" fill="#15191d"/><path d="M284 232h82M325 191v82" stroke="#fff" stroke-width="20" stroke-linecap="round"/><circle cx="530" cy="218" r="20" fill="#12b7a6"/><circle cx="578" cy="252" r="20" fill="#fffaf4"/><circle cx="456" cy="252" r="20" fill="#12b7a6"/>
</svg>
