<svg xmlns="http://www.w3.org/2000/svg" viewBox="0 0 800 420" role="img" aria-label="Ilustracion propia de videojuegos para esta pregunta">
  <defs>
    <linearGradient id="bg" x1="0" x2="1" y1="0" y2="1">
      <stop stop-color="#f4efff"/>
      <stop offset="1" stop-color="#f4efff" stop-opacity="0.22"/>
    </linearGradient>
  </defs>
  <rect width="800" height="420" fill="url(#bg)"/>
  <circle cx="585" cy="283" r="130" fill="#15191d" opacity="0.13"/>
  <circle cx="532" cy="196" r="132" fill="#9b5cff" opacity="0.16"/>
  <circle cx="390" cy="350" r="4" fill="#12b7a6" opacity="0.6000000000000001"/><circle cx="697" cy="97" r="4" fill="#12b7a6" opacity="0.5900000000000001"/><circle cx="288" cy="186" r="4" fill="#12b7a6" opacity="0.5800000000000001"/><circle cx="595" cy="275" r="4" fill="#12b7a6" opacity="0.5700000000000001"/><circle cx="186" cy="364" r="4" fill="#12b7a6" opacity="0.56"/><circle cx="493" cy="111" r="4" fill="#12b7a6" opacity="0.55"/><circle cx="84" cy="201" r="4" fill="#12b7a6" opacity="0.54"/><circle cx="391" cy="290" r="5" fill="#12b7a6" opacity="0.53"/><circle cx="698" cy="37" r="5" fill="#12b7a6" opacity="0.52"/>
  <path d="M226 160c40-54 310-54 348 0l58 104c24 44-12 86-58 64l-74-36H300l-74 36c-46 22-82-20-58-64z" fill="#15191d"/><path d="M284 232h82M325 191v82" stroke="#fff" stroke-width="20" stroke-linecap="round"/><circle cx="542" cy="218" r="20" fill="#12b7a6"/><circle cx="588" cy="252" r="20" fill="#fffaf4"/><circle cx="456" cy="252" r="20" fill="#12b7a6"/>
</svg>
