<svg xmlns="http://www.w3.org/2000/svg" viewBox="0 0 800 420" role="img" aria-label="Ilustracion propia de videojuegos para esta pregunta">
  <defs>
    <linearGradient id="bg" x1="0" x2="1" y1="0" y2="1">
      <stop stop-color="#f4efff"/>
      <stop offset="1" stop-color="#12b7a6" stop-opacity="0.22"/>
    </linearGradient>
  </defs>
  <rect width="800" height="420" fill="url(#bg)"/>
  <circle cx="563" cy="65" r="81" fill="#15191d" opacity="0.13"/>
  <circle cx="604" cy="276" r="106" fill="#9b5cff" opacity="0.16"/>
  <circle cx="672" cy="66" r="4" fill="#12b7a6" opacity="0.36000000000000004"/><circle cx="263" cy="156" r="4" fill="#12b7a6" opacity="0.35000000000000003"/><circle cx="58" cy="230" r="4" fill="#12b7a6" opacity="0.38"/><circle cx="365" cy="319" r="4" fill="#12b7a6" opacity="0.37"/><circle cx="468" cy="81" r="4" fill="#12b7a6" opacity="0.32"/><circle cx="59" cy="170" r="4" fill="#12b7a6" opacity="0.31000000000000005"/><circle cx="570" cy="245" r="4" fill="#12b7a6" opacity="0.34"/><circle cx="161" cy="334" r="4" fill="#12b7a6" opacity="0.33"/><circle cx="364" cy="37" r="4" fill="#12b7a6" opacity="0.44000000000000006"/>
  <path d="M226 160c40-54 310-54 348 0l58 104c24 44-12 86-58 64l-74-36H300l-74 36c-46 22-82-20-58-64z" fill="#15191d"/><path d="M284 232h82M325 191v82" stroke="#fff" stroke-width="20" stroke-linecap="round"/><circle cx="518" cy="218" r="20" fill="#12b7a6"/><circle cx="568" cy="252" r="20" fill="#fffaf4"/><circle cx="456" cy="252" r="20" fill="#12b7a6"/>
</svg>
