<svg xmlns="http://www.w3.org/2000/svg" viewBox="0 0 800 420" role="img" aria-label="Ilustracion propia de videojuegos para esta pregunta">
  <defs>
    <linearGradient id="bg" x1="0" x2="1" y1="0" y2="1">
      <stop stop-color="#f4efff"/>
      <stop offset="1" stop-color="#f4efff" stop-opacity="0.22"/>
    </linearGradient>
  </defs>
  <rect width="800" height="420" fill="url(#bg)"/>
  <circle cx="98" cy="228" r="68" fill="#15191d" opacity="0.13"/>
  <circle cx="171" cy="190" r="134" fill="#9b5cff" opacity="0.16"/>
  <circle cx="720" cy="46" r="5" fill="#12b7a6" opacity="0.4"/><circle cx="311" cy="135" r="5" fill="#12b7a6" opacity="0.39"/><circle cx="106" cy="210" r="5" fill="#12b7a6" opacity="0.42000000000000004"/><circle cx="413" cy="299" r="5" fill="#12b7a6" opacity="0.41000000000000003"/><circle cx="208" cy="374" r="5" fill="#12b7a6" opacity="0.44000000000000006"/><circle cx="515" cy="121" r="5" fill="#12b7a6" opacity="0.43000000000000005"/><circle cx="310" cy="195" r="5" fill="#12b7a6" opacity="0.46"/><circle cx="617" cy="284" r="5" fill="#12b7a6" opacity="0.45000000000000007"/><circle cx="312" cy="75" r="5" fill="#12b7a6" opacity="0.32"/>
  <path d="M226 160c40-54 310-54 348 0l58 104c24 44-12 86-58 64l-74-36H300l-74 36c-46 22-82-20-58-64z" fill="#15191d"/><path d="M284 232h82M325 191v82" stroke="#fff" stroke-width="20" stroke-linecap="round"/><circle cx="518" cy="218" r="20" fill="#12b7a6"/><circle cx="568" cy="252" r="20" fill="#fffaf4"/><circle cx="456" cy="252" r="20" fill="#12b7a6"/>
</svg>
