<svg xmlns="http://www.w3.org/2000/svg" viewBox="0 0 800 420" role="img" aria-label="Ilustracion propia de videojuegos para esta pregunta">
  <defs>
    <linearGradient id="bg" x1="0" x2="1" y1="0" y2="1">
      <stop stop-color="#f4efff"/>
      <stop offset="1" stop-color="#9b5cff" stop-opacity="0.22"/>
    </linearGradient>
  </defs>
  <rect width="800" height="420" fill="url(#bg)"/>
  <circle cx="227" cy="342" r="101" fill="#15191d" opacity="0.13"/>
  <circle cx="187" cy="97" r="118" fill="#9b5cff" opacity="0.16"/>
  <circle cx="723" cy="49" r="5" fill="#12b7a6" opacity="0.5"/><circle cx="416" cy="302" r="5" fill="#12b7a6" opacity="0.51"/><circle cx="109" cy="213" r="5" fill="#12b7a6" opacity="0.52"/><circle cx="518" cy="124" r="5" fill="#12b7a6" opacity="0.53"/><circle cx="519" cy="64" r="5" fill="#12b7a6" opacity="0.46"/><circle cx="212" cy="317" r="5" fill="#12b7a6" opacity="0.47000000000000003"/><circle cx="621" cy="228" r="5" fill="#12b7a6" opacity="0.48000000000000004"/><circle cx="314" cy="139" r="5" fill="#12b7a6" opacity="0.49"/><circle cx="415" cy="362" r="5" fill="#12b7a6" opacity="0.5800000000000001"/>
  <path d="M226 160c40-54 310-54 348 0l58 104c24 44-12 86-58 64l-74-36H300l-74 36c-46 22-82-20-58-64z" fill="#15191d"/><path d="M284 232h82M325 191v82" stroke="#fff" stroke-width="20" stroke-linecap="round"/><circle cx="506" cy="218" r="20" fill="#12b7a6"/><circle cx="558" cy="252" r="20" fill="#fffaf4"/><circle cx="456" cy="252" r="20" fill="#12b7a6"/>
</svg>
