<svg xmlns="http://www.w3.org/2000/svg" viewBox="0 0 800 420" role="img" aria-label="Ilustracion propia de oceano y olas para esta pregunta">
  <defs>
    <linearGradient id="bg" x1="0" x2="1" y1="0" y2="1">
      <stop stop-color="#dff8ff"/>
      <stop offset="1" stop-color="#dff8ff" stop-opacity="0.22"/>
    </linearGradient>
  </defs>
  <rect width="800" height="420" fill="url(#bg)"/>
  <circle cx="235" cy="194" r="130" fill="#12b7a6" opacity="0.13"/>
  <circle cx="563" cy="78" r="132" fill="#315be8" opacity="0.16"/>
  <circle cx="698" cy="213" r="3" fill="#fffaf4" opacity="0.43000000000000005"/><circle cx="289" cy="302" r="3" fill="#fffaf4" opacity="0.42000000000000004"/><circle cx="596" cy="49" r="3" fill="#fffaf4" opacity="0.41000000000000003"/><circle cx="187" cy="138" r="3" fill="#fffaf4" opacity="0.4"/><circle cx="186" cy="198" r="3" fill="#fffaf4" opacity="0.47000000000000003"/><circle cx="493" cy="287" r="3" fill="#fffaf4" opacity="0.46"/><circle cx="84" cy="376" r="3" fill="#fffaf4" opacity="0.45000000000000007"/><circle cx="391" cy="123" r="3" fill="#fffaf4" opacity="0.44000000000000006"/><circle cx="290" cy="242" r="3" fill="#fffaf4" opacity="0.35000000000000003"/>
  <path d="M0 240c88-42 144 42 232 0s144 42 232 0 144 42 232 0 144 42 232 0v180H0z" fill="#fff" opacity=".34"/><path d="M0 326c88-42 144 42 232 0s144 42 232 0 144 42 232 0 144 42 232 0" fill="none" stroke="#fff" stroke-width="18" opacity=".62"/><path d="M142 174c82-44 170-44 252 0" fill="none" stroke="#fff" stroke-width="10" opacity=".45" stroke-linecap="round"/>
</svg>
