<svg xmlns="http://www.w3.org/2000/svg" viewBox="0 0 800 420" role="img" aria-label="Ilustracion propia de videojuegos para esta pregunta">
  <defs>
    <linearGradient id="bg" x1="0" x2="1" y1="0" y2="1">
      <stop stop-color="#f4efff"/>
      <stop offset="1" stop-color="#f4efff" stop-opacity="0.22"/>
    </linearGradient>
  </defs>
  <rect width="800" height="420" fill="url(#bg)"/>
  <circle cx="314" cy="221" r="74" fill="#15191d" opacity="0.13"/>
  <circle cx="348" cy="296" r="105" fill="#9b5cff" opacity="0.16"/>
  <circle cx="540" cy="87" r="5" fill="#12b7a6" opacity="0.39"/><circle cx="131" cy="176" r="5" fill="#12b7a6" opacity="0.38"/><circle cx="642" cy="251" r="5" fill="#12b7a6" opacity="0.41000000000000003"/><circle cx="233" cy="340" r="5" fill="#12b7a6" opacity="0.4"/><circle cx="336" cy="102" r="5" fill="#12b7a6" opacity="0.35000000000000003"/><circle cx="643" cy="191" r="5" fill="#12b7a6" opacity="0.34"/><circle cx="438" cy="265" r="5" fill="#12b7a6" opacity="0.37"/><circle cx="745" cy="354" r="5" fill="#12b7a6" opacity="0.36000000000000004"/><circle cx="232" cy="58" r="5" fill="#12b7a6" opacity="0.47000000000000003"/>
  <path d="M226 160c40-54 310-54 348 0l58 104c24 44-12 86-58 64l-74-36H300l-74 36c-46 22-82-20-58-64z" fill="#15191d"/><path d="M284 232h82M325 191v82" stroke="#fff" stroke-width="20" stroke-linecap="round"/><circle cx="530" cy="218" r="20" fill="#12b7a6"/><circle cx="578" cy="252" r="20" fill="#fffaf4"/><circle cx="456" cy="252" r="20" fill="#12b7a6"/>
</svg>
