<svg xmlns="http://www.w3.org/2000/svg" viewBox="0 0 800 420" role="img" aria-label="Ilustracion propia de videojuegos para esta pregunta">
  <defs>
    <linearGradient id="bg" x1="0" x2="1" y1="0" y2="1">
      <stop stop-color="#f4efff"/>
      <stop offset="1" stop-color="#15191d" stop-opacity="0.22"/>
    </linearGradient>
  </defs>
  <rect width="800" height="420" fill="url(#bg)"/>
  <circle cx="359" cy="271" r="80" fill="#15191d" opacity="0.13"/>
  <circle cx="278" cy="266" r="66" fill="#9b5cff" opacity="0.16"/>
  <circle cx="342" cy="212" r="4" fill="#12b7a6" opacity="0.68"/><circle cx="649" cy="302" r="4" fill="#12b7a6" opacity="0.67"/><circle cx="240" cy="49" r="4" fill="#12b7a6" opacity="0.66"/><circle cx="547" cy="138" r="4" fill="#12b7a6" opacity="0.65"/><circle cx="138" cy="227" r="4" fill="#12b7a6" opacity="0.64"/><circle cx="445" cy="316" r="4" fill="#12b7a6" opacity="0.63"/><circle cx="752" cy="63" r="4" fill="#12b7a6" opacity="0.6200000000000001"/><circle cx="343" cy="152" r="4" fill="#12b7a6" opacity="0.6100000000000001"/><circle cx="750" cy="183" r="3" fill="#12b7a6" opacity="0.31000000000000005"/>
  <path d="M226 160c40-54 310-54 348 0l58 104c24 44-12 86-58 64l-74-36H300l-74 36c-46 22-82-20-58-64z" fill="#15191d"/><path d="M284 232h82M325 191v82" stroke="#fff" stroke-width="20" stroke-linecap="round"/><circle cx="530" cy="218" r="20" fill="#12b7a6"/><circle cx="578" cy="252" r="20" fill="#fffaf4"/><circle cx="456" cy="252" r="20" fill="#12b7a6"/>
</svg>
