<svg xmlns="http://www.w3.org/2000/svg" viewBox="0 0 800 420" role="img" aria-label="Ilustracion propia de escenario musical para esta pregunta">
  <defs>
    <linearGradient id="bg" x1="0" x2="1" y1="0" y2="1">
      <stop stop-color="#201525"/>
      <stop offset="1" stop-color="#201525" stop-opacity="0.22"/>
    </linearGradient>
  </defs>
  <rect width="800" height="420" fill="url(#bg)"/>
  <circle cx="469" cy="185" r="108" fill="#fffaf4" opacity="0.13"/>
  <circle cx="367" cy="113" r="89" fill="#ff4f6d" opacity="0.16"/>
  <circle cx="514" cy="56" r="3" fill="#12b7a6" opacity="0.5800000000000001"/><circle cx="105" cy="145" r="3" fill="#12b7a6" opacity="0.5700000000000001"/><circle cx="412" cy="234" r="3" fill="#12b7a6" opacity="0.56"/><circle cx="719" cy="323" r="3" fill="#12b7a6" opacity="0.55"/><circle cx="310" cy="70" r="3" fill="#12b7a6" opacity="0.54"/><circle cx="617" cy="159" r="3" fill="#12b7a6" opacity="0.53"/><circle cx="208" cy="248" r="3" fill="#12b7a6" opacity="0.52"/><circle cx="515" cy="338" r="3" fill="#12b7a6" opacity="0.51"/><circle cx="206" cy="368" r="3" fill="#12b7a6" opacity="0.66"/>
  <rect width="800" height="420" fill="#fffaf4"/><path d="M182 0l170 290M618 0L510 290" stroke="#12b7a6" stroke-width="34" opacity=".5"/><rect x="150" y="292" width="500" height="54" rx="20" fill="#ff4f6d" opacity=".9"/><path d="M280 292c26-80 214-80 240 0" fill="none" stroke="#fffaf4" stroke-width="16"/><path d="M438 98v126c0 28-24 50-58 50s-58-22-58-50 24-50 58-50c12 0 23 3 32 8V98z" fill="#ff4f6d"/>
</svg>
