<svg xmlns="http://www.w3.org/2000/svg" viewBox="0 0 800 420" role="img" aria-label="Ilustracion propia de oceano y olas para esta pregunta">
  <defs>
    <linearGradient id="bg" x1="0" x2="1" y1="0" y2="1">
      <stop stop-color="#dff8ff"/>
      <stop offset="1" stop-color="#315be8" stop-opacity="0.22"/>
    </linearGradient>
  </defs>
  <rect width="800" height="420" fill="url(#bg)"/>
  <circle cx="623" cy="292" r="113" fill="#12b7a6" opacity="0.13"/>
  <circle cx="611" cy="198" r="120" fill="#315be8" opacity="0.16"/>
  <circle cx="580" cy="157" r="2" fill="#fffaf4" opacity="0.52"/><circle cx="171" cy="246" r="2" fill="#fffaf4" opacity="0.51"/><circle cx="682" cy="320" r="2" fill="#fffaf4" opacity="0.54"/><circle cx="273" cy="68" r="2" fill="#fffaf4" opacity="0.53"/><circle cx="68" cy="142" r="2" fill="#fffaf4" opacity="0.56"/><circle cx="375" cy="231" r="2" fill="#fffaf4" opacity="0.55"/><circle cx="170" cy="306" r="2" fill="#fffaf4" opacity="0.5800000000000001"/><circle cx="477" cy="53" r="2" fill="#fffaf4" opacity="0.5700000000000001"/><circle cx="172" cy="186" r="2" fill="#fffaf4" opacity="0.44000000000000006"/>
  <path d="M0 240c88-42 144 42 232 0s144 42 232 0 144 42 232 0 144 42 232 0v180H0z" fill="#fff" opacity=".34"/><path d="M0 306c88-42 144 42 232 0s144 42 232 0 144 42 232 0 144 42 232 0" fill="none" stroke="#fff" stroke-width="18" opacity=".62"/><path d="M142 174c82-44 170-44 252 0" fill="none" stroke="#fff" stroke-width="10" opacity=".45" stroke-linecap="round"/>
</svg>
