<svg xmlns="http://www.w3.org/2000/svg" viewBox="0 0 800 420" role="img" aria-label="Ilustracion propia de mapa y geografia para esta pregunta">
  <defs>
    <linearGradient id="bg" x1="0" x2="1" y1="0" y2="1">
      <stop stop-color="#eaf9f6"/>
      <stop offset="1" stop-color="#12b7a6" stop-opacity="0.22"/>
    </linearGradient>
  </defs>
  <rect width="800" height="420" fill="url(#bg)"/>
  <circle cx="186" cy="63" r="85" fill="#fffaf4" opacity="0.13"/>
  <circle cx="407" cy="276" r="116" fill="#12b7a6" opacity="0.16"/>
  <circle cx="132" cy="65" r="3" fill="#ff4f6d" opacity="0.33"/><circle cx="439" cy="155" r="3" fill="#ff4f6d" opacity="0.32"/><circle cx="234" cy="229" r="3" fill="#ff4f6d" opacity="0.35000000000000003"/><circle cx="541" cy="318" r="3" fill="#ff4f6d" opacity="0.34"/><circle cx="644" cy="80" r="3" fill="#ff4f6d" opacity="0.29000000000000004"/><circle cx="235" cy="169" r="3" fill="#ff4f6d" opacity="0.28"/><circle cx="746" cy="244" r="3" fill="#ff4f6d" opacity="0.31000000000000005"/><circle cx="337" cy="333" r="3" fill="#ff4f6d" opacity="0.30000000000000004"/><circle cx="440" cy="95" r="3" fill="#ff4f6d" opacity="0.7"/>
  <path d="M100 84l170-42 160 50 170-42 100 42v244l-170 42-160-50-170 42-100-42z" fill="#12b7a6" stroke="#15191d" stroke-width="5" opacity=".94"/><path d="M270 42v286M430 92v286M600 50v286" stroke="#15191d" stroke-width="4" opacity=".16"/><path d="M126 136c80 22 106-36 176-8 72 28 94 88 182 48 86-40 128-8 184 44" fill="none" stroke="#ff4f6d" stroke-width="14" stroke-linecap="round"/><path d="M440 112c0 36-38 70-38 70s-38-34-38-70a38 38 0 0176 0z" fill="#fffaf4"/>
</svg>
