<svg xmlns="http://www.w3.org/2000/svg" viewBox="0 0 800 420" role="img" aria-label="Ilustracion propia de escenario musical para esta pregunta">
  <defs>
    <linearGradient id="bg" x1="0" x2="1" y1="0" y2="1">
      <stop stop-color="#201525"/>
      <stop offset="1" stop-color="#12b7a6" stop-opacity="0.22"/>
    </linearGradient>
  </defs>
  <rect width="800" height="420" fill="url(#bg)"/>
  <circle cx="416" cy="214" r="115" fill="#fffaf4" opacity="0.13"/>
  <circle cx="586" cy="259" r="130" fill="#ff4f6d" opacity="0.16"/>
  <circle cx="592" cy="209" r="3" fill="#12b7a6" opacity="0.41000000000000003"/><circle cx="183" cy="298" r="3" fill="#12b7a6" opacity="0.4"/><circle cx="694" cy="372" r="3" fill="#12b7a6" opacity="0.43000000000000005"/><circle cx="285" cy="119" r="3" fill="#12b7a6" opacity="0.42000000000000004"/><circle cx="80" cy="194" r="3" fill="#12b7a6" opacity="0.45000000000000007"/><circle cx="387" cy="283" r="3" fill="#12b7a6" opacity="0.44000000000000006"/><circle cx="182" cy="358" r="2" fill="#12b7a6" opacity="0.47000000000000003"/><circle cx="489" cy="105" r="3" fill="#12b7a6" opacity="0.46"/><circle cx="184" cy="238" r="3" fill="#12b7a6" opacity="0.33"/>
  <rect width="800" height="420" fill="#fffaf4"/><path d="M110 0l170 290M690 0L510 290" stroke="#12b7a6" stroke-width="34" opacity=".5"/><rect x="150" y="292" width="500" height="54" rx="20" fill="#ff4f6d" opacity=".9"/><path d="M280 292c26-80 214-80 240 0" fill="none" stroke="#fffaf4" stroke-width="16"/><path d="M396 98v126c0 28-24 50-58 50s-58-22-58-50 24-50 58-50c12 0 23 3 32 8V98z" fill="#ff4f6d"/>
</svg>
