<svg xmlns="http://www.w3.org/2000/svg" viewBox="0 0 800 420" role="img" aria-label="Ilustracion propia de oceano y olas para esta pregunta">
  <defs>
    <linearGradient id="bg" x1="0" x2="1" y1="0" y2="1">
      <stop stop-color="#dff8ff"/>
      <stop offset="1" stop-color="#fffaf4" stop-opacity="0.22"/>
    </linearGradient>
  </defs>
  <rect width="800" height="420" fill="url(#bg)"/>
  <circle cx="371" cy="308" r="75" fill="#12b7a6" opacity="0.13"/>
  <circle cx="505" cy="128" r="125" fill="#315be8" opacity="0.16"/>
  <circle cx="410" cy="75" r="3" fill="#fffaf4" opacity="0.39"/><circle cx="717" cy="164" r="3" fill="#fffaf4" opacity="0.38"/><circle cx="308" cy="253" r="3" fill="#fffaf4" opacity="0.37"/><circle cx="615" cy="342" r="3" fill="#fffaf4" opacity="0.36000000000000004"/><circle cx="614" cy="60" r="3" fill="#fffaf4" opacity="0.43000000000000005"/><circle cx="205" cy="150" r="3" fill="#fffaf4" opacity="0.42000000000000004"/><circle cx="512" cy="239" r="3" fill="#fffaf4" opacity="0.41000000000000003"/><circle cx="103" cy="328" r="3" fill="#fffaf4" opacity="0.4"/><circle cx="102" cy="46" r="3" fill="#fffaf4" opacity="0.47000000000000003"/>
  <path d="M0 240c88-42 144 42 232 0s144 42 232 0 144 42 232 0 144 42 232 0v180H0z" fill="#fff" opacity=".34"/><path d="M0 286c88-42 144 42 232 0s144 42 232 0 144 42 232 0 144 42 232 0" fill="none" stroke="#fff" stroke-width="18" opacity=".62"/><path d="M142 174c82-44 170-44 252 0" fill="none" stroke="#fff" stroke-width="10" opacity=".45" stroke-linecap="round"/>
</svg>
