<svg xmlns="http://www.w3.org/2000/svg" viewBox="0 0 800 420" role="img" aria-label="Ilustracion propia de laboratorio cientifico para esta pregunta">
  <defs>
    <linearGradient id="bg" x1="0" x2="1" y1="0" y2="1">
      <stop stop-color="#edf9ff"/>
      <stop offset="1" stop-color="#fffaf4" stop-opacity="0.22"/>
    </linearGradient>
  </defs>
  <rect width="800" height="420" fill="url(#bg)"/>
  <circle cx="351" cy="269" r="136" fill="#fffaf4" opacity="0.13"/>
  <circle cx="502" cy="338" r="83" fill="#12b7a6" opacity="0.16"/>
  <circle cx="453" cy="116" r="5" fill="#ff4f6d" opacity="0.5"/><circle cx="146" cy="369" r="5" fill="#ff4f6d" opacity="0.51"/><circle cx="351" cy="294" r="5" fill="#ff4f6d" opacity="0.48000000000000004"/><circle cx="44" cy="205" r="5" fill="#ff4f6d" opacity="0.49"/><circle cx="657" cy="102" r="5" fill="#ff4f6d" opacity="0.54"/><circle cx="350" cy="354" r="5" fill="#ff4f6d" opacity="0.55"/><circle cx="555" cy="280" r="5" fill="#ff4f6d" opacity="0.52"/><circle cx="248" cy="191" r="5" fill="#ff4f6d" opacity="0.53"/><circle cx="145" cy="87" r="5" fill="#ff4f6d" opacity="0.5800000000000001"/>
  <path d="M350 74h116v28l-38 76v84c0 48-39 86-86 86h-8c-47 0-86-38-86-86v-84l-38-76V74h116z" fill="#12b7a6" stroke="#15191d" stroke-width="8"/><path d="M290 230h132v38c0 31-25 56-56 56h-20c-31 0-56-25-56-56z" fill="#ff4f6d" opacity=".85"/><circle cx="326" cy="250" r="12" fill="#fff"/><circle cx="380" cy="280" r="18" fill="#fff"/><path d="M528 118l68 118 68-118" fill="none" stroke="#fffaf4" stroke-width="15" stroke-linejoin="round"/>
</svg>
