<svg xmlns="http://www.w3.org/2000/svg" viewBox="0 0 800 420" role="img" aria-label="Ilustracion propia de oceano y olas para esta pregunta">
  <defs>
    <linearGradient id="bg" x1="0" x2="1" y1="0" y2="1">
      <stop stop-color="#dff8ff"/>
      <stop offset="1" stop-color="#fffaf4" stop-opacity="0.22"/>
    </linearGradient>
  </defs>
  <rect width="800" height="420" fill="url(#bg)"/>
  <circle cx="570" cy="341" r="127" fill="#12b7a6" opacity="0.13"/>
  <circle cx="230" cy="311" r="101" fill="#315be8" opacity="0.16"/>
  <circle cx="188" cy="67" r="3" fill="#fffaf4" opacity="0.39"/><circle cx="495" cy="156" r="3" fill="#fffaf4" opacity="0.38"/><circle cx="290" cy="230" r="3" fill="#fffaf4" opacity="0.41000000000000003"/><circle cx="597" cy="320" r="3" fill="#fffaf4" opacity="0.4"/><circle cx="700" cy="81" r="3" fill="#fffaf4" opacity="0.35000000000000003"/><circle cx="291" cy="170" r="3" fill="#fffaf4" opacity="0.34"/><circle cx="86" cy="245" r="3" fill="#fffaf4" opacity="0.37"/><circle cx="393" cy="334" r="3" fill="#fffaf4" opacity="0.36000000000000004"/><circle cx="596" cy="38" r="3" fill="#fffaf4" opacity="0.47000000000000003"/>
  <path d="M0 240c88-42 144 42 232 0s144 42 232 0 144 42 232 0 144 42 232 0v180H0z" fill="#fff" opacity=".34"/><path d="M0 326c88-42 144 42 232 0s144 42 232 0 144 42 232 0 144 42 232 0" fill="none" stroke="#fff" stroke-width="18" opacity=".62"/><path d="M142 174c82-44 170-44 252 0" fill="none" stroke="#fff" stroke-width="10" opacity=".45" stroke-linecap="round"/>
</svg>
