<svg xmlns="http://www.w3.org/2000/svg" viewBox="0 0 800 420" role="img" aria-label="Ilustracion propia de cine y rodaje para esta pregunta">
  <defs>
    <linearGradient id="bg" x1="0" x2="1" y1="0" y2="1">
      <stop stop-color="#15191d"/>
      <stop offset="1" stop-color="#f6bc42" stop-opacity="0.22"/>
    </linearGradient>
  </defs>
  <rect width="800" height="420" fill="url(#bg)"/>
  <circle cx="204" cy="336" r="139" fill="#fffaf4" opacity="0.13"/>
  <circle cx="184" cy="96" r="103" fill="#f6bc42" opacity="0.16"/>
  <circle cx="96" cy="264" r="5" fill="#ff4f6d" opacity="0.51"/><circle cx="403" cy="353" r="5" fill="#ff4f6d" opacity="0.5"/><circle cx="198" cy="86" r="4" fill="#ff4f6d" opacity="0.53"/><circle cx="505" cy="175" r="4" fill="#ff4f6d" opacity="0.52"/><circle cx="608" cy="279" r="5" fill="#ff4f6d" opacity="0.47000000000000003"/><circle cx="199" cy="368" r="5" fill="#ff4f6d" opacity="0.46"/><circle cx="710" cy="100" r="5" fill="#ff4f6d" opacity="0.49"/><circle cx="301" cy="189" r="5" fill="#ff4f6d" opacity="0.48000000000000004"/><circle cx="504" cy="235" r="4" fill="#ff4f6d" opacity="0.5900000000000001"/>
  <rect width="800" height="420" fill="#fffaf4"/><circle cx="500" cy="168" r="120" fill="#ff4f6d" opacity=".42"/><rect x="190" y="182" width="420" height="198" rx="22" fill="#f6bc42"/><rect x="190" y="132" width="420" height="70" rx="18" fill="#fffaf4"/><path d="M228 132l58 70M330 132l58 70M432 132l58 70M534 132l58 70" stroke="#fffaf4" stroke-width="20"/><rect x="244" y="254" width="312" height="18" rx="9" fill="#fffaf4" opacity=".16"/>
</svg>
