<svg xmlns="http://www.w3.org/2000/svg" viewBox="0 0 800 420" role="img" aria-label="Ilustracion propia de laboratorio cientifico para esta pregunta">
  <defs>
    <linearGradient id="bg" x1="0" x2="1" y1="0" y2="1">
      <stop stop-color="#edf9ff"/>
      <stop offset="1" stop-color="#12b7a6" stop-opacity="0.22"/>
    </linearGradient>
  </defs>
  <rect width="800" height="420" fill="url(#bg)"/>
  <circle cx="605" cy="66" r="117" fill="#fffaf4" opacity="0.13"/>
  <circle cx="459" cy="169" r="120" fill="#12b7a6" opacity="0.16"/>
  <circle cx="128" cy="97" r="3" fill="#ff4f6d" opacity="0.52"/><circle cx="435" cy="186" r="3" fill="#ff4f6d" opacity="0.51"/><circle cx="230" cy="261" r="3" fill="#ff4f6d" opacity="0.54"/><circle cx="537" cy="350" r="3" fill="#ff4f6d" opacity="0.53"/><circle cx="640" cy="111" r="3" fill="#ff4f6d" opacity="0.48000000000000004"/><circle cx="231" cy="201" r="3" fill="#ff4f6d" opacity="0.47000000000000003"/><circle cx="742" cy="275" r="3" fill="#ff4f6d" opacity="0.5"/><circle cx="333" cy="364" r="3" fill="#ff4f6d" opacity="0.49"/><circle cx="536" cy="68" r="3" fill="#ff4f6d" opacity="0.6000000000000001"/>
  <path d="M390 74h116v28l-38 76v84c0 48-39 86-86 86h-8c-47 0-86-38-86-86v-84l-38-76V74h116z" fill="#12b7a6" stroke="#15191d" stroke-width="8"/><path d="M290 230h132v38c0 31-25 56-56 56h-20c-31 0-56-25-56-56z" fill="#ff4f6d" opacity=".85"/><circle cx="406" cy="250" r="12" fill="#fff"/><circle cx="308" cy="280" r="18" fill="#fff"/><path d="M528 118l68 118 68-118" fill="none" stroke="#fffaf4" stroke-width="15" stroke-linejoin="round"/>
</svg>
