<svg xmlns="http://www.w3.org/2000/svg" viewBox="0 0 800 420" role="img" aria-label="Ilustracion propia de anatomia humana para esta pregunta">
  <defs>
    <linearGradient id="bg" x1="0" x2="1" y1="0" y2="1">
      <stop stop-color="#fff0f3"/>
      <stop offset="1" stop-color="#ff4f6d" stop-opacity="0.22"/>
    </linearGradient>
  </defs>
  <rect width="800" height="420" fill="url(#bg)"/>
  <circle cx="423" cy="88" r="69" fill="#ffb99c" opacity="0.13"/>
  <circle cx="586" cy="315" r="104" fill="#ff4f6d" opacity="0.16"/>
  <circle cx="255" cy="123" r="4" fill="#15191d" opacity="0.41000000000000003"/><circle cx="664" cy="376" r="4" fill="#15191d" opacity="0.42000000000000004"/><circle cx="357" cy="287" r="4" fill="#15191d" opacity="0.43000000000000005"/><circle cx="50" cy="198" r="4" fill="#15191d" opacity="0.44000000000000006"/><circle cx="51" cy="138" r="4" fill="#15191d" opacity="0.37"/><circle cx="460" cy="49" r="4" fill="#15191d" opacity="0.38"/><circle cx="153" cy="301" r="4" fill="#15191d" opacity="0.39"/><circle cx="562" cy="212" r="4" fill="#15191d" opacity="0.4"/><circle cx="563" cy="152" r="4" fill="#15191d" opacity="0.33"/>
  <circle cx="400" cy="104" r="46" fill="#ff4f6d"/><path d="M322 352c10-122 28-184 78-184s68 62 78 184z" fill="#fffaf4" stroke="#15191d" stroke-width="8"/><path d="M400 168v184M330 230h140" stroke="#15191d" stroke-width="12" stroke-linecap="round" opacity=".72"/><path d="M316 208c-58 26-90 70-98 134M484 208c58 26 90 70 98 134" stroke="#15191d" stroke-width="18" stroke-linecap="round" opacity=".62"/>
</svg>
