<svg xmlns="http://www.w3.org/2000/svg" viewBox="0 0 800 420" role="img" aria-label="Ilustracion propia de laboratorio cientifico para esta pregunta">
  <defs>
    <linearGradient id="bg" x1="0" x2="1" y1="0" y2="1">
      <stop stop-color="#edf9ff"/>
      <stop offset="1" stop-color="#fffaf4" stop-opacity="0.22"/>
    </linearGradient>
  </defs>
  <rect width="800" height="420" fill="url(#bg)"/>
  <circle cx="654" cy="194" r="124" fill="#fffaf4" opacity="0.13"/>
  <circle cx="465" cy="328" r="81" fill="#12b7a6" opacity="0.16"/>
  <circle cx="69" cy="192" r="4" fill="#ff4f6d" opacity="0.28"/><circle cx="478" cy="103" r="4" fill="#ff4f6d" opacity="0.29000000000000004"/><circle cx="683" cy="371" r="4" fill="#ff4f6d" opacity="0.71"/><circle cx="376" cy="282" r="4" fill="#ff4f6d" opacity="0.72"/><circle cx="273" cy="178" r="4" fill="#ff4f6d" opacity="0.32"/><circle cx="682" cy="89" r="4" fill="#ff4f6d" opacity="0.33"/><circle cx="171" cy="356" r="4" fill="#ff4f6d" opacity="0.30000000000000004"/><circle cx="580" cy="267" r="4" fill="#ff4f6d" opacity="0.31000000000000005"/><circle cx="377" cy="222" r="4" fill="#ff4f6d" opacity="0.65"/>
  <path d="M380 74h116v28l-38 76v84c0 48-39 86-86 86h-8c-47 0-86-38-86-86v-84l-38-76V74h116z" fill="#12b7a6" stroke="#15191d" stroke-width="8"/><path d="M290 230h132v38c0 31-25 56-56 56h-20c-31 0-56-25-56-56z" fill="#ff4f6d" opacity=".85"/><circle cx="386" cy="250" r="12" fill="#fff"/><circle cx="326" cy="280" r="18" fill="#fff"/><path d="M528 118l68 118 68-118" fill="none" stroke="#fffaf4" stroke-width="15" stroke-linejoin="round"/>
</svg>
