<svg xmlns="http://www.w3.org/2000/svg" viewBox="0 0 800 420" role="img" aria-label="Ilustracion propia de arte y museo para esta pregunta">
  <defs>
    <linearGradient id="bg" x1="0" x2="1" y1="0" y2="1">
      <stop stop-color="#fff2df"/>
      <stop offset="1" stop-color="#ff4f6d" stop-opacity="0.22"/>
    </linearGradient>
  </defs>
  <rect width="800" height="420" fill="url(#bg)"/>
  <circle cx="165" cy="315" r="67" fill="#6f4a2d" opacity="0.13"/>
  <circle cx="404" cy="236" r="124" fill="#12b7a6" opacity="0.16"/>
  <circle cx="407" cy="147" r="4" fill="#ff4f6d" opacity="0.67"/><circle cx="100" cy="58" r="4" fill="#ff4f6d" opacity="0.68"/><circle cx="509" cy="311" r="4" fill="#ff4f6d" opacity="0.69"/><circle cx="202" cy="222" r="4" fill="#ff4f6d" opacity="0.7"/><circle cx="435" cy="376" r="4" fill="#ff4f6d" opacity="0.32"/><circle cx="128" cy="287" r="4" fill="#ff4f6d" opacity="0.33"/><circle cx="537" cy="198" r="4" fill="#ff4f6d" opacity="0.34"/><circle cx="714" cy="236" r="4" fill="#ff4f6d" opacity="0.66"/><circle cx="231" cy="49" r="4" fill="#ff4f6d" opacity="0.28"/>
  <rect x="294" y="54" width="304" height="312" rx="24" fill="#6f4a2d"/><rect x="324" y="84" width="244" height="252" rx="16" fill="#d9c092"/><circle cx="446" cy="178" r="54" fill="#f0c7a5"/><path d="M376 318c12-82 42-120 70-120s58 38 70 120z" fill="#ff4f6d"/><path d="M390 154c36-72 116-46 122 10-36-18-74-18-122-10z" fill="#4a2d22"/>
</svg>
