<svg xmlns="http://www.w3.org/2000/svg" viewBox="0 0 800 420" role="img" aria-label="Ilustracion propia de laboratorio cientifico para esta pregunta">
  <defs>
    <linearGradient id="bg" x1="0" x2="1" y1="0" y2="1">
      <stop stop-color="#edf9ff"/>
      <stop offset="1" stop-color="#fffaf4" stop-opacity="0.22"/>
    </linearGradient>
  </defs>
  <rect width="800" height="420" fill="url(#bg)"/>
  <circle cx="243" cy="227" r="122" fill="#fffaf4" opacity="0.13"/>
  <circle cx="564" cy="82" r="71" fill="#12b7a6" opacity="0.16"/>
  <circle cx="200" cy="284" r="3" fill="#ff4f6d" opacity="0.65"/><circle cx="507" cy="373" r="3" fill="#ff4f6d" opacity="0.64"/><circle cx="302" cy="106" r="3" fill="#ff4f6d" opacity="0.67"/><circle cx="609" cy="195" r="3" fill="#ff4f6d" opacity="0.66"/><circle cx="712" cy="299" r="3" fill="#ff4f6d" opacity="0.6100000000000001"/><circle cx="303" cy="46" r="3" fill="#ff4f6d" opacity="0.6000000000000001"/><circle cx="98" cy="120" r="3" fill="#ff4f6d" opacity="0.63"/><circle cx="405" cy="209" r="3" fill="#ff4f6d" opacity="0.6200000000000001"/><circle cx="508" cy="313" r="3" fill="#ff4f6d" opacity="0.5700000000000001"/>
  <path d="M370 74h116v28l-38 76v84c0 48-39 86-86 86h-8c-47 0-86-38-86-86v-84l-38-76V74h116z" fill="#12b7a6" stroke="#15191d" stroke-width="8"/><path d="M290 230h132v38c0 31-25 56-56 56h-20c-31 0-56-25-56-56z" fill="#ff4f6d" opacity=".85"/><circle cx="366" cy="250" r="12" fill="#fff"/><circle cx="344" cy="280" r="18" fill="#fff"/><path d="M528 118l68 118 68-118" fill="none" stroke="#fffaf4" stroke-width="15" stroke-linejoin="round"/>
</svg>
