<svg xmlns="http://www.w3.org/2000/svg" viewBox="0 0 800 420" role="img" aria-label="Ilustracion propia de anatomia humana para esta pregunta">
  <defs>
    <linearGradient id="bg" x1="0" x2="1" y1="0" y2="1">
      <stop stop-color="#fff0f3"/>
      <stop offset="1" stop-color="#ffb99c" stop-opacity="0.22"/>
    </linearGradient>
  </defs>
  <rect width="800" height="420" fill="url(#bg)"/>
  <circle cx="500" cy="281" r="132" fill="#ffb99c" opacity="0.13"/>
  <circle cx="671" cy="89" r="102" fill="#ff4f6d" opacity="0.16"/>
  <circle cx="352" cy="68" r="3" fill="#15191d" opacity="0.28"/><circle cx="659" cy="157" r="3" fill="#15191d" opacity="0.72"/><circle cx="454" cy="232" r="3" fill="#15191d" opacity="0.30000000000000004"/><circle cx="45" cy="321" r="3" fill="#15191d" opacity="0.29000000000000004"/><circle cx="148" cy="83" r="3" fill="#15191d" opacity="0.69"/><circle cx="455" cy="172" r="3" fill="#15191d" opacity="0.68"/><circle cx="250" cy="246" r="3" fill="#15191d" opacity="0.71"/><circle cx="557" cy="335" r="3" fill="#15191d" opacity="0.7"/><circle cx="44" cy="39" r="3" fill="#15191d" opacity="0.36000000000000004"/>
  <circle cx="400" cy="104" r="46" fill="#ff4f6d"/><path d="M322 352c10-122 28-184 78-184s68 62 78 184z" fill="#fffaf4" stroke="#15191d" stroke-width="8"/><path d="M400 168v184M330 230h140" stroke="#15191d" stroke-width="12" stroke-linecap="round" opacity=".72"/><path d="M316 208c-58 26-90 70-98 134M484 208c58 26 90 70 98 134" stroke="#15191d" stroke-width="18" stroke-linecap="round" opacity=".62"/>
</svg>
