<svg xmlns="http://www.w3.org/2000/svg" viewBox="0 0 800 420" role="img" aria-label="Ilustracion propia de cancha de baloncesto para esta pregunta">
  <defs>
    <linearGradient id="bg" x1="0" x2="1" y1="0" y2="1">
      <stop stop-color="#fff1df"/>
      <stop offset="1" stop-color="#d95a35" stop-opacity="0.22"/>
    </linearGradient>
  </defs>
  <rect width="800" height="420" fill="url(#bg)"/>
  <circle cx="637" cy="163" r="123" fill="#f6bc42" opacity="0.13"/>
  <circle cx="388" cy="181" r="91" fill="#d95a35" opacity="0.16"/>
  <circle cx="304" cy="350" r="4" fill="#15191d" opacity="0.47000000000000003"/><circle cx="611" cy="97" r="4" fill="#15191d" opacity="0.46"/><circle cx="406" cy="172" r="4" fill="#15191d" opacity="0.49"/><circle cx="713" cy="261" r="4" fill="#15191d" opacity="0.48000000000000004"/><circle cx="100" cy="365" r="4" fill="#15191d" opacity="0.43000000000000005"/><circle cx="407" cy="112" r="4" fill="#15191d" opacity="0.42000000000000004"/><circle cx="202" cy="187" r="4" fill="#15191d" opacity="0.45000000000000007"/><circle cx="509" cy="276" r="4" fill="#15191d" opacity="0.44000000000000006"/><circle cx="612" cy="37" r="4" fill="#15191d" opacity="0.39"/>
  <rect x="76" y="58" width="648" height="304" rx="30" fill="#d95a35"/><path d="M100 210h600M400 58v304" stroke="#fffaf4" stroke-width="8" opacity=".8"/><circle cx="400" cy="210" r="59" fill="none" stroke="#fffaf4" stroke-width="8" opacity=".8"/><circle cx="264" cy="174" r="42" fill="#15191d"/><path d="M222 174h84M264 132v84" stroke="#f6bc42" stroke-width="5" fill="none"/>
</svg>
