<svg xmlns="http://www.w3.org/2000/svg" viewBox="0 0 800 420" role="img" aria-label="Ilustracion propia de cancha de baloncesto para esta pregunta">
  <defs>
    <linearGradient id="bg" x1="0" x2="1" y1="0" y2="1">
      <stop stop-color="#fff1df"/>
      <stop offset="1" stop-color="#f6bc42" stop-opacity="0.22"/>
    </linearGradient>
  </defs>
  <rect width="800" height="420" fill="url(#bg)"/>
  <circle cx="391" cy="144" r="124" fill="#f6bc42" opacity="0.13"/>
  <circle cx="507" cy="286" r="81" fill="#d95a35" opacity="0.16"/>
  <circle cx="614" cy="177" r="2" fill="#15191d" opacity="0.67"/><circle cx="205" cy="266" r="2" fill="#15191d" opacity="0.66"/><circle cx="512" cy="355" r="3" fill="#15191d" opacity="0.65"/><circle cx="103" cy="103" r="3" fill="#15191d" opacity="0.64"/><circle cx="410" cy="192" r="3" fill="#15191d" opacity="0.63"/><circle cx="717" cy="281" r="3" fill="#15191d" opacity="0.6200000000000001"/><circle cx="308" cy="370" r="3" fill="#15191d" opacity="0.6100000000000001"/><circle cx="615" cy="117" r="3" fill="#15191d" opacity="0.6000000000000001"/><circle cx="306" cy="148" r="2" fill="#15191d" opacity="0.30000000000000004"/>
  <rect x="76" y="58" width="648" height="304" rx="30" fill="#d95a35"/><path d="M100 210h600M400 58v304" stroke="#fffaf4" stroke-width="8" opacity=".8"/><circle cx="400" cy="210" r="52" fill="none" stroke="#fffaf4" stroke-width="8" opacity=".8"/><circle cx="180" cy="150" r="42" fill="#15191d"/><path d="M138 150h84M180 108v84" stroke="#f6bc42" stroke-width="5" fill="none"/>
</svg>
