<svg xmlns="http://www.w3.org/2000/svg" viewBox="0 0 800 420" role="img" aria-label="Ilustracion propia de pista de tenis para esta pregunta">
  <defs>
    <linearGradient id="bg" x1="0" x2="1" y1="0" y2="1">
      <stop stop-color="#e8fbf5"/>
      <stop offset="1" stop-color="#315be8" stop-opacity="0.22"/>
    </linearGradient>
  </defs>
  <rect width="800" height="420" fill="url(#bg)"/>
  <circle cx="581" cy="62" r="113" fill="#12b7a6" opacity="0.13"/>
  <circle cx="306" cy="205" r="70" fill="#f6bc42" opacity="0.16"/>
  <circle cx="348" cy="99" r="3" fill="#315be8" opacity="0.66"/><circle cx="655" cy="188" r="3" fill="#315be8" opacity="0.65"/><circle cx="450" cy="263" r="3" fill="#315be8" opacity="0.68"/><circle cx="757" cy="352" r="3" fill="#315be8" opacity="0.67"/><circle cx="552" cy="84" r="3" fill="#315be8" opacity="0.7"/><circle cx="143" cy="174" r="3" fill="#315be8" opacity="0.69"/><circle cx="654" cy="248" r="3" fill="#315be8" opacity="0.72"/><circle cx="245" cy="337" r="3" fill="#315be8" opacity="0.71"/><circle cx="756" cy="70" r="3" fill="#315be8" opacity="0.29000000000000004"/>
  <rect x="96" y="52" width="608" height="316" rx="28" fill="#f6bc42"/><path d="M400 52v316M96 210h608M170 110h460M170 310h460M170 110v200M630 110v200" stroke="#fff" stroke-width="7" opacity=".88"/><circle cx="558" cy="126" r="18" fill="#315be8"/><ellipse cx="190" cy="260" rx="36" ry="50" fill="none" stroke="#fffaf4" stroke-width="9" transform="rotate(-18 190 260)"/>
</svg>
