<svg xmlns="http://www.w3.org/2000/svg" viewBox="0 0 800 420" role="img" aria-label="Ilustracion propia de tecnologia para esta pregunta">
  <defs>
    <linearGradient id="bg" x1="0" x2="1" y1="0" y2="1">
      <stop stop-color="#111820"/>
      <stop offset="1" stop-color="#12b7a6" stop-opacity="0.22"/>
    </linearGradient>
  </defs>
  <rect width="800" height="420" fill="url(#bg)"/>
  <circle cx="574" cy="151" r="137" fill="#fffaf4" opacity="0.13"/>
  <circle cx="605" cy="144" r="73" fill="#315be8" opacity="0.16"/>
  <circle cx="282" cy="116" r="3" fill="#12b7a6" opacity="0.38"/><circle cx="589" cy="205" r="3" fill="#12b7a6" opacity="0.37"/><circle cx="180" cy="294" r="3" fill="#12b7a6" opacity="0.36000000000000004"/><circle cx="487" cy="42" r="3" fill="#12b7a6" opacity="0.35000000000000003"/><circle cx="486" cy="102" r="3" fill="#12b7a6" opacity="0.42000000000000004"/><circle cx="77" cy="191" r="3" fill="#12b7a6" opacity="0.41000000000000003"/><circle cx="384" cy="280" r="3" fill="#12b7a6" opacity="0.4"/><circle cx="691" cy="369" r="3" fill="#12b7a6" opacity="0.39"/><circle cx="690" cy="87" r="3" fill="#12b7a6" opacity="0.46"/>
  <rect width="800" height="420" fill="#fffaf4"/><rect x="108" y="72" width="584" height="276" rx="28" fill="#315be8"/><rect x="108" y="72" width="584" height="58" rx="28" fill="#12b7a6"/><path d="M246 206l-62 44 62 44M554 206l62 44-62 44" stroke="#fffaf4" stroke-width="20" stroke-linecap="round" stroke-linejoin="round" fill="none"/><path d="M364 306l72-184" stroke="#12b7a6" stroke-width="18" stroke-linecap="round"/>
</svg>
