<svg xmlns="http://www.w3.org/2000/svg" viewBox="0 0 800 420" role="img" aria-label="Ilustracion propia de escenario musical para esta pregunta">
  <defs>
    <linearGradient id="bg" x1="0" x2="1" y1="0" y2="1">
      <stop stop-color="#201525"/>
      <stop offset="1" stop-color="#fffaf4" stop-opacity="0.22"/>
    </linearGradient>
  </defs>
  <rect width="800" height="420" fill="url(#bg)"/>
  <circle cx="550" cy="327" r="116" fill="#fffaf4" opacity="0.13"/>
  <circle cx="527" cy="130" r="130" fill="#ff4f6d" opacity="0.16"/>
  <circle cx="184" cy="175" r="2" fill="#12b7a6" opacity="0.47000000000000003"/><circle cx="491" cy="264" r="2" fill="#12b7a6" opacity="0.46"/><circle cx="286" cy="339" r="2" fill="#12b7a6" opacity="0.49"/><circle cx="593" cy="86" r="2" fill="#12b7a6" opacity="0.48000000000000004"/><circle cx="388" cy="160" r="2" fill="#12b7a6" opacity="0.51"/><circle cx="695" cy="250" r="2" fill="#12b7a6" opacity="0.5"/><circle cx="490" cy="324" r="2" fill="#12b7a6" opacity="0.53"/><circle cx="81" cy="71" r="2" fill="#12b7a6" opacity="0.52"/><circle cx="592" cy="146" r="2" fill="#12b7a6" opacity="0.55"/>
  <rect width="800" height="420" fill="#fffaf4"/><path d="M206 0l170 290M594 0L510 290" stroke="#12b7a6" stroke-width="34" opacity=".5"/><rect x="150" y="292" width="500" height="54" rx="20" fill="#ff4f6d" opacity=".9"/><path d="M280 292c26-80 214-80 240 0" fill="none" stroke="#fffaf4" stroke-width="16"/><path d="M452 98v126c0 28-24 50-58 50s-58-22-58-50 24-50 58-50c12 0 23 3 32 8V98z" fill="#ff4f6d"/>
</svg>
