<svg xmlns="http://www.w3.org/2000/svg" viewBox="0 0 800 420" role="img" aria-label="Ilustracion propia de escenario musical para esta pregunta">
  <defs>
    <linearGradient id="bg" x1="0" x2="1" y1="0" y2="1">
      <stop stop-color="#201525"/>
      <stop offset="1" stop-color="#201525" stop-opacity="0.22"/>
    </linearGradient>
  </defs>
  <rect width="800" height="420" fill="url(#bg)"/>
  <circle cx="184" cy="338" r="80" fill="#fffaf4" opacity="0.13"/>
  <circle cx="107" cy="275" r="106" fill="#ff4f6d" opacity="0.16"/>
  <circle cx="299" cy="328" r="2" fill="#12b7a6" opacity="0.35000000000000003"/><circle cx="708" cy="239" r="2" fill="#12b7a6" opacity="0.36000000000000004"/><circle cx="401" cy="150" r="2" fill="#12b7a6" opacity="0.37"/><circle cx="94" cy="60" r="2" fill="#12b7a6" opacity="0.38"/><circle cx="503" cy="313" r="2" fill="#12b7a6" opacity="0.39"/><circle cx="196" cy="224" r="2" fill="#12b7a6" opacity="0.4"/><circle cx="605" cy="135" r="2" fill="#12b7a6" opacity="0.41000000000000003"/><circle cx="298" cy="46" r="2" fill="#12b7a6" opacity="0.42000000000000004"/><circle cx="607" cy="357" r="2" fill="#12b7a6" opacity="0.72"/>
  <rect width="800" height="420" fill="#fffaf4"/><path d="M182 0l170 290M618 0L510 290" stroke="#12b7a6" stroke-width="34" opacity=".5"/><rect x="150" y="292" width="500" height="54" rx="20" fill="#ff4f6d" opacity=".9"/><path d="M280 292c26-80 214-80 240 0" fill="none" stroke="#fffaf4" stroke-width="16"/><path d="M438 98v126c0 28-24 50-58 50s-58-22-58-50 24-50 58-50c12 0 23 3 32 8V98z" fill="#ff4f6d"/>
</svg>
