<svg xmlns="http://www.w3.org/2000/svg" viewBox="0 0 800 420" role="img" aria-label="Ilustracion propia de escenario musical para esta pregunta">
  <defs>
    <linearGradient id="bg" x1="0" x2="1" y1="0" y2="1">
      <stop stop-color="#201525"/>
      <stop offset="1" stop-color="#ff4f6d" stop-opacity="0.22"/>
    </linearGradient>
  </defs>
  <rect width="800" height="420" fill="url(#bg)"/>
  <circle cx="264" cy="173" r="65" fill="#fffaf4" opacity="0.13"/>
  <circle cx="342" cy="183" r="94" fill="#ff4f6d" opacity="0.16"/>
  <circle cx="376" cy="68" r="5" fill="#12b7a6" opacity="0.49"/><circle cx="683" cy="158" r="2" fill="#12b7a6" opacity="0.48000000000000004"/><circle cx="478" cy="232" r="5" fill="#12b7a6" opacity="0.51"/><circle cx="69" cy="321" r="5" fill="#12b7a6" opacity="0.5"/><circle cx="172" cy="83" r="2" fill="#12b7a6" opacity="0.45000000000000007"/><circle cx="479" cy="172" r="2" fill="#12b7a6" opacity="0.44000000000000006"/><circle cx="274" cy="247" r="2" fill="#12b7a6" opacity="0.47000000000000003"/><circle cx="581" cy="336" r="2" fill="#12b7a6" opacity="0.46"/><circle cx="68" cy="39" r="5" fill="#12b7a6" opacity="0.5700000000000001"/>
  <rect width="800" height="420" fill="#fffaf4"/><path d="M182 0l170 290M618 0L510 290" stroke="#12b7a6" stroke-width="34" opacity=".5"/><rect x="150" y="292" width="500" height="54" rx="20" fill="#ff4f6d" opacity=".9"/><path d="M280 292c26-80 214-80 240 0" fill="none" stroke="#fffaf4" stroke-width="16"/><path d="M438 98v126c0 28-24 50-58 50s-58-22-58-50 24-50 58-50c12 0 23 3 32 8V98z" fill="#ff4f6d"/>
</svg>
