<svg xmlns="http://www.w3.org/2000/svg" viewBox="0 0 800 420" role="img" aria-label="Ilustracion propia de oceano y olas para esta pregunta">
  <defs>
    <linearGradient id="bg" x1="0" x2="1" y1="0" y2="1">
      <stop stop-color="#dff8ff"/>
      <stop offset="1" stop-color="#12b7a6" stop-opacity="0.22"/>
    </linearGradient>
  </defs>
  <rect width="800" height="420" fill="url(#bg)"/>
  <circle cx="318" cy="260" r="102" fill="#12b7a6" opacity="0.13"/>
  <circle cx="123" cy="122" r="88" fill="#315be8" opacity="0.16"/>
  <circle cx="222" cy="374" r="3" fill="#fffaf4" opacity="0.4"/><circle cx="529" cy="121" r="3" fill="#fffaf4" opacity="0.39"/><circle cx="120" cy="210" r="3" fill="#fffaf4" opacity="0.38"/><circle cx="427" cy="299" r="3" fill="#fffaf4" opacity="0.37"/><circle cx="426" cy="359" r="3" fill="#fffaf4" opacity="0.44000000000000006"/><circle cx="733" cy="106" r="3" fill="#fffaf4" opacity="0.43000000000000005"/><circle cx="324" cy="195" r="3" fill="#fffaf4" opacity="0.42000000000000004"/><circle cx="631" cy="285" r="3" fill="#fffaf4" opacity="0.41000000000000003"/><circle cx="630" cy="344" r="3" fill="#fffaf4" opacity="0.48000000000000004"/>
  <path d="M0 240c88-42 144 42 232 0s144 42 232 0 144 42 232 0 144 42 232 0v180H0z" fill="#fff" opacity=".34"/><path d="M0 306c88-42 144 42 232 0s144 42 232 0 144 42 232 0 144 42 232 0" fill="none" stroke="#fff" stroke-width="18" opacity=".62"/><path d="M142 174c82-44 170-44 252 0" fill="none" stroke="#fff" stroke-width="10" opacity=".45" stroke-linecap="round"/>
</svg>
