<svg xmlns="http://www.w3.org/2000/svg" viewBox="0 0 800 420" role="img" aria-label="Ilustracion propia de escenario musical para esta pregunta">
  <defs>
    <linearGradient id="bg" x1="0" x2="1" y1="0" y2="1">
      <stop stop-color="#201525"/>
      <stop offset="1" stop-color="#fffaf4" stop-opacity="0.22"/>
    </linearGradient>
  </defs>
  <rect width="800" height="420" fill="url(#bg)"/>
  <circle cx="446" cy="128" r="96" fill="#fffaf4" opacity="0.13"/>
  <circle cx="664" cy="70" r="78" fill="#ff4f6d" opacity="0.16"/>
  <circle cx="363" cy="238" r="2" fill="#12b7a6" opacity="0.68"/><circle cx="56" cy="149" r="2" fill="#12b7a6" opacity="0.69"/><circle cx="465" cy="60" r="2" fill="#12b7a6" opacity="0.7"/><circle cx="158" cy="313" r="2" fill="#12b7a6" opacity="0.71"/><circle cx="567" cy="224" r="2" fill="#12b7a6" opacity="0.72"/><circle cx="260" cy="134" r="2" fill="#12b7a6" opacity="0.28"/><circle cx="669" cy="45" r="2" fill="#12b7a6" opacity="0.29000000000000004"/><circle cx="362" cy="298" r="2" fill="#12b7a6" opacity="0.30000000000000004"/><circle cx="55" cy="209" r="2" fill="#12b7a6" opacity="0.31000000000000005"/>
  <rect width="800" height="420" fill="#fffaf4"/><path d="M110 0l170 290M690 0L510 290" stroke="#12b7a6" stroke-width="34" opacity=".5"/><rect x="150" y="292" width="500" height="54" rx="20" fill="#ff4f6d" opacity=".9"/><path d="M280 292c26-80 214-80 240 0" fill="none" stroke="#fffaf4" stroke-width="16"/><path d="M396 98v126c0 28-24 50-58 50s-58-22-58-50 24-50 58-50c12 0 23 3 32 8V98z" fill="#ff4f6d"/>
</svg>
