<svg xmlns="http://www.w3.org/2000/svg" viewBox="0 0 800 420" role="img" aria-label="Ilustracion propia de pista de tenis para esta pregunta">
  <defs>
    <linearGradient id="bg" x1="0" x2="1" y1="0" y2="1">
      <stop stop-color="#e8fbf5"/>
      <stop offset="1" stop-color="#12b7a6" stop-opacity="0.22"/>
    </linearGradient>
  </defs>
  <rect width="800" height="420" fill="url(#bg)"/>
  <circle cx="194" cy="206" r="128" fill="#12b7a6" opacity="0.13"/>
  <circle cx="408" cy="115" r="92" fill="#f6bc42" opacity="0.16"/>
  <circle cx="173" cy="318" r="4" fill="#315be8" opacity="0.51"/><circle cx="582" cy="229" r="4" fill="#315be8" opacity="0.52"/><circle cx="71" cy="154" r="4" fill="#315be8" opacity="0.49"/><circle cx="480" cy="65" r="4" fill="#315be8" opacity="0.5"/><circle cx="377" cy="303" r="4" fill="#315be8" opacity="0.55"/><circle cx="70" cy="214" r="4" fill="#315be8" opacity="0.56"/><circle cx="275" cy="140" r="4" fill="#315be8" opacity="0.53"/><circle cx="684" cy="51" r="4" fill="#315be8" opacity="0.54"/><circle cx="581" cy="289" r="4" fill="#315be8" opacity="0.5900000000000001"/>
  <rect x="96" y="52" width="608" height="316" rx="28" fill="#f6bc42"/><path d="M400 52v316M96 210h608M170 110h460M170 310h460M170 110v200M630 110v200" stroke="#fff" stroke-width="7" opacity=".88"/><circle cx="390" cy="228" r="18" fill="#315be8"/><ellipse cx="298" cy="206" rx="36" ry="50" fill="none" stroke="#fffaf4" stroke-width="9" transform="rotate(-18 298 206)"/>
</svg>
