<svg xmlns="http://www.w3.org/2000/svg" viewBox="0 0 800 420" role="img" aria-label="Ilustracion propia de cancha de baloncesto para esta pregunta">
  <defs>
    <linearGradient id="bg" x1="0" x2="1" y1="0" y2="1">
      <stop stop-color="#fff1df"/>
      <stop offset="1" stop-color="#d95a35" stop-opacity="0.22"/>
    </linearGradient>
  </defs>
  <rect width="800" height="420" fill="url(#bg)"/>
  <circle cx="428" cy="278" r="79" fill="#f6bc42" opacity="0.13"/>
  <circle cx="587" cy="196" r="105" fill="#d95a35" opacity="0.16"/>
  <circle cx="124" cy="347" r="2" fill="#15191d" opacity="0.6200000000000001"/><circle cx="431" cy="94" r="2" fill="#15191d" opacity="0.6100000000000001"/><circle cx="226" cy="169" r="2" fill="#15191d" opacity="0.64"/><circle cx="533" cy="258" r="2" fill="#15191d" opacity="0.63"/><circle cx="328" cy="332" r="2" fill="#15191d" opacity="0.66"/><circle cx="635" cy="79" r="2" fill="#15191d" opacity="0.65"/><circle cx="430" cy="154" r="5" fill="#15191d" opacity="0.68"/><circle cx="737" cy="243" r="2" fill="#15191d" opacity="0.67"/><circle cx="532" cy="318" r="5" fill="#15191d" opacity="0.7"/>
  <rect x="76" y="58" width="648" height="304" rx="30" fill="#d95a35"/><path d="M100 210h600M400 58v304" stroke="#fffaf4" stroke-width="8" opacity=".8"/><circle cx="400" cy="210" r="66" fill="none" stroke="#fffaf4" stroke-width="8" opacity=".8"/><circle cx="348" cy="198" r="42" fill="#15191d"/><path d="M306 198h84M348 156v84" stroke="#f6bc42" stroke-width="5" fill="none"/>
</svg>
