<svg xmlns="http://www.w3.org/2000/svg" viewBox="0 0 800 420" role="img" aria-label="Ilustracion propia de pista de tenis para esta pregunta">
  <defs>
    <linearGradient id="bg" x1="0" x2="1" y1="0" y2="1">
      <stop stop-color="#e8fbf5"/>
      <stop offset="1" stop-color="#e8fbf5" stop-opacity="0.22"/>
    </linearGradient>
  </defs>
  <rect width="800" height="420" fill="url(#bg)"/>
  <circle cx="569" cy="268" r="120" fill="#12b7a6" opacity="0.13"/>
  <circle cx="305" cy="338" r="91" fill="#f6bc42" opacity="0.16"/>
  <circle cx="324" cy="252" r="5" fill="#315be8" opacity="0.45000000000000007"/><circle cx="631" cy="341" r="5" fill="#315be8" opacity="0.44000000000000006"/><circle cx="426" cy="74" r="5" fill="#315be8" opacity="0.47000000000000003"/><circle cx="733" cy="163" r="5" fill="#315be8" opacity="0.46"/><circle cx="120" cy="267" r="5" fill="#315be8" opacity="0.41000000000000003"/><circle cx="427" cy="356" r="5" fill="#315be8" opacity="0.4"/><circle cx="222" cy="88" r="5" fill="#315be8" opacity="0.43000000000000005"/><circle cx="529" cy="177" r="5" fill="#315be8" opacity="0.42000000000000004"/><circle cx="732" cy="223" r="5" fill="#315be8" opacity="0.53"/>
  <rect x="96" y="52" width="608" height="316" rx="28" fill="#f6bc42"/><path d="M400 52v316M96 210h608M170 110h460M170 310h460M170 110v200M630 110v200" stroke="#fff" stroke-width="7" opacity=".88"/><circle cx="390" cy="228" r="18" fill="#315be8"/><ellipse cx="298" cy="206" rx="36" ry="50" fill="none" stroke="#fffaf4" stroke-width="9" transform="rotate(-18 298 206)"/>
</svg>
