<svg xmlns="http://www.w3.org/2000/svg" viewBox="0 0 800 420" role="img" aria-label="Ilustracion propia de estadio y futbol generico para esta pregunta">
  <defs>
    <linearGradient id="bg" x1="0" x2="1" y1="0" y2="1">
      <stop stop-color="#eaf8f5"/>
      <stop offset="1" stop-color="#15191d" stop-opacity="0.22"/>
    </linearGradient>
  </defs>
  <rect width="800" height="420" fill="url(#bg)"/>
  <circle cx="386" cy="289" r="121" fill="#26b99f" opacity="0.13"/>
  <circle cx="582" cy="233" r="111" fill="#f6bc42" opacity="0.16"/>
  <circle cx="148" cy="75" r="4" fill="#15191d" opacity="0.36000000000000004"/><circle cx="455" cy="164" r="4" fill="#15191d" opacity="0.35000000000000003"/><circle cx="250" cy="239" r="4" fill="#15191d" opacity="0.38"/><circle cx="557" cy="328" r="4" fill="#15191d" opacity="0.37"/><circle cx="120" cy="188" r="4" fill="#15191d" opacity="0.71"/><circle cx="427" cy="278" r="4" fill="#15191d" opacity="0.7"/><circle cx="222" cy="352" r="4" fill="#15191d" opacity="0.28"/><circle cx="529" cy="99" r="4" fill="#15191d" opacity="0.72"/><circle cx="324" cy="174" r="4" fill="#15191d" opacity="0.30000000000000004"/>
  <path d="M92 270c130-94 486-94 616 0v92H92z" fill="#26b99f" opacity=".9"/><path d="M150 270c102-54 398-54 500 0" fill="none" stroke="#fff" stroke-width="14" opacity=".64"/><rect x="165" y="304" width="470" height="62" rx="16" fill="#f6bc42"/><path d="M400 304v62M165 335h470" stroke="#fff" stroke-width="4" opacity=".65"/><path d="M400 86l18 45h48l-38 29 14 48-42-28-42 28 14-48-38-29h48z" fill="#15191d"/>
</svg>
