<svg xmlns="http://www.w3.org/2000/svg" viewBox="0 0 800 420" role="img" aria-label="Ilustracion propia de cancha de baloncesto para esta pregunta">
  <defs>
    <linearGradient id="bg" x1="0" x2="1" y1="0" y2="1">
      <stop stop-color="#fff1df"/>
      <stop offset="1" stop-color="#f6bc42" stop-opacity="0.22"/>
    </linearGradient>
  </defs>
  <rect width="800" height="420" fill="url(#bg)"/>
  <circle cx="458" cy="148" r="110" fill="#f6bc42" opacity="0.13"/>
  <circle cx="441" cy="323" r="89" fill="#d95a35" opacity="0.16"/>
  <circle cx="453" cy="172" r="4" fill="#15191d" opacity="0.46"/><circle cx="146" cy="83" r="4" fill="#15191d" opacity="0.47000000000000003"/><circle cx="351" cy="350" r="4" fill="#15191d" opacity="0.44000000000000006"/><circle cx="44" cy="261" r="4" fill="#15191d" opacity="0.45000000000000007"/><circle cx="249" cy="186" r="4" fill="#15191d" opacity="0.42000000000000004"/><circle cx="658" cy="97" r="4" fill="#15191d" opacity="0.43000000000000005"/><circle cx="147" cy="365" r="4" fill="#15191d" opacity="0.4"/><circle cx="556" cy="276" r="4" fill="#15191d" opacity="0.41000000000000003"/><circle cx="145" cy="143" r="3" fill="#15191d" opacity="0.54"/>
  <rect x="76" y="58" width="648" height="304" rx="30" fill="#d95a35"/><path d="M100 210h600M400 58v304" stroke="#fffaf4" stroke-width="8" opacity=".8"/><circle cx="400" cy="210" r="66" fill="none" stroke="#fffaf4" stroke-width="8" opacity=".8"/><circle cx="348" cy="198" r="42" fill="#15191d"/><path d="M306 198h84M348 156v84" stroke="#f6bc42" stroke-width="5" fill="none"/>
</svg>
