<svg xmlns="http://www.w3.org/2000/svg" viewBox="0 0 800 420" role="img" aria-label="Ilustracion propia de cancha de baloncesto para esta pregunta">
  <defs>
    <linearGradient id="bg" x1="0" x2="1" y1="0" y2="1">
      <stop stop-color="#fff1df"/>
      <stop offset="1" stop-color="#15191d" stop-opacity="0.22"/>
    </linearGradient>
  </defs>
  <rect width="800" height="420" fill="url(#bg)"/>
  <circle cx="116" cy="146" r="131" fill="#f6bc42" opacity="0.13"/>
  <circle cx="473" cy="72" r="112" fill="#d95a35" opacity="0.16"/>
  <circle cx="177" cy="293" r="5" fill="#15191d" opacity="0.38"/><circle cx="586" cy="204" r="5" fill="#15191d" opacity="0.39"/><circle cx="75" cy="129" r="5" fill="#15191d" opacity="0.36000000000000004"/><circle cx="484" cy="40" r="5" fill="#15191d" opacity="0.37"/><circle cx="689" cy="307" r="5" fill="#15191d" opacity="0.34"/><circle cx="382" cy="218" r="5" fill="#15191d" opacity="0.35000000000000003"/><circle cx="587" cy="144" r="5" fill="#15191d" opacity="0.32"/><circle cx="280" cy="54" r="5" fill="#15191d" opacity="0.33"/><circle cx="585" cy="264" r="5" fill="#15191d" opacity="0.46"/>
  <rect x="76" y="58" width="648" height="304" rx="30" fill="#d95a35"/><path d="M100 210h600M400 58v304" stroke="#fffaf4" stroke-width="8" opacity=".8"/><circle cx="400" cy="210" r="52" fill="none" stroke="#fffaf4" stroke-width="8" opacity=".8"/><circle cx="180" cy="150" r="42" fill="#15191d"/><path d="M138 150h84M180 108v84" stroke="#f6bc42" stroke-width="5" fill="none"/>
</svg>
