<svg xmlns="http://www.w3.org/2000/svg" viewBox="0 0 800 420" role="img" aria-label="Ilustracion propia de circuito de velocidad para esta pregunta">
  <defs>
    <linearGradient id="bg" x1="0" x2="1" y1="0" y2="1">
      <stop stop-color="#e7f8ff"/>
      <stop offset="1" stop-color="#315be8" stop-opacity="0.22"/>
    </linearGradient>
  </defs>
  <rect width="800" height="420" fill="url(#bg)"/>
  <circle cx="256" cy="298" r="143" fill="#15191d" opacity="0.13"/>
  <circle cx="641" cy="270" r="133" fill="#ff4f6d" opacity="0.16"/>
  <circle cx="431" cy="273" r="3" fill="#315be8" opacity="0.51"/><circle cx="124" cy="184" r="3" fill="#315be8" opacity="0.52"/><circle cx="533" cy="95" r="3" fill="#315be8" opacity="0.53"/><circle cx="226" cy="348" r="3" fill="#315be8" opacity="0.54"/><circle cx="635" cy="259" r="3" fill="#315be8" opacity="0.55"/><circle cx="328" cy="170" r="3" fill="#315be8" opacity="0.56"/><circle cx="737" cy="81" r="3" fill="#315be8" opacity="0.5700000000000001"/><circle cx="430" cy="333" r="3" fill="#315be8" opacity="0.5800000000000001"/><circle cx="123" cy="244" r="3" fill="#315be8" opacity="0.5900000000000001"/>
  <path d="M98 300c110-170 248-42 350-120 60-46 118-84 210-28 66 40 54 132-26 152-96 24-160-50-246-24-100 30-152 94-288 20z" fill="none" stroke="#15191d" stroke-width="40" stroke-linecap="round"/><path d="M98 300c110-170 248-42 350-120 60-46 118-84 210-28 66 40 54 132-26 152-96 24-160-50-246-24-100 30-152 94-288 20z" fill="none" stroke="#fff" stroke-width="7" stroke-dasharray="24 22" stroke-linecap="round"/><rect x="280" y="250" width="150" height="42" rx="18" fill="#315be8"/><path d="M308 250l34-34h52l24 34z" fill="#fffaf4"/>
</svg>
