<svg xmlns="http://www.w3.org/2000/svg" viewBox="0 0 800 420" role="img" aria-label="Ilustracion propia de arte y museo para esta pregunta">
  <defs>
    <linearGradient id="bg" x1="0" x2="1" y1="0" y2="1">
      <stop stop-color="#fff2df"/>
      <stop offset="1" stop-color="#fff2df" stop-opacity="0.22"/>
    </linearGradient>
  </defs>
  <rect width="800" height="420" fill="url(#bg)"/>
  <circle cx="539" cy="248" r="102" fill="#6f4a2d" opacity="0.13"/>
  <circle cx="226" cy="156" r="128" fill="#12b7a6" opacity="0.16"/>
  <circle cx="551" cy="254" r="2" fill="#ff4f6d" opacity="0.64"/><circle cx="244" cy="164" r="2" fill="#ff4f6d" opacity="0.65"/><circle cx="653" cy="75" r="2" fill="#ff4f6d" opacity="0.66"/><circle cx="346" cy="328" r="2" fill="#ff4f6d" opacity="0.67"/><circle cx="755" cy="239" r="2" fill="#ff4f6d" opacity="0.68"/><circle cx="448" cy="150" r="2" fill="#ff4f6d" opacity="0.69"/><circle cx="141" cy="61" r="5" fill="#ff4f6d" opacity="0.7"/><circle cx="550" cy="314" r="5" fill="#ff4f6d" opacity="0.71"/><circle cx="143" cy="283" r="2" fill="#ff4f6d" opacity="0.56"/>
  <rect x="282" y="54" width="304" height="312" rx="24" fill="#6f4a2d"/><rect x="312" y="84" width="244" height="252" rx="16" fill="#d9c092"/><circle cx="434" cy="178" r="54" fill="#f0c7a5"/><path d="M364 318c12-82 42-120 70-120s58 38 70 120z" fill="#ff4f6d"/><path d="M378 154c36-72 116-46 122 10-36-18-74-18-122-10z" fill="#4a2d22"/>
</svg>
