<svg xmlns="http://www.w3.org/2000/svg" viewBox="0 0 800 420" role="img" aria-label="Ilustracion propia de espacio y planetas para esta pregunta">
  <defs>
    <linearGradient id="bg" x1="0" x2="1" y1="0" y2="1">
      <stop stop-color="#12171a"/>
      <stop offset="1" stop-color="#f6bc42" stop-opacity="0.22"/>
    </linearGradient>
  </defs>
  <rect width="800" height="420" fill="url(#bg)"/>
  <circle cx="619" cy="252" r="141" fill="#e46b4f" opacity="0.13"/>
  <circle cx="386" cy="193" r="143" fill="#f6bc42" opacity="0.16"/>
  <circle cx="739" cy="352" r="4" fill="#315be8" opacity="0.67"/><circle cx="432" cy="262" r="4" fill="#315be8" opacity="0.68"/><circle cx="125" cy="173" r="4" fill="#315be8" opacity="0.69"/><circle cx="534" cy="84" r="3" fill="#315be8" opacity="0.7"/><circle cx="535" cy="366" r="4" fill="#315be8" opacity="0.63"/><circle cx="228" cy="277" r="4" fill="#315be8" opacity="0.64"/><circle cx="637" cy="188" r="4" fill="#315be8" opacity="0.65"/><circle cx="330" cy="99" r="4" fill="#315be8" opacity="0.66"/><circle cx="431" cy="322" r="3" fill="#315be8" opacity="0.30000000000000004"/>
  <rect width="800" height="420" fill="#e46b4f"/><circle cx="388" cy="218" r="91" fill="#f6bc42"/><path d="M230 212c36 14 66-22 112-2" stroke="#8f3327" stroke-width="12" stroke-linecap="round" opacity=".36"/><circle cx="432" cy="214" r="60" fill="#315be8"/><circle cx="600" cy="276" r="32" fill="#fffaf4"/><path d="M176 324c140 46 308 54 476 0" stroke="#fff" stroke-width="5" fill="none" opacity=".38"/>
</svg>
