<svg xmlns="http://www.w3.org/2000/svg" viewBox="0 0 800 420" role="img" aria-label="Ilustracion propia de mapa y geografia para esta pregunta">
  <defs>
    <linearGradient id="bg" x1="0" x2="1" y1="0" y2="1">
      <stop stop-color="#eaf9f6"/>
      <stop offset="1" stop-color="#12b7a6" stop-opacity="0.22"/>
    </linearGradient>
  </defs>
  <rect width="800" height="420" fill="url(#bg)"/>
  <circle cx="232" cy="164" r="75" fill="#fffaf4" opacity="0.13"/>
  <circle cx="113" cy="146" r="115" fill="#12b7a6" opacity="0.16"/>
  <circle cx="435" cy="344" r="4" fill="#ff4f6d" opacity="0.54"/><circle cx="128" cy="255" r="4" fill="#ff4f6d" opacity="0.55"/><circle cx="537" cy="166" r="4" fill="#ff4f6d" opacity="0.56"/><circle cx="230" cy="77" r="4" fill="#ff4f6d" opacity="0.5700000000000001"/><circle cx="231" cy="359" r="4" fill="#ff4f6d" opacity="0.5"/><circle cx="640" cy="270" r="4" fill="#ff4f6d" opacity="0.51"/><circle cx="333" cy="181" r="4" fill="#ff4f6d" opacity="0.52"/><circle cx="742" cy="92" r="4" fill="#ff4f6d" opacity="0.53"/><circle cx="743" cy="374" r="4" fill="#ff4f6d" opacity="0.46"/>
  <path d="M100 84l170-42 160 50 170-42 100 42v244l-170 42-160-50-170 42-100-42z" fill="#12b7a6" stroke="#15191d" stroke-width="5" opacity=".94"/><path d="M270 42v286M430 92v286M600 50v286" stroke="#15191d" stroke-width="4" opacity=".16"/><path d="M126 152c80 22 106-36 176-8 72 28 94 88 182 48 86-40 128-8 184 44" fill="none" stroke="#ff4f6d" stroke-width="14" stroke-linecap="round"/><path d="M470 126c0 36-38 70-38 70s-38-34-38-70a38 38 0 0176 0z" fill="#fffaf4"/>
</svg>
