<svg xmlns="http://www.w3.org/2000/svg" viewBox="0 0 800 420" role="img" aria-label="Ilustracion propia de oceano y olas para esta pregunta">
  <defs>
    <linearGradient id="bg" x1="0" x2="1" y1="0" y2="1">
      <stop stop-color="#dff8ff"/>
      <stop offset="1" stop-color="#fffaf4" stop-opacity="0.22"/>
    </linearGradient>
  </defs>
  <rect width="800" height="420" fill="url(#bg)"/>
  <circle cx="324" cy="189" r="87" fill="#12b7a6" opacity="0.13"/>
  <circle cx="124" cy="77" r="116" fill="#315be8" opacity="0.16"/>
  <circle cx="721" cy="53" r="2" fill="#fffaf4" opacity="0.7"/><circle cx="414" cy="306" r="2" fill="#fffaf4" opacity="0.71"/><circle cx="619" cy="232" r="2" fill="#fffaf4" opacity="0.68"/><circle cx="312" cy="142" r="2" fill="#fffaf4" opacity="0.69"/><circle cx="517" cy="68" r="2" fill="#fffaf4" opacity="0.66"/><circle cx="210" cy="321" r="2" fill="#fffaf4" opacity="0.67"/><circle cx="415" cy="246" r="2" fill="#fffaf4" opacity="0.64"/><circle cx="108" cy="157" r="2" fill="#fffaf4" opacity="0.65"/><circle cx="413" cy="366" r="2" fill="#fffaf4" opacity="0.33"/>
  <path d="M0 240c88-42 144 42 232 0s144 42 232 0 144 42 232 0 144 42 232 0v180H0z" fill="#fff" opacity=".34"/><path d="M0 316c88-42 144 42 232 0s144 42 232 0 144 42 232 0 144 42 232 0" fill="none" stroke="#fff" stroke-width="18" opacity=".62"/><path d="M142 174c82-44 170-44 252 0" fill="none" stroke="#fff" stroke-width="10" opacity=".45" stroke-linecap="round"/>
</svg>
