<svg xmlns="http://www.w3.org/2000/svg" viewBox="0 0 800 420" role="img" aria-label="Ilustracion propia de oceano y olas para esta pregunta">
  <defs>
    <linearGradient id="bg" x1="0" x2="1" y1="0" y2="1">
      <stop stop-color="#dff8ff"/>
      <stop offset="1" stop-color="#315be8" stop-opacity="0.22"/>
    </linearGradient>
  </defs>
  <rect width="800" height="420" fill="url(#bg)"/>
  <circle cx="292" cy="277" r="113" fill="#12b7a6" opacity="0.13"/>
  <circle cx="420" cy="160" r="110" fill="#315be8" opacity="0.16"/>
  <circle cx="479" cy="37" r="2" fill="#fffaf4" opacity="0.45000000000000007"/><circle cx="172" cy="290" r="2" fill="#fffaf4" opacity="0.46"/><circle cx="581" cy="200" r="2" fill="#fffaf4" opacity="0.47000000000000003"/><circle cx="274" cy="111" r="2" fill="#fffaf4" opacity="0.48000000000000004"/><circle cx="275" cy="51" r="3" fill="#fffaf4" opacity="0.41000000000000003"/><circle cx="684" cy="304" r="3" fill="#fffaf4" opacity="0.42000000000000004"/><circle cx="377" cy="215" r="3" fill="#fffaf4" opacity="0.43000000000000005"/><circle cx="70" cy="126" r="2" fill="#fffaf4" opacity="0.44000000000000006"/><circle cx="171" cy="350" r="2" fill="#fffaf4" opacity="0.53"/>
  <path d="M0 240c88-42 144 42 232 0s144 42 232 0 144 42 232 0 144 42 232 0v180H0z" fill="#fff" opacity=".34"/><path d="M0 296c88-42 144 42 232 0s144 42 232 0 144 42 232 0 144 42 232 0" fill="none" stroke="#fff" stroke-width="18" opacity=".62"/><path d="M142 174c82-44 170-44 252 0" fill="none" stroke="#fff" stroke-width="10" opacity=".45" stroke-linecap="round"/>
</svg>
