<svg xmlns="http://www.w3.org/2000/svg" viewBox="0 0 800 420" role="img" aria-label="Ilustracion propia de oceano y olas para esta pregunta">
  <defs>
    <linearGradient id="bg" x1="0" x2="1" y1="0" y2="1">
      <stop stop-color="#dff8ff"/>
      <stop offset="1" stop-color="#315be8" stop-opacity="0.22"/>
    </linearGradient>
  </defs>
  <rect width="800" height="420" fill="url(#bg)"/>
  <circle cx="475" cy="158" r="117" fill="#12b7a6" opacity="0.13"/>
  <circle cx="593" cy="217" r="120" fill="#315be8" opacity="0.16"/>
  <circle cx="639" cy="317" r="2" fill="#fffaf4" opacity="0.49"/><circle cx="332" cy="228" r="2" fill="#fffaf4" opacity="0.5"/><circle cx="741" cy="139" r="2" fill="#fffaf4" opacity="0.51"/><circle cx="434" cy="50" r="2" fill="#fffaf4" opacity="0.52"/><circle cx="127" cy="303" r="2" fill="#fffaf4" opacity="0.53"/><circle cx="536" cy="214" r="2" fill="#fffaf4" opacity="0.54"/><circle cx="229" cy="125" r="2" fill="#fffaf4" opacity="0.55"/><circle cx="638" cy="377" r="2" fill="#fffaf4" opacity="0.56"/><circle cx="331" cy="288" r="2" fill="#fffaf4" opacity="0.5700000000000001"/>
  <path d="M0 240c88-42 144 42 232 0s144 42 232 0 144 42 232 0 144 42 232 0v180H0z" fill="#fff" opacity=".34"/><path d="M0 326c88-42 144 42 232 0s144 42 232 0 144 42 232 0 144 42 232 0" fill="none" stroke="#fff" stroke-width="18" opacity=".62"/><path d="M142 174c82-44 170-44 252 0" fill="none" stroke="#fff" stroke-width="10" opacity=".45" stroke-linecap="round"/>
</svg>
