<svg xmlns="http://www.w3.org/2000/svg" viewBox="0 0 800 420" role="img" aria-label="Ilustracion propia de oceano y olas para esta pregunta">
  <defs>
    <linearGradient id="bg" x1="0" x2="1" y1="0" y2="1">
      <stop stop-color="#dff8ff"/>
      <stop offset="1" stop-color="#12b7a6" stop-opacity="0.22"/>
    </linearGradient>
  </defs>
  <rect width="800" height="420" fill="url(#bg)"/>
  <circle cx="178" cy="107" r="142" fill="#12b7a6" opacity="0.13"/>
  <circle cx="181" cy="139" r="113" fill="#315be8" opacity="0.16"/>
  <circle cx="467" cy="199" r="5" fill="#fffaf4" opacity="0.69"/><circle cx="160" cy="110" r="5" fill="#fffaf4" opacity="0.7"/><circle cx="569" cy="362" r="5" fill="#fffaf4" opacity="0.71"/><circle cx="262" cy="273" r="5" fill="#fffaf4" opacity="0.72"/><circle cx="671" cy="184" r="5" fill="#fffaf4" opacity="0.28"/><circle cx="364" cy="95" r="5" fill="#fffaf4" opacity="0.29000000000000004"/><circle cx="57" cy="348" r="5" fill="#fffaf4" opacity="0.30000000000000004"/><circle cx="466" cy="259" r="5" fill="#fffaf4" opacity="0.31000000000000005"/><circle cx="59" cy="228" r="5" fill="#fffaf4" opacity="0.6100000000000001"/>
  <path d="M0 240c88-42 144 42 232 0s144 42 232 0 144 42 232 0 144 42 232 0v180H0z" fill="#fff" opacity=".34"/><path d="M0 306c88-42 144 42 232 0s144 42 232 0 144 42 232 0 144 42 232 0" fill="none" stroke="#fff" stroke-width="18" opacity=".62"/><path d="M142 174c82-44 170-44 252 0" fill="none" stroke="#fff" stroke-width="10" opacity=".45" stroke-linecap="round"/>
</svg>
