<svg xmlns="http://www.w3.org/2000/svg" viewBox="0 0 800 420" role="img" aria-label="Ilustracion propia de mapa y geografia para esta pregunta">
  <defs>
    <linearGradient id="bg" x1="0" x2="1" y1="0" y2="1">
      <stop stop-color="#eaf9f6"/>
      <stop offset="1" stop-color="#ff4f6d" stop-opacity="0.22"/>
    </linearGradient>
  </defs>
  <rect width="800" height="420" fill="url(#bg)"/>
  <circle cx="124" cy="160" r="87" fill="#fffaf4" opacity="0.13"/>
  <circle cx="624" cy="217" r="66" fill="#12b7a6" opacity="0.16"/>
  <circle cx="599" cy="323" r="4" fill="#ff4f6d" opacity="0.5900000000000001"/><circle cx="292" cy="234" r="4" fill="#ff4f6d" opacity="0.6000000000000001"/><circle cx="701" cy="144" r="4" fill="#ff4f6d" opacity="0.6100000000000001"/><circle cx="394" cy="55" r="4" fill="#ff4f6d" opacity="0.6200000000000001"/><circle cx="395" cy="337" r="4" fill="#ff4f6d" opacity="0.55"/><circle cx="88" cy="248" r="4" fill="#ff4f6d" opacity="0.56"/><circle cx="497" cy="159" r="4" fill="#ff4f6d" opacity="0.5700000000000001"/><circle cx="190" cy="70" r="4" fill="#ff4f6d" opacity="0.5800000000000001"/><circle cx="291" cy="294" r="4" fill="#ff4f6d" opacity="0.67"/>
  <path d="M100 84l170-42 160 50 170-42 100 42v244l-170 42-160-50-170 42-100-42z" fill="#12b7a6" stroke="#15191d" stroke-width="5" opacity=".94"/><path d="M270 42v286M430 92v286M600 50v286" stroke="#15191d" stroke-width="4" opacity=".16"/><path d="M126 184c80 22 106-36 176-8 72 28 94 88 182 48 86-40 128-8 184 44" fill="none" stroke="#ff4f6d" stroke-width="14" stroke-linecap="round"/><path d="M530 154c0 36-38 70-38 70s-38-34-38-70a38 38 0 0176 0z" fill="#fffaf4"/>
</svg>
