<svg xmlns="http://www.w3.org/2000/svg" viewBox="0 0 800 420" role="img" aria-label="Ilustracion propia de mapa y geografia para esta pregunta">
  <defs>
    <linearGradient id="bg" x1="0" x2="1" y1="0" y2="1">
      <stop stop-color="#eaf9f6"/>
      <stop offset="1" stop-color="#ff4f6d" stop-opacity="0.22"/>
    </linearGradient>
  </defs>
  <rect width="800" height="420" fill="url(#bg)"/>
  <circle cx="476" cy="271" r="133" fill="#fffaf4" opacity="0.13"/>
  <circle cx="293" cy="302" r="112" fill="#12b7a6" opacity="0.16"/>
  <circle cx="133" cy="248" r="5" fill="#ff4f6d" opacity="0.37"/><circle cx="542" cy="159" r="5" fill="#ff4f6d" opacity="0.38"/><circle cx="747" cy="84" r="5" fill="#ff4f6d" opacity="0.35000000000000003"/><circle cx="440" cy="337" r="5" fill="#ff4f6d" opacity="0.36000000000000004"/><circle cx="645" cy="262" r="5" fill="#ff4f6d" opacity="0.33"/><circle cx="338" cy="173" r="5" fill="#ff4f6d" opacity="0.34"/><circle cx="543" cy="99" r="5" fill="#ff4f6d" opacity="0.31000000000000005"/><circle cx="236" cy="352" r="5" fill="#ff4f6d" opacity="0.32"/><circle cx="441" cy="277" r="5" fill="#ff4f6d" opacity="0.29000000000000004"/>
  <path d="M100 84l170-42 160 50 170-42 100 42v244l-170 42-160-50-170 42-100-42z" fill="#12b7a6" stroke="#15191d" stroke-width="5" opacity=".94"/><path d="M270 42v286M430 92v286M600 50v286" stroke="#15191d" stroke-width="4" opacity=".16"/><path d="M126 136c80 22 106-36 176-8 72 28 94 88 182 48 86-40 128-8 184 44" fill="none" stroke="#ff4f6d" stroke-width="14" stroke-linecap="round"/><path d="M440 112c0 36-38 70-38 70s-38-34-38-70a38 38 0 0176 0z" fill="#fffaf4"/>
</svg>
