<svg xmlns="http://www.w3.org/2000/svg" viewBox="0 0 800 420" role="img" aria-label="Ilustracion propia de oceano y olas para esta pregunta">
  <defs>
    <linearGradient id="bg" x1="0" x2="1" y1="0" y2="1">
      <stop stop-color="#dff8ff"/>
      <stop offset="1" stop-color="#dff8ff" stop-opacity="0.22"/>
    </linearGradient>
  </defs>
  <rect width="800" height="420" fill="url(#bg)"/>
  <circle cx="201" cy="328" r="112" fill="#12b7a6" opacity="0.13"/>
  <circle cx="634" cy="131" r="100" fill="#315be8" opacity="0.16"/>
  <circle cx="491" cy="310" r="2" fill="#fffaf4" opacity="0.5700000000000001"/><circle cx="184" cy="221" r="2" fill="#fffaf4" opacity="0.5800000000000001"/><circle cx="361" cy="260" r="2" fill="#fffaf4" opacity="0.45000000000000007"/><circle cx="54" cy="171" r="2" fill="#fffaf4" opacity="0.46"/><circle cx="287" cy="325" r="2" fill="#fffaf4" opacity="0.53"/><circle cx="696" cy="235" r="2" fill="#fffaf4" opacity="0.54"/><circle cx="389" cy="146" r="2" fill="#fffaf4" opacity="0.55"/><circle cx="82" cy="57" r="2" fill="#fffaf4" opacity="0.56"/><circle cx="83" cy="339" r="2" fill="#fffaf4" opacity="0.49"/>
  <path d="M0 240c88-42 144 42 232 0s144 42 232 0 144 42 232 0 144 42 232 0v180H0z" fill="#fff" opacity=".34"/><path d="M0 286c88-42 144 42 232 0s144 42 232 0 144 42 232 0 144 42 232 0" fill="none" stroke="#fff" stroke-width="18" opacity=".62"/><path d="M142 174c82-44 170-44 252 0" fill="none" stroke="#fff" stroke-width="10" opacity=".45" stroke-linecap="round"/>
</svg>
