<svg xmlns="http://www.w3.org/2000/svg" viewBox="0 0 800 420" role="img" aria-label="Ilustracion propia de oceano y olas para esta pregunta">
  <defs>
    <linearGradient id="bg" x1="0" x2="1" y1="0" y2="1">
      <stop stop-color="#dff8ff"/>
      <stop offset="1" stop-color="#12b7a6" stop-opacity="0.22"/>
    </linearGradient>
  </defs>
  <rect width="800" height="420" fill="url(#bg)"/>
  <circle cx="680" cy="225" r="80" fill="#12b7a6" opacity="0.13"/>
  <circle cx="694" cy="118" r="126" fill="#315be8" opacity="0.16"/>
  <circle cx="448" cy="293" r="4" fill="#fffaf4" opacity="0.30000000000000004"/><circle cx="755" cy="40" r="4" fill="#fffaf4" opacity="0.29000000000000004"/><circle cx="550" cy="115" r="4" fill="#fffaf4" opacity="0.32"/><circle cx="141" cy="204" r="4" fill="#fffaf4" opacity="0.31000000000000005"/><circle cx="244" cy="307" r="4" fill="#fffaf4" opacity="0.71"/><circle cx="551" cy="55" r="4" fill="#fffaf4" opacity="0.7"/><circle cx="346" cy="129" r="4" fill="#fffaf4" opacity="0.28"/><circle cx="653" cy="218" r="4" fill="#fffaf4" opacity="0.72"/><circle cx="140" cy="264" r="4" fill="#fffaf4" opacity="0.38"/>
  <path d="M0 240c88-42 144 42 232 0s144 42 232 0 144 42 232 0 144 42 232 0v180H0z" fill="#fff" opacity=".34"/><path d="M0 326c88-42 144 42 232 0s144 42 232 0 144 42 232 0 144 42 232 0" fill="none" stroke="#fff" stroke-width="18" opacity=".62"/><path d="M142 174c82-44 170-44 252 0" fill="none" stroke="#fff" stroke-width="10" opacity=".45" stroke-linecap="round"/>
</svg>
