<svg xmlns="http://www.w3.org/2000/svg" viewBox="0 0 800 420" role="img" aria-label="Ilustracion propia de oceano y olas para esta pregunta">
  <defs>
    <linearGradient id="bg" x1="0" x2="1" y1="0" y2="1">
      <stop stop-color="#dff8ff"/>
      <stop offset="1" stop-color="#fffaf4" stop-opacity="0.22"/>
    </linearGradient>
  </defs>
  <rect width="800" height="420" fill="url(#bg)"/>
  <circle cx="652" cy="310" r="137" fill="#12b7a6" opacity="0.13"/>
  <circle cx="240" cy="164" r="143" fill="#315be8" opacity="0.16"/>
  <circle cx="720" cy="115" r="3" fill="#fffaf4" opacity="0.48000000000000004"/><circle cx="311" cy="205" r="3" fill="#fffaf4" opacity="0.47000000000000003"/><circle cx="106" cy="279" r="3" fill="#fffaf4" opacity="0.5"/><circle cx="413" cy="368" r="3" fill="#fffaf4" opacity="0.49"/><circle cx="208" cy="101" r="3" fill="#fffaf4" opacity="0.52"/><circle cx="515" cy="190" r="3" fill="#fffaf4" opacity="0.51"/><circle cx="310" cy="265" r="3" fill="#fffaf4" opacity="0.54"/><circle cx="617" cy="354" r="3" fill="#fffaf4" opacity="0.53"/><circle cx="312" cy="145" r="3" fill="#fffaf4" opacity="0.4"/>
  <path d="M0 240c88-42 144 42 232 0s144 42 232 0 144 42 232 0 144 42 232 0v180H0z" fill="#fff" opacity=".34"/><path d="M0 296c88-42 144 42 232 0s144 42 232 0 144 42 232 0 144 42 232 0" fill="none" stroke="#fff" stroke-width="18" opacity=".62"/><path d="M142 174c82-44 170-44 252 0" fill="none" stroke="#fff" stroke-width="10" opacity=".45" stroke-linecap="round"/>
</svg>
