<svg xmlns="http://www.w3.org/2000/svg" viewBox="0 0 800 420" role="img" aria-label="Ilustracion propia de escenario musical para esta pregunta">
  <defs>
    <linearGradient id="bg" x1="0" x2="1" y1="0" y2="1">
      <stop stop-color="#201525"/>
      <stop offset="1" stop-color="#ff4f6d" stop-opacity="0.22"/>
    </linearGradient>
  </defs>
  <rect width="800" height="420" fill="url(#bg)"/>
  <circle cx="507" cy="317" r="77" fill="#fffaf4" opacity="0.13"/>
  <circle cx="372" cy="308" r="95" fill="#ff4f6d" opacity="0.16"/>
  <circle cx="704" cy="370" r="5" fill="#12b7a6" opacity="0.49"/><circle cx="295" cy="117" r="5" fill="#12b7a6" opacity="0.48000000000000004"/><circle cx="90" cy="192" r="5" fill="#12b7a6" opacity="0.51"/><circle cx="397" cy="281" r="5" fill="#12b7a6" opacity="0.5"/><circle cx="192" cy="356" r="5" fill="#12b7a6" opacity="0.53"/><circle cx="499" cy="103" r="5" fill="#12b7a6" opacity="0.52"/><circle cx="294" cy="177" r="5" fill="#12b7a6" opacity="0.55"/><circle cx="601" cy="266" r="5" fill="#12b7a6" opacity="0.54"/><circle cx="296" cy="57" r="5" fill="#12b7a6" opacity="0.41000000000000003"/>
  <rect width="800" height="420" fill="#fffaf4"/><path d="M134 0l170 290M666 0L510 290" stroke="#12b7a6" stroke-width="34" opacity=".5"/><rect x="150" y="292" width="500" height="54" rx="20" fill="#ff4f6d" opacity=".9"/><path d="M280 292c26-80 214-80 240 0" fill="none" stroke="#fffaf4" stroke-width="16"/><path d="M410 98v126c0 28-24 50-58 50s-58-22-58-50 24-50 58-50c12 0 23 3 32 8V98z" fill="#ff4f6d"/>
</svg>
