<svg xmlns="http://www.w3.org/2000/svg" viewBox="0 0 800 420" role="img" aria-label="Ilustracion propia de escenario musical para esta pregunta">
  <defs>
    <linearGradient id="bg" x1="0" x2="1" y1="0" y2="1">
      <stop stop-color="#201525"/>
      <stop offset="1" stop-color="#201525" stop-opacity="0.22"/>
    </linearGradient>
  </defs>
  <rect width="800" height="420" fill="url(#bg)"/>
  <circle cx="517" cy="86" r="102" fill="#fffaf4" opacity="0.13"/>
  <circle cx="673" cy="65" r="128" fill="#ff4f6d" opacity="0.16"/>
  <circle cx="703" cy="219" r="4" fill="#12b7a6" opacity="0.63"/><circle cx="396" cy="130" r="4" fill="#12b7a6" opacity="0.64"/><circle cx="89" cy="41" r="4" fill="#12b7a6" opacity="0.65"/><circle cx="498" cy="294" r="4" fill="#12b7a6" opacity="0.66"/><circle cx="499" cy="234" r="4" fill="#12b7a6" opacity="0.5900000000000001"/><circle cx="192" cy="144" r="4" fill="#12b7a6" opacity="0.6000000000000001"/><circle cx="601" cy="55" r="4" fill="#12b7a6" opacity="0.6100000000000001"/><circle cx="294" cy="308" r="4" fill="#12b7a6" opacity="0.6200000000000001"/><circle cx="395" cy="190" r="4" fill="#12b7a6" opacity="0.71"/>
  <rect width="800" height="420" fill="#fffaf4"/><path d="M134 0l170 290M666 0L510 290" stroke="#12b7a6" stroke-width="34" opacity=".5"/><rect x="150" y="292" width="500" height="54" rx="20" fill="#ff4f6d" opacity=".9"/><path d="M280 292c26-80 214-80 240 0" fill="none" stroke="#fffaf4" stroke-width="16"/><path d="M410 98v126c0 28-24 50-58 50s-58-22-58-50 24-50 58-50c12 0 23 3 32 8V98z" fill="#ff4f6d"/>
</svg>
