<svg xmlns="http://www.w3.org/2000/svg" viewBox="0 0 800 420" role="img" aria-label="Ilustracion propia de arte y museo para esta pregunta">
  <defs>
    <linearGradient id="bg" x1="0" x2="1" y1="0" y2="1">
      <stop stop-color="#fff2df"/>
      <stop offset="1" stop-color="#12b7a6" stop-opacity="0.22"/>
    </linearGradient>
  </defs>
  <rect width="800" height="420" fill="url(#bg)"/>
  <circle cx="283" cy="90" r="81" fill="#6f4a2d" opacity="0.13"/>
  <circle cx="569" cy="208" r="86" fill="#12b7a6" opacity="0.16"/>
  <circle cx="751" cy="278" r="2" fill="#ff4f6d" opacity="0.4"/><circle cx="444" cy="189" r="2" fill="#ff4f6d" opacity="0.41000000000000003"/><circle cx="137" cy="100" r="2" fill="#ff4f6d" opacity="0.42000000000000004"/><circle cx="546" cy="353" r="2" fill="#ff4f6d" opacity="0.43000000000000005"/><circle cx="239" cy="264" r="2" fill="#ff4f6d" opacity="0.44000000000000006"/><circle cx="648" cy="174" r="2" fill="#ff4f6d" opacity="0.45000000000000007"/><circle cx="341" cy="85" r="2" fill="#ff4f6d" opacity="0.46"/><circle cx="750" cy="338" r="2" fill="#ff4f6d" opacity="0.47000000000000003"/><circle cx="443" cy="249" r="2" fill="#ff4f6d" opacity="0.48000000000000004"/>
  <rect x="270" y="54" width="304" height="312" rx="24" fill="#6f4a2d"/><rect x="300" y="84" width="244" height="252" rx="16" fill="#d9c092"/><circle cx="422" cy="178" r="54" fill="#f0c7a5"/><path d="M352 318c12-82 42-120 70-120s58 38 70 120z" fill="#ff4f6d"/><path d="M366 154c36-72 116-46 122 10-36-18-74-18-122-10z" fill="#4a2d22"/>
</svg>
