<svg xmlns="http://www.w3.org/2000/svg" viewBox="0 0 800 420" role="img" aria-label="Ilustracion propia de cancha de baloncesto para esta pregunta">
  <defs>
    <linearGradient id="bg" x1="0" x2="1" y1="0" y2="1">
      <stop stop-color="#fff1df"/>
      <stop offset="1" stop-color="#d95a35" stop-opacity="0.22"/>
    </linearGradient>
  </defs>
  <rect width="800" height="420" fill="url(#bg)"/>
  <circle cx="542" cy="227" r="81" fill="#f6bc42" opacity="0.13"/>
  <circle cx="151" cy="297" r="126" fill="#d95a35" opacity="0.16"/>
  <circle cx="344" cy="280" r="4" fill="#15191d" opacity="0.44000000000000006"/><circle cx="651" cy="369" r="4" fill="#15191d" opacity="0.43000000000000005"/><circle cx="446" cy="102" r="4" fill="#15191d" opacity="0.46"/><circle cx="753" cy="191" r="4" fill="#15191d" opacity="0.45000000000000007"/><circle cx="140" cy="295" r="4" fill="#15191d" opacity="0.4"/><circle cx="447" cy="42" r="4" fill="#15191d" opacity="0.39"/><circle cx="242" cy="116" r="4" fill="#15191d" opacity="0.42000000000000004"/><circle cx="549" cy="206" r="4" fill="#15191d" opacity="0.41000000000000003"/><circle cx="652" cy="309" r="4" fill="#15191d" opacity="0.36000000000000004"/>
  <rect x="76" y="58" width="648" height="304" rx="30" fill="#d95a35"/><path d="M100 210h600M400 58v304" stroke="#fffaf4" stroke-width="8" opacity=".8"/><circle cx="400" cy="210" r="59" fill="none" stroke="#fffaf4" stroke-width="8" opacity=".8"/><circle cx="264" cy="174" r="42" fill="#15191d"/><path d="M222 174h84M264 132v84" stroke="#f6bc42" stroke-width="5" fill="none"/>
</svg>
