<svg xmlns="http://www.w3.org/2000/svg" viewBox="0 0 800 420" role="img" aria-label="Ilustracion propia de cine y rodaje para esta pregunta">
  <defs>
    <linearGradient id="bg" x1="0" x2="1" y1="0" y2="1">
      <stop stop-color="#15191d"/>
      <stop offset="1" stop-color="#f6bc42" stop-opacity="0.22"/>
    </linearGradient>
  </defs>
  <rect width="800" height="420" fill="url(#bg)"/>
  <circle cx="448" cy="346" r="119" fill="#fffaf4" opacity="0.13"/>
  <circle cx="515" cy="347" r="90" fill="#f6bc42" opacity="0.16"/>
  <circle cx="303" cy="101" r="2" fill="#ff4f6d" opacity="0.68"/><circle cx="712" cy="354" r="2" fill="#ff4f6d" opacity="0.69"/><circle cx="405" cy="265" r="2" fill="#ff4f6d" opacity="0.7"/><circle cx="98" cy="176" r="2" fill="#ff4f6d" opacity="0.71"/><circle cx="99" cy="116" r="2" fill="#ff4f6d" opacity="0.64"/><circle cx="508" cy="369" r="2" fill="#ff4f6d" opacity="0.65"/><circle cx="201" cy="279" r="2" fill="#ff4f6d" opacity="0.66"/><circle cx="610" cy="190" r="2" fill="#ff4f6d" opacity="0.67"/><circle cx="711" cy="72" r="2" fill="#ff4f6d" opacity="0.31000000000000005"/>
  <rect width="800" height="420" fill="#fffaf4"/><circle cx="540" cy="142" r="120" fill="#ff4f6d" opacity=".42"/><rect x="190" y="182" width="420" height="198" rx="22" fill="#f6bc42"/><rect x="190" y="124" width="420" height="70" rx="18" fill="#fffaf4"/><path d="M228 124l58 70M330 124l58 70M432 124l58 70M534 124l58 70" stroke="#fffaf4" stroke-width="20"/><rect x="244" y="254" width="312" height="18" rx="9" fill="#fffaf4" opacity=".16"/>
</svg>
