<svg xmlns="http://www.w3.org/2000/svg" viewBox="0 0 800 420" role="img" aria-label="Ilustracion propia de tecnologia para esta pregunta">
  <defs>
    <linearGradient id="bg" x1="0" x2="1" y1="0" y2="1">
      <stop stop-color="#111820"/>
      <stop offset="1" stop-color="#12b7a6" stop-opacity="0.22"/>
    </linearGradient>
  </defs>
  <rect width="800" height="420" fill="url(#bg)"/>
  <circle cx="129" cy="301" r="89" fill="#fffaf4" opacity="0.13"/>
  <circle cx="325" cy="163" r="97" fill="#315be8" opacity="0.16"/>
  <circle cx="318" cy="178" r="4" fill="#12b7a6" opacity="0.48000000000000004"/><circle cx="625" cy="267" r="4" fill="#12b7a6" opacity="0.47000000000000003"/><circle cx="216" cy="356" r="4" fill="#12b7a6" opacity="0.46"/><circle cx="523" cy="103" r="4" fill="#12b7a6" opacity="0.45000000000000007"/><circle cx="522" cy="163" r="4" fill="#12b7a6" opacity="0.52"/><circle cx="113" cy="253" r="4" fill="#12b7a6" opacity="0.51"/><circle cx="420" cy="342" r="4" fill="#12b7a6" opacity="0.5"/><circle cx="727" cy="89" r="4" fill="#12b7a6" opacity="0.49"/><circle cx="626" cy="207" r="4" fill="#12b7a6" opacity="0.4"/>
  <rect width="800" height="420" fill="#fffaf4"/><rect x="108" y="72" width="584" height="276" rx="28" fill="#315be8"/><rect x="108" y="72" width="584" height="58" rx="28" fill="#12b7a6"/><path d="M246 206l-62 44 62 44M554 206l62 44-62 44" stroke="#fffaf4" stroke-width="20" stroke-linecap="round" stroke-linejoin="round" fill="none"/><path d="M364 306l72-184" stroke="#12b7a6" stroke-width="18" stroke-linecap="round"/>
</svg>
