<svg xmlns="http://www.w3.org/2000/svg" viewBox="0 0 800 420" role="img" aria-label="Ilustracion propia de arte y museo para esta pregunta">
  <defs>
    <linearGradient id="bg" x1="0" x2="1" y1="0" y2="1">
      <stop stop-color="#fff2df"/>
      <stop offset="1" stop-color="#6f4a2d" stop-opacity="0.22"/>
    </linearGradient>
  </defs>
  <rect width="800" height="420" fill="url(#bg)"/>
  <circle cx="528" cy="125" r="128" fill="#6f4a2d" opacity="0.13"/>
  <circle cx="300" cy="212" r="102" fill="#12b7a6" opacity="0.16"/>
  <circle cx="681" cy="357" r="2" fill="#ff4f6d" opacity="0.51"/><circle cx="374" cy="268" r="2" fill="#ff4f6d" opacity="0.52"/><circle cx="579" cy="193" r="2" fill="#ff4f6d" opacity="0.49"/><circle cx="272" cy="104" r="2" fill="#ff4f6d" opacity="0.5"/><circle cx="477" cy="372" r="2" fill="#ff4f6d" opacity="0.47000000000000003"/><circle cx="170" cy="283" r="2" fill="#ff4f6d" opacity="0.48000000000000004"/><circle cx="375" cy="208" r="2" fill="#ff4f6d" opacity="0.45000000000000007"/><circle cx="68" cy="119" r="2" fill="#ff4f6d" opacity="0.46"/><circle cx="273" cy="44" r="2" fill="#ff4f6d" opacity="0.43000000000000005"/>
  <rect x="270" y="54" width="304" height="312" rx="24" fill="#6f4a2d"/><rect x="300" y="84" width="244" height="252" rx="16" fill="#d9c092"/><circle cx="422" cy="178" r="54" fill="#f0c7a5"/><path d="M352 318c12-82 42-120 70-120s58 38 70 120z" fill="#ff4f6d"/><path d="M366 154c36-72 116-46 122 10-36-18-74-18-122-10z" fill="#4a2d22"/>
</svg>
