<svg xmlns="http://www.w3.org/2000/svg" viewBox="0 0 800 420" role="img" aria-label="Ilustracion propia de cine y rodaje para esta pregunta">
  <defs>
    <linearGradient id="bg" x1="0" x2="1" y1="0" y2="1">
      <stop stop-color="#15191d"/>
      <stop offset="1" stop-color="#15191d" stop-opacity="0.22"/>
    </linearGradient>
  </defs>
  <rect width="800" height="420" fill="url(#bg)"/>
  <circle cx="454" cy="180" r="100" fill="#fffaf4" opacity="0.13"/>
  <circle cx="665" cy="291" r="118" fill="#f6bc42" opacity="0.16"/>
  <circle cx="119" cy="116" r="3" fill="#ff4f6d" opacity="0.5"/><circle cx="528" cy="369" r="3" fill="#ff4f6d" opacity="0.51"/><circle cx="221" cy="280" r="3" fill="#ff4f6d" opacity="0.52"/><circle cx="630" cy="191" r="3" fill="#ff4f6d" opacity="0.53"/><circle cx="147" cy="345" r="3" fill="#ff4f6d" opacity="0.6000000000000001"/><circle cx="324" cy="42" r="3" fill="#ff4f6d" opacity="0.47000000000000003"/><circle cx="733" cy="295" r="3" fill="#ff4f6d" opacity="0.48000000000000004"/><circle cx="426" cy="205" r="3" fill="#ff4f6d" opacity="0.49"/><circle cx="659" cy="360" r="3" fill="#ff4f6d" opacity="0.56"/>
  <rect width="800" height="420" fill="#fffaf4"/><circle cx="500" cy="168" r="120" fill="#ff4f6d" opacity=".42"/><rect x="190" y="182" width="420" height="198" rx="22" fill="#f6bc42"/><rect x="190" y="132" width="420" height="70" rx="18" fill="#fffaf4"/><path d="M228 132l58 70M330 132l58 70M432 132l58 70M534 132l58 70" stroke="#fffaf4" stroke-width="20"/><rect x="244" y="254" width="312" height="18" rx="9" fill="#fffaf4" opacity=".16"/>
</svg>
