<svg xmlns="http://www.w3.org/2000/svg" viewBox="0 0 800 420" role="img" aria-label="Ilustracion propia de cancha de baloncesto para esta pregunta">
  <defs>
    <linearGradient id="bg" x1="0" x2="1" y1="0" y2="1">
      <stop stop-color="#fff1df"/>
      <stop offset="1" stop-color="#15191d" stop-opacity="0.22"/>
    </linearGradient>
  </defs>
  <rect width="800" height="420" fill="url(#bg)"/>
  <circle cx="685" cy="270" r="69" fill="#f6bc42" opacity="0.13"/>
  <circle cx="619" cy="123" r="124" fill="#d95a35" opacity="0.16"/>
  <circle cx="186" cy="350" r="3" fill="#15191d" opacity="0.66"/><circle cx="493" cy="97" r="3" fill="#15191d" opacity="0.65"/><circle cx="84" cy="186" r="3" fill="#15191d" opacity="0.64"/><circle cx="391" cy="275" r="3" fill="#15191d" opacity="0.63"/><circle cx="698" cy="364" r="3" fill="#15191d" opacity="0.6200000000000001"/><circle cx="289" cy="112" r="3" fill="#15191d" opacity="0.6100000000000001"/><circle cx="596" cy="201" r="3" fill="#15191d" opacity="0.6000000000000001"/><circle cx="187" cy="290" r="3" fill="#15191d" opacity="0.5900000000000001"/><circle cx="594" cy="321" r="3" fill="#15191d" opacity="0.29000000000000004"/>
  <rect x="76" y="58" width="648" height="304" rx="30" fill="#d95a35"/><path d="M100 210h600M400 58v304" stroke="#fffaf4" stroke-width="8" opacity=".8"/><circle cx="400" cy="210" r="80" fill="none" stroke="#fffaf4" stroke-width="8" opacity=".8"/><circle cx="516" cy="246" r="42" fill="#15191d"/><path d="M474 246h84M516 204v84" stroke="#f6bc42" stroke-width="5" fill="none"/>
</svg>
