<svg xmlns="http://www.w3.org/2000/svg" viewBox="0 0 800 420" role="img" aria-label="Ilustracion propia de historia y archivo para esta pregunta">
  <defs>
    <linearGradient id="bg" x1="0" x2="1" y1="0" y2="1">
      <stop stop-color="#fff4e4"/>
      <stop offset="1" stop-color="#f6bc42" stop-opacity="0.22"/>
    </linearGradient>
  </defs>
  <rect width="800" height="420" fill="url(#bg)"/>
  <circle cx="438" cy="177" r="79" fill="#15191d" opacity="0.13"/>
  <circle cx="663" cy="326" r="115" fill="#d9cec1" opacity="0.16"/>
  <circle cx="50" cy="112" r="5" fill="#f6bc42" opacity="0.72"/><circle cx="357" cy="201" r="5" fill="#f6bc42" opacity="0.71"/><circle cx="664" cy="290" r="5" fill="#f6bc42" opacity="0.7"/><circle cx="255" cy="38" r="5" fill="#f6bc42" opacity="0.69"/><circle cx="562" cy="127" r="5" fill="#f6bc42" opacity="0.68"/><circle cx="153" cy="216" r="5" fill="#f6bc42" opacity="0.67"/><circle cx="460" cy="305" r="5" fill="#f6bc42" opacity="0.66"/><circle cx="51" cy="52" r="5" fill="#f6bc42" opacity="0.65"/><circle cx="458" cy="83" r="5" fill="#f6bc42" opacity="0.35000000000000003"/>
  <rect x="166" y="130" width="220" height="210" rx="18" fill="#fffaf4" stroke="#f6bc42" stroke-width="5"/><rect x="200" y="172" width="152" height="12" rx="6" fill="#15191d" opacity=".2"/><rect x="200" y="212" width="120" height="12" rx="6" fill="#15191d" opacity=".2"/><path d="M470 170h210L575 94z" fill="#15191d"/><rect x="500" y="190" width="32" height="120" rx="6" fill="#15191d"/><rect x="560" y="190" width="32" height="120" rx="6" fill="#15191d"/><rect x="620" y="190" width="32" height="120" rx="6" fill="#15191d"/>
</svg>
