<svg xmlns="http://www.w3.org/2000/svg" viewBox="0 0 800 420" role="img" aria-label="Ilustracion propia de tecnologia para esta pregunta">
  <defs>
    <linearGradient id="bg" x1="0" x2="1" y1="0" y2="1">
      <stop stop-color="#111820"/>
      <stop offset="1" stop-color="#12b7a6" stop-opacity="0.22"/>
    </linearGradient>
  </defs>
  <rect width="800" height="420" fill="url(#bg)"/>
  <circle cx="405" cy="345" r="73" fill="#fffaf4" opacity="0.13"/>
  <circle cx="134" cy="204" r="135" fill="#315be8" opacity="0.16"/>
  <circle cx="221" cy="198" r="2" fill="#12b7a6" opacity="0.5"/><circle cx="630" cy="109" r="2" fill="#12b7a6" opacity="0.51"/><circle cx="119" cy="377" r="2" fill="#12b7a6" opacity="0.48000000000000004"/><circle cx="528" cy="287" r="2" fill="#12b7a6" opacity="0.49"/><circle cx="425" cy="184" r="2" fill="#12b7a6" opacity="0.54"/><circle cx="118" cy="95" r="2" fill="#12b7a6" opacity="0.55"/><circle cx="323" cy="362" r="2" fill="#12b7a6" opacity="0.52"/><circle cx="732" cy="273" r="2" fill="#12b7a6" opacity="0.53"/><circle cx="629" cy="169" r="2" fill="#12b7a6" opacity="0.5800000000000001"/>
  <rect width="800" height="420" fill="#fffaf4"/><rect x="108" y="72" width="584" height="276" rx="28" fill="#315be8"/><rect x="108" y="72" width="584" height="58" rx="28" fill="#12b7a6"/><path d="M258 206l-62 44 62 44M542 206l62 44-62 44" stroke="#fffaf4" stroke-width="20" stroke-linecap="round" stroke-linejoin="round" fill="none"/><path d="M364 306l72-184" stroke="#12b7a6" stroke-width="18" stroke-linecap="round"/>
</svg>
