<svg xmlns="http://www.w3.org/2000/svg" viewBox="0 0 800 420" role="img" aria-label="Ilustracion propia de videojuegos para esta pregunta">
  <defs>
    <linearGradient id="bg" x1="0" x2="1" y1="0" y2="1">
      <stop stop-color="#f4efff"/>
      <stop offset="1" stop-color="#9b5cff" stop-opacity="0.22"/>
    </linearGradient>
  </defs>
  <rect width="800" height="420" fill="url(#bg)"/>
  <circle cx="118" cy="333" r="89" fill="#15191d" opacity="0.13"/>
  <circle cx="398" cy="274" r="137" fill="#9b5cff" opacity="0.16"/>
  <circle cx="522" cy="310" r="5" fill="#12b7a6" opacity="0.41000000000000003"/><circle cx="113" cy="57" r="5" fill="#12b7a6" opacity="0.4"/><circle cx="420" cy="146" r="5" fill="#12b7a6" opacity="0.39"/><circle cx="727" cy="235" r="5" fill="#12b7a6" opacity="0.38"/><circle cx="318" cy="324" r="2" fill="#12b7a6" opacity="0.37"/><circle cx="625" cy="71" r="2" fill="#12b7a6" opacity="0.36000000000000004"/><circle cx="216" cy="161" r="2" fill="#12b7a6" opacity="0.35000000000000003"/><circle cx="523" cy="250" r="2" fill="#12b7a6" opacity="0.34"/><circle cx="114" cy="339" r="2" fill="#12b7a6" opacity="0.33"/>
  <path d="M226 160c40-54 310-54 348 0l58 104c24 44-12 86-58 64l-74-36H300l-74 36c-46 22-82-20-58-64z" fill="#15191d"/><path d="M284 232h82M325 191v82" stroke="#fff" stroke-width="20" stroke-linecap="round"/><circle cx="518" cy="218" r="20" fill="#12b7a6"/><circle cx="568" cy="252" r="20" fill="#fffaf4"/><circle cx="456" cy="252" r="20" fill="#12b7a6"/>
</svg>
