<svg xmlns="http://www.w3.org/2000/svg" viewBox="0 0 800 420" role="img" aria-label="Ilustracion propia de cine y rodaje para esta pregunta">
  <defs>
    <linearGradient id="bg" x1="0" x2="1" y1="0" y2="1">
      <stop stop-color="#15191d"/>
      <stop offset="1" stop-color="#f6bc42" stop-opacity="0.22"/>
    </linearGradient>
  </defs>
  <rect width="800" height="420" fill="url(#bg)"/>
  <circle cx="550" cy="140" r="133" fill="#fffaf4" opacity="0.13"/>
  <circle cx="377" cy="107" r="72" fill="#f6bc42" opacity="0.16"/>
  <circle cx="96" cy="290" r="5" fill="#ff4f6d" opacity="0.69"/><circle cx="403" cy="37" r="5" fill="#ff4f6d" opacity="0.68"/><circle cx="682" cy="240" r="5" fill="#ff4f6d" opacity="0.5700000000000001"/><circle cx="273" cy="329" r="5" fill="#ff4f6d" opacity="0.56"/><circle cx="608" cy="304" r="5" fill="#ff4f6d" opacity="0.65"/><circle cx="199" cy="52" r="5" fill="#ff4f6d" opacity="0.64"/><circle cx="710" cy="126" r="5" fill="#ff4f6d" opacity="0.67"/><circle cx="301" cy="215" r="5" fill="#ff4f6d" opacity="0.66"/><circle cx="272" cy="47" r="5" fill="#ff4f6d" opacity="0.63"/>
  <rect width="800" height="420" fill="#fffaf4"/><circle cx="460" cy="194" r="120" fill="#ff4f6d" opacity=".42"/><rect x="190" y="182" width="420" height="198" rx="22" fill="#f6bc42"/><rect x="190" y="140" width="420" height="70" rx="18" fill="#fffaf4"/><path d="M228 140l58 70M330 140l58 70M432 140l58 70M534 140l58 70" stroke="#fffaf4" stroke-width="20"/><rect x="244" y="254" width="312" height="18" rx="9" fill="#fffaf4" opacity=".16"/>
</svg>
