<svg xmlns="http://www.w3.org/2000/svg" viewBox="0 0 800 420" role="img" aria-label="Ilustracion propia de naturaleza para esta pregunta">
  <defs>
    <linearGradient id="bg" x1="0" x2="1" y1="0" y2="1">
      <stop stop-color="#ecfbef"/>
      <stop offset="1" stop-color="#f6bc42" stop-opacity="0.22"/>
    </linearGradient>
  </defs>
  <rect width="800" height="420" fill="url(#bg)"/>
  <circle cx="205" cy="174" r="95" fill="#12b7a6" opacity="0.13"/>
  <circle cx="259" cy="147" r="107" fill="#315be8" opacity="0.16"/>
  <circle cx="246" cy="168" r="2" fill="#f6bc42" opacity="0.42000000000000004"/><circle cx="553" cy="257" r="2" fill="#f6bc42" opacity="0.41000000000000003"/><circle cx="144" cy="347" r="2" fill="#f6bc42" opacity="0.4"/><circle cx="451" cy="94" r="2" fill="#f6bc42" opacity="0.39"/><circle cx="450" cy="154" r="2" fill="#f6bc42" opacity="0.46"/><circle cx="757" cy="243" r="2" fill="#f6bc42" opacity="0.45000000000000007"/><circle cx="348" cy="332" r="2" fill="#f6bc42" opacity="0.44000000000000006"/><circle cx="655" cy="79" r="2" fill="#f6bc42" opacity="0.43000000000000005"/><circle cx="554" cy="197" r="2" fill="#f6bc42" opacity="0.34"/>
  <path d="M164 322c172-20 120-184 278-208 118-18 172 78 194 158-152 42-298 74-472 50z" fill="#315be8"/><path d="M214 300c138-68 244-104 390-118" stroke="#fff" stroke-width="14" stroke-linecap="round" opacity=".72"/><path d="M394 254c-28-52-20-104 24-156 72 30 102 82 84 150z" fill="#f6bc42" opacity=".88"/>
</svg>
