<svg xmlns="http://www.w3.org/2000/svg" viewBox="0 0 800 420" role="img" aria-label="Ilustracion propia de cancha de baloncesto para esta pregunta">
  <defs>
    <linearGradient id="bg" x1="0" x2="1" y1="0" y2="1">
      <stop stop-color="#fff1df"/>
      <stop offset="1" stop-color="#15191d" stop-opacity="0.22"/>
    </linearGradient>
  </defs>
  <rect width="800" height="420" fill="url(#bg)"/>
  <circle cx="594" cy="74" r="135" fill="#f6bc42" opacity="0.13"/>
  <circle cx="458" cy="242" r="112" fill="#d95a35" opacity="0.16"/>
  <circle cx="57" cy="67" r="2" fill="#15191d" opacity="0.32"/><circle cx="466" cy="320" r="2" fill="#15191d" opacity="0.33"/><circle cx="671" cy="246" r="2" fill="#15191d" opacity="0.30000000000000004"/><circle cx="364" cy="156" r="2" fill="#15191d" opacity="0.31000000000000005"/><circle cx="261" cy="53" r="2" fill="#15191d" opacity="0.36000000000000004"/><circle cx="670" cy="306" r="2" fill="#15191d" opacity="0.37"/><circle cx="159" cy="231" r="2" fill="#15191d" opacity="0.34"/><circle cx="568" cy="142" r="2" fill="#15191d" opacity="0.35000000000000003"/><circle cx="365" cy="96" r="2" fill="#15191d" opacity="0.69"/>
  <rect x="76" y="58" width="648" height="304" rx="30" fill="#d95a35"/><path d="M100 210h600M400 58v304" stroke="#fffaf4" stroke-width="8" opacity=".8"/><circle cx="400" cy="210" r="73" fill="none" stroke="#fffaf4" stroke-width="8" opacity=".8"/><circle cx="432" cy="222" r="42" fill="#15191d"/><path d="M390 222h84M432 180v84" stroke="#f6bc42" stroke-width="5" fill="none"/>
</svg>
