<svg xmlns="http://www.w3.org/2000/svg" viewBox="0 0 800 420" role="img" aria-label="Ilustracion propia de cine y rodaje para esta pregunta">
  <defs>
    <linearGradient id="bg" x1="0" x2="1" y1="0" y2="1">
      <stop stop-color="#15191d"/>
      <stop offset="1" stop-color="#f6bc42" stop-opacity="0.22"/>
    </linearGradient>
  </defs>
  <rect width="800" height="420" fill="url(#bg)"/>
  <circle cx="495" cy="244" r="77" fill="#fffaf4" opacity="0.13"/>
  <circle cx="145" cy="84" r="135" fill="#f6bc42" opacity="0.16"/>
  <circle cx="464" cy="137" r="4" fill="#ff4f6d" opacity="0.43000000000000005"/><circle cx="55" cy="226" r="4" fill="#ff4f6d" opacity="0.42000000000000004"/><circle cx="566" cy="301" r="4" fill="#ff4f6d" opacity="0.45000000000000007"/><circle cx="157" cy="48" r="4" fill="#ff4f6d" opacity="0.44000000000000006"/><circle cx="260" cy="151" r="4" fill="#ff4f6d" opacity="0.39"/><circle cx="567" cy="241" r="4" fill="#ff4f6d" opacity="0.38"/><circle cx="362" cy="315" r="4" fill="#ff4f6d" opacity="0.41000000000000003"/><circle cx="669" cy="62" r="4" fill="#ff4f6d" opacity="0.4"/><circle cx="56" cy="166" r="4" fill="#ff4f6d" opacity="0.35000000000000003"/>
  <rect width="800" height="420" fill="#fffaf4"/><circle cx="460" cy="194" r="120" fill="#ff4f6d" opacity=".42"/><rect x="190" y="182" width="420" height="198" rx="22" fill="#f6bc42"/><rect x="190" y="140" width="420" height="70" rx="18" fill="#fffaf4"/><path d="M228 140l58 70M330 140l58 70M432 140l58 70M534 140l58 70" stroke="#fffaf4" stroke-width="20"/><rect x="244" y="254" width="312" height="18" rx="9" fill="#fffaf4" opacity=".16"/>
</svg>
