<svg xmlns="http://www.w3.org/2000/svg" viewBox="0 0 800 420" role="img" aria-label="Ilustracion propia de cine y rodaje para esta pregunta">
  <defs>
    <linearGradient id="bg" x1="0" x2="1" y1="0" y2="1">
      <stop stop-color="#15191d"/>
      <stop offset="1" stop-color="#ff4f6d" stop-opacity="0.22"/>
    </linearGradient>
  </defs>
  <rect width="800" height="420" fill="url(#bg)"/>
  <circle cx="633" cy="252" r="81" fill="#fffaf4" opacity="0.13"/>
  <circle cx="688" cy="193" r="66" fill="#f6bc42" opacity="0.16"/>
  <circle cx="576" cy="227" r="4" fill="#ff4f6d" opacity="0.55"/><circle cx="167" cy="316" r="5" fill="#ff4f6d" opacity="0.54"/><circle cx="678" cy="48" r="4" fill="#ff4f6d" opacity="0.5700000000000001"/><circle cx="269" cy="137" r="4" fill="#ff4f6d" opacity="0.56"/><circle cx="372" cy="241" r="5" fill="#ff4f6d" opacity="0.51"/><circle cx="679" cy="330" r="5" fill="#ff4f6d" opacity="0.5"/><circle cx="474" cy="63" r="5" fill="#ff4f6d" opacity="0.53"/><circle cx="65" cy="152" r="5" fill="#ff4f6d" opacity="0.52"/><circle cx="268" cy="197" r="4" fill="#ff4f6d" opacity="0.63"/>
  <rect width="800" height="420" fill="#fffaf4"/><circle cx="540" cy="142" r="120" fill="#ff4f6d" opacity=".42"/><rect x="190" y="182" width="420" height="198" rx="22" fill="#f6bc42"/><rect x="190" y="124" width="420" height="70" rx="18" fill="#fffaf4"/><path d="M228 124l58 70M330 124l58 70M432 124l58 70M534 124l58 70" stroke="#fffaf4" stroke-width="20"/><rect x="244" y="254" width="312" height="18" rx="9" fill="#fffaf4" opacity=".16"/>
</svg>
