<svg xmlns="http://www.w3.org/2000/svg" viewBox="0 0 800 420" role="img" aria-label="Ilustracion propia de cancha de baloncesto para esta pregunta">
  <defs>
    <linearGradient id="bg" x1="0" x2="1" y1="0" y2="1">
      <stop stop-color="#fff1df"/>
      <stop offset="1" stop-color="#d95a35" stop-opacity="0.22"/>
    </linearGradient>
  </defs>
  <rect width="800" height="420" fill="url(#bg)"/>
  <circle cx="162" cy="143" r="81" fill="#f6bc42" opacity="0.13"/>
  <circle cx="479" cy="179" r="96" fill="#d95a35" opacity="0.16"/>
  <circle cx="47" cy="321" r="4" fill="#15191d" opacity="0.54"/><circle cx="456" cy="232" r="4" fill="#15191d" opacity="0.55"/><circle cx="149" cy="143" r="4" fill="#15191d" opacity="0.56"/><circle cx="558" cy="54" r="4" fill="#15191d" opacity="0.5700000000000001"/><circle cx="559" cy="336" r="4" fill="#15191d" opacity="0.5"/><circle cx="252" cy="247" r="4" fill="#15191d" opacity="0.51"/><circle cx="661" cy="158" r="4" fill="#15191d" opacity="0.52"/><circle cx="354" cy="69" r="4" fill="#15191d" opacity="0.53"/><circle cx="455" cy="292" r="4" fill="#15191d" opacity="0.6200000000000001"/>
  <rect x="76" y="58" width="648" height="304" rx="30" fill="#d95a35"/><path d="M100 210h600M400 58v304" stroke="#fffaf4" stroke-width="8" opacity=".8"/><circle cx="400" cy="210" r="59" fill="none" stroke="#fffaf4" stroke-width="8" opacity=".8"/><circle cx="264" cy="174" r="42" fill="#15191d"/><path d="M222 174h84M264 132v84" stroke="#f6bc42" stroke-width="5" fill="none"/>
</svg>
