<svg xmlns="http://www.w3.org/2000/svg" viewBox="0 0 800 420" role="img" aria-label="Ilustracion propia de historia y archivo para esta pregunta">
  <defs>
    <linearGradient id="bg" x1="0" x2="1" y1="0" y2="1">
      <stop stop-color="#fff4e4"/>
      <stop offset="1" stop-color="#d9cec1" stop-opacity="0.22"/>
    </linearGradient>
  </defs>
  <rect width="800" height="420" fill="url(#bg)"/>
  <circle cx="101" cy="134" r="133" fill="#15191d" opacity="0.13"/>
  <circle cx="96" cy="178" r="112" fill="#d9cec1" opacity="0.16"/>
  <circle cx="463" cy="146" r="2" fill="#f6bc42" opacity="0.64"/><circle cx="156" cy="57" r="2" fill="#f6bc42" opacity="0.65"/><circle cx="565" cy="310" r="2" fill="#f6bc42" opacity="0.66"/><circle cx="258" cy="220" r="2" fill="#f6bc42" opacity="0.67"/><circle cx="259" cy="160" r="2" fill="#f6bc42" opacity="0.6000000000000001"/><circle cx="668" cy="71" r="2" fill="#f6bc42" opacity="0.6100000000000001"/><circle cx="361" cy="324" r="2" fill="#f6bc42" opacity="0.6200000000000001"/><circle cx="54" cy="235" r="2" fill="#f6bc42" opacity="0.63"/><circle cx="55" cy="175" r="2" fill="#f6bc42" opacity="0.56"/>
  <rect x="130" y="130" width="220" height="210" rx="18" fill="#fffaf4" stroke="#f6bc42" stroke-width="5"/><rect x="164" y="172" width="152" height="12" rx="6" fill="#15191d" opacity=".2"/><rect x="164" y="212" width="120" height="12" rx="6" fill="#15191d" opacity=".2"/><path d="M470 170h210L575 94z" fill="#15191d"/><rect x="500" y="190" width="32" height="120" rx="6" fill="#15191d"/><rect x="560" y="190" width="32" height="120" rx="6" fill="#15191d"/><rect x="620" y="190" width="32" height="120" rx="6" fill="#15191d"/>
</svg>
