<svg xmlns="http://www.w3.org/2000/svg" viewBox="0 0 800 420" role="img" aria-label="Ilustracion propia de tecnologia para esta pregunta">
  <defs>
    <linearGradient id="bg" x1="0" x2="1" y1="0" y2="1">
      <stop stop-color="#111820"/>
      <stop offset="1" stop-color="#111820" stop-opacity="0.22"/>
    </linearGradient>
  </defs>
  <rect width="800" height="420" fill="url(#bg)"/>
  <circle cx="656" cy="111" r="120" fill="#fffaf4" opacity="0.13"/>
  <circle cx="541" cy="211" r="91" fill="#315be8" opacity="0.16"/>
  <circle cx="436" cy="144" r="3" fill="#12b7a6" opacity="0.35000000000000003"/><circle cx="743" cy="233" r="3" fill="#12b7a6" opacity="0.34"/><circle cx="538" cy="308" r="3" fill="#12b7a6" opacity="0.37"/><circle cx="129" cy="55" r="3" fill="#12b7a6" opacity="0.36000000000000004"/><circle cx="232" cy="159" r="3" fill="#12b7a6" opacity="0.31000000000000005"/><circle cx="539" cy="248" r="3" fill="#12b7a6" opacity="0.30000000000000004"/><circle cx="334" cy="322" r="3" fill="#12b7a6" opacity="0.33"/><circle cx="641" cy="69" r="3" fill="#12b7a6" opacity="0.32"/><circle cx="744" cy="173" r="3" fill="#12b7a6" opacity="0.72"/>
  <rect width="800" height="420" fill="#fffaf4"/><rect x="108" y="72" width="584" height="276" rx="28" fill="#315be8"/><rect x="108" y="72" width="584" height="58" rx="28" fill="#12b7a6"/><path d="M210 206l-62 44 62 44M590 206l62 44-62 44" stroke="#fffaf4" stroke-width="20" stroke-linecap="round" stroke-linejoin="round" fill="none"/><path d="M364 306l72-184" stroke="#12b7a6" stroke-width="18" stroke-linecap="round"/>
</svg>
