<svg xmlns="http://www.w3.org/2000/svg" viewBox="0 0 800 420" role="img" aria-label="Ilustracion propia de cine y rodaje para esta pregunta">
  <defs>
    <linearGradient id="bg" x1="0" x2="1" y1="0" y2="1">
      <stop stop-color="#15191d"/>
      <stop offset="1" stop-color="#fffaf4" stop-opacity="0.22"/>
    </linearGradient>
  </defs>
  <rect width="800" height="420" fill="url(#bg)"/>
  <circle cx="655" cy="143" r="114" fill="#fffaf4" opacity="0.13"/>
  <circle cx="615" cy="143" r="100" fill="#f6bc42" opacity="0.16"/>
  <circle cx="78" cy="230" r="2" fill="#ff4f6d" opacity="0.5800000000000001"/><circle cx="385" cy="319" r="2" fill="#ff4f6d" opacity="0.5700000000000001"/><circle cx="692" cy="66" r="2" fill="#ff4f6d" opacity="0.56"/><circle cx="283" cy="155" r="2" fill="#ff4f6d" opacity="0.55"/><circle cx="590" cy="245" r="2" fill="#ff4f6d" opacity="0.54"/><circle cx="181" cy="334" r="2" fill="#ff4f6d" opacity="0.53"/><circle cx="488" cy="81" r="2" fill="#ff4f6d" opacity="0.52"/><circle cx="79" cy="170" r="2" fill="#ff4f6d" opacity="0.51"/><circle cx="486" cy="201" r="5" fill="#ff4f6d" opacity="0.66"/>
  <rect width="800" height="420" fill="#fffaf4"/><circle cx="460" cy="194" r="120" fill="#ff4f6d" opacity=".42"/><rect x="190" y="182" width="420" height="198" rx="22" fill="#f6bc42"/><rect x="190" y="140" width="420" height="70" rx="18" fill="#fffaf4"/><path d="M228 140l58 70M330 140l58 70M432 140l58 70M534 140l58 70" stroke="#fffaf4" stroke-width="20"/><rect x="244" y="254" width="312" height="18" rx="9" fill="#fffaf4" opacity=".16"/>
</svg>
