<svg xmlns="http://www.w3.org/2000/svg" viewBox="0 0 800 420" role="img" aria-label="Ilustracion propia de historia y archivo para esta pregunta">
  <defs>
    <linearGradient id="bg" x1="0" x2="1" y1="0" y2="1">
      <stop stop-color="#fff4e4"/>
      <stop offset="1" stop-color="#f6bc42" stop-opacity="0.22"/>
    </linearGradient>
  </defs>
  <rect width="800" height="420" fill="url(#bg)"/>
  <circle cx="287" cy="334" r="91" fill="#15191d" opacity="0.13"/>
  <circle cx="419" cy="96" r="77" fill="#d9cec1" opacity="0.16"/>
  <circle cx="376" cy="118" r="5" fill="#f6bc42" opacity="0.30000000000000004"/><circle cx="683" cy="207" r="5" fill="#f6bc42" opacity="0.29000000000000004"/><circle cx="478" cy="282" r="5" fill="#f6bc42" opacity="0.32"/><circle cx="69" cy="371" r="5" fill="#f6bc42" opacity="0.31000000000000005"/><circle cx="172" cy="133" r="5" fill="#f6bc42" opacity="0.71"/><circle cx="479" cy="222" r="5" fill="#f6bc42" opacity="0.7"/><circle cx="274" cy="296" r="5" fill="#f6bc42" opacity="0.28"/><circle cx="581" cy="43" r="5" fill="#f6bc42" opacity="0.72"/><circle cx="684" cy="147" r="5" fill="#f6bc42" opacity="0.67"/>
  <rect x="148" y="130" width="220" height="210" rx="18" fill="#fffaf4" stroke="#f6bc42" stroke-width="5"/><rect x="182" y="172" width="152" height="12" rx="6" fill="#15191d" opacity=".2"/><rect x="182" y="212" width="120" height="12" rx="6" fill="#15191d" opacity=".2"/><path d="M470 170h210L575 94z" fill="#15191d"/><rect x="500" y="190" width="32" height="120" rx="6" fill="#15191d"/><rect x="560" y="190" width="32" height="120" rx="6" fill="#15191d"/><rect x="620" y="190" width="32" height="120" rx="6" fill="#15191d"/>
</svg>
