<svg xmlns="http://www.w3.org/2000/svg" viewBox="0 0 800 420" role="img" aria-label="Ilustracion propia de circuito de velocidad para esta pregunta">
  <defs>
    <linearGradient id="bg" x1="0" x2="1" y1="0" y2="1">
      <stop stop-color="#e7f8ff"/>
      <stop offset="1" stop-color="#15191d" stop-opacity="0.22"/>
    </linearGradient>
  </defs>
  <rect width="800" height="420" fill="url(#bg)"/>
  <circle cx="214" cy="143" r="80" fill="#15191d" opacity="0.13"/>
  <circle cx="110" cy="286" r="106" fill="#ff4f6d" opacity="0.16"/>
  <circle cx="192" cy="261" r="2" fill="#315be8" opacity="0.36000000000000004"/><circle cx="499" cy="350" r="2" fill="#315be8" opacity="0.35000000000000003"/><circle cx="294" cy="82" r="2" fill="#315be8" opacity="0.38"/><circle cx="601" cy="172" r="2" fill="#315be8" opacity="0.37"/><circle cx="396" cy="246" r="2" fill="#315be8" opacity="0.4"/><circle cx="703" cy="335" r="2" fill="#315be8" opacity="0.39"/><circle cx="498" cy="68" r="2" fill="#315be8" opacity="0.42000000000000004"/><circle cx="89" cy="157" r="2" fill="#315be8" opacity="0.41000000000000003"/><circle cx="600" cy="232" r="2" fill="#315be8" opacity="0.44000000000000006"/>
  <path d="M98 300c110-170 248-42 350-120 60-46 118-84 210-28 66 40 54 132-26 152-96 24-160-50-246-24-100 30-152 94-288 20z" fill="none" stroke="#15191d" stroke-width="49" stroke-linecap="round"/><path d="M98 300c110-170 248-42 350-120 60-46 118-84 210-28 66 40 54 132-26 152-96 24-160-50-246-24-100 30-152 94-288 20z" fill="none" stroke="#fff" stroke-width="7" stroke-dasharray="24 22" stroke-linecap="round"/><rect x="352" y="250" width="150" height="42" rx="18" fill="#315be8"/><path d="M380 250l34-34h52l24 34z" fill="#fffaf4"/>
</svg>
