<svg xmlns="http://www.w3.org/2000/svg" viewBox="0 0 800 420" role="img" aria-label="Ilustracion propia de cine y rodaje para esta pregunta">
  <defs>
    <linearGradient id="bg" x1="0" x2="1" y1="0" y2="1">
      <stop stop-color="#15191d"/>
      <stop offset="1" stop-color="#fffaf4" stop-opacity="0.22"/>
    </linearGradient>
  </defs>
  <rect width="800" height="420" fill="url(#bg)"/>
  <circle cx="655" cy="131" r="104" fill="#fffaf4" opacity="0.13"/>
  <circle cx="165" cy="249" r="139" fill="#f6bc42" opacity="0.16"/>
  <circle cx="557" cy="69" r="5" fill="#ff4f6d" opacity="0.66"/><circle cx="250" cy="322" r="5" fill="#ff4f6d" opacity="0.67"/><circle cx="455" cy="247" r="5" fill="#ff4f6d" opacity="0.64"/><circle cx="148" cy="158" r="5" fill="#ff4f6d" opacity="0.65"/><circle cx="353" cy="83" r="5" fill="#ff4f6d" opacity="0.6200000000000001"/><circle cx="46" cy="336" r="5" fill="#ff4f6d" opacity="0.63"/><circle cx="251" cy="262" r="5" fill="#ff4f6d" opacity="0.6000000000000001"/><circle cx="660" cy="173" r="5" fill="#ff4f6d" opacity="0.6100000000000001"/><circle cx="149" cy="98" r="5" fill="#ff4f6d" opacity="0.5800000000000001"/>
  <rect width="800" height="420" fill="#fffaf4"/><circle cx="460" cy="194" r="120" fill="#ff4f6d" opacity=".42"/><rect x="190" y="182" width="420" height="198" rx="22" fill="#f6bc42"/><rect x="190" y="140" width="420" height="70" rx="18" fill="#fffaf4"/><path d="M228 140l58 70M330 140l58 70M432 140l58 70M534 140l58 70" stroke="#fffaf4" stroke-width="20"/><rect x="244" y="254" width="312" height="18" rx="9" fill="#fffaf4" opacity=".16"/>
</svg>
