<svg xmlns="http://www.w3.org/2000/svg" viewBox="0 0 800 420" role="img" aria-label="Ilustracion propia de videojuegos para esta pregunta">
  <defs>
    <linearGradient id="bg" x1="0" x2="1" y1="0" y2="1">
      <stop stop-color="#f4efff"/>
      <stop offset="1" stop-color="#12b7a6" stop-opacity="0.22"/>
    </linearGradient>
  </defs>
  <rect width="800" height="420" fill="url(#bg)"/>
  <circle cx="179" cy="105" r="77" fill="#15191d" opacity="0.13"/>
  <circle cx="406" cy="281" r="75" fill="#9b5cff" opacity="0.16"/>
  <circle cx="355" cy="349" r="5" fill="#12b7a6" opacity="0.66"/><circle cx="48" cy="260" r="5" fill="#12b7a6" opacity="0.67"/><circle cx="457" cy="170" r="5" fill="#12b7a6" opacity="0.68"/><circle cx="150" cy="81" r="4" fill="#12b7a6" opacity="0.69"/><circle cx="151" cy="363" r="5" fill="#12b7a6" opacity="0.6200000000000001"/><circle cx="560" cy="274" r="5" fill="#12b7a6" opacity="0.63"/><circle cx="253" cy="185" r="5" fill="#12b7a6" opacity="0.64"/><circle cx="662" cy="96" r="5" fill="#12b7a6" opacity="0.65"/><circle cx="47" cy="320" r="4" fill="#12b7a6" opacity="0.29000000000000004"/>
  <path d="M226 160c40-54 310-54 348 0l58 104c24 44-12 86-58 64l-74-36H300l-74 36c-46 22-82-20-58-64z" fill="#15191d"/><path d="M284 232h82M325 191v82" stroke="#fff" stroke-width="20" stroke-linecap="round"/><circle cx="530" cy="218" r="20" fill="#12b7a6"/><circle cx="578" cy="252" r="20" fill="#fffaf4"/><circle cx="456" cy="252" r="20" fill="#12b7a6"/>
</svg>
