<svg xmlns="http://www.w3.org/2000/svg" viewBox="0 0 800 420" role="img" aria-label="Ilustracion propia de estadio y futbol generico para esta pregunta">
  <defs>
    <linearGradient id="bg" x1="0" x2="1" y1="0" y2="1">
      <stop stop-color="#eaf8f5"/>
      <stop offset="1" stop-color="#15191d" stop-opacity="0.22"/>
    </linearGradient>
  </defs>
  <rect width="800" height="420" fill="url(#bg)"/>
  <circle cx="470" cy="144" r="111" fill="#26b99f" opacity="0.13"/>
  <circle cx="217" cy="215" r="99" fill="#f6bc42" opacity="0.16"/>
  <circle cx="505" cy="66" r="4" fill="#15191d" opacity="0.37"/><circle cx="198" cy="319" r="4" fill="#15191d" opacity="0.38"/><circle cx="403" cy="244" r="4" fill="#15191d" opacity="0.35000000000000003"/><circle cx="96" cy="155" r="4" fill="#15191d" opacity="0.36000000000000004"/><circle cx="301" cy="81" r="4" fill="#15191d" opacity="0.33"/><circle cx="710" cy="334" r="4" fill="#15191d" opacity="0.34"/><circle cx="199" cy="259" r="4" fill="#15191d" opacity="0.31000000000000005"/><circle cx="608" cy="170" r="4" fill="#15191d" opacity="0.32"/><circle cx="197" cy="37" r="3" fill="#15191d" opacity="0.45000000000000007"/>
  <path d="M92 270c130-94 486-94 616 0v92H92z" fill="#26b99f" opacity=".9"/><path d="M150 270c102-54 398-54 500 0" fill="none" stroke="#fff" stroke-width="14" opacity=".64"/><rect x="165" y="304" width="470" height="62" rx="16" fill="#f6bc42"/><path d="M400 304v62M165 335h470" stroke="#fff" stroke-width="4" opacity=".65"/><path d="M400 110l18 45h48l-38 29 14 48-42-28-42 28 14-48-38-29h48z" fill="#15191d"/>
</svg>
