<svg xmlns="http://www.w3.org/2000/svg" viewBox="0 0 800 420" role="img" aria-label="Ilustracion propia de historia y archivo para esta pregunta">
  <defs>
    <linearGradient id="bg" x1="0" x2="1" y1="0" y2="1">
      <stop stop-color="#fff4e4"/>
      <stop offset="1" stop-color="#fff4e4" stop-opacity="0.22"/>
    </linearGradient>
  </defs>
  <rect width="800" height="420" fill="url(#bg)"/>
  <circle cx="620" cy="218" r="84" fill="#15191d" opacity="0.13"/>
  <circle cx="611" cy="153" r="126" fill="#d9cec1" opacity="0.16"/>
  <circle cx="610" cy="235" r="2" fill="#f6bc42" opacity="0.66"/><circle cx="201" cy="324" r="2" fill="#f6bc42" opacity="0.65"/><circle cx="508" cy="71" r="2" fill="#f6bc42" opacity="0.64"/><circle cx="99" cy="160" r="2" fill="#f6bc42" opacity="0.63"/><circle cx="406" cy="249" r="2" fill="#f6bc42" opacity="0.6200000000000001"/><circle cx="713" cy="338" r="2" fill="#f6bc42" opacity="0.6100000000000001"/><circle cx="304" cy="85" r="2" fill="#f6bc42" opacity="0.6000000000000001"/><circle cx="611" cy="175" r="2" fill="#f6bc42" opacity="0.5900000000000001"/><circle cx="202" cy="264" r="2" fill="#f6bc42" opacity="0.5800000000000001"/>
  <rect x="202" y="130" width="220" height="210" rx="18" fill="#fffaf4" stroke="#f6bc42" stroke-width="5"/><rect x="236" y="172" width="152" height="12" rx="6" fill="#15191d" opacity=".2"/><rect x="236" y="212" width="120" height="12" rx="6" fill="#15191d" opacity=".2"/><path d="M470 170h210L575 94z" fill="#15191d"/><rect x="500" y="190" width="32" height="120" rx="6" fill="#15191d"/><rect x="560" y="190" width="32" height="120" rx="6" fill="#15191d"/><rect x="620" y="190" width="32" height="120" rx="6" fill="#15191d"/>
</svg>
