<svg xmlns="http://www.w3.org/2000/svg" viewBox="0 0 800 420" role="img" aria-label="Ilustracion propia de cine y rodaje para esta pregunta">
  <defs>
    <linearGradient id="bg" x1="0" x2="1" y1="0" y2="1">
      <stop stop-color="#15191d"/>
      <stop offset="1" stop-color="#f6bc42" stop-opacity="0.22"/>
    </linearGradient>
  </defs>
  <rect width="800" height="420" fill="url(#bg)"/>
  <circle cx="567" cy="326" r="83" fill="#fffaf4" opacity="0.13"/>
  <circle cx="154" cy="130" r="76" fill="#f6bc42" opacity="0.16"/>
  <circle cx="475" cy="213" r="5" fill="#ff4f6d" opacity="0.29000000000000004"/><circle cx="168" cy="124" r="5" fill="#ff4f6d" opacity="0.30000000000000004"/><circle cx="577" cy="376" r="5" fill="#ff4f6d" opacity="0.31000000000000005"/><circle cx="270" cy="287" r="5" fill="#ff4f6d" opacity="0.32"/><circle cx="271" cy="227" r="5" fill="#ff4f6d" opacity="0.7"/><circle cx="680" cy="138" r="5" fill="#ff4f6d" opacity="0.71"/><circle cx="373" cy="49" r="5" fill="#ff4f6d" opacity="0.72"/><circle cx="66" cy="302" r="5" fill="#ff4f6d" opacity="0.28"/><circle cx="67" cy="242" r="5" fill="#ff4f6d" opacity="0.66"/>
  <rect width="800" height="420" fill="#fffaf4"/><circle cx="580" cy="116" r="120" fill="#ff4f6d" opacity=".42"/><rect x="190" y="182" width="420" height="198" rx="22" fill="#f6bc42"/><rect x="190" y="116" width="420" height="70" rx="18" fill="#fffaf4"/><path d="M228 116l58 70M330 116l58 70M432 116l58 70M534 116l58 70" stroke="#fffaf4" stroke-width="20"/><rect x="244" y="254" width="312" height="18" rx="9" fill="#fffaf4" opacity=".16"/>
</svg>
