<svg xmlns="http://www.w3.org/2000/svg" viewBox="0 0 800 420" role="img" aria-label="Ilustracion propia de escenario musical para esta pregunta">
  <defs>
    <linearGradient id="bg" x1="0" x2="1" y1="0" y2="1">
      <stop stop-color="#201525"/>
      <stop offset="1" stop-color="#fffaf4" stop-opacity="0.22"/>
    </linearGradient>
  </defs>
  <rect width="800" height="420" fill="url(#bg)"/>
  <circle cx="334" cy="248" r="112" fill="#fffaf4" opacity="0.13"/>
  <circle cx="275" cy="335" r="120" fill="#ff4f6d" opacity="0.16"/>
  <circle cx="540" cy="125" r="3" fill="#12b7a6" opacity="0.6200000000000001"/><circle cx="131" cy="214" r="3" fill="#12b7a6" opacity="0.6100000000000001"/><circle cx="642" cy="288" r="3" fill="#12b7a6" opacity="0.64"/><circle cx="233" cy="377" r="3" fill="#12b7a6" opacity="0.63"/><circle cx="744" cy="110" r="3" fill="#12b7a6" opacity="0.66"/><circle cx="335" cy="199" r="3" fill="#12b7a6" opacity="0.65"/><circle cx="130" cy="274" r="3" fill="#12b7a6" opacity="0.68"/><circle cx="437" cy="363" r="3" fill="#12b7a6" opacity="0.67"/><circle cx="132" cy="154" r="3" fill="#12b7a6" opacity="0.54"/>
  <rect width="800" height="420" fill="#fffaf4"/><path d="M182 0l170 290M618 0L510 290" stroke="#12b7a6" stroke-width="34" opacity=".5"/><rect x="150" y="292" width="500" height="54" rx="20" fill="#ff4f6d" opacity=".9"/><path d="M280 292c26-80 214-80 240 0" fill="none" stroke="#fffaf4" stroke-width="16"/><path d="M438 98v126c0 28-24 50-58 50s-58-22-58-50 24-50 58-50c12 0 23 3 32 8V98z" fill="#ff4f6d"/>
</svg>
