<svg xmlns="http://www.w3.org/2000/svg" viewBox="0 0 800 420" role="img" aria-label="Ilustracion propia de idiomas y conversacion para esta pregunta">
  <defs>
    <linearGradient id="bg" x1="0" x2="1" y1="0" y2="1">
      <stop stop-color="#eef7ff"/>
      <stop offset="1" stop-color="#eef7ff" stop-opacity="0.22"/>
    </linearGradient>
  </defs>
  <rect width="800" height="420" fill="url(#bg)"/>
  <circle cx="123" cy="291" r="88" fill="#315be8" opacity="0.13"/>
  <circle cx="174" cy="269" r="107" fill="#ff4f6d" opacity="0.16"/>
  <circle cx="95" cy="50" r="4" fill="#12b7a6" opacity="0.64"/><circle cx="504" cy="303" r="4" fill="#12b7a6" opacity="0.65"/><circle cx="197" cy="214" r="4" fill="#12b7a6" opacity="0.66"/><circle cx="606" cy="125" r="4" fill="#12b7a6" opacity="0.67"/><circle cx="607" cy="65" r="4" fill="#12b7a6" opacity="0.6000000000000001"/><circle cx="300" cy="318" r="4" fill="#12b7a6" opacity="0.6100000000000001"/><circle cx="709" cy="228" r="4" fill="#12b7a6" opacity="0.6200000000000001"/><circle cx="402" cy="139" r="4" fill="#12b7a6" opacity="0.63"/><circle cx="403" cy="79" r="4" fill="#12b7a6" opacity="0.56"/>
  <rect x="122" y="92" width="250" height="142" rx="44" fill="#fffaf4" stroke="#315be8" stroke-width="8"/><path d="M198 230l-42 54 92-52" fill="#fffaf4" stroke="#315be8" stroke-width="8" stroke-linejoin="round"/><rect x="428" y="142" width="250" height="142" rx="44" fill="#fffaf4" stroke="#12b7a6" stroke-width="8"/><path d="M602 280l42 54-92-52" fill="#fffaf4" stroke="#12b7a6" stroke-width="8" stroke-linejoin="round"/><path d="M178 158h134M178 196h86M484 208h134M484 246h86" stroke="#15191d" stroke-width="14" stroke-linecap="round" opacity=".2"/>
</svg>
