<svg xmlns="http://www.w3.org/2000/svg" viewBox="0 0 800 420" role="img" aria-label="Ilustracion propia de tecnologia para esta pregunta">
  <defs>
    <linearGradient id="bg" x1="0" x2="1" y1="0" y2="1">
      <stop stop-color="#111820"/>
      <stop offset="1" stop-color="#111820" stop-opacity="0.22"/>
    </linearGradient>
  </defs>
  <rect width="800" height="420" fill="url(#bg)"/>
  <circle cx="299" cy="124" r="114" fill="#fffaf4" opacity="0.13"/>
  <circle cx="121" cy="212" r="80" fill="#315be8" opacity="0.16"/>
  <circle cx="514" cy="50" r="2" fill="#12b7a6" opacity="0.66"/><circle cx="105" cy="139" r="2" fill="#12b7a6" opacity="0.65"/><circle cx="412" cy="228" r="2" fill="#12b7a6" opacity="0.64"/><circle cx="719" cy="317" r="2" fill="#12b7a6" opacity="0.63"/><circle cx="718" cy="377" r="2" fill="#12b7a6" opacity="0.7"/><circle cx="309" cy="124" r="2" fill="#12b7a6" opacity="0.69"/><circle cx="616" cy="213" r="2" fill="#12b7a6" opacity="0.68"/><circle cx="207" cy="303" r="2" fill="#12b7a6" opacity="0.67"/><circle cx="106" cy="79" r="2" fill="#12b7a6" opacity="0.5800000000000001"/>
  <rect width="800" height="420" fill="#fffaf4"/><rect x="108" y="72" width="584" height="276" rx="28" fill="#315be8"/><rect x="108" y="72" width="584" height="58" rx="28" fill="#12b7a6"/><path d="M246 206l-62 44 62 44M554 206l62 44-62 44" stroke="#fffaf4" stroke-width="20" stroke-linecap="round" stroke-linejoin="round" fill="none"/><path d="M364 306l72-184" stroke="#12b7a6" stroke-width="18" stroke-linecap="round"/>
</svg>
