<svg xmlns="http://www.w3.org/2000/svg" viewBox="0 0 800 420" role="img" aria-label="Ilustracion propia de tecnologia para esta pregunta">
  <defs>
    <linearGradient id="bg" x1="0" x2="1" y1="0" y2="1">
      <stop stop-color="#111820"/>
      <stop offset="1" stop-color="#315be8" stop-opacity="0.22"/>
    </linearGradient>
  </defs>
  <rect width="800" height="420" fill="url(#bg)"/>
  <circle cx="289" cy="281" r="77" fill="#fffaf4" opacity="0.13"/>
  <circle cx="420" cy="196" r="135" fill="#315be8" opacity="0.16"/>
  <circle cx="254" cy="373" r="4" fill="#12b7a6" opacity="0.71"/><circle cx="561" cy="120" r="4" fill="#12b7a6" opacity="0.7"/><circle cx="152" cy="209" r="4" fill="#12b7a6" opacity="0.69"/><circle cx="459" cy="298" r="4" fill="#12b7a6" opacity="0.68"/><circle cx="50" cy="45" r="4" fill="#12b7a6" opacity="0.67"/><circle cx="357" cy="134" r="4" fill="#12b7a6" opacity="0.66"/><circle cx="664" cy="223" r="4" fill="#12b7a6" opacity="0.65"/><circle cx="255" cy="313" r="4" fill="#12b7a6" opacity="0.64"/><circle cx="662" cy="343" r="4" fill="#12b7a6" opacity="0.34"/>
  <rect width="800" height="420" fill="#fffaf4"/><rect x="108" y="72" width="584" height="276" rx="28" fill="#315be8"/><rect x="108" y="72" width="584" height="58" rx="28" fill="#12b7a6"/><path d="M246 206l-62 44 62 44M554 206l62 44-62 44" stroke="#fffaf4" stroke-width="20" stroke-linecap="round" stroke-linejoin="round" fill="none"/><path d="M364 306l72-184" stroke="#12b7a6" stroke-width="18" stroke-linecap="round"/>
</svg>
