<svg xmlns="http://www.w3.org/2000/svg" viewBox="0 0 800 420" role="img" aria-label="Ilustracion propia de videojuegos para esta pregunta">
  <defs>
    <linearGradient id="bg" x1="0" x2="1" y1="0" y2="1">
      <stop stop-color="#f4efff"/>
      <stop offset="1" stop-color="#f4efff" stop-opacity="0.22"/>
    </linearGradient>
  </defs>
  <rect width="800" height="420" fill="url(#bg)"/>
  <circle cx="150" cy="78" r="64" fill="#15191d" opacity="0.13"/>
  <circle cx="402" cy="242" r="84" fill="#9b5cff" opacity="0.16"/>
  <circle cx="47" cy="207" r="2" fill="#12b7a6" opacity="0.6000000000000001"/><circle cx="456" cy="118" r="2" fill="#12b7a6" opacity="0.6100000000000001"/><circle cx="149" cy="371" r="2" fill="#12b7a6" opacity="0.6200000000000001"/><circle cx="558" cy="281" r="2" fill="#12b7a6" opacity="0.63"/><circle cx="75" cy="93" r="3" fill="#12b7a6" opacity="0.7"/><circle cx="484" cy="346" r="3" fill="#12b7a6" opacity="0.71"/><circle cx="177" cy="257" r="2" fill="#12b7a6" opacity="0.72"/><circle cx="586" cy="168" r="2" fill="#12b7a6" opacity="0.28"/><circle cx="587" cy="108" r="3" fill="#12b7a6" opacity="0.66"/>
  <path d="M226 160c40-54 310-54 348 0l58 104c24 44-12 86-58 64l-74-36H300l-74 36c-46 22-82-20-58-64z" fill="#15191d"/><path d="M284 232h82M325 191v82" stroke="#fff" stroke-width="20" stroke-linecap="round"/><circle cx="542" cy="218" r="20" fill="#12b7a6"/><circle cx="588" cy="252" r="20" fill="#fffaf4"/><circle cx="456" cy="252" r="20" fill="#12b7a6"/>
</svg>
