<svg xmlns="http://www.w3.org/2000/svg" viewBox="0 0 800 420" role="img" aria-label="Ilustracion propia de escenario musical para esta pregunta">
  <defs>
    <linearGradient id="bg" x1="0" x2="1" y1="0" y2="1">
      <stop stop-color="#201525"/>
      <stop offset="1" stop-color="#12b7a6" stop-opacity="0.22"/>
    </linearGradient>
  </defs>
  <rect width="800" height="420" fill="url(#bg)"/>
  <circle cx="309" cy="242" r="79" fill="#fffaf4" opacity="0.13"/>
  <circle cx="122" cy="263" r="105" fill="#ff4f6d" opacity="0.16"/>
  <circle cx="673" cy="179" r="2" fill="#12b7a6" opacity="0.5700000000000001"/><circle cx="366" cy="90" r="2" fill="#12b7a6" opacity="0.5800000000000001"/><circle cx="571" cy="357" r="2" fill="#12b7a6" opacity="0.55"/><circle cx="264" cy="268" r="2" fill="#12b7a6" opacity="0.56"/><circle cx="469" cy="194" r="2" fill="#12b7a6" opacity="0.53"/><circle cx="162" cy="104" r="2" fill="#12b7a6" opacity="0.54"/><circle cx="367" cy="372" r="2" fill="#12b7a6" opacity="0.51"/><circle cx="60" cy="283" r="2" fill="#12b7a6" opacity="0.52"/><circle cx="265" cy="208" r="2" fill="#12b7a6" opacity="0.49"/>
  <rect width="800" height="420" fill="#fffaf4"/><path d="M182 0l170 290M618 0L510 290" stroke="#12b7a6" stroke-width="34" opacity=".5"/><rect x="150" y="292" width="500" height="54" rx="20" fill="#ff4f6d" opacity=".9"/><path d="M280 292c26-80 214-80 240 0" fill="none" stroke="#fffaf4" stroke-width="16"/><path d="M438 98v126c0 28-24 50-58 50s-58-22-58-50 24-50 58-50c12 0 23 3 32 8V98z" fill="#ff4f6d"/>
</svg>
