<svg xmlns="http://www.w3.org/2000/svg" viewBox="0 0 800 420" role="img" aria-label="Ilustracion propia de historia y archivo para esta pregunta">
  <defs>
    <linearGradient id="bg" x1="0" x2="1" y1="0" y2="1">
      <stop stop-color="#fff4e4"/>
      <stop offset="1" stop-color="#d9cec1" stop-opacity="0.22"/>
    </linearGradient>
  </defs>
  <rect width="800" height="420" fill="url(#bg)"/>
  <circle cx="525" cy="176" r="113" fill="#15191d" opacity="0.13"/>
  <circle cx="224" cy="326" r="140" fill="#d9cec1" opacity="0.16"/>
  <circle cx="209" cy="45" r="5" fill="#f6bc42" opacity="0.7"/><circle cx="618" cy="297" r="5" fill="#f6bc42" opacity="0.71"/><circle cx="107" cy="223" r="5" fill="#f6bc42" opacity="0.68"/><circle cx="516" cy="134" r="5" fill="#f6bc42" opacity="0.69"/><circle cx="413" cy="372" r="5" fill="#f6bc42" opacity="0.29000000000000004"/><circle cx="106" cy="283" r="5" fill="#f6bc42" opacity="0.30000000000000004"/><circle cx="311" cy="208" r="5" fill="#f6bc42" opacity="0.72"/><circle cx="720" cy="119" r="5" fill="#f6bc42" opacity="0.28"/><circle cx="517" cy="74" r="2" fill="#f6bc42" opacity="0.6200000000000001"/>
  <rect x="202" y="130" width="220" height="210" rx="18" fill="#fffaf4" stroke="#f6bc42" stroke-width="5"/><rect x="236" y="172" width="152" height="12" rx="6" fill="#15191d" opacity=".2"/><rect x="236" y="212" width="120" height="12" rx="6" fill="#15191d" opacity=".2"/><path d="M470 170h210L575 94z" fill="#15191d"/><rect x="500" y="190" width="32" height="120" rx="6" fill="#15191d"/><rect x="560" y="190" width="32" height="120" rx="6" fill="#15191d"/><rect x="620" y="190" width="32" height="120" rx="6" fill="#15191d"/>
</svg>
