<svg xmlns="http://www.w3.org/2000/svg" viewBox="0 0 800 420" role="img" aria-label="Ilustracion propia de espacio y planetas para esta pregunta">
  <defs>
    <linearGradient id="bg" x1="0" x2="1" y1="0" y2="1">
      <stop stop-color="#12171a"/>
      <stop offset="1" stop-color="#12171a" stop-opacity="0.22"/>
    </linearGradient>
  </defs>
  <rect width="800" height="420" fill="url(#bg)"/>
  <circle cx="147" cy="80" r="98" fill="#e46b4f" opacity="0.13"/>
  <circle cx="177" cy="171" r="128" fill="#f6bc42" opacity="0.16"/>
  <circle cx="503" cy="78" r="4" fill="#315be8" opacity="0.54"/><circle cx="196" cy="331" r="4" fill="#315be8" opacity="0.55"/><circle cx="605" cy="242" r="4" fill="#315be8" opacity="0.56"/><circle cx="298" cy="153" r="4" fill="#315be8" opacity="0.5700000000000001"/><circle cx="707" cy="64" r="4" fill="#315be8" opacity="0.5800000000000001"/><circle cx="400" cy="316" r="4" fill="#315be8" opacity="0.5900000000000001"/><circle cx="93" cy="227" r="4" fill="#315be8" opacity="0.6000000000000001"/><circle cx="502" cy="138" r="4" fill="#315be8" opacity="0.6100000000000001"/><circle cx="195" cy="49" r="4" fill="#315be8" opacity="0.6200000000000001"/>
  <rect width="800" height="420" fill="#e46b4f"/><circle cx="320" cy="218" r="77" fill="#f6bc42"/><path d="M230 212c36 14 66-22 112-2" stroke="#8f3327" stroke-width="12" stroke-linecap="round" opacity=".36"/><circle cx="484" cy="178" r="52" fill="#315be8"/><circle cx="560" cy="276" r="32" fill="#fffaf4"/><path d="M176 324c140 46 308 54 476 0" stroke="#fff" stroke-width="5" fill="none" opacity=".38"/>
</svg>
