<svg xmlns="http://www.w3.org/2000/svg" viewBox="0 0 800 420" role="img" aria-label="Ilustracion propia de espacio y planetas para esta pregunta">
  <defs>
    <linearGradient id="bg" x1="0" x2="1" y1="0" y2="1">
      <stop stop-color="#12171a"/>
      <stop offset="1" stop-color="#e46b4f" stop-opacity="0.22"/>
    </linearGradient>
  </defs>
  <rect width="800" height="420" fill="url(#bg)"/>
  <circle cx="678" cy="157" r="72" fill="#e46b4f" opacity="0.13"/>
  <circle cx="468" cy="324" r="65" fill="#f6bc42" opacity="0.16"/>
  <circle cx="684" cy="88" r="4" fill="#315be8" opacity="0.35000000000000003"/><circle cx="275" cy="178" r="4" fill="#315be8" opacity="0.34"/><circle cx="70" cy="252" r="4" fill="#315be8" opacity="0.37"/><circle cx="377" cy="341" r="4" fill="#315be8" opacity="0.36000000000000004"/><circle cx="480" cy="103" r="4" fill="#315be8" opacity="0.31000000000000005"/><circle cx="71" cy="192" r="4" fill="#315be8" opacity="0.30000000000000004"/><circle cx="582" cy="267" r="4" fill="#315be8" opacity="0.33"/><circle cx="173" cy="356" r="4" fill="#315be8" opacity="0.32"/><circle cx="376" cy="59" r="4" fill="#315be8" opacity="0.43000000000000005"/>
  <rect width="800" height="420" fill="#e46b4f"/><circle cx="354" cy="218" r="84" fill="#f6bc42"/><path d="M230 212c36 14 66-22 112-2" stroke="#8f3327" stroke-width="12" stroke-linecap="round" opacity=".36"/><circle cx="458" cy="196" r="56" fill="#315be8"/><circle cx="580" cy="276" r="32" fill="#fffaf4"/><path d="M176 324c140 46 308 54 476 0" stroke="#fff" stroke-width="5" fill="none" opacity=".38"/>
</svg>
