<svg xmlns="http://www.w3.org/2000/svg" viewBox="0 0 800 420" role="img" aria-label="Ilustracion propia de cancha de baloncesto para esta pregunta">
  <defs>
    <linearGradient id="bg" x1="0" x2="1" y1="0" y2="1">
      <stop stop-color="#fff1df"/>
      <stop offset="1" stop-color="#15191d" stop-opacity="0.22"/>
    </linearGradient>
  </defs>
  <rect width="800" height="420" fill="url(#bg)"/>
  <circle cx="200" cy="174" r="103" fill="#f6bc42" opacity="0.13"/>
  <circle cx="259" cy="254" r="128" fill="#d95a35" opacity="0.16"/>
  <circle cx="285" cy="100" r="2" fill="#15191d" opacity="0.55"/><circle cx="694" cy="352" r="2" fill="#15191d" opacity="0.56"/><circle cx="183" cy="278" r="2" fill="#15191d" opacity="0.53"/><circle cx="592" cy="189" r="2" fill="#15191d" opacity="0.54"/><circle cx="489" cy="85" r="2" fill="#15191d" opacity="0.5900000000000001"/><circle cx="182" cy="338" r="2" fill="#15191d" opacity="0.6000000000000001"/><circle cx="387" cy="263" r="2" fill="#15191d" opacity="0.5700000000000001"/><circle cx="80" cy="174" r="2" fill="#15191d" opacity="0.5800000000000001"/><circle cx="693" cy="70" r="2" fill="#15191d" opacity="0.63"/>
  <rect x="76" y="58" width="648" height="304" rx="30" fill="#d95a35"/><path d="M100 210h600M400 58v304" stroke="#fffaf4" stroke-width="8" opacity=".8"/><circle cx="400" cy="210" r="80" fill="none" stroke="#fffaf4" stroke-width="8" opacity=".8"/><circle cx="516" cy="246" r="42" fill="#15191d"/><path d="M474 246h84M516 204v84" stroke="#f6bc42" stroke-width="5" fill="none"/>
</svg>
