<svg xmlns="http://www.w3.org/2000/svg" viewBox="0 0 800 420" role="img" aria-label="Ilustracion propia de naturaleza para esta pregunta">
  <defs>
    <linearGradient id="bg" x1="0" x2="1" y1="0" y2="1">
      <stop stop-color="#ecfbef"/>
      <stop offset="1" stop-color="#ecfbef" stop-opacity="0.22"/>
    </linearGradient>
  </defs>
  <rect width="800" height="420" fill="url(#bg)"/>
  <circle cx="300" cy="129" r="68" fill="#12b7a6" opacity="0.13"/>
  <circle cx="196" cy="284" r="114" fill="#315be8" opacity="0.16"/>
  <circle cx="188" cy="200" r="3" fill="#f6bc42" opacity="0.33"/><circle cx="495" cy="289" r="3" fill="#f6bc42" opacity="0.32"/><circle cx="290" cy="364" r="3" fill="#f6bc42" opacity="0.35000000000000003"/><circle cx="597" cy="111" r="3" fill="#f6bc42" opacity="0.34"/><circle cx="700" cy="214" r="4" fill="#f6bc42" opacity="0.29000000000000004"/><circle cx="291" cy="304" r="4" fill="#f6bc42" opacity="0.28"/><circle cx="86" cy="36" r="3" fill="#f6bc42" opacity="0.31000000000000005"/><circle cx="393" cy="125" r="3" fill="#f6bc42" opacity="0.30000000000000004"/><circle cx="596" cy="171" r="3" fill="#f6bc42" opacity="0.41000000000000003"/>
  <path d="M164 322c172-20 120-184 278-208 118-18 172 78 194 158-152 42-298 74-472 50z" fill="#315be8"/><path d="M214 300c138-68 244-104 390-118" stroke="#fff" stroke-width="14" stroke-linecap="round" opacity=".72"/><path d="M394 254c-28-52-20-104 24-156 72 30 102 82 84 150z" fill="#f6bc42" opacity=".88"/>
</svg>
