<svg xmlns="http://www.w3.org/2000/svg" viewBox="0 0 800 420" role="img" aria-label="Ilustracion propia de tecnologia para esta pregunta">
  <defs>
    <linearGradient id="bg" x1="0" x2="1" y1="0" y2="1">
      <stop stop-color="#111820"/>
      <stop offset="1" stop-color="#111820" stop-opacity="0.22"/>
    </linearGradient>
  </defs>
  <rect width="800" height="420" fill="url(#bg)"/>
  <circle cx="245" cy="170" r="114" fill="#fffaf4" opacity="0.13"/>
  <circle cx="114" cy="325" r="90" fill="#315be8" opacity="0.16"/>
  <circle cx="256" cy="170" r="3" fill="#12b7a6" opacity="0.69"/><circle cx="563" cy="259" r="3" fill="#12b7a6" opacity="0.68"/><circle cx="358" cy="334" r="3" fill="#12b7a6" opacity="0.71"/><circle cx="665" cy="81" r="3" fill="#12b7a6" opacity="0.7"/><circle cx="460" cy="156" r="3" fill="#12b7a6" opacity="0.28"/><circle cx="51" cy="245" r="3" fill="#12b7a6" opacity="0.72"/><circle cx="562" cy="319" r="3" fill="#12b7a6" opacity="0.30000000000000004"/><circle cx="153" cy="67" r="3" fill="#12b7a6" opacity="0.29000000000000004"/><circle cx="664" cy="141" r="3" fill="#12b7a6" opacity="0.32"/>
  <rect width="800" height="420" fill="#fffaf4"/><rect x="108" y="72" width="584" height="276" rx="28" fill="#315be8"/><rect x="108" y="72" width="584" height="58" rx="28" fill="#12b7a6"/><path d="M258 206l-62 44 62 44M542 206l62 44-62 44" stroke="#fffaf4" stroke-width="20" stroke-linecap="round" stroke-linejoin="round" fill="none"/><path d="M364 306l72-184" stroke="#12b7a6" stroke-width="18" stroke-linecap="round"/>
</svg>
