<svg xmlns="http://www.w3.org/2000/svg" viewBox="0 0 800 420" role="img" aria-label="Ilustracion propia de videojuegos para esta pregunta">
  <defs>
    <linearGradient id="bg" x1="0" x2="1" y1="0" y2="1">
      <stop stop-color="#f4efff"/>
      <stop offset="1" stop-color="#f4efff" stop-opacity="0.22"/>
    </linearGradient>
  </defs>
  <rect width="800" height="420" fill="url(#bg)"/>
  <circle cx="187" cy="73" r="78" fill="#15191d" opacity="0.13"/>
  <circle cx="332" cy="63" r="95" fill="#9b5cff" opacity="0.16"/>
  <circle cx="571" cy="252" r="3" fill="#12b7a6" opacity="0.71"/><circle cx="264" cy="163" r="3" fill="#12b7a6" opacity="0.72"/><circle cx="673" cy="74" r="3" fill="#12b7a6" opacity="0.28"/><circle cx="366" cy="327" r="3" fill="#12b7a6" opacity="0.29000000000000004"/><circle cx="59" cy="237" r="3" fill="#12b7a6" opacity="0.30000000000000004"/><circle cx="468" cy="148" r="3" fill="#12b7a6" opacity="0.31000000000000005"/><circle cx="161" cy="59" r="3" fill="#12b7a6" opacity="0.32"/><circle cx="570" cy="312" r="3" fill="#12b7a6" opacity="0.33"/><circle cx="263" cy="223" r="3" fill="#12b7a6" opacity="0.34"/>
  <path d="M226 160c40-54 310-54 348 0l58 104c24 44-12 86-58 64l-74-36H300l-74 36c-46 22-82-20-58-64z" fill="#15191d"/><path d="M284 232h82M325 191v82" stroke="#fff" stroke-width="20" stroke-linecap="round"/><circle cx="506" cy="218" r="20" fill="#12b7a6"/><circle cx="558" cy="252" r="20" fill="#fffaf4"/><circle cx="456" cy="252" r="20" fill="#12b7a6"/>
</svg>
