<svg xmlns="http://www.w3.org/2000/svg" viewBox="0 0 800 420" role="img" aria-label="Ilustracion propia de oceano y olas para esta pregunta">
  <defs>
    <linearGradient id="bg" x1="0" x2="1" y1="0" y2="1">
      <stop stop-color="#dff8ff"/>
      <stop offset="1" stop-color="#fffaf4" stop-opacity="0.22"/>
    </linearGradient>
  </defs>
  <rect width="800" height="420" fill="url(#bg)"/>
  <circle cx="328" cy="219" r="115" fill="#12b7a6" opacity="0.13"/>
  <circle cx="575" cy="296" r="100" fill="#315be8" opacity="0.16"/>
  <circle cx="600" cy="237" r="2" fill="#fffaf4" opacity="0.6100000000000001"/><circle cx="191" cy="326" r="2" fill="#fffaf4" opacity="0.6000000000000001"/><circle cx="702" cy="59" r="2" fill="#fffaf4" opacity="0.63"/><circle cx="293" cy="148" r="2" fill="#fffaf4" opacity="0.6200000000000001"/><circle cx="396" cy="252" r="2" fill="#fffaf4" opacity="0.5700000000000001"/><circle cx="703" cy="341" r="2" fill="#fffaf4" opacity="0.56"/><circle cx="498" cy="73" r="2" fill="#fffaf4" opacity="0.5900000000000001"/><circle cx="89" cy="162" r="2" fill="#fffaf4" opacity="0.5800000000000001"/><circle cx="424" cy="138" r="2" fill="#fffaf4" opacity="0.67"/>
  <path d="M0 240c88-42 144 42 232 0s144 42 232 0 144 42 232 0 144 42 232 0v180H0z" fill="#fff" opacity=".34"/><path d="M0 306c88-42 144 42 232 0s144 42 232 0 144 42 232 0 144 42 232 0" fill="none" stroke="#fff" stroke-width="18" opacity=".62"/><path d="M142 174c82-44 170-44 252 0" fill="none" stroke="#fff" stroke-width="10" opacity=".45" stroke-linecap="round"/>
</svg>
