<svg xmlns="http://www.w3.org/2000/svg" viewBox="0 0 800 420" role="img" aria-label="Ilustracion propia de tecnologia para esta pregunta">
  <defs>
    <linearGradient id="bg" x1="0" x2="1" y1="0" y2="1">
      <stop stop-color="#111820"/>
      <stop offset="1" stop-color="#12b7a6" stop-opacity="0.22"/>
    </linearGradient>
  </defs>
  <rect width="800" height="420" fill="url(#bg)"/>
  <circle cx="570" cy="237" r="123" fill="#fffaf4" opacity="0.13"/>
  <circle cx="605" cy="119" r="131" fill="#315be8" opacity="0.16"/>
  <circle cx="359" cy="128" r="2" fill="#12b7a6" opacity="0.71"/><circle cx="52" cy="39" r="2" fill="#12b7a6" opacity="0.72"/><circle cx="461" cy="292" r="2" fill="#12b7a6" opacity="0.28"/><circle cx="154" cy="203" r="2" fill="#12b7a6" opacity="0.29000000000000004"/><circle cx="155" cy="143" r="2" fill="#12b7a6" opacity="0.67"/><circle cx="564" cy="53" r="2" fill="#12b7a6" opacity="0.68"/><circle cx="257" cy="306" r="2" fill="#12b7a6" opacity="0.69"/><circle cx="666" cy="217" r="2" fill="#12b7a6" opacity="0.7"/><circle cx="667" cy="157" r="2" fill="#12b7a6" opacity="0.63"/>
  <rect width="800" height="420" fill="#fffaf4"/><rect x="108" y="72" width="584" height="276" rx="28" fill="#315be8"/><rect x="108" y="72" width="584" height="58" rx="28" fill="#12b7a6"/><path d="M258 206l-62 44 62 44M542 206l62 44-62 44" stroke="#fffaf4" stroke-width="20" stroke-linecap="round" stroke-linejoin="round" fill="none"/><path d="M364 306l72-184" stroke="#12b7a6" stroke-width="18" stroke-linecap="round"/>
</svg>
