<svg xmlns="http://www.w3.org/2000/svg" viewBox="0 0 800 420" role="img" aria-label="Ilustracion propia de tecnologia para esta pregunta">
  <defs>
    <linearGradient id="bg" x1="0" x2="1" y1="0" y2="1">
      <stop stop-color="#111820"/>
      <stop offset="1" stop-color="#111820" stop-opacity="0.22"/>
    </linearGradient>
  </defs>
  <rect width="800" height="420" fill="url(#bg)"/>
  <circle cx="478" cy="83" r="108" fill="#fffaf4" opacity="0.13"/>
  <circle cx="668" cy="171" r="119" fill="#315be8" opacity="0.16"/>
  <circle cx="743" cy="180" r="5" fill="#12b7a6" opacity="0.6000000000000001"/><circle cx="436" cy="90" r="5" fill="#12b7a6" opacity="0.6100000000000001"/><circle cx="129" cy="343" r="5" fill="#12b7a6" opacity="0.6200000000000001"/><circle cx="538" cy="254" r="5" fill="#12b7a6" opacity="0.63"/><circle cx="715" cy="293" r="5" fill="#12b7a6" opacity="0.5"/><circle cx="408" cy="204" r="4" fill="#12b7a6" opacity="0.51"/><circle cx="101" cy="115" r="4" fill="#12b7a6" opacity="0.52"/><circle cx="510" cy="368" r="4" fill="#12b7a6" opacity="0.53"/><circle cx="335" cy="209" r="5" fill="#12b7a6" opacity="0.52"/>
  <rect width="800" height="420" fill="#fffaf4"/><rect x="108" y="72" width="584" height="276" rx="28" fill="#315be8"/><rect x="108" y="72" width="584" height="58" rx="28" fill="#12b7a6"/><path d="M234 206l-62 44 62 44M566 206l62 44-62 44" stroke="#fffaf4" stroke-width="20" stroke-linecap="round" stroke-linejoin="round" fill="none"/><path d="M364 306l72-184" stroke="#12b7a6" stroke-width="18" stroke-linecap="round"/>
</svg>
