<svg xmlns="http://www.w3.org/2000/svg" viewBox="0 0 800 420" role="img" aria-label="Ilustracion propia de cine y rodaje para esta pregunta">
  <defs>
    <linearGradient id="bg" x1="0" x2="1" y1="0" y2="1">
      <stop stop-color="#15191d"/>
      <stop offset="1" stop-color="#ff4f6d" stop-opacity="0.22"/>
    </linearGradient>
  </defs>
  <rect width="800" height="420" fill="url(#bg)"/>
  <circle cx="351" cy="127" r="95" fill="#fffaf4" opacity="0.13"/>
  <circle cx="277" cy="248" r="77" fill="#f6bc42" opacity="0.16"/>
  <circle cx="179" cy="74" r="2" fill="#ff4f6d" opacity="0.4"/><circle cx="588" cy="327" r="2" fill="#ff4f6d" opacity="0.41000000000000003"/><circle cx="281" cy="238" r="2" fill="#ff4f6d" opacity="0.42000000000000004"/><circle cx="690" cy="148" r="2" fill="#ff4f6d" opacity="0.43000000000000005"/><circle cx="383" cy="59" r="2" fill="#ff4f6d" opacity="0.44000000000000006"/><circle cx="76" cy="312" r="2" fill="#ff4f6d" opacity="0.45000000000000007"/><circle cx="485" cy="223" r="2" fill="#ff4f6d" opacity="0.46"/><circle cx="178" cy="134" r="2" fill="#ff4f6d" opacity="0.47000000000000003"/><circle cx="487" cy="103" r="2" fill="#ff4f6d" opacity="0.32"/>
  <rect width="800" height="420" fill="#fffaf4"/><circle cx="620" cy="90" r="120" fill="#ff4f6d" opacity=".42"/><rect x="190" y="182" width="420" height="198" rx="22" fill="#f6bc42"/><rect x="190" y="108" width="420" height="70" rx="18" fill="#fffaf4"/><path d="M228 108l58 70M330 108l58 70M432 108l58 70M534 108l58 70" stroke="#fffaf4" stroke-width="20"/><rect x="244" y="254" width="312" height="18" rx="9" fill="#fffaf4" opacity=".16"/>
</svg>
