<svg xmlns="http://www.w3.org/2000/svg" viewBox="0 0 800 420" role="img" aria-label="Ilustracion propia de cine y rodaje para esta pregunta">
  <defs>
    <linearGradient id="bg" x1="0" x2="1" y1="0" y2="1">
      <stop stop-color="#15191d"/>
      <stop offset="1" stop-color="#fffaf4" stop-opacity="0.22"/>
    </linearGradient>
  </defs>
  <rect width="800" height="420" fill="url(#bg)"/>
  <circle cx="318" cy="141" r="126" fill="#fffaf4" opacity="0.13"/>
  <circle cx="573" cy="179" r="121" fill="#f6bc42" opacity="0.16"/>
  <circle cx="397" cy="222" r="2" fill="#ff4f6d" opacity="0.55"/><circle cx="90" cy="133" r="2" fill="#ff4f6d" opacity="0.56"/><circle cx="295" cy="59" r="2" fill="#ff4f6d" opacity="0.53"/><circle cx="704" cy="312" r="2" fill="#ff4f6d" opacity="0.54"/><circle cx="193" cy="237" r="2" fill="#ff4f6d" opacity="0.51"/><circle cx="602" cy="148" r="2" fill="#ff4f6d" opacity="0.52"/><circle cx="91" cy="73" r="2" fill="#ff4f6d" opacity="0.49"/><circle cx="500" cy="326" r="2" fill="#ff4f6d" opacity="0.5"/><circle cx="89" cy="193" r="2" fill="#ff4f6d" opacity="0.63"/>
  <rect width="800" height="420" fill="#fffaf4"/><circle cx="540" cy="142" r="120" fill="#ff4f6d" opacity=".42"/><rect x="190" y="182" width="420" height="198" rx="22" fill="#f6bc42"/><rect x="190" y="124" width="420" height="70" rx="18" fill="#fffaf4"/><path d="M228 124l58 70M330 124l58 70M432 124l58 70M534 124l58 70" stroke="#fffaf4" stroke-width="20"/><rect x="244" y="254" width="312" height="18" rx="9" fill="#fffaf4" opacity=".16"/>
</svg>
