<svg xmlns="http://www.w3.org/2000/svg" viewBox="0 0 800 420" role="img" aria-label="Ilustracion propia de oceano y olas para esta pregunta">
  <defs>
    <linearGradient id="bg" x1="0" x2="1" y1="0" y2="1">
      <stop stop-color="#dff8ff"/>
      <stop offset="1" stop-color="#12b7a6" stop-opacity="0.22"/>
    </linearGradient>
  </defs>
  <rect width="800" height="420" fill="url(#bg)"/>
  <circle cx="503" cy="99" r="76" fill="#12b7a6" opacity="0.13"/>
  <circle cx="596" cy="173" r="105" fill="#315be8" opacity="0.16"/>
  <circle cx="211" cy="104" r="2" fill="#fffaf4" opacity="0.32"/><circle cx="620" cy="357" r="2" fill="#fffaf4" opacity="0.33"/><circle cx="313" cy="268" r="2" fill="#fffaf4" opacity="0.34"/><circle cx="722" cy="179" r="2" fill="#fffaf4" opacity="0.35000000000000003"/><circle cx="415" cy="90" r="2" fill="#fffaf4" opacity="0.36000000000000004"/><circle cx="108" cy="342" r="2" fill="#fffaf4" opacity="0.37"/><circle cx="517" cy="253" r="2" fill="#fffaf4" opacity="0.38"/><circle cx="210" cy="164" r="2" fill="#fffaf4" opacity="0.39"/><circle cx="619" cy="75" r="2" fill="#fffaf4" opacity="0.4"/>
  <path d="M0 240c88-42 144 42 232 0s144 42 232 0 144 42 232 0 144 42 232 0v180H0z" fill="#fff" opacity=".34"/><path d="M0 306c88-42 144 42 232 0s144 42 232 0 144 42 232 0 144 42 232 0" fill="none" stroke="#fff" stroke-width="18" opacity=".62"/><path d="M142 174c82-44 170-44 252 0" fill="none" stroke="#fff" stroke-width="10" opacity=".45" stroke-linecap="round"/>
</svg>
