<svg xmlns="http://www.w3.org/2000/svg" viewBox="0 0 800 420" role="img" aria-label="Ilustracion propia de oceano y olas para esta pregunta">
  <defs>
    <linearGradient id="bg" x1="0" x2="1" y1="0" y2="1">
      <stop stop-color="#dff8ff"/>
      <stop offset="1" stop-color="#dff8ff" stop-opacity="0.22"/>
    </linearGradient>
  </defs>
  <rect width="800" height="420" fill="url(#bg)"/>
  <circle cx="547" cy="108" r="142" fill="#12b7a6" opacity="0.13"/>
  <circle cx="377" cy="246" r="93" fill="#315be8" opacity="0.16"/>
  <circle cx="471" cy="124" r="3" fill="#fffaf4" opacity="0.68"/><circle cx="164" cy="377" r="3" fill="#fffaf4" opacity="0.69"/><circle cx="573" cy="288" r="3" fill="#fffaf4" opacity="0.7"/><circle cx="266" cy="199" r="3" fill="#fffaf4" opacity="0.71"/><circle cx="267" cy="139" r="3" fill="#fffaf4" opacity="0.64"/><circle cx="676" cy="50" r="3" fill="#fffaf4" opacity="0.65"/><circle cx="369" cy="302" r="3" fill="#fffaf4" opacity="0.66"/><circle cx="62" cy="213" r="3" fill="#fffaf4" opacity="0.67"/><circle cx="63" cy="153" r="3" fill="#fffaf4" opacity="0.6000000000000001"/>
  <path d="M0 240c88-42 144 42 232 0s144 42 232 0 144 42 232 0 144 42 232 0v180H0z" fill="#fff" opacity=".34"/><path d="M0 296c88-42 144 42 232 0s144 42 232 0 144 42 232 0 144 42 232 0" fill="none" stroke="#fff" stroke-width="18" opacity=".62"/><path d="M142 174c82-44 170-44 252 0" fill="none" stroke="#fff" stroke-width="10" opacity=".45" stroke-linecap="round"/>
</svg>
