<svg xmlns="http://www.w3.org/2000/svg" viewBox="0 0 800 420" role="img" aria-label="Ilustracion propia de cine y rodaje para esta pregunta">
  <defs>
    <linearGradient id="bg" x1="0" x2="1" y1="0" y2="1">
      <stop stop-color="#15191d"/>
      <stop offset="1" stop-color="#f6bc42" stop-opacity="0.22"/>
    </linearGradient>
  </defs>
  <rect width="800" height="420" fill="url(#bg)"/>
  <circle cx="313" cy="153" r="133" fill="#fffaf4" opacity="0.13"/>
  <circle cx="348" cy="180" r="132" fill="#f6bc42" opacity="0.16"/>
  <circle cx="475" cy="61" r="3" fill="#ff4f6d" opacity="0.51"/><circle cx="168" cy="314" r="3" fill="#ff4f6d" opacity="0.52"/><circle cx="577" cy="225" r="3" fill="#ff4f6d" opacity="0.53"/><circle cx="270" cy="136" r="3" fill="#ff4f6d" opacity="0.54"/><circle cx="679" cy="47" r="3" fill="#ff4f6d" opacity="0.55"/><circle cx="372" cy="300" r="3" fill="#ff4f6d" opacity="0.56"/><circle cx="65" cy="211" r="3" fill="#ff4f6d" opacity="0.5700000000000001"/><circle cx="474" cy="121" r="3" fill="#ff4f6d" opacity="0.5800000000000001"/><circle cx="67" cy="91" r="4" fill="#ff4f6d" opacity="0.43000000000000005"/>
  <rect width="800" height="420" fill="#fffaf4"/><circle cx="540" cy="142" r="120" fill="#ff4f6d" opacity=".42"/><rect x="190" y="182" width="420" height="198" rx="22" fill="#f6bc42"/><rect x="190" y="124" width="420" height="70" rx="18" fill="#fffaf4"/><path d="M228 124l58 70M330 124l58 70M432 124l58 70M534 124l58 70" stroke="#fffaf4" stroke-width="20"/><rect x="244" y="254" width="312" height="18" rx="9" fill="#fffaf4" opacity=".16"/>
</svg>
