<svg xmlns="http://www.w3.org/2000/svg" viewBox="0 0 800 420" role="img" aria-label="Ilustracion propia de espacio y planetas para esta pregunta">
  <defs>
    <linearGradient id="bg" x1="0" x2="1" y1="0" y2="1">
      <stop stop-color="#12171a"/>
      <stop offset="1" stop-color="#315be8" stop-opacity="0.22"/>
    </linearGradient>
  </defs>
  <rect width="800" height="420" fill="url(#bg)"/>
  <circle cx="127" cy="98" r="103" fill="#e46b4f" opacity="0.13"/>
  <circle cx="624" cy="281" r="128" fill="#f6bc42" opacity="0.16"/>
  <circle cx="424" cy="209" r="2" fill="#315be8" opacity="0.30000000000000004"/><circle cx="731" cy="298" r="2" fill="#315be8" opacity="0.29000000000000004"/><circle cx="526" cy="373" r="2" fill="#315be8" opacity="0.32"/><circle cx="117" cy="120" r="2" fill="#315be8" opacity="0.31000000000000005"/><circle cx="220" cy="224" r="2" fill="#315be8" opacity="0.71"/><circle cx="527" cy="313" r="2" fill="#315be8" opacity="0.7"/><circle cx="322" cy="45" r="2" fill="#315be8" opacity="0.28"/><circle cx="629" cy="134" r="2" fill="#315be8" opacity="0.72"/><circle cx="732" cy="238" r="2" fill="#315be8" opacity="0.67"/>
  <rect width="800" height="420" fill="#e46b4f"/><circle cx="320" cy="218" r="77" fill="#f6bc42"/><path d="M230 212c36 14 66-22 112-2" stroke="#8f3327" stroke-width="12" stroke-linecap="round" opacity=".36"/><circle cx="484" cy="178" r="52" fill="#315be8"/><circle cx="560" cy="276" r="32" fill="#fffaf4"/><path d="M176 324c140 46 308 54 476 0" stroke="#fff" stroke-width="5" fill="none" opacity=".38"/>
</svg>
