<svg xmlns="http://www.w3.org/2000/svg" viewBox="0 0 800 420" role="img" aria-label="Ilustracion propia de naturaleza para esta pregunta">
  <defs>
    <linearGradient id="bg" x1="0" x2="1" y1="0" y2="1">
      <stop stop-color="#ecfbef"/>
      <stop offset="1" stop-color="#12b7a6" stop-opacity="0.22"/>
    </linearGradient>
  </defs>
  <rect width="800" height="420" fill="url(#bg)"/>
  <circle cx="672" cy="268" r="112" fill="#12b7a6" opacity="0.13"/>
  <circle cx="393" cy="123" r="80" fill="#315be8" opacity="0.16"/>
  <circle cx="454" cy="103" r="5" fill="#f6bc42" opacity="0.31000000000000005"/><circle cx="45" cy="193" r="5" fill="#f6bc42" opacity="0.30000000000000004"/><circle cx="352" cy="282" r="5" fill="#f6bc42" opacity="0.29000000000000004"/><circle cx="659" cy="371" r="5" fill="#f6bc42" opacity="0.28"/><circle cx="250" cy="118" r="5" fill="#f6bc42" opacity="0.72"/><circle cx="557" cy="207" r="5" fill="#f6bc42" opacity="0.71"/><circle cx="148" cy="296" r="2" fill="#f6bc42" opacity="0.7"/><circle cx="455" cy="43" r="2" fill="#f6bc42" opacity="0.69"/><circle cx="46" cy="133" r="2" fill="#f6bc42" opacity="0.68"/>
  <path d="M164 322c172-20 120-184 278-208 118-18 172 78 194 158-152 42-298 74-472 50z" fill="#315be8"/><path d="M214 300c138-68 244-104 390-118" stroke="#fff" stroke-width="14" stroke-linecap="round" opacity=".72"/><path d="M334 254c-28-52-20-104 24-156 72 30 102 82 84 150z" fill="#f6bc42" opacity=".88"/>
</svg>
