<svg xmlns="http://www.w3.org/2000/svg" viewBox="0 0 800 420" role="img" aria-label="Ilustracion propia de videojuegos para esta pregunta">
  <defs>
    <linearGradient id="bg" x1="0" x2="1" y1="0" y2="1">
      <stop stop-color="#f4efff"/>
      <stop offset="1" stop-color="#15191d" stop-opacity="0.22"/>
    </linearGradient>
  </defs>
  <rect width="800" height="420" fill="url(#bg)"/>
  <circle cx="644" cy="228" r="86" fill="#15191d" opacity="0.13"/>
  <circle cx="464" cy="154" r="86" fill="#9b5cff" opacity="0.16"/>
  <circle cx="747" cy="181" r="4" fill="#12b7a6" opacity="0.33"/><circle cx="440" cy="92" r="4" fill="#12b7a6" opacity="0.34"/><circle cx="133" cy="345" r="4" fill="#12b7a6" opacity="0.35000000000000003"/><circle cx="542" cy="256" r="4" fill="#12b7a6" opacity="0.36000000000000004"/><circle cx="543" cy="196" r="4" fill="#12b7a6" opacity="0.29000000000000004"/><circle cx="236" cy="106" r="4" fill="#12b7a6" opacity="0.30000000000000004"/><circle cx="645" cy="359" r="4" fill="#12b7a6" opacity="0.31000000000000005"/><circle cx="338" cy="270" r="4" fill="#12b7a6" opacity="0.32"/><circle cx="339" cy="210" r="5" fill="#12b7a6" opacity="0.7"/>
  <path d="M226 160c40-54 310-54 348 0l58 104c24 44-12 86-58 64l-74-36H300l-74 36c-46 22-82-20-58-64z" fill="#15191d"/><path d="M284 232h82M325 191v82" stroke="#fff" stroke-width="20" stroke-linecap="round"/><circle cx="530" cy="218" r="20" fill="#12b7a6"/><circle cx="578" cy="252" r="20" fill="#fffaf4"/><circle cx="456" cy="252" r="20" fill="#12b7a6"/>
</svg>
