<svg xmlns="http://www.w3.org/2000/svg" viewBox="0 0 800 420" role="img" aria-label="Ilustracion propia de videojuegos para esta pregunta">
  <defs>
    <linearGradient id="bg" x1="0" x2="1" y1="0" y2="1">
      <stop stop-color="#f4efff"/>
      <stop offset="1" stop-color="#9b5cff" stop-opacity="0.22"/>
    </linearGradient>
  </defs>
  <rect width="800" height="420" fill="url(#bg)"/>
  <circle cx="336" cy="234" r="73" fill="#15191d" opacity="0.13"/>
  <circle cx="426" cy="226" r="75" fill="#9b5cff" opacity="0.16"/>
  <circle cx="119" cy="184" r="5" fill="#12b7a6" opacity="0.6200000000000001"/><circle cx="528" cy="94" r="5" fill="#12b7a6" opacity="0.63"/><circle cx="221" cy="347" r="5" fill="#12b7a6" opacity="0.64"/><circle cx="630" cy="258" r="5" fill="#12b7a6" opacity="0.65"/><circle cx="631" cy="198" r="2" fill="#12b7a6" opacity="0.5800000000000001"/><circle cx="324" cy="109" r="2" fill="#12b7a6" opacity="0.5900000000000001"/><circle cx="733" cy="362" r="2" fill="#12b7a6" opacity="0.6000000000000001"/><circle cx="426" cy="273" r="5" fill="#12b7a6" opacity="0.6100000000000001"/><circle cx="527" cy="154" r="5" fill="#12b7a6" opacity="0.7"/>
  <path d="M226 160c40-54 310-54 348 0l58 104c24 44-12 86-58 64l-74-36H300l-74 36c-46 22-82-20-58-64z" fill="#15191d"/><path d="M284 232h82M325 191v82" stroke="#fff" stroke-width="20" stroke-linecap="round"/><circle cx="494" cy="218" r="20" fill="#12b7a6"/><circle cx="548" cy="252" r="20" fill="#fffaf4"/><circle cx="456" cy="252" r="20" fill="#12b7a6"/>
</svg>
