<svg xmlns="http://www.w3.org/2000/svg" viewBox="0 0 800 420" role="img" aria-label="Ilustracion propia de oceano y olas para esta pregunta">
  <defs>
    <linearGradient id="bg" x1="0" x2="1" y1="0" y2="1">
      <stop stop-color="#dff8ff"/>
      <stop offset="1" stop-color="#315be8" stop-opacity="0.22"/>
    </linearGradient>
  </defs>
  <rect width="800" height="420" fill="url(#bg)"/>
  <circle cx="396" cy="343" r="133" fill="#12b7a6" opacity="0.13"/>
  <circle cx="583" cy="311" r="72" fill="#315be8" opacity="0.16"/>
  <circle cx="70" cy="198" r="5" fill="#fffaf4" opacity="0.5800000000000001"/><circle cx="377" cy="288" r="5" fill="#fffaf4" opacity="0.5700000000000001"/><circle cx="684" cy="377" r="5" fill="#fffaf4" opacity="0.56"/><circle cx="275" cy="124" r="5" fill="#fffaf4" opacity="0.55"/><circle cx="582" cy="213" r="5" fill="#fffaf4" opacity="0.54"/><circle cx="173" cy="302" r="5" fill="#fffaf4" opacity="0.53"/><circle cx="480" cy="49" r="5" fill="#fffaf4" opacity="0.52"/><circle cx="71" cy="138" r="5" fill="#fffaf4" opacity="0.51"/><circle cx="478" cy="169" r="5" fill="#fffaf4" opacity="0.66"/>
  <path d="M0 240c88-42 144 42 232 0s144 42 232 0 144 42 232 0 144 42 232 0v180H0z" fill="#fff" opacity=".34"/><path d="M0 286c88-42 144 42 232 0s144 42 232 0 144 42 232 0 144 42 232 0" fill="none" stroke="#fff" stroke-width="18" opacity=".62"/><path d="M142 174c82-44 170-44 252 0" fill="none" stroke="#fff" stroke-width="10" opacity=".45" stroke-linecap="round"/>
</svg>
