<svg xmlns="http://www.w3.org/2000/svg" viewBox="0 0 800 420" role="img" aria-label="Ilustracion propia de cine y rodaje para esta pregunta">
  <defs>
    <linearGradient id="bg" x1="0" x2="1" y1="0" y2="1">
      <stop stop-color="#15191d"/>
      <stop offset="1" stop-color="#fffaf4" stop-opacity="0.22"/>
    </linearGradient>
  </defs>
  <rect width="800" height="420" fill="url(#bg)"/>
  <circle cx="441" cy="287" r="72" fill="#fffaf4" opacity="0.13"/>
  <circle cx="364" cy="125" r="125" fill="#f6bc42" opacity="0.16"/>
  <circle cx="251" cy="307" r="5" fill="#ff4f6d" opacity="0.34"/><circle cx="660" cy="218" r="5" fill="#ff4f6d" opacity="0.35000000000000003"/><circle cx="353" cy="129" r="5" fill="#ff4f6d" opacity="0.36000000000000004"/><circle cx="46" cy="40" r="5" fill="#ff4f6d" opacity="0.37"/><circle cx="47" cy="322" r="5" fill="#ff4f6d" opacity="0.30000000000000004"/><circle cx="456" cy="233" r="5" fill="#ff4f6d" opacity="0.31000000000000005"/><circle cx="149" cy="144" r="5" fill="#ff4f6d" opacity="0.32"/><circle cx="558" cy="55" r="5" fill="#ff4f6d" opacity="0.33"/><circle cx="559" cy="337" r="5" fill="#ff4f6d" opacity="0.71"/>
  <rect width="800" height="420" fill="#fffaf4"/><circle cx="620" cy="90" r="120" fill="#ff4f6d" opacity=".42"/><rect x="190" y="182" width="420" height="198" rx="22" fill="#f6bc42"/><rect x="190" y="108" width="420" height="70" rx="18" fill="#fffaf4"/><path d="M228 108l58 70M330 108l58 70M432 108l58 70M534 108l58 70" stroke="#fffaf4" stroke-width="20"/><rect x="244" y="254" width="312" height="18" rx="9" fill="#fffaf4" opacity=".16"/>
</svg>
