<svg xmlns="http://www.w3.org/2000/svg" viewBox="0 0 800 420" role="img" aria-label="Ilustracion propia de cine y rodaje para esta pregunta">
  <defs>
    <linearGradient id="bg" x1="0" x2="1" y1="0" y2="1">
      <stop stop-color="#15191d"/>
      <stop offset="1" stop-color="#ff4f6d" stop-opacity="0.22"/>
    </linearGradient>
  </defs>
  <rect width="800" height="420" fill="url(#bg)"/>
  <circle cx="619" cy="89" r="139" fill="#fffaf4" opacity="0.13"/>
  <circle cx="236" cy="101" r="73" fill="#f6bc42" opacity="0.16"/>
  <circle cx="395" cy="177" r="5" fill="#ff4f6d" opacity="0.49"/><circle cx="88" cy="88" r="5" fill="#ff4f6d" opacity="0.5"/><circle cx="497" cy="341" r="5" fill="#ff4f6d" opacity="0.51"/><circle cx="190" cy="252" r="5" fill="#ff4f6d" opacity="0.52"/><circle cx="191" cy="192" r="2" fill="#ff4f6d" opacity="0.45000000000000007"/><circle cx="600" cy="103" r="2" fill="#ff4f6d" opacity="0.46"/><circle cx="293" cy="355" r="2" fill="#ff4f6d" opacity="0.47000000000000003"/><circle cx="702" cy="266" r="5" fill="#ff4f6d" opacity="0.48000000000000004"/><circle cx="87" cy="148" r="5" fill="#ff4f6d" opacity="0.5700000000000001"/>
  <rect width="800" height="420" fill="#fffaf4"/><circle cx="500" cy="168" r="120" fill="#ff4f6d" opacity=".42"/><rect x="190" y="182" width="420" height="198" rx="22" fill="#f6bc42"/><rect x="190" y="132" width="420" height="70" rx="18" fill="#fffaf4"/><path d="M228 132l58 70M330 132l58 70M432 132l58 70M534 132l58 70" stroke="#fffaf4" stroke-width="20"/><rect x="244" y="254" width="312" height="18" rx="9" fill="#fffaf4" opacity=".16"/>
</svg>
