<svg xmlns="http://www.w3.org/2000/svg" viewBox="0 0 800 420" role="img" aria-label="Ilustracion propia de cine y rodaje para esta pregunta">
  <defs>
    <linearGradient id="bg" x1="0" x2="1" y1="0" y2="1">
      <stop stop-color="#15191d"/>
      <stop offset="1" stop-color="#fffaf4" stop-opacity="0.22"/>
    </linearGradient>
  </defs>
  <rect width="800" height="420" fill="url(#bg)"/>
  <circle cx="272" cy="313" r="114" fill="#fffaf4" opacity="0.13"/>
  <circle cx="343" cy="307" r="110" fill="#f6bc42" opacity="0.16"/>
  <circle cx="74" cy="192" r="5" fill="#ff4f6d" opacity="0.49"/><circle cx="381" cy="281" r="5" fill="#ff4f6d" opacity="0.48000000000000004"/><circle cx="688" cy="370" r="5" fill="#ff4f6d" opacity="0.47000000000000003"/><circle cx="279" cy="117" r="5" fill="#ff4f6d" opacity="0.46"/><circle cx="278" cy="177" r="5" fill="#ff4f6d" opacity="0.53"/><circle cx="585" cy="267" r="5" fill="#ff4f6d" opacity="0.52"/><circle cx="176" cy="356" r="5" fill="#ff4f6d" opacity="0.51"/><circle cx="483" cy="103" r="5" fill="#ff4f6d" opacity="0.5"/><circle cx="382" cy="221" r="2" fill="#ff4f6d" opacity="0.41000000000000003"/>
  <rect width="800" height="420" fill="#fffaf4"/><circle cx="580" cy="116" r="120" fill="#ff4f6d" opacity=".42"/><rect x="190" y="182" width="420" height="198" rx="22" fill="#f6bc42"/><rect x="190" y="116" width="420" height="70" rx="18" fill="#fffaf4"/><path d="M228 116l58 70M330 116l58 70M432 116l58 70M534 116l58 70" stroke="#fffaf4" stroke-width="20"/><rect x="244" y="254" width="312" height="18" rx="9" fill="#fffaf4" opacity=".16"/>
</svg>
