<svg xmlns="http://www.w3.org/2000/svg" viewBox="0 0 800 420" role="img" aria-label="Ilustracion propia de oceano y olas para esta pregunta">
  <defs>
    <linearGradient id="bg" x1="0" x2="1" y1="0" y2="1">
      <stop stop-color="#dff8ff"/>
      <stop offset="1" stop-color="#315be8" stop-opacity="0.22"/>
    </linearGradient>
  </defs>
  <rect width="800" height="420" fill="url(#bg)"/>
  <circle cx="364" cy="178" r="81" fill="#12b7a6" opacity="0.13"/>
  <circle cx="504" cy="291" r="126" fill="#315be8" opacity="0.16"/>
  <circle cx="88" cy="74" r="3" fill="#fffaf4" opacity="0.45000000000000007"/><circle cx="395" cy="163" r="3" fill="#fffaf4" opacity="0.44000000000000006"/><circle cx="190" cy="238" r="3" fill="#fffaf4" opacity="0.47000000000000003"/><circle cx="497" cy="327" r="3" fill="#fffaf4" opacity="0.46"/><circle cx="292" cy="59" r="3" fill="#fffaf4" opacity="0.49"/><circle cx="599" cy="149" r="3" fill="#fffaf4" opacity="0.48000000000000004"/><circle cx="394" cy="223" r="3" fill="#fffaf4" opacity="0.51"/><circle cx="701" cy="312" r="3" fill="#fffaf4" opacity="0.5"/><circle cx="496" cy="45" r="3" fill="#fffaf4" opacity="0.53"/>
  <path d="M0 240c88-42 144 42 232 0s144 42 232 0 144 42 232 0 144 42 232 0v180H0z" fill="#fff" opacity=".34"/><path d="M0 316c88-42 144 42 232 0s144 42 232 0 144 42 232 0 144 42 232 0" fill="none" stroke="#fff" stroke-width="18" opacity=".62"/><path d="M142 174c82-44 170-44 252 0" fill="none" stroke="#fff" stroke-width="10" opacity=".45" stroke-linecap="round"/>
</svg>
