<svg xmlns="http://www.w3.org/2000/svg" viewBox="0 0 800 420" role="img" aria-label="Ilustracion propia de cine y rodaje para esta pregunta">
  <defs>
    <linearGradient id="bg" x1="0" x2="1" y1="0" y2="1">
      <stop stop-color="#15191d"/>
      <stop offset="1" stop-color="#fffaf4" stop-opacity="0.22"/>
    </linearGradient>
  </defs>
  <rect width="800" height="420" fill="url(#bg)"/>
  <circle cx="171" cy="126" r="98" fill="#fffaf4" opacity="0.13"/>
  <circle cx="105" cy="213" r="118" fill="#f6bc42" opacity="0.16"/>
  <circle cx="700" cy="102" r="4" fill="#ff4f6d" opacity="0.37"/><circle cx="291" cy="191" r="4" fill="#ff4f6d" opacity="0.36000000000000004"/><circle cx="86" cy="265" r="4" fill="#ff4f6d" opacity="0.39"/><circle cx="393" cy="355" r="4" fill="#ff4f6d" opacity="0.38"/><circle cx="496" cy="116" r="4" fill="#ff4f6d" opacity="0.33"/><circle cx="87" cy="205" r="4" fill="#ff4f6d" opacity="0.32"/><circle cx="598" cy="280" r="4" fill="#ff4f6d" opacity="0.35000000000000003"/><circle cx="189" cy="369" r="4" fill="#ff4f6d" opacity="0.34"/><circle cx="392" cy="73" r="4" fill="#ff4f6d" opacity="0.45000000000000007"/>
  <rect width="800" height="420" fill="#fffaf4"/><circle cx="620" cy="90" r="120" fill="#ff4f6d" opacity=".42"/><rect x="190" y="182" width="420" height="198" rx="22" fill="#f6bc42"/><rect x="190" y="108" width="420" height="70" rx="18" fill="#fffaf4"/><path d="M228 108l58 70M330 108l58 70M432 108l58 70M534 108l58 70" stroke="#fffaf4" stroke-width="20"/><rect x="244" y="254" width="312" height="18" rx="9" fill="#fffaf4" opacity=".16"/>
</svg>
