<svg xmlns="http://www.w3.org/2000/svg" viewBox="0 0 800 420" role="img" aria-label="Ilustracion propia de cine y rodaje para esta pregunta">
  <defs>
    <linearGradient id="bg" x1="0" x2="1" y1="0" y2="1">
      <stop stop-color="#15191d"/>
      <stop offset="1" stop-color="#fffaf4" stop-opacity="0.22"/>
    </linearGradient>
  </defs>
  <rect width="800" height="420" fill="url(#bg)"/>
  <circle cx="434" cy="193" r="96" fill="#fffaf4" opacity="0.13"/>
  <circle cx="438" cy="328" r="78" fill="#f6bc42" opacity="0.16"/>
  <circle cx="684" cy="330" r="3" fill="#ff4f6d" opacity="0.54"/><circle cx="275" cy="77" r="3" fill="#ff4f6d" opacity="0.53"/><circle cx="70" cy="152" r="3" fill="#ff4f6d" opacity="0.56"/><circle cx="377" cy="241" r="3" fill="#ff4f6d" opacity="0.55"/><circle cx="172" cy="315" r="3" fill="#ff4f6d" opacity="0.5800000000000001"/><circle cx="479" cy="62" r="3" fill="#ff4f6d" opacity="0.5700000000000001"/><circle cx="274" cy="137" r="3" fill="#ff4f6d" opacity="0.6000000000000001"/><circle cx="581" cy="226" r="3" fill="#ff4f6d" opacity="0.5900000000000001"/><circle cx="276" cy="359" r="3" fill="#ff4f6d" opacity="0.46"/>
  <rect width="800" height="420" fill="#fffaf4"/><circle cx="500" cy="168" r="120" fill="#ff4f6d" opacity=".42"/><rect x="190" y="182" width="420" height="198" rx="22" fill="#f6bc42"/><rect x="190" y="132" width="420" height="70" rx="18" fill="#fffaf4"/><path d="M228 132l58 70M330 132l58 70M432 132l58 70M534 132l58 70" stroke="#fffaf4" stroke-width="20"/><rect x="244" y="254" width="312" height="18" rx="9" fill="#fffaf4" opacity=".16"/>
</svg>
