<svg xmlns="http://www.w3.org/2000/svg" viewBox="0 0 800 420" role="img" aria-label="Ilustracion propia de cine y rodaje para esta pregunta">
  <defs>
    <linearGradient id="bg" x1="0" x2="1" y1="0" y2="1">
      <stop stop-color="#15191d"/>
      <stop offset="1" stop-color="#ff4f6d" stop-opacity="0.22"/>
    </linearGradient>
  </defs>
  <rect width="800" height="420" fill="url(#bg)"/>
  <circle cx="642" cy="249" r="93" fill="#fffaf4" opacity="0.13"/>
  <circle cx="239" cy="85" r="87" fill="#f6bc42" opacity="0.16"/>
  <circle cx="241" cy="56" r="4" fill="#ff4f6d" opacity="0.33"/><circle cx="650" cy="309" r="4" fill="#ff4f6d" opacity="0.34"/><circle cx="139" cy="235" r="4" fill="#ff4f6d" opacity="0.31000000000000005"/><circle cx="548" cy="146" r="4" fill="#ff4f6d" opacity="0.32"/><circle cx="445" cy="42" r="4" fill="#ff4f6d" opacity="0.37"/><circle cx="138" cy="295" r="4" fill="#ff4f6d" opacity="0.38"/><circle cx="343" cy="220" r="4" fill="#ff4f6d" opacity="0.35000000000000003"/><circle cx="752" cy="131" r="4" fill="#ff4f6d" opacity="0.36000000000000004"/><circle cx="549" cy="86" r="4" fill="#ff4f6d" opacity="0.7"/>
  <rect width="800" height="420" fill="#fffaf4"/><circle cx="580" cy="116" r="120" fill="#ff4f6d" opacity=".42"/><rect x="190" y="182" width="420" height="198" rx="22" fill="#f6bc42"/><rect x="190" y="116" width="420" height="70" rx="18" fill="#fffaf4"/><path d="M228 116l58 70M330 116l58 70M432 116l58 70M534 116l58 70" stroke="#fffaf4" stroke-width="20"/><rect x="244" y="254" width="312" height="18" rx="9" fill="#fffaf4" opacity=".16"/>
</svg>
