<svg xmlns="http://www.w3.org/2000/svg" viewBox="0 0 800 420" role="img" aria-label="Ilustracion propia de cine y rodaje para esta pregunta">
  <defs>
    <linearGradient id="bg" x1="0" x2="1" y1="0" y2="1">
      <stop stop-color="#15191d"/>
      <stop offset="1" stop-color="#ff4f6d" stop-opacity="0.22"/>
    </linearGradient>
  </defs>
  <rect width="800" height="420" fill="url(#bg)"/>
  <circle cx="219" cy="315" r="97" fill="#fffaf4" opacity="0.13"/>
  <circle cx="261" cy="165" r="138" fill="#f6bc42" opacity="0.16"/>
  <circle cx="388" cy="358" r="5" fill="#ff4f6d" opacity="0.5"/><circle cx="695" cy="105" r="5" fill="#ff4f6d" opacity="0.49"/><circle cx="490" cy="179" r="5" fill="#ff4f6d" opacity="0.52"/><circle cx="81" cy="269" r="5" fill="#ff4f6d" opacity="0.51"/><circle cx="592" cy="343" r="5" fill="#ff4f6d" opacity="0.54"/><circle cx="183" cy="90" r="5" fill="#ff4f6d" opacity="0.53"/><circle cx="694" cy="165" r="5" fill="#ff4f6d" opacity="0.56"/><circle cx="285" cy="254" r="5" fill="#ff4f6d" opacity="0.55"/><circle cx="80" cy="329" r="5" fill="#ff4f6d" opacity="0.5800000000000001"/>
  <rect width="800" height="420" fill="#fffaf4"/><circle cx="500" cy="168" r="120" fill="#ff4f6d" opacity=".42"/><rect x="190" y="182" width="420" height="198" rx="22" fill="#f6bc42"/><rect x="190" y="132" width="420" height="70" rx="18" fill="#fffaf4"/><path d="M228 132l58 70M330 132l58 70M432 132l58 70M534 132l58 70" stroke="#fffaf4" stroke-width="20"/><rect x="244" y="254" width="312" height="18" rx="9" fill="#fffaf4" opacity=".16"/>
</svg>
