<svg xmlns="http://www.w3.org/2000/svg" viewBox="0 0 800 420" role="img" aria-label="Ilustracion propia de cine y rodaje para esta pregunta">
  <defs>
    <linearGradient id="bg" x1="0" x2="1" y1="0" y2="1">
      <stop stop-color="#15191d"/>
      <stop offset="1" stop-color="#ff4f6d" stop-opacity="0.22"/>
    </linearGradient>
  </defs>
  <rect width="800" height="420" fill="url(#bg)"/>
  <circle cx="154" cy="112" r="71" fill="#fffaf4" opacity="0.13"/>
  <circle cx="553" cy="318" r="114" fill="#f6bc42" opacity="0.16"/>
  <circle cx="672" cy="259" r="5" fill="#ff4f6d" opacity="0.66"/><circle cx="263" cy="348" r="5" fill="#ff4f6d" opacity="0.65"/><circle cx="58" cy="80" r="5" fill="#ff4f6d" opacity="0.68"/><circle cx="365" cy="169" r="5" fill="#ff4f6d" opacity="0.67"/><circle cx="468" cy="273" r="5" fill="#ff4f6d" opacity="0.6200000000000001"/><circle cx="59" cy="362" r="5" fill="#ff4f6d" opacity="0.6100000000000001"/><circle cx="570" cy="95" r="5" fill="#ff4f6d" opacity="0.64"/><circle cx="161" cy="184" r="5" fill="#ff4f6d" opacity="0.63"/><circle cx="264" cy="288" r="5" fill="#ff4f6d" opacity="0.5800000000000001"/>
  <rect width="800" height="420" fill="#fffaf4"/><circle cx="500" cy="168" r="120" fill="#ff4f6d" opacity=".42"/><rect x="190" y="182" width="420" height="198" rx="22" fill="#f6bc42"/><rect x="190" y="132" width="420" height="70" rx="18" fill="#fffaf4"/><path d="M228 132l58 70M330 132l58 70M432 132l58 70M534 132l58 70" stroke="#fffaf4" stroke-width="20"/><rect x="244" y="254" width="312" height="18" rx="9" fill="#fffaf4" opacity=".16"/>
</svg>
