<svg xmlns="http://www.w3.org/2000/svg" viewBox="0 0 800 420" role="img" aria-label="Ilustracion propia de cine y rodaje para esta pregunta">
  <defs>
    <linearGradient id="bg" x1="0" x2="1" y1="0" y2="1">
      <stop stop-color="#15191d"/>
      <stop offset="1" stop-color="#15191d" stop-opacity="0.22"/>
    </linearGradient>
  </defs>
  <rect width="800" height="420" fill="url(#bg)"/>
  <circle cx="535" cy="257" r="118" fill="#fffaf4" opacity="0.13"/>
  <circle cx="375" cy="122" r="140" fill="#f6bc42" opacity="0.16"/>
  <circle cx="434" cy="162" r="2" fill="#ff4f6d" opacity="0.45000000000000007"/><circle cx="741" cy="251" r="2" fill="#ff4f6d" opacity="0.44000000000000006"/><circle cx="332" cy="340" r="2" fill="#ff4f6d" opacity="0.43000000000000005"/><circle cx="639" cy="87" r="2" fill="#ff4f6d" opacity="0.42000000000000004"/><circle cx="638" cy="147" r="2" fill="#ff4f6d" opacity="0.49"/><circle cx="229" cy="236" r="2" fill="#ff4f6d" opacity="0.48000000000000004"/><circle cx="536" cy="326" r="2" fill="#ff4f6d" opacity="0.47000000000000003"/><circle cx="127" cy="73" r="2" fill="#ff4f6d" opacity="0.46"/><circle cx="742" cy="191" r="2" fill="#ff4f6d" opacity="0.37"/>
  <rect width="800" height="420" fill="#fffaf4"/><circle cx="460" cy="194" r="120" fill="#ff4f6d" opacity=".42"/><rect x="190" y="182" width="420" height="198" rx="22" fill="#f6bc42"/><rect x="190" y="140" width="420" height="70" rx="18" fill="#fffaf4"/><path d="M228 140l58 70M330 140l58 70M432 140l58 70M534 140l58 70" stroke="#fffaf4" stroke-width="20"/><rect x="244" y="254" width="312" height="18" rx="9" fill="#fffaf4" opacity=".16"/>
</svg>
