<svg xmlns="http://www.w3.org/2000/svg" viewBox="0 0 800 420" role="img" aria-label="Ilustracion propia de cine y rodaje para esta pregunta">
  <defs>
    <linearGradient id="bg" x1="0" x2="1" y1="0" y2="1">
      <stop stop-color="#15191d"/>
      <stop offset="1" stop-color="#15191d" stop-opacity="0.22"/>
    </linearGradient>
  </defs>
  <rect width="800" height="420" fill="url(#bg)"/>
  <circle cx="142" cy="327" r="126" fill="#fffaf4" opacity="0.13"/>
  <circle cx="476" cy="345" r="101" fill="#f6bc42" opacity="0.16"/>
  <circle cx="663" cy="74" r="5" fill="#ff4f6d" opacity="0.5"/><circle cx="356" cy="326" r="5" fill="#ff4f6d" opacity="0.51"/><circle cx="49" cy="237" r="5" fill="#ff4f6d" opacity="0.52"/><circle cx="458" cy="148" r="5" fill="#ff4f6d" opacity="0.53"/><circle cx="459" cy="88" r="5" fill="#ff4f6d" opacity="0.46"/><circle cx="152" cy="341" r="5" fill="#ff4f6d" opacity="0.47000000000000003"/><circle cx="561" cy="252" r="5" fill="#ff4f6d" opacity="0.48000000000000004"/><circle cx="254" cy="163" r="5" fill="#ff4f6d" opacity="0.49"/><circle cx="255" cy="103" r="5" fill="#ff4f6d" opacity="0.42000000000000004"/>
  <rect width="800" height="420" fill="#fffaf4"/><circle cx="580" cy="116" r="120" fill="#ff4f6d" opacity=".42"/><rect x="190" y="182" width="420" height="198" rx="22" fill="#f6bc42"/><rect x="190" y="116" width="420" height="70" rx="18" fill="#fffaf4"/><path d="M228 116l58 70M330 116l58 70M432 116l58 70M534 116l58 70" stroke="#fffaf4" stroke-width="20"/><rect x="244" y="254" width="312" height="18" rx="9" fill="#fffaf4" opacity=".16"/>
</svg>
