<svg xmlns="http://www.w3.org/2000/svg" viewBox="0 0 800 420" role="img" aria-label="Ilustracion propia de cine y rodaje para esta pregunta">
  <defs>
    <linearGradient id="bg" x1="0" x2="1" y1="0" y2="1">
      <stop stop-color="#15191d"/>
      <stop offset="1" stop-color="#ff4f6d" stop-opacity="0.22"/>
    </linearGradient>
  </defs>
  <rect width="800" height="420" fill="url(#bg)"/>
  <circle cx="580" cy="237" r="91" fill="#fffaf4" opacity="0.13"/>
  <circle cx="231" cy="119" r="87" fill="#f6bc42" opacity="0.16"/>
  <circle cx="380" cy="65" r="5" fill="#ff4f6d" opacity="0.28"/><circle cx="687" cy="154" r="5" fill="#ff4f6d" opacity="0.72"/><circle cx="482" cy="228" r="5" fill="#ff4f6d" opacity="0.30000000000000004"/><circle cx="73" cy="317" r="5" fill="#ff4f6d" opacity="0.29000000000000004"/><circle cx="176" cy="79" r="5" fill="#ff4f6d" opacity="0.69"/><circle cx="483" cy="168" r="5" fill="#ff4f6d" opacity="0.68"/><circle cx="278" cy="243" r="5" fill="#ff4f6d" opacity="0.71"/><circle cx="585" cy="332" r="5" fill="#ff4f6d" opacity="0.7"/><circle cx="72" cy="377" r="5" fill="#ff4f6d" opacity="0.36000000000000004"/>
  <rect width="800" height="420" fill="#fffaf4"/><circle cx="460" cy="194" r="120" fill="#ff4f6d" opacity=".42"/><rect x="190" y="182" width="420" height="198" rx="22" fill="#f6bc42"/><rect x="190" y="140" width="420" height="70" rx="18" fill="#fffaf4"/><path d="M228 140l58 70M330 140l58 70M432 140l58 70M534 140l58 70" stroke="#fffaf4" stroke-width="20"/><rect x="244" y="254" width="312" height="18" rx="9" fill="#fffaf4" opacity=".16"/>
</svg>
