<svg xmlns="http://www.w3.org/2000/svg" viewBox="0 0 800 420" role="img" aria-label="Ilustracion propia de cine y rodaje para esta pregunta">
  <defs>
    <linearGradient id="bg" x1="0" x2="1" y1="0" y2="1">
      <stop stop-color="#15191d"/>
      <stop offset="1" stop-color="#15191d" stop-opacity="0.22"/>
    </linearGradient>
  </defs>
  <rect width="800" height="420" fill="url(#bg)"/>
  <circle cx="125" cy="263" r="108" fill="#fffaf4" opacity="0.13"/>
  <circle cx="549" cy="158" r="119" fill="#f6bc42" opacity="0.16"/>
  <circle cx="64" cy="354" r="2" fill="#ff4f6d" opacity="0.71"/><circle cx="371" cy="102" r="2" fill="#ff4f6d" opacity="0.7"/><circle cx="166" cy="176" r="2" fill="#ff4f6d" opacity="0.28"/><circle cx="473" cy="265" r="2" fill="#ff4f6d" opacity="0.72"/><circle cx="576" cy="369" r="2" fill="#ff4f6d" opacity="0.67"/><circle cx="167" cy="116" r="2" fill="#ff4f6d" opacity="0.66"/><circle cx="678" cy="191" r="2" fill="#ff4f6d" opacity="0.69"/><circle cx="269" cy="280" r="2" fill="#ff4f6d" opacity="0.68"/><circle cx="372" cy="42" r="2" fill="#ff4f6d" opacity="0.63"/>
  <rect width="800" height="420" fill="#fffaf4"/><circle cx="460" cy="194" r="120" fill="#ff4f6d" opacity=".42"/><rect x="190" y="182" width="420" height="198" rx="22" fill="#f6bc42"/><rect x="190" y="140" width="420" height="70" rx="18" fill="#fffaf4"/><path d="M228 140l58 70M330 140l58 70M432 140l58 70M534 140l58 70" stroke="#fffaf4" stroke-width="20"/><rect x="244" y="254" width="312" height="18" rx="9" fill="#fffaf4" opacity=".16"/>
</svg>
