<svg xmlns="http://www.w3.org/2000/svg" viewBox="0 0 800 420" role="img" aria-label="Ilustracion propia de cine y rodaje para esta pregunta">
  <defs>
    <linearGradient id="bg" x1="0" x2="1" y1="0" y2="1">
      <stop stop-color="#15191d"/>
      <stop offset="1" stop-color="#f6bc42" stop-opacity="0.22"/>
    </linearGradient>
  </defs>
  <rect width="800" height="420" fill="url(#bg)"/>
  <circle cx="517" cy="128" r="113" fill="#fffaf4" opacity="0.13"/>
  <circle cx="298" cy="177" r="90" fill="#f6bc42" opacity="0.16"/>
  <circle cx="573" cy="272" r="5" fill="#ff4f6d" opacity="0.6100000000000001"/><circle cx="266" cy="182" r="5" fill="#ff4f6d" opacity="0.6200000000000001"/><circle cx="471" cy="108" r="5" fill="#ff4f6d" opacity="0.5900000000000001"/><circle cx="164" cy="361" r="5" fill="#ff4f6d" opacity="0.6000000000000001"/><circle cx="369" cy="286" r="5" fill="#ff4f6d" opacity="0.5700000000000001"/><circle cx="62" cy="197" r="5" fill="#ff4f6d" opacity="0.5800000000000001"/><circle cx="267" cy="122" r="5" fill="#ff4f6d" opacity="0.55"/><circle cx="676" cy="375" r="5" fill="#ff4f6d" opacity="0.56"/><circle cx="749" cy="370" r="4" fill="#ff4f6d" opacity="0.55"/>
  <rect width="800" height="420" fill="#fffaf4"/><circle cx="580" cy="116" r="120" fill="#ff4f6d" opacity=".42"/><rect x="190" y="182" width="420" height="198" rx="22" fill="#f6bc42"/><rect x="190" y="116" width="420" height="70" rx="18" fill="#fffaf4"/><path d="M228 116l58 70M330 116l58 70M432 116l58 70M534 116l58 70" stroke="#fffaf4" stroke-width="20"/><rect x="244" y="254" width="312" height="18" rx="9" fill="#fffaf4" opacity=".16"/>
</svg>
