<svg xmlns="http://www.w3.org/2000/svg" viewBox="0 0 800 420" role="img" aria-label="Ilustracion propia de cine y rodaje para esta pregunta">
  <defs>
    <linearGradient id="bg" x1="0" x2="1" y1="0" y2="1">
      <stop stop-color="#15191d"/>
      <stop offset="1" stop-color="#ff4f6d" stop-opacity="0.22"/>
    </linearGradient>
  </defs>
  <rect width="800" height="420" fill="url(#bg)"/>
  <circle cx="309" cy="311" r="139" fill="#fffaf4" opacity="0.13"/>
  <circle cx="647" cy="343" r="93" fill="#f6bc42" opacity="0.16"/>
  <circle cx="224" cy="342" r="4" fill="#ff4f6d" opacity="0.6000000000000001"/><circle cx="531" cy="89" r="4" fill="#ff4f6d" opacity="0.5900000000000001"/><circle cx="326" cy="163" r="4" fill="#ff4f6d" opacity="0.6200000000000001"/><circle cx="633" cy="252" r="4" fill="#ff4f6d" opacity="0.6100000000000001"/><circle cx="736" cy="356" r="4" fill="#ff4f6d" opacity="0.56"/><circle cx="327" cy="103" r="4" fill="#ff4f6d" opacity="0.55"/><circle cx="122" cy="178" r="4" fill="#ff4f6d" opacity="0.5800000000000001"/><circle cx="429" cy="267" r="4" fill="#ff4f6d" opacity="0.5700000000000001"/><circle cx="632" cy="312" r="4" fill="#ff4f6d" opacity="0.68"/>
  <rect width="800" height="420" fill="#fffaf4"/><circle cx="500" cy="168" r="120" fill="#ff4f6d" opacity=".42"/><rect x="190" y="182" width="420" height="198" rx="22" fill="#f6bc42"/><rect x="190" y="132" width="420" height="70" rx="18" fill="#fffaf4"/><path d="M228 132l58 70M330 132l58 70M432 132l58 70M534 132l58 70" stroke="#fffaf4" stroke-width="20"/><rect x="244" y="254" width="312" height="18" rx="9" fill="#fffaf4" opacity=".16"/>
</svg>
