<svg xmlns="http://www.w3.org/2000/svg" viewBox="0 0 800 420" role="img" aria-label="Ilustracion propia de cine y rodaje para esta pregunta">
  <defs>
    <linearGradient id="bg" x1="0" x2="1" y1="0" y2="1">
      <stop stop-color="#15191d"/>
      <stop offset="1" stop-color="#f6bc42" stop-opacity="0.22"/>
    </linearGradient>
  </defs>
  <rect width="800" height="420" fill="url(#bg)"/>
  <circle cx="599" cy="137" r="139" fill="#fffaf4" opacity="0.13"/>
  <circle cx="383" cy="71" r="93" fill="#f6bc42" opacity="0.16"/>
  <circle cx="297" cy="329" r="2" fill="#ff4f6d" opacity="0.33"/><circle cx="706" cy="240" r="2" fill="#ff4f6d" opacity="0.34"/><circle cx="195" cy="165" r="2" fill="#ff4f6d" opacity="0.31000000000000005"/><circle cx="604" cy="76" r="2" fill="#ff4f6d" opacity="0.32"/><circle cx="501" cy="314" r="2" fill="#ff4f6d" opacity="0.37"/><circle cx="194" cy="225" r="2" fill="#ff4f6d" opacity="0.38"/><circle cx="399" cy="150" r="2" fill="#ff4f6d" opacity="0.35000000000000003"/><circle cx="92" cy="61" r="2" fill="#ff4f6d" opacity="0.36000000000000004"/><circle cx="605" cy="358" r="3" fill="#ff4f6d" opacity="0.7"/>
  <rect width="800" height="420" fill="#fffaf4"/><circle cx="500" cy="168" r="120" fill="#ff4f6d" opacity=".42"/><rect x="190" y="182" width="420" height="198" rx="22" fill="#f6bc42"/><rect x="190" y="132" width="420" height="70" rx="18" fill="#fffaf4"/><path d="M228 132l58 70M330 132l58 70M432 132l58 70M534 132l58 70" stroke="#fffaf4" stroke-width="20"/><rect x="244" y="254" width="312" height="18" rx="9" fill="#fffaf4" opacity=".16"/>
</svg>
