<svg xmlns="http://www.w3.org/2000/svg" viewBox="0 0 800 420" role="img" aria-label="Ilustracion propia de cine y rodaje para esta pregunta">
  <defs>
    <linearGradient id="bg" x1="0" x2="1" y1="0" y2="1">
      <stop stop-color="#15191d"/>
      <stop offset="1" stop-color="#15191d" stop-opacity="0.22"/>
    </linearGradient>
  </defs>
  <rect width="800" height="420" fill="url(#bg)"/>
  <circle cx="144" cy="248" r="134" fill="#fffaf4" opacity="0.13"/>
  <circle cx="177" cy="264" r="72" fill="#f6bc42" opacity="0.16"/>
  <circle cx="731" cy="136" r="4" fill="#ff4f6d" opacity="0.43000000000000005"/><circle cx="424" cy="47" r="4" fill="#ff4f6d" opacity="0.44000000000000006"/><circle cx="117" cy="300" r="4" fill="#ff4f6d" opacity="0.45000000000000007"/><circle cx="526" cy="210" r="4" fill="#ff4f6d" opacity="0.46"/><circle cx="527" cy="150" r="4" fill="#ff4f6d" opacity="0.39"/><circle cx="220" cy="61" r="4" fill="#ff4f6d" opacity="0.4"/><circle cx="629" cy="314" r="4" fill="#ff4f6d" opacity="0.41000000000000003"/><circle cx="322" cy="225" r="4" fill="#ff4f6d" opacity="0.42000000000000004"/><circle cx="423" cy="107" r="4" fill="#ff4f6d" opacity="0.51"/>
  <rect width="800" height="420" fill="#fffaf4"/><circle cx="500" cy="168" r="120" fill="#ff4f6d" opacity=".42"/><rect x="190" y="182" width="420" height="198" rx="22" fill="#f6bc42"/><rect x="190" y="132" width="420" height="70" rx="18" fill="#fffaf4"/><path d="M228 132l58 70M330 132l58 70M432 132l58 70M534 132l58 70" stroke="#fffaf4" stroke-width="20"/><rect x="244" y="254" width="312" height="18" rx="9" fill="#fffaf4" opacity=".16"/>
</svg>
