<svg xmlns="http://www.w3.org/2000/svg" viewBox="0 0 800 420" role="img" aria-label="Ilustracion propia de cine y rodaje para esta pregunta">
  <defs>
    <linearGradient id="bg" x1="0" x2="1" y1="0" y2="1">
      <stop stop-color="#15191d"/>
      <stop offset="1" stop-color="#f6bc42" stop-opacity="0.22"/>
    </linearGradient>
  </defs>
  <rect width="800" height="420" fill="url(#bg)"/>
  <circle cx="112" cy="141" r="95" fill="#fffaf4" opacity="0.13"/>
  <circle cx="623" cy="179" r="67" fill="#f6bc42" opacity="0.16"/>
  <circle cx="238" cy="345" r="2" fill="#ff4f6d" opacity="0.65"/><circle cx="545" cy="92" r="3" fill="#ff4f6d" opacity="0.64"/><circle cx="136" cy="181" r="3" fill="#ff4f6d" opacity="0.63"/><circle cx="443" cy="271" r="3" fill="#ff4f6d" opacity="0.6200000000000001"/><circle cx="442" cy="331" r="2" fill="#ff4f6d" opacity="0.69"/><circle cx="749" cy="78" r="2" fill="#ff4f6d" opacity="0.68"/><circle cx="340" cy="167" r="2" fill="#ff4f6d" opacity="0.67"/><circle cx="647" cy="256" r="2" fill="#ff4f6d" opacity="0.66"/><circle cx="546" cy="374" r="3" fill="#ff4f6d" opacity="0.5700000000000001"/>
  <rect width="800" height="420" fill="#fffaf4"/><circle cx="580" cy="116" r="120" fill="#ff4f6d" opacity=".42"/><rect x="190" y="182" width="420" height="198" rx="22" fill="#f6bc42"/><rect x="190" y="116" width="420" height="70" rx="18" fill="#fffaf4"/><path d="M228 116l58 70M330 116l58 70M432 116l58 70M534 116l58 70" stroke="#fffaf4" stroke-width="20"/><rect x="244" y="254" width="312" height="18" rx="9" fill="#fffaf4" opacity=".16"/>
</svg>
