<svg xmlns="http://www.w3.org/2000/svg" viewBox="0 0 800 420" role="img" aria-label="Ilustracion propia de estadio y futbol generico para esta pregunta">
  <defs>
    <linearGradient id="bg" x1="0" x2="1" y1="0" y2="1">
      <stop stop-color="#eaf8f5"/>
      <stop offset="1" stop-color="#15191d" stop-opacity="0.22"/>
    </linearGradient>
  </defs>
  <rect width="800" height="420" fill="url(#bg)"/>
  <circle cx="365" cy="137" r="117" fill="#26b99f" opacity="0.13"/>
  <circle cx="279" cy="321" r="70" fill="#f6bc42" opacity="0.16"/>
  <circle cx="203" cy="66" r="5" fill="#15191d" opacity="0.63"/><circle cx="612" cy="319" r="5" fill="#15191d" opacity="0.64"/><circle cx="305" cy="230" r="5" fill="#15191d" opacity="0.65"/><circle cx="714" cy="141" r="5" fill="#15191d" opacity="0.66"/><circle cx="715" cy="81" r="5" fill="#15191d" opacity="0.5900000000000001"/><circle cx="408" cy="333" r="5" fill="#15191d" opacity="0.6000000000000001"/><circle cx="101" cy="244" r="5" fill="#15191d" opacity="0.6100000000000001"/><circle cx="510" cy="155" r="5" fill="#15191d" opacity="0.6200000000000001"/><circle cx="611" cy="37" r="5" fill="#15191d" opacity="0.71"/>
  <rect x="118" y="78" width="564" height="264" rx="26" fill="#f6bc42"/><path d="M400 78v264M118 210h564" stroke="#fff" stroke-width="7" opacity=".76"/><circle cx="400" cy="210" r="58" fill="none" stroke="#fff" stroke-width="7" opacity=".76"/><circle cx="372" cy="236" r="32" fill="#fff"/><path d="M340 236h64M372 204v64" stroke="#26b99f" stroke-width="5" opacity=".5"/>
</svg>
