<svg xmlns="http://www.w3.org/2000/svg" viewBox="0 0 800 420" role="img" aria-label="Ilustracion propia de estadio y futbol generico para esta pregunta">
  <defs>
    <linearGradient id="bg" x1="0" x2="1" y1="0" y2="1">
      <stop stop-color="#eaf8f5"/>
      <stop offset="1" stop-color="#eaf8f5" stop-opacity="0.22"/>
    </linearGradient>
  </defs>
  <rect width="800" height="420" fill="url(#bg)"/>
  <circle cx="593" cy="197" r="76" fill="#26b99f" opacity="0.13"/>
  <circle cx="533" cy="221" r="85" fill="#f6bc42" opacity="0.16"/>
  <circle cx="445" cy="208" r="2" fill="#15191d" opacity="0.51"/><circle cx="138" cy="118" r="2" fill="#15191d" opacity="0.52"/><circle cx="343" cy="44" r="2" fill="#15191d" opacity="0.49"/><circle cx="752" cy="297" r="2" fill="#15191d" opacity="0.5"/><circle cx="241" cy="222" r="3" fill="#15191d" opacity="0.47000000000000003"/><circle cx="650" cy="133" r="2" fill="#15191d" opacity="0.48000000000000004"/><circle cx="139" cy="58" r="3" fill="#15191d" opacity="0.45000000000000007"/><circle cx="548" cy="311" r="3" fill="#15191d" opacity="0.46"/><circle cx="753" cy="237" r="3" fill="#15191d" opacity="0.43000000000000005"/>
  <rect x="118" y="78" width="564" height="264" rx="26" fill="#f6bc42"/><path d="M400 78v264M118 210h564" stroke="#fff" stroke-width="7" opacity=".76"/><circle cx="400" cy="210" r="58" fill="none" stroke="#fff" stroke-width="7" opacity=".76"/><circle cx="296" cy="200" r="32" fill="#fff"/><path d="M264 200h64M296 168v64" stroke="#26b99f" stroke-width="5" opacity=".5"/>
</svg>
