<svg xmlns="http://www.w3.org/2000/svg" viewBox="0 0 800 420" role="img" aria-label="Ilustracion propia de historia y archivo para esta pregunta">
  <defs>
    <linearGradient id="bg" x1="0" x2="1" y1="0" y2="1">
      <stop stop-color="#fff4e4"/>
      <stop offset="1" stop-color="#d9cec1" stop-opacity="0.22"/>
    </linearGradient>
  </defs>
  <rect width="800" height="420" fill="url(#bg)"/>
  <circle cx="499" cy="137" r="75" fill="#15191d" opacity="0.13"/>
  <circle cx="671" cy="250" r="65" fill="#d9cec1" opacity="0.16"/>
  <circle cx="451" cy="58" r="2" fill="#f6bc42" opacity="0.39"/><circle cx="144" cy="311" r="2" fill="#f6bc42" opacity="0.4"/><circle cx="553" cy="222" r="2" fill="#f6bc42" opacity="0.41000000000000003"/><circle cx="246" cy="133" r="2" fill="#f6bc42" opacity="0.42000000000000004"/><circle cx="655" cy="44" r="2" fill="#f6bc42" opacity="0.43000000000000005"/><circle cx="348" cy="296" r="2" fill="#f6bc42" opacity="0.44000000000000006"/><circle cx="757" cy="207" r="2" fill="#f6bc42" opacity="0.45000000000000007"/><circle cx="450" cy="118" r="2" fill="#f6bc42" opacity="0.46"/><circle cx="143" cy="371" r="2" fill="#f6bc42" opacity="0.47000000000000003"/>
  <rect x="184" y="130" width="220" height="210" rx="18" fill="#fffaf4" stroke="#f6bc42" stroke-width="5"/><rect x="218" y="172" width="152" height="12" rx="6" fill="#15191d" opacity=".2"/><rect x="218" y="212" width="120" height="12" rx="6" fill="#15191d" opacity=".2"/><path d="M470 170h210L575 94z" fill="#15191d"/><rect x="500" y="190" width="32" height="120" rx="6" fill="#15191d"/><rect x="560" y="190" width="32" height="120" rx="6" fill="#15191d"/><rect x="620" y="190" width="32" height="120" rx="6" fill="#15191d"/>
</svg>
