<svg xmlns="http://www.w3.org/2000/svg" viewBox="0 0 800 420" role="img" aria-label="Ilustracion propia de historia y archivo para esta pregunta">
  <defs>
    <linearGradient id="bg" x1="0" x2="1" y1="0" y2="1">
      <stop stop-color="#fff4e4"/>
      <stop offset="1" stop-color="#d9cec1" stop-opacity="0.22"/>
    </linearGradient>
  </defs>
  <rect width="800" height="420" fill="url(#bg)"/>
  <circle cx="642" cy="140" r="129" fill="#15191d" opacity="0.13"/>
  <circle cx="689" cy="179" r="132" fill="#d9cec1" opacity="0.16"/>
  <circle cx="365" cy="192" r="3" fill="#f6bc42" opacity="0.37"/><circle cx="58" cy="103" r="3" fill="#f6bc42" opacity="0.38"/><circle cx="263" cy="370" r="3" fill="#f6bc42" opacity="0.35000000000000003"/><circle cx="672" cy="281" r="3" fill="#f6bc42" opacity="0.36000000000000004"/><circle cx="161" cy="207" r="3" fill="#f6bc42" opacity="0.33"/><circle cx="570" cy="118" r="3" fill="#f6bc42" opacity="0.34"/><circle cx="59" cy="43" r="4" fill="#f6bc42" opacity="0.31000000000000005"/><circle cx="468" cy="296" r="4" fill="#f6bc42" opacity="0.32"/><circle cx="57" cy="163" r="3" fill="#f6bc42" opacity="0.45000000000000007"/>
  <rect x="148" y="130" width="220" height="210" rx="18" fill="#fffaf4" stroke="#f6bc42" stroke-width="5"/><rect x="182" y="172" width="152" height="12" rx="6" fill="#15191d" opacity=".2"/><rect x="182" y="212" width="120" height="12" rx="6" fill="#15191d" opacity=".2"/><path d="M470 170h210L575 94z" fill="#15191d"/><rect x="500" y="190" width="32" height="120" rx="6" fill="#15191d"/><rect x="560" y="190" width="32" height="120" rx="6" fill="#15191d"/><rect x="620" y="190" width="32" height="120" rx="6" fill="#15191d"/>
</svg>
