<svg xmlns="http://www.w3.org/2000/svg" viewBox="0 0 800 420" role="img" aria-label="Ilustracion propia de historia y archivo para esta pregunta">
  <defs>
    <linearGradient id="bg" x1="0" x2="1" y1="0" y2="1">
      <stop stop-color="#fff4e4"/>
      <stop offset="1" stop-color="#fff4e4" stop-opacity="0.22"/>
    </linearGradient>
  </defs>
  <rect width="800" height="420" fill="url(#bg)"/>
  <circle cx="447" cy="131" r="94" fill="#15191d" opacity="0.13"/>
  <circle cx="439" cy="177" r="77" fill="#d9cec1" opacity="0.16"/>
  <circle cx="679" cy="84" r="5" fill="#f6bc42" opacity="0.4"/><circle cx="372" cy="337" r="5" fill="#f6bc42" opacity="0.41000000000000003"/><circle cx="65" cy="248" r="5" fill="#f6bc42" opacity="0.42000000000000004"/><circle cx="474" cy="159" r="5" fill="#f6bc42" opacity="0.43000000000000005"/><circle cx="167" cy="69" r="5" fill="#f6bc42" opacity="0.44000000000000006"/><circle cx="576" cy="322" r="5" fill="#f6bc42" opacity="0.45000000000000007"/><circle cx="269" cy="233" r="5" fill="#f6bc42" opacity="0.46"/><circle cx="678" cy="144" r="5" fill="#f6bc42" opacity="0.47000000000000003"/><circle cx="271" cy="113" r="5" fill="#f6bc42" opacity="0.32"/>
  <rect x="148" y="130" width="220" height="210" rx="18" fill="#fffaf4" stroke="#f6bc42" stroke-width="5"/><rect x="182" y="172" width="152" height="12" rx="6" fill="#15191d" opacity=".2"/><rect x="182" y="212" width="120" height="12" rx="6" fill="#15191d" opacity=".2"/><path d="M470 170h210L575 94z" fill="#15191d"/><rect x="500" y="190" width="32" height="120" rx="6" fill="#15191d"/><rect x="560" y="190" width="32" height="120" rx="6" fill="#15191d"/><rect x="620" y="190" width="32" height="120" rx="6" fill="#15191d"/>
</svg>
