<svg xmlns="http://www.w3.org/2000/svg" viewBox="0 0 800 420" role="img" aria-label="Ilustracion propia de tecnologia para esta pregunta">
  <defs>
    <linearGradient id="bg" x1="0" x2="1" y1="0" y2="1">
      <stop stop-color="#111820"/>
      <stop offset="1" stop-color="#fffaf4" stop-opacity="0.22"/>
    </linearGradient>
  </defs>
  <rect width="800" height="420" fill="url(#bg)"/>
  <circle cx="530" cy="148" r="70" fill="#fffaf4" opacity="0.13"/>
  <circle cx="450" cy="287" r="134" fill="#315be8" opacity="0.16"/>
  <circle cx="132" cy="193" r="4" fill="#12b7a6" opacity="0.6200000000000001"/><circle cx="439" cy="282" r="4" fill="#12b7a6" opacity="0.6100000000000001"/><circle cx="234" cy="357" r="4" fill="#12b7a6" opacity="0.64"/><circle cx="541" cy="104" r="4" fill="#12b7a6" opacity="0.63"/><circle cx="644" cy="208" r="4" fill="#12b7a6" opacity="0.5800000000000001"/><circle cx="235" cy="297" r="4" fill="#12b7a6" opacity="0.5700000000000001"/><circle cx="746" cy="371" r="4" fill="#12b7a6" opacity="0.6000000000000001"/><circle cx="337" cy="118" r="4" fill="#12b7a6" opacity="0.5900000000000001"/><circle cx="540" cy="164" r="4" fill="#12b7a6" opacity="0.7"/>
  <rect width="800" height="420" fill="#fffaf4"/><rect x="108" y="72" width="584" height="276" rx="28" fill="#315be8"/><rect x="108" y="72" width="584" height="58" rx="28" fill="#12b7a6"/><path d="M258 206l-62 44 62 44M542 206l62 44-62 44" stroke="#fffaf4" stroke-width="20" stroke-linecap="round" stroke-linejoin="round" fill="none"/><path d="M364 306l72-184" stroke="#12b7a6" stroke-width="18" stroke-linecap="round"/>
</svg>
