<svg xmlns="http://www.w3.org/2000/svg" viewBox="0 0 800 420" role="img" aria-label="Ilustracion propia de historia y archivo para esta pregunta">
  <defs>
    <linearGradient id="bg" x1="0" x2="1" y1="0" y2="1">
      <stop stop-color="#fff4e4"/>
      <stop offset="1" stop-color="#fff4e4" stop-opacity="0.22"/>
    </linearGradient>
  </defs>
  <rect width="800" height="420" fill="url(#bg)"/>
  <circle cx="424" cy="250" r="82" fill="#15191d" opacity="0.13"/>
  <circle cx="362" cy="121" r="106" fill="#d9cec1" opacity="0.16"/>
  <circle cx="352" cy="278" r="2" fill="#f6bc42" opacity="0.7"/><circle cx="659" cy="367" r="2" fill="#f6bc42" opacity="0.69"/><circle cx="454" cy="100" r="2" fill="#f6bc42" opacity="0.72"/><circle cx="45" cy="189" r="2" fill="#f6bc42" opacity="0.71"/><circle cx="148" cy="293" r="2" fill="#f6bc42" opacity="0.66"/><circle cx="455" cy="40" r="2" fill="#f6bc42" opacity="0.65"/><circle cx="250" cy="114" r="2" fill="#f6bc42" opacity="0.68"/><circle cx="557" cy="203" r="2" fill="#f6bc42" opacity="0.67"/><circle cx="44" cy="249" r="5" fill="#f6bc42" opacity="0.33"/>
  <rect x="184" y="130" width="220" height="210" rx="18" fill="#fffaf4" stroke="#f6bc42" stroke-width="5"/><rect x="218" y="172" width="152" height="12" rx="6" fill="#15191d" opacity=".2"/><rect x="218" y="212" width="120" height="12" rx="6" fill="#15191d" opacity=".2"/><path d="M470 170h210L575 94z" fill="#15191d"/><rect x="500" y="190" width="32" height="120" rx="6" fill="#15191d"/><rect x="560" y="190" width="32" height="120" rx="6" fill="#15191d"/><rect x="620" y="190" width="32" height="120" rx="6" fill="#15191d"/>
</svg>
