<svg xmlns="http://www.w3.org/2000/svg" viewBox="0 0 800 420" role="img" aria-label="Ilustracion propia de estadio y futbol generico para esta pregunta">
  <defs>
    <linearGradient id="bg" x1="0" x2="1" y1="0" y2="1">
      <stop stop-color="#eaf8f5"/>
      <stop offset="1" stop-color="#26b99f" stop-opacity="0.22"/>
    </linearGradient>
  </defs>
  <rect width="800" height="420" fill="url(#bg)"/>
  <circle cx="635" cy="205" r="96" fill="#26b99f" opacity="0.13"/>
  <circle cx="238" cy="258" r="78" fill="#f6bc42" opacity="0.16"/>
  <circle cx="82" cy="371" r="3" fill="#15191d" opacity="0.6200000000000001"/><circle cx="389" cy="118" r="3" fill="#15191d" opacity="0.6100000000000001"/><circle cx="696" cy="207" r="3" fill="#15191d" opacity="0.6000000000000001"/><circle cx="287" cy="297" r="3" fill="#15191d" opacity="0.5900000000000001"/><circle cx="286" cy="357" r="3" fill="#15191d" opacity="0.66"/><circle cx="593" cy="104" r="3" fill="#15191d" opacity="0.65"/><circle cx="184" cy="193" r="3" fill="#15191d" opacity="0.64"/><circle cx="491" cy="282" r="3" fill="#15191d" opacity="0.63"/><circle cx="490" cy="342" r="3" fill="#15191d" opacity="0.7"/>
  <rect x="118" y="78" width="564" height="264" rx="26" fill="#f6bc42"/><path d="M400 78v264M118 210h564" stroke="#fff" stroke-width="7" opacity=".76"/><circle cx="400" cy="210" r="58" fill="none" stroke="#fff" stroke-width="7" opacity=".76"/><circle cx="372" cy="236" r="32" fill="#fff"/><path d="M340 236h64M372 204v64" stroke="#26b99f" stroke-width="5" opacity=".5"/>
</svg>
