<svg xmlns="http://www.w3.org/2000/svg" viewBox="0 0 800 420" role="img" aria-label="Ilustracion propia de estadio y futbol generico para esta pregunta">
  <defs>
    <linearGradient id="bg" x1="0" x2="1" y1="0" y2="1">
      <stop stop-color="#eaf8f5"/>
      <stop offset="1" stop-color="#eaf8f5" stop-opacity="0.22"/>
    </linearGradient>
  </defs>
  <rect width="800" height="420" fill="url(#bg)"/>
  <circle cx="445" cy="205" r="94" fill="#26b99f" opacity="0.13"/>
  <circle cx="589" cy="115" r="67" fill="#f6bc42" opacity="0.16"/>
  <circle cx="686" cy="370" r="2" fill="#15191d" opacity="0.43000000000000005"/><circle cx="277" cy="117" r="2" fill="#15191d" opacity="0.42000000000000004"/><circle cx="584" cy="206" r="2" fill="#15191d" opacity="0.41000000000000003"/><circle cx="175" cy="296" r="2" fill="#15191d" opacity="0.4"/><circle cx="174" cy="356" r="2" fill="#15191d" opacity="0.47000000000000003"/><circle cx="481" cy="103" r="2" fill="#15191d" opacity="0.46"/><circle cx="72" cy="192" r="2" fill="#15191d" opacity="0.45000000000000007"/><circle cx="379" cy="281" r="2" fill="#15191d" opacity="0.44000000000000006"/><circle cx="278" cy="57" r="2" fill="#15191d" opacity="0.35000000000000003"/>
  <rect x="118" y="78" width="564" height="264" rx="26" fill="#f6bc42"/><path d="M400 78v264M118 210h564" stroke="#fff" stroke-width="7" opacity=".76"/><circle cx="400" cy="210" r="58" fill="none" stroke="#fff" stroke-width="7" opacity=".76"/><circle cx="372" cy="236" r="32" fill="#fff"/><path d="M340 236h64M372 204v64" stroke="#26b99f" stroke-width="5" opacity=".5"/>
</svg>
