<svg xmlns="http://www.w3.org/2000/svg" viewBox="0 0 800 420" role="img" aria-label="Ilustracion propia de arte y museo para esta pregunta">
  <defs>
    <linearGradient id="bg" x1="0" x2="1" y1="0" y2="1">
      <stop stop-color="#fff2df"/>
      <stop offset="1" stop-color="#fff2df" stop-opacity="0.22"/>
    </linearGradient>
  </defs>
  <rect width="800" height="420" fill="url(#bg)"/>
  <circle cx="142" cy="67" r="64" fill="#6f4a2d" opacity="0.13"/>
  <circle cx="551" cy="205" r="124" fill="#12b7a6" opacity="0.16"/>
  <circle cx="368" cy="66" r="2" fill="#ff4f6d" opacity="0.69"/><circle cx="675" cy="155" r="2" fill="#ff4f6d" opacity="0.68"/><circle cx="470" cy="230" r="2" fill="#ff4f6d" opacity="0.71"/><circle cx="61" cy="319" r="2" fill="#ff4f6d" opacity="0.7"/><circle cx="572" cy="52" r="2" fill="#ff4f6d" opacity="0.28"/><circle cx="163" cy="141" r="2" fill="#ff4f6d" opacity="0.72"/><circle cx="674" cy="215" r="2" fill="#ff4f6d" opacity="0.30000000000000004"/><circle cx="265" cy="305" r="2" fill="#ff4f6d" opacity="0.29000000000000004"/><circle cx="676" cy="95" r="2" fill="#ff4f6d" opacity="0.6100000000000001"/>
  <rect x="258" y="54" width="304" height="312" rx="24" fill="#6f4a2d"/><rect x="288" y="84" width="244" height="252" rx="16" fill="#d9c092"/><circle cx="410" cy="178" r="54" fill="#f0c7a5"/><path d="M340 318c12-82 42-120 70-120s58 38 70 120z" fill="#ff4f6d"/><path d="M354 154c36-72 116-46 122 10-36-18-74-18-122-10z" fill="#4a2d22"/>
</svg>
