<svg xmlns="http://www.w3.org/2000/svg" viewBox="0 0 800 420" role="img" aria-label="Ilustracion propia de historia y archivo para esta pregunta">
  <defs>
    <linearGradient id="bg" x1="0" x2="1" y1="0" y2="1">
      <stop stop-color="#fff4e4"/>
      <stop offset="1" stop-color="#15191d" stop-opacity="0.22"/>
    </linearGradient>
  </defs>
  <rect width="800" height="420" fill="url(#bg)"/>
  <circle cx="353" cy="113" r="84" fill="#15191d" opacity="0.13"/>
  <circle cx="653" cy="68" r="126" fill="#d9cec1" opacity="0.16"/>
  <circle cx="629" cy="187" r="3" fill="#f6bc42" opacity="0.36000000000000004"/><circle cx="322" cy="97" r="3" fill="#f6bc42" opacity="0.37"/><circle cx="527" cy="365" r="3" fill="#f6bc42" opacity="0.34"/><circle cx="220" cy="276" r="3" fill="#f6bc42" opacity="0.35000000000000003"/><circle cx="425" cy="201" r="3" fill="#f6bc42" opacity="0.32"/><circle cx="118" cy="112" r="3" fill="#f6bc42" opacity="0.33"/><circle cx="323" cy="37" r="3" fill="#f6bc42" opacity="0.30000000000000004"/><circle cx="732" cy="290" r="3" fill="#f6bc42" opacity="0.31000000000000005"/><circle cx="221" cy="216" r="3" fill="#f6bc42" opacity="0.28"/>
  <rect x="166" y="130" width="220" height="210" rx="18" fill="#fffaf4" stroke="#f6bc42" stroke-width="5"/><rect x="200" y="172" width="152" height="12" rx="6" fill="#15191d" opacity=".2"/><rect x="200" y="212" width="120" height="12" rx="6" fill="#15191d" opacity=".2"/><path d="M470 170h210L575 94z" fill="#15191d"/><rect x="500" y="190" width="32" height="120" rx="6" fill="#15191d"/><rect x="560" y="190" width="32" height="120" rx="6" fill="#15191d"/><rect x="620" y="190" width="32" height="120" rx="6" fill="#15191d"/>
</svg>
