<svg xmlns="http://www.w3.org/2000/svg" viewBox="0 0 800 420" role="img" aria-label="Ilustracion propia de tecnologia para esta pregunta">
  <defs>
    <linearGradient id="bg" x1="0" x2="1" y1="0" y2="1">
      <stop stop-color="#111820"/>
      <stop offset="1" stop-color="#12b7a6" stop-opacity="0.22"/>
    </linearGradient>
  </defs>
  <rect width="800" height="420" fill="url(#bg)"/>
  <circle cx="498" cy="66" r="69" fill="#fffaf4" opacity="0.13"/>
  <circle cx="371" cy="98" r="114" fill="#315be8" opacity="0.16"/>
  <circle cx="158" cy="284" r="2" fill="#12b7a6" opacity="0.6000000000000001"/><circle cx="465" cy="373" r="2" fill="#12b7a6" opacity="0.5900000000000001"/><circle cx="56" cy="120" r="2" fill="#12b7a6" opacity="0.5800000000000001"/><circle cx="363" cy="209" r="2" fill="#12b7a6" opacity="0.5700000000000001"/><circle cx="670" cy="298" r="2" fill="#12b7a6" opacity="0.56"/><circle cx="261" cy="46" r="2" fill="#12b7a6" opacity="0.55"/><circle cx="568" cy="135" r="2" fill="#12b7a6" opacity="0.54"/><circle cx="159" cy="224" r="2" fill="#12b7a6" opacity="0.53"/><circle cx="566" cy="255" r="2" fill="#12b7a6" opacity="0.68"/>
  <rect width="800" height="420" fill="#fffaf4"/><rect x="108" y="72" width="584" height="276" rx="28" fill="#315be8"/><rect x="108" y="72" width="584" height="58" rx="28" fill="#12b7a6"/><path d="M234 206l-62 44 62 44M566 206l62 44-62 44" stroke="#fffaf4" stroke-width="20" stroke-linecap="round" stroke-linejoin="round" fill="none"/><path d="M364 306l72-184" stroke="#12b7a6" stroke-width="18" stroke-linecap="round"/>
</svg>
