<svg xmlns="http://www.w3.org/2000/svg" viewBox="0 0 800 420" role="img" aria-label="Ilustracion propia de estadio y futbol generico para esta pregunta">
  <defs>
    <linearGradient id="bg" x1="0" x2="1" y1="0" y2="1">
      <stop stop-color="#eaf8f5"/>
      <stop offset="1" stop-color="#15191d" stop-opacity="0.22"/>
    </linearGradient>
  </defs>
  <rect width="800" height="420" fill="url(#bg)"/>
  <circle cx="202" cy="65" r="73" fill="#26b99f" opacity="0.13"/>
  <circle cx="484" cy="62" r="125" fill="#f6bc42" opacity="0.16"/>
  <circle cx="346" cy="273" r="3" fill="#15191d" opacity="0.52"/><circle cx="653" cy="362" r="3" fill="#15191d" opacity="0.51"/><circle cx="244" cy="109" r="3" fill="#15191d" opacity="0.5"/><circle cx="551" cy="199" r="3" fill="#15191d" opacity="0.49"/><circle cx="142" cy="288" r="3" fill="#15191d" opacity="0.48000000000000004"/><circle cx="449" cy="377" r="3" fill="#15191d" opacity="0.47000000000000003"/><circle cx="756" cy="124" r="4" fill="#15191d" opacity="0.46"/><circle cx="347" cy="213" r="4" fill="#15191d" opacity="0.45000000000000007"/><circle cx="754" cy="244" r="3" fill="#15191d" opacity="0.6000000000000001"/>
  <rect x="118" y="78" width="564" height="264" rx="26" fill="#f6bc42"/><path d="M400 78v264M118 210h564" stroke="#fff" stroke-width="7" opacity=".76"/><circle cx="400" cy="210" r="58" fill="none" stroke="#fff" stroke-width="7" opacity=".76"/><circle cx="258" cy="182" r="32" fill="#fff"/><path d="M226 182h64M258 150v64" stroke="#26b99f" stroke-width="5" opacity=".5"/>
</svg>
