<svg xmlns="http://www.w3.org/2000/svg" viewBox="0 0 800 420" role="img" aria-label="Ilustracion propia de historia y archivo para esta pregunta">
  <defs>
    <linearGradient id="bg" x1="0" x2="1" y1="0" y2="1">
      <stop stop-color="#fff4e4"/>
      <stop offset="1" stop-color="#f6bc42" stop-opacity="0.22"/>
    </linearGradient>
  </defs>
  <rect width="800" height="420" fill="url(#bg)"/>
  <circle cx="499" cy="81" r="139" fill="#15191d" opacity="0.13"/>
  <circle cx="671" cy="278" r="103" fill="#d9cec1" opacity="0.16"/>
  <circle cx="229" cy="48" r="2" fill="#f6bc42" opacity="0.39"/><circle cx="638" cy="301" r="2" fill="#f6bc42" opacity="0.4"/><circle cx="127" cy="227" r="2" fill="#f6bc42" opacity="0.37"/><circle cx="536" cy="137" r="2" fill="#f6bc42" opacity="0.38"/><circle cx="433" cy="376" r="2" fill="#f6bc42" opacity="0.43000000000000005"/><circle cx="126" cy="287" r="2" fill="#f6bc42" opacity="0.44000000000000006"/><circle cx="331" cy="212" r="2" fill="#f6bc42" opacity="0.41000000000000003"/><circle cx="740" cy="123" r="2" fill="#f6bc42" opacity="0.42000000000000004"/><circle cx="537" cy="77" r="3" fill="#f6bc42" opacity="0.31000000000000005"/>
  <rect x="184" y="130" width="220" height="210" rx="18" fill="#fffaf4" stroke="#f6bc42" stroke-width="5"/><rect x="218" y="172" width="152" height="12" rx="6" fill="#15191d" opacity=".2"/><rect x="218" y="212" width="120" height="12" rx="6" fill="#15191d" opacity=".2"/><path d="M470 170h210L575 94z" fill="#15191d"/><rect x="500" y="190" width="32" height="120" rx="6" fill="#15191d"/><rect x="560" y="190" width="32" height="120" rx="6" fill="#15191d"/><rect x="620" y="190" width="32" height="120" rx="6" fill="#15191d"/>
</svg>
