<svg xmlns="http://www.w3.org/2000/svg" viewBox="0 0 800 420" role="img" aria-label="Ilustracion propia de historia y archivo para esta pregunta">
  <defs>
    <linearGradient id="bg" x1="0" x2="1" y1="0" y2="1">
      <stop stop-color="#fff4e4"/>
      <stop offset="1" stop-color="#f6bc42" stop-opacity="0.22"/>
    </linearGradient>
  </defs>
  <rect width="800" height="420" fill="url(#bg)"/>
  <circle cx="418" cy="239" r="133" fill="#15191d" opacity="0.13"/>
  <circle cx="286" cy="334" r="132" fill="#d9cec1" opacity="0.16"/>
  <circle cx="481" cy="226" r="3" fill="#f6bc42" opacity="0.63"/><circle cx="174" cy="136" r="3" fill="#f6bc42" opacity="0.64"/><circle cx="379" cy="62" r="3" fill="#f6bc42" opacity="0.6100000000000001"/><circle cx="72" cy="315" r="3" fill="#f6bc42" opacity="0.6200000000000001"/><circle cx="685" cy="211" r="3" fill="#f6bc42" opacity="0.67"/><circle cx="378" cy="122" r="3" fill="#f6bc42" opacity="0.68"/><circle cx="583" cy="47" r="3" fill="#f6bc42" opacity="0.65"/><circle cx="276" cy="300" r="3" fill="#f6bc42" opacity="0.66"/><circle cx="73" cy="255" r="3" fill="#f6bc42" opacity="0.55"/>
  <rect x="166" y="130" width="220" height="210" rx="18" fill="#fffaf4" stroke="#f6bc42" stroke-width="5"/><rect x="200" y="172" width="152" height="12" rx="6" fill="#15191d" opacity=".2"/><rect x="200" y="212" width="120" height="12" rx="6" fill="#15191d" opacity=".2"/><path d="M470 170h210L575 94z" fill="#15191d"/><rect x="500" y="190" width="32" height="120" rx="6" fill="#15191d"/><rect x="560" y="190" width="32" height="120" rx="6" fill="#15191d"/><rect x="620" y="190" width="32" height="120" rx="6" fill="#15191d"/>
</svg>
