<svg xmlns="http://www.w3.org/2000/svg" viewBox="0 0 800 420" role="img" aria-label="Ilustracion propia de cine y rodaje para esta pregunta">
  <defs>
    <linearGradient id="bg" x1="0" x2="1" y1="0" y2="1">
      <stop stop-color="#15191d"/>
      <stop offset="1" stop-color="#ff4f6d" stop-opacity="0.22"/>
    </linearGradient>
  </defs>
  <rect width="800" height="420" fill="url(#bg)"/>
  <circle cx="622" cy="184" r="113" fill="#fffaf4" opacity="0.13"/>
  <circle cx="161" cy="327" r="80" fill="#f6bc42" opacity="0.16"/>
  <circle cx="164" cy="171" r="4" fill="#ff4f6d" opacity="0.64"/><circle cx="471" cy="260" r="4" fill="#ff4f6d" opacity="0.63"/><circle cx="266" cy="335" r="4" fill="#ff4f6d" opacity="0.66"/><circle cx="573" cy="82" r="4" fill="#ff4f6d" opacity="0.65"/><circle cx="368" cy="157" r="4" fill="#ff4f6d" opacity="0.68"/><circle cx="675" cy="246" r="4" fill="#ff4f6d" opacity="0.67"/><circle cx="470" cy="320" r="4" fill="#ff4f6d" opacity="0.7"/><circle cx="61" cy="67" r="4" fill="#ff4f6d" opacity="0.69"/><circle cx="572" cy="142" r="4" fill="#ff4f6d" opacity="0.72"/>
  <rect width="800" height="420" fill="#fffaf4"/><circle cx="580" cy="116" r="120" fill="#ff4f6d" opacity=".42"/><rect x="190" y="182" width="420" height="198" rx="22" fill="#f6bc42"/><rect x="190" y="116" width="420" height="70" rx="18" fill="#fffaf4"/><path d="M228 116l58 70M330 116l58 70M432 116l58 70M534 116l58 70" stroke="#fffaf4" stroke-width="20"/><rect x="244" y="254" width="312" height="18" rx="9" fill="#fffaf4" opacity=".16"/>
</svg>
