<svg xmlns="http://www.w3.org/2000/svg" viewBox="0 0 800 420" role="img" aria-label="Ilustracion propia de cine y rodaje para esta pregunta">
  <defs>
    <linearGradient id="bg" x1="0" x2="1" y1="0" y2="1">
      <stop stop-color="#15191d"/>
      <stop offset="1" stop-color="#fffaf4" stop-opacity="0.22"/>
    </linearGradient>
  </defs>
  <rect width="800" height="420" fill="url(#bg)"/>
  <circle cx="129" cy="210" r="84" fill="#fffaf4" opacity="0.13"/>
  <circle cx="400" cy="152" r="96" fill="#f6bc42" opacity="0.16"/>
  <circle cx="741" cy="164" r="3" fill="#ff4f6d" opacity="0.43000000000000005"/><circle cx="434" cy="75" r="3" fill="#ff4f6d" opacity="0.44000000000000006"/><circle cx="639" cy="342" r="3" fill="#ff4f6d" opacity="0.41000000000000003"/><circle cx="332" cy="253" r="3" fill="#ff4f6d" opacity="0.42000000000000004"/><circle cx="537" cy="179" r="3" fill="#ff4f6d" opacity="0.39"/><circle cx="230" cy="90" r="3" fill="#ff4f6d" opacity="0.4"/><circle cx="435" cy="357" r="3" fill="#ff4f6d" opacity="0.37"/><circle cx="128" cy="268" r="3" fill="#ff4f6d" opacity="0.38"/><circle cx="333" cy="193" r="3" fill="#ff4f6d" opacity="0.35000000000000003"/>
  <rect width="800" height="420" fill="#fffaf4"/><circle cx="500" cy="168" r="120" fill="#ff4f6d" opacity=".42"/><rect x="190" y="182" width="420" height="198" rx="22" fill="#f6bc42"/><rect x="190" y="132" width="420" height="70" rx="18" fill="#fffaf4"/><path d="M228 132l58 70M330 132l58 70M432 132l58 70M534 132l58 70" stroke="#fffaf4" stroke-width="20"/><rect x="244" y="254" width="312" height="18" rx="9" fill="#fffaf4" opacity=".16"/>
</svg>
