<svg xmlns="http://www.w3.org/2000/svg" viewBox="0 0 800 420" role="img" aria-label="Ilustracion propia de cine y rodaje para esta pregunta">
  <defs>
    <linearGradient id="bg" x1="0" x2="1" y1="0" y2="1">
      <stop stop-color="#15191d"/>
      <stop offset="1" stop-color="#fffaf4" stop-opacity="0.22"/>
    </linearGradient>
  </defs>
  <rect width="800" height="420" fill="url(#bg)"/>
  <circle cx="408" cy="209" r="134" fill="#fffaf4" opacity="0.13"/>
  <circle cx="285" cy="116" r="102" fill="#f6bc42" opacity="0.16"/>
  <circle cx="389" cy="62" r="5" fill="#ff4f6d" opacity="0.43000000000000005"/><circle cx="82" cy="315" r="5" fill="#ff4f6d" opacity="0.44000000000000006"/><circle cx="287" cy="241" r="5" fill="#ff4f6d" opacity="0.41000000000000003"/><circle cx="696" cy="151" r="5" fill="#ff4f6d" opacity="0.42000000000000004"/><circle cx="185" cy="77" r="5" fill="#ff4f6d" opacity="0.39"/><circle cx="594" cy="330" r="5" fill="#ff4f6d" opacity="0.4"/><circle cx="83" cy="255" r="5" fill="#ff4f6d" opacity="0.37"/><circle cx="492" cy="166" r="5" fill="#ff4f6d" opacity="0.38"/><circle cx="81" cy="375" r="5" fill="#ff4f6d" opacity="0.51"/>
  <rect width="800" height="420" fill="#fffaf4"/><circle cx="540" cy="142" r="120" fill="#ff4f6d" opacity=".42"/><rect x="190" y="182" width="420" height="198" rx="22" fill="#f6bc42"/><rect x="190" y="124" width="420" height="70" rx="18" fill="#fffaf4"/><path d="M228 124l58 70M330 124l58 70M432 124l58 70M534 124l58 70" stroke="#fffaf4" stroke-width="20"/><rect x="244" y="254" width="312" height="18" rx="9" fill="#fffaf4" opacity=".16"/>
</svg>
