<svg xmlns="http://www.w3.org/2000/svg" viewBox="0 0 800 420" role="img" aria-label="Ilustracion propia de cine y rodaje para esta pregunta">
  <defs>
    <linearGradient id="bg" x1="0" x2="1" y1="0" y2="1">
      <stop stop-color="#15191d"/>
      <stop offset="1" stop-color="#15191d" stop-opacity="0.22"/>
    </linearGradient>
  </defs>
  <rect width="800" height="420" fill="url(#bg)"/>
  <circle cx="132" cy="279" r="118" fill="#fffaf4" opacity="0.13"/>
  <circle cx="175" cy="232" r="100" fill="#f6bc42" opacity="0.16"/>
  <circle cx="136" cy="322" r="5" fill="#ff4f6d" opacity="0.72"/><circle cx="443" cy="69" r="5" fill="#ff4f6d" opacity="0.71"/><circle cx="238" cy="143" r="5" fill="#ff4f6d" opacity="0.29000000000000004"/><circle cx="545" cy="233" r="5" fill="#ff4f6d" opacity="0.28"/><circle cx="648" cy="336" r="5" fill="#ff4f6d" opacity="0.68"/><circle cx="239" cy="83" r="5" fill="#ff4f6d" opacity="0.67"/><circle cx="750" cy="158" r="5" fill="#ff4f6d" opacity="0.7"/><circle cx="341" cy="247" r="5" fill="#ff4f6d" opacity="0.69"/><circle cx="544" cy="293" r="5" fill="#ff4f6d" opacity="0.35000000000000003"/>
  <rect width="800" height="420" fill="#fffaf4"/><circle cx="580" cy="116" r="120" fill="#ff4f6d" opacity=".42"/><rect x="190" y="182" width="420" height="198" rx="22" fill="#f6bc42"/><rect x="190" y="116" width="420" height="70" rx="18" fill="#fffaf4"/><path d="M228 116l58 70M330 116l58 70M432 116l58 70M534 116l58 70" stroke="#fffaf4" stroke-width="20"/><rect x="244" y="254" width="312" height="18" rx="9" fill="#fffaf4" opacity=".16"/>
</svg>
