<svg xmlns="http://www.w3.org/2000/svg" viewBox="0 0 800 420" role="img" aria-label="Ilustracion propia de cine y rodaje para esta pregunta">
  <defs>
    <linearGradient id="bg" x1="0" x2="1" y1="0" y2="1">
      <stop stop-color="#15191d"/>
      <stop offset="1" stop-color="#15191d" stop-opacity="0.22"/>
    </linearGradient>
  </defs>
  <rect width="800" height="420" fill="url(#bg)"/>
  <circle cx="381" cy="187" r="66" fill="#fffaf4" opacity="0.13"/>
  <circle cx="206" cy="77" r="94" fill="#f6bc42" opacity="0.16"/>
  <circle cx="262" cy="77" r="5" fill="#ff4f6d" opacity="0.28"/><circle cx="569" cy="167" r="5" fill="#ff4f6d" opacity="0.72"/><circle cx="160" cy="256" r="5" fill="#ff4f6d" opacity="0.71"/><circle cx="467" cy="345" r="5" fill="#ff4f6d" opacity="0.7"/><circle cx="234" cy="191" r="5" fill="#ff4f6d" opacity="0.63"/><circle cx="541" cy="280" r="5" fill="#ff4f6d" opacity="0.6200000000000001"/><circle cx="132" cy="369" r="5" fill="#ff4f6d" opacity="0.6100000000000001"/><circle cx="439" cy="116" r="5" fill="#ff4f6d" opacity="0.6000000000000001"/><circle cx="438" cy="176" r="5" fill="#ff4f6d" opacity="0.67"/>
  <rect width="800" height="420" fill="#fffaf4"/><circle cx="620" cy="90" r="120" fill="#ff4f6d" opacity=".42"/><rect x="190" y="182" width="420" height="198" rx="22" fill="#f6bc42"/><rect x="190" y="108" width="420" height="70" rx="18" fill="#fffaf4"/><path d="M228 108l58 70M330 108l58 70M432 108l58 70M534 108l58 70" stroke="#fffaf4" stroke-width="20"/><rect x="244" y="254" width="312" height="18" rx="9" fill="#fffaf4" opacity=".16"/>
</svg>
