<svg xmlns="http://www.w3.org/2000/svg" viewBox="0 0 800 420" role="img" aria-label="Ilustracion propia de cine y rodaje para esta pregunta">
  <defs>
    <linearGradient id="bg" x1="0" x2="1" y1="0" y2="1">
      <stop stop-color="#15191d"/>
      <stop offset="1" stop-color="#fffaf4" stop-opacity="0.22"/>
    </linearGradient>
  </defs>
  <rect width="800" height="420" fill="url(#bg)"/>
  <circle cx="290" cy="62" r="116" fill="#fffaf4" opacity="0.13"/>
  <circle cx="195" cy="97" r="120" fill="#f6bc42" opacity="0.16"/>
  <circle cx="67" cy="340" r="4" fill="#ff4f6d" opacity="0.65"/><circle cx="476" cy="251" r="4" fill="#ff4f6d" opacity="0.66"/><circle cx="169" cy="162" r="4" fill="#ff4f6d" opacity="0.67"/><circle cx="578" cy="72" r="4" fill="#ff4f6d" opacity="0.68"/><circle cx="579" cy="354" r="4" fill="#ff4f6d" opacity="0.6100000000000001"/><circle cx="272" cy="265" r="4" fill="#ff4f6d" opacity="0.6200000000000001"/><circle cx="681" cy="176" r="4" fill="#ff4f6d" opacity="0.63"/><circle cx="374" cy="87" r="4" fill="#ff4f6d" opacity="0.64"/><circle cx="375" cy="369" r="4" fill="#ff4f6d" opacity="0.5700000000000001"/>
  <rect width="800" height="420" fill="#fffaf4"/><circle cx="460" cy="194" r="120" fill="#ff4f6d" opacity=".42"/><rect x="190" y="182" width="420" height="198" rx="22" fill="#f6bc42"/><rect x="190" y="140" width="420" height="70" rx="18" fill="#fffaf4"/><path d="M228 140l58 70M330 140l58 70M432 140l58 70M534 140l58 70" stroke="#fffaf4" stroke-width="20"/><rect x="244" y="254" width="312" height="18" rx="9" fill="#fffaf4" opacity=".16"/>
</svg>
