<svg xmlns="http://www.w3.org/2000/svg" viewBox="0 0 800 420" role="img" aria-label="Ilustracion propia de cine y rodaje para esta pregunta">
  <defs>
    <linearGradient id="bg" x1="0" x2="1" y1="0" y2="1">
      <stop stop-color="#15191d"/>
      <stop offset="1" stop-color="#fffaf4" stop-opacity="0.22"/>
    </linearGradient>
  </defs>
  <rect width="800" height="420" fill="url(#bg)"/>
  <circle cx="215" cy="191" r="118" fill="#fffaf4" opacity="0.13"/>
  <circle cx="335" cy="292" r="100" fill="#f6bc42" opacity="0.16"/>
  <circle cx="422" cy="132" r="4" fill="#ff4f6d" opacity="0.6200000000000001"/><circle cx="729" cy="221" r="4" fill="#ff4f6d" opacity="0.6100000000000001"/><circle cx="320" cy="310" r="4" fill="#ff4f6d" opacity="0.6000000000000001"/><circle cx="627" cy="58" r="4" fill="#ff4f6d" opacity="0.5900000000000001"/><circle cx="626" cy="118" r="4" fill="#ff4f6d" opacity="0.66"/><circle cx="217" cy="207" r="4" fill="#ff4f6d" opacity="0.65"/><circle cx="524" cy="296" r="4" fill="#ff4f6d" opacity="0.64"/><circle cx="115" cy="43" r="4" fill="#ff4f6d" opacity="0.63"/><circle cx="730" cy="161" r="4" fill="#ff4f6d" opacity="0.54"/>
  <rect width="800" height="420" fill="#fffaf4"/><circle cx="460" cy="194" r="120" fill="#ff4f6d" opacity=".42"/><rect x="190" y="182" width="420" height="198" rx="22" fill="#f6bc42"/><rect x="190" y="140" width="420" height="70" rx="18" fill="#fffaf4"/><path d="M228 140l58 70M330 140l58 70M432 140l58 70M534 140l58 70" stroke="#fffaf4" stroke-width="20"/><rect x="244" y="254" width="312" height="18" rx="9" fill="#fffaf4" opacity=".16"/>
</svg>
