<svg xmlns="http://www.w3.org/2000/svg" viewBox="0 0 800 420" role="img" aria-label="Ilustracion propia de cine y rodaje para esta pregunta">
  <defs>
    <linearGradient id="bg" x1="0" x2="1" y1="0" y2="1">
      <stop stop-color="#15191d"/>
      <stop offset="1" stop-color="#f6bc42" stop-opacity="0.22"/>
    </linearGradient>
  </defs>
  <rect width="800" height="420" fill="url(#bg)"/>
  <circle cx="256" cy="263" r="105" fill="#fffaf4" opacity="0.13"/>
  <circle cx="566" cy="265" r="129" fill="#f6bc42" opacity="0.16"/>
  <circle cx="608" cy="210" r="3" fill="#ff4f6d" opacity="0.34"/><circle cx="199" cy="299" r="3" fill="#ff4f6d" opacity="0.33"/><circle cx="710" cy="373" r="2" fill="#ff4f6d" opacity="0.36000000000000004"/><circle cx="301" cy="120" r="3" fill="#ff4f6d" opacity="0.35000000000000003"/><circle cx="96" cy="195" r="2" fill="#ff4f6d" opacity="0.38"/><circle cx="403" cy="284" r="2" fill="#ff4f6d" opacity="0.37"/><circle cx="198" cy="359" r="2" fill="#ff4f6d" opacity="0.4"/><circle cx="505" cy="106" r="2" fill="#ff4f6d" opacity="0.39"/><circle cx="200" cy="239" r="3" fill="#ff4f6d" opacity="0.71"/>
  <rect width="800" height="420" fill="#fffaf4"/><circle cx="620" cy="90" r="120" fill="#ff4f6d" opacity=".42"/><rect x="190" y="182" width="420" height="198" rx="22" fill="#f6bc42"/><rect x="190" y="108" width="420" height="70" rx="18" fill="#fffaf4"/><path d="M228 108l58 70M330 108l58 70M432 108l58 70M534 108l58 70" stroke="#fffaf4" stroke-width="20"/><rect x="244" y="254" width="312" height="18" rx="9" fill="#fffaf4" opacity=".16"/>
</svg>
