<svg xmlns="http://www.w3.org/2000/svg" viewBox="0 0 800 420" role="img" aria-label="Ilustracion propia de cine y rodaje para esta pregunta">
  <defs>
    <linearGradient id="bg" x1="0" x2="1" y1="0" y2="1">
      <stop stop-color="#15191d"/>
      <stop offset="1" stop-color="#ff4f6d" stop-opacity="0.22"/>
    </linearGradient>
  </defs>
  <rect width="800" height="420" fill="url(#bg)"/>
  <circle cx="622" cy="109" r="77" fill="#fffaf4" opacity="0.13"/>
  <circle cx="686" cy="246" r="65" fill="#f6bc42" opacity="0.16"/>
  <circle cx="648" cy="265" r="4" fill="#ff4f6d" opacity="0.68"/><circle cx="239" cy="354" r="4" fill="#ff4f6d" opacity="0.67"/><circle cx="750" cy="86" r="4" fill="#ff4f6d" opacity="0.7"/><circle cx="341" cy="175" r="4" fill="#ff4f6d" opacity="0.69"/><circle cx="444" cy="279" r="4" fill="#ff4f6d" opacity="0.64"/><circle cx="751" cy="368" r="4" fill="#ff4f6d" opacity="0.63"/><circle cx="546" cy="101" r="4" fill="#ff4f6d" opacity="0.66"/><circle cx="137" cy="190" r="4" fill="#ff4f6d" opacity="0.65"/><circle cx="340" cy="235" r="4" fill="#ff4f6d" opacity="0.31000000000000005"/>
  <rect width="800" height="420" fill="#fffaf4"/><circle cx="580" cy="116" r="120" fill="#ff4f6d" opacity=".42"/><rect x="190" y="182" width="420" height="198" rx="22" fill="#f6bc42"/><rect x="190" y="116" width="420" height="70" rx="18" fill="#fffaf4"/><path d="M228 116l58 70M330 116l58 70M432 116l58 70M534 116l58 70" stroke="#fffaf4" stroke-width="20"/><rect x="244" y="254" width="312" height="18" rx="9" fill="#fffaf4" opacity=".16"/>
</svg>
