<svg xmlns="http://www.w3.org/2000/svg" viewBox="0 0 800 420" role="img" aria-label="Ilustracion propia de cine y rodaje para esta pregunta">
  <defs>
    <linearGradient id="bg" x1="0" x2="1" y1="0" y2="1">
      <stop stop-color="#15191d"/>
      <stop offset="1" stop-color="#15191d" stop-opacity="0.22"/>
    </linearGradient>
  </defs>
  <rect width="800" height="420" fill="url(#bg)"/>
  <circle cx="259" cy="80" r="138" fill="#fffaf4" opacity="0.13"/>
  <circle cx="491" cy="100" r="93" fill="#f6bc42" opacity="0.16"/>
  <circle cx="56" cy="204" r="2" fill="#ff4f6d" opacity="0.48000000000000004"/><circle cx="363" cy="293" r="2" fill="#ff4f6d" opacity="0.47000000000000003"/><circle cx="158" cy="368" r="2" fill="#ff4f6d" opacity="0.5"/><circle cx="465" cy="115" r="2" fill="#ff4f6d" opacity="0.49"/><circle cx="260" cy="190" r="2" fill="#ff4f6d" opacity="0.52"/><circle cx="567" cy="279" r="2" fill="#ff4f6d" opacity="0.51"/><circle cx="362" cy="353" r="2" fill="#ff4f6d" opacity="0.54"/><circle cx="669" cy="101" r="2" fill="#ff4f6d" opacity="0.53"/><circle cx="364" cy="233" r="2" fill="#ff4f6d" opacity="0.4"/>
  <rect width="800" height="420" fill="#fffaf4"/><circle cx="500" cy="168" r="120" fill="#ff4f6d" opacity=".42"/><rect x="190" y="182" width="420" height="198" rx="22" fill="#f6bc42"/><rect x="190" y="132" width="420" height="70" rx="18" fill="#fffaf4"/><path d="M228 132l58 70M330 132l58 70M432 132l58 70M534 132l58 70" stroke="#fffaf4" stroke-width="20"/><rect x="244" y="254" width="312" height="18" rx="9" fill="#fffaf4" opacity=".16"/>
</svg>
