<svg xmlns="http://www.w3.org/2000/svg" viewBox="0 0 800 420" role="img" aria-label="Ilustracion propia de cine y rodaje para esta pregunta">
  <defs>
    <linearGradient id="bg" x1="0" x2="1" y1="0" y2="1">
      <stop stop-color="#15191d"/>
      <stop offset="1" stop-color="#ff4f6d" stop-opacity="0.22"/>
    </linearGradient>
  </defs>
  <rect width="800" height="420" fill="url(#bg)"/>
  <circle cx="270" cy="148" r="119" fill="#fffaf4" opacity="0.13"/>
  <circle cx="642" cy="180" r="70" fill="#f6bc42" opacity="0.16"/>
  <circle cx="340" cy="308" r="3" fill="#ff4f6d" opacity="0.36000000000000004"/><circle cx="647" cy="55" r="3" fill="#ff4f6d" opacity="0.35000000000000003"/><circle cx="442" cy="130" r="3" fill="#ff4f6d" opacity="0.38"/><circle cx="749" cy="219" r="3" fill="#ff4f6d" opacity="0.37"/><circle cx="544" cy="293" r="3" fill="#ff4f6d" opacity="0.4"/><circle cx="135" cy="41" r="3" fill="#ff4f6d" opacity="0.39"/><circle cx="646" cy="115" r="3" fill="#ff4f6d" opacity="0.42000000000000004"/><circle cx="237" cy="204" r="3" fill="#ff4f6d" opacity="0.41000000000000003"/><circle cx="748" cy="279" r="3" fill="#ff4f6d" opacity="0.44000000000000006"/>
  <rect width="800" height="420" fill="#fffaf4"/><circle cx="460" cy="194" r="120" fill="#ff4f6d" opacity=".42"/><rect x="190" y="182" width="420" height="198" rx="22" fill="#f6bc42"/><rect x="190" y="140" width="420" height="70" rx="18" fill="#fffaf4"/><path d="M228 140l58 70M330 140l58 70M432 140l58 70M534 140l58 70" stroke="#fffaf4" stroke-width="20"/><rect x="244" y="254" width="312" height="18" rx="9" fill="#fffaf4" opacity=".16"/>
</svg>
