<svg xmlns="http://www.w3.org/2000/svg" viewBox="0 0 800 420" role="img" aria-label="Ilustracion propia de cine y rodaje para esta pregunta">
  <defs>
    <linearGradient id="bg" x1="0" x2="1" y1="0" y2="1">
      <stop stop-color="#15191d"/>
      <stop offset="1" stop-color="#15191d" stop-opacity="0.22"/>
    </linearGradient>
  </defs>
  <rect width="800" height="420" fill="url(#bg)"/>
  <circle cx="224" cy="240" r="120" fill="#fffaf4" opacity="0.13"/>
  <circle cx="112" cy="191" r="131" fill="#f6bc42" opacity="0.16"/>
  <circle cx="740" cy="223" r="5" fill="#ff4f6d" opacity="0.46"/><circle cx="331" cy="312" r="5" fill="#ff4f6d" opacity="0.45000000000000007"/><circle cx="126" cy="44" r="5" fill="#ff4f6d" opacity="0.48000000000000004"/><circle cx="433" cy="134" r="5" fill="#ff4f6d" opacity="0.47000000000000003"/><circle cx="536" cy="237" r="5" fill="#ff4f6d" opacity="0.42000000000000004"/><circle cx="127" cy="326" r="5" fill="#ff4f6d" opacity="0.41000000000000003"/><circle cx="638" cy="59" r="5" fill="#ff4f6d" opacity="0.44000000000000006"/><circle cx="229" cy="148" r="5" fill="#ff4f6d" opacity="0.43000000000000005"/><circle cx="332" cy="252" r="2" fill="#ff4f6d" opacity="0.38"/>
  <rect width="800" height="420" fill="#fffaf4"/><circle cx="500" cy="168" r="120" fill="#ff4f6d" opacity=".42"/><rect x="190" y="182" width="420" height="198" rx="22" fill="#f6bc42"/><rect x="190" y="132" width="420" height="70" rx="18" fill="#fffaf4"/><path d="M228 132l58 70M330 132l58 70M432 132l58 70M534 132l58 70" stroke="#fffaf4" stroke-width="20"/><rect x="244" y="254" width="312" height="18" rx="9" fill="#fffaf4" opacity=".16"/>
</svg>
