<svg xmlns="http://www.w3.org/2000/svg" viewBox="0 0 800 420" role="img" aria-label="Ilustracion propia de cine y rodaje para esta pregunta">
  <defs>
    <linearGradient id="bg" x1="0" x2="1" y1="0" y2="1">
      <stop stop-color="#15191d"/>
      <stop offset="1" stop-color="#15191d" stop-opacity="0.22"/>
    </linearGradient>
  </defs>
  <rect width="800" height="420" fill="url(#bg)"/>
  <circle cx="278" cy="288" r="136" fill="#fffaf4" opacity="0.13"/>
  <circle cx="193" cy="233" r="113" fill="#f6bc42" opacity="0.16"/>
  <circle cx="403" cy="129" r="2" fill="#ff4f6d" opacity="0.29000000000000004"/><circle cx="96" cy="39" r="2" fill="#ff4f6d" opacity="0.30000000000000004"/><circle cx="505" cy="292" r="2" fill="#ff4f6d" opacity="0.31000000000000005"/><circle cx="198" cy="203" r="2" fill="#ff4f6d" opacity="0.32"/><circle cx="607" cy="114" r="2" fill="#ff4f6d" opacity="0.33"/><circle cx="300" cy="367" r="2" fill="#ff4f6d" opacity="0.34"/><circle cx="709" cy="278" r="2" fill="#ff4f6d" opacity="0.35000000000000003"/><circle cx="402" cy="189" r="2" fill="#ff4f6d" opacity="0.36000000000000004"/><circle cx="95" cy="99" r="2" fill="#ff4f6d" opacity="0.37"/>
  <rect width="800" height="420" fill="#fffaf4"/><circle cx="540" cy="142" r="120" fill="#ff4f6d" opacity=".42"/><rect x="190" y="182" width="420" height="198" rx="22" fill="#f6bc42"/><rect x="190" y="124" width="420" height="70" rx="18" fill="#fffaf4"/><path d="M228 124l58 70M330 124l58 70M432 124l58 70M534 124l58 70" stroke="#fffaf4" stroke-width="20"/><rect x="244" y="254" width="312" height="18" rx="9" fill="#fffaf4" opacity=".16"/>
</svg>
