<svg xmlns="http://www.w3.org/2000/svg" viewBox="0 0 800 420" role="img" aria-label="Ilustracion propia de cine y rodaje para esta pregunta">
  <defs>
    <linearGradient id="bg" x1="0" x2="1" y1="0" y2="1">
      <stop stop-color="#15191d"/>
      <stop offset="1" stop-color="#f6bc42" stop-opacity="0.22"/>
    </linearGradient>
  </defs>
  <rect width="800" height="420" fill="url(#bg)"/>
  <circle cx="181" cy="152" r="85" fill="#fffaf4" opacity="0.13"/>
  <circle cx="481" cy="180" r="76" fill="#f6bc42" opacity="0.16"/>
  <circle cx="753" cy="288" r="2" fill="#ff4f6d" opacity="0.52"/><circle cx="446" cy="198" r="2" fill="#ff4f6d" opacity="0.53"/><circle cx="651" cy="124" r="2" fill="#ff4f6d" opacity="0.5"/><circle cx="344" cy="377" r="2" fill="#ff4f6d" opacity="0.51"/><circle cx="241" cy="273" r="2" fill="#ff4f6d" opacity="0.56"/><circle cx="650" cy="184" r="2" fill="#ff4f6d" opacity="0.5700000000000001"/><circle cx="139" cy="109" r="2" fill="#ff4f6d" opacity="0.54"/><circle cx="548" cy="362" r="2" fill="#ff4f6d" opacity="0.55"/><circle cx="345" cy="317" r="2" fill="#ff4f6d" opacity="0.44000000000000006"/>
  <rect width="800" height="420" fill="#fffaf4"/><circle cx="620" cy="90" r="120" fill="#ff4f6d" opacity=".42"/><rect x="190" y="182" width="420" height="198" rx="22" fill="#f6bc42"/><rect x="190" y="108" width="420" height="70" rx="18" fill="#fffaf4"/><path d="M228 108l58 70M330 108l58 70M432 108l58 70M534 108l58 70" stroke="#fffaf4" stroke-width="20"/><rect x="244" y="254" width="312" height="18" rx="9" fill="#fffaf4" opacity=".16"/>
</svg>
