<svg xmlns="http://www.w3.org/2000/svg" viewBox="0 0 800 420" role="img" aria-label="Ilustracion propia de cine y rodaje para esta pregunta">
  <defs>
    <linearGradient id="bg" x1="0" x2="1" y1="0" y2="1">
      <stop stop-color="#15191d"/>
      <stop offset="1" stop-color="#ff4f6d" stop-opacity="0.22"/>
    </linearGradient>
  </defs>
  <rect width="800" height="420" fill="url(#bg)"/>
  <circle cx="455" cy="246" r="65" fill="#fffaf4" opacity="0.13"/>
  <circle cx="665" cy="156" r="74" fill="#f6bc42" opacity="0.16"/>
  <circle cx="247" cy="121" r="4" fill="#ff4f6d" opacity="0.6200000000000001"/><circle cx="656" cy="374" r="4" fill="#ff4f6d" opacity="0.63"/><circle cx="349" cy="285" r="4" fill="#ff4f6d" opacity="0.64"/><circle cx="42" cy="196" r="4" fill="#ff4f6d" opacity="0.65"/><circle cx="451" cy="107" r="4" fill="#ff4f6d" opacity="0.66"/><circle cx="144" cy="360" r="4" fill="#ff4f6d" opacity="0.67"/><circle cx="553" cy="271" r="4" fill="#ff4f6d" opacity="0.68"/><circle cx="246" cy="181" r="4" fill="#ff4f6d" opacity="0.69"/><circle cx="655" cy="92" r="4" fill="#ff4f6d" opacity="0.7"/>
  <rect width="800" height="420" fill="#fffaf4"/><circle cx="460" cy="194" r="120" fill="#ff4f6d" opacity=".42"/><rect x="190" y="182" width="420" height="198" rx="22" fill="#f6bc42"/><rect x="190" y="140" width="420" height="70" rx="18" fill="#fffaf4"/><path d="M228 140l58 70M330 140l58 70M432 140l58 70M534 140l58 70" stroke="#fffaf4" stroke-width="20"/><rect x="244" y="254" width="312" height="18" rx="9" fill="#fffaf4" opacity=".16"/>
</svg>
