<svg xmlns="http://www.w3.org/2000/svg" viewBox="0 0 800 420" role="img" aria-label="Ilustracion propia de cine y rodaje para esta pregunta">
  <defs>
    <linearGradient id="bg" x1="0" x2="1" y1="0" y2="1">
      <stop stop-color="#15191d"/>
      <stop offset="1" stop-color="#f6bc42" stop-opacity="0.22"/>
    </linearGradient>
  </defs>
  <rect width="800" height="420" fill="url(#bg)"/>
  <circle cx="553" cy="181" r="75" fill="#fffaf4" opacity="0.13"/>
  <circle cx="453" cy="76" r="95" fill="#f6bc42" opacity="0.16"/>
  <circle cx="181" cy="71" r="5" fill="#ff4f6d" opacity="0.68"/><circle cx="590" cy="324" r="5" fill="#ff4f6d" opacity="0.69"/><circle cx="79" cy="250" r="5" fill="#ff4f6d" opacity="0.66"/><circle cx="488" cy="161" r="5" fill="#ff4f6d" opacity="0.67"/><circle cx="693" cy="86" r="5" fill="#ff4f6d" opacity="0.64"/><circle cx="386" cy="339" r="5" fill="#ff4f6d" opacity="0.65"/><circle cx="591" cy="264" r="5" fill="#ff4f6d" opacity="0.6200000000000001"/><circle cx="284" cy="175" r="5" fill="#ff4f6d" opacity="0.63"/><circle cx="589" cy="42" r="5" fill="#ff4f6d" opacity="0.31000000000000005"/>
  <rect width="800" height="420" fill="#fffaf4"/><circle cx="540" cy="142" r="120" fill="#ff4f6d" opacity=".42"/><rect x="190" y="182" width="420" height="198" rx="22" fill="#f6bc42"/><rect x="190" y="124" width="420" height="70" rx="18" fill="#fffaf4"/><path d="M228 124l58 70M330 124l58 70M432 124l58 70M534 124l58 70" stroke="#fffaf4" stroke-width="20"/><rect x="244" y="254" width="312" height="18" rx="9" fill="#fffaf4" opacity=".16"/>
</svg>
