<svg xmlns="http://www.w3.org/2000/svg" viewBox="0 0 800 420" role="img" aria-label="Ilustracion propia de cine y rodaje para esta pregunta">
  <defs>
    <linearGradient id="bg" x1="0" x2="1" y1="0" y2="1">
      <stop stop-color="#15191d"/>
      <stop offset="1" stop-color="#f6bc42" stop-opacity="0.22"/>
    </linearGradient>
  </defs>
  <rect width="800" height="420" fill="url(#bg)"/>
  <circle cx="493" cy="99" r="113" fill="#fffaf4" opacity="0.13"/>
  <circle cx="445" cy="281" r="100" fill="#f6bc42" opacity="0.16"/>
  <circle cx="362" cy="68" r="2" fill="#ff4f6d" opacity="0.46"/><circle cx="669" cy="157" r="2" fill="#ff4f6d" opacity="0.45000000000000007"/><circle cx="260" cy="246" r="2" fill="#ff4f6d" opacity="0.44000000000000006"/><circle cx="567" cy="336" r="2" fill="#ff4f6d" opacity="0.43000000000000005"/><circle cx="158" cy="83" r="2" fill="#ff4f6d" opacity="0.42000000000000004"/><circle cx="465" cy="172" r="3" fill="#ff4f6d" opacity="0.41000000000000003"/><circle cx="56" cy="261" r="3" fill="#ff4f6d" opacity="0.4"/><circle cx="363" cy="350" r="3" fill="#ff4f6d" opacity="0.39"/><circle cx="670" cy="97" r="3" fill="#ff4f6d" opacity="0.38"/>
  <rect width="800" height="420" fill="#fffaf4"/><circle cx="540" cy="142" r="120" fill="#ff4f6d" opacity=".42"/><rect x="190" y="182" width="420" height="198" rx="22" fill="#f6bc42"/><rect x="190" y="124" width="420" height="70" rx="18" fill="#fffaf4"/><path d="M228 124l58 70M330 124l58 70M432 124l58 70M534 124l58 70" stroke="#fffaf4" stroke-width="20"/><rect x="244" y="254" width="312" height="18" rx="9" fill="#fffaf4" opacity=".16"/>
</svg>
