<svg xmlns="http://www.w3.org/2000/svg" viewBox="0 0 800 420" role="img" aria-label="Ilustracion propia de cine y rodaje para esta pregunta">
  <defs>
    <linearGradient id="bg" x1="0" x2="1" y1="0" y2="1">
      <stop stop-color="#15191d"/>
      <stop offset="1" stop-color="#ff4f6d" stop-opacity="0.22"/>
    </linearGradient>
  </defs>
  <rect width="800" height="420" fill="url(#bg)"/>
  <circle cx="597" cy="170" r="115" fill="#fffaf4" opacity="0.13"/>
  <circle cx="608" cy="290" r="110" fill="#f6bc42" opacity="0.16"/>
  <circle cx="258" cy="267" r="2" fill="#ff4f6d" opacity="0.68"/><circle cx="565" cy="356" r="2" fill="#ff4f6d" opacity="0.67"/><circle cx="156" cy="103" r="2" fill="#ff4f6d" opacity="0.66"/><circle cx="463" cy="192" r="2" fill="#ff4f6d" opacity="0.65"/><circle cx="462" cy="252" r="2" fill="#ff4f6d" opacity="0.72"/><circle cx="53" cy="341" r="2" fill="#ff4f6d" opacity="0.71"/><circle cx="360" cy="88" r="2" fill="#ff4f6d" opacity="0.7"/><circle cx="667" cy="178" r="2" fill="#ff4f6d" opacity="0.69"/><circle cx="566" cy="296" r="3" fill="#ff4f6d" opacity="0.6000000000000001"/>
  <rect width="800" height="420" fill="#fffaf4"/><circle cx="580" cy="116" r="120" fill="#ff4f6d" opacity=".42"/><rect x="190" y="182" width="420" height="198" rx="22" fill="#f6bc42"/><rect x="190" y="116" width="420" height="70" rx="18" fill="#fffaf4"/><path d="M228 116l58 70M330 116l58 70M432 116l58 70M534 116l58 70" stroke="#fffaf4" stroke-width="20"/><rect x="244" y="254" width="312" height="18" rx="9" fill="#fffaf4" opacity=".16"/>
</svg>
