<svg xmlns="http://www.w3.org/2000/svg" viewBox="0 0 800 420" role="img" aria-label="Ilustracion propia de cine y rodaje para esta pregunta">
  <defs>
    <linearGradient id="bg" x1="0" x2="1" y1="0" y2="1">
      <stop stop-color="#15191d"/>
      <stop offset="1" stop-color="#15191d" stop-opacity="0.22"/>
    </linearGradient>
  </defs>
  <rect width="800" height="420" fill="url(#bg)"/>
  <circle cx="558" cy="185" r="74" fill="#fffaf4" opacity="0.13"/>
  <circle cx="678" cy="291" r="105" fill="#f6bc42" opacity="0.16"/>
  <circle cx="460" cy="276" r="5" fill="#ff4f6d" opacity="0.37"/><circle cx="51" cy="365" r="5" fill="#ff4f6d" opacity="0.36000000000000004"/><circle cx="562" cy="97" r="5" fill="#ff4f6d" opacity="0.39"/><circle cx="153" cy="186" r="5" fill="#ff4f6d" opacity="0.38"/><circle cx="256" cy="290" r="5" fill="#ff4f6d" opacity="0.33"/><circle cx="563" cy="37" r="5" fill="#ff4f6d" opacity="0.32"/><circle cx="358" cy="112" r="5" fill="#ff4f6d" opacity="0.35000000000000003"/><circle cx="665" cy="201" r="5" fill="#ff4f6d" opacity="0.34"/><circle cx="52" cy="305" r="5" fill="#ff4f6d" opacity="0.29000000000000004"/>
  <rect width="800" height="420" fill="#fffaf4"/><circle cx="540" cy="142" r="120" fill="#ff4f6d" opacity=".42"/><rect x="190" y="182" width="420" height="198" rx="22" fill="#f6bc42"/><rect x="190" y="124" width="420" height="70" rx="18" fill="#fffaf4"/><path d="M228 124l58 70M330 124l58 70M432 124l58 70M534 124l58 70" stroke="#fffaf4" stroke-width="20"/><rect x="244" y="254" width="312" height="18" rx="9" fill="#fffaf4" opacity=".16"/>
</svg>
