<svg xmlns="http://www.w3.org/2000/svg" viewBox="0 0 800 420" role="img" aria-label="Ilustracion propia de cine y rodaje para esta pregunta">
  <defs>
    <linearGradient id="bg" x1="0" x2="1" y1="0" y2="1">
      <stop stop-color="#15191d"/>
      <stop offset="1" stop-color="#fffaf4" stop-opacity="0.22"/>
    </linearGradient>
  </defs>
  <rect width="800" height="420" fill="url(#bg)"/>
  <circle cx="394" cy="243" r="134" fill="#fffaf4" opacity="0.13"/>
  <circle cx="133" cy="227" r="122" fill="#f6bc42" opacity="0.16"/>
  <circle cx="408" cy="208" r="3" fill="#ff4f6d" opacity="0.69"/><circle cx="715" cy="297" r="3" fill="#ff4f6d" opacity="0.68"/><circle cx="510" cy="372" r="3" fill="#ff4f6d" opacity="0.71"/><circle cx="101" cy="119" r="3" fill="#ff4f6d" opacity="0.7"/><circle cx="204" cy="223" r="3" fill="#ff4f6d" opacity="0.65"/><circle cx="511" cy="312" r="3" fill="#ff4f6d" opacity="0.64"/><circle cx="306" cy="45" r="3" fill="#ff4f6d" opacity="0.67"/><circle cx="613" cy="134" r="3" fill="#ff4f6d" opacity="0.66"/><circle cx="716" cy="237" r="4" fill="#ff4f6d" opacity="0.6100000000000001"/>
  <rect width="800" height="420" fill="#fffaf4"/><circle cx="500" cy="168" r="120" fill="#ff4f6d" opacity=".42"/><rect x="190" y="182" width="420" height="198" rx="22" fill="#f6bc42"/><rect x="190" y="132" width="420" height="70" rx="18" fill="#fffaf4"/><path d="M228 132l58 70M330 132l58 70M432 132l58 70M534 132l58 70" stroke="#fffaf4" stroke-width="20"/><rect x="244" y="254" width="312" height="18" rx="9" fill="#fffaf4" opacity=".16"/>
</svg>
