<svg xmlns="http://www.w3.org/2000/svg" viewBox="0 0 800 420" role="img" aria-label="Ilustracion propia de espacio y planetas para esta pregunta">
  <defs>
    <linearGradient id="bg" x1="0" x2="1" y1="0" y2="1">
      <stop stop-color="#12171a"/>
      <stop offset="1" stop-color="#e46b4f" stop-opacity="0.22"/>
    </linearGradient>
  </defs>
  <rect width="800" height="420" fill="url(#bg)"/>
  <circle cx="126" cy="271" r="100" fill="#e46b4f" opacity="0.13"/>
  <circle cx="399" cy="266" r="108" fill="#f6bc42" opacity="0.16"/>
  <circle cx="333" cy="343" r="2" fill="#315be8" opacity="0.6000000000000001"/><circle cx="742" cy="254" r="2" fill="#315be8" opacity="0.6100000000000001"/><circle cx="231" cy="179" r="2" fill="#315be8" opacity="0.5800000000000001"/><circle cx="640" cy="90" r="2" fill="#315be8" opacity="0.5900000000000001"/><circle cx="537" cy="328" r="2" fill="#315be8" opacity="0.64"/><circle cx="230" cy="239" r="2" fill="#315be8" opacity="0.65"/><circle cx="435" cy="165" r="2" fill="#315be8" opacity="0.6200000000000001"/><circle cx="128" cy="75" r="2" fill="#315be8" opacity="0.63"/><circle cx="741" cy="314" r="2" fill="#315be8" opacity="0.68"/>
  <rect width="800" height="420" fill="#e46b4f"/><circle cx="286" cy="218" r="70" fill="#f6bc42"/><path d="M230 212c36 14 66-22 112-2" stroke="#8f3327" stroke-width="12" stroke-linecap="round" opacity=".36"/><circle cx="510" cy="160" r="48" fill="#315be8"/><circle cx="540" cy="276" r="32" fill="#fffaf4"/><path d="M176 324c140 46 308 54 476 0" stroke="#fff" stroke-width="5" fill="none" opacity=".38"/>
</svg>
