<svg xmlns="http://www.w3.org/2000/svg" viewBox="0 0 800 420" role="img" aria-label="Ilustracion propia de cine y rodaje para esta pregunta">
  <defs>
    <linearGradient id="bg" x1="0" x2="1" y1="0" y2="1">
      <stop stop-color="#15191d"/>
      <stop offset="1" stop-color="#15191d" stop-opacity="0.22"/>
    </linearGradient>
  </defs>
  <rect width="800" height="420" fill="url(#bg)"/>
  <circle cx="278" cy="120" r="80" fill="#fffaf4" opacity="0.13"/>
  <circle cx="643" cy="283" r="86" fill="#f6bc42" opacity="0.16"/>
  <circle cx="428" cy="267" r="4" fill="#ff4f6d" opacity="0.53"/><circle cx="735" cy="356" r="4" fill="#ff4f6d" opacity="0.52"/><circle cx="530" cy="89" r="4" fill="#ff4f6d" opacity="0.55"/><circle cx="121" cy="178" r="4" fill="#ff4f6d" opacity="0.54"/><circle cx="224" cy="282" r="4" fill="#ff4f6d" opacity="0.49"/><circle cx="531" cy="371" r="4" fill="#ff4f6d" opacity="0.48000000000000004"/><circle cx="326" cy="104" r="4" fill="#ff4f6d" opacity="0.51"/><circle cx="633" cy="193" r="4" fill="#ff4f6d" opacity="0.5"/><circle cx="120" cy="238" r="4" fill="#ff4f6d" opacity="0.6100000000000001"/>
  <rect width="800" height="420" fill="#fffaf4"/><circle cx="540" cy="142" r="120" fill="#ff4f6d" opacity=".42"/><rect x="190" y="182" width="420" height="198" rx="22" fill="#f6bc42"/><rect x="190" y="124" width="420" height="70" rx="18" fill="#fffaf4"/><path d="M228 124l58 70M330 124l58 70M432 124l58 70M534 124l58 70" stroke="#fffaf4" stroke-width="20"/><rect x="244" y="254" width="312" height="18" rx="9" fill="#fffaf4" opacity=".16"/>
</svg>
