<svg xmlns="http://www.w3.org/2000/svg" viewBox="0 0 800 420" role="img" aria-label="Ilustracion propia de cine y rodaje para esta pregunta">
  <defs>
    <linearGradient id="bg" x1="0" x2="1" y1="0" y2="1">
      <stop stop-color="#15191d"/>
      <stop offset="1" stop-color="#fffaf4" stop-opacity="0.22"/>
    </linearGradient>
  </defs>
  <rect width="800" height="420" fill="url(#bg)"/>
  <circle cx="669" cy="213" r="64" fill="#fffaf4" opacity="0.13"/>
  <circle cx="317" cy="331" r="64" fill="#f6bc42" opacity="0.16"/>
  <circle cx="249" cy="293" r="2" fill="#ff4f6d" opacity="0.72"/><circle cx="658" cy="204" r="2" fill="#ff4f6d" opacity="0.28"/><circle cx="147" cy="130" r="2" fill="#ff4f6d" opacity="0.7"/><circle cx="556" cy="41" r="2" fill="#ff4f6d" opacity="0.71"/><circle cx="45" cy="308" r="2" fill="#ff4f6d" opacity="0.68"/><circle cx="454" cy="219" r="2" fill="#ff4f6d" opacity="0.69"/><circle cx="659" cy="144" r="2" fill="#ff4f6d" opacity="0.66"/><circle cx="352" cy="55" r="2" fill="#ff4f6d" opacity="0.67"/><circle cx="557" cy="323" r="3" fill="#ff4f6d" opacity="0.64"/>
  <rect width="800" height="420" fill="#fffaf4"/><circle cx="500" cy="168" r="120" fill="#ff4f6d" opacity=".42"/><rect x="190" y="182" width="420" height="198" rx="22" fill="#f6bc42"/><rect x="190" y="132" width="420" height="70" rx="18" fill="#fffaf4"/><path d="M228 132l58 70M330 132l58 70M432 132l58 70M534 132l58 70" stroke="#fffaf4" stroke-width="20"/><rect x="244" y="254" width="312" height="18" rx="9" fill="#fffaf4" opacity=".16"/>
</svg>
