<svg xmlns="http://www.w3.org/2000/svg" viewBox="0 0 800 420" role="img" aria-label="Ilustracion propia de cine y rodaje para esta pregunta">
  <defs>
    <linearGradient id="bg" x1="0" x2="1" y1="0" y2="1">
      <stop stop-color="#15191d"/>
      <stop offset="1" stop-color="#ff4f6d" stop-opacity="0.22"/>
    </linearGradient>
  </defs>
  <rect width="800" height="420" fill="url(#bg)"/>
  <circle cx="504" cy="140" r="75" fill="#fffaf4" opacity="0.13"/>
  <circle cx="147" cy="71" r="135" fill="#f6bc42" opacity="0.16"/>
  <circle cx="735" cy="243" r="5" fill="#ff4f6d" opacity="0.53"/><circle cx="428" cy="154" r="5" fill="#ff4f6d" opacity="0.54"/><circle cx="121" cy="65" r="5" fill="#ff4f6d" opacity="0.55"/><circle cx="530" cy="318" r="5" fill="#ff4f6d" opacity="0.56"/><circle cx="531" cy="258" r="5" fill="#ff4f6d" opacity="0.49"/><circle cx="224" cy="169" r="5" fill="#ff4f6d" opacity="0.5"/><circle cx="633" cy="80" r="5" fill="#ff4f6d" opacity="0.51"/><circle cx="326" cy="332" r="5" fill="#ff4f6d" opacity="0.52"/><circle cx="427" cy="214" r="5" fill="#ff4f6d" opacity="0.6100000000000001"/>
  <rect width="800" height="420" fill="#fffaf4"/><circle cx="500" cy="168" r="120" fill="#ff4f6d" opacity=".42"/><rect x="190" y="182" width="420" height="198" rx="22" fill="#f6bc42"/><rect x="190" y="132" width="420" height="70" rx="18" fill="#fffaf4"/><path d="M228 132l58 70M330 132l58 70M432 132l58 70M534 132l58 70" stroke="#fffaf4" stroke-width="20"/><rect x="244" y="254" width="312" height="18" rx="9" fill="#fffaf4" opacity=".16"/>
</svg>
