<svg xmlns="http://www.w3.org/2000/svg" viewBox="0 0 800 420" role="img" aria-label="Ilustracion propia de cine y rodaje para esta pregunta">
  <defs>
    <linearGradient id="bg" x1="0" x2="1" y1="0" y2="1">
      <stop stop-color="#15191d"/>
      <stop offset="1" stop-color="#15191d" stop-opacity="0.22"/>
    </linearGradient>
  </defs>
  <rect width="800" height="420" fill="url(#bg)"/>
  <circle cx="397" cy="65" r="126" fill="#fffaf4" opacity="0.13"/>
  <circle cx="358" cy="205" r="121" fill="#f6bc42" opacity="0.16"/>
  <circle cx="482" cy="319" r="5" fill="#ff4f6d" opacity="0.72"/><circle cx="73" cy="66" r="5" fill="#ff4f6d" opacity="0.71"/><circle cx="380" cy="155" r="5" fill="#ff4f6d" opacity="0.7"/><circle cx="687" cy="244" r="5" fill="#ff4f6d" opacity="0.69"/><circle cx="686" cy="304" r="5" fill="#ff4f6d" opacity="0.31000000000000005"/><circle cx="277" cy="51" r="5" fill="#ff4f6d" opacity="0.30000000000000004"/><circle cx="584" cy="140" r="5" fill="#ff4f6d" opacity="0.29000000000000004"/><circle cx="175" cy="230" r="5" fill="#ff4f6d" opacity="0.28"/><circle cx="174" cy="290" r="5" fill="#ff4f6d" opacity="0.35000000000000003"/>
  <rect width="800" height="420" fill="#fffaf4"/><circle cx="580" cy="116" r="120" fill="#ff4f6d" opacity=".42"/><rect x="190" y="182" width="420" height="198" rx="22" fill="#f6bc42"/><rect x="190" y="116" width="420" height="70" rx="18" fill="#fffaf4"/><path d="M228 116l58 70M330 116l58 70M432 116l58 70M534 116l58 70" stroke="#fffaf4" stroke-width="20"/><rect x="244" y="254" width="312" height="18" rx="9" fill="#fffaf4" opacity=".16"/>
</svg>
