<svg xmlns="http://www.w3.org/2000/svg" viewBox="0 0 800 420" role="img" aria-label="Ilustracion propia de cine y rodaje para esta pregunta">
  <defs>
    <linearGradient id="bg" x1="0" x2="1" y1="0" y2="1">
      <stop stop-color="#15191d"/>
      <stop offset="1" stop-color="#15191d" stop-opacity="0.22"/>
    </linearGradient>
  </defs>
  <rect width="800" height="420" fill="url(#bg)"/>
  <circle cx="203" cy="324" r="94" fill="#fffaf4" opacity="0.13"/>
  <circle cx="634" cy="130" r="117" fill="#f6bc42" opacity="0.16"/>
  <circle cx="741" cy="207" r="2" fill="#ff4f6d" opacity="0.6000000000000001"/><circle cx="434" cy="118" r="2" fill="#ff4f6d" opacity="0.6100000000000001"/><circle cx="639" cy="43" r="2" fill="#ff4f6d" opacity="0.5800000000000001"/><circle cx="332" cy="296" r="2" fill="#ff4f6d" opacity="0.5900000000000001"/><circle cx="537" cy="222" r="2" fill="#ff4f6d" opacity="0.56"/><circle cx="230" cy="132" r="2" fill="#ff4f6d" opacity="0.5700000000000001"/><circle cx="435" cy="58" r="2" fill="#ff4f6d" opacity="0.54"/><circle cx="128" cy="311" r="2" fill="#ff4f6d" opacity="0.55"/><circle cx="433" cy="178" r="2" fill="#ff4f6d" opacity="0.68"/>
  <rect width="800" height="420" fill="#fffaf4"/><circle cx="540" cy="142" r="120" fill="#ff4f6d" opacity=".42"/><rect x="190" y="182" width="420" height="198" rx="22" fill="#f6bc42"/><rect x="190" y="124" width="420" height="70" rx="18" fill="#fffaf4"/><path d="M228 124l58 70M330 124l58 70M432 124l58 70M534 124l58 70" stroke="#fffaf4" stroke-width="20"/><rect x="244" y="254" width="312" height="18" rx="9" fill="#fffaf4" opacity=".16"/>
</svg>
