<svg xmlns="http://www.w3.org/2000/svg" viewBox="0 0 800 420" role="img" aria-label="Ilustracion propia de tecnologia para esta pregunta">
  <defs>
    <linearGradient id="bg" x1="0" x2="1" y1="0" y2="1">
      <stop stop-color="#111820"/>
      <stop offset="1" stop-color="#111820" stop-opacity="0.22"/>
    </linearGradient>
  </defs>
  <rect width="800" height="420" fill="url(#bg)"/>
  <circle cx="445" cy="233" r="116" fill="#fffaf4" opacity="0.13"/>
  <circle cx="439" cy="262" r="130" fill="#315be8" opacity="0.16"/>
  <circle cx="637" cy="72" r="4" fill="#12b7a6" opacity="0.69"/><circle cx="330" cy="325" r="4" fill="#12b7a6" opacity="0.7"/><circle cx="535" cy="250" r="5" fill="#12b7a6" opacity="0.67"/><circle cx="228" cy="161" r="4" fill="#12b7a6" opacity="0.68"/><circle cx="125" cy="57" r="4" fill="#12b7a6" opacity="0.28"/><circle cx="534" cy="310" r="4" fill="#12b7a6" opacity="0.29000000000000004"/><circle cx="739" cy="235" r="4" fill="#12b7a6" opacity="0.71"/><circle cx="432" cy="146" r="4" fill="#12b7a6" opacity="0.72"/><circle cx="329" cy="42" r="4" fill="#12b7a6" opacity="0.32"/>
  <rect width="800" height="420" fill="#fffaf4"/><rect x="108" y="72" width="584" height="276" rx="28" fill="#315be8"/><rect x="108" y="72" width="584" height="58" rx="28" fill="#12b7a6"/><path d="M258 206l-62 44 62 44M542 206l62 44-62 44" stroke="#fffaf4" stroke-width="20" stroke-linecap="round" stroke-linejoin="round" fill="none"/><path d="M364 306l72-184" stroke="#12b7a6" stroke-width="18" stroke-linecap="round"/>
</svg>
