<svg xmlns="http://www.w3.org/2000/svg" viewBox="0 0 800 420" role="img" aria-label="Ilustracion propia de tecnologia para esta pregunta">
  <defs>
    <linearGradient id="bg" x1="0" x2="1" y1="0" y2="1">
      <stop stop-color="#111820"/>
      <stop offset="1" stop-color="#12b7a6" stop-opacity="0.22"/>
    </linearGradient>
  </defs>
  <rect width="800" height="420" fill="url(#bg)"/>
  <circle cx="596" cy="165" r="117" fill="#fffaf4" opacity="0.13"/>
  <circle cx="533" cy="74" r="80" fill="#315be8" opacity="0.16"/>
  <circle cx="689" cy="205" r="3" fill="#12b7a6" opacity="0.41000000000000003"/><circle cx="382" cy="116" r="3" fill="#12b7a6" opacity="0.42000000000000004"/><circle cx="587" cy="41" r="3" fill="#12b7a6" opacity="0.39"/><circle cx="280" cy="294" r="3" fill="#12b7a6" opacity="0.4"/><circle cx="661" cy="318" r="3" fill="#12b7a6" opacity="0.31000000000000005"/><circle cx="354" cy="229" r="3" fill="#12b7a6" opacity="0.32"/><circle cx="75" cy="369" r="3" fill="#12b7a6" opacity="0.43000000000000005"/><circle cx="484" cy="280" r="3" fill="#12b7a6" opacity="0.44000000000000006"/><circle cx="149" cy="304" r="3" fill="#12b7a6" opacity="0.35000000000000003"/>
  <rect width="800" height="420" fill="#fffaf4"/><rect x="108" y="72" width="584" height="276" rx="28" fill="#315be8"/><rect x="108" y="72" width="584" height="58" rx="28" fill="#12b7a6"/><path d="M210 206l-62 44 62 44M590 206l62 44-62 44" stroke="#fffaf4" stroke-width="20" stroke-linecap="round" stroke-linejoin="round" fill="none"/><path d="M364 306l72-184" stroke="#12b7a6" stroke-width="18" stroke-linecap="round"/>
</svg>
