<svg xmlns="http://www.w3.org/2000/svg" viewBox="0 0 800 420" role="img" aria-label="Ilustracion propia de tecnologia para esta pregunta">
  <defs>
    <linearGradient id="bg" x1="0" x2="1" y1="0" y2="1">
      <stop stop-color="#111820"/>
      <stop offset="1" stop-color="#111820" stop-opacity="0.22"/>
    </linearGradient>
  </defs>
  <rect width="800" height="420" fill="url(#bg)"/>
  <circle cx="611" cy="312" r="142" fill="#fffaf4" opacity="0.13"/>
  <circle cx="160" cy="272" r="93" fill="#315be8" opacity="0.16"/>
  <circle cx="250" cy="139" r="5" fill="#12b7a6" opacity="0.56"/><circle cx="557" cy="228" r="5" fill="#12b7a6" opacity="0.55"/><circle cx="148" cy="318" r="5" fill="#12b7a6" opacity="0.54"/><circle cx="455" cy="65" r="5" fill="#12b7a6" opacity="0.53"/><circle cx="454" cy="125" r="5" fill="#12b7a6" opacity="0.6000000000000001"/><circle cx="45" cy="214" r="5" fill="#12b7a6" opacity="0.5900000000000001"/><circle cx="352" cy="303" r="5" fill="#12b7a6" opacity="0.5800000000000001"/><circle cx="659" cy="50" r="5" fill="#12b7a6" opacity="0.5700000000000001"/><circle cx="558" cy="168" r="5" fill="#12b7a6" opacity="0.48000000000000004"/>
  <rect width="800" height="420" fill="#fffaf4"/><rect x="108" y="72" width="584" height="276" rx="28" fill="#315be8"/><rect x="108" y="72" width="584" height="58" rx="28" fill="#12b7a6"/><path d="M210 206l-62 44 62 44M590 206l62 44-62 44" stroke="#fffaf4" stroke-width="20" stroke-linecap="round" stroke-linejoin="round" fill="none"/><path d="M364 306l72-184" stroke="#12b7a6" stroke-width="18" stroke-linecap="round"/>
</svg>
