<svg xmlns="http://www.w3.org/2000/svg" viewBox="0 0 800 420" role="img" aria-label="Ilustracion propia de tecnologia para esta pregunta">
  <defs>
    <linearGradient id="bg" x1="0" x2="1" y1="0" y2="1">
      <stop stop-color="#111820"/>
      <stop offset="1" stop-color="#111820" stop-opacity="0.22"/>
    </linearGradient>
  </defs>
  <rect width="800" height="420" fill="url(#bg)"/>
  <circle cx="584" cy="171" r="104" fill="#fffaf4" opacity="0.13"/>
  <circle cx="607" cy="182" r="129" fill="#315be8" opacity="0.16"/>
  <circle cx="190" cy="214" r="4" fill="#12b7a6" opacity="0.67"/><circle cx="497" cy="303" r="4" fill="#12b7a6" opacity="0.66"/><circle cx="88" cy="50" r="4" fill="#12b7a6" opacity="0.65"/><circle cx="395" cy="140" r="4" fill="#12b7a6" opacity="0.64"/><circle cx="702" cy="229" r="4" fill="#12b7a6" opacity="0.63"/><circle cx="293" cy="318" r="4" fill="#12b7a6" opacity="0.6200000000000001"/><circle cx="600" cy="65" r="4" fill="#12b7a6" opacity="0.6100000000000001"/><circle cx="191" cy="154" r="4" fill="#12b7a6" opacity="0.6000000000000001"/><circle cx="598" cy="185" r="4" fill="#12b7a6" opacity="0.30000000000000004"/>
  <rect width="800" height="420" fill="#fffaf4"/><rect x="108" y="72" width="584" height="276" rx="28" fill="#315be8"/><rect x="108" y="72" width="584" height="58" rx="28" fill="#12b7a6"/><path d="M246 206l-62 44 62 44M554 206l62 44-62 44" stroke="#fffaf4" stroke-width="20" stroke-linecap="round" stroke-linejoin="round" fill="none"/><path d="M364 306l72-184" stroke="#12b7a6" stroke-width="18" stroke-linecap="round"/>
</svg>
