<svg xmlns="http://www.w3.org/2000/svg" viewBox="0 0 800 420" role="img" aria-label="Ilustracion propia de tecnologia para esta pregunta">
  <defs>
    <linearGradient id="bg" x1="0" x2="1" y1="0" y2="1">
      <stop stop-color="#111820"/>
      <stop offset="1" stop-color="#12b7a6" stop-opacity="0.22"/>
    </linearGradient>
  </defs>
  <rect width="800" height="420" fill="url(#bg)"/>
  <circle cx="665" cy="62" r="83" fill="#fffaf4" opacity="0.13"/>
  <circle cx="242" cy="312" r="136" fill="#315be8" opacity="0.16"/>
  <circle cx="591" cy="286" r="3" fill="#12b7a6" opacity="0.52"/><circle cx="284" cy="197" r="2" fill="#12b7a6" opacity="0.53"/><circle cx="693" cy="108" r="2" fill="#12b7a6" opacity="0.54"/><circle cx="386" cy="361" r="2" fill="#12b7a6" opacity="0.55"/><circle cx="387" cy="301" r="3" fill="#12b7a6" opacity="0.48000000000000004"/><circle cx="80" cy="212" r="3" fill="#12b7a6" opacity="0.49"/><circle cx="489" cy="122" r="3" fill="#12b7a6" opacity="0.5"/><circle cx="182" cy="375" r="3" fill="#12b7a6" opacity="0.51"/><circle cx="183" cy="315" r="3" fill="#12b7a6" opacity="0.44000000000000006"/>
  <rect width="800" height="420" fill="#fffaf4"/><rect x="108" y="72" width="584" height="276" rx="28" fill="#315be8"/><rect x="108" y="72" width="584" height="58" rx="28" fill="#12b7a6"/><path d="M258 206l-62 44 62 44M542 206l62 44-62 44" stroke="#fffaf4" stroke-width="20" stroke-linecap="round" stroke-linejoin="round" fill="none"/><path d="M364 306l72-184" stroke="#12b7a6" stroke-width="18" stroke-linecap="round"/>
</svg>
