<svg xmlns="http://www.w3.org/2000/svg" viewBox="0 0 800 420" role="img" aria-label="Ilustracion propia de tecnologia para esta pregunta">
  <defs>
    <linearGradient id="bg" x1="0" x2="1" y1="0" y2="1">
      <stop stop-color="#111820"/>
      <stop offset="1" stop-color="#111820" stop-opacity="0.22"/>
    </linearGradient>
  </defs>
  <rect width="800" height="420" fill="url(#bg)"/>
  <circle cx="284" cy="131" r="106" fill="#fffaf4" opacity="0.13"/>
  <circle cx="644" cy="213" r="99" fill="#315be8" opacity="0.16"/>
  <circle cx="716" cy="241" r="5" fill="#12b7a6" opacity="0.48000000000000004"/><circle cx="307" cy="330" r="5" fill="#12b7a6" opacity="0.47000000000000003"/><circle cx="102" cy="63" r="5" fill="#12b7a6" opacity="0.5"/><circle cx="409" cy="152" r="5" fill="#12b7a6" opacity="0.49"/><circle cx="204" cy="226" r="5" fill="#12b7a6" opacity="0.52"/><circle cx="511" cy="315" r="5" fill="#12b7a6" opacity="0.51"/><circle cx="306" cy="48" r="5" fill="#12b7a6" opacity="0.54"/><circle cx="613" cy="137" r="5" fill="#12b7a6" opacity="0.53"/><circle cx="408" cy="212" r="5" fill="#12b7a6" opacity="0.56"/>
  <rect width="800" height="420" fill="#fffaf4"/><rect x="108" y="72" width="584" height="276" rx="28" fill="#315be8"/><rect x="108" y="72" width="584" height="58" rx="28" fill="#12b7a6"/><path d="M246 206l-62 44 62 44M554 206l62 44-62 44" stroke="#fffaf4" stroke-width="20" stroke-linecap="round" stroke-linejoin="round" fill="none"/><path d="M364 306l72-184" stroke="#12b7a6" stroke-width="18" stroke-linecap="round"/>
</svg>
