<svg xmlns="http://www.w3.org/2000/svg" viewBox="0 0 800 420" role="img" aria-label="Ilustracion propia de tecnologia para esta pregunta">
  <defs>
    <linearGradient id="bg" x1="0" x2="1" y1="0" y2="1">
      <stop stop-color="#111820"/>
      <stop offset="1" stop-color="#12b7a6" stop-opacity="0.22"/>
    </linearGradient>
  </defs>
  <rect width="800" height="420" fill="url(#bg)"/>
  <circle cx="496" cy="172" r="139" fill="#fffaf4" opacity="0.13"/>
  <circle cx="521" cy="326" r="93" fill="#315be8" opacity="0.16"/>
  <circle cx="320" cy="353" r="2" fill="#12b7a6" opacity="0.67"/><circle cx="627" cy="100" r="2" fill="#12b7a6" opacity="0.66"/><circle cx="422" cy="174" r="2" fill="#12b7a6" opacity="0.69"/><circle cx="729" cy="264" r="2" fill="#12b7a6" opacity="0.68"/><circle cx="524" cy="338" r="2" fill="#12b7a6" opacity="0.71"/><circle cx="115" cy="85" r="2" fill="#12b7a6" opacity="0.7"/><circle cx="626" cy="160" r="2" fill="#12b7a6" opacity="0.28"/><circle cx="217" cy="249" r="2" fill="#12b7a6" opacity="0.72"/><circle cx="728" cy="324" r="2" fill="#12b7a6" opacity="0.30000000000000004"/>
  <rect width="800" height="420" fill="#fffaf4"/><rect x="108" y="72" width="584" height="276" rx="28" fill="#315be8"/><rect x="108" y="72" width="584" height="58" rx="28" fill="#12b7a6"/><path d="M210 206l-62 44 62 44M590 206l62 44-62 44" stroke="#fffaf4" stroke-width="20" stroke-linecap="round" stroke-linejoin="round" fill="none"/><path d="M364 306l72-184" stroke="#12b7a6" stroke-width="18" stroke-linecap="round"/>
</svg>
