<svg xmlns="http://www.w3.org/2000/svg" viewBox="0 0 800 420" role="img" aria-label="Ilustracion propia de tecnologia para esta pregunta">
  <defs>
    <linearGradient id="bg" x1="0" x2="1" y1="0" y2="1">
      <stop stop-color="#111820"/>
      <stop offset="1" stop-color="#12b7a6" stop-opacity="0.22"/>
    </linearGradient>
  </defs>
  <rect width="800" height="420" fill="url(#bg)"/>
  <circle cx="160" cy="168" r="133" fill="#fffaf4" opacity="0.13"/>
  <circle cx="554" cy="254" r="112" fill="#315be8" opacity="0.16"/>
  <circle cx="104" cy="260" r="4" fill="#12b7a6" opacity="0.41000000000000003"/><circle cx="411" cy="349" r="4" fill="#12b7a6" opacity="0.4"/><circle cx="206" cy="82" r="4" fill="#12b7a6" opacity="0.43000000000000005"/><circle cx="513" cy="171" r="4" fill="#12b7a6" opacity="0.42000000000000004"/><circle cx="616" cy="275" r="5" fill="#12b7a6" opacity="0.37"/><circle cx="207" cy="364" r="5" fill="#12b7a6" opacity="0.36000000000000004"/><circle cx="718" cy="96" r="4" fill="#12b7a6" opacity="0.39"/><circle cx="309" cy="186" r="5" fill="#12b7a6" opacity="0.38"/><circle cx="512" cy="231" r="4" fill="#12b7a6" opacity="0.49"/>
  <rect width="800" height="420" fill="#fffaf4"/><rect x="108" y="72" width="584" height="276" rx="28" fill="#315be8"/><rect x="108" y="72" width="584" height="58" rx="28" fill="#12b7a6"/><path d="M258 206l-62 44 62 44M542 206l62 44-62 44" stroke="#fffaf4" stroke-width="20" stroke-linecap="round" stroke-linejoin="round" fill="none"/><path d="M364 306l72-184" stroke="#12b7a6" stroke-width="18" stroke-linecap="round"/>
</svg>
