<svg xmlns="http://www.w3.org/2000/svg" viewBox="0 0 800 420" role="img" aria-label="Ilustracion propia de tecnologia para esta pregunta">
  <defs>
    <linearGradient id="bg" x1="0" x2="1" y1="0" y2="1">
      <stop stop-color="#111820"/>
      <stop offset="1" stop-color="#fffaf4" stop-opacity="0.22"/>
    </linearGradient>
  </defs>
  <rect width="800" height="420" fill="url(#bg)"/>
  <circle cx="496" cy="185" r="114" fill="#fffaf4" opacity="0.13"/>
  <circle cx="446" cy="256" r="100" fill="#315be8" opacity="0.16"/>
  <circle cx="588" cy="274" r="3" fill="#12b7a6" opacity="0.72"/><circle cx="179" cy="363" r="3" fill="#12b7a6" opacity="0.71"/><circle cx="690" cy="95" r="3" fill="#12b7a6" opacity="0.29000000000000004"/><circle cx="281" cy="184" r="3" fill="#12b7a6" opacity="0.28"/><circle cx="76" cy="259" r="3" fill="#12b7a6" opacity="0.31000000000000005"/><circle cx="383" cy="348" r="3" fill="#12b7a6" opacity="0.30000000000000004"/><circle cx="178" cy="81" r="3" fill="#12b7a6" opacity="0.33"/><circle cx="485" cy="170" r="3" fill="#12b7a6" opacity="0.32"/><circle cx="180" cy="303" r="3" fill="#12b7a6" opacity="0.64"/>
  <rect width="800" height="420" fill="#fffaf4"/><rect x="108" y="72" width="584" height="276" rx="28" fill="#315be8"/><rect x="108" y="72" width="584" height="58" rx="28" fill="#12b7a6"/><path d="M210 206l-62 44 62 44M590 206l62 44-62 44" stroke="#fffaf4" stroke-width="20" stroke-linecap="round" stroke-linejoin="round" fill="none"/><path d="M364 306l72-184" stroke="#12b7a6" stroke-width="18" stroke-linecap="round"/>
</svg>
