<svg xmlns="http://www.w3.org/2000/svg" viewBox="0 0 800 420" role="img" aria-label="Ilustracion propia de estadio y futbol generico para esta pregunta">
  <defs>
    <linearGradient id="bg" x1="0" x2="1" y1="0" y2="1">
      <stop stop-color="#eaf8f5"/>
      <stop offset="1" stop-color="#f6bc42" stop-opacity="0.22"/>
    </linearGradient>
  </defs>
  <rect width="800" height="420" fill="url(#bg)"/>
  <circle cx="546" cy="159" r="77" fill="#26b99f" opacity="0.13"/>
  <circle cx="527" cy="181" r="135" fill="#f6bc42" opacity="0.16"/>
  <circle cx="106" cy="119" r="2" fill="#15191d" opacity="0.71"/><circle cx="413" cy="208" r="2" fill="#15191d" opacity="0.7"/><circle cx="720" cy="297" r="2" fill="#15191d" opacity="0.69"/><circle cx="311" cy="44" r="2" fill="#15191d" opacity="0.68"/><circle cx="618" cy="133" r="2" fill="#15191d" opacity="0.67"/><circle cx="209" cy="223" r="2" fill="#15191d" opacity="0.66"/><circle cx="516" cy="312" r="2" fill="#15191d" opacity="0.65"/><circle cx="107" cy="59" r="2" fill="#15191d" opacity="0.64"/><circle cx="414" cy="148" r="3" fill="#15191d" opacity="0.63"/>
  <rect x="118" y="78" width="564" height="264" rx="26" fill="#f6bc42"/><path d="M400 78v264M118 210h564" stroke="#fff" stroke-width="7" opacity=".76"/><circle cx="400" cy="210" r="58" fill="none" stroke="#fff" stroke-width="7" opacity=".76"/><circle cx="220" cy="164" r="32" fill="#fff"/><path d="M188 164h64M220 132v64" stroke="#26b99f" stroke-width="5" opacity=".5"/>
</svg>
