<svg xmlns="http://www.w3.org/2000/svg" viewBox="0 0 800 420" role="img" aria-label="Ilustracion propia de tecnologia para esta pregunta">
  <defs>
    <linearGradient id="bg" x1="0" x2="1" y1="0" y2="1">
      <stop stop-color="#111820"/>
      <stop offset="1" stop-color="#fffaf4" stop-opacity="0.22"/>
    </linearGradient>
  </defs>
  <rect width="800" height="420" fill="url(#bg)"/>
  <circle cx="656" cy="239" r="136" fill="#fffaf4" opacity="0.13"/>
  <circle cx="316" cy="119" r="113" fill="#315be8" opacity="0.16"/>
  <circle cx="169" cy="346" r="5" fill="#12b7a6" opacity="0.51"/><circle cx="578" cy="256" r="5" fill="#12b7a6" opacity="0.52"/><circle cx="67" cy="182" r="5" fill="#12b7a6" opacity="0.49"/><circle cx="476" cy="93" r="5" fill="#12b7a6" opacity="0.5"/><circle cx="373" cy="331" r="5" fill="#12b7a6" opacity="0.55"/><circle cx="66" cy="242" r="5" fill="#12b7a6" opacity="0.56"/><circle cx="271" cy="167" r="5" fill="#12b7a6" opacity="0.53"/><circle cx="680" cy="78" r="5" fill="#12b7a6" opacity="0.54"/><circle cx="477" cy="375" r="5" fill="#12b7a6" opacity="0.43000000000000005"/>
  <rect width="800" height="420" fill="#fffaf4"/><rect x="108" y="72" width="584" height="276" rx="28" fill="#315be8"/><rect x="108" y="72" width="584" height="58" rx="28" fill="#12b7a6"/><path d="M210 206l-62 44 62 44M590 206l62 44-62 44" stroke="#fffaf4" stroke-width="20" stroke-linecap="round" stroke-linejoin="round" fill="none"/><path d="M364 306l72-184" stroke="#12b7a6" stroke-width="18" stroke-linecap="round"/>
</svg>
