<svg xmlns="http://www.w3.org/2000/svg" viewBox="0 0 800 420" role="img" aria-label="Ilustracion propia de tecnologia para esta pregunta">
  <defs>
    <linearGradient id="bg" x1="0" x2="1" y1="0" y2="1">
      <stop stop-color="#111820"/>
      <stop offset="1" stop-color="#fffaf4" stop-opacity="0.22"/>
    </linearGradient>
  </defs>
  <rect width="800" height="420" fill="url(#bg)"/>
  <circle cx="652" cy="294" r="120" fill="#fffaf4" opacity="0.13"/>
  <circle cx="315" cy="126" r="91" fill="#315be8" opacity="0.16"/>
  <circle cx="217" cy="270" r="4" fill="#12b7a6" opacity="0.71"/><circle cx="626" cy="181" r="4" fill="#12b7a6" opacity="0.72"/><circle cx="115" cy="106" r="4" fill="#12b7a6" opacity="0.69"/><circle cx="524" cy="359" r="4" fill="#12b7a6" opacity="0.7"/><circle cx="421" cy="256" r="4" fill="#12b7a6" opacity="0.30000000000000004"/><circle cx="114" cy="166" r="4" fill="#12b7a6" opacity="0.31000000000000005"/><circle cx="319" cy="92" r="4" fill="#12b7a6" opacity="0.28"/><circle cx="728" cy="345" r="4" fill="#12b7a6" opacity="0.29000000000000004"/><circle cx="525" cy="299" r="4" fill="#12b7a6" opacity="0.63"/>
  <rect width="800" height="420" fill="#fffaf4"/><rect x="108" y="72" width="584" height="276" rx="28" fill="#315be8"/><rect x="108" y="72" width="584" height="58" rx="28" fill="#12b7a6"/><path d="M222 206l-62 44 62 44M578 206l62 44-62 44" stroke="#fffaf4" stroke-width="20" stroke-linecap="round" stroke-linejoin="round" fill="none"/><path d="M364 306l72-184" stroke="#12b7a6" stroke-width="18" stroke-linecap="round"/>
</svg>
