<svg xmlns="http://www.w3.org/2000/svg" viewBox="0 0 800 420" role="img" aria-label="Ilustracion propia de tecnologia para esta pregunta">
  <defs>
    <linearGradient id="bg" x1="0" x2="1" y1="0" y2="1">
      <stop stop-color="#111820"/>
      <stop offset="1" stop-color="#111820" stop-opacity="0.22"/>
    </linearGradient>
  </defs>
  <rect width="800" height="420" fill="url(#bg)"/>
  <circle cx="676" cy="104" r="116" fill="#fffaf4" opacity="0.13"/>
  <circle cx="243" cy="210" r="80" fill="#315be8" opacity="0.16"/>
  <circle cx="311" cy="284" r="5" fill="#12b7a6" opacity="0.45000000000000007"/><circle cx="720" cy="195" r="5" fill="#12b7a6" opacity="0.46"/><circle cx="413" cy="106" r="5" fill="#12b7a6" opacity="0.47000000000000003"/><circle cx="106" cy="359" r="5" fill="#12b7a6" opacity="0.48000000000000004"/><circle cx="283" cy="55" r="5" fill="#12b7a6" opacity="0.35000000000000003"/><circle cx="692" cy="308" r="5" fill="#12b7a6" opacity="0.36000000000000004"/><circle cx="385" cy="219" r="5" fill="#12b7a6" opacity="0.37"/><circle cx="78" cy="130" r="5" fill="#12b7a6" opacity="0.38"/><circle cx="487" cy="41" r="5" fill="#12b7a6" opacity="0.39"/>
  <rect width="800" height="420" fill="#fffaf4"/><rect x="108" y="72" width="584" height="276" rx="28" fill="#315be8"/><rect x="108" y="72" width="584" height="58" rx="28" fill="#12b7a6"/><path d="M210 206l-62 44 62 44M590 206l62 44-62 44" stroke="#fffaf4" stroke-width="20" stroke-linecap="round" stroke-linejoin="round" fill="none"/><path d="M364 306l72-184" stroke="#12b7a6" stroke-width="18" stroke-linecap="round"/>
</svg>
