<svg xmlns="http://www.w3.org/2000/svg" viewBox="0 0 800 420" role="img" aria-label="Ilustracion propia de tecnologia para esta pregunta">
  <defs>
    <linearGradient id="bg" x1="0" x2="1" y1="0" y2="1">
      <stop stop-color="#111820"/>
      <stop offset="1" stop-color="#fffaf4" stop-opacity="0.22"/>
    </linearGradient>
  </defs>
  <rect width="800" height="420" fill="url(#bg)"/>
  <circle cx="581" cy="286" r="86" fill="#fffaf4" opacity="0.13"/>
  <circle cx="306" cy="161" r="116" fill="#315be8" opacity="0.16"/>
  <circle cx="572" cy="189" r="5" fill="#12b7a6" opacity="0.65"/><circle cx="163" cy="279" r="5" fill="#12b7a6" opacity="0.64"/><circle cx="674" cy="353" r="5" fill="#12b7a6" opacity="0.67"/><circle cx="265" cy="100" r="5" fill="#12b7a6" opacity="0.66"/><circle cx="368" cy="204" r="5" fill="#12b7a6" opacity="0.6100000000000001"/><circle cx="675" cy="293" r="5" fill="#12b7a6" opacity="0.6000000000000001"/><circle cx="470" cy="368" r="5" fill="#12b7a6" opacity="0.63"/><circle cx="61" cy="115" r="5" fill="#12b7a6" opacity="0.6200000000000001"/><circle cx="164" cy="219" r="5" fill="#12b7a6" opacity="0.5700000000000001"/>
  <rect width="800" height="420" fill="#fffaf4"/><rect x="108" y="72" width="584" height="276" rx="28" fill="#315be8"/><rect x="108" y="72" width="584" height="58" rx="28" fill="#12b7a6"/><path d="M210 206l-62 44 62 44M590 206l62 44-62 44" stroke="#fffaf4" stroke-width="20" stroke-linecap="round" stroke-linejoin="round" fill="none"/><path d="M364 306l72-184" stroke="#12b7a6" stroke-width="18" stroke-linecap="round"/>
</svg>
