<svg xmlns="http://www.w3.org/2000/svg" viewBox="0 0 800 420" role="img" aria-label="Ilustracion propia de tecnologia para esta pregunta">
  <defs>
    <linearGradient id="bg" x1="0" x2="1" y1="0" y2="1">
      <stop stop-color="#111820"/>
      <stop offset="1" stop-color="#fffaf4" stop-opacity="0.22"/>
    </linearGradient>
  </defs>
  <rect width="800" height="420" fill="url(#bg)"/>
  <circle cx="378" cy="171" r="90" fill="#fffaf4" opacity="0.13"/>
  <circle cx="431" cy="218" r="117" fill="#315be8" opacity="0.16"/>
  <circle cx="59" cy="69" r="5" fill="#12b7a6" opacity="0.66"/><circle cx="468" cy="322" r="5" fill="#12b7a6" opacity="0.67"/><circle cx="161" cy="233" r="5" fill="#12b7a6" opacity="0.68"/><circle cx="570" cy="144" r="5" fill="#12b7a6" opacity="0.69"/><circle cx="571" cy="84" r="2" fill="#12b7a6" opacity="0.6200000000000001"/><circle cx="264" cy="337" r="2" fill="#12b7a6" opacity="0.63"/><circle cx="673" cy="247" r="5" fill="#12b7a6" opacity="0.64"/><circle cx="366" cy="158" r="5" fill="#12b7a6" opacity="0.65"/><circle cx="367" cy="98" r="2" fill="#12b7a6" opacity="0.5800000000000001"/>
  <rect width="800" height="420" fill="#fffaf4"/><rect x="108" y="72" width="584" height="276" rx="28" fill="#315be8"/><rect x="108" y="72" width="584" height="58" rx="28" fill="#12b7a6"/><path d="M234 206l-62 44 62 44M566 206l62 44-62 44" stroke="#fffaf4" stroke-width="20" stroke-linecap="round" stroke-linejoin="round" fill="none"/><path d="M364 306l72-184" stroke="#12b7a6" stroke-width="18" stroke-linecap="round"/>
</svg>
