<svg xmlns="http://www.w3.org/2000/svg" viewBox="0 0 800 420" role="img" aria-label="Ilustracion propia de tecnologia para esta pregunta">
  <defs>
    <linearGradient id="bg" x1="0" x2="1" y1="0" y2="1">
      <stop stop-color="#111820"/>
      <stop offset="1" stop-color="#fffaf4" stop-opacity="0.22"/>
    </linearGradient>
  </defs>
  <rect width="800" height="420" fill="url(#bg)"/>
  <circle cx="574" cy="334" r="88" fill="#fffaf4" opacity="0.13"/>
  <circle cx="530" cy="131" r="107" fill="#315be8" opacity="0.16"/>
  <circle cx="665" cy="304" r="4" fill="#12b7a6" opacity="0.33"/><circle cx="358" cy="215" r="4" fill="#12b7a6" opacity="0.34"/><circle cx="563" cy="140" r="4" fill="#12b7a6" opacity="0.31000000000000005"/><circle cx="256" cy="51" r="4" fill="#12b7a6" opacity="0.32"/><circle cx="461" cy="318" r="4" fill="#12b7a6" opacity="0.29000000000000004"/><circle cx="154" cy="229" r="4" fill="#12b7a6" opacity="0.30000000000000004"/><circle cx="359" cy="155" r="5" fill="#12b7a6" opacity="0.72"/><circle cx="52" cy="65" r="5" fill="#12b7a6" opacity="0.28"/><circle cx="357" cy="275" r="4" fill="#12b7a6" opacity="0.41000000000000003"/>
  <rect width="800" height="420" fill="#fffaf4"/><rect x="108" y="72" width="584" height="276" rx="28" fill="#315be8"/><rect x="108" y="72" width="584" height="58" rx="28" fill="#12b7a6"/><path d="M246 206l-62 44 62 44M554 206l62 44-62 44" stroke="#fffaf4" stroke-width="20" stroke-linecap="round" stroke-linejoin="round" fill="none"/><path d="M364 306l72-184" stroke="#12b7a6" stroke-width="18" stroke-linecap="round"/>
</svg>
