<svg xmlns="http://www.w3.org/2000/svg" viewBox="0 0 800 420" role="img" aria-label="Ilustracion propia de tecnologia para esta pregunta">
  <defs>
    <linearGradient id="bg" x1="0" x2="1" y1="0" y2="1">
      <stop stop-color="#111820"/>
      <stop offset="1" stop-color="#111820" stop-opacity="0.22"/>
    </linearGradient>
  </defs>
  <rect width="800" height="420" fill="url(#bg)"/>
  <circle cx="483" cy="128" r="68" fill="#fffaf4" opacity="0.13"/>
  <circle cx="594" cy="284" r="104" fill="#315be8" opacity="0.16"/>
  <circle cx="126" cy="90" r="5" fill="#12b7a6" opacity="0.55"/><circle cx="433" cy="179" r="5" fill="#12b7a6" opacity="0.54"/><circle cx="740" cy="268" r="5" fill="#12b7a6" opacity="0.53"/><circle cx="331" cy="357" r="5" fill="#12b7a6" opacity="0.52"/><circle cx="638" cy="104" r="5" fill="#12b7a6" opacity="0.51"/><circle cx="229" cy="193" r="5" fill="#12b7a6" opacity="0.5"/><circle cx="536" cy="282" r="5" fill="#12b7a6" opacity="0.49"/><circle cx="127" cy="372" r="5" fill="#12b7a6" opacity="0.48000000000000004"/><circle cx="434" cy="119" r="5" fill="#12b7a6" opacity="0.47000000000000003"/>
  <rect width="800" height="420" fill="#fffaf4"/><rect x="108" y="72" width="584" height="276" rx="28" fill="#315be8"/><rect x="108" y="72" width="584" height="58" rx="28" fill="#12b7a6"/><path d="M234 206l-62 44 62 44M566 206l62 44-62 44" stroke="#fffaf4" stroke-width="20" stroke-linecap="round" stroke-linejoin="round" fill="none"/><path d="M364 306l72-184" stroke="#12b7a6" stroke-width="18" stroke-linecap="round"/>
</svg>
