<svg xmlns="http://www.w3.org/2000/svg" viewBox="0 0 800 420" role="img" aria-label="Ilustracion propia de tecnologia para esta pregunta">
  <defs>
    <linearGradient id="bg" x1="0" x2="1" y1="0" y2="1">
      <stop stop-color="#111820"/>
      <stop offset="1" stop-color="#12b7a6" stop-opacity="0.22"/>
    </linearGradient>
  </defs>
  <rect width="800" height="420" fill="url(#bg)"/>
  <circle cx="240" cy="210" r="73" fill="#fffaf4" opacity="0.13"/>
  <circle cx="489" cy="187" r="65" fill="#315be8" opacity="0.16"/>
  <circle cx="619" cy="258" r="3" fill="#12b7a6" opacity="0.68"/><circle cx="312" cy="169" r="3" fill="#12b7a6" opacity="0.69"/><circle cx="721" cy="80" r="3" fill="#12b7a6" opacity="0.7"/><circle cx="414" cy="333" r="3" fill="#12b7a6" opacity="0.71"/><circle cx="415" cy="273" r="3" fill="#12b7a6" opacity="0.64"/><circle cx="108" cy="184" r="3" fill="#12b7a6" opacity="0.65"/><circle cx="517" cy="94" r="3" fill="#12b7a6" opacity="0.66"/><circle cx="210" cy="347" r="3" fill="#12b7a6" opacity="0.67"/><circle cx="211" cy="287" r="3" fill="#12b7a6" opacity="0.6000000000000001"/>
  <rect width="800" height="420" fill="#fffaf4"/><rect x="108" y="72" width="584" height="276" rx="28" fill="#315be8"/><rect x="108" y="72" width="584" height="58" rx="28" fill="#12b7a6"/><path d="M258 206l-62 44 62 44M542 206l62 44-62 44" stroke="#fffaf4" stroke-width="20" stroke-linecap="round" stroke-linejoin="round" fill="none"/><path d="M364 306l72-184" stroke="#12b7a6" stroke-width="18" stroke-linecap="round"/>
</svg>
