<svg xmlns="http://www.w3.org/2000/svg" viewBox="0 0 800 420" role="img" aria-label="Ilustracion propia de tecnologia para esta pregunta">
  <defs>
    <linearGradient id="bg" x1="0" x2="1" y1="0" y2="1">
      <stop stop-color="#111820"/>
      <stop offset="1" stop-color="#fffaf4" stop-opacity="0.22"/>
    </linearGradient>
  </defs>
  <rect width="800" height="420" fill="url(#bg)"/>
  <circle cx="428" cy="214" r="68" fill="#fffaf4" opacity="0.13"/>
  <circle cx="587" cy="81" r="74" fill="#315be8" opacity="0.16"/>
  <circle cx="453" cy="80" r="2" fill="#12b7a6" opacity="0.38"/><circle cx="146" cy="333" r="2" fill="#12b7a6" opacity="0.39"/><circle cx="351" cy="259" r="2" fill="#12b7a6" opacity="0.36000000000000004"/><circle cx="44" cy="170" r="2" fill="#12b7a6" opacity="0.37"/><circle cx="657" cy="66" r="2" fill="#12b7a6" opacity="0.42000000000000004"/><circle cx="350" cy="319" r="2" fill="#12b7a6" opacity="0.43000000000000005"/><circle cx="555" cy="244" r="2" fill="#12b7a6" opacity="0.4"/><circle cx="248" cy="155" r="2" fill="#12b7a6" opacity="0.41000000000000003"/><circle cx="45" cy="110" r="2" fill="#12b7a6" opacity="0.30000000000000004"/>
  <rect width="800" height="420" fill="#fffaf4"/><rect x="108" y="72" width="584" height="276" rx="28" fill="#315be8"/><rect x="108" y="72" width="584" height="58" rx="28" fill="#12b7a6"/><path d="M234 206l-62 44 62 44M566 206l62 44-62 44" stroke="#fffaf4" stroke-width="20" stroke-linecap="round" stroke-linejoin="round" fill="none"/><path d="M364 306l72-184" stroke="#12b7a6" stroke-width="18" stroke-linecap="round"/>
</svg>
