<svg xmlns="http://www.w3.org/2000/svg" viewBox="0 0 800 420" role="img" aria-label="Ilustracion propia de tecnologia para esta pregunta">
  <defs>
    <linearGradient id="bg" x1="0" x2="1" y1="0" y2="1">
      <stop stop-color="#111820"/>
      <stop offset="1" stop-color="#111820" stop-opacity="0.22"/>
    </linearGradient>
  </defs>
  <rect width="800" height="420" fill="url(#bg)"/>
  <circle cx="483" cy="312" r="78" fill="#fffaf4" opacity="0.13"/>
  <circle cx="219" cy="236" r="75" fill="#315be8" opacity="0.16"/>
  <circle cx="354" cy="356" r="5" fill="#12b7a6" opacity="0.66"/><circle cx="661" cy="103" r="5" fill="#12b7a6" opacity="0.65"/><circle cx="252" cy="192" r="5" fill="#12b7a6" opacity="0.64"/><circle cx="559" cy="281" r="5" fill="#12b7a6" opacity="0.63"/><circle cx="558" cy="341" r="5" fill="#12b7a6" opacity="0.7"/><circle cx="149" cy="88" r="5" fill="#12b7a6" opacity="0.69"/><circle cx="456" cy="177" r="5" fill="#12b7a6" opacity="0.68"/><circle cx="47" cy="267" r="5" fill="#12b7a6" opacity="0.67"/><circle cx="662" cy="43" r="5" fill="#12b7a6" opacity="0.5800000000000001"/>
  <rect width="800" height="420" fill="#fffaf4"/><rect x="108" y="72" width="584" height="276" rx="28" fill="#315be8"/><rect x="108" y="72" width="584" height="58" rx="28" fill="#12b7a6"/><path d="M234 206l-62 44 62 44M566 206l62 44-62 44" stroke="#fffaf4" stroke-width="20" stroke-linecap="round" stroke-linejoin="round" fill="none"/><path d="M364 306l72-184" stroke="#12b7a6" stroke-width="18" stroke-linecap="round"/>
</svg>
