<svg xmlns="http://www.w3.org/2000/svg" viewBox="0 0 800 420" role="img" aria-label="Ilustracion propia de estadio y futbol generico para esta pregunta">
  <defs>
    <linearGradient id="bg" x1="0" x2="1" y1="0" y2="1">
      <stop stop-color="#eaf8f5"/>
      <stop offset="1" stop-color="#15191d" stop-opacity="0.22"/>
    </linearGradient>
  </defs>
  <rect width="800" height="420" fill="url(#bg)"/>
  <circle cx="285" cy="239" r="117" fill="#26b99f" opacity="0.13"/>
  <circle cx="644" cy="298" r="100" fill="#f6bc42" opacity="0.16"/>
  <circle cx="753" cy="259" r="5" fill="#15191d" opacity="0.6200000000000001"/><circle cx="446" cy="170" r="5" fill="#15191d" opacity="0.63"/><circle cx="651" cy="95" r="5" fill="#15191d" opacity="0.6000000000000001"/><circle cx="344" cy="348" r="5" fill="#15191d" opacity="0.6100000000000001"/><circle cx="241" cy="244" r="5" fill="#15191d" opacity="0.66"/><circle cx="650" cy="155" r="5" fill="#15191d" opacity="0.67"/><circle cx="139" cy="81" r="5" fill="#15191d" opacity="0.64"/><circle cx="548" cy="333" r="5" fill="#15191d" opacity="0.65"/><circle cx="345" cy="288" r="5" fill="#15191d" opacity="0.54"/>
  <rect x="118" y="78" width="564" height="264" rx="26" fill="#f6bc42"/><path d="M400 78v264M118 210h564" stroke="#fff" stroke-width="7" opacity=".76"/><circle cx="400" cy="210" r="58" fill="none" stroke="#fff" stroke-width="7" opacity=".76"/><circle cx="372" cy="236" r="32" fill="#fff"/><path d="M340 236h64M372 204v64" stroke="#26b99f" stroke-width="5" opacity=".5"/>
</svg>
