<svg xmlns="http://www.w3.org/2000/svg" viewBox="0 0 800 420" role="img" aria-label="Ilustracion propia de tecnologia para esta pregunta">
  <defs>
    <linearGradient id="bg" x1="0" x2="1" y1="0" y2="1">
      <stop stop-color="#111820"/>
      <stop offset="1" stop-color="#111820" stop-opacity="0.22"/>
    </linearGradient>
  </defs>
  <rect width="800" height="420" fill="url(#bg)"/>
  <circle cx="338" cy="153" r="66" fill="#fffaf4" opacity="0.13"/>
  <circle cx="351" cy="109" r="94" fill="#315be8" opacity="0.16"/>
  <circle cx="666" cy="102" r="3" fill="#12b7a6" opacity="0.66"/><circle cx="257" cy="191" r="3" fill="#12b7a6" opacity="0.65"/><circle cx="564" cy="280" r="3" fill="#12b7a6" opacity="0.64"/><circle cx="155" cy="369" r="3" fill="#12b7a6" opacity="0.63"/><circle cx="462" cy="116" r="3" fill="#12b7a6" opacity="0.6200000000000001"/><circle cx="53" cy="205" r="3" fill="#12b7a6" opacity="0.6100000000000001"/><circle cx="360" cy="295" r="3" fill="#12b7a6" opacity="0.6000000000000001"/><circle cx="667" cy="42" r="3" fill="#12b7a6" opacity="0.5900000000000001"/><circle cx="258" cy="131" r="3" fill="#12b7a6" opacity="0.5800000000000001"/>
  <rect width="800" height="420" fill="#fffaf4"/><rect x="108" y="72" width="584" height="276" rx="28" fill="#315be8"/><rect x="108" y="72" width="584" height="58" rx="28" fill="#12b7a6"/><path d="M234 206l-62 44 62 44M566 206l62 44-62 44" stroke="#fffaf4" stroke-width="20" stroke-linecap="round" stroke-linejoin="round" fill="none"/><path d="M364 306l72-184" stroke="#12b7a6" stroke-width="18" stroke-linecap="round"/>
</svg>
