<svg xmlns="http://www.w3.org/2000/svg" viewBox="0 0 800 420" role="img" aria-label="Ilustracion propia de tecnologia para esta pregunta">
  <defs>
    <linearGradient id="bg" x1="0" x2="1" y1="0" y2="1">
      <stop stop-color="#111820"/>
      <stop offset="1" stop-color="#111820" stop-opacity="0.22"/>
    </linearGradient>
  </defs>
  <rect width="800" height="420" fill="url(#bg)"/>
  <circle cx="662" cy="222" r="100" fill="#fffaf4" opacity="0.13"/>
  <circle cx="466" cy="82" r="78" fill="#315be8" opacity="0.16"/>
  <circle cx="501" cy="353" r="4" fill="#12b7a6" opacity="0.71"/><circle cx="194" cy="264" r="4" fill="#12b7a6" opacity="0.72"/><circle cx="399" cy="189" r="4" fill="#12b7a6" opacity="0.69"/><circle cx="92" cy="100" r="4" fill="#12b7a6" opacity="0.7"/><circle cx="705" cy="338" r="4" fill="#12b7a6" opacity="0.30000000000000004"/><circle cx="398" cy="249" r="4" fill="#12b7a6" opacity="0.31000000000000005"/><circle cx="603" cy="175" r="4" fill="#12b7a6" opacity="0.28"/><circle cx="296" cy="85" r="4" fill="#12b7a6" opacity="0.29000000000000004"/><circle cx="193" cy="324" r="4" fill="#12b7a6" opacity="0.34"/>
  <rect width="800" height="420" fill="#fffaf4"/><rect x="108" y="72" width="584" height="276" rx="28" fill="#315be8"/><rect x="108" y="72" width="584" height="58" rx="28" fill="#12b7a6"/><path d="M222 206l-62 44 62 44M578 206l62 44-62 44" stroke="#fffaf4" stroke-width="20" stroke-linecap="round" stroke-linejoin="round" fill="none"/><path d="M364 306l72-184" stroke="#12b7a6" stroke-width="18" stroke-linecap="round"/>
</svg>
