<svg xmlns="http://www.w3.org/2000/svg" viewBox="0 0 800 420" role="img" aria-label="Ilustracion propia de tecnologia para esta pregunta">
  <defs>
    <linearGradient id="bg" x1="0" x2="1" y1="0" y2="1">
      <stop stop-color="#111820"/>
      <stop offset="1" stop-color="#fffaf4" stop-opacity="0.22"/>
    </linearGradient>
  </defs>
  <rect width="800" height="420" fill="url(#bg)"/>
  <circle cx="436" cy="71" r="128" fill="#fffaf4" opacity="0.13"/>
  <circle cx="213" cy="241" r="142" fill="#315be8" opacity="0.16"/>
  <circle cx="716" cy="112" r="5" fill="#12b7a6" opacity="0.6200000000000001"/><circle cx="307" cy="201" r="5" fill="#12b7a6" opacity="0.6100000000000001"/><circle cx="102" cy="275" r="5" fill="#12b7a6" opacity="0.64"/><circle cx="409" cy="365" r="5" fill="#12b7a6" opacity="0.63"/><circle cx="204" cy="97" r="5" fill="#12b7a6" opacity="0.66"/><circle cx="511" cy="186" r="5" fill="#12b7a6" opacity="0.65"/><circle cx="306" cy="261" r="5" fill="#12b7a6" opacity="0.68"/><circle cx="613" cy="350" r="5" fill="#12b7a6" opacity="0.67"/><circle cx="408" cy="83" r="5" fill="#12b7a6" opacity="0.7"/>
  <rect width="800" height="420" fill="#fffaf4"/><rect x="108" y="72" width="584" height="276" rx="28" fill="#315be8"/><rect x="108" y="72" width="584" height="58" rx="28" fill="#12b7a6"/><path d="M210 206l-62 44 62 44M590 206l62 44-62 44" stroke="#fffaf4" stroke-width="20" stroke-linecap="round" stroke-linejoin="round" fill="none"/><path d="M364 306l72-184" stroke="#12b7a6" stroke-width="18" stroke-linecap="round"/>
</svg>
