<svg xmlns="http://www.w3.org/2000/svg" viewBox="0 0 800 420" role="img" aria-label="Ilustracion propia de tecnologia para esta pregunta">
  <defs>
    <linearGradient id="bg" x1="0" x2="1" y1="0" y2="1">
      <stop stop-color="#111820"/>
      <stop offset="1" stop-color="#fffaf4" stop-opacity="0.22"/>
    </linearGradient>
  </defs>
  <rect width="800" height="420" fill="url(#bg)"/>
  <circle cx="317" cy="189" r="82" fill="#fffaf4" opacity="0.13"/>
  <circle cx="198" cy="113" r="76" fill="#315be8" opacity="0.16"/>
  <circle cx="342" cy="297" r="4" fill="#12b7a6" opacity="0.53"/><circle cx="649" cy="44" r="4" fill="#12b7a6" opacity="0.52"/><circle cx="240" cy="133" r="4" fill="#12b7a6" opacity="0.51"/><circle cx="547" cy="222" r="4" fill="#12b7a6" opacity="0.5"/><circle cx="138" cy="311" r="4" fill="#12b7a6" opacity="0.49"/><circle cx="445" cy="58" r="4" fill="#12b7a6" opacity="0.48000000000000004"/><circle cx="752" cy="148" r="4" fill="#12b7a6" opacity="0.47000000000000003"/><circle cx="343" cy="237" r="4" fill="#12b7a6" opacity="0.46"/><circle cx="650" cy="326" r="4" fill="#12b7a6" opacity="0.45000000000000007"/>
  <rect width="800" height="420" fill="#fffaf4"/><rect x="108" y="72" width="584" height="276" rx="28" fill="#315be8"/><rect x="108" y="72" width="584" height="58" rx="28" fill="#12b7a6"/><path d="M222 206l-62 44 62 44M578 206l62 44-62 44" stroke="#fffaf4" stroke-width="20" stroke-linecap="round" stroke-linejoin="round" fill="none"/><path d="M364 306l72-184" stroke="#12b7a6" stroke-width="18" stroke-linecap="round"/>
</svg>
