<svg xmlns="http://www.w3.org/2000/svg" viewBox="0 0 800 420" role="img" aria-label="Ilustracion propia de tecnologia para esta pregunta">
  <defs>
    <linearGradient id="bg" x1="0" x2="1" y1="0" y2="1">
      <stop stop-color="#111820"/>
      <stop offset="1" stop-color="#111820" stop-opacity="0.22"/>
    </linearGradient>
  </defs>
  <rect width="800" height="420" fill="url(#bg)"/>
  <circle cx="320" cy="279" r="102" fill="#fffaf4" opacity="0.13"/>
  <circle cx="349" cy="124" r="68" fill="#315be8" opacity="0.16"/>
  <circle cx="346" cy="204" r="2" fill="#12b7a6" opacity="0.42000000000000004"/><circle cx="653" cy="293" r="2" fill="#12b7a6" opacity="0.41000000000000003"/><circle cx="244" cy="40" r="2" fill="#12b7a6" opacity="0.4"/><circle cx="551" cy="129" r="2" fill="#12b7a6" opacity="0.39"/><circle cx="142" cy="219" r="2" fill="#12b7a6" opacity="0.38"/><circle cx="449" cy="308" r="2" fill="#12b7a6" opacity="0.37"/><circle cx="756" cy="55" r="2" fill="#12b7a6" opacity="0.36000000000000004"/><circle cx="347" cy="144" r="3" fill="#12b7a6" opacity="0.35000000000000003"/><circle cx="754" cy="175" r="2" fill="#12b7a6" opacity="0.5"/>
  <rect width="800" height="420" fill="#fffaf4"/><rect x="108" y="72" width="584" height="276" rx="28" fill="#315be8"/><rect x="108" y="72" width="584" height="58" rx="28" fill="#12b7a6"/><path d="M258 206l-62 44 62 44M542 206l62 44-62 44" stroke="#fffaf4" stroke-width="20" stroke-linecap="round" stroke-linejoin="round" fill="none"/><path d="M364 306l72-184" stroke="#12b7a6" stroke-width="18" stroke-linecap="round"/>
</svg>
