<svg xmlns="http://www.w3.org/2000/svg" viewBox="0 0 800 420" role="img" aria-label="Ilustracion propia de estadio y futbol generico para esta pregunta">
  <defs>
    <linearGradient id="bg" x1="0" x2="1" y1="0" y2="1">
      <stop stop-color="#eaf8f5"/>
      <stop offset="1" stop-color="#f6bc42" stop-opacity="0.22"/>
    </linearGradient>
  </defs>
  <rect width="800" height="420" fill="url(#bg)"/>
  <circle cx="223" cy="277" r="137" fill="#26b99f" opacity="0.13"/>
  <circle cx="261" cy="231" r="83" fill="#f6bc42" opacity="0.16"/>
  <circle cx="404" cy="55" r="2" fill="#15191d" opacity="0.29000000000000004"/><circle cx="711" cy="144" r="2" fill="#15191d" opacity="0.28"/><circle cx="506" cy="218" r="2" fill="#15191d" opacity="0.31000000000000005"/><circle cx="97" cy="308" r="2" fill="#15191d" opacity="0.30000000000000004"/><circle cx="608" cy="40" r="2" fill="#15191d" opacity="0.33"/><circle cx="199" cy="129" r="2" fill="#15191d" opacity="0.32"/><circle cx="710" cy="204" r="2" fill="#15191d" opacity="0.35000000000000003"/><circle cx="301" cy="293" r="2" fill="#15191d" opacity="0.34"/><circle cx="96" cy="368" r="2" fill="#15191d" opacity="0.37"/>
  <rect x="118" y="78" width="564" height="264" rx="26" fill="#f6bc42"/><path d="M400 78v264M118 210h564" stroke="#fff" stroke-width="7" opacity=".76"/><circle cx="400" cy="210" r="58" fill="none" stroke="#fff" stroke-width="7" opacity=".76"/><circle cx="296" cy="200" r="32" fill="#fff"/><path d="M264 200h64M296 168v64" stroke="#26b99f" stroke-width="5" opacity=".5"/>
</svg>
