<svg xmlns="http://www.w3.org/2000/svg" viewBox="0 0 800 420" role="img" aria-label="Ilustracion propia de tecnologia para esta pregunta">
  <defs>
    <linearGradient id="bg" x1="0" x2="1" y1="0" y2="1">
      <stop stop-color="#111820"/>
      <stop offset="1" stop-color="#fffaf4" stop-opacity="0.22"/>
    </linearGradient>
  </defs>
  <rect width="800" height="420" fill="url(#bg)"/>
  <circle cx="626" cy="276" r="76" fill="#fffaf4" opacity="0.13"/>
  <circle cx="162" cy="88" r="135" fill="#315be8" opacity="0.16"/>
  <circle cx="652" cy="147" r="5" fill="#12b7a6" opacity="0.63"/><circle cx="243" cy="236" r="5" fill="#12b7a6" opacity="0.6200000000000001"/><circle cx="754" cy="311" r="5" fill="#12b7a6" opacity="0.65"/><circle cx="345" cy="58" r="5" fill="#12b7a6" opacity="0.64"/><circle cx="140" cy="132" r="5" fill="#12b7a6" opacity="0.67"/><circle cx="447" cy="222" r="5" fill="#12b7a6" opacity="0.66"/><circle cx="242" cy="296" r="5" fill="#12b7a6" opacity="0.69"/><circle cx="549" cy="43" r="5" fill="#12b7a6" opacity="0.68"/><circle cx="344" cy="118" r="5" fill="#12b7a6" opacity="0.71"/>
  <rect width="800" height="420" fill="#fffaf4"/><rect x="108" y="72" width="584" height="276" rx="28" fill="#315be8"/><rect x="108" y="72" width="584" height="58" rx="28" fill="#12b7a6"/><path d="M210 206l-62 44 62 44M590 206l62 44-62 44" stroke="#fffaf4" stroke-width="20" stroke-linecap="round" stroke-linejoin="round" fill="none"/><path d="M364 306l72-184" stroke="#12b7a6" stroke-width="18" stroke-linecap="round"/>
</svg>
