<svg xmlns="http://www.w3.org/2000/svg" viewBox="0 0 800 420" role="img" aria-label="Ilustracion propia de cine y rodaje para esta pregunta">
  <defs>
    <linearGradient id="bg" x1="0" x2="1" y1="0" y2="1">
      <stop stop-color="#15191d"/>
      <stop offset="1" stop-color="#ff4f6d" stop-opacity="0.22"/>
    </linearGradient>
  </defs>
  <rect width="800" height="420" fill="url(#bg)"/>
  <circle cx="672" cy="115" r="77" fill="#fffaf4" opacity="0.13"/>
  <circle cx="468" cy="140" r="115" fill="#f6bc42" opacity="0.16"/>
  <circle cx="643" cy="227" r="4" fill="#ff4f6d" opacity="0.5700000000000001"/><circle cx="336" cy="138" r="4" fill="#ff4f6d" opacity="0.5800000000000001"/><circle cx="745" cy="48" r="4" fill="#ff4f6d" opacity="0.5900000000000001"/><circle cx="438" cy="301" r="4" fill="#ff4f6d" opacity="0.6000000000000001"/><circle cx="439" cy="241" r="4" fill="#ff4f6d" opacity="0.53"/><circle cx="132" cy="152" r="4" fill="#ff4f6d" opacity="0.54"/><circle cx="541" cy="63" r="4" fill="#ff4f6d" opacity="0.55"/><circle cx="234" cy="316" r="4" fill="#ff4f6d" opacity="0.56"/><circle cx="235" cy="256" r="4" fill="#ff4f6d" opacity="0.49"/>
  <rect width="800" height="420" fill="#fffaf4"/><circle cx="580" cy="116" r="120" fill="#ff4f6d" opacity=".42"/><rect x="190" y="182" width="420" height="198" rx="22" fill="#f6bc42"/><rect x="190" y="116" width="420" height="70" rx="18" fill="#fffaf4"/><path d="M228 116l58 70M330 116l58 70M432 116l58 70M534 116l58 70" stroke="#fffaf4" stroke-width="20"/><rect x="244" y="254" width="312" height="18" rx="9" fill="#fffaf4" opacity=".16"/>
</svg>
