<svg xmlns="http://www.w3.org/2000/svg" viewBox="0 0 800 420" role="img" aria-label="Ilustracion propia de estadio y futbol generico para esta pregunta">
  <defs>
    <linearGradient id="bg" x1="0" x2="1" y1="0" y2="1">
      <stop stop-color="#eaf8f5"/>
      <stop offset="1" stop-color="#26b99f" stop-opacity="0.22"/>
    </linearGradient>
  </defs>
  <rect width="800" height="420" fill="url(#bg)"/>
  <circle cx="323" cy="68" r="92" fill="#26b99f" opacity="0.13"/>
  <circle cx="499" cy="313" r="127" fill="#f6bc42" opacity="0.16"/>
  <circle cx="78" cy="180" r="2" fill="#15191d" opacity="0.72"/><circle cx="385" cy="270" r="2" fill="#15191d" opacity="0.71"/><circle cx="692" cy="359" r="2" fill="#15191d" opacity="0.7"/><circle cx="283" cy="106" r="2" fill="#15191d" opacity="0.69"/><circle cx="282" cy="166" r="2" fill="#15191d" opacity="0.31000000000000005"/><circle cx="589" cy="255" r="2" fill="#15191d" opacity="0.30000000000000004"/><circle cx="180" cy="344" r="2" fill="#15191d" opacity="0.29000000000000004"/><circle cx="487" cy="91" r="2" fill="#15191d" opacity="0.28"/><circle cx="486" cy="151" r="2" fill="#15191d" opacity="0.35000000000000003"/>
  <rect x="118" y="78" width="564" height="264" rx="26" fill="#f6bc42"/><path d="M400 78v264M118 210h564" stroke="#fff" stroke-width="7" opacity=".76"/><circle cx="400" cy="210" r="58" fill="none" stroke="#fff" stroke-width="7" opacity=".76"/><circle cx="296" cy="200" r="32" fill="#fff"/><path d="M264 200h64M296 168v64" stroke="#26b99f" stroke-width="5" opacity=".5"/>
</svg>
