<svg xmlns="http://www.w3.org/2000/svg" viewBox="0 0 800 420" role="img" aria-label="Ilustracion propia de tecnologia para esta pregunta">
  <defs>
    <linearGradient id="bg" x1="0" x2="1" y1="0" y2="1">
      <stop stop-color="#111820"/>
      <stop offset="1" stop-color="#315be8" stop-opacity="0.22"/>
    </linearGradient>
  </defs>
  <rect width="800" height="420" fill="url(#bg)"/>
  <circle cx="473" cy="194" r="87" fill="#fffaf4" opacity="0.13"/>
  <circle cx="218" cy="185" r="86" fill="#315be8" opacity="0.16"/>
  <circle cx="541" cy="57" r="2" fill="#12b7a6" opacity="0.43000000000000005"/><circle cx="234" cy="310" r="2" fill="#12b7a6" opacity="0.44000000000000006"/><circle cx="439" cy="235" r="2" fill="#12b7a6" opacity="0.41000000000000003"/><circle cx="132" cy="146" r="2" fill="#12b7a6" opacity="0.42000000000000004"/><circle cx="337" cy="71" r="2" fill="#12b7a6" opacity="0.39"/><circle cx="746" cy="324" r="2" fill="#12b7a6" opacity="0.4"/><circle cx="235" cy="250" r="2" fill="#12b7a6" opacity="0.37"/><circle cx="644" cy="160" r="2" fill="#12b7a6" opacity="0.38"/><circle cx="233" cy="370" r="5" fill="#12b7a6" opacity="0.51"/>
  <rect width="800" height="420" fill="#fffaf4"/><rect x="108" y="72" width="584" height="276" rx="28" fill="#315be8"/><rect x="108" y="72" width="584" height="58" rx="28" fill="#12b7a6"/><path d="M234 206l-62 44 62 44M566 206l62 44-62 44" stroke="#fffaf4" stroke-width="20" stroke-linecap="round" stroke-linejoin="round" fill="none"/><path d="M364 306l72-184" stroke="#12b7a6" stroke-width="18" stroke-linecap="round"/>
</svg>
