<svg xmlns="http://www.w3.org/2000/svg" viewBox="0 0 800 420" role="img" aria-label="Ilustracion propia de tecnologia para esta pregunta">
  <defs>
    <linearGradient id="bg" x1="0" x2="1" y1="0" y2="1">
      <stop stop-color="#111820"/>
      <stop offset="1" stop-color="#fffaf4" stop-opacity="0.22"/>
    </linearGradient>
  </defs>
  <rect width="800" height="420" fill="url(#bg)"/>
  <circle cx="163" cy="193" r="106" fill="#fffaf4" opacity="0.13"/>
  <circle cx="479" cy="328" r="139" fill="#315be8" opacity="0.16"/>
  <circle cx="298" cy="155" r="3" fill="#12b7a6" opacity="0.39"/><circle cx="605" cy="244" r="3" fill="#12b7a6" opacity="0.38"/><circle cx="196" cy="333" r="3" fill="#12b7a6" opacity="0.37"/><circle cx="503" cy="80" r="3" fill="#12b7a6" opacity="0.36000000000000004"/><circle cx="94" cy="169" r="3" fill="#12b7a6" opacity="0.35000000000000003"/><circle cx="401" cy="258" r="3" fill="#12b7a6" opacity="0.34"/><circle cx="708" cy="348" r="3" fill="#12b7a6" opacity="0.33"/><circle cx="299" cy="95" r="3" fill="#12b7a6" opacity="0.32"/><circle cx="606" cy="184" r="3" fill="#12b7a6" opacity="0.31000000000000005"/>
  <rect width="800" height="420" fill="#fffaf4"/><rect x="108" y="72" width="584" height="276" rx="28" fill="#315be8"/><rect x="108" y="72" width="584" height="58" rx="28" fill="#12b7a6"/><path d="M234 206l-62 44 62 44M566 206l62 44-62 44" stroke="#fffaf4" stroke-width="20" stroke-linecap="round" stroke-linejoin="round" fill="none"/><path d="M364 306l72-184" stroke="#12b7a6" stroke-width="18" stroke-linecap="round"/>
</svg>
