<svg xmlns="http://www.w3.org/2000/svg" viewBox="0 0 800 420" role="img" aria-label="Ilustracion propia de tecnologia para esta pregunta">
  <defs>
    <linearGradient id="bg" x1="0" x2="1" y1="0" y2="1">
      <stop stop-color="#111820"/>
      <stop offset="1" stop-color="#12b7a6" stop-opacity="0.22"/>
    </linearGradient>
  </defs>
  <rect width="800" height="420" fill="url(#bg)"/>
  <circle cx="190" cy="100" r="101" fill="#fffaf4" opacity="0.13"/>
  <circle cx="107" cy="245" r="88" fill="#315be8" opacity="0.16"/>
  <circle cx="261" cy="152" r="3" fill="#12b7a6" opacity="0.41000000000000003"/><circle cx="670" cy="62" r="3" fill="#12b7a6" opacity="0.42000000000000004"/><circle cx="159" cy="330" r="3" fill="#12b7a6" opacity="0.39"/><circle cx="568" cy="241" r="3" fill="#12b7a6" opacity="0.4"/><circle cx="465" cy="137" r="3" fill="#12b7a6" opacity="0.45000000000000007"/><circle cx="158" cy="48" r="3" fill="#12b7a6" opacity="0.46"/><circle cx="363" cy="315" r="3" fill="#12b7a6" opacity="0.43000000000000005"/><circle cx="56" cy="226" r="3" fill="#12b7a6" opacity="0.44000000000000006"/><circle cx="569" cy="181" r="3" fill="#12b7a6" opacity="0.33"/>
  <rect width="800" height="420" fill="#fffaf4"/><rect x="108" y="72" width="584" height="276" rx="28" fill="#315be8"/><rect x="108" y="72" width="584" height="58" rx="28" fill="#12b7a6"/><path d="M258 206l-62 44 62 44M542 206l62 44-62 44" stroke="#fffaf4" stroke-width="20" stroke-linecap="round" stroke-linejoin="round" fill="none"/><path d="M364 306l72-184" stroke="#12b7a6" stroke-width="18" stroke-linecap="round"/>
</svg>
