<svg xmlns="http://www.w3.org/2000/svg" viewBox="0 0 800 420" role="img" aria-label="Ilustracion propia de tecnologia para esta pregunta">
  <defs>
    <linearGradient id="bg" x1="0" x2="1" y1="0" y2="1">
      <stop stop-color="#111820"/>
      <stop offset="1" stop-color="#111820" stop-opacity="0.22"/>
    </linearGradient>
  </defs>
  <rect width="800" height="420" fill="url(#bg)"/>
  <circle cx="687" cy="250" r="132" fill="#fffaf4" opacity="0.13"/>
  <circle cx="169" cy="264" r="72" fill="#315be8" opacity="0.16"/>
  <circle cx="304" cy="353" r="5" fill="#12b7a6" opacity="0.6200000000000001"/><circle cx="611" cy="100" r="5" fill="#12b7a6" opacity="0.6100000000000001"/><circle cx="406" cy="175" r="5" fill="#12b7a6" opacity="0.64"/><circle cx="713" cy="264" r="5" fill="#12b7a6" opacity="0.63"/><circle cx="508" cy="338" r="5" fill="#12b7a6" opacity="0.66"/><circle cx="99" cy="86" r="5" fill="#12b7a6" opacity="0.65"/><circle cx="610" cy="160" r="4" fill="#12b7a6" opacity="0.68"/><circle cx="201" cy="249" r="4" fill="#12b7a6" opacity="0.67"/><circle cx="612" cy="40" r="5" fill="#12b7a6" opacity="0.54"/>
  <rect width="800" height="420" fill="#fffaf4"/><rect x="108" y="72" width="584" height="276" rx="28" fill="#315be8"/><rect x="108" y="72" width="584" height="58" rx="28" fill="#12b7a6"/><path d="M222 206l-62 44 62 44M578 206l62 44-62 44" stroke="#fffaf4" stroke-width="20" stroke-linecap="round" stroke-linejoin="round" fill="none"/><path d="M364 306l72-184" stroke="#12b7a6" stroke-width="18" stroke-linecap="round"/>
</svg>
