<svg xmlns="http://www.w3.org/2000/svg" viewBox="0 0 800 420" role="img" aria-label="Ilustracion propia de estadio y futbol generico para esta pregunta">
  <defs>
    <linearGradient id="bg" x1="0" x2="1" y1="0" y2="1">
      <stop stop-color="#eaf8f5"/>
      <stop offset="1" stop-color="#f6bc42" stop-opacity="0.22"/>
    </linearGradient>
  </defs>
  <rect width="800" height="420" fill="url(#bg)"/>
  <circle cx="641" cy="250" r="99" fill="#26b99f" opacity="0.13"/>
  <circle cx="464" cy="264" r="138" fill="#f6bc42" opacity="0.16"/>
  <circle cx="707" cy="341" r="3" fill="#15191d" opacity="0.72"/><circle cx="400" cy="252" r="3" fill="#15191d" opacity="0.28"/><circle cx="93" cy="162" r="3" fill="#15191d" opacity="0.29000000000000004"/><circle cx="502" cy="73" r="3" fill="#15191d" opacity="0.30000000000000004"/><circle cx="195" cy="326" r="3" fill="#15191d" opacity="0.31000000000000005"/><circle cx="604" cy="237" r="3" fill="#15191d" opacity="0.32"/><circle cx="65" cy="276" r="3" fill="#15191d" opacity="0.64"/><circle cx="474" cy="187" r="3" fill="#15191d" opacity="0.65"/><circle cx="299" cy="370" r="3" fill="#15191d" opacity="0.64"/>
  <rect x="118" y="78" width="564" height="264" rx="26" fill="#f6bc42"/><path d="M400 78v264M118 210h564" stroke="#fff" stroke-width="7" opacity=".76"/><circle cx="400" cy="210" r="58" fill="none" stroke="#fff" stroke-width="7" opacity=".76"/><circle cx="220" cy="164" r="32" fill="#fff"/><path d="M188 164h64M220 132v64" stroke="#26b99f" stroke-width="5" opacity=".5"/>
</svg>
