<svg xmlns="http://www.w3.org/2000/svg" viewBox="0 0 800 420" role="img" aria-label="Ilustracion propia de estadio y futbol generico para esta pregunta">
  <defs>
    <linearGradient id="bg" x1="0" x2="1" y1="0" y2="1">
      <stop stop-color="#eaf8f5"/>
      <stop offset="1" stop-color="#15191d" stop-opacity="0.22"/>
    </linearGradient>
  </defs>
  <rect width="800" height="420" fill="url(#bg)"/>
  <circle cx="567" cy="81" r="83" fill="#26b99f" opacity="0.13"/>
  <circle cx="454" cy="314" r="106" fill="#f6bc42" opacity="0.16"/>
  <circle cx="369" cy="199" r="3" fill="#15191d" opacity="0.29000000000000004"/><circle cx="62" cy="110" r="3" fill="#15191d" opacity="0.30000000000000004"/><circle cx="267" cy="377" r="3" fill="#15191d" opacity="0.72"/><circle cx="676" cy="288" r="3" fill="#15191d" opacity="0.28"/><circle cx="397" cy="85" r="3" fill="#15191d" opacity="0.39"/><circle cx="90" cy="338" r="3" fill="#15191d" opacity="0.4"/><circle cx="295" cy="264" r="3" fill="#15191d" opacity="0.37"/><circle cx="704" cy="175" r="3" fill="#15191d" opacity="0.38"/><circle cx="193" cy="100" r="3" fill="#15191d" opacity="0.35000000000000003"/>
  <rect x="118" y="78" width="564" height="264" rx="26" fill="#f6bc42"/><path d="M400 78v264M118 210h564" stroke="#fff" stroke-width="7" opacity=".76"/><circle cx="400" cy="210" r="58" fill="none" stroke="#fff" stroke-width="7" opacity=".76"/><circle cx="258" cy="182" r="32" fill="#fff"/><path d="M226 182h64M258 150v64" stroke="#26b99f" stroke-width="5" opacity=".5"/>
</svg>
