<svg xmlns="http://www.w3.org/2000/svg" viewBox="0 0 800 420" role="img" aria-label="Ilustracion propia de tecnologia para esta pregunta">
  <defs>
    <linearGradient id="bg" x1="0" x2="1" y1="0" y2="1">
      <stop stop-color="#111820"/>
      <stop offset="1" stop-color="#111820" stop-opacity="0.22"/>
    </linearGradient>
  </defs>
  <rect width="800" height="420" fill="url(#bg)"/>
  <circle cx="586" cy="181" r="134" fill="#fffaf4" opacity="0.13"/>
  <circle cx="532" cy="327" r="102" fill="#315be8" opacity="0.16"/>
  <circle cx="592" cy="169" r="3" fill="#12b7a6" opacity="0.30000000000000004"/><circle cx="183" cy="258" r="3" fill="#12b7a6" opacity="0.29000000000000004"/><circle cx="462" cy="118" r="3" fill="#12b7a6" opacity="0.63"/><circle cx="285" cy="79" r="3" fill="#12b7a6" opacity="0.31000000000000005"/><circle cx="388" cy="183" r="3" fill="#12b7a6" opacity="0.71"/><circle cx="695" cy="272" r="3" fill="#12b7a6" opacity="0.7"/><circle cx="490" cy="347" r="3" fill="#12b7a6" opacity="0.28"/><circle cx="81" cy="94" r="3" fill="#12b7a6" opacity="0.72"/><circle cx="184" cy="198" r="3" fill="#12b7a6" opacity="0.67"/>
  <rect width="800" height="420" fill="#fffaf4"/><rect x="108" y="72" width="584" height="276" rx="28" fill="#315be8"/><rect x="108" y="72" width="584" height="58" rx="28" fill="#12b7a6"/><path d="M210 206l-62 44 62 44M590 206l62 44-62 44" stroke="#fffaf4" stroke-width="20" stroke-linecap="round" stroke-linejoin="round" fill="none"/><path d="M364 306l72-184" stroke="#12b7a6" stroke-width="18" stroke-linecap="round"/>
</svg>
