<svg xmlns="http://www.w3.org/2000/svg" viewBox="0 0 800 420" role="img" aria-label="Ilustracion propia de pista de tenis para esta pregunta">
  <defs>
    <linearGradient id="bg" x1="0" x2="1" y1="0" y2="1">
      <stop stop-color="#e8fbf5"/>
      <stop offset="1" stop-color="#e8fbf5" stop-opacity="0.22"/>
    </linearGradient>
  </defs>
  <rect width="800" height="420" fill="url(#bg)"/>
  <circle cx="236" cy="135" r="70" fill="#12b7a6" opacity="0.13"/>
  <circle cx="413" cy="106" r="94" fill="#f6bc42" opacity="0.16"/>
  <circle cx="654" cy="128" r="5" fill="#315be8" opacity="0.64"/><circle cx="245" cy="217" r="5" fill="#315be8" opacity="0.63"/><circle cx="552" cy="306" r="5" fill="#315be8" opacity="0.6200000000000001"/><circle cx="143" cy="53" r="5" fill="#315be8" opacity="0.6100000000000001"/><circle cx="450" cy="142" r="5" fill="#315be8" opacity="0.6000000000000001"/><circle cx="757" cy="231" r="5" fill="#315be8" opacity="0.5900000000000001"/><circle cx="348" cy="321" r="5" fill="#315be8" opacity="0.5800000000000001"/><circle cx="655" cy="68" r="5" fill="#315be8" opacity="0.5700000000000001"/><circle cx="246" cy="157" r="5" fill="#315be8" opacity="0.56"/>
  <rect x="96" y="52" width="608" height="316" rx="28" fill="#f6bc42"/><path d="M400 52v316M96 210h608M170 110h460M170 310h460M170 110v200M630 110v200" stroke="#fff" stroke-width="7" opacity=".88"/><circle cx="558" cy="126" r="18" fill="#315be8"/><ellipse cx="190" cy="260" rx="36" ry="50" fill="none" stroke="#fffaf4" stroke-width="9" transform="rotate(-18 190 260)"/>
</svg>
