<svg xmlns="http://www.w3.org/2000/svg" viewBox="0 0 800 420" role="img" aria-label="Ilustracion propia de circuito de velocidad para esta pregunta">
  <defs>
    <linearGradient id="bg" x1="0" x2="1" y1="0" y2="1">
      <stop stop-color="#e7f8ff"/>
      <stop offset="1" stop-color="#ff4f6d" stop-opacity="0.22"/>
    </linearGradient>
  </defs>
  <rect width="800" height="420" fill="url(#bg)"/>
  <circle cx="295" cy="245" r="121" fill="#15191d" opacity="0.13"/>
  <circle cx="645" cy="156" r="101" fill="#ff4f6d" opacity="0.16"/>
  <circle cx="479" cy="336" r="3" fill="#315be8" opacity="0.43000000000000005"/><circle cx="172" cy="247" r="3" fill="#315be8" opacity="0.44000000000000006"/><circle cx="581" cy="158" r="3" fill="#315be8" opacity="0.45000000000000007"/><circle cx="274" cy="69" r="3" fill="#315be8" opacity="0.46"/><circle cx="683" cy="322" r="3" fill="#315be8" opacity="0.47000000000000003"/><circle cx="376" cy="233" r="3" fill="#315be8" opacity="0.48000000000000004"/><circle cx="69" cy="144" r="3" fill="#315be8" opacity="0.49"/><circle cx="478" cy="54" r="3" fill="#315be8" opacity="0.5"/><circle cx="71" cy="366" r="3" fill="#315be8" opacity="0.35000000000000003"/>
  <path d="M98 300c110-170 248-42 350-120 60-46 118-84 210-28 66 40 54 132-26 152-96 24-160-50-246-24-100 30-152 94-288 20z" fill="none" stroke="#15191d" stroke-width="52" stroke-linecap="round"/><path d="M98 300c110-170 248-42 350-120 60-46 118-84 210-28 66 40 54 132-26 152-96 24-160-50-246-24-100 30-152 94-288 20z" fill="none" stroke="#fff" stroke-width="7" stroke-dasharray="24 22" stroke-linecap="round"/><rect x="376" y="250" width="150" height="42" rx="18" fill="#315be8"/><path d="M404 250l34-34h52l24 34z" fill="#fffaf4"/>
</svg>
