<svg xmlns="http://www.w3.org/2000/svg" viewBox="0 0 800 420" role="img" aria-label="Ilustracion propia de circuito de velocidad para esta pregunta">
  <defs>
    <linearGradient id="bg" x1="0" x2="1" y1="0" y2="1">
      <stop stop-color="#e7f8ff"/>
      <stop offset="1" stop-color="#315be8" stop-opacity="0.22"/>
    </linearGradient>
  </defs>
  <rect width="800" height="420" fill="url(#bg)"/>
  <circle cx="237" cy="270" r="113" fill="#15191d" opacity="0.13"/>
  <circle cx="488" cy="123" r="70" fill="#ff4f6d" opacity="0.16"/>
  <circle cx="236" cy="174" r="5" fill="#315be8" opacity="0.46"/><circle cx="543" cy="263" r="5" fill="#315be8" opacity="0.45000000000000007"/><circle cx="338" cy="338" r="5" fill="#315be8" opacity="0.48000000000000004"/><circle cx="645" cy="85" r="5" fill="#315be8" opacity="0.47000000000000003"/><circle cx="748" cy="189" r="5" fill="#315be8" opacity="0.42000000000000004"/><circle cx="339" cy="278" r="5" fill="#315be8" opacity="0.41000000000000003"/><circle cx="134" cy="353" r="5" fill="#315be8" opacity="0.44000000000000006"/><circle cx="441" cy="100" r="5" fill="#315be8" opacity="0.43000000000000005"/><circle cx="544" cy="203" r="5" fill="#315be8" opacity="0.38"/>
  <path d="M98 300c110-170 248-42 350-120 60-46 118-84 210-28 66 40 54 132-26 152-96 24-160-50-246-24-100 30-152 94-288 20z" fill="none" stroke="#15191d" stroke-width="43" stroke-linecap="round"/><path d="M98 300c110-170 248-42 350-120 60-46 118-84 210-28 66 40 54 132-26 152-96 24-160-50-246-24-100 30-152 94-288 20z" fill="none" stroke="#fff" stroke-width="7" stroke-dasharray="24 22" stroke-linecap="round"/><rect x="304" y="250" width="150" height="42" rx="18" fill="#315be8"/><path d="M332 250l34-34h52l24 34z" fill="#fffaf4"/>
</svg>
