<svg xmlns="http://www.w3.org/2000/svg" viewBox="0 0 800 420" role="img" aria-label="Ilustracion propia de cancha de baloncesto para esta pregunta">
  <defs>
    <linearGradient id="bg" x1="0" x2="1" y1="0" y2="1">
      <stop stop-color="#fff1df"/>
      <stop offset="1" stop-color="#fff1df" stop-opacity="0.22"/>
    </linearGradient>
  </defs>
  <rect width="800" height="420" fill="url(#bg)"/>
  <circle cx="242" cy="268" r="134" fill="#f6bc42" opacity="0.13"/>
  <circle cx="264" cy="302" r="102" fill="#d95a35" opacity="0.16"/>
  <circle cx="64" cy="218" r="4" fill="#15191d" opacity="0.5900000000000001"/><circle cx="371" cy="308" r="4" fill="#15191d" opacity="0.5800000000000001"/><circle cx="166" cy="40" r="3" fill="#15191d" opacity="0.6100000000000001"/><circle cx="473" cy="129" r="3" fill="#15191d" opacity="0.6000000000000001"/><circle cx="576" cy="233" r="4" fill="#15191d" opacity="0.55"/><circle cx="167" cy="322" r="4" fill="#15191d" opacity="0.54"/><circle cx="678" cy="55" r="4" fill="#15191d" opacity="0.5700000000000001"/><circle cx="269" cy="144" r="4" fill="#15191d" opacity="0.56"/><circle cx="472" cy="189" r="3" fill="#15191d" opacity="0.67"/>
  <rect x="76" y="58" width="648" height="304" rx="30" fill="#d95a35"/><path d="M100 210h600M400 58v304" stroke="#fffaf4" stroke-width="8" opacity=".8"/><circle cx="400" cy="210" r="59" fill="none" stroke="#fffaf4" stroke-width="8" opacity=".8"/><circle cx="264" cy="174" r="42" fill="#15191d"/><path d="M222 174h84M264 132v84" stroke="#f6bc42" stroke-width="5" fill="none"/>
</svg>
