<svg xmlns="http://www.w3.org/2000/svg" viewBox="0 0 800 420" role="img" aria-label="Ilustracion propia de pista de tenis para esta pregunta">
  <defs>
    <linearGradient id="bg" x1="0" x2="1" y1="0" y2="1">
      <stop stop-color="#e8fbf5"/>
      <stop offset="1" stop-color="#f6bc42" stop-opacity="0.22"/>
    </linearGradient>
  </defs>
  <rect width="800" height="420" fill="url(#bg)"/>
  <circle cx="509" cy="327" r="121" fill="#12b7a6" opacity="0.13"/>
  <circle cx="372" cy="166" r="131" fill="#f6bc42" opacity="0.16"/>
  <circle cx="470" cy="338" r="3" fill="#315be8" opacity="0.34"/><circle cx="61" cy="85" r="3" fill="#315be8" opacity="0.33"/><circle cx="368" cy="175" r="3" fill="#315be8" opacity="0.32"/><circle cx="675" cy="264" r="3" fill="#315be8" opacity="0.31000000000000005"/><circle cx="266" cy="353" r="3" fill="#315be8" opacity="0.30000000000000004"/><circle cx="573" cy="100" r="3" fill="#315be8" opacity="0.29000000000000004"/><circle cx="164" cy="189" r="3" fill="#315be8" opacity="0.28"/><circle cx="471" cy="278" r="3" fill="#315be8" opacity="0.72"/><circle cx="162" cy="309" r="3" fill="#315be8" opacity="0.42000000000000004"/>
  <rect x="96" y="52" width="608" height="316" rx="28" fill="#f6bc42"/><path d="M400 52v316M96 210h608M170 110h460M170 310h460M170 110v200M630 110v200" stroke="#fff" stroke-width="7" opacity=".88"/><circle cx="390" cy="228" r="18" fill="#315be8"/><ellipse cx="298" cy="206" rx="36" ry="50" fill="none" stroke="#fffaf4" stroke-width="9" transform="rotate(-18 298 206)"/>
</svg>
