<svg xmlns="http://www.w3.org/2000/svg" viewBox="0 0 800 420" role="img" aria-label="Ilustracion propia de circuito de velocidad para esta pregunta">
  <defs>
    <linearGradient id="bg" x1="0" x2="1" y1="0" y2="1">
      <stop stop-color="#e7f8ff"/>
      <stop offset="1" stop-color="#e7f8ff" stop-opacity="0.22"/>
    </linearGradient>
  </defs>
  <rect width="800" height="420" fill="url(#bg)"/>
  <circle cx="509" cy="322" r="104" fill="#15191d" opacity="0.13"/>
  <circle cx="672" cy="201" r="119" fill="#ff4f6d" opacity="0.16"/>
  <circle cx="402" cy="125" r="4" fill="#315be8" opacity="0.66"/><circle cx="709" cy="214" r="4" fill="#315be8" opacity="0.65"/><circle cx="300" cy="303" r="4" fill="#315be8" opacity="0.64"/><circle cx="607" cy="50" r="4" fill="#315be8" opacity="0.63"/><circle cx="198" cy="139" r="4" fill="#315be8" opacity="0.6200000000000001"/><circle cx="505" cy="229" r="4" fill="#315be8" opacity="0.6100000000000001"/><circle cx="96" cy="318" r="4" fill="#315be8" opacity="0.6000000000000001"/><circle cx="403" cy="65" r="4" fill="#315be8" opacity="0.5900000000000001"/><circle cx="94" cy="96" r="4" fill="#315be8" opacity="0.29000000000000004"/>
  <path d="M98 300c110-170 248-42 350-120 60-46 118-84 210-28 66 40 54 132-26 152-96 24-160-50-246-24-100 30-152 94-288 20z" fill="none" stroke="#15191d" stroke-width="49" stroke-linecap="round"/><path d="M98 300c110-170 248-42 350-120 60-46 118-84 210-28 66 40 54 132-26 152-96 24-160-50-246-24-100 30-152 94-288 20z" fill="none" stroke="#fff" stroke-width="7" stroke-dasharray="24 22" stroke-linecap="round"/><rect x="352" y="250" width="150" height="42" rx="18" fill="#315be8"/><path d="M380 250l34-34h52l24 34z" fill="#fffaf4"/>
</svg>
