<svg xmlns="http://www.w3.org/2000/svg" viewBox="0 0 800 420" role="img" aria-label="Ilustracion propia de pista de tenis para esta pregunta">
  <defs>
    <linearGradient id="bg" x1="0" x2="1" y1="0" y2="1">
      <stop stop-color="#e8fbf5"/>
      <stop offset="1" stop-color="#315be8" stop-opacity="0.22"/>
    </linearGradient>
  </defs>
  <rect width="800" height="420" fill="url(#bg)"/>
  <circle cx="137" cy="74" r="139" fill="#12b7a6" opacity="0.13"/>
  <circle cx="176" cy="206" r="83" fill="#f6bc42" opacity="0.16"/>
  <circle cx="134" cy="129" r="3" fill="#315be8" opacity="0.6000000000000001"/><circle cx="673" cy="90" r="3" fill="#315be8" opacity="0.28"/><circle cx="264" cy="179" r="3" fill="#315be8" opacity="0.72"/><circle cx="571" cy="268" r="3" fill="#315be8" opacity="0.71"/><circle cx="338" cy="114" r="3" fill="#315be8" opacity="0.64"/><circle cx="645" cy="203" r="3" fill="#315be8" opacity="0.63"/><circle cx="236" cy="293" r="3" fill="#315be8" opacity="0.6200000000000001"/><circle cx="543" cy="40" r="3" fill="#315be8" opacity="0.6100000000000001"/><circle cx="674" cy="372" r="3" fill="#315be8" opacity="0.66"/>
  <rect x="96" y="52" width="608" height="316" rx="28" fill="#f6bc42"/><path d="M400 52v316M96 210h608M170 110h460M170 310h460M170 110v200M630 110v200" stroke="#fff" stroke-width="7" opacity=".88"/><circle cx="502" cy="160" r="18" fill="#315be8"/><ellipse cx="226" cy="242" rx="36" ry="50" fill="none" stroke="#fffaf4" stroke-width="9" transform="rotate(-18 226 242)"/>
</svg>
