<svg xmlns="http://www.w3.org/2000/svg" viewBox="0 0 800 420" role="img" aria-label="Ilustracion propia de pista de tenis para esta pregunta">
  <defs>
    <linearGradient id="bg" x1="0" x2="1" y1="0" y2="1">
      <stop stop-color="#e8fbf5"/>
      <stop offset="1" stop-color="#f6bc42" stop-opacity="0.22"/>
    </linearGradient>
  </defs>
  <rect width="800" height="420" fill="url(#bg)"/>
  <circle cx="460" cy="80" r="69" fill="#12b7a6" opacity="0.13"/>
  <circle cx="441" cy="278" r="74" fill="#f6bc42" opacity="0.16"/>
  <circle cx="294" cy="40" r="5" fill="#315be8" opacity="0.56"/><circle cx="601" cy="129" r="5" fill="#315be8" opacity="0.55"/><circle cx="192" cy="219" r="5" fill="#315be8" opacity="0.54"/><circle cx="499" cy="308" r="5" fill="#315be8" opacity="0.53"/><circle cx="498" cy="368" r="5" fill="#315be8" opacity="0.6000000000000001"/><circle cx="89" cy="115" r="5" fill="#315be8" opacity="0.5900000000000001"/><circle cx="396" cy="204" r="5" fill="#315be8" opacity="0.5800000000000001"/><circle cx="703" cy="293" r="5" fill="#315be8" opacity="0.5700000000000001"/><circle cx="602" cy="69" r="5" fill="#315be8" opacity="0.48000000000000004"/>
  <rect x="96" y="52" width="608" height="316" rx="28" fill="#f6bc42"/><path d="M400 52v316M96 210h608M170 110h460M170 310h460M170 110v200M630 110v200" stroke="#fff" stroke-width="7" opacity=".88"/><circle cx="334" cy="262" r="18" fill="#315be8"/><ellipse cx="334" cy="188" rx="36" ry="50" fill="none" stroke="#fffaf4" stroke-width="9" transform="rotate(-18 334 188)"/>
</svg>
