<svg xmlns="http://www.w3.org/2000/svg" viewBox="0 0 800 420" role="img" aria-label="Ilustracion propia de circuito de velocidad para esta pregunta">
  <defs>
    <linearGradient id="bg" x1="0" x2="1" y1="0" y2="1">
      <stop stop-color="#e7f8ff"/>
      <stop offset="1" stop-color="#e7f8ff" stop-opacity="0.22"/>
    </linearGradient>
  </defs>
  <rect width="800" height="420" fill="url(#bg)"/>
  <circle cx="650" cy="132" r="142" fill="#15191d" opacity="0.13"/>
  <circle cx="690" cy="249" r="143" fill="#ff4f6d" opacity="0.16"/>
  <circle cx="313" cy="340" r="2" fill="#315be8" opacity="0.43000000000000005"/><circle cx="722" cy="251" r="2" fill="#315be8" opacity="0.44000000000000006"/><circle cx="443" cy="48" r="2" fill="#315be8" opacity="0.55"/><circle cx="136" cy="301" r="2" fill="#315be8" opacity="0.56"/><circle cx="517" cy="325" r="2" fill="#315be8" opacity="0.47000000000000003"/><circle cx="210" cy="236" r="2" fill="#315be8" opacity="0.48000000000000004"/><circle cx="415" cy="162" r="2" fill="#315be8" opacity="0.45000000000000007"/><circle cx="108" cy="72" r="2" fill="#315be8" opacity="0.46"/><circle cx="721" cy="311" r="2" fill="#315be8" opacity="0.51"/>
  <path d="M98 300c110-170 248-42 350-120 60-46 118-84 210-28 66 40 54 132-26 152-96 24-160-50-246-24-100 30-152 94-288 20z" fill="none" stroke="#15191d" stroke-width="52" stroke-linecap="round"/><path d="M98 300c110-170 248-42 350-120 60-46 118-84 210-28 66 40 54 132-26 152-96 24-160-50-246-24-100 30-152 94-288 20z" fill="none" stroke="#fff" stroke-width="7" stroke-dasharray="24 22" stroke-linecap="round"/><rect x="376" y="250" width="150" height="42" rx="18" fill="#315be8"/><path d="M404 250l34-34h52l24 34z" fill="#fffaf4"/>
</svg>
