<svg xmlns="http://www.w3.org/2000/svg" viewBox="0 0 800 420" role="img" aria-label="Ilustracion propia de circuito de velocidad para esta pregunta">
  <defs>
    <linearGradient id="bg" x1="0" x2="1" y1="0" y2="1">
      <stop stop-color="#e7f8ff"/>
      <stop offset="1" stop-color="#ff4f6d" stop-opacity="0.22"/>
    </linearGradient>
  </defs>
  <rect width="800" height="420" fill="url(#bg)"/>
  <circle cx="647" cy="140" r="131" fill="#15191d" opacity="0.13"/>
  <circle cx="689" cy="250" r="122" fill="#ff4f6d" opacity="0.16"/>
  <circle cx="607" cy="179" r="2" fill="#315be8" opacity="0.54"/><circle cx="300" cy="90" r="2" fill="#315be8" opacity="0.55"/><circle cx="709" cy="343" r="2" fill="#315be8" opacity="0.56"/><circle cx="402" cy="254" r="2" fill="#315be8" opacity="0.5700000000000001"/><circle cx="403" cy="194" r="2" fill="#315be8" opacity="0.5"/><circle cx="96" cy="105" r="2" fill="#315be8" opacity="0.51"/><circle cx="505" cy="357" r="2" fill="#315be8" opacity="0.52"/><circle cx="198" cy="268" r="2" fill="#315be8" opacity="0.53"/><circle cx="199" cy="208" r="2" fill="#315be8" opacity="0.46"/>
  <path d="M98 300c110-170 248-42 350-120 60-46 118-84 210-28 66 40 54 132-26 152-96 24-160-50-246-24-100 30-152 94-288 20z" fill="none" stroke="#15191d" stroke-width="43" stroke-linecap="round"/><path d="M98 300c110-170 248-42 350-120 60-46 118-84 210-28 66 40 54 132-26 152-96 24-160-50-246-24-100 30-152 94-288 20z" fill="none" stroke="#fff" stroke-width="7" stroke-dasharray="24 22" stroke-linecap="round"/><rect x="304" y="250" width="150" height="42" rx="18" fill="#315be8"/><path d="M332 250l34-34h52l24 34z" fill="#fffaf4"/>
</svg>
