<svg xmlns="http://www.w3.org/2000/svg" viewBox="0 0 800 420" role="img" aria-label="Ilustracion propia de cancha de baloncesto para esta pregunta">
  <defs>
    <linearGradient id="bg" x1="0" x2="1" y1="0" y2="1">
      <stop stop-color="#fff1df"/>
      <stop offset="1" stop-color="#15191d" stop-opacity="0.22"/>
    </linearGradient>
  </defs>
  <rect width="800" height="420" fill="url(#bg)"/>
  <circle cx="484" cy="91" r="119" fill="#f6bc42" opacity="0.13"/>
  <circle cx="519" cy="137" r="120" fill="#d95a35" opacity="0.16"/>
  <circle cx="110" cy="161" r="5" fill="#15191d" opacity="0.48000000000000004"/><circle cx="417" cy="250" r="5" fill="#15191d" opacity="0.47000000000000003"/><circle cx="724" cy="339" r="5" fill="#15191d" opacity="0.46"/><circle cx="315" cy="86" r="5" fill="#15191d" opacity="0.45000000000000007"/><circle cx="622" cy="175" r="5" fill="#15191d" opacity="0.44000000000000006"/><circle cx="213" cy="265" r="5" fill="#15191d" opacity="0.43000000000000005"/><circle cx="520" cy="354" r="5" fill="#15191d" opacity="0.42000000000000004"/><circle cx="111" cy="101" r="5" fill="#15191d" opacity="0.41000000000000003"/><circle cx="518" cy="132" r="4" fill="#15191d" opacity="0.56"/>
  <rect x="76" y="58" width="648" height="304" rx="30" fill="#d95a35"/><path d="M100 210h600M400 58v304" stroke="#fffaf4" stroke-width="8" opacity=".8"/><circle cx="400" cy="210" r="73" fill="none" stroke="#fffaf4" stroke-width="8" opacity=".8"/><circle cx="432" cy="222" r="42" fill="#15191d"/><path d="M390 222h84M432 180v84" stroke="#f6bc42" stroke-width="5" fill="none"/>
</svg>
