<svg xmlns="http://www.w3.org/2000/svg" viewBox="0 0 800 420" role="img" aria-label="Ilustracion propia de pista de tenis para esta pregunta">
  <defs>
    <linearGradient id="bg" x1="0" x2="1" y1="0" y2="1">
      <stop stop-color="#e8fbf5"/>
      <stop offset="1" stop-color="#315be8" stop-opacity="0.22"/>
    </linearGradient>
  </defs>
  <rect width="800" height="420" fill="url(#bg)"/>
  <circle cx="421" cy="123" r="109" fill="#12b7a6" opacity="0.13"/>
  <circle cx="436" cy="141" r="99" fill="#f6bc42" opacity="0.16"/>
  <circle cx="314" cy="188" r="4" fill="#315be8" opacity="0.72"/><circle cx="621" cy="277" r="4" fill="#315be8" opacity="0.71"/><circle cx="212" cy="367" r="4" fill="#315be8" opacity="0.7"/><circle cx="519" cy="114" r="4" fill="#315be8" opacity="0.69"/><circle cx="518" cy="174" r="4" fill="#315be8" opacity="0.31000000000000005"/><circle cx="109" cy="263" r="4" fill="#315be8" opacity="0.30000000000000004"/><circle cx="416" cy="352" r="4" fill="#315be8" opacity="0.29000000000000004"/><circle cx="723" cy="99" r="4" fill="#315be8" opacity="0.28"/><circle cx="722" cy="159" r="4" fill="#315be8" opacity="0.35000000000000003"/>
  <rect x="96" y="52" width="608" height="316" rx="28" fill="#f6bc42"/><path d="M400 52v316M96 210h608M170 110h460M170 310h460M170 110v200M630 110v200" stroke="#fff" stroke-width="7" opacity=".88"/><circle cx="558" cy="126" r="18" fill="#315be8"/><ellipse cx="190" cy="260" rx="36" ry="50" fill="none" stroke="#fffaf4" stroke-width="9" transform="rotate(-18 190 260)"/>
</svg>
