<svg xmlns="http://www.w3.org/2000/svg" viewBox="0 0 800 420" role="img" aria-label="Ilustracion propia de pista de tenis para esta pregunta">
  <defs>
    <linearGradient id="bg" x1="0" x2="1" y1="0" y2="1">
      <stop stop-color="#e8fbf5"/>
      <stop offset="1" stop-color="#315be8" stop-opacity="0.22"/>
    </linearGradient>
  </defs>
  <rect width="800" height="420" fill="url(#bg)"/>
  <circle cx="299" cy="193" r="123" fill="#12b7a6" opacity="0.13"/>
  <circle cx="196" cy="114" r="81" fill="#f6bc42" opacity="0.16"/>
  <circle cx="233" cy="363" r="2" fill="#315be8" opacity="0.7"/><circle cx="642" cy="274" r="2" fill="#315be8" opacity="0.71"/><circle cx="131" cy="199" r="2" fill="#315be8" opacity="0.68"/><circle cx="540" cy="110" r="2" fill="#315be8" opacity="0.69"/><circle cx="437" cy="348" r="2" fill="#315be8" opacity="0.29000000000000004"/><circle cx="130" cy="259" r="2" fill="#315be8" opacity="0.30000000000000004"/><circle cx="335" cy="185" r="2" fill="#315be8" opacity="0.72"/><circle cx="744" cy="96" r="2" fill="#315be8" opacity="0.28"/><circle cx="541" cy="50" r="2" fill="#315be8" opacity="0.6200000000000001"/>
  <rect x="96" y="52" width="608" height="316" rx="28" fill="#f6bc42"/><path d="M400 52v316M96 210h608M170 110h460M170 310h460M170 110v200M630 110v200" stroke="#fff" stroke-width="7" opacity=".88"/><circle cx="390" cy="228" r="18" fill="#315be8"/><ellipse cx="298" cy="206" rx="36" ry="50" fill="none" stroke="#fffaf4" stroke-width="9" transform="rotate(-18 298 206)"/>
</svg>
