<svg xmlns="http://www.w3.org/2000/svg" viewBox="0 0 800 420" role="img" aria-label="Ilustracion propia de cancha de baloncesto para esta pregunta">
  <defs>
    <linearGradient id="bg" x1="0" x2="1" y1="0" y2="1">
      <stop stop-color="#fff1df"/>
      <stop offset="1" stop-color="#15191d" stop-opacity="0.22"/>
    </linearGradient>
  </defs>
  <rect width="800" height="420" fill="url(#bg)"/>
  <circle cx="343" cy="143" r="121" fill="#f6bc42" opacity="0.13"/>
  <circle cx="276" cy="107" r="131" fill="#d95a35" opacity="0.16"/>
  <circle cx="319" cy="118" r="5" fill="#15191d" opacity="0.66"/><circle cx="728" cy="371" r="5" fill="#15191d" opacity="0.67"/><circle cx="421" cy="282" r="5" fill="#15191d" opacity="0.68"/><circle cx="114" cy="193" r="5" fill="#15191d" opacity="0.69"/><circle cx="523" cy="104" r="5" fill="#15191d" opacity="0.7"/><circle cx="216" cy="357" r="5" fill="#15191d" opacity="0.71"/><circle cx="625" cy="268" r="5" fill="#15191d" opacity="0.72"/><circle cx="318" cy="178" r="5" fill="#15191d" opacity="0.28"/><circle cx="627" cy="148" r="5" fill="#15191d" opacity="0.5800000000000001"/>
  <rect x="76" y="58" width="648" height="304" rx="30" fill="#d95a35"/><path d="M100 210h600M400 58v304" stroke="#fffaf4" stroke-width="8" opacity=".8"/><circle cx="400" cy="210" r="66" fill="none" stroke="#fffaf4" stroke-width="8" opacity=".8"/><circle cx="348" cy="198" r="42" fill="#15191d"/><path d="M306 198h84M348 156v84" stroke="#f6bc42" stroke-width="5" fill="none"/>
</svg>
