<svg xmlns="http://www.w3.org/2000/svg" viewBox="0 0 800 420" role="img" aria-label="Ilustracion propia de pista de tenis para esta pregunta">
  <defs>
    <linearGradient id="bg" x1="0" x2="1" y1="0" y2="1">
      <stop stop-color="#e8fbf5"/>
      <stop offset="1" stop-color="#e8fbf5" stop-opacity="0.22"/>
    </linearGradient>
  </defs>
  <rect width="800" height="420" fill="url(#bg)"/>
  <circle cx="466" cy="255" r="66" fill="#12b7a6" opacity="0.13"/>
  <circle cx="292" cy="300" r="94" fill="#f6bc42" opacity="0.16"/>
  <circle cx="112" cy="169" r="5" fill="#315be8" opacity="0.36000000000000004"/><circle cx="419" cy="258" r="5" fill="#315be8" opacity="0.35000000000000003"/><circle cx="214" cy="333" r="5" fill="#315be8" opacity="0.38"/><circle cx="521" cy="80" r="5" fill="#315be8" opacity="0.37"/><circle cx="316" cy="154" r="5" fill="#315be8" opacity="0.4"/><circle cx="623" cy="244" r="5" fill="#315be8" opacity="0.39"/><circle cx="418" cy="318" r="5" fill="#315be8" opacity="0.42000000000000004"/><circle cx="725" cy="65" r="5" fill="#315be8" opacity="0.41000000000000003"/><circle cx="420" cy="198" r="5" fill="#315be8" opacity="0.28"/>
  <rect x="96" y="52" width="608" height="316" rx="28" fill="#f6bc42"/><path d="M400 52v316M96 210h608M170 110h460M170 310h460M170 110v200M630 110v200" stroke="#fff" stroke-width="7" opacity=".88"/><circle cx="558" cy="126" r="18" fill="#315be8"/><ellipse cx="190" cy="260" rx="36" ry="50" fill="none" stroke="#fffaf4" stroke-width="9" transform="rotate(-18 190 260)"/>
</svg>
