<svg xmlns="http://www.w3.org/2000/svg" viewBox="0 0 800 420" role="img" aria-label="Ilustracion propia de cancha de baloncesto para esta pregunta">
  <defs>
    <linearGradient id="bg" x1="0" x2="1" y1="0" y2="1">
      <stop stop-color="#fff1df"/>
      <stop offset="1" stop-color="#15191d" stop-opacity="0.22"/>
    </linearGradient>
  </defs>
  <rect width="800" height="420" fill="url(#bg)"/>
  <circle cx="144" cy="177" r="99" fill="#f6bc42" opacity="0.13"/>
  <circle cx="327" cy="219" r="78" fill="#d95a35" opacity="0.16"/>
  <circle cx="407" cy="64" r="3" fill="#15191d" opacity="0.36000000000000004"/><circle cx="100" cy="317" r="3" fill="#15191d" opacity="0.37"/><circle cx="509" cy="228" r="3" fill="#15191d" opacity="0.38"/><circle cx="202" cy="139" r="3" fill="#15191d" opacity="0.39"/><circle cx="203" cy="79" r="3" fill="#15191d" opacity="0.32"/><circle cx="612" cy="332" r="3" fill="#15191d" opacity="0.33"/><circle cx="305" cy="243" r="3" fill="#15191d" opacity="0.34"/><circle cx="714" cy="153" r="3" fill="#15191d" opacity="0.35000000000000003"/><circle cx="715" cy="94" r="4" fill="#15191d" opacity="0.28"/>
  <rect x="76" y="58" width="648" height="304" rx="30" fill="#d95a35"/><path d="M100 210h600M400 58v304" stroke="#fffaf4" stroke-width="8" opacity=".8"/><circle cx="400" cy="210" r="73" fill="none" stroke="#fffaf4" stroke-width="8" opacity=".8"/><circle cx="432" cy="222" r="42" fill="#15191d"/><path d="M390 222h84M432 180v84" stroke="#f6bc42" stroke-width="5" fill="none"/>
</svg>
