<svg xmlns="http://www.w3.org/2000/svg" viewBox="0 0 800 420" role="img" aria-label="Ilustracion propia de cancha de baloncesto para esta pregunta">
  <defs>
    <linearGradient id="bg" x1="0" x2="1" y1="0" y2="1">
      <stop stop-color="#fff1df"/>
      <stop offset="1" stop-color="#f6bc42" stop-opacity="0.22"/>
    </linearGradient>
  </defs>
  <rect width="800" height="420" fill="url(#bg)"/>
  <circle cx="214" cy="299" r="118" fill="#f6bc42" opacity="0.13"/>
  <circle cx="485" cy="91" r="130" fill="#d95a35" opacity="0.16"/>
  <circle cx="524" cy="260" r="3" fill="#15191d" opacity="0.44000000000000006"/><circle cx="115" cy="349" r="3" fill="#15191d" opacity="0.43000000000000005"/><circle cx="626" cy="81" r="3" fill="#15191d" opacity="0.46"/><circle cx="217" cy="170" r="3" fill="#15191d" opacity="0.45000000000000007"/><circle cx="728" cy="245" r="3" fill="#15191d" opacity="0.48000000000000004"/><circle cx="319" cy="334" r="3" fill="#15191d" opacity="0.47000000000000003"/><circle cx="114" cy="67" r="2" fill="#15191d" opacity="0.5"/><circle cx="421" cy="156" r="3" fill="#15191d" opacity="0.49"/><circle cx="116" cy="289" r="3" fill="#15191d" opacity="0.36000000000000004"/>
  <rect x="76" y="58" width="648" height="304" rx="30" fill="#d95a35"/><path d="M100 210h600M400 58v304" stroke="#fffaf4" stroke-width="8" opacity=".8"/><circle cx="400" cy="210" r="73" fill="none" stroke="#fffaf4" stroke-width="8" opacity=".8"/><circle cx="432" cy="222" r="42" fill="#15191d"/><path d="M390 222h84M432 180v84" stroke="#f6bc42" stroke-width="5" fill="none"/>
</svg>
