<svg xmlns="http://www.w3.org/2000/svg" viewBox="0 0 800 420" role="img" aria-label="Ilustracion propia de circuito de velocidad para esta pregunta">
  <defs>
    <linearGradient id="bg" x1="0" x2="1" y1="0" y2="1">
      <stop stop-color="#e7f8ff"/>
      <stop offset="1" stop-color="#15191d" stop-opacity="0.22"/>
    </linearGradient>
  </defs>
  <rect width="800" height="420" fill="url(#bg)"/>
  <circle cx="451" cy="128" r="120" fill="#15191d" opacity="0.13"/>
  <circle cx="290" cy="213" r="111" fill="#ff4f6d" opacity="0.16"/>
  <circle cx="241" cy="213" r="3" fill="#315be8" opacity="0.28"/><circle cx="650" cy="124" r="3" fill="#315be8" opacity="0.29000000000000004"/><circle cx="139" cy="49" r="3" fill="#315be8" opacity="0.71"/><circle cx="548" cy="302" r="3" fill="#315be8" opacity="0.72"/><circle cx="753" cy="227" r="3" fill="#315be8" opacity="0.69"/><circle cx="446" cy="138" r="3" fill="#315be8" opacity="0.7"/><circle cx="651" cy="64" r="3" fill="#315be8" opacity="0.67"/><circle cx="344" cy="317" r="3" fill="#315be8" opacity="0.68"/><circle cx="549" cy="242" r="3" fill="#315be8" opacity="0.65"/>
  <path d="M98 300c110-170 248-42 350-120 60-46 118-84 210-28 66 40 54 132-26 152-96 24-160-50-246-24-100 30-152 94-288 20z" fill="none" stroke="#15191d" stroke-width="40" stroke-linecap="round"/><path d="M98 300c110-170 248-42 350-120 60-46 118-84 210-28 66 40 54 132-26 152-96 24-160-50-246-24-100 30-152 94-288 20z" fill="none" stroke="#fff" stroke-width="7" stroke-dasharray="24 22" stroke-linecap="round"/><rect x="280" y="250" width="150" height="42" rx="18" fill="#315be8"/><path d="M308 250l34-34h52l24 34z" fill="#fffaf4"/>
</svg>
