<svg xmlns="http://www.w3.org/2000/svg" viewBox="0 0 800 420" role="img" aria-label="Ilustracion propia de pista de tenis para esta pregunta">
  <defs>
    <linearGradient id="bg" x1="0" x2="1" y1="0" y2="1">
      <stop stop-color="#e8fbf5"/>
      <stop offset="1" stop-color="#e8fbf5" stop-opacity="0.22"/>
    </linearGradient>
  </defs>
  <rect width="800" height="420" fill="url(#bg)"/>
  <circle cx="288" cy="265" r="98" fill="#12b7a6" opacity="0.13"/>
  <circle cx="270" cy="194" r="88" fill="#f6bc42" opacity="0.16"/>
  <circle cx="575" cy="68" r="3" fill="#315be8" opacity="0.5800000000000001"/><circle cx="268" cy="321" r="3" fill="#315be8" opacity="0.5900000000000001"/><circle cx="677" cy="231" r="3" fill="#315be8" opacity="0.6000000000000001"/><circle cx="370" cy="142" r="3" fill="#315be8" opacity="0.6100000000000001"/><circle cx="63" cy="53" r="3" fill="#315be8" opacity="0.6200000000000001"/><circle cx="472" cy="306" r="3" fill="#315be8" opacity="0.63"/><circle cx="165" cy="217" r="3" fill="#315be8" opacity="0.64"/><circle cx="574" cy="128" r="3" fill="#315be8" opacity="0.65"/><circle cx="267" cy="39" r="3" fill="#315be8" opacity="0.66"/>
  <rect x="96" y="52" width="608" height="316" rx="28" fill="#f6bc42"/><path d="M400 52v316M96 210h608M170 110h460M170 310h460M170 110v200M630 110v200" stroke="#fff" stroke-width="7" opacity=".88"/><circle cx="446" cy="194" r="18" fill="#315be8"/><ellipse cx="262" cy="224" rx="36" ry="50" fill="none" stroke="#fffaf4" stroke-width="9" transform="rotate(-18 262 224)"/>
</svg>
