<svg xmlns="http://www.w3.org/2000/svg" viewBox="0 0 800 420" role="img" aria-label="Ilustracion propia de oceano y olas para esta pregunta">
  <defs>
    <linearGradient id="bg" x1="0" x2="1" y1="0" y2="1">
      <stop stop-color="#dff8ff"/>
      <stop offset="1" stop-color="#fffaf4" stop-opacity="0.22"/>
    </linearGradient>
  </defs>
  <rect width="800" height="420" fill="url(#bg)"/>
  <circle cx="689" cy="330" r="73" fill="#12b7a6" opacity="0.13"/>
  <circle cx="320" cy="95" r="105" fill="#315be8" opacity="0.16"/>
  <circle cx="349" cy="324" r="4" fill="#fffaf4" opacity="0.53"/><circle cx="42" cy="235" r="4" fill="#fffaf4" opacity="0.54"/><circle cx="247" cy="161" r="4" fill="#fffaf4" opacity="0.51"/><circle cx="656" cy="72" r="4" fill="#fffaf4" opacity="0.52"/><circle cx="145" cy="339" r="4" fill="#fffaf4" opacity="0.49"/><circle cx="554" cy="250" r="4" fill="#fffaf4" opacity="0.5"/><circle cx="43" cy="175" r="4" fill="#fffaf4" opacity="0.47000000000000003"/><circle cx="452" cy="86" r="4" fill="#fffaf4" opacity="0.48000000000000004"/><circle cx="657" cy="354" r="4" fill="#fffaf4" opacity="0.45000000000000007"/>
  <path d="M0 240c88-42 144 42 232 0s144 42 232 0 144 42 232 0 144 42 232 0v180H0z" fill="#fff" opacity=".34"/><path d="M0 316c88-42 144 42 232 0s144 42 232 0 144 42 232 0 144 42 232 0" fill="none" stroke="#fff" stroke-width="18" opacity=".62"/><path d="M142 174c82-44 170-44 252 0" fill="none" stroke="#fff" stroke-width="10" opacity=".45" stroke-linecap="round"/>
</svg>
