<svg xmlns="http://www.w3.org/2000/svg" viewBox="0 0 800 420" role="img" aria-label="Ilustracion propia de oceano y olas para esta pregunta">
  <defs>
    <linearGradient id="bg" x1="0" x2="1" y1="0" y2="1">
      <stop stop-color="#dff8ff"/>
      <stop offset="1" stop-color="#dff8ff" stop-opacity="0.22"/>
    </linearGradient>
  </defs>
  <rect width="800" height="420" fill="url(#bg)"/>
  <circle cx="489" cy="291" r="86" fill="#12b7a6" opacity="0.13"/>
  <circle cx="295" cy="197" r="126" fill="#315be8" opacity="0.16"/>
  <circle cx="622" cy="93" r="2" fill="#fffaf4" opacity="0.55"/><circle cx="213" cy="182" r="2" fill="#fffaf4" opacity="0.54"/><circle cx="520" cy="271" r="2" fill="#fffaf4" opacity="0.53"/><circle cx="111" cy="360" r="2" fill="#fffaf4" opacity="0.52"/><circle cx="110" cy="78" r="2" fill="#fffaf4" opacity="0.5900000000000001"/><circle cx="417" cy="167" r="2" fill="#fffaf4" opacity="0.5800000000000001"/><circle cx="724" cy="256" r="2" fill="#fffaf4" opacity="0.5700000000000001"/><circle cx="315" cy="345" r="2" fill="#fffaf4" opacity="0.56"/><circle cx="446" cy="336" r="2" fill="#fffaf4" opacity="0.6100000000000001"/>
  <path d="M0 240c88-42 144 42 232 0s144 42 232 0 144 42 232 0 144 42 232 0v180H0z" fill="#fff" opacity=".34"/><path d="M0 316c88-42 144 42 232 0s144 42 232 0 144 42 232 0 144 42 232 0" fill="none" stroke="#fff" stroke-width="18" opacity=".62"/><path d="M142 174c82-44 170-44 252 0" fill="none" stroke="#fff" stroke-width="10" opacity=".45" stroke-linecap="round"/>
</svg>
