<svg xmlns="http://www.w3.org/2000/svg" viewBox="0 0 800 420" role="img" aria-label="Ilustracion propia de mapa y geografia para esta pregunta">
  <defs>
    <linearGradient id="bg" x1="0" x2="1" y1="0" y2="1">
      <stop stop-color="#eaf9f6"/>
      <stop offset="1" stop-color="#eaf9f6" stop-opacity="0.22"/>
    </linearGradient>
  </defs>
  <rect width="800" height="420" fill="url(#bg)"/>
  <circle cx="153" cy="265" r="120" fill="#fffaf4" opacity="0.13"/>
  <circle cx="478" cy="337" r="141" fill="#12b7a6" opacity="0.16"/>
  <circle cx="604" cy="365" r="3" fill="#ff4f6d" opacity="0.5900000000000001"/><circle cx="195" cy="112" r="3" fill="#ff4f6d" opacity="0.5800000000000001"/><circle cx="706" cy="187" r="3" fill="#ff4f6d" opacity="0.6100000000000001"/><circle cx="297" cy="276" r="3" fill="#ff4f6d" opacity="0.6000000000000001"/><circle cx="400" cy="38" r="4" fill="#ff4f6d" opacity="0.55"/><circle cx="707" cy="127" r="4" fill="#ff4f6d" opacity="0.54"/><circle cx="502" cy="202" r="3" fill="#ff4f6d" opacity="0.5700000000000001"/><circle cx="93" cy="291" r="3" fill="#ff4f6d" opacity="0.56"/><circle cx="196" cy="52" r="4" fill="#ff4f6d" opacity="0.51"/>
  <path d="M100 84l170-42 160 50 170-42 100 42v244l-170 42-160-50-170 42-100-42z" fill="#12b7a6" stroke="#15191d" stroke-width="5" opacity=".94"/><path d="M270 42v286M430 92v286M600 50v286" stroke="#15191d" stroke-width="4" opacity=".16"/><path d="M126 168c80 22 106-36 176-8 72 28 94 88 182 48 86-40 128-8 184 44" fill="none" stroke="#ff4f6d" stroke-width="14" stroke-linecap="round"/><path d="M500 140c0 36-38 70-38 70s-38-34-38-70a38 38 0 0176 0z" fill="#fffaf4"/>
</svg>
