<svg xmlns="http://www.w3.org/2000/svg" viewBox="0 0 800 420" role="img" aria-label="Ilustracion propia de espacio y planetas para esta pregunta">
  <defs>
    <linearGradient id="bg" x1="0" x2="1" y1="0" y2="1">
      <stop stop-color="#12171a"/>
      <stop offset="1" stop-color="#f6bc42" stop-opacity="0.22"/>
    </linearGradient>
  </defs>
  <rect width="800" height="420" fill="url(#bg)"/>
  <circle cx="414" cy="131" r="115" fill="#e46b4f" opacity="0.13"/>
  <circle cx="510" cy="249" r="80" fill="#f6bc42" opacity="0.16"/>
  <circle cx="214" cy="236" r="4" fill="#315be8" opacity="0.44000000000000006"/><circle cx="521" cy="325" r="4" fill="#315be8" opacity="0.43000000000000005"/><circle cx="112" cy="72" r="4" fill="#315be8" opacity="0.42000000000000004"/><circle cx="419" cy="161" r="4" fill="#315be8" opacity="0.41000000000000003"/><circle cx="726" cy="250" r="4" fill="#315be8" opacity="0.4"/><circle cx="317" cy="340" r="4" fill="#315be8" opacity="0.39"/><circle cx="624" cy="87" r="4" fill="#315be8" opacity="0.38"/><circle cx="215" cy="176" r="4" fill="#315be8" opacity="0.37"/><circle cx="522" cy="265" r="4" fill="#315be8" opacity="0.36000000000000004"/>
  <rect width="800" height="420" fill="#e46b4f"/><circle cx="388" cy="218" r="91" fill="#f6bc42"/><path d="M230 212c36 14 66-22 112-2" stroke="#8f3327" stroke-width="12" stroke-linecap="round" opacity=".36"/><circle cx="432" cy="214" r="60" fill="#315be8"/><circle cx="600" cy="276" r="32" fill="#fffaf4"/><path d="M176 324c140 46 308 54 476 0" stroke="#fff" stroke-width="5" fill="none" opacity=".38"/>
</svg>
