<svg xmlns="http://www.w3.org/2000/svg" viewBox="0 0 800 420" role="img" aria-label="Ilustracion propia de espacio y planetas para esta pregunta">
  <defs>
    <linearGradient id="bg" x1="0" x2="1" y1="0" y2="1">
      <stop stop-color="#12171a"/>
      <stop offset="1" stop-color="#e46b4f" stop-opacity="0.22"/>
    </linearGradient>
  </defs>
  <rect width="800" height="420" fill="url(#bg)"/>
  <circle cx="529" cy="310" r="108" fill="#e46b4f" opacity="0.13"/>
  <circle cx="600" cy="200" r="69" fill="#f6bc42" opacity="0.16"/>
  <circle cx="507" cy="358" r="5" fill="#315be8" opacity="0.51"/><circle cx="200" cy="269" r="5" fill="#315be8" opacity="0.52"/><circle cx="609" cy="180" r="4" fill="#315be8" opacity="0.53"/><circle cx="302" cy="91" r="4" fill="#315be8" opacity="0.54"/><circle cx="711" cy="344" r="4" fill="#315be8" opacity="0.55"/><circle cx="404" cy="255" r="4" fill="#315be8" opacity="0.56"/><circle cx="97" cy="166" r="4" fill="#315be8" opacity="0.5700000000000001"/><circle cx="506" cy="76" r="4" fill="#315be8" opacity="0.5800000000000001"/><circle cx="99" cy="46" r="5" fill="#315be8" opacity="0.43000000000000005"/>
  <rect width="800" height="420" fill="#e46b4f"/><circle cx="388" cy="218" r="91" fill="#f6bc42"/><path d="M230 212c36 14 66-22 112-2" stroke="#8f3327" stroke-width="12" stroke-linecap="round" opacity=".36"/><circle cx="432" cy="214" r="60" fill="#315be8"/><circle cx="600" cy="276" r="32" fill="#fffaf4"/><path d="M176 324c140 46 308 54 476 0" stroke="#fff" stroke-width="5" fill="none" opacity=".38"/>
</svg>
