<svg xmlns="http://www.w3.org/2000/svg" viewBox="0 0 800 420" role="img" aria-label="Ilustracion propia de espacio y planetas para esta pregunta">
  <defs>
    <linearGradient id="bg" x1="0" x2="1" y1="0" y2="1">
      <stop stop-color="#12171a"/>
      <stop offset="1" stop-color="#f6bc42" stop-opacity="0.22"/>
    </linearGradient>
  </defs>
  <rect width="800" height="420" fill="url(#bg)"/>
  <circle cx="236" cy="343" r="129" fill="#e46b4f" opacity="0.13"/>
  <circle cx="263" cy="240" r="132" fill="#f6bc42" opacity="0.16"/>
  <circle cx="181" cy="228" r="2" fill="#315be8" opacity="0.32"/><circle cx="590" cy="138" r="2" fill="#315be8" opacity="0.33"/><circle cx="79" cy="64" r="2" fill="#315be8" opacity="0.30000000000000004"/><circle cx="488" cy="317" r="2" fill="#315be8" opacity="0.31000000000000005"/><circle cx="385" cy="213" r="2" fill="#315be8" opacity="0.36000000000000004"/><circle cx="78" cy="124" r="2" fill="#315be8" opacity="0.37"/><circle cx="283" cy="49" r="2" fill="#315be8" opacity="0.34"/><circle cx="692" cy="302" r="2" fill="#315be8" opacity="0.35000000000000003"/><circle cx="589" cy="198" r="2" fill="#315be8" opacity="0.4"/>
  <rect width="800" height="420" fill="#e46b4f"/><circle cx="286" cy="218" r="70" fill="#f6bc42"/><path d="M230 212c36 14 66-22 112-2" stroke="#8f3327" stroke-width="12" stroke-linecap="round" opacity=".36"/><circle cx="510" cy="160" r="48" fill="#315be8"/><circle cx="540" cy="276" r="32" fill="#fffaf4"/><path d="M176 324c140 46 308 54 476 0" stroke="#fff" stroke-width="5" fill="none" opacity=".38"/>
</svg>
