<svg xmlns="http://www.w3.org/2000/svg" viewBox="0 0 800 420" role="img" aria-label="Ilustracion propia de idiomas y conversacion para esta pregunta">
  <defs>
    <linearGradient id="bg" x1="0" x2="1" y1="0" y2="1">
      <stop stop-color="#eef7ff"/>
      <stop offset="1" stop-color="#12b7a6" stop-opacity="0.22"/>
    </linearGradient>
  </defs>
  <rect width="800" height="420" fill="url(#bg)"/>
  <circle cx="449" cy="97" r="105" fill="#315be8" opacity="0.13"/>
  <circle cx="590" cy="316" r="69" fill="#ff4f6d" opacity="0.16"/>
  <circle cx="243" cy="361" r="3" fill="#12b7a6" opacity="0.54"/><circle cx="652" cy="272" r="3" fill="#12b7a6" opacity="0.55"/><circle cx="345" cy="183" r="3" fill="#12b7a6" opacity="0.56"/><circle cx="754" cy="94" r="3" fill="#12b7a6" opacity="0.5700000000000001"/><circle cx="755" cy="376" r="4" fill="#12b7a6" opacity="0.5"/><circle cx="448" cy="287" r="3" fill="#12b7a6" opacity="0.51"/><circle cx="141" cy="198" r="3" fill="#12b7a6" opacity="0.52"/><circle cx="550" cy="108" r="3" fill="#12b7a6" opacity="0.53"/><circle cx="551" cy="49" r="4" fill="#12b7a6" opacity="0.46"/>
  <rect x="122" y="92" width="250" height="142" rx="44" fill="#fffaf4" stroke="#315be8" stroke-width="8"/><path d="M198 230l-42 54 92-52" fill="#fffaf4" stroke="#315be8" stroke-width="8" stroke-linejoin="round"/><rect x="428" y="142" width="250" height="142" rx="44" fill="#fffaf4" stroke="#12b7a6" stroke-width="8"/><path d="M602 280l42 54-92-52" fill="#fffaf4" stroke="#12b7a6" stroke-width="8" stroke-linejoin="round"/><path d="M178 158h134M178 196h86M484 208h134M484 246h86" stroke="#15191d" stroke-width="14" stroke-linecap="round" opacity=".2"/>
</svg>
