<svg xmlns="http://www.w3.org/2000/svg" viewBox="0 0 800 420" role="img" aria-label="Ilustracion propia de idiomas y conversacion para esta pregunta">
  <defs>
    <linearGradient id="bg" x1="0" x2="1" y1="0" y2="1">
      <stop stop-color="#eef7ff"/>
      <stop offset="1" stop-color="#315be8" stop-opacity="0.22"/>
    </linearGradient>
  </defs>
  <rect width="800" height="420" fill="url(#bg)"/>
  <circle cx="515" cy="237" r="68" fill="#315be8" opacity="0.13"/>
  <circle cx="223" cy="226" r="94" fill="#ff4f6d" opacity="0.16"/>
  <circle cx="205" cy="257" r="4" fill="#12b7a6" opacity="0.36000000000000004"/><circle cx="614" cy="168" r="4" fill="#12b7a6" opacity="0.37"/><circle cx="103" cy="93" r="4" fill="#12b7a6" opacity="0.34"/><circle cx="512" cy="346" r="4" fill="#12b7a6" opacity="0.35000000000000003"/><circle cx="717" cy="271" r="4" fill="#12b7a6" opacity="0.32"/><circle cx="410" cy="182" r="4" fill="#12b7a6" opacity="0.33"/><circle cx="615" cy="108" r="4" fill="#12b7a6" opacity="0.30000000000000004"/><circle cx="308" cy="361" r="4" fill="#12b7a6" opacity="0.31000000000000005"/><circle cx="613" cy="228" r="4" fill="#12b7a6" opacity="0.44000000000000006"/>
  <rect x="122" y="92" width="250" height="142" rx="44" fill="#fffaf4" stroke="#315be8" stroke-width="8"/><path d="M198 230l-42 54 92-52" fill="#fffaf4" stroke="#315be8" stroke-width="8" stroke-linejoin="round"/><rect x="428" y="142" width="250" height="142" rx="44" fill="#fffaf4" stroke="#12b7a6" stroke-width="8"/><path d="M602 280l42 54-92-52" fill="#fffaf4" stroke="#12b7a6" stroke-width="8" stroke-linejoin="round"/><path d="M178 158h134M178 196h86M484 208h134M484 246h86" stroke="#15191d" stroke-width="14" stroke-linecap="round" opacity=".2"/>
</svg>
