<svg xmlns="http://www.w3.org/2000/svg" viewBox="0 0 800 420" role="img" aria-label="Ilustracion propia de idiomas y conversacion para esta pregunta">
  <defs>
    <linearGradient id="bg" x1="0" x2="1" y1="0" y2="1">
      <stop stop-color="#eef7ff"/>
      <stop offset="1" stop-color="#eef7ff" stop-opacity="0.22"/>
    </linearGradient>
  </defs>
  <rect width="800" height="420" fill="url(#bg)"/>
  <circle cx="240" cy="200" r="108" fill="#315be8" opacity="0.13"/>
  <circle cx="489" cy="79" r="99" fill="#ff4f6d" opacity="0.16"/>
  <circle cx="533" cy="357" r="3" fill="#12b7a6" opacity="0.33"/><circle cx="226" cy="267" r="3" fill="#12b7a6" opacity="0.34"/><circle cx="431" cy="193" r="3" fill="#12b7a6" opacity="0.31000000000000005"/><circle cx="124" cy="104" r="3" fill="#12b7a6" opacity="0.32"/><circle cx="329" cy="371" r="4" fill="#12b7a6" opacity="0.29000000000000004"/><circle cx="738" cy="282" r="4" fill="#12b7a6" opacity="0.30000000000000004"/><circle cx="227" cy="207" r="4" fill="#12b7a6" opacity="0.72"/><circle cx="636" cy="118" r="4" fill="#12b7a6" opacity="0.28"/><circle cx="225" cy="327" r="3" fill="#12b7a6" opacity="0.41000000000000003"/>
  <rect x="122" y="92" width="250" height="142" rx="44" fill="#fffaf4" stroke="#315be8" stroke-width="8"/><path d="M198 230l-42 54 92-52" fill="#fffaf4" stroke="#315be8" stroke-width="8" stroke-linejoin="round"/><rect x="428" y="142" width="250" height="142" rx="44" fill="#fffaf4" stroke="#12b7a6" stroke-width="8"/><path d="M602 280l42 54-92-52" fill="#fffaf4" stroke="#12b7a6" stroke-width="8" stroke-linejoin="round"/><path d="M178 158h134M178 196h86M484 208h134M484 246h86" stroke="#15191d" stroke-width="14" stroke-linecap="round" opacity=".2"/>
</svg>
