<svg xmlns="http://www.w3.org/2000/svg" viewBox="0 0 800 420" role="img" aria-label="Ilustracion propia de arte y museo para esta pregunta">
  <defs>
    <linearGradient id="bg" x1="0" x2="1" y1="0" y2="1">
      <stop stop-color="#fff2df"/>
      <stop offset="1" stop-color="#12b7a6" stop-opacity="0.22"/>
    </linearGradient>
  </defs>
  <rect width="800" height="420" fill="url(#bg)"/>
  <circle cx="429" cy="101" r="85" fill="#6f4a2d" opacity="0.13"/>
  <circle cx="212" cy="66" r="86" fill="#12b7a6" opacity="0.16"/>
  <circle cx="260" cy="264" r="2" fill="#ff4f6d" opacity="0.36000000000000004"/><circle cx="567" cy="353" r="2" fill="#ff4f6d" opacity="0.35000000000000003"/><circle cx="362" cy="85" r="2" fill="#ff4f6d" opacity="0.38"/><circle cx="669" cy="174" r="2" fill="#ff4f6d" opacity="0.37"/><circle cx="464" cy="249" r="2" fill="#ff4f6d" opacity="0.4"/><circle cx="55" cy="338" r="2" fill="#ff4f6d" opacity="0.39"/><circle cx="566" cy="71" r="2" fill="#ff4f6d" opacity="0.42000000000000004"/><circle cx="157" cy="160" r="2" fill="#ff4f6d" opacity="0.41000000000000003"/><circle cx="568" cy="293" r="2" fill="#ff4f6d" opacity="0.28"/>
  <rect x="282" y="54" width="304" height="312" rx="24" fill="#6f4a2d"/><rect x="312" y="84" width="244" height="252" rx="16" fill="#d9c092"/><circle cx="434" cy="178" r="54" fill="#f0c7a5"/><path d="M364 318c12-82 42-120 70-120s58 38 70 120z" fill="#ff4f6d"/><path d="M378 154c36-72 116-46 122 10-36-18-74-18-122-10z" fill="#4a2d22"/>
</svg>
