<svg xmlns="http://www.w3.org/2000/svg" viewBox="0 0 800 420" role="img" aria-label="Ilustracion propia de idiomas y conversacion para esta pregunta">
  <defs>
    <linearGradient id="bg" x1="0" x2="1" y1="0" y2="1">
      <stop stop-color="#eef7ff"/>
      <stop offset="1" stop-color="#eef7ff" stop-opacity="0.22"/>
    </linearGradient>
  </defs>
  <rect width="800" height="420" fill="url(#bg)"/>
  <circle cx="646" cy="280" r="86" fill="#315be8" opacity="0.13"/>
  <circle cx="314" cy="268" r="76" fill="#ff4f6d" opacity="0.16"/>
  <circle cx="228" cy="38" r="4" fill="#12b7a6" opacity="0.66"/><circle cx="535" cy="127" r="4" fill="#12b7a6" opacity="0.65"/><circle cx="330" cy="201" r="4" fill="#12b7a6" opacity="0.68"/><circle cx="637" cy="291" r="4" fill="#12b7a6" opacity="0.67"/><circle cx="432" cy="365" r="4" fill="#12b7a6" opacity="0.7"/><circle cx="739" cy="112" r="4" fill="#12b7a6" opacity="0.69"/><circle cx="534" cy="187" r="4" fill="#12b7a6" opacity="0.72"/><circle cx="125" cy="276" r="4" fill="#12b7a6" opacity="0.71"/><circle cx="536" cy="67" r="4" fill="#12b7a6" opacity="0.5800000000000001"/>
  <rect x="122" y="92" width="250" height="142" rx="44" fill="#fffaf4" stroke="#315be8" stroke-width="8"/><path d="M198 230l-42 54 92-52" fill="#fffaf4" stroke="#315be8" stroke-width="8" stroke-linejoin="round"/><rect x="428" y="142" width="250" height="142" rx="44" fill="#fffaf4" stroke="#12b7a6" stroke-width="8"/><path d="M602 280l42 54-92-52" fill="#fffaf4" stroke="#12b7a6" stroke-width="8" stroke-linejoin="round"/><path d="M178 158h134M178 196h86M484 208h134M484 246h86" stroke="#15191d" stroke-width="14" stroke-linecap="round" opacity=".2"/>
</svg>
