<svg xmlns="http://www.w3.org/2000/svg" viewBox="0 0 800 420" role="img" aria-label="Ilustracion propia de idiomas y conversacion para esta pregunta">
  <defs>
    <linearGradient id="bg" x1="0" x2="1" y1="0" y2="1">
      <stop stop-color="#eef7ff"/>
      <stop offset="1" stop-color="#315be8" stop-opacity="0.22"/>
    </linearGradient>
  </defs>
  <rect width="800" height="420" fill="url(#bg)"/>
  <circle cx="441" cy="150" r="90" fill="#315be8" opacity="0.13"/>
  <circle cx="664" cy="251" r="87" fill="#ff4f6d" opacity="0.16"/>
  <circle cx="191" cy="168" r="5" fill="#12b7a6" opacity="0.30000000000000004"/><circle cx="600" cy="79" r="5" fill="#12b7a6" opacity="0.31000000000000005"/><circle cx="293" cy="332" r="5" fill="#12b7a6" opacity="0.32"/><circle cx="702" cy="243" r="5" fill="#12b7a6" opacity="0.33"/><circle cx="703" cy="183" r="2" fill="#12b7a6" opacity="0.71"/><circle cx="396" cy="94" r="2" fill="#12b7a6" opacity="0.72"/><circle cx="89" cy="346" r="2" fill="#12b7a6" opacity="0.28"/><circle cx="498" cy="257" r="2" fill="#12b7a6" opacity="0.29000000000000004"/><circle cx="499" cy="197" r="2" fill="#12b7a6" opacity="0.67"/>
  <rect x="122" y="92" width="250" height="142" rx="44" fill="#fffaf4" stroke="#315be8" stroke-width="8"/><path d="M198 230l-42 54 92-52" fill="#fffaf4" stroke="#315be8" stroke-width="8" stroke-linejoin="round"/><rect x="428" y="142" width="250" height="142" rx="44" fill="#fffaf4" stroke="#12b7a6" stroke-width="8"/><path d="M602 280l42 54-92-52" fill="#fffaf4" stroke="#12b7a6" stroke-width="8" stroke-linejoin="round"/><path d="M178 158h134M178 196h86M484 208h134M484 246h86" stroke="#15191d" stroke-width="14" stroke-linecap="round" opacity=".2"/>
</svg>
