<svg xmlns="http://www.w3.org/2000/svg" viewBox="0 0 800 420" role="img" aria-label="Ilustracion propia de idiomas y conversacion para esta pregunta">
  <defs>
    <linearGradient id="bg" x1="0" x2="1" y1="0" y2="1">
      <stop stop-color="#eef7ff"/>
      <stop offset="1" stop-color="#315be8" stop-opacity="0.22"/>
    </linearGradient>
  </defs>
  <rect width="800" height="420" fill="url(#bg)"/>
  <circle cx="477" cy="110" r="94" fill="#315be8" opacity="0.13"/>
  <circle cx="218" cy="103" r="77" fill="#ff4f6d" opacity="0.16"/>
  <circle cx="511" cy="42" r="2" fill="#12b7a6" opacity="0.66"/><circle cx="204" cy="295" r="2" fill="#12b7a6" opacity="0.67"/><circle cx="613" cy="206" r="2" fill="#12b7a6" opacity="0.68"/><circle cx="306" cy="117" r="2" fill="#12b7a6" opacity="0.69"/><circle cx="307" cy="57" r="2" fill="#12b7a6" opacity="0.6200000000000001"/><circle cx="716" cy="310" r="2" fill="#12b7a6" opacity="0.63"/><circle cx="409" cy="220" r="2" fill="#12b7a6" opacity="0.64"/><circle cx="102" cy="131" r="2" fill="#12b7a6" opacity="0.65"/><circle cx="103" cy="71" r="2" fill="#12b7a6" opacity="0.5800000000000001"/>
  <rect x="122" y="92" width="250" height="142" rx="44" fill="#fffaf4" stroke="#315be8" stroke-width="8"/><path d="M198 230l-42 54 92-52" fill="#fffaf4" stroke="#315be8" stroke-width="8" stroke-linejoin="round"/><rect x="428" y="142" width="250" height="142" rx="44" fill="#fffaf4" stroke="#12b7a6" stroke-width="8"/><path d="M602 280l42 54-92-52" fill="#fffaf4" stroke="#12b7a6" stroke-width="8" stroke-linejoin="round"/><path d="M178 158h134M178 196h86M484 208h134M484 246h86" stroke="#15191d" stroke-width="14" stroke-linecap="round" opacity=".2"/>
</svg>
