<svg xmlns="http://www.w3.org/2000/svg" viewBox="0 0 800 420" role="img" aria-label="Ilustracion propia de idiomas y conversacion para esta pregunta">
  <defs>
    <linearGradient id="bg" x1="0" x2="1" y1="0" y2="1">
      <stop stop-color="#eef7ff"/>
      <stop offset="1" stop-color="#315be8" stop-opacity="0.22"/>
    </linearGradient>
  </defs>
  <rect width="800" height="420" fill="url(#bg)"/>
  <circle cx="516" cy="168" r="136" fill="#315be8" opacity="0.13"/>
  <circle cx="673" cy="289" r="133" fill="#ff4f6d" opacity="0.16"/>
  <circle cx="220" cy="246" r="4" fill="#12b7a6" opacity="0.34"/><circle cx="527" cy="336" r="4" fill="#12b7a6" opacity="0.33"/><circle cx="322" cy="68" r="4" fill="#12b7a6" opacity="0.36000000000000004"/><circle cx="629" cy="157" r="4" fill="#12b7a6" opacity="0.35000000000000003"/><circle cx="248" cy="133" r="4" fill="#12b7a6" opacity="0.44000000000000006"/><circle cx="555" cy="222" r="4" fill="#12b7a6" opacity="0.43000000000000005"/><circle cx="118" cy="83" r="4" fill="#12b7a6" opacity="0.32"/><circle cx="657" cy="44" r="4" fill="#12b7a6" opacity="0.45000000000000007"/><circle cx="628" cy="217" r="4" fill="#12b7a6" opacity="0.42000000000000004"/>
  <rect x="122" y="92" width="250" height="142" rx="44" fill="#fffaf4" stroke="#315be8" stroke-width="8"/><path d="M198 230l-42 54 92-52" fill="#fffaf4" stroke="#315be8" stroke-width="8" stroke-linejoin="round"/><rect x="428" y="142" width="250" height="142" rx="44" fill="#fffaf4" stroke="#12b7a6" stroke-width="8"/><path d="M602 280l42 54-92-52" fill="#fffaf4" stroke="#12b7a6" stroke-width="8" stroke-linejoin="round"/><path d="M178 158h134M178 196h86M484 208h134M484 246h86" stroke="#15191d" stroke-width="14" stroke-linecap="round" opacity=".2"/>
</svg>
