<svg xmlns="http://www.w3.org/2000/svg" viewBox="0 0 800 420" role="img" aria-label="Ilustracion propia de idiomas y conversacion para esta pregunta">
  <defs>
    <linearGradient id="bg" x1="0" x2="1" y1="0" y2="1">
      <stop stop-color="#eef7ff"/>
      <stop offset="1" stop-color="#315be8" stop-opacity="0.22"/>
    </linearGradient>
  </defs>
  <rect width="800" height="420" fill="url(#bg)"/>
  <circle cx="406" cy="167" r="114" fill="#315be8" opacity="0.13"/>
  <circle cx="134" cy="289" r="70" fill="#ff4f6d" opacity="0.16"/>
  <circle cx="421" cy="177" r="5" fill="#12b7a6" opacity="0.69"/><circle cx="114" cy="88" r="5" fill="#12b7a6" opacity="0.7"/><circle cx="319" cy="355" r="5" fill="#12b7a6" opacity="0.67"/><circle cx="728" cy="266" r="5" fill="#12b7a6" opacity="0.68"/><circle cx="625" cy="162" r="5" fill="#12b7a6" opacity="0.28"/><circle cx="318" cy="73" r="5" fill="#12b7a6" opacity="0.29000000000000004"/><circle cx="523" cy="341" r="5" fill="#12b7a6" opacity="0.71"/><circle cx="216" cy="251" r="5" fill="#12b7a6" opacity="0.72"/><circle cx="729" cy="206" r="5" fill="#12b7a6" opacity="0.6100000000000001"/>
  <rect x="122" y="92" width="250" height="142" rx="44" fill="#fffaf4" stroke="#315be8" stroke-width="8"/><path d="M198 230l-42 54 92-52" fill="#fffaf4" stroke="#315be8" stroke-width="8" stroke-linejoin="round"/><rect x="428" y="142" width="250" height="142" rx="44" fill="#fffaf4" stroke="#12b7a6" stroke-width="8"/><path d="M602 280l42 54-92-52" fill="#fffaf4" stroke="#12b7a6" stroke-width="8" stroke-linejoin="round"/><path d="M178 158h134M178 196h86M484 208h134M484 246h86" stroke="#15191d" stroke-width="14" stroke-linecap="round" opacity=".2"/>
</svg>
