<svg xmlns="http://www.w3.org/2000/svg" viewBox="0 0 800 420" role="img" aria-label="Ilustracion propia de oceano y olas para esta pregunta">
  <defs>
    <linearGradient id="bg" x1="0" x2="1" y1="0" y2="1">
      <stop stop-color="#dff8ff"/>
      <stop offset="1" stop-color="#fffaf4" stop-opacity="0.22"/>
    </linearGradient>
  </defs>
  <rect width="800" height="420" fill="url(#bg)"/>
  <circle cx="563" cy="68" r="105" fill="#12b7a6" opacity="0.13"/>
  <circle cx="154" cy="62" r="119" fill="#315be8" opacity="0.16"/>
  <circle cx="192" cy="309" r="2" fill="#fffaf4" opacity="0.72"/><circle cx="499" cy="56" r="2" fill="#fffaf4" opacity="0.71"/><circle cx="294" cy="130" r="5" fill="#fffaf4" opacity="0.29000000000000004"/><circle cx="601" cy="219" r="5" fill="#fffaf4" opacity="0.28"/><circle cx="396" cy="294" r="5" fill="#fffaf4" opacity="0.31000000000000005"/><circle cx="703" cy="41" r="5" fill="#fffaf4" opacity="0.30000000000000004"/><circle cx="498" cy="116" r="5" fill="#fffaf4" opacity="0.33"/><circle cx="89" cy="205" r="5" fill="#fffaf4" opacity="0.32"/><circle cx="500" cy="338" r="2" fill="#fffaf4" opacity="0.64"/>
  <path d="M0 240c88-42 144 42 232 0s144 42 232 0 144 42 232 0 144 42 232 0v180H0z" fill="#fff" opacity=".34"/><path d="M0 306c88-42 144 42 232 0s144 42 232 0 144 42 232 0 144 42 232 0" fill="none" stroke="#fff" stroke-width="18" opacity=".62"/><path d="M142 174c82-44 170-44 252 0" fill="none" stroke="#fff" stroke-width="10" opacity=".45" stroke-linecap="round"/>
</svg>
