<svg xmlns="http://www.w3.org/2000/svg" viewBox="0 0 800 420" role="img" aria-label="Ilustracion propia de oceano y olas para esta pregunta">
  <defs>
    <linearGradient id="bg" x1="0" x2="1" y1="0" y2="1">
      <stop stop-color="#dff8ff"/>
      <stop offset="1" stop-color="#315be8" stop-opacity="0.22"/>
    </linearGradient>
  </defs>
  <rect width="800" height="420" fill="url(#bg)"/>
  <circle cx="163" cy="90" r="109" fill="#12b7a6" opacity="0.13"/>
  <circle cx="329" cy="137" r="129" fill="#315be8" opacity="0.16"/>
  <circle cx="545" cy="197" r="3" fill="#fffaf4" opacity="0.39"/><circle cx="238" cy="108" r="3" fill="#fffaf4" opacity="0.4"/><circle cx="443" cy="376" r="3" fill="#fffaf4" opacity="0.37"/><circle cx="136" cy="286" r="3" fill="#fffaf4" opacity="0.38"/><circle cx="749" cy="183" r="3" fill="#fffaf4" opacity="0.43000000000000005"/><circle cx="442" cy="94" r="3" fill="#fffaf4" opacity="0.44000000000000006"/><circle cx="647" cy="361" r="3" fill="#fffaf4" opacity="0.41000000000000003"/><circle cx="340" cy="272" r="3" fill="#fffaf4" opacity="0.42000000000000004"/><circle cx="237" cy="168" r="3" fill="#fffaf4" opacity="0.47000000000000003"/>
  <path d="M0 240c88-42 144 42 232 0s144 42 232 0 144 42 232 0 144 42 232 0v180H0z" fill="#fff" opacity=".34"/><path d="M0 306c88-42 144 42 232 0s144 42 232 0 144 42 232 0 144 42 232 0" fill="none" stroke="#fff" stroke-width="18" opacity=".62"/><path d="M142 174c82-44 170-44 252 0" fill="none" stroke="#fff" stroke-width="10" opacity=".45" stroke-linecap="round"/>
</svg>
