<svg xmlns="http://www.w3.org/2000/svg" viewBox="0 0 800 420" role="img" aria-label="Ilustracion propia de oceano y olas para esta pregunta">
  <defs>
    <linearGradient id="bg" x1="0" x2="1" y1="0" y2="1">
      <stop stop-color="#dff8ff"/>
      <stop offset="1" stop-color="#fffaf4" stop-opacity="0.22"/>
    </linearGradient>
  </defs>
  <rect width="800" height="420" fill="url(#bg)"/>
  <circle cx="509" cy="217" r="135" fill="#12b7a6" opacity="0.13"/>
  <circle cx="372" cy="81" r="92" fill="#315be8" opacity="0.16"/>
  <circle cx="656" cy="365" r="5" fill="#fffaf4" opacity="0.39"/><circle cx="247" cy="112" r="5" fill="#fffaf4" opacity="0.38"/><circle cx="526" cy="314" r="5" fill="#fffaf4" opacity="0.72"/><circle cx="349" cy="275" r="5" fill="#fffaf4" opacity="0.4"/><circle cx="628" cy="136" r="5" fill="#fffaf4" opacity="0.29000000000000004"/><circle cx="219" cy="225" r="5" fill="#fffaf4" opacity="0.28"/><circle cx="730" cy="300" r="5" fill="#fffaf4" opacity="0.31000000000000005"/><circle cx="321" cy="47" r="5" fill="#fffaf4" opacity="0.30000000000000004"/><circle cx="116" cy="121" r="5" fill="#fffaf4" opacity="0.33"/>
  <path d="M0 240c88-42 144 42 232 0s144 42 232 0 144 42 232 0 144 42 232 0v180H0z" fill="#fff" opacity=".34"/><path d="M0 316c88-42 144 42 232 0s144 42 232 0 144 42 232 0 144 42 232 0" fill="none" stroke="#fff" stroke-width="18" opacity=".62"/><path d="M142 174c82-44 170-44 252 0" fill="none" stroke="#fff" stroke-width="10" opacity=".45" stroke-linecap="round"/>
</svg>
