<svg xmlns="http://www.w3.org/2000/svg" viewBox="0 0 800 420" role="img" aria-label="Ilustracion propia de oceano y olas para esta pregunta">
  <defs>
    <linearGradient id="bg" x1="0" x2="1" y1="0" y2="1">
      <stop stop-color="#dff8ff"/>
      <stop offset="1" stop-color="#dff8ff" stop-opacity="0.22"/>
    </linearGradient>
  </defs>
  <rect width="800" height="420" fill="url(#bg)"/>
  <circle cx="384" cy="293" r="134" fill="#12b7a6" opacity="0.13"/>
  <circle cx="582" cy="305" r="92" fill="#315be8" opacity="0.16"/>
  <circle cx="696" cy="96" r="3" fill="#fffaf4" opacity="0.29000000000000004"/><circle cx="287" cy="185" r="3" fill="#fffaf4" opacity="0.28"/><circle cx="82" cy="260" r="3" fill="#fffaf4" opacity="0.31000000000000005"/><circle cx="389" cy="349" r="3" fill="#fffaf4" opacity="0.30000000000000004"/><circle cx="492" cy="111" r="4" fill="#fffaf4" opacity="0.7"/><circle cx="83" cy="200" r="4" fill="#fffaf4" opacity="0.69"/><circle cx="594" cy="274" r="3" fill="#fffaf4" opacity="0.72"/><circle cx="185" cy="363" r="3" fill="#fffaf4" opacity="0.71"/><circle cx="288" cy="125" r="4" fill="#fffaf4" opacity="0.66"/>
  <path d="M0 240c88-42 144 42 232 0s144 42 232 0 144 42 232 0 144 42 232 0v180H0z" fill="#fff" opacity=".34"/><path d="M0 316c88-42 144 42 232 0s144 42 232 0 144 42 232 0 144 42 232 0" fill="none" stroke="#fff" stroke-width="18" opacity=".62"/><path d="M142 174c82-44 170-44 252 0" fill="none" stroke="#fff" stroke-width="10" opacity=".45" stroke-linecap="round"/>
</svg>
