<svg xmlns="http://www.w3.org/2000/svg" viewBox="0 0 800 420" role="img" aria-label="Ilustracion propia de naturaleza para esta pregunta">
  <defs>
    <linearGradient id="bg" x1="0" x2="1" y1="0" y2="1">
      <stop stop-color="#ecfbef"/>
      <stop offset="1" stop-color="#f6bc42" stop-opacity="0.22"/>
    </linearGradient>
  </defs>
  <rect width="800" height="420" fill="url(#bg)"/>
  <circle cx="495" cy="234" r="89" fill="#12b7a6" opacity="0.13"/>
  <circle cx="520" cy="298" r="77" fill="#315be8" opacity="0.16"/>
  <circle cx="648" cy="230" r="4" fill="#f6bc42" opacity="0.5"/><circle cx="239" cy="319" r="4" fill="#f6bc42" opacity="0.49"/><circle cx="750" cy="52" r="4" fill="#f6bc42" opacity="0.52"/><circle cx="341" cy="141" r="4" fill="#f6bc42" opacity="0.51"/><circle cx="444" cy="245" r="4" fill="#f6bc42" opacity="0.46"/><circle cx="751" cy="334" r="4" fill="#f6bc42" opacity="0.45000000000000007"/><circle cx="546" cy="67" r="4" fill="#f6bc42" opacity="0.48000000000000004"/><circle cx="137" cy="156" r="4" fill="#f6bc42" opacity="0.47000000000000003"/><circle cx="240" cy="259" r="4" fill="#f6bc42" opacity="0.42000000000000004"/>
  <path d="M164 322c172-20 120-184 278-208 118-18 172 78 194 158-152 42-298 74-472 50z" fill="#315be8"/><path d="M214 300c138-68 244-104 390-118" stroke="#fff" stroke-width="14" stroke-linecap="round" opacity=".72"/><path d="M394 254c-28-52-20-104 24-156 72 30 102 82 84 150z" fill="#f6bc42" opacity=".88"/>
</svg>
