<svg xmlns="http://www.w3.org/2000/svg" viewBox="0 0 800 420" role="img" aria-label="Ilustracion propia de oceano y olas para esta pregunta">
  <defs>
    <linearGradient id="bg" x1="0" x2="1" y1="0" y2="1">
      <stop stop-color="#dff8ff"/>
      <stop offset="1" stop-color="#dff8ff" stop-opacity="0.22"/>
    </linearGradient>
  </defs>
  <rect width="800" height="420" fill="url(#bg)"/>
  <circle cx="302" cy="117" r="92" fill="#12b7a6" opacity="0.13"/>
  <circle cx="421" cy="211" r="97" fill="#315be8" opacity="0.16"/>
  <circle cx="615" cy="96" r="3" fill="#fffaf4" opacity="0.28"/><circle cx="308" cy="349" r="3" fill="#fffaf4" opacity="0.29000000000000004"/><circle cx="717" cy="260" r="3" fill="#fffaf4" opacity="0.30000000000000004"/><circle cx="410" cy="171" r="3" fill="#fffaf4" opacity="0.31000000000000005"/><circle cx="411" cy="111" r="3" fill="#fffaf4" opacity="0.69"/><circle cx="104" cy="364" r="3" fill="#fffaf4" opacity="0.7"/><circle cx="513" cy="275" r="3" fill="#fffaf4" opacity="0.71"/><circle cx="206" cy="185" r="3" fill="#fffaf4" opacity="0.72"/><circle cx="207" cy="126" r="3" fill="#fffaf4" opacity="0.65"/>
  <path d="M0 240c88-42 144 42 232 0s144 42 232 0 144 42 232 0 144 42 232 0v180H0z" fill="#fff" opacity=".34"/><path d="M0 296c88-42 144 42 232 0s144 42 232 0 144 42 232 0 144 42 232 0" fill="none" stroke="#fff" stroke-width="18" opacity=".62"/><path d="M142 174c82-44 170-44 252 0" fill="none" stroke="#fff" stroke-width="10" opacity=".45" stroke-linecap="round"/>
</svg>
