<svg xmlns="http://www.w3.org/2000/svg" viewBox="0 0 800 420" role="img" aria-label="Ilustracion propia de naturaleza para esta pregunta">
  <defs>
    <linearGradient id="bg" x1="0" x2="1" y1="0" y2="1">
      <stop stop-color="#ecfbef"/>
      <stop offset="1" stop-color="#315be8" stop-opacity="0.22"/>
    </linearGradient>
  </defs>
  <rect width="800" height="420" fill="url(#bg)"/>
  <circle cx="524" cy="166" r="79" fill="#12b7a6" opacity="0.13"/>
  <circle cx="224" cy="289" r="115" fill="#315be8" opacity="0.16"/>
  <circle cx="715" cy="129" r="5" fill="#f6bc42" opacity="0.38"/><circle cx="408" cy="40" r="5" fill="#f6bc42" opacity="0.39"/><circle cx="101" cy="293" r="5" fill="#f6bc42" opacity="0.4"/><circle cx="510" cy="203" r="5" fill="#f6bc42" opacity="0.41000000000000003"/><circle cx="511" cy="143" r="5" fill="#f6bc42" opacity="0.34"/><circle cx="204" cy="54" r="5" fill="#f6bc42" opacity="0.35000000000000003"/><circle cx="613" cy="307" r="5" fill="#f6bc42" opacity="0.36000000000000004"/><circle cx="306" cy="218" r="5" fill="#f6bc42" opacity="0.37"/><circle cx="407" cy="100" r="5" fill="#f6bc42" opacity="0.46"/>
  <path d="M164 322c172-20 120-184 278-208 118-18 172 78 194 158-152 42-298 74-472 50z" fill="#315be8"/><path d="M214 300c138-68 244-104 390-118" stroke="#fff" stroke-width="14" stroke-linecap="round" opacity=".72"/><path d="M374 254c-28-52-20-104 24-156 72 30 102 82 84 150z" fill="#f6bc42" opacity=".88"/>
</svg>
