<svg xmlns="http://www.w3.org/2000/svg" viewBox="0 0 800 420" role="img" aria-label="Ilustracion propia de cine y rodaje para esta pregunta">
  <defs>
    <linearGradient id="bg" x1="0" x2="1" y1="0" y2="1">
      <stop stop-color="#15191d"/>
      <stop offset="1" stop-color="#15191d" stop-opacity="0.22"/>
    </linearGradient>
  </defs>
  <rect width="800" height="420" fill="url(#bg)"/>
  <circle cx="123" cy="142" r="82" fill="#fffaf4" opacity="0.13"/>
  <circle cx="624" cy="250" r="66" fill="#f6bc42" opacity="0.16"/>
  <circle cx="567" cy="63" r="4" fill="#ff4f6d" opacity="0.72"/><circle cx="260" cy="315" r="4" fill="#ff4f6d" opacity="0.28"/><circle cx="669" cy="226" r="4" fill="#ff4f6d" opacity="0.29000000000000004"/><circle cx="362" cy="137" r="4" fill="#ff4f6d" opacity="0.30000000000000004"/><circle cx="363" cy="77" r="4" fill="#ff4f6d" opacity="0.68"/><circle cx="56" cy="330" r="4" fill="#ff4f6d" opacity="0.69"/><circle cx="465" cy="241" r="4" fill="#ff4f6d" opacity="0.7"/><circle cx="158" cy="152" r="4" fill="#ff4f6d" opacity="0.71"/><circle cx="259" cy="375" r="4" fill="#ff4f6d" opacity="0.35000000000000003"/>
  <rect width="800" height="420" fill="#fffaf4"/><circle cx="540" cy="142" r="120" fill="#ff4f6d" opacity=".42"/><rect x="190" y="182" width="420" height="198" rx="22" fill="#f6bc42"/><rect x="190" y="124" width="420" height="70" rx="18" fill="#fffaf4"/><path d="M228 124l58 70M330 124l58 70M432 124l58 70M534 124l58 70" stroke="#fffaf4" stroke-width="20"/><rect x="244" y="254" width="312" height="18" rx="9" fill="#fffaf4" opacity=".16"/>
</svg>
