<svg xmlns="http://www.w3.org/2000/svg" viewBox="0 0 800 420" role="img" aria-label="Ilustracion propia de videojuegos para esta pregunta">
  <defs>
    <linearGradient id="bg" x1="0" x2="1" y1="0" y2="1">
      <stop stop-color="#f4efff"/>
      <stop offset="1" stop-color="#15191d" stop-opacity="0.22"/>
    </linearGradient>
  </defs>
  <rect width="800" height="420" fill="url(#bg)"/>
  <circle cx="528" cy="211" r="78" fill="#15191d" opacity="0.13"/>
  <circle cx="150" cy="295" r="65" fill="#9b5cff" opacity="0.16"/>
  <circle cx="276" cy="192" r="3" fill="#12b7a6" opacity="0.33"/><circle cx="583" cy="281" r="3" fill="#12b7a6" opacity="0.32"/><circle cx="378" cy="355" r="3" fill="#12b7a6" opacity="0.35000000000000003"/><circle cx="685" cy="103" r="3" fill="#12b7a6" opacity="0.34"/><circle cx="480" cy="177" r="3" fill="#12b7a6" opacity="0.37"/><circle cx="71" cy="266" r="3" fill="#12b7a6" opacity="0.36000000000000004"/><circle cx="582" cy="341" r="3" fill="#12b7a6" opacity="0.39"/><circle cx="173" cy="88" r="3" fill="#12b7a6" opacity="0.38"/><circle cx="684" cy="163" r="3" fill="#12b7a6" opacity="0.41000000000000003"/>
  <path d="M226 160c40-54 310-54 348 0l58 104c24 44-12 86-58 64l-74-36H300l-74 36c-46 22-82-20-58-64z" fill="#15191d"/><path d="M284 232h82M325 191v82" stroke="#fff" stroke-width="20" stroke-linecap="round"/><circle cx="518" cy="218" r="20" fill="#12b7a6"/><circle cx="568" cy="252" r="20" fill="#fffaf4"/><circle cx="456" cy="252" r="20" fill="#12b7a6"/>
</svg>
