<svg xmlns="http://www.w3.org/2000/svg" viewBox="0 0 800 420" role="img" aria-label="Ilustracion propia de oceano y olas para esta pregunta">
  <defs>
    <linearGradient id="bg" x1="0" x2="1" y1="0" y2="1">
      <stop stop-color="#dff8ff"/>
      <stop offset="1" stop-color="#315be8" stop-opacity="0.22"/>
    </linearGradient>
  </defs>
  <rect width="800" height="420" fill="url(#bg)"/>
  <circle cx="236" cy="345" r="133" fill="#12b7a6" opacity="0.13"/>
  <circle cx="638" cy="168" r="72" fill="#315be8" opacity="0.16"/>
  <circle cx="724" cy="181" r="4" fill="#fffaf4" opacity="0.68"/><circle cx="315" cy="270" r="4" fill="#fffaf4" opacity="0.67"/><circle cx="110" cy="345" r="4" fill="#fffaf4" opacity="0.7"/><circle cx="417" cy="92" r="4" fill="#fffaf4" opacity="0.69"/><circle cx="212" cy="166" r="4" fill="#fffaf4" opacity="0.72"/><circle cx="519" cy="256" r="4" fill="#fffaf4" opacity="0.71"/><circle cx="314" cy="330" r="4" fill="#fffaf4" opacity="0.29000000000000004"/><circle cx="621" cy="77" r="4" fill="#fffaf4" opacity="0.28"/><circle cx="416" cy="152" r="4" fill="#fffaf4" opacity="0.31000000000000005"/>
  <path d="M0 240c88-42 144 42 232 0s144 42 232 0 144 42 232 0 144 42 232 0v180H0z" fill="#fff" opacity=".34"/><path d="M0 286c88-42 144 42 232 0s144 42 232 0 144 42 232 0 144 42 232 0" fill="none" stroke="#fff" stroke-width="18" opacity=".62"/><path d="M142 174c82-44 170-44 252 0" fill="none" stroke="#fff" stroke-width="10" opacity=".45" stroke-linecap="round"/>
</svg>
