<svg xmlns="http://www.w3.org/2000/svg" viewBox="0 0 800 420" role="img" aria-label="Ilustracion propia de oceano y olas para esta pregunta">
  <defs>
    <linearGradient id="bg" x1="0" x2="1" y1="0" y2="1">
      <stop stop-color="#dff8ff"/>
      <stop offset="1" stop-color="#12b7a6" stop-opacity="0.22"/>
    </linearGradient>
  </defs>
  <rect width="800" height="420" fill="url(#bg)"/>
  <circle cx="594" cy="273" r="70" fill="#12b7a6" opacity="0.13"/>
  <circle cx="308" cy="338" r="114" fill="#315be8" opacity="0.16"/>
  <circle cx="462" cy="356" r="5" fill="#fffaf4" opacity="0.29000000000000004"/><circle cx="53" cy="103" r="5" fill="#fffaf4" opacity="0.28"/><circle cx="360" cy="192" r="5" fill="#fffaf4" opacity="0.72"/><circle cx="667" cy="281" r="5" fill="#fffaf4" opacity="0.71"/><circle cx="258" cy="370" r="5" fill="#fffaf4" opacity="0.7"/><circle cx="565" cy="117" r="5" fill="#fffaf4" opacity="0.69"/><circle cx="156" cy="206" r="5" fill="#fffaf4" opacity="0.68"/><circle cx="463" cy="296" r="5" fill="#fffaf4" opacity="0.67"/><circle cx="54" cy="43" r="5" fill="#fffaf4" opacity="0.66"/>
  <path d="M0 240c88-42 144 42 232 0s144 42 232 0 144 42 232 0 144 42 232 0v180H0z" fill="#fff" opacity=".34"/><path d="M0 316c88-42 144 42 232 0s144 42 232 0 144 42 232 0 144 42 232 0" fill="none" stroke="#fff" stroke-width="18" opacity=".62"/><path d="M142 174c82-44 170-44 252 0" fill="none" stroke="#fff" stroke-width="10" opacity=".45" stroke-linecap="round"/>
</svg>
