<svg xmlns="http://www.w3.org/2000/svg" viewBox="0 0 800 420" role="img" aria-label="Ilustracion propia de videojuegos para esta pregunta">
  <defs>
    <linearGradient id="bg" x1="0" x2="1" y1="0" y2="1">
      <stop stop-color="#f4efff"/>
      <stop offset="1" stop-color="#f4efff" stop-opacity="0.22"/>
    </linearGradient>
  </defs>
  <rect width="800" height="420" fill="url(#bg)"/>
  <circle cx="187" cy="120" r="78" fill="#15191d" opacity="0.13"/>
  <circle cx="107" cy="176" r="115" fill="#9b5cff" opacity="0.16"/>
  <circle cx="689" cy="197" r="4" fill="#12b7a6" opacity="0.28"/><circle cx="382" cy="107" r="4" fill="#12b7a6" opacity="0.29000000000000004"/><circle cx="587" cy="375" r="4" fill="#12b7a6" opacity="0.71"/><circle cx="280" cy="286" r="4" fill="#12b7a6" opacity="0.72"/><circle cx="485" cy="211" r="4" fill="#12b7a6" opacity="0.69"/><circle cx="178" cy="122" r="4" fill="#12b7a6" opacity="0.7"/><circle cx="383" cy="47" r="4" fill="#12b7a6" opacity="0.67"/><circle cx="76" cy="300" r="4" fill="#12b7a6" opacity="0.68"/><circle cx="381" cy="167" r="4" fill="#12b7a6" opacity="0.36000000000000004"/>
  <path d="M226 160c40-54 310-54 348 0l58 104c24 44-12 86-58 64l-74-36H300l-74 36c-46 22-82-20-58-64z" fill="#15191d"/><path d="M284 232h82M325 191v82" stroke="#fff" stroke-width="20" stroke-linecap="round"/><circle cx="506" cy="218" r="20" fill="#12b7a6"/><circle cx="558" cy="252" r="20" fill="#fffaf4"/><circle cx="456" cy="252" r="20" fill="#12b7a6"/>
</svg>
