<svg xmlns="http://www.w3.org/2000/svg" viewBox="0 0 800 420" role="img" aria-label="Ilustracion propia de videojuegos para esta pregunta">
  <defs>
    <linearGradient id="bg" x1="0" x2="1" y1="0" y2="1">
      <stop stop-color="#f4efff"/>
      <stop offset="1" stop-color="#12b7a6" stop-opacity="0.22"/>
    </linearGradient>
  </defs>
  <rect width="800" height="420" fill="url(#bg)"/>
  <circle cx="448" cy="164" r="65" fill="#15191d" opacity="0.13"/>
  <circle cx="515" cy="74" r="84" fill="#9b5cff" opacity="0.16"/>
  <circle cx="370" cy="96" r="3" fill="#12b7a6" opacity="0.4"/><circle cx="677" cy="185" r="3" fill="#12b7a6" opacity="0.39"/><circle cx="268" cy="274" r="3" fill="#12b7a6" opacity="0.38"/><circle cx="575" cy="364" r="3" fill="#12b7a6" opacity="0.37"/><circle cx="166" cy="111" r="3" fill="#12b7a6" opacity="0.36000000000000004"/><circle cx="473" cy="200" r="3" fill="#12b7a6" opacity="0.35000000000000003"/><circle cx="64" cy="289" r="3" fill="#12b7a6" opacity="0.34"/><circle cx="371" cy="36" r="3" fill="#12b7a6" opacity="0.33"/><circle cx="62" cy="67" r="3" fill="#12b7a6" opacity="0.48000000000000004"/>
  <path d="M226 160c40-54 310-54 348 0l58 104c24 44-12 86-58 64l-74-36H300l-74 36c-46 22-82-20-58-64z" fill="#15191d"/><path d="M284 232h82M325 191v82" stroke="#fff" stroke-width="20" stroke-linecap="round"/><circle cx="518" cy="218" r="20" fill="#12b7a6"/><circle cx="568" cy="252" r="20" fill="#fffaf4"/><circle cx="456" cy="252" r="20" fill="#12b7a6"/>
</svg>
