<svg xmlns="http://www.w3.org/2000/svg" viewBox="0 0 800 420" role="img" aria-label="Ilustracion propia de videojuegos para esta pregunta">
  <defs>
    <linearGradient id="bg" x1="0" x2="1" y1="0" y2="1">
      <stop stop-color="#f4efff"/>
      <stop offset="1" stop-color="#15191d" stop-opacity="0.22"/>
    </linearGradient>
  </defs>
  <rect width="800" height="420" fill="url(#bg)"/>
  <circle cx="540" cy="234" r="124" fill="#15191d" opacity="0.13"/>
  <circle cx="451" cy="83" r="141" fill="#9b5cff" opacity="0.16"/>
  <circle cx="335" cy="48" r="5" fill="#12b7a6" opacity="0.65"/><circle cx="744" cy="301" r="5" fill="#12b7a6" opacity="0.66"/><circle cx="437" cy="212" r="5" fill="#12b7a6" opacity="0.67"/><circle cx="130" cy="123" r="5" fill="#12b7a6" opacity="0.68"/><circle cx="539" cy="376" r="5" fill="#12b7a6" opacity="0.69"/><circle cx="232" cy="286" r="5" fill="#12b7a6" opacity="0.7"/><circle cx="641" cy="197" r="5" fill="#12b7a6" opacity="0.71"/><circle cx="334" cy="108" r="5" fill="#12b7a6" opacity="0.72"/><circle cx="643" cy="77" r="5" fill="#12b7a6" opacity="0.5700000000000001"/>
  <path d="M226 160c40-54 310-54 348 0l58 104c24 44-12 86-58 64l-74-36H300l-74 36c-46 22-82-20-58-64z" fill="#15191d"/><path d="M284 232h82M325 191v82" stroke="#fff" stroke-width="20" stroke-linecap="round"/><circle cx="542" cy="218" r="20" fill="#12b7a6"/><circle cx="588" cy="252" r="20" fill="#fffaf4"/><circle cx="456" cy="252" r="20" fill="#12b7a6"/>
</svg>
