<svg xmlns="http://www.w3.org/2000/svg" viewBox="0 0 800 420" role="img" aria-label="Ilustracion propia de videojuegos para esta pregunta">
  <defs>
    <linearGradient id="bg" x1="0" x2="1" y1="0" y2="1">
      <stop stop-color="#f4efff"/>
      <stop offset="1" stop-color="#9b5cff" stop-opacity="0.22"/>
    </linearGradient>
  </defs>
  <rect width="800" height="420" fill="url(#bg)"/>
  <circle cx="241" cy="232" r="87" fill="#15191d" opacity="0.13"/>
  <circle cx="339" cy="297" r="96" fill="#9b5cff" opacity="0.16"/>
  <circle cx="122" cy="349" r="2" fill="#12b7a6" opacity="0.71"/><circle cx="429" cy="96" r="2" fill="#12b7a6" opacity="0.7"/><circle cx="736" cy="185" r="2" fill="#12b7a6" opacity="0.69"/><circle cx="327" cy="274" r="2" fill="#12b7a6" opacity="0.68"/><circle cx="634" cy="364" r="2" fill="#12b7a6" opacity="0.67"/><circle cx="225" cy="111" r="2" fill="#12b7a6" opacity="0.66"/><circle cx="532" cy="200" r="2" fill="#12b7a6" opacity="0.65"/><circle cx="123" cy="289" r="2" fill="#12b7a6" opacity="0.64"/><circle cx="530" cy="320" r="2" fill="#12b7a6" opacity="0.34"/>
  <path d="M226 160c40-54 310-54 348 0l58 104c24 44-12 86-58 64l-74-36H300l-74 36c-46 22-82-20-58-64z" fill="#15191d"/><path d="M284 232h82M325 191v82" stroke="#fff" stroke-width="20" stroke-linecap="round"/><circle cx="494" cy="218" r="20" fill="#12b7a6"/><circle cx="548" cy="252" r="20" fill="#fffaf4"/><circle cx="456" cy="252" r="20" fill="#12b7a6"/>
</svg>
