<svg xmlns="http://www.w3.org/2000/svg" viewBox="0 0 800 420" role="img" aria-label="Ilustracion propia de oceano y olas para esta pregunta">
  <defs>
    <linearGradient id="bg" x1="0" x2="1" y1="0" y2="1">
      <stop stop-color="#dff8ff"/>
      <stop offset="1" stop-color="#315be8" stop-opacity="0.22"/>
    </linearGradient>
  </defs>
  <rect width="800" height="420" fill="url(#bg)"/>
  <circle cx="283" cy="215" r="97" fill="#12b7a6" opacity="0.13"/>
  <circle cx="494" cy="188" r="98" fill="#315be8" opacity="0.16"/>
  <circle cx="568" cy="81" r="2" fill="#fffaf4" opacity="0.36000000000000004"/><circle cx="159" cy="170" r="2" fill="#fffaf4" opacity="0.35000000000000003"/><circle cx="670" cy="245" r="2" fill="#fffaf4" opacity="0.38"/><circle cx="261" cy="334" r="2" fill="#fffaf4" opacity="0.37"/><circle cx="56" cy="67" r="2" fill="#fffaf4" opacity="0.4"/><circle cx="363" cy="156" r="2" fill="#fffaf4" opacity="0.39"/><circle cx="158" cy="230" r="2" fill="#fffaf4" opacity="0.42000000000000004"/><circle cx="465" cy="320" r="2" fill="#fffaf4" opacity="0.41000000000000003"/><circle cx="160" cy="110" r="3" fill="#fffaf4" opacity="0.28"/>
  <path d="M0 240c88-42 144 42 232 0s144 42 232 0 144 42 232 0 144 42 232 0v180H0z" fill="#fff" opacity=".34"/><path d="M0 306c88-42 144 42 232 0s144 42 232 0 144 42 232 0 144 42 232 0" fill="none" stroke="#fff" stroke-width="18" opacity=".62"/><path d="M142 174c82-44 170-44 252 0" fill="none" stroke="#fff" stroke-width="10" opacity=".45" stroke-linecap="round"/>
</svg>
