<svg xmlns="http://www.w3.org/2000/svg" viewBox="0 0 800 420" role="img" aria-label="Ilustracion propia de videojuegos para esta pregunta">
  <defs>
    <linearGradient id="bg" x1="0" x2="1" y1="0" y2="1">
      <stop stop-color="#f4efff"/>
      <stop offset="1" stop-color="#12b7a6" stop-opacity="0.22"/>
    </linearGradient>
  </defs>
  <rect width="800" height="420" fill="url(#bg)"/>
  <circle cx="404" cy="231" r="85" fill="#15191d" opacity="0.13"/>
  <circle cx="509" cy="261" r="126" fill="#9b5cff" opacity="0.16"/>
  <circle cx="239" cy="320" r="5" fill="#12b7a6" opacity="0.41000000000000003"/><circle cx="648" cy="231" r="5" fill="#12b7a6" opacity="0.42000000000000004"/><circle cx="341" cy="142" r="5" fill="#12b7a6" opacity="0.43000000000000005"/><circle cx="750" cy="53" r="5" fill="#12b7a6" opacity="0.44000000000000006"/><circle cx="751" cy="335" r="5" fill="#12b7a6" opacity="0.37"/><circle cx="444" cy="245" r="5" fill="#12b7a6" opacity="0.38"/><circle cx="137" cy="156" r="5" fill="#12b7a6" opacity="0.39"/><circle cx="546" cy="67" r="5" fill="#12b7a6" opacity="0.4"/><circle cx="547" cy="349" r="5" fill="#12b7a6" opacity="0.33"/>
  <path d="M226 160c40-54 310-54 348 0l58 104c24 44-12 86-58 64l-74-36H300l-74 36c-46 22-82-20-58-64z" fill="#15191d"/><path d="M284 232h82M325 191v82" stroke="#fff" stroke-width="20" stroke-linecap="round"/><circle cx="530" cy="218" r="20" fill="#12b7a6"/><circle cx="578" cy="252" r="20" fill="#fffaf4"/><circle cx="456" cy="252" r="20" fill="#12b7a6"/>
</svg>
