<svg xmlns="http://www.w3.org/2000/svg" viewBox="0 0 800 420" role="img" aria-label="Ilustracion propia de videojuegos para esta pregunta">
  <defs>
    <linearGradient id="bg" x1="0" x2="1" y1="0" y2="1">
      <stop stop-color="#f4efff"/>
      <stop offset="1" stop-color="#12b7a6" stop-opacity="0.22"/>
    </linearGradient>
  </defs>
  <rect width="800" height="420" fill="url(#bg)"/>
  <circle cx="259" cy="163" r="71" fill="#15191d" opacity="0.13"/>
  <circle cx="341" cy="146" r="104" fill="#9b5cff" opacity="0.16"/>
  <circle cx="659" cy="154" r="5" fill="#12b7a6" opacity="0.71"/><circle cx="352" cy="65" r="5" fill="#12b7a6" opacity="0.72"/><circle cx="45" cy="318" r="5" fill="#12b7a6" opacity="0.28"/><circle cx="454" cy="229" r="5" fill="#12b7a6" opacity="0.29000000000000004"/><circle cx="147" cy="140" r="5" fill="#12b7a6" opacity="0.30000000000000004"/><circle cx="556" cy="50" r="5" fill="#12b7a6" opacity="0.31000000000000005"/><circle cx="249" cy="303" r="5" fill="#12b7a6" opacity="0.32"/><circle cx="658" cy="214" r="5" fill="#12b7a6" opacity="0.33"/><circle cx="351" cy="125" r="5" fill="#12b7a6" opacity="0.34"/>
  <path d="M226 160c40-54 310-54 348 0l58 104c24 44-12 86-58 64l-74-36H300l-74 36c-46 22-82-20-58-64z" fill="#15191d"/><path d="M284 232h82M325 191v82" stroke="#fff" stroke-width="20" stroke-linecap="round"/><circle cx="530" cy="218" r="20" fill="#12b7a6"/><circle cx="578" cy="252" r="20" fill="#fffaf4"/><circle cx="456" cy="252" r="20" fill="#12b7a6"/>
</svg>
