<svg xmlns="http://www.w3.org/2000/svg" viewBox="0 0 800 420" role="img" aria-label="Ilustracion propia de videojuegos para esta pregunta">
  <defs>
    <linearGradient id="bg" x1="0" x2="1" y1="0" y2="1">
      <stop stop-color="#f4efff"/>
      <stop offset="1" stop-color="#9b5cff" stop-opacity="0.22"/>
    </linearGradient>
  </defs>
  <rect width="800" height="420" fill="url(#bg)"/>
  <circle cx="543" cy="62" r="105" fill="#15191d" opacity="0.13"/>
  <circle cx="451" cy="240" r="139" fill="#9b5cff" opacity="0.16"/>
  <circle cx="658" cy="130" r="2" fill="#12b7a6" opacity="0.5700000000000001"/><circle cx="249" cy="219" r="2" fill="#12b7a6" opacity="0.56"/><circle cx="556" cy="308" r="2" fill="#12b7a6" opacity="0.55"/><circle cx="147" cy="56" r="2" fill="#12b7a6" opacity="0.54"/><circle cx="146" cy="116" r="2" fill="#12b7a6" opacity="0.6100000000000001"/><circle cx="453" cy="205" r="2" fill="#12b7a6" opacity="0.6000000000000001"/><circle cx="44" cy="294" r="2" fill="#12b7a6" opacity="0.5900000000000001"/><circle cx="351" cy="41" r="2" fill="#12b7a6" opacity="0.5800000000000001"/><circle cx="350" cy="101" r="2" fill="#12b7a6" opacity="0.65"/>
  <path d="M226 160c40-54 310-54 348 0l58 104c24 44-12 86-58 64l-74-36H300l-74 36c-46 22-82-20-58-64z" fill="#15191d"/><path d="M284 232h82M325 191v82" stroke="#fff" stroke-width="20" stroke-linecap="round"/><circle cx="518" cy="218" r="20" fill="#12b7a6"/><circle cx="568" cy="252" r="20" fill="#fffaf4"/><circle cx="456" cy="252" r="20" fill="#12b7a6"/>
</svg>
