<svg xmlns="http://www.w3.org/2000/svg" viewBox="0 0 800 420" role="img" aria-label="Ilustracion propia de videojuegos para esta pregunta">
  <defs>
    <linearGradient id="bg" x1="0" x2="1" y1="0" y2="1">
      <stop stop-color="#f4efff"/>
      <stop offset="1" stop-color="#15191d" stop-opacity="0.22"/>
    </linearGradient>
  </defs>
  <rect width="800" height="420" fill="url(#bg)"/>
  <circle cx="359" cy="67" r="112" fill="#15191d" opacity="0.13"/>
  <circle cx="278" cy="98" r="100" fill="#9b5cff" opacity="0.16"/>
  <circle cx="253" cy="376" r="4" fill="#12b7a6" opacity="0.55"/><circle cx="662" cy="287" r="4" fill="#12b7a6" opacity="0.56"/><circle cx="151" cy="212" r="4" fill="#12b7a6" opacity="0.53"/><circle cx="560" cy="123" r="4" fill="#12b7a6" opacity="0.54"/><circle cx="49" cy="49" r="4" fill="#12b7a6" opacity="0.51"/><circle cx="458" cy="301" r="4" fill="#12b7a6" opacity="0.52"/><circle cx="663" cy="227" r="4" fill="#12b7a6" opacity="0.49"/><circle cx="356" cy="138" r="4" fill="#12b7a6" opacity="0.5"/><circle cx="561" cy="63" r="4" fill="#12b7a6" opacity="0.47000000000000003"/>
  <path d="M226 160c40-54 310-54 348 0l58 104c24 44-12 86-58 64l-74-36H300l-74 36c-46 22-82-20-58-64z" fill="#15191d"/><path d="M284 232h82M325 191v82" stroke="#fff" stroke-width="20" stroke-linecap="round"/><circle cx="530" cy="218" r="20" fill="#12b7a6"/><circle cx="578" cy="252" r="20" fill="#fffaf4"/><circle cx="456" cy="252" r="20" fill="#12b7a6"/>
</svg>
