<svg xmlns="http://www.w3.org/2000/svg" viewBox="0 0 800 420" role="img" aria-label="Ilustracion propia de videojuegos para esta pregunta">
  <defs>
    <linearGradient id="bg" x1="0" x2="1" y1="0" y2="1">
      <stop stop-color="#f4efff"/>
      <stop offset="1" stop-color="#f4efff" stop-opacity="0.22"/>
    </linearGradient>
  </defs>
  <rect width="800" height="420" fill="url(#bg)"/>
  <circle cx="454" cy="205" r="124" fill="#15191d" opacity="0.13"/>
  <circle cx="140" cy="330" r="71" fill="#9b5cff" opacity="0.16"/>
  <circle cx="48" cy="107" r="3" fill="#12b7a6" opacity="0.34"/><circle cx="355" cy="196" r="3" fill="#12b7a6" opacity="0.33"/><circle cx="150" cy="271" r="2" fill="#12b7a6" opacity="0.36000000000000004"/><circle cx="457" cy="360" r="3" fill="#12b7a6" opacity="0.35000000000000003"/><circle cx="252" cy="93" r="2" fill="#12b7a6" opacity="0.38"/><circle cx="559" cy="182" r="2" fill="#12b7a6" opacity="0.37"/><circle cx="354" cy="256" r="2" fill="#12b7a6" opacity="0.4"/><circle cx="661" cy="346" r="2" fill="#12b7a6" opacity="0.39"/><circle cx="356" cy="136" r="3" fill="#12b7a6" opacity="0.71"/>
  <path d="M226 160c40-54 310-54 348 0l58 104c24 44-12 86-58 64l-74-36H300l-74 36c-46 22-82-20-58-64z" fill="#15191d"/><path d="M284 232h82M325 191v82" stroke="#fff" stroke-width="20" stroke-linecap="round"/><circle cx="530" cy="218" r="20" fill="#12b7a6"/><circle cx="578" cy="252" r="20" fill="#fffaf4"/><circle cx="456" cy="252" r="20" fill="#12b7a6"/>
</svg>
