<svg xmlns="http://www.w3.org/2000/svg" viewBox="0 0 800 420" role="img" aria-label="Ilustracion propia de videojuegos para esta pregunta">
  <defs>
    <linearGradient id="bg" x1="0" x2="1" y1="0" y2="1">
      <stop stop-color="#f4efff"/>
      <stop offset="1" stop-color="#12b7a6" stop-opacity="0.22"/>
    </linearGradient>
  </defs>
  <rect width="800" height="420" fill="url(#bg)"/>
  <circle cx="240" cy="273" r="73" fill="#15191d" opacity="0.13"/>
  <circle cx="414" cy="338" r="75" fill="#9b5cff" opacity="0.16"/>
  <circle cx="583" cy="305" r="3" fill="#12b7a6" opacity="0.49"/><circle cx="276" cy="216" r="2" fill="#12b7a6" opacity="0.5"/><circle cx="685" cy="127" r="2" fill="#12b7a6" opacity="0.51"/><circle cx="378" cy="38" r="2" fill="#12b7a6" opacity="0.52"/><circle cx="379" cy="320" r="3" fill="#12b7a6" opacity="0.45000000000000007"/><circle cx="72" cy="231" r="3" fill="#12b7a6" opacity="0.46"/><circle cx="481" cy="142" r="3" fill="#12b7a6" opacity="0.47000000000000003"/><circle cx="174" cy="53" r="3" fill="#12b7a6" opacity="0.48000000000000004"/><circle cx="275" cy="276" r="2" fill="#12b7a6" opacity="0.5700000000000001"/>
  <path d="M226 160c40-54 310-54 348 0l58 104c24 44-12 86-58 64l-74-36H300l-74 36c-46 22-82-20-58-64z" fill="#15191d"/><path d="M284 232h82M325 191v82" stroke="#fff" stroke-width="20" stroke-linecap="round"/><circle cx="542" cy="218" r="20" fill="#12b7a6"/><circle cx="588" cy="252" r="20" fill="#fffaf4"/><circle cx="456" cy="252" r="20" fill="#12b7a6"/>
</svg>
