<svg xmlns="http://www.w3.org/2000/svg" viewBox="0 0 800 420" role="img" aria-label="Ilustracion propia de videojuegos para esta pregunta">
  <defs>
    <linearGradient id="bg" x1="0" x2="1" y1="0" y2="1">
      <stop stop-color="#f4efff"/>
      <stop offset="1" stop-color="#15191d" stop-opacity="0.22"/>
    </linearGradient>
  </defs>
  <rect width="800" height="420" fill="url(#bg)"/>
  <circle cx="543" cy="203" r="118" fill="#15191d" opacity="0.13"/>
  <circle cx="151" cy="151" r="120" fill="#9b5cff" opacity="0.16"/>
  <circle cx="136" cy="178" r="2" fill="#12b7a6" opacity="0.51"/><circle cx="443" cy="267" r="2" fill="#12b7a6" opacity="0.5"/><circle cx="238" cy="342" r="2" fill="#12b7a6" opacity="0.53"/><circle cx="545" cy="89" r="2" fill="#12b7a6" opacity="0.52"/><circle cx="648" cy="193" r="2" fill="#12b7a6" opacity="0.47000000000000003"/><circle cx="239" cy="282" r="2" fill="#12b7a6" opacity="0.46"/><circle cx="750" cy="356" r="2" fill="#12b7a6" opacity="0.49"/><circle cx="341" cy="103" r="2" fill="#12b7a6" opacity="0.48000000000000004"/><circle cx="444" cy="207" r="2" fill="#12b7a6" opacity="0.43000000000000005"/>
  <path d="M226 160c40-54 310-54 348 0l58 104c24 44-12 86-58 64l-74-36H300l-74 36c-46 22-82-20-58-64z" fill="#15191d"/><path d="M284 232h82M325 191v82" stroke="#fff" stroke-width="20" stroke-linecap="round"/><circle cx="518" cy="218" r="20" fill="#12b7a6"/><circle cx="568" cy="252" r="20" fill="#fffaf4"/><circle cx="456" cy="252" r="20" fill="#12b7a6"/>
</svg>
