<svg xmlns="http://www.w3.org/2000/svg" viewBox="0 0 800 420" role="img" aria-label="Ilustracion propia de videojuegos para esta pregunta">
  <defs>
    <linearGradient id="bg" x1="0" x2="1" y1="0" y2="1">
      <stop stop-color="#f4efff"/>
      <stop offset="1" stop-color="#9b5cff" stop-opacity="0.22"/>
    </linearGradient>
  </defs>
  <rect width="800" height="420" fill="url(#bg)"/>
  <circle cx="502" cy="144" r="83" fill="#15191d" opacity="0.13"/>
  <circle cx="296" cy="72" r="126" fill="#9b5cff" opacity="0.16"/>
  <circle cx="69" cy="290" r="5" fill="#12b7a6" opacity="0.28"/><circle cx="478" cy="201" r="5" fill="#12b7a6" opacity="0.29000000000000004"/><circle cx="683" cy="126" r="5" fill="#12b7a6" opacity="0.71"/><circle cx="376" cy="37" r="5" fill="#12b7a6" opacity="0.72"/><circle cx="97" cy="177" r="5" fill="#12b7a6" opacity="0.38"/><circle cx="506" cy="87" r="5" fill="#12b7a6" opacity="0.39"/><circle cx="711" cy="355" r="5" fill="#12b7a6" opacity="0.36000000000000004"/><circle cx="404" cy="266" r="5" fill="#12b7a6" opacity="0.37"/><circle cx="477" cy="261" r="5" fill="#12b7a6" opacity="0.36000000000000004"/>
  <path d="M226 160c40-54 310-54 348 0l58 104c24 44-12 86-58 64l-74-36H300l-74 36c-46 22-82-20-58-64z" fill="#15191d"/><path d="M284 232h82M325 191v82" stroke="#fff" stroke-width="20" stroke-linecap="round"/><circle cx="506" cy="218" r="20" fill="#12b7a6"/><circle cx="558" cy="252" r="20" fill="#fffaf4"/><circle cx="456" cy="252" r="20" fill="#12b7a6"/>
</svg>
