<svg xmlns="http://www.w3.org/2000/svg" viewBox="0 0 800 420" role="img" aria-label="Ilustracion propia de videojuegos para esta pregunta">
  <defs>
    <linearGradient id="bg" x1="0" x2="1" y1="0" y2="1">
      <stop stop-color="#f4efff"/>
      <stop offset="1" stop-color="#12b7a6" stop-opacity="0.22"/>
    </linearGradient>
  </defs>
  <rect width="800" height="420" fill="url(#bg)"/>
  <circle cx="543" cy="300" r="135" fill="#15191d" opacity="0.13"/>
  <circle cx="376" cy="127" r="112" fill="#9b5cff" opacity="0.16"/>
  <circle cx="505" cy="61" r="3" fill="#12b7a6" opacity="0.5700000000000001"/><circle cx="198" cy="314" r="3" fill="#12b7a6" opacity="0.5800000000000001"/><circle cx="403" cy="239" r="3" fill="#12b7a6" opacity="0.55"/><circle cx="96" cy="150" r="3" fill="#12b7a6" opacity="0.56"/><circle cx="709" cy="47" r="2" fill="#12b7a6" opacity="0.6100000000000001"/><circle cx="402" cy="299" r="2" fill="#12b7a6" opacity="0.6200000000000001"/><circle cx="607" cy="225" r="3" fill="#12b7a6" opacity="0.5900000000000001"/><circle cx="300" cy="136" r="2" fill="#12b7a6" opacity="0.6000000000000001"/><circle cx="197" cy="374" r="2" fill="#12b7a6" opacity="0.65"/>
  <path d="M226 160c40-54 310-54 348 0l58 104c24 44-12 86-58 64l-74-36H300l-74 36c-46 22-82-20-58-64z" fill="#15191d"/><path d="M284 232h82M325 191v82" stroke="#fff" stroke-width="20" stroke-linecap="round"/><circle cx="518" cy="218" r="20" fill="#12b7a6"/><circle cx="568" cy="252" r="20" fill="#fffaf4"/><circle cx="456" cy="252" r="20" fill="#12b7a6"/>
</svg>
