<svg xmlns="http://www.w3.org/2000/svg" viewBox="0 0 800 420" role="img" aria-label="Ilustracion propia de oceano y olas para esta pregunta">
  <defs>
    <linearGradient id="bg" x1="0" x2="1" y1="0" y2="1">
      <stop stop-color="#dff8ff"/>
      <stop offset="1" stop-color="#fffaf4" stop-opacity="0.22"/>
    </linearGradient>
  </defs>
  <rect width="800" height="420" fill="url(#bg)"/>
  <circle cx="197" cy="173" r="111" fill="#12b7a6" opacity="0.13"/>
  <circle cx="108" cy="290" r="99" fill="#315be8" opacity="0.16"/>
  <circle cx="439" cy="223" r="3" fill="#fffaf4" opacity="0.38"/><circle cx="132" cy="134" r="3" fill="#fffaf4" opacity="0.39"/><circle cx="541" cy="45" r="3" fill="#fffaf4" opacity="0.4"/><circle cx="234" cy="297" r="3" fill="#fffaf4" opacity="0.41000000000000003"/><circle cx="235" cy="237" r="3" fill="#fffaf4" opacity="0.34"/><circle cx="644" cy="148" r="3" fill="#fffaf4" opacity="0.35000000000000003"/><circle cx="337" cy="59" r="3" fill="#fffaf4" opacity="0.36000000000000004"/><circle cx="746" cy="312" r="3" fill="#fffaf4" opacity="0.37"/><circle cx="747" cy="252" r="3" fill="#fffaf4" opacity="0.30000000000000004"/>
  <path d="M0 240c88-42 144 42 232 0s144 42 232 0 144 42 232 0 144 42 232 0v180H0z" fill="#fff" opacity=".34"/><path d="M0 296c88-42 144 42 232 0s144 42 232 0 144 42 232 0 144 42 232 0" fill="none" stroke="#fff" stroke-width="18" opacity=".62"/><path d="M142 174c82-44 170-44 252 0" fill="none" stroke="#fff" stroke-width="10" opacity=".45" stroke-linecap="round"/>
</svg>
