<svg xmlns="http://www.w3.org/2000/svg" viewBox="0 0 800 420" role="img" aria-label="Ilustracion propia de videojuegos para esta pregunta">
  <defs>
    <linearGradient id="bg" x1="0" x2="1" y1="0" y2="1">
      <stop stop-color="#f4efff"/>
      <stop offset="1" stop-color="#f4efff" stop-opacity="0.22"/>
    </linearGradient>
  </defs>
  <rect width="800" height="420" fill="url(#bg)"/>
  <circle cx="422" cy="189" r="94" fill="#15191d" opacity="0.13"/>
  <circle cx="511" cy="292" r="97" fill="#9b5cff" opacity="0.16"/>
  <circle cx="442" cy="146" r="3" fill="#12b7a6" opacity="0.52"/><circle cx="749" cy="235" r="3" fill="#12b7a6" opacity="0.51"/><circle cx="340" cy="325" r="3" fill="#12b7a6" opacity="0.5"/><circle cx="647" cy="72" r="3" fill="#12b7a6" opacity="0.49"/><circle cx="646" cy="132" r="3" fill="#12b7a6" opacity="0.56"/><circle cx="237" cy="221" r="3" fill="#12b7a6" opacity="0.55"/><circle cx="544" cy="310" r="3" fill="#12b7a6" opacity="0.54"/><circle cx="135" cy="57" r="3" fill="#12b7a6" opacity="0.53"/><circle cx="750" cy="175" r="3" fill="#12b7a6" opacity="0.44000000000000006"/>
  <path d="M226 160c40-54 310-54 348 0l58 104c24 44-12 86-58 64l-74-36H300l-74 36c-46 22-82-20-58-64z" fill="#15191d"/><path d="M284 232h82M325 191v82" stroke="#fff" stroke-width="20" stroke-linecap="round"/><circle cx="506" cy="218" r="20" fill="#12b7a6"/><circle cx="558" cy="252" r="20" fill="#fffaf4"/><circle cx="456" cy="252" r="20" fill="#12b7a6"/>
</svg>
