<svg xmlns="http://www.w3.org/2000/svg" viewBox="0 0 800 420" role="img" aria-label="Ilustracion propia de oceano y olas para esta pregunta">
  <defs>
    <linearGradient id="bg" x1="0" x2="1" y1="0" y2="1">
      <stop stop-color="#dff8ff"/>
      <stop offset="1" stop-color="#dff8ff" stop-opacity="0.22"/>
    </linearGradient>
  </defs>
  <rect width="800" height="420" fill="url(#bg)"/>
  <circle cx="649" cy="336" r="68" fill="#12b7a6" opacity="0.13"/>
  <circle cx="240" cy="275" r="64" fill="#315be8" opacity="0.16"/>
  <circle cx="384" cy="180" r="4" fill="#fffaf4" opacity="0.6100000000000001"/><circle cx="691" cy="269" r="4" fill="#fffaf4" opacity="0.6000000000000001"/><circle cx="486" cy="344" r="4" fill="#fffaf4" opacity="0.63"/><circle cx="77" cy="91" r="4" fill="#fffaf4" opacity="0.6200000000000001"/><circle cx="588" cy="165" r="4" fill="#fffaf4" opacity="0.65"/><circle cx="179" cy="254" r="4" fill="#fffaf4" opacity="0.64"/><circle cx="690" cy="329" r="4" fill="#fffaf4" opacity="0.67"/><circle cx="281" cy="76" r="4" fill="#fffaf4" opacity="0.66"/><circle cx="76" cy="151" r="4" fill="#fffaf4" opacity="0.69"/>
  <path d="M0 240c88-42 144 42 232 0s144 42 232 0 144 42 232 0 144 42 232 0v180H0z" fill="#fff" opacity=".34"/><path d="M0 316c88-42 144 42 232 0s144 42 232 0 144 42 232 0 144 42 232 0" fill="none" stroke="#fff" stroke-width="18" opacity=".62"/><path d="M142 174c82-44 170-44 252 0" fill="none" stroke="#fff" stroke-width="10" opacity=".45" stroke-linecap="round"/>
</svg>
