<svg xmlns="http://www.w3.org/2000/svg" viewBox="0 0 800 420" role="img" aria-label="Ilustracion propia de videojuegos para esta pregunta">
  <defs>
    <linearGradient id="bg" x1="0" x2="1" y1="0" y2="1">
      <stop stop-color="#f4efff"/>
      <stop offset="1" stop-color="#f4efff" stop-opacity="0.22"/>
    </linearGradient>
  </defs>
  <rect width="800" height="420" fill="url(#bg)"/>
  <circle cx="282" cy="287" r="80" fill="#15191d" opacity="0.13"/>
  <circle cx="494" cy="268" r="96" fill="#9b5cff" opacity="0.16"/>
  <circle cx="756" cy="97" r="5" fill="#12b7a6" opacity="0.35000000000000003"/><circle cx="347" cy="186" r="5" fill="#12b7a6" opacity="0.34"/><circle cx="142" cy="260" r="5" fill="#12b7a6" opacity="0.37"/><circle cx="449" cy="349" r="5" fill="#12b7a6" opacity="0.36000000000000004"/><circle cx="244" cy="82" r="5" fill="#12b7a6" opacity="0.39"/><circle cx="551" cy="171" r="5" fill="#12b7a6" opacity="0.38"/><circle cx="346" cy="246" r="5" fill="#12b7a6" opacity="0.41000000000000003"/><circle cx="653" cy="335" r="5" fill="#12b7a6" opacity="0.4"/><circle cx="348" cy="126" r="5" fill="#12b7a6" opacity="0.72"/>
  <path d="M226 160c40-54 310-54 348 0l58 104c24 44-12 86-58 64l-74-36H300l-74 36c-46 22-82-20-58-64z" fill="#15191d"/><path d="M284 232h82M325 191v82" stroke="#fff" stroke-width="20" stroke-linecap="round"/><circle cx="506" cy="218" r="20" fill="#12b7a6"/><circle cx="558" cy="252" r="20" fill="#fffaf4"/><circle cx="456" cy="252" r="20" fill="#12b7a6"/>
</svg>
