<svg xmlns="http://www.w3.org/2000/svg" viewBox="0 0 800 420" role="img" aria-label="Ilustracion propia de tecnologia para esta pregunta">
  <defs>
    <linearGradient id="bg" x1="0" x2="1" y1="0" y2="1">
      <stop stop-color="#111820"/>
      <stop offset="1" stop-color="#fffaf4" stop-opacity="0.22"/>
    </linearGradient>
  </defs>
  <rect width="800" height="420" fill="url(#bg)"/>
  <circle cx="516" cy="276" r="66" fill="#fffaf4" opacity="0.13"/>
  <circle cx="673" cy="231" r="104" fill="#315be8" opacity="0.16"/>
  <circle cx="505" cy="352" r="5" fill="#12b7a6" opacity="0.46"/><circle cx="198" cy="263" r="5" fill="#12b7a6" opacity="0.47000000000000003"/><circle cx="403" cy="189" r="5" fill="#12b7a6" opacity="0.44000000000000006"/><circle cx="96" cy="100" r="5" fill="#12b7a6" opacity="0.45000000000000007"/><circle cx="301" cy="367" r="5" fill="#12b7a6" opacity="0.42000000000000004"/><circle cx="710" cy="278" r="5" fill="#12b7a6" opacity="0.43000000000000005"/><circle cx="199" cy="203" r="5" fill="#12b7a6" opacity="0.4"/><circle cx="608" cy="114" r="5" fill="#12b7a6" opacity="0.41000000000000003"/><circle cx="97" cy="40" r="5" fill="#12b7a6" opacity="0.38"/>
  <rect width="800" height="420" fill="#fffaf4"/><rect x="108" y="72" width="584" height="276" rx="28" fill="#315be8"/><rect x="108" y="72" width="584" height="58" rx="28" fill="#12b7a6"/><path d="M210 206l-62 44 62 44M590 206l62 44-62 44" stroke="#fffaf4" stroke-width="20" stroke-linecap="round" stroke-linejoin="round" fill="none"/><path d="M364 306l72-184" stroke="#12b7a6" stroke-width="18" stroke-linecap="round"/>
</svg>
