<svg xmlns="http://www.w3.org/2000/svg" viewBox="0 0 800 420" role="img" aria-label="Ilustracion propia de tecnologia para esta pregunta">
  <defs>
    <linearGradient id="bg" x1="0" x2="1" y1="0" y2="1">
      <stop stop-color="#111820"/>
      <stop offset="1" stop-color="#fffaf4" stop-opacity="0.22"/>
    </linearGradient>
  </defs>
  <rect width="800" height="420" fill="url(#bg)"/>
  <circle cx="476" cy="133" r="74" fill="#fffaf4" opacity="0.13"/>
  <circle cx="143" cy="213" r="75" fill="#315be8" opacity="0.16"/>
  <circle cx="185" cy="88" r="5" fill="#12b7a6" opacity="0.5700000000000001"/><circle cx="594" cy="341" r="5" fill="#12b7a6" opacity="0.5800000000000001"/><circle cx="83" cy="267" r="5" fill="#12b7a6" opacity="0.55"/><circle cx="492" cy="178" r="5" fill="#12b7a6" opacity="0.56"/><circle cx="697" cy="103" r="5" fill="#12b7a6" opacity="0.53"/><circle cx="390" cy="356" r="5" fill="#12b7a6" opacity="0.54"/><circle cx="595" cy="281" r="5" fill="#12b7a6" opacity="0.51"/><circle cx="288" cy="192" r="5" fill="#12b7a6" opacity="0.52"/><circle cx="593" cy="59" r="5" fill="#12b7a6" opacity="0.65"/>
  <rect width="800" height="420" fill="#fffaf4"/><rect x="108" y="72" width="584" height="276" rx="28" fill="#315be8"/><rect x="108" y="72" width="584" height="58" rx="28" fill="#12b7a6"/><path d="M210 206l-62 44 62 44M590 206l62 44-62 44" stroke="#fffaf4" stroke-width="20" stroke-linecap="round" stroke-linejoin="round" fill="none"/><path d="M364 306l72-184" stroke="#12b7a6" stroke-width="18" stroke-linecap="round"/>
</svg>
