<svg xmlns="http://www.w3.org/2000/svg" viewBox="0 0 800 420" role="img" aria-label="Ilustracion propia de tecnologia para esta pregunta">
  <defs>
    <linearGradient id="bg" x1="0" x2="1" y1="0" y2="1">
      <stop stop-color="#111820"/>
      <stop offset="1" stop-color="#111820" stop-opacity="0.22"/>
    </linearGradient>
  </defs>
  <rect width="800" height="420" fill="url(#bg)"/>
  <circle cx="498" cy="275" r="140" fill="#fffaf4" opacity="0.13"/>
  <circle cx="446" cy="88" r="143" fill="#315be8" opacity="0.16"/>
  <circle cx="470" cy="346" r="2" fill="#12b7a6" opacity="0.69"/><circle cx="61" cy="93" r="2" fill="#12b7a6" opacity="0.68"/><circle cx="368" cy="182" r="2" fill="#12b7a6" opacity="0.67"/><circle cx="675" cy="271" r="2" fill="#12b7a6" opacity="0.66"/><circle cx="674" cy="331" r="2" fill="#12b7a6" opacity="0.28"/><circle cx="265" cy="79" r="2" fill="#12b7a6" opacity="0.72"/><circle cx="572" cy="168" r="2" fill="#12b7a6" opacity="0.71"/><circle cx="163" cy="257" r="2" fill="#12b7a6" opacity="0.7"/><circle cx="62" cy="375" r="3" fill="#12b7a6" opacity="0.6100000000000001"/>
  <rect width="800" height="420" fill="#fffaf4"/><rect x="108" y="72" width="584" height="276" rx="28" fill="#315be8"/><rect x="108" y="72" width="584" height="58" rx="28" fill="#12b7a6"/><path d="M234 206l-62 44 62 44M566 206l62 44-62 44" stroke="#fffaf4" stroke-width="20" stroke-linecap="round" stroke-linejoin="round" fill="none"/><path d="M364 306l72-184" stroke="#12b7a6" stroke-width="18" stroke-linecap="round"/>
</svg>
