<svg xmlns="http://www.w3.org/2000/svg" viewBox="0 0 800 420" role="img" aria-label="Ilustracion propia de tecnologia para esta pregunta">
  <defs>
    <linearGradient id="bg" x1="0" x2="1" y1="0" y2="1">
      <stop stop-color="#111820"/>
      <stop offset="1" stop-color="#315be8" stop-opacity="0.22"/>
    </linearGradient>
  </defs>
  <rect width="800" height="420" fill="url(#bg)"/>
  <circle cx="297" cy="220" r="95" fill="#fffaf4" opacity="0.13"/>
  <circle cx="496" cy="189" r="117" fill="#315be8" opacity="0.16"/>
  <circle cx="704" cy="266" r="3" fill="#12b7a6" opacity="0.7"/><circle cx="295" cy="355" r="3" fill="#12b7a6" opacity="0.69"/><circle cx="90" cy="87" r="3" fill="#12b7a6" opacity="0.72"/><circle cx="397" cy="176" r="3" fill="#12b7a6" opacity="0.71"/><circle cx="500" cy="280" r="4" fill="#12b7a6" opacity="0.66"/><circle cx="91" cy="369" r="4" fill="#12b7a6" opacity="0.65"/><circle cx="602" cy="102" r="3" fill="#12b7a6" opacity="0.68"/><circle cx="193" cy="191" r="3" fill="#12b7a6" opacity="0.67"/><circle cx="396" cy="236" r="3" fill="#12b7a6" opacity="0.33"/>
  <rect width="800" height="420" fill="#fffaf4"/><rect x="108" y="72" width="584" height="276" rx="28" fill="#315be8"/><rect x="108" y="72" width="584" height="58" rx="28" fill="#12b7a6"/><path d="M222 206l-62 44 62 44M578 206l62 44-62 44" stroke="#fffaf4" stroke-width="20" stroke-linecap="round" stroke-linejoin="round" fill="none"/><path d="M364 306l72-184" stroke="#12b7a6" stroke-width="18" stroke-linecap="round"/>
</svg>
