<svg xmlns="http://www.w3.org/2000/svg" viewBox="0 0 800 420" role="img" aria-label="Ilustracion propia de tecnologia para esta pregunta">
  <defs>
    <linearGradient id="bg" x1="0" x2="1" y1="0" y2="1">
      <stop stop-color="#111820"/>
      <stop offset="1" stop-color="#fffaf4" stop-opacity="0.22"/>
    </linearGradient>
  </defs>
  <rect width="800" height="420" fill="url(#bg)"/>
  <circle cx="335" cy="318" r="72" fill="#fffaf4" opacity="0.13"/>
  <circle cx="200" cy="129" r="95" fill="#315be8" opacity="0.16"/>
  <circle cx="649" cy="143" r="3" fill="#12b7a6" opacity="0.41000000000000003"/><circle cx="342" cy="54" r="3" fill="#12b7a6" opacity="0.42000000000000004"/><circle cx="547" cy="321" r="3" fill="#12b7a6" opacity="0.39"/><circle cx="240" cy="232" r="3" fill="#12b7a6" opacity="0.4"/><circle cx="445" cy="157" r="3" fill="#12b7a6" opacity="0.37"/><circle cx="138" cy="68" r="3" fill="#12b7a6" opacity="0.38"/><circle cx="343" cy="336" r="3" fill="#12b7a6" opacity="0.35000000000000003"/><circle cx="752" cy="247" r="3" fill="#12b7a6" opacity="0.36000000000000004"/><circle cx="241" cy="172" r="3" fill="#12b7a6" opacity="0.33"/>
  <rect width="800" height="420" fill="#fffaf4"/><rect x="108" y="72" width="584" height="276" rx="28" fill="#315be8"/><rect x="108" y="72" width="584" height="58" rx="28" fill="#12b7a6"/><path d="M258 206l-62 44 62 44M542 206l62 44-62 44" stroke="#fffaf4" stroke-width="20" stroke-linecap="round" stroke-linejoin="round" fill="none"/><path d="M364 306l72-184" stroke="#12b7a6" stroke-width="18" stroke-linecap="round"/>
</svg>
