<svg xmlns="http://www.w3.org/2000/svg" viewBox="0 0 800 420" role="img" aria-label="Ilustracion propia de tecnologia para esta pregunta">
  <defs>
    <linearGradient id="bg" x1="0" x2="1" y1="0" y2="1">
      <stop stop-color="#111820"/>
      <stop offset="1" stop-color="#315be8" stop-opacity="0.22"/>
    </linearGradient>
  </defs>
  <rect width="800" height="420" fill="url(#bg)"/>
  <circle cx="123" cy="105" r="143" fill="#fffaf4" opacity="0.13"/>
  <circle cx="174" cy="67" r="83" fill="#315be8" opacity="0.16"/>
  <circle cx="619" cy="104" r="2" fill="#12b7a6" opacity="0.44000000000000006"/><circle cx="312" cy="357" r="2" fill="#12b7a6" opacity="0.45000000000000007"/><circle cx="721" cy="267" r="2" fill="#12b7a6" opacity="0.46"/><circle cx="414" cy="178" r="2" fill="#12b7a6" opacity="0.47000000000000003"/><circle cx="415" cy="118" r="2" fill="#12b7a6" opacity="0.4"/><circle cx="108" cy="371" r="2" fill="#12b7a6" opacity="0.41000000000000003"/><circle cx="517" cy="282" r="2" fill="#12b7a6" opacity="0.42000000000000004"/><circle cx="210" cy="193" r="2" fill="#12b7a6" opacity="0.43000000000000005"/><circle cx="311" cy="75" r="2" fill="#12b7a6" opacity="0.52"/>
  <rect width="800" height="420" fill="#fffaf4"/><rect x="108" y="72" width="584" height="276" rx="28" fill="#315be8"/><rect x="108" y="72" width="584" height="58" rx="28" fill="#12b7a6"/><path d="M234 206l-62 44 62 44M566 206l62 44-62 44" stroke="#fffaf4" stroke-width="20" stroke-linecap="round" stroke-linejoin="round" fill="none"/><path d="M364 306l72-184" stroke="#12b7a6" stroke-width="18" stroke-linecap="round"/>
</svg>
