<svg xmlns="http://www.w3.org/2000/svg" viewBox="0 0 800 420" role="img" aria-label="Ilustracion propia de tecnologia para esta pregunta">
  <defs>
    <linearGradient id="bg" x1="0" x2="1" y1="0" y2="1">
      <stop stop-color="#111820"/>
      <stop offset="1" stop-color="#111820" stop-opacity="0.22"/>
    </linearGradient>
  </defs>
  <rect width="800" height="420" fill="url(#bg)"/>
  <circle cx="319" cy="207" r="124" fill="#fffaf4" opacity="0.13"/>
  <circle cx="423" cy="187" r="71" fill="#315be8" opacity="0.16"/>
  <circle cx="228" cy="336" r="5" fill="#12b7a6" opacity="0.6000000000000001"/><circle cx="535" cy="83" r="5" fill="#12b7a6" opacity="0.5900000000000001"/><circle cx="330" cy="158" r="5" fill="#12b7a6" opacity="0.6200000000000001"/><circle cx="637" cy="247" r="5" fill="#12b7a6" opacity="0.6100000000000001"/><circle cx="432" cy="322" r="5" fill="#12b7a6" opacity="0.64"/><circle cx="739" cy="69" r="5" fill="#12b7a6" opacity="0.63"/><circle cx="534" cy="143" r="4" fill="#12b7a6" opacity="0.66"/><circle cx="125" cy="233" r="5" fill="#12b7a6" opacity="0.65"/><circle cx="536" cy="365" r="5" fill="#12b7a6" opacity="0.52"/>
  <rect width="800" height="420" fill="#fffaf4"/><rect x="108" y="72" width="584" height="276" rx="28" fill="#315be8"/><rect x="108" y="72" width="584" height="58" rx="28" fill="#12b7a6"/><path d="M246 206l-62 44 62 44M554 206l62 44-62 44" stroke="#fffaf4" stroke-width="20" stroke-linecap="round" stroke-linejoin="round" fill="none"/><path d="M364 306l72-184" stroke="#12b7a6" stroke-width="18" stroke-linecap="round"/>
</svg>
